<svg width="143" height="80" viewBox="0 0 143 80" fill="none" xmlns="http://www.w3.org/2000/svg">
<path d="M0 6C0 2.68629 2.68629 0 6 0H137C140.314 0 143 2.68629 143 6V74C143 77.3137 140.314 80 137 80H6C2.68629 80 0 77.3137 0 74V6Z" fill="white"/>
<path fill-rule="evenodd" clip-rule="evenodd" d="M137 0.961367H6C3.21724 0.961367 0.961367 3.21724 0.961367 6V74C0.961367 76.7828 3.21724 79.0386 6 79.0386H137C139.783 79.0386 142.039 76.7828 142.039 74V6C142.039 3.21724 139.783 0.961367 137 0.961367ZM6 0C2.68629 0 0 2.68629 0 6V74C0 77.3137 2.68629 80 6 80H137C140.314 80 143 77.3137 143 74V6C143 2.68629 140.314 0 137 0H6Z" fill="#BBC3C6"/>
<path d="M0 6C0 2.68629 2.68629 0 6 0H137C140.314 0 143 2.68629 143 6V74C143 77.3137 140.314 80 137 80H6C2.68629 80 0 77.3137 0 74V6Z" fill="white"/>
<path fill-rule="evenodd" clip-rule="evenodd" d="M137 0.961367H6C3.21724 0.961367 0.961367 3.21724 0.961367 6V74C0.961367 76.7828 3.21724 79.0386 6 79.0386H137C139.783 79.0386 142.039 76.7828 142.039 74V6C142.039 3.21724 139.783 0.961367 137 0.961367ZM6 0C2.68629 0 0 2.68629 0 6V74C0 77.3137 2.68629 80 6 80H137C140.314 80 143 77.3137 143 74V6C143 2.68629 140.314 0 137 0H6Z" fill="#BBC3C6"/>
<path fill-rule="evenodd" clip-rule="evenodd" d="M57.7565 32.6349L65.5285 32.6349L65.5285 33.6349L57.7565 33.6349L57.7565 32.6349Z" fill="#E3E6E7"/>
<path fill-rule="evenodd" clip-rule="evenodd" d="M79.1295 32.6349H89.6218V33.6349H79.1295V32.6349Z" fill="#E3E6E7"/>
<path fill-rule="evenodd" clip-rule="evenodd" d="M52.3161 50.5106L65.5285 50.5106L65.5285 51.5106L52.3161 51.5106L52.3161 50.5106Z" fill="#E3E6E7"/>
<path fill-rule="evenodd" clip-rule="evenodd" d="M57.7565 68.3862L65.5285 68.3862L65.5285 69.3862L57.7565 69.3862L57.7565 68.3862Z" fill="#E3E6E7"/>
<path d="M79.1295 50.5106C79.1295 54.5883 75.8238 57.894 71.7461 57.894C67.6683 57.894 64.3627 54.5883 64.3627 50.5106C64.3627 46.4328 67.6683 43.1272 71.7461 43.1272C75.8238 43.1272 79.1295 46.4328 79.1295 50.5106Z" fill="#E3E6E7"/>
<path d="M79.1295 68.3862C79.1295 72.4639 75.8238 75.7696 71.7461 75.7696C67.6683 75.7696 64.3627 72.4639 64.3627 68.3862C64.3627 64.3084 67.6683 61.0028 71.7461 61.0028C75.8238 61.0028 79.1295 64.3084 79.1295 68.3862Z" fill="#E3E6E7"/>
<path d="M79.1295 32.6349C79.1295 36.7126 75.8238 40.0183 71.7461 40.0183C67.6683 40.0183 64.3627 36.7126 64.3627 32.6349C64.3627 28.5571 67.6683 25.2515 71.7461 25.2515C75.8238 25.2515 79.1295 28.5571 79.1295 32.6349Z" fill="#243D48"/>
<path d="M79.1295 14.7593C79.1295 18.837 75.8238 22.1427 71.7461 22.1427C67.6683 22.1427 64.3627 18.837 64.3627 14.7593C64.3627 10.6815 67.6683 7.37585 71.7461 7.37585C75.8238 7.37585 79.1295 10.6815 79.1295 14.7593Z" fill="#E3E6E7"/>
<path d="M53.0933 50.5105C53.0933 57.1637 47.6998 62.5572 41.0466 62.5572C34.3935 62.5572 29 57.1637 29 50.5105C29 43.8574 34.3935 38.4639 41.0466 38.4639C47.6998 38.4639 53.0933 43.8574 53.0933 50.5105Z" fill="#243D48"/>
<path fill-rule="evenodd" clip-rule="evenodd" d="M91.1762 14.3727C86.2223 14.4761 82.2383 18.5242 82.2383 23.5028V41.3784C82.2383 46.357 86.2223 50.4051 91.1762 50.5085V49.5083C86.7747 49.4051 83.2383 45.8047 83.2383 41.3784V23.5028C83.2383 19.0765 86.7747 15.4761 91.1762 15.3729V14.3727Z" fill="#E3E6E7"/>
<path d="M104 50.5106C104 54.5883 100.694 57.894 96.6166 57.894C92.5388 57.894 89.2332 54.5883 89.2332 50.5106C89.2332 46.4328 92.5388 43.1272 96.6166 43.1272C100.694 43.1272 104 46.4328 104 50.5106Z" fill="#243D48"/>
<path d="M104 32.6349C104 36.7126 100.694 40.0183 96.6166 40.0183C92.5388 40.0183 89.2332 36.7126 89.2332 32.6349C89.2332 28.5571 92.5388 25.2515 96.6166 25.2515C100.694 25.2515 104 28.5571 104 32.6349Z" fill="#E3E6E7"/>
<path d="M104 14.7593C104 18.837 100.694 22.1427 96.6166 22.1427C92.5388 22.1427 89.2332 18.837 89.2332 14.7593C89.2332 10.6815 92.5388 7.37585 96.6166 7.37585C100.694 7.37585 104 10.6815 104 14.7593Z" fill="#E3E6E7"/>
<path fill-rule="evenodd" clip-rule="evenodd" d="M57.7565 23.9199C57.7565 19.1983 61.5841 15.3707 66.3057 15.3707V16.3707C62.1364 16.3707 58.7565 19.7506 58.7565 23.9199V79H57.7565V23.9199Z" fill="#E3E6E7"/>
</svg>
