<svg width="160" height="82" viewBox="0 0 160 82" fill="none" xmlns="http://www.w3.org/2000/svg">
<rect width="37" height="82" rx="6" fill="white"/>
<mask id="mask0_384_2542" style="mask-type:alpha" maskUnits="userSpaceOnUse" x="0" y="0" width="37" height="82">
<rect width="37" height="82" rx="6" fill="white"/>
</mask>
<g mask="url(#mask0_384_2542)">
<ellipse cx="15.5601" cy="38.423" rx="13.7626" ry="13.8375" fill="#243D48"/>
<ellipse cx="34.0309" cy="29.6835" rx="6.15694" ry="5.82633" fill="#D0D4D7"/>
<ellipse cx="39.1013" cy="40.2437" rx="4.70825" ry="4.73389" fill="#D0D4D7"/>
<ellipse cx="31.8579" cy="48.9832" rx="3.9839" ry="4.0056" fill="#D0D4D7"/>
<ellipse cx="2.88399" cy="55.1737" rx="6.15694" ry="5.82633" fill="#D0D4D7"/>
<ellipse cx="-3.63511" cy="44.6134" rx="3.9839" ry="4.0056" fill="#D0D4D7"/>
</g>
<rect x="0.480683" y="0.480683" width="36.0386" height="81.0386" rx="5.51932" stroke="#D0D4D7" stroke-width="0.961367"/>
<rect x="41" width="37" height="81" rx="6" fill="white"/>
<mask id="mask1_384_2542" style="mask-type:alpha" maskUnits="userSpaceOnUse" x="41" y="1" width="37" height="80">
<rect x="41" y="1" width="37" height="80" rx="6" fill="white"/>
</mask>
<g mask="url(#mask1_384_2542)">
<path fill-rule="evenodd" clip-rule="evenodd" d="M56.0103 15.0271H54.4144C52.064 15.0271 50.1587 17.0277 50.1587 19.4955V63.3424C50.1587 65.8102 52.064 67.8108 54.4144 67.8108H56.0103V67.5316H54.4144C52.2109 67.5316 50.4247 65.656 50.4247 63.3424V19.4955C50.4247 17.1819 52.2109 15.3063 54.4144 15.3063H56.0103V15.0271Z" fill="#D0D4D7"/>
<path fill-rule="evenodd" clip-rule="evenodd" d="M50.1587 28.1532L55.4783 28.1532L55.4783 28.4324L50.1587 28.4324L50.1587 28.1532Z" fill="#D0D4D7"/>
<path fill-rule="evenodd" clip-rule="evenodd" d="M64.7876 28.1532H71.9691V28.4324H64.7876V28.1532Z" fill="#D0D4D7"/>
<path fill-rule="evenodd" clip-rule="evenodd" d="M46.435 41L55.4783 41L55.4783 41.2793L46.435 41.2793L46.435 41Z" fill="#D0D4D7"/>
<path fill-rule="evenodd" clip-rule="evenodd" d="M50.1587 53.8468L55.4783 53.8468L55.4783 54.1261L50.1587 54.1261L50.1587 53.8468Z" fill="#D0D4D7"/>
<path d="M64.7876 41C64.7876 43.9306 62.525 46.3063 59.734 46.3063C56.9429 46.3063 54.6804 43.9306 54.6804 41C54.6804 38.0694 56.9429 35.6937 59.734 35.6937C62.525 35.6937 64.7876 38.0694 64.7876 41Z" fill="#D0D4D7"/>
<path d="M64.7876 53.8468C64.7876 56.7774 62.525 59.1532 59.734 59.1532C56.9429 59.1532 54.6804 56.7774 54.6804 53.8468C54.6804 50.9163 56.9429 48.5405 59.734 48.5405C62.525 48.5405 64.7876 50.9163 64.7876 53.8468Z" fill="#D0D4D7"/>
<path d="M64.7876 66.6937C64.7876 69.6243 62.525 72 59.734 72C56.9429 72 54.6804 69.6243 54.6804 66.6937C54.6804 63.7631 56.9429 61.3874 59.734 61.3874C62.525 61.3874 64.7876 63.7631 64.7876 66.6937Z" fill="#D0D4D7"/>
<path d="M64.7876 28.1532C64.7876 31.0838 62.525 33.4595 59.734 33.4595C56.9429 33.4595 54.6804 31.0838 54.6804 28.1532C54.6804 25.2226 56.9429 22.8469 59.734 22.8469C62.525 22.8469 64.7876 25.2226 64.7876 28.1532Z" fill="#243D48"/>
<path d="M64.7876 15.3063C64.7876 18.2369 62.525 20.6126 59.734 20.6126C56.9429 20.6126 54.6804 18.2369 54.6804 15.3063C54.6804 12.3757 56.9429 10 59.734 10C62.525 10 64.7876 12.3757 64.7876 15.3063Z" fill="#D0D4D7"/>
<path d="M46.967 41C46.967 45.7815 43.2754 49.6577 38.7216 49.6577C34.1678 49.6577 30.4762 45.7815 30.4762 41C30.4762 36.2185 34.1678 32.3424 38.7216 32.3424C43.2754 32.3424 46.967 36.2185 46.967 41Z" fill="#243D48"/>
<path fill-rule="evenodd" clip-rule="evenodd" d="M73.033 15.0271H71.1712C68.8208 15.0271 66.9155 17.0277 66.9155 19.4955V36.5316C66.9155 38.9994 68.8208 41 71.1712 41H73.033V40.7208H71.1712C68.9677 40.7208 67.1814 38.8452 67.1814 36.5316V19.4955C67.1814 17.1819 68.9677 15.3063 71.1712 15.3063H73.033V15.0271Z" fill="#D0D4D7"/>
<path d="M81.8104 41C81.8104 43.9306 79.5478 46.3063 76.7568 46.3063C73.9657 46.3063 71.7031 43.9306 71.7031 41C71.7031 38.0694 73.9657 35.6937 76.7568 35.6937C79.5478 35.6937 81.8104 38.0694 81.8104 41Z" fill="#243D48"/>
<path d="M81.8104 28.1532C81.8104 31.0838 79.5478 33.4595 76.7568 33.4595C73.9657 33.4595 71.7031 31.0838 71.7031 28.1532C71.7031 25.2226 73.9657 22.8469 76.7568 22.8469C79.5478 22.8469 81.8104 25.2226 81.8104 28.1532Z" fill="#D0D4D7"/>
<path d="M81.8104 15.3063C81.8104 18.2369 79.5478 20.6126 76.7568 20.6126C73.9657 20.6126 71.7031 18.2369 71.7031 15.3063C71.7031 12.3757 73.9657 10 76.7568 10C79.5478 10 81.8104 12.3757 81.8104 15.3063Z" fill="#D0D4D7"/>
</g>
<rect x="41.4807" y="0.480683" width="36.0386" height="81.0386" rx="5.51932" stroke="#D0D4D7" stroke-width="0.961367"/>
<rect x="82" width="37" height="82" rx="6" fill="white"/>
<mask id="mask2_384_2542" style="mask-type:alpha" maskUnits="userSpaceOnUse" x="82" y="0" width="37" height="82">
<rect x="82" width="37" height="82" rx="6" fill="white"/>
</mask>
<g mask="url(#mask2_384_2542)">
<path d="M107.511 22.9709L101.801 32.6356C100.799 34.3313 100.271 36.2647 100.271 38.2342V64.575" stroke="#D0D4D7" stroke-width="0.687956"/>
<path d="M110.334 32.1379L104.585 38.5577C102.778 40.5764 101.778 43.1909 101.778 45.9007V64.575" stroke="#D0D4D7" stroke-width="0.687956"/>
<path d="M114.941 39.1894L108.644 43.3982C105.588 45.4407 103.753 48.8739 103.753 52.5498V64.575" stroke="#D0D4D7" stroke-width="0.687956"/>
<ellipse rx="1.97445" ry="2.11546" transform="matrix(-1 0 0 1 109.018 21.5905)" fill="#D0D4D7"/>
<ellipse rx="2.6326" ry="2.82062" transform="matrix(-1 0 0 1 112.309 30.0523)" fill="#D0D4D7"/>
<ellipse rx="1.3163" ry="1.41031" transform="matrix(-1 0 0 1 115.599 38.5142)" fill="#D0D4D7"/>
<path d="M87.7662 34.9884L83.9013 41.0711C82.7801 42.8358 82.1846 44.8833 82.1846 46.9742V64.575" stroke="#243D48" stroke-width="0.687956"/>
<path d="M87.7662 34.9884L85.3895 42.0682C85.0105 43.1972 84.8172 44.3803 84.8172 45.5712V64.575" stroke="#243D48" stroke-width="0.687956"/>
<path d="M88.1079 34.9884L91.9728 41.071C93.094 42.8358 93.6895 44.8833 93.6895 46.9741V64.575" stroke="#243D48" stroke-width="0.687956"/>
<path d="M88.108 34.9884L90.4846 42.0682C90.8637 43.1972 91.0569 44.3803 91.0569 45.5712V64.575" stroke="#243D48" stroke-width="0.687956"/>
<path d="M87.9307 35.341V64.2523" stroke="#243D48" stroke-width="0.687956" stroke-linecap="square"/>
<ellipse cx="87.7661" cy="32.1678" rx="2.6326" ry="2.82062" fill="#243D48"/>
<rect x="113.434" y="20.1802" width="9.21409" height="2.11546" rx="1.03193" fill="#D0D4D7"/>
<rect x="117.383" y="28.642" width="11.1885" height="2.11546" rx="1.03193" fill="#D0D4D7"/>
</g>
<rect x="82.4807" y="0.480683" width="36.0386" height="81.0386" rx="5.51932" stroke="#D0D4D7" stroke-width="0.961367"/>
<rect x="123" width="37" height="82" rx="6" fill="white"/>
<mask id="mask3_384_2542" style="mask-type:alpha" maskUnits="userSpaceOnUse" x="122" y="0" width="38" height="82">
<rect x="122.857" width="37.1429" height="82" rx="6" fill="white"/>
</mask>
<g mask="url(#mask3_384_2542)">
<path opacity="0.06" fill-rule="evenodd" clip-rule="evenodd" d="M112.381 42.1879C112.381 42.1879 122.544 42.6513 127.814 42.1879C135.459 41.5157 138.682 33.0294 141.905 32.8815C147.315 32.6332 148.15 42.1879 155.996 42.1879C163.456 42.1879 163.801 23.575 168.745 23.575C171.429 23.575 171.429 23.575 171.429 23.575V31.4497C171.429 31.4497 169.108 30.422 168.745 31.4497C164.584 43.2194 160.741 50.0627 155.996 50.0627C148.86 50.0627 145.675 40.7562 141.905 40.7562C138.237 40.7562 134.922 50.0627 127.814 50.0627C122.242 50.0627 112.381 50.0627 112.381 50.0627V42.1879Z" fill="#243D48"/>
<path opacity="0.25" fill-rule="evenodd" clip-rule="evenodd" d="M112.381 32.8815C112.381 32.8815 115.182 33.3725 116.818 32.0614C121.731 28.124 124.143 23.575 127.972 23.575C137.011 23.575 134.02 33.2241 141.905 32.8815C149.64 32.5454 148.118 23.575 155.837 23.575C162.205 23.575 162.93 28.3991 168.111 32.3065C169.479 33.3382 171.429 32.8815 171.429 32.8815V40.7562C171.429 40.7562 171.429 40.7562 168.745 40.7562C164.844 40.7562 165.508 31.4497 155.837 31.4497C148.836 31.4497 149.828 40.7562 141.905 40.7562C133.982 40.7562 134.909 31.4497 127.972 31.4497C123.713 31.4497 122.014 35.6889 116.175 40.2997C115.218 41.0554 112.381 40.7562 112.381 40.7562V32.8815Z" fill="#243D48"/>
<rect x="126.472" y="23.575" width="2.68398" height="7.87472" rx="0.211364" fill="#243D48"/>
<rect x="126.472" y="32.8815" width="2.68398" height="7.87472" rx="0.211364" fill="#D0D4D7"/>
<rect x="126.472" y="42.188" width="2.68398" height="7.87472" rx="0.211364" fill="#D0D4D7"/>
<rect x="126.472" y="51.4945" width="2.68398" height="7.87472" rx="0.211364" fill="#D0D4D7"/>
<rect x="140.563" y="32.8815" width="2.68398" height="7.87472" rx="0.211364" fill="#243D48"/>
<rect x="140.563" y="42.188" width="2.68398" height="7.87472" rx="0.211364" fill="#D0D4D7"/>
<rect x="140.563" y="51.4944" width="2.68398" height="7.87472" rx="0.211364" fill="#D0D4D7"/>
<rect x="154.654" y="23.575" width="2.68398" height="7.87472" rx="0.211364" fill="#243D48"/>
<rect x="154.654" y="32.8815" width="2.68398" height="7.87472" rx="0.211364" fill="#D0D4D7"/>
<rect x="154.654" y="42.188" width="2.68398" height="7.87472" rx="0.211364" fill="#D0D4D7"/>
<rect x="154.654" y="51.4945" width="2.68398" height="7.87472" rx="0.211364" fill="#D0D4D7"/>
<path opacity="0.06" fill-rule="evenodd" clip-rule="evenodd" d="M112.381 51.4944C112.381 51.4944 115.853 44.2197 117.681 41.4721C120.989 36.4995 123.346 32.8815 127.814 32.8815C135.225 32.8815 135.507 51.4944 140.563 51.4944C141.991 51.4944 142.29 51.4944 143.247 51.4944C147.363 51.4944 149.626 51.7225 155.996 51.4944C160.325 51.3394 171.429 51.4944 171.429 51.4944V59.3692C171.429 59.3692 160.434 59.2369 155.996 59.3692C149.894 59.551 147.396 59.3692 143.247 59.3692C142.48 59.3692 141.154 59.3692 140.563 59.3692C133.303 59.3692 134.715 40.7562 127.814 40.7562C120.721 40.7562 119.672 44.3849 116.862 51.4944C115.907 53.9115 115.065 59.3692 115.065 59.3692C115.065 59.3692 112.381 59.5358 112.381 59.2064C112.381 58.8769 112.381 51.4944 112.381 51.4944Z" fill="#243D48"/>
</g>
<rect x="123.481" y="0.480683" width="36.0386" height="81.0386" rx="5.51932" stroke="#D0D4D7" stroke-width="0.961367"/>
</svg>
