<svg width="160" height="95" viewBox="0 0 160 95" fill="none" xmlns="http://www.w3.org/2000/svg">
<path fill-rule="evenodd" clip-rule="evenodd" d="M0 89C0 92.3137 2.68629 95 6 95H154C157.314 95 160 92.3137 160 89V6C160 2.68629 157.314 0 154 0H6C2.6863 0 0 2.68629 0 6L0 89Z" fill="white"/>
<path fill-rule="evenodd" clip-rule="evenodd" d="M154 94.25H6C3.10051 94.25 0.75 91.8995 0.75 89V6C0.75 3.1005 3.10051 0.75 6 0.75H154C156.899 0.75 159.25 3.10051 159.25 6V89C159.25 91.8995 156.899 94.25 154 94.25ZM6 95C2.68629 95 0 92.3137 0 89V6C0 2.68629 2.6863 0 6 0H154C157.314 0 160 2.68629 160 6V89C160 92.3137 157.314 95 154 95H6Z" fill="#BDC3C6"/>
<path d="M121 13C121 9.68629 123.686 7 127 7H141C144.314 7 147 9.68629 147 13V13C147 16.3137 144.314 19 141 19H127C123.686 19 121 16.3137 121 13V13Z" fill="#D0D4D7"/>
<path d="M147 13C147 16.3137 144.314 19 141 19C137.686 19 135 16.3137 135 13C135 9.68629 137.686 7 141 7C144.314 7 147 9.68629 147 13Z" fill="#243D48"/>
<path d="M13 13C13 10.2386 15.2386 8 18 8H60C62.7614 8 65 10.2386 65 13V13C65 15.7614 62.7614 18 60 18H18C15.2386 18 13 15.7614 13 13V13Z" fill="#D0D4D7"/>
<path d="M28 40.5C28 38.0147 30.0147 36 32.5 36H87.5C89.9853 36 92 38.0147 92 40.5V40.5C92 42.9853 89.9853 45 87.5 45H32.5C30.0147 45 28 42.9853 28 40.5V40.5Z" fill="#243D48"/>
<path d="M121 40.5C121 38.0147 123.015 36 125.5 36H142.5C144.985 36 147 38.0147 147 40.5V40.5C147 42.9853 144.985 45 142.5 45H125.5C123.015 45 121 42.9853 121 40.5V40.5Z" fill="#243D48"/>
<path d="M28 78.5C28 76.0147 30.0147 74 32.5 74H79.5C81.9853 74 84 76.0147 84 78.5V78.5C84 80.9853 81.9853 83 79.5 83H32.5C30.0147 83 28 80.9853 28 78.5V78.5Z" fill="#243D48"/>
<path d="M121 78.5C121 76.0147 123.015 74 125.5 74H142.5C144.985 74 147 76.0147 147 78.5V78.5C147 80.9853 144.985 83 142.5 83H125.5C123.015 83 121 80.9853 121 78.5V78.5Z" fill="#243D48"/>
<path d="M28 59.5C28 57.0147 30.0147 55 32.5 55H69.5C71.9853 55 74 57.0147 74 59.5V59.5C74 61.9853 71.9853 64 69.5 64H32.5C30.0147 64 28 61.9853 28 59.5V59.5Z" fill="#243D48"/>
<path d="M121 59.5C121 57.0147 123.015 55 125.5 55H142.5C144.985 55 147 57.0147 147 59.5V59.5C147 61.9853 144.985 64 142.5 64H125.5C123.015 64 121 61.9853 121 59.5V59.5Z" fill="#243D48"/>
<path fill-rule="evenodd" clip-rule="evenodd" d="M18.4101 33.8917C18.5581 33.7437 18.798 33.7437 18.9459 33.8917C19.0774 34.0232 19.092 34.2274 18.9897 34.375L18.9459 34.4275L18.0683 35.3051C20.5065 35.4551 22.4375 37.4801 22.4375 39.956C22.4375 40.1518 22.4254 40.3462 22.4014 40.5385C22.3728 40.768 22.3273 40.994 22.2653 41.2151C21.7065 43.2109 19.8806 44.6159 17.7777 44.6159C15.2041 44.6159 13.1178 42.5296 13.1178 39.956C13.1178 39.7468 13.2874 39.5772 13.4967 39.5772C13.7059 39.5772 13.8755 39.7468 13.8755 39.956C13.8755 42.1111 15.6226 43.8582 17.7777 43.8582C19.5386 43.8582 21.0679 42.6814 21.5357 41.0108C21.5875 40.8259 21.6256 40.6368 21.6495 40.4446C21.6697 40.2835 21.6798 40.1205 21.6798 39.956C21.6798 37.9059 20.0988 36.225 18.0894 36.0662L18.9459 36.9226C19.0774 37.0541 19.092 37.2583 18.9897 37.4059L18.9459 37.4584C18.8144 37.5899 18.6102 37.6045 18.4626 37.5022L18.4101 37.4584L16.8947 35.9429C16.7631 35.8114 16.7485 35.6073 16.8508 35.4596L16.8947 35.4071L18.4101 33.8917ZM18.0369 37.8801C18.0049 37.7034 17.8502 37.5694 17.6642 37.5694C17.4549 37.5694 17.2853 37.739 17.2853 37.9482V40.2214L17.29 40.2811C17.3025 40.3594 17.3394 40.4325 17.3963 40.4893L18.9117 42.0048L18.9642 42.0486C19.1119 42.1509 19.316 42.1363 19.4475 42.0048L19.4914 41.9523C19.5937 41.8047 19.5791 41.6005 19.4475 41.469L18.043 40.0646V37.9482L18.0369 37.8801Z" fill="#243D48"/>
<path fill-rule="evenodd" clip-rule="evenodd" d="M18.4101 52.8917C18.5581 52.7437 18.798 52.7437 18.9459 52.8917C19.0774 53.0232 19.092 53.2274 18.9897 53.375L18.9459 53.4275L18.0683 54.3051C20.5065 54.4551 22.4375 56.4801 22.4375 58.956C22.4375 59.1518 22.4254 59.3462 22.4014 59.5385C22.3728 59.768 22.3273 59.994 22.2653 60.2151C21.7065 62.2109 19.8806 63.6159 17.7777 63.6159C15.2041 63.6159 13.1178 61.5296 13.1178 58.956C13.1178 58.7468 13.2874 58.5772 13.4967 58.5772C13.7059 58.5772 13.8755 58.7468 13.8755 58.956C13.8755 61.1111 15.6226 62.8582 17.7777 62.8582C19.5386 62.8582 21.0679 61.6814 21.5357 60.0108C21.5875 59.8259 21.6256 59.6368 21.6495 59.4446C21.6697 59.2835 21.6798 59.1205 21.6798 58.956C21.6798 56.9059 20.0988 55.225 18.0894 55.0662L18.9459 55.9226C19.0774 56.0541 19.092 56.2583 18.9897 56.4059L18.9459 56.4584C18.8144 56.5899 18.6102 56.6045 18.4626 56.5022L18.4101 56.4584L16.8947 54.9429C16.7631 54.8114 16.7485 54.6073 16.8508 54.4596L16.8947 54.4071L18.4101 52.8917ZM18.0369 56.8801C18.0049 56.7034 17.8502 56.5694 17.6642 56.5694C17.4549 56.5694 17.2853 56.739 17.2853 56.9482V59.2214L17.29 59.2811C17.3025 59.3594 17.3394 59.4325 17.3963 59.4893L18.9117 61.0048L18.9642 61.0486C19.1119 61.1509 19.316 61.1363 19.4475 61.0048L19.4914 60.9523C19.5937 60.8047 19.5791 60.6005 19.4475 60.469L18.043 59.0646V56.9482L18.0369 56.8801Z" fill="#243D48"/>
<path fill-rule="evenodd" clip-rule="evenodd" d="M18.4101 71.8917C18.5581 71.7437 18.798 71.7437 18.9459 71.8917C19.0774 72.0232 19.092 72.2274 18.9897 72.375L18.9459 72.4275L18.0683 73.3051C20.5065 73.4551 22.4375 75.4801 22.4375 77.956C22.4375 78.1518 22.4254 78.3462 22.4014 78.5385C22.3728 78.768 22.3273 78.994 22.2653 79.2151C21.7065 81.2109 19.8806 82.6159 17.7777 82.6159C15.2041 82.6159 13.1178 80.5296 13.1178 77.956C13.1178 77.7468 13.2874 77.5772 13.4967 77.5772C13.7059 77.5772 13.8755 77.7468 13.8755 77.956C13.8755 80.1111 15.6226 81.8582 17.7777 81.8582C19.5386 81.8582 21.0679 80.6814 21.5357 79.0108C21.5875 78.8259 21.6256 78.6368 21.6495 78.4446C21.6697 78.2835 21.6798 78.1205 21.6798 77.956C21.6798 75.9059 20.0988 74.225 18.0894 74.0662L18.9459 74.9226C19.0774 75.0541 19.092 75.2583 18.9897 75.4059L18.9459 75.4584C18.8144 75.5899 18.6102 75.6045 18.4626 75.5022L18.4101 75.4584L16.8947 73.9429C16.7631 73.8114 16.7485 73.6073 16.8508 73.4596L16.8947 73.4071L18.4101 71.8917ZM18.0369 75.8801C18.0049 75.7034 17.8502 75.5694 17.6642 75.5694C17.4549 75.5694 17.2853 75.739 17.2853 75.9482V78.2214L17.29 78.2811C17.3025 78.3594 17.3394 78.4325 17.3963 78.4893L18.9117 80.0048L18.9642 80.0486C19.1119 80.1509 19.316 80.1363 19.4475 80.0048L19.4914 79.9523C19.5937 79.8047 19.5791 79.6005 19.4475 79.469L18.043 78.0646V75.9482L18.0369 75.8801Z" fill="#243D48"/>
<path fill-rule="evenodd" clip-rule="evenodd" d="M108.938 8.02094C109.485 7.47396 110.226 7.16667 111 7.16667C111.774 7.16667 112.515 7.47396 113.062 8.02094C113.609 8.56792 113.917 9.30979 113.917 10.0833V11.8333H114.5C114.964 11.8333 115.409 12.0177 115.737 12.3459C116.066 12.6741 116.25 13.1192 116.25 13.5833V17.0833C116.25 17.5475 116.066 17.9926 115.737 18.3208C115.409 18.649 114.964 18.8333 114.5 18.8333H107.5C107.036 18.8333 106.591 18.649 106.263 18.3208C105.934 17.9926 105.75 17.5475 105.75 17.0833V13.5833C105.75 13.1192 105.934 12.6741 106.263 12.3459C106.591 12.0177 107.036 11.8333 107.5 11.8333H108.083V10.0833C108.083 9.30979 108.391 8.56792 108.938 8.02094ZM109.25 11.8333H112.75V10.0833C112.75 9.61921 112.566 9.17409 112.237 8.8459C111.909 8.51771 111.464 8.33333 111 8.33333C110.536 8.33333 110.091 8.51771 109.763 8.8459C109.434 9.17409 109.25 9.61921 109.25 10.0833V11.8333ZM107.5 13C107.345 13 107.197 13.0615 107.088 13.1709C106.978 13.2803 106.917 13.4286 106.917 13.5833V17.0833C106.917 17.238 106.978 17.3864 107.088 17.4958C107.197 17.6052 107.345 17.6667 107.5 17.6667H114.5C114.655 17.6667 114.803 17.6052 114.912 17.4958C115.022 17.3864 115.083 17.238 115.083 17.0833V13.5833C115.083 13.4286 115.022 13.2803 114.912 13.1709C114.803 13.0615 114.655 13 114.5 13H107.5ZM111 14.1667C111.322 14.1667 111.583 14.4278 111.583 14.75V15.9167C111.583 16.2388 111.322 16.5 111 16.5C110.678 16.5 110.417 16.2388 110.417 15.9167V14.75C110.417 14.4278 110.678 14.1667 111 14.1667Z" fill="#243D48"/>
<path fill-rule="evenodd" clip-rule="evenodd" d="M159.5 26L0 26L0 25.25L159.5 25.25V26Z" fill="#BDC3C6"/>
</svg>
