<svg width="164" height="100" viewBox="0 0 164 100" fill="none" xmlns="http://www.w3.org/2000/svg">
<path d="M0 14.1382C0 6.32989 6.32988 0 14.1382 0H145.862C153.67 0 160 6.32988 160 14.1382V14.9527C160 22.761 153.67 29.0909 145.862 29.0909H14.1382C6.32988 29.0909 0 22.761 0 14.9527V14.1382Z" fill="white"/>
<path fill-rule="evenodd" clip-rule="evenodd" d="M145.862 0.706909H14.1382C6.7203 0.706909 0.706909 6.72031 0.706909 14.1382V14.9527C0.706909 22.3706 6.7203 28.384 14.1382 28.384H145.862C153.28 28.384 159.293 22.3706 159.293 14.9527V14.1382C159.293 6.72029 153.28 0.706909 145.862 0.706909ZM14.1382 0C6.32988 0 0 6.32989 0 14.1382V14.9527C0 22.761 6.32988 29.0909 14.1382 29.0909H145.862C153.67 29.0909 160 22.761 160 14.9527V14.1382C160 6.32988 153.67 0 145.862 0H14.1382Z" fill="#A6B0B5"/>
<path fill-rule="evenodd" clip-rule="evenodd" d="M139.246 13.9899C139.246 10.3825 142.17 7.45819 145.778 7.45819C149.385 7.45819 152.31 10.3825 152.31 13.9899C152.31 15.3008 151.923 16.5228 151.257 17.5461L153.204 19.4929C153.735 20.024 153.735 20.8851 153.204 21.4162L152.638 20.8505L153.204 21.4162C152.673 21.9473 151.812 21.9473 151.281 21.4162L149.334 19.4694C148.311 20.1348 147.089 20.5216 145.778 20.5216C142.17 20.5216 139.246 17.5973 139.246 13.9899ZM145.778 10.1782C143.673 10.1782 141.966 11.8848 141.966 13.9899C141.966 16.0951 143.673 17.8016 145.778 17.8016C146.79 17.8016 147.709 17.4079 148.392 16.7635C148.417 16.735 148.442 16.7074 148.469 16.6808C148.495 16.6541 148.523 16.6287 148.551 16.6046C149.196 15.9214 149.59 15.0024 149.59 13.9899C149.59 11.8848 147.883 10.1782 145.778 10.1782Z" fill="#1E3D49" fill-opacity="0.5"/>
<path opacity="0.177139" d="M12.9167 14.6364C12.9167 11.4231 15.5216 8.81818 18.7349 8.81818H49.0985C52.3118 8.81818 54.9167 11.4231 54.9167 14.6364V14.6364C54.9167 17.8497 52.3118 20.4545 49.0985 20.4545H18.7349C15.5216 20.4545 12.9167 17.8497 12.9167 14.6364V14.6364Z" fill="#1E3D49"/>
<path opacity="0.177139" d="M62.0833 14.6364C62.0833 11.4231 64.6882 8.81818 67.9015 8.81818H114.765C117.978 8.81818 120.583 11.4231 120.583 14.6364V14.6364C120.583 17.8497 117.978 20.4545 114.765 20.4545H67.9015C64.6882 20.4545 62.0833 17.8497 62.0833 14.6364V14.6364Z" fill="#1E3D49"/>
<path d="M85.7485 61.8182C85.7485 58.6049 88.3534 56 91.5667 56H157.43C160.644 56 163.248 58.6049 163.248 61.8182V99.4773H85.7485V61.8182Z" fill="white"/>
<path d="M91.5 67.1614C91.5 64.2296 93.8767 61.8528 96.8086 61.8528H148.691C151.623 61.8528 154 64.2296 154 67.1614V67.1614C154 70.0932 151.623 72.47 148.691 72.47H96.8086C93.8767 72.47 91.5 70.0932 91.5 67.1614V67.1614Z" fill="#1E3D49"/>
<path d="M0 61.8182C0 58.6049 2.60489 56 5.81818 56H71.6818C74.8951 56 77.5 58.6049 77.5 61.8182V99.4773H0V61.8182Z" fill="white"/>
<path d="M4.41669 67.1614C4.41669 63.9481 7.02158 61.3432 10.2349 61.3432H40.5985C43.8118 61.3432 46.4167 63.9481 46.4167 67.1614V67.1614C46.4167 70.3747 43.8118 72.9796 40.5985 72.9796H10.2349C7.02157 72.9796 4.41669 70.3747 4.41669 67.1614V67.1614Z" fill="#1E3D49"/>
<path fill-rule="evenodd" clip-rule="evenodd" d="M22.5 21.7557V20.3182H23.5V21.7557H22.5ZM22.5 27.5057V24.6307H23.5V27.5057H22.5ZM22.5 33.2557V30.3807H23.5V33.2557H22.5ZM22.5 39.0057V36.1307H23.5V39.0057H22.5ZM22.5 41.8807H23.5V44.7557H22.5V41.8807ZM22.5 50.5057V47.6307H23.5V50.5057H22.5ZM22.5 56.2557V53.3807H23.5V56.2557H22.5ZM22.5 62.0057V59.1307H23.5V62.0057H22.5ZM22.5 66.3182V64.8807H23.5V66.3182H22.5Z" fill="#1E3D49"/>
<path fill-rule="evenodd" clip-rule="evenodd" d="M103.5 21.7557V20.3182H104.5V21.7557H103.5ZM103.5 27.5057V24.6307H104.5V27.5057H103.5ZM103.5 33.2557V30.3807H104.5V33.2557H103.5ZM103.5 39.0057V36.1307H104.5V39.0057H103.5ZM103.5 41.8807H104.5V44.7557H103.5V41.8807ZM103.5 50.5057V47.6307H104.5V50.5057H103.5ZM103.5 56.2557V53.3807H104.5V56.2557H103.5ZM103.5 62.0057V59.1307H104.5V62.0057H103.5ZM103.5 66.3182V64.8807H104.5V66.3182H103.5Z" fill="#1E3D49"/>
<path fill-rule="evenodd" clip-rule="evenodd" d="M33.5 21.4286V20H34.5V21.4286H33.5ZM91.5 21.4286V24.2857H90.5V21.4286H91.5ZM33.5 27.1429V24.2857H34.5V27.1429H33.5ZM91.5 27.1429V30H90.5V27.1429H91.5ZM33.5 32.8571V30H34.5V32.8571H33.5ZM91.5 32.8571V35.7143H90.5V32.8571H91.5ZM33.5 38.5714V35.7143H34.5V38.5714H33.5ZM91.5 38.5714V40C91.5 40.4736 91.4056 40.9265 91.2342 41.3399L90.3105 40.9568C90.4324 40.6628 90.5 40.3399 90.5 40V38.5714H91.5ZM33.7658 41.3399C33.5944 40.9265 33.5 40.4736 33.5 40H34.5C34.5 40.3399 34.5676 40.6628 34.6895 40.9568L33.7658 41.3399ZM37 43.5C36.5264 43.5 36.0735 43.4056 35.6601 43.2342L36.0432 42.3105C36.3372 42.4324 36.6601 42.5 37 42.5H38.5V43.5H37ZM89.3399 43.2342C88.9265 43.4056 88.4736 43.5 88 43.5V42.5C88.3399 42.5 88.6628 42.4324 88.9568 42.3105L89.3399 43.2342ZM44.5 43.5H41.5V42.5H44.5V43.5ZM50.5 43.5H47.5V42.5H50.5V43.5ZM56.5 43.5H53.5V42.5H56.5V43.5ZM62.5 43.5H59.5V42.5H62.5V43.5ZM68.5 43.5H65.5V42.5H68.5V43.5ZM74.5 43.5H71.5V42.5H74.5V43.5ZM80.5 43.5H77.5V42.5H80.5V43.5ZM86.5 43.5H83.5V42.5H86.5V43.5Z" fill="#1E3D49"/>
<path fill-rule="evenodd" clip-rule="evenodd" d="M61.5 37.8182V36.3182H62.5V37.8182H61.5ZM61.5 43.8182V40.8182H62.5V43.8182H61.5Z" fill="#1E3D49"/>
<path d="M74.0849 42.7103C74.0849 49.6608 68.4504 55.2952 61.5 55.2952C54.5496 55.2952 48.9152 49.6608 48.9152 42.7103C48.9152 35.7599 54.5496 30.1255 61.5 30.1255C68.4504 30.1255 74.0849 35.7599 74.0849 42.7103Z" fill="#1E3D49"/>
<path d="M64.6 46.4806L58.0041 39.8847L58.9842 38.9047L65.5801 45.5006L64.6 46.4806ZM58.8753 46.5428L57.9575 45.625L64.7245 38.858L65.6423 39.7758L58.8753 46.5428Z" fill="white"/>
</svg>
