<?xml version="1.0" encoding="UTF-8"?>
<svg width="767px" height="467px" viewBox="0 0 767 467" version="1.1" xmlns="http://www.w3.org/2000/svg" xmlns:xlink="http://www.w3.org/1999/xlink">
    <title>02_prepare to capture shopper interaction</title>
    <defs>
        <rect id="path-1" x="0" y="0" width="204" height="299" rx="10"></rect>
        <rect id="path-3" x="0" y="0" width="204" height="299" rx="10"></rect>
        <rect id="path-5" x="0" y="0" width="204" height="299" rx="10"></rect>
        <rect id="path-7" x="0" y="0" width="204" height="299" rx="10"></rect>
        <rect id="path-9" x="0" y="0" width="204" height="299" rx="10"></rect>
        <rect id="path-11" x="0" y="0" width="204" height="299" rx="10"></rect>
        <path d="M22,2.0004508 C22,3.10021187 21.0998549,4.00036064 20.0000984,4.00036064 C19.8199611,4.00036064 19.650102,3.98034531 19.4899801,3.93057747 L15.9299712,7.48032277 C15.9797389,7.64044539 15.9997541,7.82004237 15.9997541,8.00018032 C15.9997541,9.0999414 15.099609,10.0000902 13.9998525,10.0000902 C12.9000959,10.0000902 11.9999508,9.0999414 11.9999508,8.00018032 C11.9999508,7.82004237 12.0199661,7.64044539 12.0697337,7.48032277 L9.5196833,4.93026191 C9.35956134,4.98002975 9.17996508,5.00004508 8.99982788,5.00004508 C8.81969067,5.00004508 8.64009442,4.98002975 8.47997246,4.93026191 L3.93002041,9.4899698 C3.97978804,9.65009241 3.99980329,9.81995222 3.99980329,10.0000902 C3.99980329,11.0998512 3.09965822,12 1.99990164,12 C0.900145074,12 0,11.0998512 0,10.0000902 C0,8.90032908 0.900145074,8.00018032 1.99990164,8.00018032 C2.18003885,8.00018032 2.34989796,8.02019565 2.51001992,8.06996349 L7.06970912,3.51999279 C7.01994148,3.35987017 6.99992623,3.18027318 6.99992623,3.00013524 C6.99992623,1.90037416 7.90007131,1.0002254 8.99982788,1.0002254 C10.0995845,1.0002254 10.9997295,1.90037416 10.9997295,3.00013524 C10.9997295,3.18027318 10.9797143,3.35987017 10.9299466,3.51999279 L13.479997,6.07005364 C13.640119,6.0202858 13.8197153,6.00027048 13.9998525,6.00027048 C14.1799897,6.00027048 14.3595859,6.0202858 14.5197079,6.07005364 L18.0694386,2.5100302 C18.019671,2.34990759 17.9996558,2.18004778 17.9996558,1.99990984 C17.9996558,0.900148763 18.8998008,0 19.9995574,0 C21.099314,0 21.999459,0.900148763 21.999459,1.99990984 L22,2.0004508 Z" id="path-13"></path>
    </defs>
    <g id="02_prepare-to-capture-shopper-interaction" stroke="none" stroke-width="1" fill="none" fill-rule="evenodd">
        <rect fill="#FFFFFF" x="0" y="0" width="767" height="467"></rect>
        <rect id="Rectangle-Copy-18" fill="#1E3D49" x="13" y="11" width="742" height="448"></rect>
        <g id="Group-24" transform="translate(54.000000, 38.000000)">
            <g id="Group-23" transform="translate(0.000000, 11.000000)">
                <g id="Group-16">
                    <g id="Group-71" transform="translate(0.000000, 22.000000)">
                        <mask id="mask-2" fill="white">
                            <use xlink:href="#path-1"></use>
                        </mask>
                        <use id="Mask" fill="#80C0A1" xlink:href="#path-1"></use>
                    </g>
                    <g id="Group-13">
                        <g id="Group-71" transform="translate(0.000000, 22.000000)">
                            <mask id="mask-4" fill="white">
                                <use xlink:href="#path-3"></use>
                            </mask>
                            <use id="Mask" fill-opacity="0.601717862" fill="#FFFFFF" xlink:href="#path-3"></use>
                        </g>
                        <g id="Group-66-Copy-2" transform="translate(79.000000, 0.000000)">
                            <circle id="Oval" fill="#80C0A1" cx="22" cy="22" r="22"></circle>
                            <path d="M20.7185185,27.2713805 C24.3364485,27.2713805 27.2693603,24.3384687 27.2693603,20.7205387 C27.2693603,17.1026087 24.3364485,14.169697 20.7185185,14.169697 C17.1005885,14.169697 14.1676768,17.1026087 14.1676768,20.7205387 C14.1676768,24.3384687 17.1005885,27.2713805 20.7185185,27.2713805 Z M28.9070707,28.9090909 L25.3450505,25.3470707" id="Combined-Shape-Copy-3" stroke="#FFFFFF" stroke-width="2.02666667" stroke-linecap="round" stroke-linejoin="round"></path>
                        </g>
                        <g id="Group-12" transform="translate(36.000000, 74.000000)">
                            <g id="Group-7">
                                <rect id="Rectangle" stroke="#A6B0B5" stroke-width="0.75" fill="#FFFFFF" x="0.375" y="0.375" width="131.25" height="29.25" rx="6"></rect>
                                <g id="Group-55" transform="translate(8.000000, 10.000000)">
                                    <g id="Group-45">
                                        <rect id="Rectangle" fill="#1E3D49" x="16.9173554" y="0" width="98.0826446" height="10" rx="5"></rect>
                                        <line x1="0" y1="4.87121496" x2="9.12396694" y2="4.87121496" id="Path-41" stroke="#1E3D49" stroke-width="1.13798874" stroke-linecap="round" stroke-linejoin="round"></line>
                                    </g>
                                    <polyline id="Path-42" stroke="#1E3D49" stroke-width="1.13798874" stroke-linecap="round" stroke-linejoin="round" points="5.70247934 1.53788163 9.12396694 4.87121496 5.70247934 8.2045483"></polyline>
                                </g>
                            </g>
                            <g id="Group-8" transform="translate(0.000000, 46.000000)">
                                <rect id="Rectangle-Copy-3" stroke="#A6B0B5" stroke-width="0.75" fill="#FFFFFF" x="0.375" y="0.375" width="131.25" height="29.25" rx="6"></rect>
                                <g id="Group-58" transform="translate(8.000000, 10.000000)">
                                    <rect id="Rectangle" fill="#1E3D49" x="16.9173554" y="0" width="98.0826446" height="10" rx="5"></rect>
                                    <polyline id="Path-30" stroke="#1E3D49" stroke-width="1.70698311" stroke-linecap="round" stroke-linejoin="round" points="9.12396694 2.64899274 3.4214876 8.2045483 0 4.87121496"></polyline>
                                </g>
                            </g>
                            <g id="Group-9" transform="translate(0.000000, 92.000000)">
                                <rect id="Rectangle-Copy-4" stroke="#A6B0B5" stroke-width="0.75" fill="#FFFFFF" x="0.375" y="0.375" width="131.25" height="29.25" rx="6"></rect>
                                <g id="Group-63" transform="translate(8.000000, 10.000000)" fill="#1E3D49">
                                    <rect id="Rectangle" x="17.3477478" y="0" width="97.6522522" height="10" rx="5"></rect>
                                    <path d="M10.0553892,2.22222222 L10.0553892,6.61081336 C10.0553892,6.92695492 9.79348244,7.18323829 9.47040404,7.18323829 C9.17424885,7.18323829 8.9294948,6.96788907 8.89075909,6.68848804 L8.88541887,6.61081336 L8.884,4.17122222 L5.6785136,7.30873182 C5.47083094,7.51195531 5.1458415,7.53043017 4.91683034,7.36415641 L4.85121962,7.30873182 L3.70490613,6.18729025 L0.998632166,8.8351983 C0.790949509,9.03842179 0.46596007,9.05689666 0.236948908,8.89062289 L0.171338192,8.8351983 C-0.036344465,8.63197481 -0.0552247065,8.31396324 0.114697467,8.08986918 L0.171338192,8.0256672 L3.29125915,4.97273423 C3.4989418,4.76951074 3.82393124,4.75103588 4.05294241,4.91730964 L4.11855312,4.97273423 L5.26486661,6.0941758 L8.052,3.36622222 L5.57050285,3.36707209 C5.27434766,3.36707209 5.02959361,3.15172286 4.9908579,2.87232183 L4.98551767,2.79464715 C4.98551767,2.50485072 5.20559212,2.2653518 5.49112383,2.22744779 L5.57050285,2.22222222 L10.0553892,2.22222222 Z" id="Combined-Shape" fill-rule="nonzero"></path>
                                </g>
                            </g>
                            <g id="Group-10" transform="translate(0.000000, 138.000000)">
                                <rect id="Rectangle-Copy-5" stroke="#A6B0B5" stroke-width="0.75" fill="#FFFFFF" x="0.375" y="0.375" width="131.25" height="29.25" rx="6"></rect>
                                <g id="Group-64" transform="translate(8.000000, 10.000000)">
                                    <rect id="Rectangle" fill="#1E3D49" x="27.3001955" y="0" width="87.6998045" height="10" rx="5"></rect>
                                    <path d="M3.63372118,8.38973348 C5.64056997,8.38973348 7.26744235,6.73152885 7.26744235,4.68602978 C7.26744235,2.64053071 5.64056997,0.982326075 3.63372118,0.982326075 C1.62687239,0.982326075 0,2.64053071 0,4.68602978 C0,6.73152885 1.62687239,8.38973348 3.63372118,8.38973348 Z M8.17587265,9.31565941 L6.20003676,7.30177052" id="Combined-Shape" stroke="#1E3D49" stroke-width="1.13798874" stroke-linecap="round" stroke-linejoin="round"></path>
                                    <rect id="Rectangle" fill="#D7DDDF" x="18.5177539" y="0" width="22.4275066" height="10" rx="5"></rect>
                                </g>
                            </g>
                            <g id="Group-66" transform="translate(0.000000, 184.000000)">
                                <rect id="Rectangle-Copy" stroke="#A6B0B5" stroke-width="0.64657604" fill="#FFFFFF" x="0.314246094" y="0.236593234" width="57.7433498" height="21.5268135" rx="10.7634068"></rect>
                                <rect id="Rectangle-Copy-2" stroke="#A6B0B5" stroke-width="0.64657604" fill="#FFFFFF" x="63.8134202" y="0.236593234" width="65.8735927" height="21.5268135" rx="10.7634068"></rect>
                                <g id="Icon/Search" transform="translate(11.350918, 10.637594) rotate(-45.000000) translate(-11.350918, -10.637594) translate(8.148095, 7.434771)" stroke="#1E3D49" stroke-linecap="round" stroke-linejoin="round" stroke-opacity="0.5" stroke-width="1.63462504">
                                    <path d="M-9.84130958e-16,6.40564588 L6.40564588,3.88784345e-16 M6.40564588,6.40564588 L-9.84130958e-16,3.88784345e-16" id="Combined-Shape"></path>
                                </g>
                                <g id="Icon/Search-Copy" transform="translate(74.914635, 10.637594) rotate(-45.000000) translate(-74.914635, -10.637594) translate(71.711812, 7.434771)" stroke="#1E3D49" stroke-linecap="round" stroke-linejoin="round" stroke-opacity="0.5" stroke-width="1.63462504">
                                    <path d="M8.63344433e-15,6.40564588 L6.40564588,6.75842061e-15 M6.40564588,6.40564588 L8.63344433e-15,6.75842061e-15" id="Combined-Shape"></path>
                                </g>
                                <rect id="Rectangle" fill="#1E3D49" x="21.2111189" y="5.9395004" width="28.3548519" height="10.1209992" rx="5.0604996"></rect>
                                <rect id="Rectangle" fill="#1E3D49" x="84.7141727" y="5.9395004" width="35.4435649" height="10.1209992" rx="5.0604996"></rect>
                            </g>
                        </g>
                    </g>
                </g>
                <g id="Group-17" transform="translate(228.000000, 0.000000)">
                    <g id="Origins" transform="translate(0.000000, 22.000000)">
                        <mask id="mask-6" fill="white">
                            <use xlink:href="#path-5"></use>
                        </mask>
                        <use id="Mask" fill="#D44A6F" xlink:href="#path-5"></use>
                    </g>
                    <g id="Group-14">
                        <g id="Origins" transform="translate(0.000000, 22.000000)">
                            <mask id="mask-8" fill="white">
                                <use xlink:href="#path-7"></use>
                            </mask>
                            <use id="Mask" fill-opacity="0.6" fill="#FFFFFF" xlink:href="#path-7"></use>
                        </g>
                        <g id="Group-3" transform="translate(80.000000, 0.000000)">
                            <circle id="Oval" fill="#D44A6F" cx="22" cy="22" r="22"></circle>
                            <g id="interactive" transform="translate(14.000000, 9.000000)" fill="#FFFFFF">
                                <path d="M6.53698274,4.36262138e-13 L8.55680145,4.36262138e-13 L6.53698274,4.36262138e-13 Z M5.45454545,6.99515617 C6.20763636,6.99515617 6.81818182,7.604247 6.81818182,8.35554367 L6.81818182,8.35554367 L6.81818182,14.4772875 C6.81818182,13.7259908 7.42872727,13.1168999 8.18181818,13.1168999 C8.93490909,13.1168999 9.54545455,13.7259908 9.54545455,14.4772875 C9.54545455,13.7259908 10.156,13.1168999 10.9090909,13.1168999 C11.6621818,13.1168999 12.2727273,13.7259908 12.2727273,14.4772875 C12.2727273,13.7259908 12.8832727,13.1168999 13.6363636,13.1168999 C14.3894545,13.1168999 15,13.7259908 15,14.4772875 L15,14.4772875 L15,21.9594187 C15,23.0864091 14.0842273,24 12.9545455,24 L12.9545455,24 L5.35504545,24 C4.58031818,24 3.87204545,23.5633156 3.52559091,22.872012 L3.52559091,22.872012 L0.530727273,16.2163615 C0.227545455,15.6114425 0.423318182,14.8759717 0.987409091,14.5008222 C1.581,14.1060377 2.38036364,14.2425753 2.72727273,14.8119881 L2.72727273,14.8119881 L4.00977273,16.5178687 L4.09090909,16.5178687 L4.09090909,8.35554367 C4.09090909,7.604247 4.70145455,6.99515617 5.45454545,6.99515617 Z M5.45454545,0.873412388 C8.46218182,0.873412388 10.9090909,3.31449173 10.9090909,6.31496241 C10.9090909,7.51083372 10.5274545,8.64566898 9.80559091,9.59680658 C9.36577273,10.1761956 8.80922727,10.6628969 8.18181818,11.025803 L8.18181818,11.025803 L8.18181818,9.35175545 C9.02622727,8.59193368 9.54545455,7.49319403 9.54545455,6.31496241 C9.54545455,4.0646094 7.71027273,2.23379989 5.45454545,2.23379989 C3.19881818,2.23379989 1.36363636,4.0646094 1.36363636,6.31496241 C1.36363636,7.49319403 1.88286364,8.59193368 2.72727273,9.35175545 L2.72727273,9.35175545 L2.72727273,11.025803 C2.09986364,10.6628969 1.54331818,10.1761503 1.1035,9.59680658 C0.381590909,8.64566898 0,7.51083372 0,6.31496241 C0,3.31449173 2.44690909,0.873412388 5.45454545,0.873412388 Z M5.45468182,3.5941874 C6.18095455,3.5941874 6.86372727,3.87533415 7.37868182,4.38679451 C7.89659091,4.90115702 8.18181818,5.58593075 8.18181818,6.31496241 C8.18181818,6.67102117 8.11268182,7.01687702 7.98281818,7.33693086 C7.74754545,6.75794993 7.31840909,6.2775971 6.77577273,5.97645266 C6.71577273,5.74155908 6.59336364,5.52634578 6.41668182,5.35085579 C6.15922727,5.09519363 5.81772727,4.95457491 5.45459091,4.95457491 L5.45459091,4.95457491 C4.82895455,4.95738638 4.28836364,5.39565788 4.13481818,5.97563642 C3.59286364,6.27591929 3.164,6.75500243 2.92813636,7.33244158 C2.78118182,6.96976227 2.71077273,6.57561266 2.73081818,6.1760215 C2.80313636,4.73473629 3.99418182,3.60067191 5.44222727,3.5941874 L5.44222727,3.5941874 Z" id="Combined-Shape"></path>
                            </g>
                        </g>
                        <g id="Group-21" transform="translate(37.000000, 77.181818)">
                            <g id="Group-11">
                                <g id="Group-38">
                                    <rect id="Rectangle" stroke="#A6B0B5" stroke-width="0.75" fill="#FFFFFF" x="0.375" y="0.375" width="129.25" height="22.8863636" rx="11.4431818"></rect>
                                    <path d="M116.444444,15.568988 C118.765156,15.568988 120.646465,13.6876794 120.646465,11.3669678 C120.646465,9.04625608 118.765156,7.16494755 116.444444,7.16494755 C114.123733,7.16494755 112.242424,9.04625608 112.242424,11.3669678 C112.242424,13.6876794 114.123733,15.568988 116.444444,15.568988 Z M121.69697,16.619493 L119.412121,14.3346445" id="Combined-Shape-Copy-3" stroke-opacity="0.5" stroke="#1E3D49" stroke-width="1.3" stroke-linecap="round" stroke-linejoin="round"></path>
                                    <rect id="Rectangle" fill="#1E3D49" x="10.4947917" y="7.15375874" width="69.875" height="9.47692308" rx="4.72727273"></rect>
                                </g>
                                <g id="Group-6" transform="translate(50.000000, 131.636364)">
                                    <circle id="Oval" fill="#243C47" cx="15" cy="15" r="15"></circle>
                                    <g id="diagram/icons/iheart" transform="translate(8.741294, 11.137645)" fill="#FFFFFF" fill-rule="nonzero">
                                        <path d="M1.56941954,8.8358209 L10.9479689,8.8358209 C11.8133574,8.8358209 12.5174129,8.14813134 12.5174129,7.30282985 C12.5174129,7.13265672 12.5174129,1.91794627 12.5174129,1.53301493 C12.5174129,0.687689552 11.8133574,0 10.9479934,0 L1.56941954,0 C0.704055581,0 0,0.687689552 0,1.53299104 L0,7.30280597 C0,8.14813134 0.704055581,8.8358209 1.56941954,8.8358209 Z M10.9479934,8.11940299 L1.56941954,8.11940299 C1.10847559,8.11940299 0.733442164,7.75309851 0.733442164,7.30282985 L0.733442164,5.01492537 L11.7839708,5.01492537 L11.7839708,7.30282985 C11.7839708,7.75309851 11.4089373,8.11940299 10.9479934,8.11940299 Z M0.733442164,3.58208955 L11.7839708,3.58208955 L11.7839708,4.29850746 L0.733442164,4.29850746 L0.733442164,3.58208955 Z M1.56941954,0.71641791 L10.9479689,0.71641791 C11.4089373,0.71641791 11.7839708,1.08272239 11.7839708,1.53299104 L11.7839708,2.86567164 L0.733442164,2.86567164 L0.733442164,1.53299104 C0.733442164,1.08272239 1.10847559,0.71641791 1.56941954,0.71641791 Z" id="Shape"></path>
                                        <path d="M2.68839426,2.20895522 L4.4690538,2.20895522 C4.635161,2.20895522 4.76982733,2.04411808 4.76982733,1.84079602 C4.76982733,1.63747396 4.635161,1.47263682 4.4690538,1.47263682 L2.68839426,1.47263682 C2.52228706,1.47263682 2.38762072,1.63747396 2.38762072,1.84079602 C2.38762072,2.04411808 2.52228706,2.20895522 2.68839426,2.20895522 Z" id="Path"></path>
                                        <path d="M9.83353565,5.89054726 L2.68387728,5.89054726 C2.52026466,5.89054726 2.38762072,6.05538441 2.38762072,6.25870647 C2.38762072,6.46202852 2.52026466,6.62686567 2.68387728,6.62686567 L9.83353565,6.62686567 C9.99714828,6.62686567 10.1297922,6.46202852 10.1297922,6.25870647 C10.1297922,6.05538441 9.99714828,5.89054726 9.83353565,5.89054726 Z" id="Path"></path>
                                    </g>
                                </g>
                            </g>
                            <g id="diagram/iconsPlusText" transform="translate(50.000000, 39.636364)">
                                <circle id="Oval" fill="#243C47" cx="15" cy="15" r="15"></circle>
                                <g id="Group-5" transform="translate(0.000000, 46.000000)">
                                    <circle id="Oval-Copy-3" fill="#243C47" cx="15" cy="15" r="15"></circle>
                                    <g id="diagram/icons/iheart" transform="translate(7.925373, 9.109453)" fill="#FFFFFF" fill-rule="nonzero">
                                        <g id="Group" transform="translate(0.000000, 0.000000)">
                                            <path d="M10.6029851,8.41506752 C9.62855347,8.41506752 8.8358209,9.17007729 8.8358209,10.098081 C8.8358209,11.0260848 9.62858115,11.7810945 10.6029851,11.7810945 C11.577389,11.7810945 12.3701493,11.0260848 12.3701493,10.098081 C12.3701493,9.17007729 11.577389,8.41506752 10.6029851,8.41506752 Z M10.6029851,10.7712864 C10.2131515,10.7712864 9.8961194,10.4693511 9.8961194,10.098081 C9.8961194,9.72681099 10.2131515,9.42487562 10.6029851,9.42487562 C10.9928186,9.42487562 11.3098507,9.72681099 11.3098507,10.098081 C11.3098507,10.4693511 10.9928186,10.7712864 10.6029851,10.7712864 Z" id="Shape"></path>
                                            <path d="M13.1483775,2.27534461 C13.0545135,2.16320832 12.9105595,2.09780153 12.7580371,2.09780153 L3.06028461,2.09780153 L2.61408155,0.35523114 C2.56070389,0.147002194 2.36122366,0 2.13184469,0 L0.495775427,0 C0.221949588,0 0,0.207141652 0,0.462728307 C0,0.718314962 0.221949588,0.925480775 0.495775427,0.925480775 L1.7405207,0.925480775 L3.35179083,7.21832963 C3.40516849,7.42672771 3.60464872,7.57356077 3.8340277,7.57356077 L11.5516555,7.57356077 C11.7795589,7.57356077 11.9781849,7.42856403 12.0328827,7.2221714 L13.2392903,2.67174796 C13.2757901,2.53356493 13.2422414,2.3874809 13.1483775,2.27534461 Z M11.1637743,6.64807999 L4.22535169,6.64807999 L3.29724829,3.02330646 L12.1245722,3.02330646 L11.1637743,6.64807999 Z" id="Shape"></path>
                                            <path d="M4.41791045,8.41506752 C3.44347885,8.41506752 2.65074627,9.17007729 2.65074627,10.098081 C2.65074627,11.0260848 3.44350653,11.7810945 4.41791045,11.7810945 C5.39231437,11.7810945 6.18507463,11.0260848 6.18507463,10.098081 C6.18507463,9.17007729 5.39231437,8.41506752 4.41791045,8.41506752 Z M4.41791045,10.7712864 C4.02807691,10.7712864 3.71104478,10.4693511 3.71104478,10.098081 C3.71104478,9.72681099 4.02807691,9.42487562 4.41791045,9.42487562 C4.80774399,9.42487562 5.12477612,9.72681099 5.12477612,10.098081 C5.12477612,10.4693511 4.80774399,10.7712864 4.41791045,10.7712864 Z" id="Shape"></path>
                                        </g>
                                    </g>
                                </g>
                                <g id="diagram/icons/iheart" transform="translate(8.000000, 7.000000)" fill="#FFFFFF" fill-rule="nonzero">
                                    <g id="click">
                                        <path d="M13.8752006,11.465407 L11.4183898,9.00860089 L12.6233086,7.80371284 C12.7277063,7.69931534 12.7706184,7.54831383 12.7366806,7.40461107 C12.7027428,7.2609083 12.5968683,7.1450373 12.4568005,7.0983481 L5.22740164,4.6885436 C5.07435507,4.63750924 4.90554659,4.6773541 4.79146456,4.79146432 C4.67735412,4.90557454 4.63750919,5.07432589 4.68854365,5.22740057 L7.09835272,12.4568141 C7.14507041,12.5968817 7.26094164,12.7027843 7.40461627,12.7366937 C7.54829091,12.7706882 7.6993211,12.7277477 7.8037188,12.6233218 L9.00863754,11.4184338 L11.4654483,13.8752115 C11.5486314,13.9583944 11.6576582,14 11.7666567,14 C11.8756552,14 11.9847104,13.9584228 12.0678651,13.8752115 L13.875229,12.067851 C14.0415951,11.9014852 14.0415951,11.6317727 13.8752006,11.465407 Z M11.7666283,12.9715312 L9.30981753,10.5147535 C9.14347984,10.3483878 8.87371005,10.3483878 8.70737236,10.5147535 L7.68864277,11.5334812 L5.76623124,5.76625754 L11.5334659,7.68866543 L10.5147363,8.70739307 C10.3485122,8.87358845 10.3483702,9.14349973 10.5147363,9.3098371 L12.971547,11.7666432 L11.7666283,12.9715312 Z" id="Shape"></path>
                                        <path d="M5.13333333,2.8 C5.39105778,2.8 5.6,2.64329333 5.6,2.45 L5.6,0.35 C5.6,0.156706667 5.39105778,0 5.13333333,0 C4.87560889,0 4.66666667,0.156706667 4.66666667,0.35 L4.66666667,2.45 C4.66666667,2.64329333 4.87560889,2.8 5.13333333,2.8 Z" id="Path"></path>
                                        <path d="M1.79234586,1.15804001 C1.61721131,0.982875552 1.33320447,0.982875552 1.15804001,1.15804001 C0.982875552,1.33320447 0.982875552,1.6171814 1.15804001,1.79234586 L3.06098747,3.69529332 C3.23612203,3.87045778 3.52015876,3.87045778 3.69529332,3.69529332 C3.87045778,3.52012886 3.87045778,3.23615193 3.69529332,3.06098747 L1.79234586,1.15804001 Z" id="Path"></path>
                                        <path d="M3.06098747,7.50470668 L1.15804001,9.40765414 C0.982875552,9.5828186 0.982875552,9.86679553 1.15804001,10.04196 C1.33317457,10.2171244 1.61721131,10.2171244 1.79234586,10.04196 L3.69529332,8.13901253 C3.87045778,7.96384807 3.87045778,7.67987114 3.69529332,7.50470668 C3.52012886,7.32954222 3.23612203,7.32954222 3.06098747,7.50470668 Z" id="Path"></path>
                                        <path d="M8.13901253,3.69529332 L10.04196,1.79234586 C10.2171244,1.6171814 10.2171244,1.33320447 10.04196,1.15804001 C9.86682543,0.982875552 9.5828186,0.982875552 9.40765414,1.15804001 L7.50470668,3.06098747 C7.32954222,3.23615193 7.32954222,3.52012886 7.50470668,3.69529332 C7.67984124,3.87045778 7.96387797,3.87045778 8.13901253,3.69529332 Z" id="Path"></path>
                                        <path d="M2.8,5.13333333 C2.8,4.87560889 2.64329333,4.66666667 2.45,4.66666667 L0.35,4.66666667 C0.156706667,4.66666667 0,4.87560889 0,5.13333333 C0,5.39105778 0.156706667,5.6 0.35,5.6 L2.45,5.6 C2.64329333,5.6 2.8,5.39105778 2.8,5.13333333 Z" id="Path"></path>
                                    </g>
                                </g>
                            </g>
                        </g>
                    </g>
                </g>
                <g id="Group-25" transform="translate(456.000000, 0.000000)">
                    <g id="Group-18">
                        <g id="Group-52" transform="translate(0.000000, 22.000000)">
                            <mask id="mask-10" fill="white">
                                <use xlink:href="#path-9"></use>
                            </mask>
                            <use id="Mask" fill="#0086B2" xlink:href="#path-9"></use>
                        </g>
                        <g id="Group-15">
                            <g id="Group-52" transform="translate(0.000000, 22.000000)">
                                <mask id="mask-12" fill="white">
                                    <use xlink:href="#path-11"></use>
                                </mask>
                                <use id="Mask" fill-opacity="0.6" fill="#FFFFFF" xlink:href="#path-11"></use>
                            </g>
                            <g id="Group-4" transform="translate(77.000000, 0.000000)">
                                <g id="Group-3-Copy" fill="#0086B2">
                                    <circle id="Oval" cx="22" cy="22" r="22"></circle>
                                </g>
                                <g id="01_icon/menu/insight" transform="translate(11.000000, 17.000000)">
                                    <mask id="mask-14" fill="white">
                                        <use xlink:href="#path-13"></use>
                                    </mask>
                                    <use id="Mask" fill="#FFFFFF" fill-rule="nonzero" xlink:href="#path-13"></use>
                                    <g id="00_colores/anaranjado" mask="url(#mask-14)" fill="#FFFFFF">
                                        <g transform="translate(-2.000000, -7.000000)" id="Rectangle">
                                            <rect x="0" y="0" width="26" height="26"></rect>
                                        </g>
                                    </g>
                                </g>
                            </g>
                        </g>
                    </g>
                    <g id="Group-22" transform="translate(30.000000, 78.000000)">
                        <g id="Group-19">
                            <rect id="Rectangle" stroke="#A6B0B5" stroke-width="0.75" fill="#FFFFFF" x="0.375" y="0.375" width="142.25" height="61.25" rx="6"></rect>
                            <g id="Group-67" transform="translate(11.000000, 13.000000)">
                                <rect id="Rectangle" fill="#E2E6E7" opacity="0.33380127" x="28.173913" y="0" width="32.6956522" height="14.7604246" rx="5.28371628"></rect>
                                <ellipse id="Oval" fill="#243C47" cx="8.34782609" cy="19.3098861" rx="8.34782609" ry="8.2383765"></ellipse>
                                <ellipse id="Oval" fill="#D7DDDF" cx="116.869565" cy="19.0512456" rx="3.13043478" ry="3.08939119"></ellipse>
                                <line x1="16.6956522" y1="19.0512456" x2="113.73913" y2="19.0512456" id="Path-9" stroke="#D3D3D3" stroke-width="0.5"></line>
                                <ellipse id="Oval" fill="#D7DDDF" cx="74.0869565" cy="19.0512456" rx="4.52173913" ry="4.46245394"></ellipse>
                                <path d="M53.5652174,7.38021228 L36.8695652,7.38021228 C31.490792,7.38021228 27.1304348,11.7405695 27.1304348,17.1193427 L27.1304348,19.0512456 L27.1304348,19.0512456" id="Path-10" stroke="#D3D3D3" stroke-width="0.5"></path>
                                <path d="M36.8695652,32.0953418 C31.490792,32.0953418 27.1304348,27.7349845 27.1304348,22.3562113 L27.1304348,19.0512456 L27.1304348,19.0512456" id="Path-11" stroke="#D3D3D3" stroke-width="0.5"></path>
                                <ellipse id="Oval" fill="#243C47" cx="36.5217391" cy="7.38021228" rx="4.52173913" ry="4.46245394"></ellipse>
                                <ellipse id="Oval" fill="#243C47" cx="53.2173913" cy="7.38021228" rx="4.52173913" ry="4.46245394"></ellipse>
                                <ellipse id="Oval" fill="#D7DDDF" cx="36.5217391" cy="31.768773" rx="2.26086957" ry="2.23122697"></ellipse>
                            </g>
                        </g>
                        <g id="Group-20" transform="translate(0.000000, 72.000000)">
                            <rect id="Rectangle-Copy-6" stroke="#A6B0B5" stroke-width="0.75" fill="#FFFFFF" x="0.375" y="0.375" width="142.25" height="61.25" rx="6"></rect>
                            <g id="Group-73" transform="translate(13.000000, 13.000000)" fill="#243C47">
                                <path d="M0,35 L116,35 L116,27.2952861 C116,22.1501096 111.82901,17.9791199 106.683834,17.9791199 C106.320903,17.9791199 105.958282,18.000328 105.597826,18.0426357 L100.992476,18.5831776 C97.1531649,19.0338075 93.2662574,18.8609737 89.4820942,18.0713611 L80.4523979,16.187203 C76.4413171,15.3502412 72.3165004,15.2065933 68.2569129,15.7624917 L65.9734357,16.075179 C62.3600981,16.5699703 58.84333,17.6128294 55.5443776,19.167802 L53.9021739,19.9418605 C49.5741217,21.9819029 44.7649189,22.7811007 40.0096795,22.2505281 L36.5919,21.8691844 C32.4272333,21.4045058 28.2114978,21.905511 24.2717391,23.3333333 L21.4264131,24.3645183 C19.3350758,25.1224475 17.1777799,25.6842308 14.9823955,26.0426106 L6.42656314,27.4392848 C2.72105584,28.0441805 -4.59800376e-16,31.245445 0,35 L0,35 L0,35 Z" id="Path-13" fill-opacity="0.3"></path>
                                <path d="M0,35 L116,35 L116,12.5685264 C116,8.88884036 113.017025,5.90586542 109.337339,5.90586542 C108.004006,5.90586542 106.701341,6.30591149 105.597826,7.05426357 L103.863972,8.23008154 C98.2725313,12.0219329 91.5033298,13.6751496 84.7934783,12.8875969 L78.6784085,12.1698552 C75.8306084,11.8356015 73.0331485,11.1611494 70.3459077,10.1609352 L67.4565217,9.08548083 C63.1301718,7.47517611 58.2832389,8.15827446 54.5704595,10.901567 L53.9021739,11.3953488 C49.6749201,14.5187754 44.352586,15.7739312 39.1751875,14.8683856 L38.1279099,14.685213 C33.1554479,13.8155116 28.0572445,15.253187 24.2717391,18.5926042 C20.3941024,22.013296 15.4704781,24.0169576 10.306162,24.275875 L9.14130435,24.3342761 C4.02030439,24.5910219 2.92478436e-15,28.8179372 0,33.9453692 L0,35 L0,35 Z" id="Path-13" fill-opacity="0.3"></path>
                                <path d="M0,35 L116,35 L116,33.7631546 C116,28.4196382 111.668224,24.0878623 106.324708,24.0878623 C106.082157,24.0878623 105.839692,24.0969831 105.597826,24.1152053 L98.9359478,24.6171147 C96.4491945,24.804468 93.9496836,24.7320271 91.4779549,24.400967 L82.4648771,23.193767 C77.2436705,22.4944453 71.9412689,23.62213 67.4565217,26.3856589 C63.3841215,28.895097 58.1248543,28.301113 54.7147319,24.9465954 L53.9021739,24.1472868 C49.9415501,20.2512441 43.9443581,19.2991908 38.9718698,21.7771032 L34.0307882,24.239365 C31.5261107,25.4875069 28.8839989,26.4383095 26.1583391,27.0723808 L24.2717391,27.5112613 C20.3634506,28.4204479 16.2751203,28.1736153 12.5046061,26.8008216 L9.14130435,25.5762885 C5.60662103,24.2893576 1.69793045,26.111521 0.410999595,29.6462044 C0.139098373,30.3930081 -5.07345569e-15,31.1816372 0,31.9763988 L0,35 L0,35 Z" id="Path-13"></path>
                            </g>
                        </g>
                        <g id="Group-26" transform="translate(0.000000, 144.000000)">
                            <g id="Group-20-Copy" fill="#FFFFFF" stroke="#A6B0B5" stroke-width="0.75">
                                <rect id="Rectangle-Copy-6" x="0.375" y="0.375" width="142.25" height="61.25" rx="6"></rect>
                            </g>
                            <g id="Group-78" transform="translate(41.000000, 10.000000)" fill="#243C47">
                                <ellipse id="Oval" cx="26.6997056" cy="17.4396021" rx="16.2924282" ry="16.1504852"></ellipse>
                                <ellipse id="Oval" opacity="0.202864051" cx="46.2140992" cy="30.0236186" rx="4.54308094" ry="4.50350068"></ellipse>
                                <ellipse id="Oval" opacity="0.202864051" cx="12.443831" cy="37.0118093" rx="7.04960836" ry="6.98819071"></ellipse>
                                <ellipse id="Oval" opacity="0.202864051" cx="4.54308094" cy="24.7079478" rx="4.54308094" ry="4.50350068"></ellipse>
                                <ellipse id="Oval" opacity="0.202864051" cx="48.7206266" cy="6.98819071" rx="7.04960836" ry="6.98819071"></ellipse>
                                <ellipse id="Oval" opacity="0.202864051" cx="54.3603133" cy="19.8074013" rx="5.63968668" ry="5.59055257"></ellipse>
                            </g>
                        </g>
                    </g>
                </g>
                <path d="M0,310 L204,310 L204,353 C204,361.836556 196.836556,369 188,369 L16,369 C7.163444,369 1.082166e-15,361.836556 0,353 L0,310 L0,310 Z" id="Rectangle" fill="#80C0A1"></path>
                <path d="M228,310 L432,310 L432,353 C432,361.836556 424.836556,369 416,369 L244,369 C235.163444,369 228,361.836556 228,353 L228,310 L228,310 Z" id="Rectangle-Copy-7" fill="#D44A6F"></path>
                <path d="M456,310 L660,310 L660,353 C660,361.836556 652.836556,369 644,369 L472,369 C463.163444,369 456,361.836556 456,353 L456,310 L456,310 Z" id="Rectangle-Copy-8" fill="#0086B2"></path>
                <g id="Contextual-search-fe" transform="translate(40.384000, 322.128000)" fill="#FFFFFF" fill-rule="nonzero">
                    <path d="M24.064,12 C22.944,12 21.9333333,11.752 21.032,11.256 C20.1306667,10.76 19.424,10.0773333 18.912,9.208 C18.4,8.33866667 18.144,7.36 18.144,6.272 C18.144,5.184 18.4,4.20533333 18.912,3.336 C19.424,2.46666667 20.1333333,1.784 21.04,1.288 C21.9466667,0.792 22.96,0.544 24.08,0.544 C24.9546667,0.544 25.7546667,0.690666667 26.48,0.984 C27.2053333,1.27733333 27.824,1.712 28.336,2.288 L27.296,3.296 C26.4533333,2.41066667 25.4026667,1.968 24.144,1.968 C23.312,1.968 22.56,2.15466667 21.888,2.528 C21.216,2.90133333 20.6906667,3.416 20.312,4.072 C19.9333333,4.728 19.744,5.46133333 19.744,6.272 C19.744,7.08266667 19.9333333,7.816 20.312,8.472 C20.6906667,9.128 21.216,9.64266667 21.888,10.016 C22.56,10.3893333 23.312,10.576 24.144,10.576 C25.392,10.576 26.4426667,10.128 27.296,9.232 L28.336,10.24 C27.824,10.816 27.2026667,11.2533333 26.472,11.552 C25.7413333,11.8506667 24.9386667,12 24.064,12 Z" id="Path"></path>
                    <path d="M33.68,11.968 C32.8373333,11.968 32.08,11.7813333 31.408,11.408 C30.736,11.0346667 30.2106667,10.52 29.832,9.864 C29.4533333,9.208 29.264,8.464 29.264,7.632 C29.264,6.8 29.4533333,6.056 29.832,5.4 C30.2106667,4.744 30.736,4.232 31.408,3.864 C32.08,3.496 32.8373333,3.312 33.68,3.312 C34.5226667,3.312 35.2773333,3.496 35.944,3.864 C36.6106667,4.232 37.1333333,4.744 37.512,5.4 C37.8906667,6.056 38.08,6.8 38.08,7.632 C38.08,8.464 37.8906667,9.208 37.512,9.864 C37.1333333,10.52 36.6106667,11.0346667 35.944,11.408 C35.2773333,11.7813333 34.5226667,11.968 33.68,11.968 Z M33.68,10.624 C34.224,10.624 34.712,10.4986667 35.144,10.248 C35.576,9.99733333 35.9146667,9.64533333 36.16,9.192 C36.4053333,8.73866667 36.528,8.21866667 36.528,7.632 C36.528,7.04533333 36.4053333,6.52533333 36.16,6.072 C35.9146667,5.61866667 35.576,5.26933333 35.144,5.024 C34.712,4.77866667 34.224,4.656 33.68,4.656 C33.136,4.656 32.648,4.77866667 32.216,5.024 C31.784,5.26933333 31.4426667,5.61866667 31.192,6.072 C30.9413333,6.52533333 30.816,7.04533333 30.816,7.632 C30.816,8.21866667 30.9413333,8.73866667 31.192,9.192 C31.4426667,9.64533333 31.784,9.99733333 32.216,10.248 C32.648,10.4986667 33.136,10.624 33.68,10.624 Z" id="Shape"></path>
                    <path d="M44.736,3.312 C45.8133333,3.312 46.6693333,3.624 47.304,4.248 C47.9386667,4.872 48.256,5.78666667 48.256,6.992 L48.256,11.872 L46.72,11.872 L46.72,7.168 C46.72,6.34666667 46.5226667,5.728 46.128,5.312 C45.7333333,4.896 45.168,4.688 44.432,4.688 C43.6,4.688 42.944,4.93066667 42.464,5.416 C41.984,5.90133333 41.744,6.59733333 41.744,7.504 L41.744,11.872 L40.208,11.872 L40.208,3.392 L41.68,3.392 L41.68,4.672 C41.9893333,4.23466667 42.408,3.89866667 42.936,3.664 C43.464,3.42933333 44.064,3.312 44.736,3.312 Z" id="Path"></path>
                    <path d="M55.872,11.376 C55.648,11.568 55.3706667,11.7146667 55.04,11.816 C54.7093333,11.9173333 54.368,11.968 54.016,11.968 C53.1626667,11.968 52.5013333,11.7386667 52.032,11.28 C51.5626667,10.8213333 51.328,10.1653333 51.328,9.312 L51.328,4.656 L49.888,4.656 L49.888,3.392 L51.328,3.392 L51.328,1.536 L52.864,1.536 L52.864,3.392 L55.296,3.392 L55.296,4.656 L52.864,4.656 L52.864,9.248 C52.864,9.70666667 52.9786667,10.0586667 53.208,10.304 C53.4373333,10.5493333 53.7653333,10.672 54.192,10.672 C54.6613333,10.672 55.0613333,10.5386667 55.392,10.272 L55.872,11.376 Z" id="Path"></path>
                    <path d="M65.104,7.68 C65.104,7.79733333 65.0933333,7.952 65.072,8.144 L58.192,8.144 C58.288,8.89066667 58.616,9.49066667 59.176,9.944 C59.736,10.3973333 60.432,10.624 61.264,10.624 C62.2773333,10.624 63.0933333,10.2826667 63.712,9.6 L64.56,10.592 C64.176,11.04 63.6986667,11.3813333 63.128,11.616 C62.5573333,11.8506667 61.92,11.968 61.216,11.968 C60.32,11.968 59.5253333,11.784 58.832,11.416 C58.1386667,11.048 57.6026667,10.5333333 57.224,9.872 C56.8453333,9.21066667 56.656,8.464 56.656,7.632 C56.656,6.81066667 56.84,6.06933333 57.208,5.408 C57.576,4.74666667 58.0826667,4.232 58.728,3.864 C59.3733333,3.496 60.1013333,3.312 60.912,3.312 C61.7226667,3.312 62.4453333,3.496 63.08,3.864 C63.7146667,4.232 64.2106667,4.74666667 64.568,5.408 C64.9253333,6.06933333 65.104,6.82666667 65.104,7.68 Z M60.912,4.608 C60.176,4.608 59.56,4.832 59.064,5.28 C58.568,5.728 58.2773333,6.31466667 58.192,7.04 L63.632,7.04 C63.5466667,6.32533333 63.256,5.74133333 62.76,5.288 C62.264,4.83466667 61.648,4.608 60.912,4.608 Z" id="Shape"></path>
                    <polygon id="Path" points="72.4 11.872 69.952 8.624 67.472 11.872 65.76 11.872 69.104 7.536 65.92 3.392 67.632 3.392 69.968 6.448 72.288 3.392 73.968 3.392 70.768 7.536 74.144 11.872"></polygon>
                    <path d="M80.592,11.376 C80.368,11.568 80.0906667,11.7146667 79.76,11.816 C79.4293333,11.9173333 79.088,11.968 78.736,11.968 C77.8826667,11.968 77.2213333,11.7386667 76.752,11.28 C76.2826667,10.8213333 76.048,10.1653333 76.048,9.312 L76.048,4.656 L74.608,4.656 L74.608,3.392 L76.048,3.392 L76.048,1.536 L77.584,1.536 L77.584,3.392 L80.016,3.392 L80.016,4.656 L77.584,4.656 L77.584,9.248 C77.584,9.70666667 77.6986667,10.0586667 77.928,10.304 C78.1573333,10.5493333 78.4853333,10.672 78.912,10.672 C79.3813333,10.672 79.7813333,10.5386667 80.112,10.272 L80.592,11.376 Z" id="Path"></path>
                    <path d="M90.352,3.392 L90.352,11.872 L88.896,11.872 L88.896,10.592 C88.5866667,11.0293333 88.1786667,11.368 87.672,11.608 C87.1653333,11.848 86.6133333,11.968 86.016,11.968 C84.8853333,11.968 83.9946667,11.656 83.344,11.032 C82.6933333,10.408 82.368,9.488 82.368,8.272 L82.368,3.392 L83.904,3.392 L83.904,8.096 C83.904,8.91733333 84.1013333,9.53866667 84.496,9.96 C84.8906667,10.3813333 85.456,10.592 86.192,10.592 C87.0026667,10.592 87.6426667,10.3466667 88.112,9.856 C88.5813333,9.36533333 88.816,8.672 88.816,7.776 L88.816,3.392 L90.352,3.392 Z" id="Path"></path>
                    <path d="M96.368,3.312 C97.5413333,3.312 98.44,3.6 99.064,4.176 C99.688,4.752 100,5.61066667 100,6.752 L100,11.872 L98.544,11.872 L98.544,10.752 C98.288,11.1466667 97.9226667,11.448 97.448,11.656 C96.9733333,11.864 96.4106667,11.968 95.76,11.968 C94.8106667,11.968 94.0506667,11.7386667 93.48,11.28 C92.9093333,10.8213333 92.624,10.2186667 92.624,9.472 C92.624,8.72533333 92.896,8.12533333 93.44,7.672 C93.984,7.21866667 94.848,6.992 96.032,6.992 L98.464,6.992 L98.464,6.688 C98.464,6.02666667 98.272,5.52 97.888,5.168 C97.504,4.816 96.9386667,4.64 96.192,4.64 C95.6906667,4.64 95.2,4.72266667 94.72,4.888 C94.24,5.05333333 93.8346667,5.27466667 93.504,5.552 L92.864,4.4 C93.3013333,4.048 93.824,3.77866667 94.432,3.592 C95.04,3.40533333 95.6853333,3.312 96.368,3.312 Z M96.016,10.784 C96.6026667,10.784 97.1093333,10.6533333 97.536,10.392 C97.9626667,10.1306667 98.272,9.76 98.464,9.28 L98.464,8.096 L96.096,8.096 C94.7946667,8.096 94.144,8.53333333 94.144,9.408 C94.144,9.83466667 94.3093333,10.1706667 94.64,10.416 C94.9706667,10.6613333 95.4293333,10.784 96.016,10.784 Z" id="Shape"></path>
                    <polygon id="Path" points="102.848 0 104.384 0 104.384 11.872 102.848 11.872"></polygon>
                    <path d="M3.504,30.968 C2.81066667,30.968 2.144,30.8746667 1.504,30.688 C0.864,30.5013333 0.362666667,30.264 0,29.976 L0.64,28.76 C1.01333333,29.0266667 1.46666667,29.24 2,29.4 C2.53333333,29.56 3.072,29.64 3.616,29.64 C4.96,29.64 5.632,29.256 5.632,28.488 C5.632,28.232 5.54133333,28.0293333 5.36,27.88 C5.17866667,27.7306667 4.952,27.6213333 4.68,27.552 C4.408,27.4826667 4.02133333,27.4053333 3.52,27.32 C2.83733333,27.2133333 2.28,27.0906667 1.848,26.952 C1.416,26.8133333 1.04533333,26.5786667 0.736,26.248 C0.426666667,25.9173333 0.272,25.4533333 0.272,24.856 C0.272,24.088 0.592,23.472 1.232,23.008 C1.872,22.544 2.73066667,22.312 3.808,22.312 C4.37333333,22.312 4.93866667,22.3813333 5.504,22.52 C6.06933333,22.6586667 6.53333333,22.8453333 6.896,23.08 L6.24,24.296 C5.54666667,23.848 4.73066667,23.624 3.792,23.624 C3.14133333,23.624 2.64533333,23.7306667 2.304,23.944 C1.96266667,24.1573333 1.792,24.44 1.792,24.792 C1.792,25.0693333 1.888,25.288 2.08,25.448 C2.272,25.608 2.50933333,25.7253333 2.792,25.8 C3.07466667,25.8746667 3.472,25.96 3.984,26.056 C4.66666667,26.1733333 5.21866667,26.2986667 5.64,26.432 C6.06133333,26.5653333 6.42133333,26.792 6.72,27.112 C7.01866667,27.432 7.168,27.88 7.168,28.456 C7.168,29.224 6.84,29.8346667 6.184,30.288 C5.528,30.7413333 4.63466667,30.968 3.504,30.968 Z" id="Path"></path>
                    <path d="M16.752,26.68 C16.752,26.7973333 16.7413333,26.952 16.72,27.144 L9.84,27.144 C9.936,27.8906667 10.264,28.4906667 10.824,28.944 C11.384,29.3973333 12.08,29.624 12.912,29.624 C13.9253333,29.624 14.7413333,29.2826667 15.36,28.6 L16.208,29.592 C15.824,30.04 15.3466667,30.3813333 14.776,30.616 C14.2053333,30.8506667 13.568,30.968 12.864,30.968 C11.968,30.968 11.1733333,30.784 10.48,30.416 C9.78666667,30.048 9.25066667,29.5333333 8.872,28.872 C8.49333333,28.2106667 8.304,27.464 8.304,26.632 C8.304,25.8106667 8.488,25.0693333 8.856,24.408 C9.224,23.7466667 9.73066667,23.232 10.376,22.864 C11.0213333,22.496 11.7493333,22.312 12.56,22.312 C13.3706667,22.312 14.0933333,22.496 14.728,22.864 C15.3626667,23.232 15.8586667,23.7466667 16.216,24.408 C16.5733333,25.0693333 16.752,25.8266667 16.752,26.68 Z M12.56,23.608 C11.824,23.608 11.208,23.832 10.712,24.28 C10.216,24.728 9.92533333,25.3146667 9.84,26.04 L15.28,26.04 C15.1946667,25.3253333 14.904,24.7413333 14.408,24.288 C13.912,23.8346667 13.296,23.608 12.56,23.608 Z" id="Shape"></path>
                    <path d="M21.728,22.312 C22.9013333,22.312 23.8,22.6 24.424,23.176 C25.048,23.752 25.36,24.6106667 25.36,25.752 L25.36,30.872 L23.904,30.872 L23.904,29.752 C23.648,30.1466667 23.2826667,30.448 22.808,30.656 C22.3333333,30.864 21.7706667,30.968 21.12,30.968 C20.1706667,30.968 19.4106667,30.7386667 18.84,30.28 C18.2693333,29.8213333 17.984,29.2186667 17.984,28.472 C17.984,27.7253333 18.256,27.1253333 18.8,26.672 C19.344,26.2186667 20.208,25.992 21.392,25.992 L23.824,25.992 L23.824,25.688 C23.824,25.0266667 23.632,24.52 23.248,24.168 C22.864,23.816 22.2986667,23.64 21.552,23.64 C21.0506667,23.64 20.56,23.7226667 20.08,23.888 C19.6,24.0533333 19.1946667,24.2746667 18.864,24.552 L18.224,23.4 C18.6613333,23.048 19.184,22.7786667 19.792,22.592 C20.4,22.4053333 21.0453333,22.312 21.728,22.312 Z M21.376,29.784 C21.9626667,29.784 22.4693333,29.6533333 22.896,29.392 C23.3226667,29.1306667 23.632,28.76 23.824,28.28 L23.824,27.096 L21.456,27.096 C20.1546667,27.096 19.504,27.5333333 19.504,28.408 C19.504,28.8346667 19.6693333,29.1706667 20,29.416 C20.3306667,29.6613333 20.7893333,29.784 21.376,29.784 Z" id="Shape"></path>
                    <path d="M29.68,23.816 C29.9466667,23.3253333 30.3413333,22.952 30.864,22.696 C31.3866667,22.44 32.0213333,22.312 32.768,22.312 L32.768,23.8 C32.6826667,23.7893333 32.5653333,23.784 32.416,23.784 C31.584,23.784 30.9306667,24.032 30.456,24.528 C29.9813333,25.024 29.744,25.7306667 29.744,26.648 L29.744,30.872 L28.208,30.872 L28.208,22.392 L29.68,22.392 L29.68,23.816 Z" id="Path"></path>
                    <path d="M38.272,30.968 C37.408,30.968 36.6373333,30.7813333 35.96,30.408 C35.2826667,30.0346667 34.752,29.52 34.368,28.864 C33.984,28.208 33.792,27.464 33.792,26.632 C33.792,25.8 33.984,25.056 34.368,24.4 C34.752,23.744 35.2826667,23.232 35.96,22.864 C36.6373333,22.496 37.408,22.312 38.272,22.312 C39.04,22.312 39.7253333,22.4666667 40.328,22.776 C40.9306667,23.0853333 41.3973333,23.5333333 41.728,24.12 L40.56,24.872 C40.2933333,24.4666667 39.9626667,24.1626667 39.568,23.96 C39.1733333,23.7573333 38.736,23.656 38.256,23.656 C37.7013333,23.656 37.2026667,23.7786667 36.76,24.024 C36.3173333,24.2693333 35.9706667,24.6186667 35.72,25.072 C35.4693333,25.5253333 35.344,26.0453333 35.344,26.632 C35.344,27.2293333 35.4693333,27.7546667 35.72,28.208 C35.9706667,28.6613333 36.3173333,29.0106667 36.76,29.256 C37.2026667,29.5013333 37.7013333,29.624 38.256,29.624 C38.736,29.624 39.1733333,29.5226667 39.568,29.32 C39.9626667,29.1173333 40.2933333,28.8133333 40.56,28.408 L41.728,29.144 C41.3973333,29.7306667 40.9306667,30.1813333 40.328,30.496 C39.7253333,30.8106667 39.04,30.968 38.272,30.968 Z" id="Path"></path>
                    <path d="M48.128,22.312 C49.2053333,22.312 50.0613333,22.624 50.696,23.248 C51.3306667,23.872 51.648,24.7866667 51.648,25.992 L51.648,30.872 L50.112,30.872 L50.112,26.168 C50.112,25.3466667 49.9146667,24.728 49.52,24.312 C49.1253333,23.896 48.56,23.688 47.824,23.688 C46.992,23.688 46.336,23.9306667 45.856,24.416 C45.376,24.9013333 45.136,25.5973333 45.136,26.504 L45.136,30.872 L43.6,30.872 L43.6,19 L45.136,19 L45.136,23.592 C45.456,23.1866667 45.8746667,22.872 46.392,22.648 C46.9093333,22.424 47.488,22.312 48.128,22.312 Z" id="Path"></path>
                    <path d="M61.904,20.168 C60.9866667,20.168 60.528,20.664 60.528,21.656 L60.528,22.392 L62.992,22.392 L62.992,23.656 L60.56,23.656 L60.56,30.872 L59.024,30.872 L59.024,23.656 L57.584,23.656 L57.584,22.392 L59.024,22.392 L59.024,21.64 C59.024,20.7973333 59.2693333,20.1306667 59.76,19.64 C60.2506667,19.1493333 60.9386667,18.904 61.824,18.904 C62.1653333,18.904 62.4853333,18.9466667 62.784,19.032 C63.0826667,19.1173333 63.3386667,19.24 63.552,19.4 L63.088,20.568 C62.736,20.3013333 62.3413333,20.168 61.904,20.168 Z" id="Path"></path>
                    <path d="M71.984,26.68 C71.984,26.7973333 71.9733333,26.952 71.952,27.144 L65.072,27.144 C65.168,27.8906667 65.496,28.4906667 66.056,28.944 C66.616,29.3973333 67.312,29.624 68.144,29.624 C69.1573333,29.624 69.9733333,29.2826667 70.592,28.6 L71.44,29.592 C71.056,30.04 70.5786667,30.3813333 70.008,30.616 C69.4373333,30.8506667 68.8,30.968 68.096,30.968 C67.2,30.968 66.4053333,30.784 65.712,30.416 C65.0186667,30.048 64.4826667,29.5333333 64.104,28.872 C63.7253333,28.2106667 63.536,27.464 63.536,26.632 C63.536,25.8106667 63.72,25.0693333 64.088,24.408 C64.456,23.7466667 64.9626667,23.232 65.608,22.864 C66.2533333,22.496 66.9813333,22.312 67.792,22.312 C68.6026667,22.312 69.3253333,22.496 69.96,22.864 C70.5946667,23.232 71.0906667,23.7466667 71.448,24.408 C71.8053333,25.0693333 71.984,25.8266667 71.984,26.68 Z M67.792,23.608 C67.056,23.608 66.44,23.832 65.944,24.28 C65.448,24.728 65.1573333,25.3146667 65.072,26.04 L70.512,26.04 C70.4266667,25.3253333 70.136,24.7413333 69.64,24.288 C69.144,23.8346667 68.528,23.608 67.792,23.608 Z" id="Shape"></path>
                    <path d="M76.96,22.312 C78.1333333,22.312 79.032,22.6 79.656,23.176 C80.28,23.752 80.592,24.6106667 80.592,25.752 L80.592,30.872 L79.136,30.872 L79.136,29.752 C78.88,30.1466667 78.5146667,30.448 78.04,30.656 C77.5653333,30.864 77.0026667,30.968 76.352,30.968 C75.4026667,30.968 74.6426667,30.7386667 74.072,30.28 C73.5013333,29.8213333 73.216,29.2186667 73.216,28.472 C73.216,27.7253333 73.488,27.1253333 74.032,26.672 C74.576,26.2186667 75.44,25.992 76.624,25.992 L79.056,25.992 L79.056,25.688 C79.056,25.0266667 78.864,24.52 78.48,24.168 C78.096,23.816 77.5306667,23.64 76.784,23.64 C76.2826667,23.64 75.792,23.7226667 75.312,23.888 C74.832,24.0533333 74.4266667,24.2746667 74.096,24.552 L73.456,23.4 C73.8933333,23.048 74.416,22.7786667 75.024,22.592 C75.632,22.4053333 76.2773333,22.312 76.96,22.312 Z M76.608,29.784 C77.1946667,29.784 77.7013333,29.6533333 78.128,29.392 C78.5546667,29.1306667 78.864,28.76 79.056,28.28 L79.056,27.096 L76.688,27.096 C75.3866667,27.096 74.736,27.5333333 74.736,28.408 C74.736,28.8346667 74.9013333,29.1706667 75.232,29.416 C75.5626667,29.6613333 76.0213333,29.784 76.608,29.784 Z" id="Shape"></path>
                    <path d="M88.208,30.376 C87.984,30.568 87.7066667,30.7146667 87.376,30.816 C87.0453333,30.9173333 86.704,30.968 86.352,30.968 C85.4986667,30.968 84.8373333,30.7386667 84.368,30.28 C83.8986667,29.8213333 83.664,29.1653333 83.664,28.312 L83.664,23.656 L82.224,23.656 L82.224,22.392 L83.664,22.392 L83.664,20.536 L85.2,20.536 L85.2,22.392 L87.632,22.392 L87.632,23.656 L85.2,23.656 L85.2,28.248 C85.2,28.7066667 85.3146667,29.0586667 85.544,29.304 C85.7733333,29.5493333 86.1013333,29.672 86.528,29.672 C86.9973333,29.672 87.3973333,29.5386667 87.728,29.272 L88.208,30.376 Z" id="Path"></path>
                    <path d="M97.968,22.392 L97.968,30.872 L96.512,30.872 L96.512,29.592 C96.2026667,30.0293333 95.7946667,30.368 95.288,30.608 C94.7813333,30.848 94.2293333,30.968 93.632,30.968 C92.5013333,30.968 91.6106667,30.656 90.96,30.032 C90.3093333,29.408 89.984,28.488 89.984,27.272 L89.984,22.392 L91.52,22.392 L91.52,27.096 C91.52,27.9173333 91.7173333,28.5386667 92.112,28.96 C92.5066667,29.3813333 93.072,29.592 93.808,29.592 C94.6186667,29.592 95.2586667,29.3466667 95.728,28.856 C96.1973333,28.3653333 96.432,27.672 96.432,26.776 L96.432,22.392 L97.968,22.392 Z" id="Path"></path>
                    <path d="M102.368,23.816 C102.634667,23.3253333 103.029333,22.952 103.552,22.696 C104.074667,22.44 104.709333,22.312 105.456,22.312 L105.456,23.8 C105.370667,23.7893333 105.253333,23.784 105.104,23.784 C104.272,23.784 103.618667,24.032 103.144,24.528 C102.669333,25.024 102.432,25.7306667 102.432,26.648 L102.432,30.872 L100.896,30.872 L100.896,22.392 L102.368,22.392 L102.368,23.816 Z" id="Path"></path>
                    <path d="M114.928,26.68 C114.928,26.7973333 114.917333,26.952 114.896,27.144 L108.016,27.144 C108.112,27.8906667 108.44,28.4906667 109,28.944 C109.56,29.3973333 110.256,29.624 111.088,29.624 C112.101333,29.624 112.917333,29.2826667 113.536,28.6 L114.384,29.592 C114,30.04 113.522667,30.3813333 112.952,30.616 C112.381333,30.8506667 111.744,30.968 111.04,30.968 C110.144,30.968 109.349333,30.784 108.656,30.416 C107.962667,30.048 107.426667,29.5333333 107.048,28.872 C106.669333,28.2106667 106.48,27.464 106.48,26.632 C106.48,25.8106667 106.664,25.0693333 107.032,24.408 C107.4,23.7466667 107.906667,23.232 108.552,22.864 C109.197333,22.496 109.925333,22.312 110.736,22.312 C111.546667,22.312 112.269333,22.496 112.904,22.864 C113.538667,23.232 114.034667,23.7466667 114.392,24.408 C114.749333,25.0693333 114.928,25.8266667 114.928,26.68 Z M110.736,23.608 C110,23.608 109.384,23.832 108.888,24.28 C108.392,24.728 108.101333,25.3146667 108.016,26.04 L113.456,26.04 C113.370667,25.3253333 113.08,24.7413333 112.584,24.288 C112.088,23.8346667 111.472,23.608 110.736,23.608 Z" id="Shape"></path>
                    <path d="M119.488,30.968 C118.794667,30.968 118.128,30.8746667 117.488,30.688 C116.848,30.5013333 116.346667,30.264 115.984,29.976 L116.624,28.76 C116.997333,29.0266667 117.450667,29.24 117.984,29.4 C118.517333,29.56 119.056,29.64 119.6,29.64 C120.944,29.64 121.616,29.256 121.616,28.488 C121.616,28.232 121.525333,28.0293333 121.344,27.88 C121.162667,27.7306667 120.936,27.6213333 120.664,27.552 C120.392,27.4826667 120.005333,27.4053333 119.504,27.32 C118.821333,27.2133333 118.264,27.0906667 117.832,26.952 C117.4,26.8133333 117.029333,26.5786667 116.72,26.248 C116.410667,25.9173333 116.256,25.4533333 116.256,24.856 C116.256,24.088 116.576,23.472 117.216,23.008 C117.856,22.544 118.714667,22.312 119.792,22.312 C120.357333,22.312 120.922667,22.3813333 121.488,22.52 C122.053333,22.6586667 122.517333,22.8453333 122.88,23.08 L122.224,24.296 C121.530667,23.848 120.714667,23.624 119.776,23.624 C119.125333,23.624 118.629333,23.7306667 118.288,23.944 C117.946667,24.1573333 117.776,24.44 117.776,24.792 C117.776,25.0693333 117.872,25.288 118.064,25.448 C118.256,25.608 118.493333,25.7253333 118.776,25.8 C119.058667,25.8746667 119.456,25.96 119.968,26.056 C120.650667,26.1733333 121.202667,26.2986667 121.624,26.432 C122.045333,26.5653333 122.405333,26.792 122.704,27.112 C123.002667,27.432 123.152,27.88 123.152,28.456 C123.152,29.224 122.824,29.8346667 122.168,30.288 C121.512,30.7413333 120.618667,30.968 119.488,30.968 Z" id="Path"></path>
                </g>
                <g id="Interactions" transform="translate(282.960000, 331.888000)" fill="#FFFFFF" fill-rule="nonzero">
                    <polygon id="Path" points="0 0.912 1.6 0.912 1.6 12.112 0 12.112"></polygon>
                    <path d="M9.264,3.552 C10.3413333,3.552 11.1973333,3.864 11.832,4.488 C12.4666667,5.112 12.784,6.02666667 12.784,7.232 L12.784,12.112 L11.248,12.112 L11.248,7.408 C11.248,6.58666667 11.0506667,5.968 10.656,5.552 C10.2613333,5.136 9.696,4.928 8.96,4.928 C8.128,4.928 7.472,5.17066667 6.992,5.656 C6.512,6.14133333 6.272,6.83733333 6.272,7.744 L6.272,12.112 L4.736,12.112 L4.736,3.632 L6.208,3.632 L6.208,4.912 C6.51733333,4.47466667 6.936,4.13866667 7.464,3.904 C7.992,3.66933333 8.592,3.552 9.264,3.552 Z" id="Path"></path>
                    <path d="M20.4,11.616 C20.176,11.808 19.8986667,11.9546667 19.568,12.056 C19.2373333,12.1573333 18.896,12.208 18.544,12.208 C17.6906667,12.208 17.0293333,11.9786667 16.56,11.52 C16.0906667,11.0613333 15.856,10.4053333 15.856,9.552 L15.856,4.896 L14.416,4.896 L14.416,3.632 L15.856,3.632 L15.856,1.776 L17.392,1.776 L17.392,3.632 L19.824,3.632 L19.824,4.896 L17.392,4.896 L17.392,9.488 C17.392,9.94666667 17.5066667,10.2986667 17.736,10.544 C17.9653333,10.7893333 18.2933333,10.912 18.72,10.912 C19.1893333,10.912 19.5893333,10.7786667 19.92,10.512 L20.4,11.616 Z" id="Path"></path>
                    <path d="M29.632,7.92 C29.632,8.03733333 29.6213333,8.192 29.6,8.384 L22.72,8.384 C22.816,9.13066667 23.144,9.73066667 23.704,10.184 C24.264,10.6373333 24.96,10.864 25.792,10.864 C26.8053333,10.864 27.6213333,10.5226667 28.24,9.84 L29.088,10.832 C28.704,11.28 28.2266667,11.6213333 27.656,11.856 C27.0853333,12.0906667 26.448,12.208 25.744,12.208 C24.848,12.208 24.0533333,12.024 23.36,11.656 C22.6666667,11.288 22.1306667,10.7733333 21.752,10.112 C21.3733333,9.45066667 21.184,8.704 21.184,7.872 C21.184,7.05066667 21.368,6.30933333 21.736,5.648 C22.104,4.98666667 22.6106667,4.472 23.256,4.104 C23.9013333,3.736 24.6293333,3.552 25.44,3.552 C26.2506667,3.552 26.9733333,3.736 27.608,4.104 C28.2426667,4.472 28.7386667,4.98666667 29.096,5.648 C29.4533333,6.30933333 29.632,7.06666667 29.632,7.92 Z M25.44,4.848 C24.704,4.848 24.088,5.072 23.592,5.52 C23.096,5.968 22.8053333,6.55466667 22.72,7.28 L28.16,7.28 C28.0746667,6.56533333 27.784,5.98133333 27.288,5.528 C26.792,5.07466667 26.176,4.848 25.44,4.848 Z" id="Shape"></path>
                    <path d="M33.232,5.056 C33.4986667,4.56533333 33.8933333,4.192 34.416,3.936 C34.9386667,3.68 35.5733333,3.552 36.32,3.552 L36.32,5.04 C36.2346667,5.02933333 36.1173333,5.024 35.968,5.024 C35.136,5.024 34.4826667,5.272 34.008,5.768 C33.5333333,6.264 33.296,6.97066667 33.296,7.888 L33.296,12.112 L31.76,12.112 L31.76,3.632 L33.232,3.632 L33.232,5.056 Z" id="Path"></path>
                    <path d="M41.28,3.552 C42.4533333,3.552 43.352,3.84 43.976,4.416 C44.6,4.992 44.912,5.85066667 44.912,6.992 L44.912,12.112 L43.456,12.112 L43.456,10.992 C43.2,11.3866667 42.8346667,11.688 42.36,11.896 C41.8853333,12.104 41.3226667,12.208 40.672,12.208 C39.7226667,12.208 38.9626667,11.9786667 38.392,11.52 C37.8213333,11.0613333 37.536,10.4586667 37.536,9.712 C37.536,8.96533333 37.808,8.36533333 38.352,7.912 C38.896,7.45866667 39.76,7.232 40.944,7.232 L43.376,7.232 L43.376,6.928 C43.376,6.26666667 43.184,5.76 42.8,5.408 C42.416,5.056 41.8506667,4.88 41.104,4.88 C40.6026667,4.88 40.112,4.96266667 39.632,5.128 C39.152,5.29333333 38.7466667,5.51466667 38.416,5.792 L37.776,4.64 C38.2133333,4.288 38.736,4.01866667 39.344,3.832 C39.952,3.64533333 40.5973333,3.552 41.28,3.552 Z M40.928,11.024 C41.5146667,11.024 42.0213333,10.8933333 42.448,10.632 C42.8746667,10.3706667 43.184,10 43.376,9.52 L43.376,8.336 L41.008,8.336 C39.7066667,8.336 39.056,8.77333333 39.056,9.648 C39.056,10.0746667 39.2213333,10.4106667 39.552,10.656 C39.8826667,10.9013333 40.3413333,11.024 40.928,11.024 Z" id="Shape"></path>
                    <path d="M51.504,12.208 C50.64,12.208 49.8693333,12.0213333 49.192,11.648 C48.5146667,11.2746667 47.984,10.76 47.6,10.104 C47.216,9.448 47.024,8.704 47.024,7.872 C47.024,7.04 47.216,6.296 47.6,5.64 C47.984,4.984 48.5146667,4.472 49.192,4.104 C49.8693333,3.736 50.64,3.552 51.504,3.552 C52.272,3.552 52.9573333,3.70666667 53.56,4.016 C54.1626667,4.32533333 54.6293333,4.77333333 54.96,5.36 L53.792,6.112 C53.5253333,5.70666667 53.1946667,5.40266667 52.8,5.2 C52.4053333,4.99733333 51.968,4.896 51.488,4.896 C50.9333333,4.896 50.4346667,5.01866667 49.992,5.264 C49.5493333,5.50933333 49.2026667,5.85866667 48.952,6.312 C48.7013333,6.76533333 48.576,7.28533333 48.576,7.872 C48.576,8.46933333 48.7013333,8.99466667 48.952,9.448 C49.2026667,9.90133333 49.5493333,10.2506667 49.992,10.496 C50.4346667,10.7413333 50.9333333,10.864 51.488,10.864 C51.968,10.864 52.4053333,10.7626667 52.8,10.56 C53.1946667,10.3573333 53.5253333,10.0533333 53.792,9.648 L54.96,10.384 C54.6293333,10.9706667 54.1626667,11.4213333 53.56,11.736 C52.9573333,12.0506667 52.272,12.208 51.504,12.208 Z" id="Path"></path>
                    <path d="M61.824,11.616 C61.6,11.808 61.3226667,11.9546667 60.992,12.056 C60.6613333,12.1573333 60.32,12.208 59.968,12.208 C59.1146667,12.208 58.4533333,11.9786667 57.984,11.52 C57.5146667,11.0613333 57.28,10.4053333 57.28,9.552 L57.28,4.896 L55.84,4.896 L55.84,3.632 L57.28,3.632 L57.28,1.776 L58.816,1.776 L58.816,3.632 L61.248,3.632 L61.248,4.896 L58.816,4.896 L58.816,9.488 C58.816,9.94666667 58.9306667,10.2986667 59.16,10.544 C59.3893333,10.7893333 59.7173333,10.912 60.144,10.912 C60.6133333,10.912 61.0133333,10.7786667 61.344,10.512 L61.824,11.616 Z" id="Path"></path>
                    <path d="M63.68,3.632 L65.216,3.632 L65.216,12.112 L63.68,12.112 L63.68,3.632 Z M64.448,2 C64.1493333,2 63.9013333,1.904 63.704,1.712 C63.5066667,1.52 63.408,1.28533333 63.408,1.008 C63.408,0.730666667 63.5066667,0.493333333 63.704,0.296 C63.9013333,0.0986666667 64.1493333,1.8189894e-12 64.448,1.8189894e-12 C64.7466667,1.8189894e-12 64.9946667,0.0933333333 65.192,0.28 C65.3893333,0.466666667 65.488,0.698666667 65.488,0.976 C65.488,1.264 65.3893333,1.50666667 65.192,1.704 C64.9946667,1.90133333 64.7466667,2 64.448,2 Z" id="Shape"></path>
                    <path d="M71.776,12.208 C70.9333333,12.208 70.176,12.0213333 69.504,11.648 C68.832,11.2746667 68.3066667,10.76 67.928,10.104 C67.5493333,9.448 67.36,8.704 67.36,7.872 C67.36,7.04 67.5493333,6.296 67.928,5.64 C68.3066667,4.984 68.832,4.472 69.504,4.104 C70.176,3.736 70.9333333,3.552 71.776,3.552 C72.6186667,3.552 73.3733333,3.736 74.04,4.104 C74.7066667,4.472 75.2293333,4.984 75.608,5.64 C75.9866667,6.296 76.176,7.04 76.176,7.872 C76.176,8.704 75.9866667,9.448 75.608,10.104 C75.2293333,10.76 74.7066667,11.2746667 74.04,11.648 C73.3733333,12.0213333 72.6186667,12.208 71.776,12.208 Z M71.776,10.864 C72.32,10.864 72.808,10.7386667 73.24,10.488 C73.672,10.2373333 74.0106667,9.88533333 74.256,9.432 C74.5013333,8.97866667 74.624,8.45866667 74.624,7.872 C74.624,7.28533333 74.5013333,6.76533333 74.256,6.312 C74.0106667,5.85866667 73.672,5.50933333 73.24,5.264 C72.808,5.01866667 72.32,4.896 71.776,4.896 C71.232,4.896 70.744,5.01866667 70.312,5.264 C69.88,5.50933333 69.5386667,5.85866667 69.288,6.312 C69.0373333,6.76533333 68.912,7.28533333 68.912,7.872 C68.912,8.45866667 69.0373333,8.97866667 69.288,9.432 C69.5386667,9.88533333 69.88,10.2373333 70.312,10.488 C70.744,10.7386667 71.232,10.864 71.776,10.864 Z" id="Shape"></path>
                    <path d="M82.832,3.552 C83.9093333,3.552 84.7653333,3.864 85.4,4.488 C86.0346667,5.112 86.352,6.02666667 86.352,7.232 L86.352,12.112 L84.816,12.112 L84.816,7.408 C84.816,6.58666667 84.6186667,5.968 84.224,5.552 C83.8293333,5.136 83.264,4.928 82.528,4.928 C81.696,4.928 81.04,5.17066667 80.56,5.656 C80.08,6.14133333 79.84,6.83733333 79.84,7.744 L79.84,12.112 L78.304,12.112 L78.304,3.632 L79.776,3.632 L79.776,4.912 C80.0853333,4.47466667 80.504,4.13866667 81.032,3.904 C81.56,3.66933333 82.16,3.552 82.832,3.552 Z" id="Path"></path>
                    <path d="M91.632,12.208 C90.9386667,12.208 90.272,12.1146667 89.632,11.928 C88.992,11.7413333 88.4906667,11.504 88.128,11.216 L88.768,10 C89.1413333,10.2666667 89.5946667,10.48 90.128,10.64 C90.6613333,10.8 91.2,10.88 91.744,10.88 C93.088,10.88 93.76,10.496 93.76,9.728 C93.76,9.472 93.6693333,9.26933333 93.488,9.12 C93.3066667,8.97066667 93.08,8.86133333 92.808,8.792 C92.536,8.72266667 92.1493333,8.64533333 91.648,8.56 C90.9653333,8.45333333 90.408,8.33066667 89.976,8.192 C89.544,8.05333333 89.1733333,7.81866667 88.864,7.488 C88.5546667,7.15733333 88.4,6.69333333 88.4,6.096 C88.4,5.328 88.72,4.712 89.36,4.248 C90,3.784 90.8586667,3.552 91.936,3.552 C92.5013333,3.552 93.0666667,3.62133333 93.632,3.76 C94.1973333,3.89866667 94.6613333,4.08533333 95.024,4.32 L94.368,5.536 C93.6746667,5.088 92.8586667,4.864 91.92,4.864 C91.2693333,4.864 90.7733333,4.97066667 90.432,5.184 C90.0906667,5.39733333 89.92,5.68 89.92,6.032 C89.92,6.30933333 90.016,6.528 90.208,6.688 C90.4,6.848 90.6373333,6.96533333 90.92,7.04 C91.2026667,7.11466667 91.6,7.2 92.112,7.296 C92.7946667,7.41333333 93.3466667,7.53866667 93.768,7.672 C94.1893333,7.80533333 94.5493333,8.032 94.848,8.352 C95.1466667,8.672 95.296,9.12 95.296,9.696 C95.296,10.464 94.968,11.0746667 94.312,11.528 C93.656,11.9813333 92.7626667,12.208 91.632,12.208 Z" id="Path"></path>
                </g>
                <g id="Analytics" transform="translate(520.952000, 331.888000)" fill="#FFFFFF" fill-rule="nonzero">
                    <path d="M8.832,9.312 L2.88,9.312 L1.648,12.112 L0,12.112 L5.072,0.912 L6.656,0.912 L11.744,12.112 L10.064,12.112 L8.832,9.312 Z M8.272,8.032 L5.856,2.544 L3.44,8.032 L8.272,8.032 Z" id="Shape"></path>
                    <path d="M17.712,3.552 C18.7893333,3.552 19.6453333,3.864 20.28,4.488 C20.9146667,5.112 21.232,6.02666667 21.232,7.232 L21.232,12.112 L19.696,12.112 L19.696,7.408 C19.696,6.58666667 19.4986667,5.968 19.104,5.552 C18.7093333,5.136 18.144,4.928 17.408,4.928 C16.576,4.928 15.92,5.17066667 15.44,5.656 C14.96,6.14133333 14.72,6.83733333 14.72,7.744 L14.72,12.112 L13.184,12.112 L13.184,3.632 L14.656,3.632 L14.656,4.912 C14.9653333,4.47466667 15.384,4.13866667 15.912,3.904 C16.44,3.66933333 17.04,3.552 17.712,3.552 Z" id="Path"></path>
                    <path d="M27.168,3.552 C28.3413333,3.552 29.24,3.84 29.864,4.416 C30.488,4.992 30.8,5.85066667 30.8,6.992 L30.8,12.112 L29.344,12.112 L29.344,10.992 C29.088,11.3866667 28.7226667,11.688 28.248,11.896 C27.7733333,12.104 27.2106667,12.208 26.56,12.208 C25.6106667,12.208 24.8506667,11.9786667 24.28,11.52 C23.7093333,11.0613333 23.424,10.4586667 23.424,9.712 C23.424,8.96533333 23.696,8.36533333 24.24,7.912 C24.784,7.45866667 25.648,7.232 26.832,7.232 L29.264,7.232 L29.264,6.928 C29.264,6.26666667 29.072,5.76 28.688,5.408 C28.304,5.056 27.7386667,4.88 26.992,4.88 C26.4906667,4.88 26,4.96266667 25.52,5.128 C25.04,5.29333333 24.6346667,5.51466667 24.304,5.792 L23.664,4.64 C24.1013333,4.288 24.624,4.01866667 25.232,3.832 C25.84,3.64533333 26.4853333,3.552 27.168,3.552 Z M26.816,11.024 C27.4026667,11.024 27.9093333,10.8933333 28.336,10.632 C28.7626667,10.3706667 29.072,10 29.264,9.52 L29.264,8.336 L26.896,8.336 C25.5946667,8.336 24.944,8.77333333 24.944,9.648 C24.944,10.0746667 25.1093333,10.4106667 25.44,10.656 C25.7706667,10.9013333 26.2293333,11.024 26.816,11.024 Z" id="Shape"></path>
                    <polygon id="Path" points="33.648 0.24 35.184 0.24 35.184 12.112 33.648 12.112"></polygon>
                    <path d="M45.616,3.632 L41.504,12.96 C41.1413333,13.824 40.7173333,14.432 40.232,14.784 C39.7466667,15.136 39.1626667,15.312 38.48,15.312 C38.064,15.312 37.6613333,15.2453333 37.272,15.112 C36.8826667,14.9786667 36.56,14.784 36.304,14.528 L36.96,13.376 C37.3973333,13.792 37.904,14 38.48,14 C38.8533333,14 39.1653333,13.9013333 39.416,13.704 C39.6666667,13.5066667 39.8933333,13.168 40.096,12.688 L40.368,12.096 L36.624,3.632 L38.224,3.632 L41.184,10.416 L44.112,3.632 L45.616,3.632 Z" id="Path"></path>
                    <path d="M52.064,11.616 C51.84,11.808 51.5626667,11.9546667 51.232,12.056 C50.9013333,12.1573333 50.56,12.208 50.208,12.208 C49.3546667,12.208 48.6933333,11.9786667 48.224,11.52 C47.7546667,11.0613333 47.52,10.4053333 47.52,9.552 L47.52,4.896 L46.08,4.896 L46.08,3.632 L47.52,3.632 L47.52,1.776 L49.056,1.776 L49.056,3.632 L51.488,3.632 L51.488,4.896 L49.056,4.896 L49.056,9.488 C49.056,9.94666667 49.1706667,10.2986667 49.4,10.544 C49.6293333,10.7893333 49.9573333,10.912 50.384,10.912 C50.8533333,10.912 51.2533333,10.7786667 51.584,10.512 L52.064,11.616 Z" id="Path"></path>
                    <path d="M53.92,3.632 L55.456,3.632 L55.456,12.112 L53.92,12.112 L53.92,3.632 Z M54.688,2 C54.3893333,2 54.1413333,1.904 53.944,1.712 C53.7466667,1.52 53.648,1.28533333 53.648,1.008 C53.648,0.730666667 53.7466667,0.493333333 53.944,0.296 C54.1413333,0.0986666667 54.3893333,0 54.688,0 C54.9866667,0 55.2346667,0.0933333333 55.432,0.28 C55.6293333,0.466666667 55.728,0.698666667 55.728,0.976 C55.728,1.264 55.6293333,1.50666667 55.432,1.704 C55.2346667,1.90133333 54.9866667,2 54.688,2 Z" id="Shape"></path>
                    <path d="M62.08,12.208 C61.216,12.208 60.4453333,12.0213333 59.768,11.648 C59.0906667,11.2746667 58.56,10.76 58.176,10.104 C57.792,9.448 57.6,8.704 57.6,7.872 C57.6,7.04 57.792,6.296 58.176,5.64 C58.56,4.984 59.0906667,4.472 59.768,4.104 C60.4453333,3.736 61.216,3.552 62.08,3.552 C62.848,3.552 63.5333333,3.70666667 64.136,4.016 C64.7386667,4.32533333 65.2053333,4.77333333 65.536,5.36 L64.368,6.112 C64.1013333,5.70666667 63.7706667,5.40266667 63.376,5.2 C62.9813333,4.99733333 62.544,4.896 62.064,4.896 C61.5093333,4.896 61.0106667,5.01866667 60.568,5.264 C60.1253333,5.50933333 59.7786667,5.85866667 59.528,6.312 C59.2773333,6.76533333 59.152,7.28533333 59.152,7.872 C59.152,8.46933333 59.2773333,8.99466667 59.528,9.448 C59.7786667,9.90133333 60.1253333,10.2506667 60.568,10.496 C61.0106667,10.7413333 61.5093333,10.864 62.064,10.864 C62.544,10.864 62.9813333,10.7626667 63.376,10.56 C63.7706667,10.3573333 64.1013333,10.0533333 64.368,9.648 L65.536,10.384 C65.2053333,10.9706667 64.7386667,11.4213333 64.136,11.736 C63.5333333,12.0506667 62.848,12.208 62.08,12.208 Z" id="Path"></path>
                    <path d="M69.952,12.208 C69.2586667,12.208 68.592,12.1146667 67.952,11.928 C67.312,11.7413333 66.8106667,11.504 66.448,11.216 L67.088,10 C67.4613333,10.2666667 67.9146667,10.48 68.448,10.64 C68.9813333,10.8 69.52,10.88 70.064,10.88 C71.408,10.88 72.08,10.496 72.08,9.728 C72.08,9.472 71.9893333,9.26933333 71.808,9.12 C71.6266667,8.97066667 71.4,8.86133333 71.128,8.792 C70.856,8.72266667 70.4693333,8.64533333 69.968,8.56 C69.2853333,8.45333333 68.728,8.33066667 68.296,8.192 C67.864,8.05333333 67.4933333,7.81866667 67.184,7.488 C66.8746667,7.15733333 66.72,6.69333333 66.72,6.096 C66.72,5.328 67.04,4.712 67.68,4.248 C68.32,3.784 69.1786667,3.552 70.256,3.552 C70.8213333,3.552 71.3866667,3.62133333 71.952,3.76 C72.5173333,3.89866667 72.9813333,4.08533333 73.344,4.32 L72.688,5.536 C71.9946667,5.088 71.1786667,4.864 70.24,4.864 C69.5893333,4.864 69.0933333,4.97066667 68.752,5.184 C68.4106667,5.39733333 68.24,5.68 68.24,6.032 C68.24,6.30933333 68.336,6.528 68.528,6.688 C68.72,6.848 68.9573333,6.96533333 69.24,7.04 C69.5226667,7.11466667 69.92,7.2 70.432,7.296 C71.1146667,7.41333333 71.6666667,7.53866667 72.088,7.672 C72.5093333,7.80533333 72.8693333,8.032 73.168,8.352 C73.4666667,8.672 73.616,9.12 73.616,9.696 C73.616,10.464 73.288,11.0746667 72.632,11.528 C71.976,11.9813333 71.0826667,12.208 69.952,12.208 Z" id="Path"></path>
                </g>
            </g>
            <circle id="Oval" stroke="#80C0A1" cx="101" cy="32" r="31.5"></circle>
            <circle id="Oval-Copy" stroke="#D44A6F" cx="330" cy="33" r="31.5"></circle>
            <circle id="Oval-Copy-2" stroke="#0086B2" cx="555" cy="33" r="31.5"></circle>
        </g>
        <g id="gridProduct" opacity="0.626521519" transform="translate(198.235407, 449.028383)">
            <rect id="Rectangle-Copy-13" fill="#E2E6E7" x="2.84217094e-14" y="0" width="119.131113" height="139.439637" rx="5"></rect>
            <rect id="Rectangle" fill="#FFFFFF" x="11.4982318" y="9.58552839" width="96.1346489" height="75.4331647" rx="4.26584808"></rect>
            <g id="faketitle" transform="translate(27.110353, 93.960053)" fill="#BBC3C6">
                <rect id="Rectangle-Copy-10" x="-3.55271368e-15" y="0" width="61.5904324" height="9.50724795" rx="4.26584808"></rect>
            </g>
            <g id="fakecart" transform="translate(9.890720, 112.012525)" fill="#BBC3C6">
                <rect id="Rectangle-Copy-10" x="0" y="0" width="96.0296984" height="17.8415833" rx="8.92079165"></rect>
            </g>
        </g>
        <g id="gridProduct" opacity="0.626521519" transform="translate(597.661709, 449.028383)">
            <rect id="Rectangle-Copy-13" fill="#E2E6E7" x="0" y="0" width="119.131113" height="139.439637" rx="5"></rect>
            <rect id="Rectangle" fill="#FFFFFF" x="11.4982318" y="9.58552839" width="96.1346489" height="75.4331647" rx="4.26584808"></rect>
            <g id="faketitle" transform="translate(27.110353, 93.960053)" fill="#BBC3C6">
                <rect id="Rectangle-Copy-10" x="-3.55271368e-15" y="0" width="61.5904324" height="9.50724795" rx="4.26584808"></rect>
            </g>
            <g id="fakecart" transform="translate(9.890720, 112.012525)" fill="#BBC3C6">
                <rect id="Rectangle-Copy-10" x="0" y="0" width="96.0296984" height="17.8415833" rx="8.92079165"></rect>
            </g>
        </g>
        <rect id="Rectangle" stroke="#000A0D" stroke-width="21.442545" x="10.807253" y="10.7787275" width="745.442545" height="445.442545" rx="7.212726"></rect>
    </g>
</svg>