<?xml version="1.0" encoding="UTF-8"?>
<svg width="766px" height="466px" viewBox="0 0 766 466" version="1.1" xmlns="http://www.w3.org/2000/svg" xmlns:xlink="http://www.w3.org/1999/xlink">
    <title>5_facets_filters</title>
    <g id="5_facets_filters" stroke="none" stroke-width="1" fill="none" fill-rule="evenodd">
        <rect fill="#FFFFFF" x="0" y="0" width="766" height="466"></rect>
        <g id="gridProduct" opacity="0.626521519" transform="translate(286.130491, 222.220017)">
            <rect id="Rectangle-Copy-13" fill="#E2E6E7" x="0" y="0" width="78.6455902" height="92.0524646" rx="5"></rect>
            <rect id="Rectangle" fill="#FFFFFF" x="7.59067224" y="6.32798201" width="63.4642457" height="49.7979548" rx="4.26584808"></rect>
            <g id="faketitle" transform="translate(17.897170, 62.028664)" fill="#BBC3C6">
                <rect id="Rectangle-Copy-10" x="-3.55271368e-15" y="0" width="40.6595372" height="6.2763044" rx="3.1381522"></rect>
            </g>
            <g id="fakecart" transform="translate(6.529457, 73.946184)" fill="#BBC3C6">
                <rect id="Rectangle-Copy-10" x="0" y="0" width="63.3949616" height="11.7782989" rx="5.88914944"></rect>
            </g>
        </g>
        <g id="gridProduct" opacity="0.626521519" transform="translate(198.235407, 222.220017)">
            <rect id="Rectangle-Copy-13" fill="#E2E6E7" x="0" y="0" width="78.6455902" height="92.0524646" rx="5"></rect>
            <rect id="Rectangle" fill="#FFFFFF" x="7.59067224" y="6.32798201" width="63.4642457" height="49.7979548" rx="4.26584808"></rect>
            <g id="faketitle" transform="translate(17.897170, 62.028664)" fill="#BBC3C6">
                <rect id="Rectangle-Copy-10" x="-3.55271368e-15" y="0" width="40.6595372" height="6.2763044" rx="3.1381522"></rect>
            </g>
            <g id="fakecart" transform="translate(6.529457, 73.946184)" fill="#BBC3C6">
                <rect id="Rectangle-Copy-10" x="0" y="0" width="63.3949616" height="11.7782989" rx="5.88914944"></rect>
            </g>
        </g>
        <g id="gridProduct" opacity="0.626521519" transform="translate(374.025574, 222.220017)">
            <rect id="Rectangle-Copy-13" fill="#E2E6E7" x="0" y="0" width="78.6455902" height="92.0524646" rx="5"></rect>
            <rect id="Rectangle" fill="#FFFFFF" x="7.59067224" y="6.32798201" width="63.4642457" height="49.7979548" rx="4.26584808"></rect>
            <g id="faketitle" transform="translate(17.897170, 62.028664)" fill="#BBC3C6">
                <rect id="Rectangle-Copy-10" x="-3.55271368e-15" y="0" width="40.6595372" height="6.2763044" rx="3.1381522"></rect>
            </g>
            <g id="fakecart" transform="translate(6.529457, 73.946184)" fill="#BBC3C6">
                <rect id="Rectangle-Copy-10" x="0" y="0" width="63.3949616" height="11.7782989" rx="5.88914944"></rect>
            </g>
        </g>
        <g id="gridProduct" opacity="0.626521519" transform="translate(461.920658, 222.220017)">
            <rect id="Rectangle-Copy-13" fill="#E2E6E7" x="0" y="0" width="78.6455902" height="92.0524646" rx="5"></rect>
            <rect id="Rectangle" fill="#FFFFFF" x="7.59067224" y="6.32798201" width="63.4642457" height="49.7979548" rx="4.26584808"></rect>
            <g id="faketitle" transform="translate(17.897170, 62.028664)" fill="#BBC3C6">
                <rect id="Rectangle-Copy-10" x="-3.55271368e-15" y="0" width="40.6595372" height="6.2763044" rx="3.1381522"></rect>
            </g>
            <g id="fakecart" transform="translate(6.529457, 73.946184)" fill="#BBC3C6">
                <rect id="Rectangle-Copy-10" x="0" y="0" width="63.3949616" height="11.7782989" rx="5.88914944"></rect>
            </g>
        </g>
        <g id="gridProduct" opacity="0.626521519" transform="translate(549.815741, 222.220017)">
            <rect id="Rectangle-Copy-13" fill="#E2E6E7" x="0" y="0" width="78.6455902" height="92.0524646" rx="5"></rect>
            <rect id="Rectangle" fill="#FFFFFF" x="7.59067224" y="6.32798201" width="63.4642457" height="49.7979548" rx="4.26584808"></rect>
            <g id="faketitle" transform="translate(17.897170, 62.028664)" fill="#BBC3C6">
                <rect id="Rectangle-Copy-10" x="-3.55271368e-15" y="0" width="40.6595372" height="6.2763044" rx="3.1381522"></rect>
            </g>
            <g id="fakecart" transform="translate(6.529457, 73.946184)" fill="#BBC3C6">
                <rect id="Rectangle-Copy-10" x="0" y="0" width="63.3949616" height="11.7782989" rx="5.88914944"></rect>
            </g>
        </g>
        <g id="gridProduct" opacity="0.626521519" transform="translate(637.710825, 222.220017)">
            <rect id="Rectangle-Copy-13" fill="#E2E6E7" x="0" y="0" width="78.6455902" height="92.0524646" rx="5"></rect>
            <rect id="Rectangle" fill="#FFFFFF" x="7.59067224" y="6.32798201" width="63.4642457" height="49.7979548" rx="4.26584808"></rect>
            <g id="faketitle" transform="translate(17.897170, 62.028664)" fill="#BBC3C6">
                <rect id="Rectangle-Copy-10" x="-3.55271368e-15" y="0" width="40.6595372" height="6.2763044" rx="3.1381522"></rect>
            </g>
            <g id="fakecart" transform="translate(6.529457, 73.946184)" fill="#BBC3C6">
                <rect id="Rectangle-Copy-10" x="0" y="0" width="63.3949616" height="11.7782989" rx="5.88914944"></rect>
            </g>
        </g>
        <g id="gridProduct" opacity="0.626521519" transform="translate(286.130491, 110.468019)">
            <rect id="Rectangle-Copy-13" fill="#E2E6E7" x="0" y="0" width="78.6455902" height="92.0524646" rx="5"></rect>
            <rect id="Rectangle" fill="#FFFFFF" x="7.59067224" y="6.32798201" width="63.4642457" height="49.7979548" rx="4.26584808"></rect>
            <g id="faketitle" transform="translate(17.897170, 62.028664)" fill="#BBC3C6">
                <rect id="Rectangle-Copy-10" x="-3.55271368e-15" y="0" width="40.6595372" height="6.2763044" rx="3.1381522"></rect>
            </g>
            <g id="fakecart" transform="translate(6.529457, 73.946184)" fill="#BBC3C6">
                <rect id="Rectangle-Copy-10" x="0" y="0" width="63.3949616" height="11.7782989" rx="5.88914944"></rect>
            </g>
        </g>
        <g id="gridProduct" opacity="0.626521519" transform="translate(198.235407, 110.468019)">
            <rect id="Rectangle-Copy-13" fill="#E2E6E7" x="0" y="0" width="78.6455902" height="92.0524646" rx="5"></rect>
            <rect id="Rectangle" fill="#FFFFFF" x="7.59067224" y="6.32798201" width="63.4642457" height="49.7979548" rx="4.26584808"></rect>
            <g id="faketitle" transform="translate(17.897170, 62.028664)" fill="#BBC3C6">
                <rect id="Rectangle-Copy-10" x="-3.55271368e-15" y="0" width="40.6595372" height="6.2763044" rx="3.1381522"></rect>
            </g>
            <g id="fakecart" transform="translate(6.529457, 73.946184)" fill="#BBC3C6">
                <rect id="Rectangle-Copy-10" x="0" y="0" width="63.3949616" height="11.7782989" rx="5.88914944"></rect>
            </g>
        </g>
        <g id="gridProduct" opacity="0.626521519" transform="translate(374.025574, 110.468019)">
            <rect id="Rectangle-Copy-13" fill="#E2E6E7" x="0" y="0" width="78.6455902" height="92.0524646" rx="5"></rect>
            <rect id="Rectangle" fill="#FFFFFF" x="7.59067224" y="6.32798201" width="63.4642457" height="49.7979548" rx="4.26584808"></rect>
            <g id="faketitle" transform="translate(17.897170, 62.028664)" fill="#BBC3C6">
                <rect id="Rectangle-Copy-10" x="-3.55271368e-15" y="0" width="40.6595372" height="6.2763044" rx="3.1381522"></rect>
            </g>
            <g id="fakecart" transform="translate(6.529457, 73.946184)" fill="#BBC3C6">
                <rect id="Rectangle-Copy-10" x="0" y="0" width="63.3949616" height="11.7782989" rx="5.88914944"></rect>
            </g>
        </g>
        <g id="gridProduct" opacity="0.626521519" transform="translate(461.920658, 110.468019)">
            <rect id="Rectangle-Copy-13" fill="#E2E6E7" x="0" y="0" width="78.6455902" height="92.0524646" rx="5"></rect>
            <rect id="Rectangle" fill="#FFFFFF" x="7.59067224" y="6.32798201" width="63.4642457" height="49.7979548" rx="4.26584808"></rect>
            <g id="faketitle" transform="translate(17.897170, 62.028664)" fill="#BBC3C6">
                <rect id="Rectangle-Copy-10" x="-3.55271368e-15" y="0" width="40.6595372" height="6.2763044" rx="3.1381522"></rect>
            </g>
            <g id="fakecart" transform="translate(6.529457, 73.946184)" fill="#BBC3C6">
                <rect id="Rectangle-Copy-10" x="0" y="0" width="63.3949616" height="11.7782989" rx="5.88914944"></rect>
            </g>
        </g>
        <g id="gridProduct" opacity="0.626521519" transform="translate(549.815741, 110.468019)">
            <rect id="Rectangle-Copy-13" fill="#E2E6E7" x="0" y="0" width="78.6455902" height="92.0524646" rx="5"></rect>
            <rect id="Rectangle" fill="#FFFFFF" x="7.59067224" y="6.32798201" width="63.4642457" height="49.7979548" rx="4.26584808"></rect>
            <g id="faketitle" transform="translate(17.897170, 62.028664)" fill="#BBC3C6">
                <rect id="Rectangle-Copy-10" x="-3.55271368e-15" y="0" width="40.6595372" height="6.2763044" rx="3.1381522"></rect>
            </g>
            <g id="fakecart" transform="translate(6.529457, 73.946184)" fill="#BBC3C6">
                <rect id="Rectangle-Copy-10" x="0" y="0" width="63.3949616" height="11.7782989" rx="5.88914944"></rect>
            </g>
        </g>
        <g id="gridProduct" opacity="0.626521519" transform="translate(637.710825, 110.468019)">
            <rect id="Rectangle-Copy-13" fill="#E2E6E7" x="0" y="0" width="78.6455902" height="92.0524646" rx="5"></rect>
            <rect id="Rectangle" fill="#FFFFFF" x="7.59067224" y="6.32798201" width="63.4642457" height="49.7979548" rx="4.26584808"></rect>
            <g id="faketitle" transform="translate(17.897170, 62.028664)" fill="#BBC3C6">
                <rect id="Rectangle-Copy-10" x="-3.55271368e-15" y="0" width="40.6595372" height="6.2763044" rx="3.1381522"></rect>
            </g>
            <g id="fakecart" transform="translate(6.529457, 73.946184)" fill="#BBC3C6">
                <rect id="Rectangle-Copy-10" x="0" y="0" width="63.3949616" height="11.7782989" rx="5.88914944"></rect>
            </g>
        </g>
        <g id="gridProduct" opacity="0.626521519" transform="translate(286.130491, 333.972015)">
            <rect id="Rectangle-Copy-13" fill="#E2E6E7" x="0" y="0" width="78.6455902" height="92.0524646" rx="5"></rect>
            <rect id="Rectangle" fill="#FFFFFF" x="7.59067224" y="6.32798201" width="63.4642457" height="49.7979548" rx="4.26584808"></rect>
            <g id="faketitle" transform="translate(17.897170, 62.028664)" fill="#BBC3C6">
                <rect id="Rectangle-Copy-10" x="-3.55271368e-15" y="0" width="40.6595372" height="6.2763044" rx="3.1381522"></rect>
            </g>
            <g id="fakecart" transform="translate(6.529457, 73.946184)" fill="#BBC3C6">
                <rect id="Rectangle-Copy-10" x="0" y="0" width="63.3949616" height="11.7782989" rx="5.88914944"></rect>
            </g>
        </g>
        <g id="gridProduct" opacity="0.626521519" transform="translate(198.235407, 333.972015)">
            <rect id="Rectangle-Copy-13" fill="#E2E6E7" x="0" y="0" width="78.6455902" height="92.0524646" rx="5"></rect>
            <rect id="Rectangle" fill="#FFFFFF" x="7.59067224" y="6.32798201" width="63.4642457" height="49.7979548" rx="4.26584808"></rect>
            <g id="faketitle" transform="translate(17.897170, 62.028664)" fill="#BBC3C6">
                <rect id="Rectangle-Copy-10" x="-3.55271368e-15" y="0" width="40.6595372" height="6.2763044" rx="3.1381522"></rect>
            </g>
            <g id="fakecart" transform="translate(6.529457, 73.946184)" fill="#BBC3C6">
                <rect id="Rectangle-Copy-10" x="0" y="0" width="63.3949616" height="11.7782989" rx="5.88914944"></rect>
            </g>
        </g>
        <g id="gridProduct" opacity="0.626521519" transform="translate(374.025574, 333.972015)">
            <rect id="Rectangle-Copy-13" fill="#E2E6E7" x="0" y="0" width="78.6455902" height="92.0524646" rx="5"></rect>
            <rect id="Rectangle" fill="#FFFFFF" x="7.59067224" y="6.32798201" width="63.4642457" height="49.7979548" rx="4.26584808"></rect>
            <g id="faketitle" transform="translate(17.897170, 62.028664)" fill="#BBC3C6">
                <rect id="Rectangle-Copy-10" x="-3.55271368e-15" y="0" width="40.6595372" height="6.2763044" rx="3.1381522"></rect>
            </g>
            <g id="fakecart" transform="translate(6.529457, 73.946184)" fill="#BBC3C6">
                <rect id="Rectangle-Copy-10" x="0" y="0" width="63.3949616" height="11.7782989" rx="5.88914944"></rect>
            </g>
        </g>
        <g id="gridProduct" opacity="0.626521519" transform="translate(461.920658, 333.972015)">
            <rect id="Rectangle-Copy-13" fill="#E2E6E7" x="0" y="0" width="78.6455902" height="92.0524646" rx="5"></rect>
            <rect id="Rectangle" fill="#FFFFFF" x="7.59067224" y="6.32798201" width="63.4642457" height="49.7979548" rx="4.26584808"></rect>
            <g id="faketitle" transform="translate(17.897170, 62.028664)" fill="#BBC3C6">
                <rect id="Rectangle-Copy-10" x="-3.55271368e-15" y="0" width="40.6595372" height="6.2763044" rx="3.1381522"></rect>
            </g>
            <g id="fakecart" transform="translate(6.529457, 73.946184)" fill="#BBC3C6">
                <rect id="Rectangle-Copy-10" x="0" y="0" width="63.3949616" height="11.7782989" rx="5.88914944"></rect>
            </g>
        </g>
        <g id="gridProduct" opacity="0.626521519" transform="translate(549.815741, 333.972015)">
            <rect id="Rectangle-Copy-13" fill="#E2E6E7" x="0" y="0" width="78.6455902" height="92.0524646" rx="5"></rect>
            <rect id="Rectangle" fill="#FFFFFF" x="7.59067224" y="6.32798201" width="63.4642457" height="49.7979548" rx="4.26584808"></rect>
            <g id="faketitle" transform="translate(17.897170, 62.028664)" fill="#BBC3C6">
                <rect id="Rectangle-Copy-10" x="-3.55271368e-15" y="0" width="40.6595372" height="6.2763044" rx="3.1381522"></rect>
            </g>
            <g id="fakecart" transform="translate(6.529457, 73.946184)" fill="#BBC3C6">
                <rect id="Rectangle-Copy-10" x="0" y="0" width="63.3949616" height="11.7782989" rx="5.88914944"></rect>
            </g>
        </g>
        <g id="gridProduct" opacity="0.626521519" transform="translate(637.710825, 333.972015)">
            <rect id="Rectangle-Copy-13" fill="#E2E6E7" x="0" y="0" width="78.6455902" height="92.0524646" rx="5"></rect>
            <rect id="Rectangle" fill="#FFFFFF" x="7.59067224" y="6.32798201" width="63.4642457" height="49.7979548" rx="4.26584808"></rect>
            <g id="faketitle" transform="translate(17.897170, 62.028664)" fill="#BBC3C6">
                <rect id="Rectangle-Copy-10" x="-3.55271368e-15" y="0" width="40.6595372" height="6.2763044" rx="3.1381522"></rect>
            </g>
            <g id="fakecart" transform="translate(6.529457, 73.946184)" fill="#BBC3C6">
                <rect id="Rectangle-Copy-10" x="0" y="0" width="63.3949616" height="11.7782989" rx="5.88914944"></rect>
            </g>
        </g>
        <rect id="Rectangle" stroke="#D3D3D3" fill="#FFFFFF" x="200.340591" y="42" width="515.516607" height="23.5" rx="11.75"></rect>
        <g id="Group" transform="translate(697.180917, 48.586933)" stroke="#D3D3D3">
            <circle id="Oval" fill="#FFFFFF" cx="4.78029079" cy="4.78029079" r="4.28029079"></circle>
            <line x1="8.29332654" y1="7.81681274" x2="11.0576172" y2="10.5811034" id="Path-21" stroke-linecap="round"></line>
        </g>
        <rect id="Rectangle" fill="#BBC3C6" x="209.826901" y="48.5869335" width="55.2708174" height="10.5811034" rx="3"></rect>
        <path d="M737.3158,9.7787275 C742.268136,9.7787275 746.751636,11.7860587 749.997051,15.031474 C753.242467,18.2768894 755.249798,22.7603891 755.249798,27.712726 L755.249798,27.712726 L755.249798,437.287274 C755.249798,442.239611 753.242467,446.723111 749.997051,449.968526 C746.751636,453.213941 742.268136,455.221273 737.3158,455.221272 L737.3158,455.221272 L27.7412515,455.221272 C22.7889146,455.221273 18.305415,453.213941 15.0599996,449.968526 C11.8145842,446.723111 9.80725303,442.239611 9.80725303,437.287274 L9.80725303,437.287274 L9.80725303,27.712726 C9.80725303,22.7603891 11.8145842,18.2768894 15.0599996,15.031474 C18.305415,11.7860587 22.7889146,9.7787275 27.7412515,9.7787275 L27.7412515,9.7787275 Z" id="Rectangle" stroke="#202020" stroke-width="21.442545"></path>
        <rect id="Rectangle" fill="#243C47" x="40" y="40.75" width="144" height="26" rx="13"></rect>
        <g id="Group-5" transform="translate(40.000000, 178.200000)">
            <g id="Group-2">
                <rect id="Rectangle" fill="#BBC3C6" x="0" y="0" width="136" height="16" rx="3"></rect>
                <rect id="Rectangle" fill="#BBC3C6" x="19" y="24" width="89" height="11" rx="2"></rect>
                <rect id="Rectangle-Copy-3" fill="#80C0A1" x="19" y="43" width="74" height="11" rx="2"></rect>
                <rect id="Rectangle-Copy-4" fill="#BBC3C6" x="19" y="62" width="102" height="11" rx="2"></rect>
            </g>
            <g id="Group-4" transform="translate(0.000000, 24.500000)">
                <g id="Group-2-Copy" transform="translate(19.000000, 56.500000)">
                    <rect id="Rectangle" fill="#BBC3C6" x="0" y="0" width="54" height="11" rx="2"></rect>
                    <rect id="Rectangle-Copy-3" fill="#53B9C9" x="19" y="19" width="68.5" height="11" rx="2"></rect>
                    <rect id="Rectangle-Copy-4" fill="#BBC3C6" x="19" y="38" width="74" height="11" rx="2"></rect>
                </g>
                <rect id="Rectangle" stroke="#BBC3C6" fill="#FFFFFF" x="0.5" y="57.5" width="10" height="10" rx="1"></rect>
                <rect id="Rectangle" stroke="#BBC3C6" fill="#FFFFFF" x="0.5" y="37.5" width="10" height="10" rx="1"></rect>
                <rect id="Rectangle" stroke="#BBC3C6" fill="#FFFFFF" x="0.5" y="0.5" width="10" height="10" rx="1"></rect>
                <rect id="Rectangle-Copy" stroke="#BBC3C6" fill="#1E3D49" x="19.5" y="76.5" width="10" height="10" rx="1"></rect>
                <rect id="Rectangle-Copy-2" stroke="#BBC3C6" fill="#FFFFFF" x="19.5" y="95.5" width="10" height="10" rx="1"></rect>
                <rect id="Rectangle-Copy-4" fill="#BBC3C6" x="38" y="114.5" width="74" height="11" rx="2"></rect>
                <rect id="Rectangle-Copy-2" stroke="#BBC3C6" fill="#FFFFFF" x="19.5" y="115.5" width="10" height="10" rx="1"></rect>
                <rect id="Rectangle-Copy-4" fill="#BBC3C6" x="57" y="134.5" width="74" height="11" rx="2"></rect>
                <rect id="Rectangle-Copy-2" stroke="#BBC3C6" fill="#FFFFFF" x="38.5" y="135.5" width="10" height="10" rx="1"></rect>
                <rect id="Rectangle-Copy-4" fill="#8B6391" x="57" y="154.5" width="74" height="11" rx="2"></rect>
                <rect id="Rectangle-Copy-2" stroke="#BBC3C6" fill="#1E3D49" x="38.5" y="155.5" width="10" height="10" rx="1"></rect>
                <rect id="Rectangle-Copy-4" fill="#BBC3C6" x="38" y="174.5" width="74" height="11" rx="2"></rect>
                <rect id="Rectangle-Copy-2" stroke="#BBC3C6" fill="#FFFFFF" x="19.5" y="175.5" width="10" height="10" rx="1"></rect>
                <rect id="Rectangle-Copy-4" fill="#BBC3C6" x="38" y="194.5" width="74" height="11" rx="2"></rect>
                <rect id="Rectangle-Copy-2" stroke="#BBC3C6" fill="#FFFFFF" x="19.5" y="195.5" width="10" height="10" rx="1"></rect>
            </g>
            <rect id="Rectangle-Copy" stroke="#BBC3C6" fill="#1E3D49" x="0.5" y="43.5" width="10" height="10" rx="1"></rect>
        </g>
        <g id="Group-3" transform="translate(40.000000, 111.500000)">
            <rect id="Rectangle" fill="#0086B2" x="0" y="0" width="99" height="16" rx="3"></rect>
            <rect id="Rectangle-Copy-5" stroke="#D3D3D3" fill="#FFFFFF" x="0.5" y="24.5" width="63.9621993" height="17.7" rx="8.85"></rect>
            <polyline id="Path-55" stroke="#D3D3D3" points="47.6701031 32 51.4089347 36 55.1477663 32"></polyline>
            <rect id="Rectangle-Copy-5" stroke="#D3D3D3" fill="#FFFFFF" x="71.5378007" y="24.5" width="63.9621993" height="17.7" rx="8.85"></rect>
            <polyline id="Path-55" stroke="#D3D3D3" points="118.707904 32 122.446735 36 126.185567 32"></polyline>
            <g id="From" transform="translate(9.646000, 30.550000)" fill="#0086B2" fill-rule="nonzero">
                <polygon id="Path" points="1.17 0.981 1.17 2.898 4.212 2.898 4.212 3.888 1.17 3.888 1.17 6.3 0 6.3 0 0 4.599 0 4.599 0.981"></polygon>
                <path d="M7.146,2.196 C7.47,1.692 8.04,1.44 8.856,1.44 L8.856,2.511 C8.76,2.493 8.673,2.484 8.595,2.484 C8.157,2.484 7.815,2.6115 7.569,2.8665 C7.323,3.1215 7.2,3.489 7.2,3.969 L7.2,6.3 L6.075,6.3 L6.075,1.494 L7.146,1.494 L7.146,2.196 Z" id="Path"></path>
                <path d="M12.465,6.363 C11.979,6.363 11.541,6.258 11.151,6.048 C10.761,5.838 10.4565,5.5455 10.2375,5.1705 C10.0185,4.7955 9.909,4.371 9.909,3.897 C9.909,3.423 10.0185,3 10.2375,2.628 C10.4565,2.256 10.761,1.965 11.151,1.755 C11.541,1.545 11.979,1.44 12.465,1.44 C12.957,1.44 13.398,1.545 13.788,1.755 C14.178,1.965 14.4825,2.256 14.7015,2.628 C14.9205,3 15.03,3.423 15.03,3.897 C15.03,4.371 14.9205,4.7955 14.7015,5.1705 C14.4825,5.5455 14.178,5.838 13.788,6.048 C13.398,6.258 12.957,6.363 12.465,6.363 Z M12.465,5.4 C12.879,5.4 13.221,5.262 13.491,4.986 C13.761,4.71 13.896,4.347 13.896,3.897 C13.896,3.447 13.761,3.084 13.491,2.808 C13.221,2.532 12.879,2.394 12.465,2.394 C12.051,2.394 11.7105,2.532 11.4435,2.808 C11.1765,3.084 11.043,3.447 11.043,3.897 C11.043,4.347 11.1765,4.71 11.4435,4.986 C11.7105,5.262 12.051,5.4 12.465,5.4 Z" id="Shape"></path>
                <path d="M22.716,1.44 C23.322,1.44 23.802,1.6155 24.156,1.9665 C24.51,2.3175 24.687,2.844 24.687,3.546 L24.687,6.3 L23.562,6.3 L23.562,3.69 C23.562,3.27 23.469,2.9535 23.283,2.7405 C23.097,2.5275 22.83,2.421 22.482,2.421 C22.104,2.421 21.801,2.5455 21.573,2.7945 C21.345,3.0435 21.231,3.399 21.231,3.861 L21.231,6.3 L20.106,6.3 L20.106,3.69 C20.106,3.27 20.013,2.9535 19.827,2.7405 C19.641,2.5275 19.374,2.421 19.026,2.421 C18.642,2.421 18.3375,2.544 18.1125,2.79 C17.8875,3.036 17.775,3.393 17.775,3.861 L17.775,6.3 L16.65,6.3 L16.65,1.494 L17.721,1.494 L17.721,2.106 C17.901,1.89 18.126,1.725 18.396,1.611 C18.666,1.497 18.966,1.44 19.296,1.44 C19.656,1.44 19.9755,1.5075 20.2545,1.6425 C20.5335,1.7775 20.754,1.977 20.916,2.241 C21.114,1.989 21.369,1.7925 21.681,1.6515 C21.993,1.5105 22.338,1.44 22.716,1.44 Z" id="Path"></path>
            </g>
            <g id="To" transform="translate(79.836000, 30.550000)" fill="#0086B2" fill-rule="nonzero">
                <polygon id="Path" points="2.088 0.99 0 0.99 0 0 5.346 0 5.346 0.99 3.258 0.99 3.258 6.3 2.088 6.3"></polygon>
                <path d="M8.325,6.363 C7.839,6.363 7.401,6.258 7.011,6.048 C6.621,5.838 6.3165,5.5455 6.0975,5.1705 C5.8785,4.7955 5.769,4.371 5.769,3.897 C5.769,3.423 5.8785,3 6.0975,2.628 C6.3165,2.256 6.621,1.965 7.011,1.755 C7.401,1.545 7.839,1.44 8.325,1.44 C8.817,1.44 9.258,1.545 9.648,1.755 C10.038,1.965 10.3425,2.256 10.5615,2.628 C10.7805,3 10.89,3.423 10.89,3.897 C10.89,4.371 10.7805,4.7955 10.5615,5.1705 C10.3425,5.5455 10.038,5.838 9.648,6.048 C9.258,6.258 8.817,6.363 8.325,6.363 Z M8.325,5.4 C8.739,5.4 9.081,5.262 9.351,4.986 C9.621,4.71 9.756,4.347 9.756,3.897 C9.756,3.447 9.621,3.084 9.351,2.808 C9.081,2.532 8.739,2.394 8.325,2.394 C7.911,2.394 7.5705,2.532 7.3035,2.808 C7.0365,3.084 6.903,3.447 6.903,3.897 C6.903,4.347 7.0365,4.71 7.3035,4.986 C7.5705,5.262 7.911,5.4 8.325,5.4 Z" id="Shape"></path>
            </g>
        </g>
    </g>
</svg>