<?xml version="1.0" encoding="UTF-8"?>
<svg width="766px" height="466px" viewBox="0 0 766 466" version="1.1" xmlns="http://www.w3.org/2000/svg" xmlns:xlink="http://www.w3.org/1999/xlink">
    <title>illustration/results/module/partI/Searchbox</title>
    <g id="illustration/results/module/partI/Searchbox" stroke="none" stroke-width="1" fill="none" fill-rule="evenodd">
        <rect fill="#FFFFFF" x="0" y="0" width="766" height="466"></rect>
        <g id="gridProduct" opacity="0.626521519" transform="translate(331.377508, 449.028383)">
            <rect id="Rectangle-Copy-13" fill="#E2E6E7" x="0" y="0" width="119.131113" height="139.439637" rx="5"></rect>
            <rect id="Rectangle" fill="#FFFFFF" x="11.4982318" y="9.58552839" width="96.1346489" height="75.4331647" rx="4.26584808"></rect>
            <g id="faketitle" transform="translate(27.110353, 93.960053)" fill="#BBC3C6">
                <rect id="Rectangle-Copy-10" x="-3.55271368e-15" y="0" width="61.5904324" height="9.50724795" rx="4.26584808"></rect>
            </g>
            <g id="fakecart" transform="translate(9.890720, 112.012525)" fill="#BBC3C6">
                <rect id="Rectangle-Copy-10" x="0" y="0" width="96.0296984" height="17.8415833" rx="8.92079165"></rect>
            </g>
        </g>
        <g id="gridProduct" opacity="0.626521519" transform="translate(198.235407, 449.028383)">
            <rect id="Rectangle-Copy-13" fill="#E2E6E7" x="2.84217094e-14" y="0" width="119.131113" height="139.439637" rx="5"></rect>
            <rect id="Rectangle" fill="#FFFFFF" x="11.4982318" y="9.58552839" width="96.1346489" height="75.4331647" rx="4.26584808"></rect>
            <g id="faketitle" transform="translate(27.110353, 93.960053)" fill="#BBC3C6">
                <rect id="Rectangle-Copy-10" x="-3.55271368e-15" y="0" width="61.5904324" height="9.50724795" rx="4.26584808"></rect>
            </g>
            <g id="fakecart" transform="translate(9.890720, 112.012525)" fill="#BBC3C6">
                <rect id="Rectangle-Copy-10" x="0" y="0" width="96.0296984" height="17.8415833" rx="8.92079165"></rect>
            </g>
        </g>
        <g id="gridProduct" opacity="0.626521519" transform="translate(464.519608, 449.028383)">
            <rect id="Rectangle-Copy-13" fill="#E2E6E7" x="0" y="0" width="119.131113" height="139.439637" rx="5"></rect>
            <rect id="Rectangle" fill="#FFFFFF" x="11.4982318" y="9.58552839" width="96.1346489" height="75.4331647" rx="4.26584808"></rect>
            <g id="faketitle" transform="translate(27.110353, 93.960053)" fill="#BBC3C6">
                <rect id="Rectangle-Copy-10" x="-3.55271368e-15" y="0" width="61.5904324" height="9.50724795" rx="4.26584808"></rect>
            </g>
            <g id="fakecart" transform="translate(9.890720, 112.012525)" fill="#BBC3C6">
                <rect id="Rectangle-Copy-10" x="0" y="0" width="96.0296984" height="17.8415833" rx="8.92079165"></rect>
            </g>
        </g>
        <g id="gridProduct" opacity="0.626521519" transform="translate(597.661709, 449.028383)">
            <rect id="Rectangle-Copy-13" fill="#E2E6E7" x="0" y="0" width="119.131113" height="139.439637" rx="5"></rect>
            <rect id="Rectangle" fill="#FFFFFF" x="11.4982318" y="9.58552839" width="96.1346489" height="75.4331647" rx="4.26584808"></rect>
            <g id="faketitle" transform="translate(27.110353, 93.960053)" fill="#BBC3C6">
                <rect id="Rectangle-Copy-10" x="-3.55271368e-15" y="0" width="61.5904324" height="9.50724795" rx="4.26584808"></rect>
            </g>
            <g id="fakecart" transform="translate(9.890720, 112.012525)" fill="#BBC3C6">
                <rect id="Rectangle-Copy-10" x="0" y="0" width="96.0296984" height="17.8415833" rx="8.92079165"></rect>
            </g>
        </g>
        <path d="M704.107197,41.5 C710.872686,41.5 716.357197,46.9845118 716.357197,53.75 C716.357197,60.5154882 710.872686,66 704.107197,66 L212.090591,66 C205.325103,66 199.840591,60.5154882 199.840591,53.75 C199.840591,46.9845118 205.325103,41.5 212.090591,41.5 L704.107197,41.5 Z M704.107197,42.5 L212.090591,42.5 C205.877387,42.5 200.840591,47.5367966 200.840591,53.75 C200.840591,59.8661221 205.721217,64.8423129 211.800223,64.9963257 L212.090591,65 L704.107197,65 C710.320401,65 715.357197,59.9632034 715.357197,53.75 C715.357197,47.6338779 710.476571,42.6576871 704.397565,42.5036743 L704.107197,42.5 Z" id="Rectangle" fill="#D3D3D3" fill-rule="nonzero"></path>
        <g id="Group" transform="translate(697.180917, 48.586933)" stroke="#D3D3D3">
            <circle id="Oval" fill="#FFFFFF" cx="4.78029079" cy="4.78029079" r="4.28029079"></circle>
            <line x1="8.29332654" y1="7.81681274" x2="11.0576172" y2="10.5811034" id="Path-21" stroke-linecap="round"></line>
        </g>
        <path d="M737.3158,-0.942545 L27.7412515,-0.942545 C11.9153824,-0.942545 -0.914019474,11.8868568 -0.914019474,27.712726 L-0.914019474,437.287274 C-0.914019474,453.113143 11.9153824,465.942545 27.7412515,465.942545 L737.3158,465.942545 C753.141669,465.942545 765.971071,453.113143 765.971071,437.287274 L765.971071,27.712726 C765.971071,11.8868568 753.141669,-0.942545 737.3158,-0.942545 Z M737.3158,20.5 C741.299278,20.5 744.528526,23.7292474 744.528526,27.712726 L744.528526,437.287274 C744.528526,441.270753 741.299278,444.5 737.3158,444.5 L27.7412515,444.5 C23.757773,444.5 20.5285255,441.270753 20.5285255,437.287274 L20.5285255,27.712726 C20.5285255,23.7292474 23.757773,20.5 27.7412515,20.5 L737.3158,20.5 Z" id="Rectangle" fill="#202020" fill-rule="nonzero"></path>
        <rect id="Rectangle" fill="#243C47" x="40" y="40.75" width="144" height="26" rx="13"></rect>
        <g id="Clear" transform="translate(667.614000, 50.693000)" fill="#0086B2" fill-rule="nonzero">
            <path d="M3.111,6.358 C2.52166667,6.358 1.99041667,6.22766667 1.51725,5.967 C1.04408333,5.70633333 0.672916667,5.34508333 0.40375,4.88325 C0.134583333,4.42141667 0,3.90433333 0,3.332 C0,2.75966667 0.134583333,2.24258333 0.40375,1.78075 C0.672916667,1.31891667 1.0455,0.957666667 1.5215,0.697 C1.9975,0.436333333 2.53016667,0.306 3.1195,0.306 C3.5615,0.306 3.9695,0.379666667 4.3435,0.527 C4.7175,0.674333333 5.03483333,0.889666667 5.2955,1.173 L4.896,1.5725 C4.43133333,1.10216667 3.84483333,0.867 3.1365,0.867 C2.66616667,0.867 2.23833333,0.974666667 1.853,1.19 C1.46766667,1.40533333 1.16591667,1.7 0.94775,2.074 C0.729583333,2.448 0.6205,2.86733333 0.6205,3.332 C0.6205,3.79666667 0.729583333,4.216 0.94775,4.59 C1.16591667,4.964 1.46766667,5.25866667 1.853,5.474 C2.23833333,5.68933333 2.66616667,5.797 3.1365,5.797 C3.8505,5.797 4.437,5.559 4.896,5.083 L5.2955,5.4825 C5.03483333,5.76583333 4.71608333,5.98258333 4.33925,6.13275 C3.96241667,6.28291667 3.553,6.358 3.111,6.358 Z" id="Path"></path>
            <polygon id="Path" points="6.511 0 7.1145 0 7.1145 6.307 6.511 6.307"></polygon>
            <path d="M12.6905,4.2585 L8.9505,4.2585 C8.9845,4.72316667 9.163,5.09858333 9.486,5.38475 C9.809,5.67091667 10.217,5.814 10.71,5.814 C10.9876667,5.814 11.2426667,5.76441667 11.475,5.66525 C11.7073333,5.56608333 11.9085,5.42016667 12.0785,5.2275 L12.4185,5.6185 C12.2201667,5.8565 11.97225,6.03783333 11.67475,6.1625 C11.37725,6.28716667 11.05,6.3495 10.693,6.3495 C10.234,6.3495 9.82741667,6.25175 9.47325,6.05625 C9.11908333,5.86075 8.84283333,5.59016667 8.6445,5.2445 C8.44616667,4.89883333 8.347,4.50783333 8.347,4.0715 C8.347,3.63516667 8.44191667,3.24416667 8.63175,2.8985 C8.82158333,2.55283333 9.08225,2.28366667 9.41375,2.091 C9.74525,1.89833333 10.1178333,1.802 10.5315,1.802 C10.9451667,1.802 11.3163333,1.89833333 11.645,2.091 C11.9736667,2.28366667 12.2315,2.55141667 12.4185,2.89425 C12.6055,3.23708333 12.699,3.6295 12.699,4.0715 L12.6905,4.2585 Z M10.5315,2.3205 C10.1008333,2.3205 9.73958333,2.45791667 9.44775,2.73275 C9.15591667,3.00758333 8.99016667,3.366 8.9505,3.808 L12.121,3.808 C12.0813333,3.366 11.9155833,3.00758333 11.62375,2.73275 C11.3319167,2.45791667 10.9678333,2.3205 10.5315,2.3205 Z" id="Shape"></path>
            <path d="M15.368,1.802 C15.9516667,1.802 16.3993333,1.94791667 16.711,2.23975 C17.0226667,2.53158333 17.1785,2.96366667 17.1785,3.536 L17.1785,6.307 L16.6005,6.307 L16.6005,5.61 C16.4645,5.84233333 16.26475,6.02366667 16.00125,6.154 C15.73775,6.28433333 15.4246667,6.3495 15.062,6.3495 C14.5633333,6.3495 14.1666667,6.2305 13.872,5.9925 C13.5773333,5.7545 13.43,5.44 13.43,5.049 C13.43,4.66933333 13.5674167,4.36333333 13.84225,4.131 C14.1170833,3.89866667 14.5548333,3.7825 15.1555,3.7825 L16.575,3.7825 L16.575,3.5105 C16.575,3.12516667 16.4673333,2.83191667 16.252,2.63075 C16.0366667,2.42958333 15.7221667,2.329 15.3085,2.329 C15.0251667,2.329 14.7531667,2.37575 14.4925,2.46925 C14.2318333,2.56275 14.008,2.69166667 13.821,2.856 L13.549,2.4055 C13.7756667,2.21283333 14.0476667,2.06408333 14.365,1.95925 C14.6823333,1.85441667 15.0166667,1.802 15.368,1.802 Z M15.1555,5.8735 C15.4955,5.8735 15.7873333,5.79558333 16.031,5.63975 C16.2746667,5.48391667 16.456,5.25866667 16.575,4.964 L16.575,4.233 L15.1725,4.233 C14.4075,4.233 14.025,4.49933333 14.025,5.032 C14.025,5.29266667 14.1241667,5.49808333 14.3225,5.64825 C14.5208333,5.79841667 14.7985,5.8735 15.1555,5.8735 Z" id="Shape"></path>
            <path d="M19.397,2.7115 C19.5386667,2.41116667 19.74975,2.1845 20.03025,2.0315 C20.31075,1.8785 20.6578333,1.802 21.0715,1.802 L21.0715,2.3885 L20.927,2.38 C20.4566667,2.38 20.0883333,2.5245 19.822,2.8135 C19.5556667,3.1025 19.4225,3.50766667 19.4225,4.029 L19.4225,6.307 L18.819,6.307 L18.819,1.836 L19.397,1.836 L19.397,2.7115 Z" id="Path"></path>
        </g>
        <rect id="Rectangle" fill="#EDF0F0" x="40" y="90" width="677" height="331" rx="10"></rect>
        <rect id="Rectangle" fill="#BBC3C6" x="209.826901" y="48.5869335" width="55.2708174" height="10.5811034" rx="3"></rect>
    </g>
</svg>