<svg width="822" height="474" viewBox="0 0 822 474" fill="none" xmlns="http://www.w3.org/2000/svg">
<g clip-path="url(#clip0_371_1093)">
<path d="M73 194C73 184.059 81.0589 176 91 176H732C741.941 176 750 184.059 750 194V485C750 494.941 741.941 503 732 503H91C81.0589 503 73 494.941 73 485V194Z" fill="#243C47"/>
<path fill-rule="evenodd" clip-rule="evenodd" d="M91 158H732C751.882 158 768 174.118 768 194V485C768 504.882 751.882 521 732 521H91C71.1178 521 55 504.882 55 485V194C55 174.118 71.1178 158 91 158ZM91 176C81.0589 176 73 184.059 73 194V485C73 494.941 81.0589 503 91 503H732C741.941 503 750 494.941 750 485V194C750 184.059 741.941 176 732 176H91Z" fill="#000A0D"/>
<path d="M371.275 62.6247V50.0247H372.607V62.6247H371.275Z" fill="#1E3D49"/>
<path d="M376.706 62.6247V50.0247H377.804L386.498 60.9687H385.922V50.0247H387.236V62.6247H386.138L377.462 51.6807H378.038V62.6247H376.706Z" fill="#1E3D49"/>
<path d="M394.823 62.7327C393.887 62.7327 392.987 62.5827 392.123 62.2827C391.271 61.9707 390.611 61.5747 390.143 61.0947L390.665 60.0687C391.109 60.5007 391.703 60.8667 392.447 61.1667C393.203 61.4547 393.995 61.5987 394.823 61.5987C395.615 61.5987 396.257 61.5027 396.749 61.3107C397.253 61.1067 397.619 60.8367 397.847 60.5007C398.087 60.1647 398.207 59.7927 398.207 59.3847C398.207 58.8927 398.063 58.4967 397.775 58.1967C397.499 57.8967 397.133 57.6627 396.677 57.4947C396.221 57.3147 395.717 57.1587 395.165 57.0267C394.613 56.8947 394.061 56.7567 393.509 56.6127C392.957 56.4567 392.447 56.2527 391.979 56.0007C391.523 55.7487 391.151 55.4187 390.863 55.0107C390.587 54.5907 390.449 54.0447 390.449 53.3727C390.449 52.7487 390.611 52.1787 390.935 51.6627C391.271 51.1347 391.781 50.7147 392.465 50.4027C393.149 50.0787 394.025 49.9167 395.093 49.9167C395.801 49.9167 396.503 50.0187 397.199 50.2227C397.895 50.4147 398.495 50.6847 398.999 51.0327L398.549 52.0947C398.009 51.7347 397.433 51.4707 396.821 51.3027C396.221 51.1347 395.639 51.0507 395.075 51.0507C394.319 51.0507 393.695 51.1527 393.203 51.3567C392.711 51.5607 392.345 51.8367 392.105 52.1847C391.877 52.5207 391.763 52.9047 391.763 53.3367C391.763 53.8287 391.901 54.2247 392.177 54.5247C392.465 54.8247 392.837 55.0587 393.293 55.2267C393.761 55.3947 394.271 55.5447 394.823 55.6767C395.375 55.8087 395.921 55.9527 396.461 56.1087C397.013 56.2647 397.517 56.4687 397.973 56.7207C398.441 56.9607 398.813 57.2847 399.089 57.6927C399.377 58.1007 399.521 58.6347 399.521 59.2947C399.521 59.9067 399.353 60.4767 399.017 61.0047C398.681 61.5207 398.165 61.9407 397.469 62.2647C396.785 62.5767 395.903 62.7327 394.823 62.7327Z" fill="#1E3D49"/>
<path d="M402.423 62.6247V50.0247H403.755V62.6247H402.423Z" fill="#1E3D49"/>
<path d="M413.381 62.7327C412.421 62.7327 411.533 62.5767 410.717 62.2647C409.913 61.9407 409.211 61.4907 408.611 60.9147C408.023 60.3387 407.561 59.6607 407.225 58.8807C406.901 58.1007 406.739 57.2487 406.739 56.3247C406.739 55.4007 406.901 54.5487 407.225 53.7687C407.561 52.9887 408.029 52.3107 408.629 51.7347C409.229 51.1587 409.931 50.7147 410.735 50.4027C411.551 50.0787 412.439 49.9167 413.399 49.9167C414.359 49.9167 415.235 50.0667 416.027 50.3667C416.831 50.6667 417.515 51.1227 418.079 51.7347L417.251 52.5807C416.723 52.0527 416.141 51.6747 415.505 51.4467C414.869 51.2187 414.185 51.1047 413.453 51.1047C412.673 51.1047 411.953 51.2367 411.293 51.5007C410.645 51.7527 410.075 52.1187 409.583 52.5987C409.103 53.0667 408.725 53.6187 408.449 54.2547C408.185 54.8787 408.053 55.5687 408.053 56.3247C408.053 57.0687 408.185 57.7587 408.449 58.3947C408.725 59.0307 409.103 59.5887 409.583 60.0687C410.075 60.5367 410.645 60.9027 411.293 61.1667C411.953 61.4187 412.667 61.5447 413.435 61.5447C414.155 61.5447 414.833 61.4367 415.469 61.2207C416.117 61.0047 416.711 60.6387 417.251 60.1227L418.007 61.1307C417.407 61.6587 416.705 62.0607 415.901 62.3367C415.097 62.6007 414.257 62.7327 413.381 62.7327ZM416.729 60.9687V56.3247H418.007V61.1307L416.729 60.9687Z" fill="#1E3D49"/>
<path d="M424.225 62.6247V51.1767H419.797V50.0247H429.985V51.1767H425.557V62.6247H424.225Z" fill="#1E3D49"/>
<path d="M441.329 50.0247H442.643V62.6247H441.329V50.0247ZM433.445 62.6247H432.113V50.0247H433.445V62.6247ZM441.455 56.8107H433.301V55.6407H441.455V56.8107Z" fill="#1E3D49"/>
<path d="M450.229 62.7327C449.293 62.7327 448.393 62.5827 447.529 62.2827C446.677 61.9707 446.017 61.5747 445.549 61.0947L446.071 60.0687C446.515 60.5007 447.109 60.8667 447.853 61.1667C448.609 61.4547 449.401 61.5987 450.229 61.5987C451.021 61.5987 451.663 61.5027 452.155 61.3107C452.659 61.1067 453.025 60.8367 453.253 60.5007C453.493 60.1647 453.613 59.7927 453.613 59.3847C453.613 58.8927 453.469 58.4967 453.181 58.1967C452.905 57.8967 452.539 57.6627 452.083 57.4947C451.627 57.3147 451.123 57.1587 450.571 57.0267C450.019 56.8947 449.467 56.7567 448.915 56.6127C448.363 56.4567 447.853 56.2527 447.385 56.0007C446.929 55.7487 446.557 55.4187 446.269 55.0107C445.993 54.5907 445.855 54.0447 445.855 53.3727C445.855 52.7487 446.017 52.1787 446.341 51.6627C446.677 51.1347 447.187 50.7147 447.871 50.4027C448.555 50.0787 449.431 49.9167 450.499 49.9167C451.207 49.9167 451.909 50.0187 452.605 50.2227C453.301 50.4147 453.901 50.6847 454.405 51.0327L453.955 52.0947C453.415 51.7347 452.839 51.4707 452.227 51.3027C451.627 51.1347 451.045 51.0507 450.481 51.0507C449.725 51.0507 449.101 51.1527 448.609 51.3567C448.117 51.5607 447.751 51.8367 447.511 52.1847C447.283 52.5207 447.169 52.9047 447.169 53.3367C447.169 53.8287 447.307 54.2247 447.583 54.5247C447.871 54.8247 448.243 55.0587 448.699 55.2267C449.167 55.3947 449.677 55.5447 450.229 55.6767C450.781 55.8087 451.327 55.9527 451.867 56.1087C452.419 56.2647 452.923 56.4687 453.379 56.7207C453.847 56.9607 454.219 57.2847 454.495 57.6927C454.783 58.1007 454.927 58.6347 454.927 59.2947C454.927 59.9067 454.759 60.4767 454.423 61.0047C454.087 61.5207 453.571 61.9407 452.875 62.2647C452.191 62.5767 451.309 62.7327 450.229 62.7327Z" fill="#1E3D49"/>
<g filter="url(#filter0_d_371_1093)">
<path d="M89 124.93C89 119.998 92.998 116 97.9298 116H230.07C235.002 116 239 119.998 239 124.93V417.07C239 422.002 235.002 426 230.07 426H97.9298C92.998 426 89 422.002 89 417.07V124.93Z" fill="white"/>
</g>
<mask id="mask0_371_1093" style="mask-type:alpha" maskUnits="userSpaceOnUse" x="89" y="116" width="150" height="310">
<path d="M89 124.93C89 119.998 92.998 116 97.9298 116H230.07C235.002 116 239 119.998 239 124.93V417.07C239 422.002 235.002 426 230.07 426H97.9298C92.998 426 89 422.002 89 417.07V124.93Z" fill="white"/>
</mask>
<g mask="url(#mask0_371_1093)">
<path d="M213.111 264.818C213.111 298.107 186.141 325.094 152.872 325.094C119.603 325.094 92.6333 298.107 92.6333 264.818C92.6333 231.528 119.603 204.542 152.872 204.542C186.141 204.542 213.111 231.528 213.111 264.818Z" fill="#FDCB5B"/>
<path d="M260.409 227.313C260.409 241.368 248.422 252.763 233.636 252.763C218.85 252.763 206.864 241.368 206.864 227.313C206.864 213.257 218.85 201.863 233.636 201.863C248.422 201.863 260.409 213.257 260.409 227.313Z" fill="#80C0A1"/>
<path d="M275.58 273.301C275.58 284.644 266.391 293.839 255.055 293.839C243.718 293.839 234.529 284.644 234.529 273.301C234.529 261.958 243.718 252.763 255.055 252.763C266.391 252.763 275.58 261.958 275.58 273.301Z" fill="#80C0A1"/>
<path d="M240.776 311.253C240.776 320.869 232.984 328.666 223.373 328.666C213.762 328.666 205.971 320.869 205.971 311.253C205.971 301.636 213.762 293.839 223.373 293.839C232.984 293.839 240.776 301.636 240.776 311.253Z" fill="#D44A6F"/>
<path d="M123.868 338.042C123.868 352.097 111.882 363.492 97.0954 363.492C82.3093 363.492 70.3227 352.097 70.3227 338.042C70.3227 323.986 82.3093 312.592 97.0954 312.592C111.882 312.592 123.868 323.986 123.868 338.042Z" fill="#FDCB5B"/>
</g>
<path d="M89 167.93C89 162.998 92.998 159 97.9298 159H230.07C235.002 159 239 162.998 239 167.93V417.07C239 422.002 235.002 426 230.07 426H97.9298C92.998 426 89 422.002 89 417.07V167.93Z" fill="url(#paint0_linear_371_1093)"/>
<path d="M105.26 410V401.6H106.244L111.8 408.5H111.284V401.6H112.484V410H111.5L105.944 403.1H106.46V410H105.26Z" fill="#243C47"/>
<path d="M118.79 410.096C118.15 410.096 117.554 409.988 117.002 409.772C116.458 409.556 115.986 409.256 115.586 408.872C115.186 408.48 114.874 408.024 114.65 407.504C114.426 406.984 114.314 406.416 114.314 405.8C114.314 405.184 114.426 404.616 114.65 404.096C114.874 403.576 115.186 403.124 115.586 402.74C115.986 402.348 116.458 402.044 117.002 401.828C117.546 401.612 118.142 401.504 118.79 401.504C119.43 401.504 120.018 401.612 120.554 401.828C121.098 402.036 121.57 402.336 121.97 402.728C122.378 403.112 122.69 403.564 122.906 404.084C123.13 404.604 123.242 405.176 123.242 405.8C123.242 406.424 123.13 406.996 122.906 407.516C122.69 408.036 122.378 408.492 121.97 408.884C121.57 409.268 121.098 409.568 120.554 409.784C120.018 409.992 119.43 410.096 118.79 410.096ZM118.79 409.028C119.254 409.028 119.682 408.948 120.074 408.788C120.474 408.628 120.818 408.404 121.106 408.116C121.402 407.82 121.63 407.476 121.79 407.084C121.958 406.692 122.042 406.264 122.042 405.8C122.042 405.336 121.958 404.908 121.79 404.516C121.63 404.124 121.402 403.784 121.106 403.496C120.818 403.2 120.474 402.972 120.074 402.812C119.682 402.652 119.254 402.572 118.79 402.572C118.318 402.572 117.882 402.652 117.482 402.812C117.09 402.972 116.746 403.2 116.45 403.496C116.154 403.784 115.922 404.124 115.754 404.516C115.594 404.908 115.514 405.336 115.514 405.8C115.514 406.264 115.594 406.692 115.754 407.084C115.922 407.476 116.154 407.82 116.45 408.116C116.746 408.404 117.09 408.628 117.482 408.788C117.882 408.948 118.318 409.028 118.79 409.028Z" fill="#243C47"/>
<path d="M126.751 410L123.943 401.6H125.179L127.759 409.352H127.135L129.811 401.6H130.915L133.531 409.352H132.931L135.547 401.6H136.687L133.879 410H132.619L130.171 402.812H130.495L128.035 410H126.751Z" fill="#243C47"/>
<g filter="url(#filter1_d_371_1093)">
<path d="M254 124.93C254 119.998 257.998 116 262.93 116H394.07C399.002 116 403 119.998 403 124.93V417.07C403 422.002 399.002 426 394.07 426H262.93C257.998 426 254 422.002 254 417.07V124.93Z" fill="white"/>
</g>
<mask id="mask1_371_1093" style="mask-type:alpha" maskUnits="userSpaceOnUse" x="254" y="116" width="149" height="310">
<path d="M254 124.93C254 119.998 257.998 116 262.93 116H394.07C399.002 116 403 119.998 403 124.93V417.07C403 422.002 399.002 426 394.07 426H262.93C257.998 426 254 422.002 254 417.07V124.93Z" fill="white"/>
</mask>
<g mask="url(#mask1_371_1093)">
<path fill-rule="evenodd" clip-rule="evenodd" d="M315 200H309C300.163 200 293 207.163 293 216V373C293 381.837 300.163 389 309 389H315V388H309C300.716 388 294 381.284 294 373V216C294 207.716 300.716 201 309 201H315V200Z" fill="#D0D4D7"/>
<path fill-rule="evenodd" clip-rule="evenodd" d="M293 247L313 247L313 248L293 248L293 247Z" fill="#D0D4D7"/>
<path fill-rule="evenodd" clip-rule="evenodd" d="M348 247H375V248H348V247Z" fill="#D0D4D7"/>
<path fill-rule="evenodd" clip-rule="evenodd" d="M279 293L313 293L313 294L279 294L279 293Z" fill="#D0D4D7"/>
<path fill-rule="evenodd" clip-rule="evenodd" d="M293 339L313 339L313 340L293 340L293 339Z" fill="#D0D4D7"/>
<path d="M348 293C348 303.493 339.493 312 329 312C318.507 312 310 303.493 310 293C310 282.507 318.507 274 329 274C339.493 274 348 282.507 348 293Z" fill="#FFEFCE"/>
<path d="M348 339C348 349.493 339.493 358 329 358C318.507 358 310 349.493 310 339C310 328.507 318.507 320 329 320C339.493 320 348 328.507 348 339Z" fill="#FFEFCE"/>
<path d="M348 385C348 395.493 339.493 404 329 404C318.507 404 310 395.493 310 385C310 374.507 318.507 366 329 366C339.493 366 348 374.507 348 385Z" fill="#FFEFCE"/>
<path d="M348 247C348 257.493 339.493 266 329 266C318.507 266 310 257.493 310 247C310 236.507 318.507 228 329 228C339.493 228 348 236.507 348 247Z" fill="#FDCB5B"/>
<path d="M348 201C348 211.493 339.493 220 329 220C318.507 220 310 211.493 310 201C310 190.507 318.507 182 329 182C339.493 182 348 190.507 348 201Z" fill="#FFEFCE"/>
<path d="M281 293C281 310.121 267.121 324 250 324C232.879 324 219 310.121 219 293C219 275.879 232.879 262 250 262C267.121 262 281 275.879 281 293Z" fill="#FDCB5B"/>
<path fill-rule="evenodd" clip-rule="evenodd" d="M379 200H372C363.163 200 356 207.163 356 216V277C356 285.837 363.163 293 372 293H379V292H372C363.716 292 357 285.284 357 277V216C357 207.716 363.716 201 372 201H379V200Z" fill="#D9D9D9"/>
<path d="M412 293C412 303.493 403.493 312 393 312C382.507 312 374 303.493 374 293C374 282.507 382.507 274 393 274C403.493 274 412 282.507 412 293Z" fill="#FDCB5B"/>
<path d="M412 247C412 257.493 403.493 266 393 266C382.507 266 374 257.493 374 247C374 236.507 382.507 228 393 228C403.493 228 412 236.507 412 247Z" fill="#FFEFCE"/>
<path d="M412 201C412 211.493 403.493 220 393 220C382.507 220 374 211.493 374 201C374 190.507 382.507 182 393 182C403.493 182 412 190.507 412 201Z" fill="#FFEFCE"/>
<path d="M254 158.93C254 153.998 257.998 150 262.93 150H394.07C399.002 150 403 153.998 403 158.93V417.07C403 422.002 399.002 426 394.07 426H262.93C257.998 426 254 422.002 254 417.07V158.93Z" fill="url(#paint1_linear_371_1093)"/>
</g>
<path d="M274.016 410.096C273.376 410.096 272.784 409.992 272.24 409.784C271.704 409.568 271.236 409.268 270.836 408.884C270.444 408.492 270.136 408.036 269.912 407.516C269.688 406.996 269.576 406.424 269.576 405.8C269.576 405.176 269.688 404.604 269.912 404.084C270.136 403.564 270.448 403.112 270.848 402.728C271.248 402.336 271.716 402.036 272.252 401.828C272.796 401.612 273.388 401.504 274.028 401.504C274.676 401.504 275.272 401.616 275.816 401.84C276.368 402.056 276.836 402.38 277.22 402.812L276.44 403.568C276.12 403.232 275.76 402.984 275.36 402.824C274.96 402.656 274.532 402.572 274.076 402.572C273.604 402.572 273.164 402.652 272.756 402.812C272.356 402.972 272.008 403.196 271.712 403.484C271.416 403.772 271.184 404.116 271.016 404.516C270.856 404.908 270.776 405.336 270.776 405.8C270.776 406.264 270.856 406.696 271.016 407.096C271.184 407.488 271.416 407.828 271.712 408.116C272.008 408.404 272.356 408.628 272.756 408.788C273.164 408.948 273.604 409.028 274.076 409.028C274.532 409.028 274.96 408.948 275.36 408.788C275.76 408.62 276.12 408.364 276.44 408.02L277.22 408.776C276.836 409.208 276.368 409.536 275.816 409.76C275.272 409.984 274.672 410.096 274.016 410.096Z" fill="#243C47"/>
<path d="M277.461 410L281.265 401.6H282.453L286.269 410H285.009L281.613 402.272H282.093L278.697 410H277.461ZM279.081 407.9L279.405 406.94H284.133L284.481 407.9H279.081Z" fill="#243C47"/>
<path d="M288.768 410V402.644H285.888V401.6H292.836V402.644H289.956V410H288.768Z" fill="#243C47"/>
<path d="M295.235 405.224H299.555V406.244H295.235V405.224ZM295.343 408.956H300.239V410H294.143V401.6H300.071V402.644H295.343V408.956Z" fill="#243C47"/>
<path d="M305.962 410.096C305.314 410.096 304.718 409.992 304.174 409.784C303.63 409.568 303.158 409.268 302.758 408.884C302.358 408.492 302.046 408.036 301.822 407.516C301.598 406.996 301.486 406.424 301.486 405.8C301.486 405.176 301.598 404.604 301.822 404.084C302.046 403.564 302.358 403.112 302.758 402.728C303.166 402.336 303.642 402.036 304.186 401.828C304.73 401.612 305.33 401.504 305.986 401.504C306.65 401.504 307.258 401.612 307.81 401.828C308.362 402.044 308.83 402.368 309.214 402.8L308.47 403.544C308.126 403.208 307.75 402.964 307.342 402.812C306.942 402.652 306.506 402.572 306.034 402.572C305.554 402.572 305.106 402.652 304.69 402.812C304.282 402.972 303.926 403.196 303.622 403.484C303.326 403.772 303.094 404.116 302.926 404.516C302.766 404.908 302.686 405.336 302.686 405.8C302.686 406.256 302.766 406.684 302.926 407.084C303.094 407.476 303.326 407.82 303.622 408.116C303.926 408.404 304.282 408.628 304.69 408.788C305.098 408.948 305.542 409.028 306.022 409.028C306.47 409.028 306.898 408.96 307.306 408.824C307.722 408.68 308.106 408.444 308.458 408.116L309.142 409.028C308.726 409.38 308.238 409.648 307.678 409.832C307.126 410.008 306.554 410.096 305.962 410.096ZM307.99 408.872V405.752H309.142V409.028L307.99 408.872Z" fill="#243C47"/>
<path d="M315.232 410.096C314.592 410.096 313.996 409.988 313.444 409.772C312.9 409.556 312.428 409.256 312.028 408.872C311.628 408.48 311.316 408.024 311.092 407.504C310.868 406.984 310.756 406.416 310.756 405.8C310.756 405.184 310.868 404.616 311.092 404.096C311.316 403.576 311.628 403.124 312.028 402.74C312.428 402.348 312.9 402.044 313.444 401.828C313.988 401.612 314.584 401.504 315.232 401.504C315.872 401.504 316.46 401.612 316.996 401.828C317.54 402.036 318.012 402.336 318.412 402.728C318.82 403.112 319.132 403.564 319.348 404.084C319.572 404.604 319.684 405.176 319.684 405.8C319.684 406.424 319.572 406.996 319.348 407.516C319.132 408.036 318.82 408.492 318.412 408.884C318.012 409.268 317.54 409.568 316.996 409.784C316.46 409.992 315.872 410.096 315.232 410.096ZM315.232 409.028C315.696 409.028 316.124 408.948 316.516 408.788C316.916 408.628 317.26 408.404 317.548 408.116C317.844 407.82 318.072 407.476 318.232 407.084C318.4 406.692 318.484 406.264 318.484 405.8C318.484 405.336 318.4 404.908 318.232 404.516C318.072 404.124 317.844 403.784 317.548 403.496C317.26 403.2 316.916 402.972 316.516 402.812C316.124 402.652 315.696 402.572 315.232 402.572C314.76 402.572 314.324 402.652 313.924 402.812C313.532 402.972 313.188 403.2 312.892 403.496C312.596 403.784 312.364 404.124 312.196 404.516C312.036 404.908 311.956 405.336 311.956 405.8C311.956 406.264 312.036 406.692 312.196 407.084C312.364 407.476 312.596 407.82 312.892 408.116C313.188 408.404 313.532 408.628 313.924 408.788C314.324 408.948 314.76 409.028 315.232 409.028Z" fill="#243C47"/>
<path d="M321.518 410V401.6H324.794C325.53 401.6 326.158 401.716 326.678 401.948C327.198 402.18 327.598 402.516 327.878 402.956C328.158 403.396 328.298 403.92 328.298 404.528C328.298 405.136 328.158 405.66 327.878 406.1C327.598 406.532 327.198 406.864 326.678 407.096C326.158 407.328 325.53 407.444 324.794 407.444H322.178L322.718 406.892V410H321.518ZM327.134 410L324.998 406.952H326.282L328.442 410H327.134ZM322.718 407.012L322.178 406.424H324.758C325.526 406.424 326.106 406.26 326.498 405.932C326.898 405.596 327.098 405.128 327.098 404.528C327.098 403.928 326.898 403.464 326.498 403.136C326.106 402.808 325.526 402.644 324.758 402.644H322.178L322.718 402.044V407.012Z" fill="#243C47"/>
<path d="M330.237 410V401.6H331.437V410H330.237Z" fill="#243C47"/>
<path d="M335.043 405.224H339.363V406.244H335.043V405.224ZM335.151 408.956H340.047V410H333.951V401.6H339.879V402.644H335.151V408.956Z" fill="#243C47"/>
<path d="M344.438 410.096C343.798 410.096 343.186 410 342.602 409.808C342.018 409.608 341.558 409.352 341.222 409.04L341.666 408.104C341.986 408.384 342.394 408.616 342.89 408.8C343.386 408.984 343.902 409.076 344.438 409.076C344.926 409.076 345.322 409.02 345.626 408.908C345.93 408.796 346.154 408.644 346.298 408.452C346.442 408.252 346.514 408.028 346.514 407.78C346.514 407.492 346.418 407.26 346.226 407.084C346.042 406.908 345.798 406.768 345.494 406.664C345.198 406.552 344.87 406.456 344.51 406.376C344.15 406.296 343.786 406.204 343.418 406.1C343.058 405.988 342.726 405.848 342.422 405.68C342.126 405.512 341.886 405.288 341.702 405.008C341.518 404.72 341.426 404.352 341.426 403.904C341.426 403.472 341.538 403.076 341.762 402.716C341.994 402.348 342.346 402.056 342.818 401.84C343.298 401.616 343.906 401.504 344.642 401.504C345.13 401.504 345.614 401.568 346.094 401.696C346.574 401.824 346.99 402.008 347.342 402.248L346.946 403.208C346.586 402.968 346.206 402.796 345.806 402.692C345.406 402.58 345.018 402.524 344.642 402.524C344.17 402.524 343.782 402.584 343.478 402.704C343.174 402.824 342.95 402.984 342.806 403.184C342.67 403.384 342.602 403.608 342.602 403.856C342.602 404.152 342.694 404.388 342.878 404.564C343.07 404.74 343.314 404.88 343.61 404.984C343.914 405.088 344.246 405.184 344.606 405.272C344.966 405.352 345.326 405.444 345.686 405.548C346.054 405.652 346.386 405.788 346.682 405.956C346.986 406.124 347.23 406.348 347.414 406.628C347.598 406.908 347.69 407.268 347.69 407.708C347.69 408.132 347.574 408.528 347.342 408.896C347.11 409.256 346.75 409.548 346.262 409.772C345.782 409.988 345.174 410.096 344.438 410.096Z" fill="#243C47"/>
<g filter="url(#filter2_d_371_1093)">
<path d="M418 124.93C418 119.998 421.998 116 426.93 116H559.07C564.002 116 568 119.998 568 124.93V417.07C568 422.002 564.002 426 559.07 426H426.93C421.998 426 418 422.002 418 417.07V124.93Z" fill="white"/>
</g>
<mask id="mask2_371_1093" style="mask-type:alpha" maskUnits="userSpaceOnUse" x="418" y="116" width="150" height="310">
<path d="M418 124.93C418 119.998 421.998 116 426.93 116H559.07C564.002 116 568 119.998 568 124.93V417.07C568 422.002 564.002 426 559.07 426H426.93C421.998 426 418 422.002 418 417.07V124.93Z" fill="white"/>
</mask>
<g mask="url(#mask2_371_1093)">
</g>
<mask id="mask3_371_1093" style="mask-type:alpha" maskUnits="userSpaceOnUse" x="418" y="116" width="150" height="310">
<path d="M418 124.93C418 119.998 421.998 116 426.93 116H559.07C564.002 116 568 119.998 568 124.93V417.07C568 422.002 564.002 426 559.07 426H426.93C421.998 426 418 422.002 418 417.07V124.93Z" fill="white"/>
</mask>
<g mask="url(#mask3_371_1093)">
<path fill-rule="evenodd" clip-rule="evenodd" d="M451.504 249.534L430.469 216.361L432.557 215.037L453.592 248.211C457.734 254.743 459.933 262.319 459.933 270.054V361.243H457.461V270.054C457.461 262.788 455.395 255.671 451.504 249.534Z" fill="#53B9C9"/>
<path fill-rule="evenodd" clip-rule="evenodd" d="M441.11 270.567L420.019 248.625L421.802 246.912L442.892 268.854C450.195 276.452 454.274 286.582 454.274 297.12V361.243H451.802V297.12C451.802 287.22 447.97 277.705 441.11 270.567Z" fill="#0086B2"/>
<path fill-rule="evenodd" clip-rule="evenodd" d="M426.323 288.034L402.958 273.486L404.265 271.387L427.63 285.936C439.59 293.382 446.86 306.474 446.86 320.562V361.243H444.388V320.562C444.388 307.327 437.558 295.03 426.323 288.034Z" fill="#CFD4D7"/>
<path d="M433.267 210.87C433.267 214.957 429.948 218.271 425.853 218.271C421.759 218.271 418.439 214.957 418.439 210.87C418.439 206.783 421.759 203.47 425.853 203.47C429.948 203.47 433.267 206.783 433.267 210.87Z" fill="#CFD4D7"/>
<path d="M423.382 240.472C423.382 245.922 418.956 250.34 413.497 250.34C408.037 250.34 403.611 245.922 403.611 240.472C403.611 235.023 408.037 230.605 413.497 230.605C418.956 230.605 423.382 235.023 423.382 240.472Z" fill="#CFD4D7"/>
<path fill-rule="evenodd" clip-rule="evenodd" d="M535.084 249.534L556.12 216.361L554.032 215.037L532.997 248.211C528.854 254.743 526.655 262.319 526.655 270.054V361.243H529.127V270.054C529.127 262.788 531.193 255.671 535.084 249.534Z" fill="#FDCB5B"/>
<path fill-rule="evenodd" clip-rule="evenodd" d="M545.479 270.567L566.569 248.625L564.787 246.912L543.696 268.854C536.393 276.452 532.314 286.582 532.314 297.12V361.243H534.787V297.12C534.787 287.22 538.618 277.705 545.479 270.567Z" fill="#D44A6F"/>
<path fill-rule="evenodd" clip-rule="evenodd" d="M560.265 288.034L583.63 273.486L582.324 271.387L558.959 285.936C546.999 293.382 539.729 306.474 539.729 320.562V361.243H542.201V320.562C542.201 307.327 549.03 295.03 560.265 288.034Z" fill="#8B6391"/>
<path d="M553.321 210.87C553.321 214.957 556.641 218.271 560.735 218.271C564.83 218.271 568.149 214.957 568.149 210.87C568.149 206.783 564.83 203.47 560.735 203.47C556.641 203.47 553.321 206.783 553.321 210.87Z" fill="#CFD4D7"/>
<path d="M563.207 240.472C563.207 245.922 567.632 250.34 573.092 250.34C578.551 250.34 582.977 245.922 582.977 240.472C582.977 235.023 578.551 230.605 573.092 230.605C567.632 230.605 563.207 235.023 563.207 240.472Z" fill="#CFD4D7"/>
<path fill-rule="evenodd" clip-rule="evenodd" d="M477.832 277.692L491.914 257.044L493.957 258.437L479.874 279.085C475.534 285.449 473.213 292.973 473.213 300.675V361.243H470.741V300.675C470.741 292.476 473.212 284.466 477.832 277.692Z" fill="#243C47"/>
<path fill-rule="evenodd" clip-rule="evenodd" d="M483.041 281.552L491.773 257.321L494.099 258.159L485.367 282.39C483.866 286.557 483.098 290.952 483.098 295.38V361.243H480.626V295.38C480.626 290.666 481.443 285.987 483.041 281.552Z" fill="#243C47"/>
<path fill-rule="evenodd" clip-rule="evenodd" d="M509.323 277.692L495.24 257.044L493.198 258.437L507.28 279.085C511.62 285.449 513.942 292.973 513.942 300.675V361.243H516.414V300.675C516.414 292.476 513.943 284.466 509.323 277.692Z" fill="#243C47"/>
<path fill-rule="evenodd" clip-rule="evenodd" d="M504.113 281.552L495.382 257.321L493.056 258.159L501.787 282.39C503.289 286.557 504.056 290.952 504.056 295.38V361.243H506.528V295.38C506.528 290.666 505.711 285.987 504.113 281.552Z" fill="#243C47"/>
<path fill-rule="evenodd" clip-rule="evenodd" d="M494.79 257.738V361.35H492.317V257.738H494.79Z" fill="#243C47"/>
<path d="M502.821 247.873C502.821 253.322 498.395 257.74 492.936 257.74C487.476 257.74 483.05 253.322 483.05 247.873C483.05 242.423 487.476 238.005 492.936 238.005C498.395 238.005 502.821 242.423 502.821 247.873Z" fill="#243C47"/>
</g>
<path d="M418 158.93C418 153.998 421.998 150 426.93 150H559.07C564.002 150 568 153.998 568 158.93V417.07C568 422.002 564.002 426 559.07 426H426.93C421.998 426 418 422.002 418 417.07V158.93Z" fill="url(#paint2_linear_371_1093)"/>
<path d="M438.052 410.096C437.412 410.096 436.816 409.988 436.264 409.772C435.72 409.556 435.248 409.256 434.848 408.872C434.448 408.48 434.136 408.024 433.912 407.504C433.688 406.984 433.576 406.416 433.576 405.8C433.576 405.184 433.688 404.616 433.912 404.096C434.136 403.576 434.448 403.124 434.848 402.74C435.248 402.348 435.72 402.044 436.264 401.828C436.808 401.612 437.404 401.504 438.052 401.504C438.692 401.504 439.28 401.612 439.816 401.828C440.36 402.036 440.832 402.336 441.232 402.728C441.64 403.112 441.952 403.564 442.168 404.084C442.392 404.604 442.504 405.176 442.504 405.8C442.504 406.424 442.392 406.996 442.168 407.516C441.952 408.036 441.64 408.492 441.232 408.884C440.832 409.268 440.36 409.568 439.816 409.784C439.28 409.992 438.692 410.096 438.052 410.096ZM438.052 409.028C438.516 409.028 438.944 408.948 439.336 408.788C439.736 408.628 440.08 408.404 440.368 408.116C440.664 407.82 440.892 407.476 441.052 407.084C441.22 406.692 441.304 406.264 441.304 405.8C441.304 405.336 441.22 404.908 441.052 404.516C440.892 404.124 440.664 403.784 440.368 403.496C440.08 403.2 439.736 402.972 439.336 402.812C438.944 402.652 438.516 402.572 438.052 402.572C437.58 402.572 437.144 402.652 436.744 402.812C436.352 402.972 436.008 403.2 435.712 403.496C435.416 403.784 435.184 404.124 435.016 404.516C434.856 404.908 434.776 405.336 434.776 405.8C434.776 406.264 434.856 406.692 435.016 407.084C435.184 407.476 435.416 407.82 435.712 408.116C436.008 408.404 436.352 408.628 436.744 408.788C437.144 408.948 437.58 409.028 438.052 409.028Z" fill="#243C47"/>
<path d="M444.338 410V401.6H447.614C448.35 401.6 448.978 401.716 449.498 401.948C450.018 402.18 450.418 402.516 450.698 402.956C450.978 403.396 451.118 403.92 451.118 404.528C451.118 405.136 450.978 405.66 450.698 406.1C450.418 406.532 450.018 406.864 449.498 407.096C448.978 407.328 448.35 407.444 447.614 407.444H444.998L445.538 406.892V410H444.338ZM449.954 410L447.818 406.952H449.102L451.262 410H449.954ZM445.538 407.012L444.998 406.424H447.578C448.346 406.424 448.926 406.26 449.318 405.932C449.718 405.596 449.918 405.128 449.918 404.528C449.918 403.928 449.718 403.464 449.318 403.136C448.926 402.808 448.346 402.644 447.578 402.644H444.998L445.538 402.044V407.012Z" fill="#243C47"/>
<path d="M453.057 410V401.6H454.257V410H453.057Z" fill="#243C47"/>
<path d="M460.564 410.096C459.916 410.096 459.32 409.992 458.776 409.784C458.232 409.568 457.76 409.268 457.36 408.884C456.96 408.492 456.648 408.036 456.424 407.516C456.2 406.996 456.088 406.424 456.088 405.8C456.088 405.176 456.2 404.604 456.424 404.084C456.648 403.564 456.96 403.112 457.36 402.728C457.768 402.336 458.244 402.036 458.788 401.828C459.332 401.612 459.932 401.504 460.588 401.504C461.252 401.504 461.86 401.612 462.412 401.828C462.964 402.044 463.432 402.368 463.816 402.8L463.072 403.544C462.728 403.208 462.352 402.964 461.944 402.812C461.544 402.652 461.108 402.572 460.636 402.572C460.156 402.572 459.708 402.652 459.292 402.812C458.884 402.972 458.528 403.196 458.224 403.484C457.928 403.772 457.696 404.116 457.528 404.516C457.368 404.908 457.288 405.336 457.288 405.8C457.288 406.256 457.368 406.684 457.528 407.084C457.696 407.476 457.928 407.82 458.224 408.116C458.528 408.404 458.884 408.628 459.292 408.788C459.7 408.948 460.144 409.028 460.624 409.028C461.072 409.028 461.5 408.96 461.908 408.824C462.324 408.68 462.708 408.444 463.06 408.116L463.744 409.028C463.328 409.38 462.84 409.648 462.28 409.832C461.728 410.008 461.156 410.096 460.564 410.096ZM462.592 408.872V405.752H463.744V409.028L462.592 408.872Z" fill="#243C47"/>
<path d="M466.041 410V401.6H467.241V410H466.041Z" fill="#243C47"/>
<path d="M469.756 410V401.6H470.74L476.296 408.5H475.78V401.6H476.98V410H475.996L470.44 403.1H470.956V410H469.756Z" fill="#243C47"/>
<path d="M481.942 410.096C481.302 410.096 480.69 410 480.106 409.808C479.522 409.608 479.062 409.352 478.726 409.04L479.17 408.104C479.49 408.384 479.898 408.616 480.394 408.8C480.89 408.984 481.406 409.076 481.942 409.076C482.43 409.076 482.826 409.02 483.13 408.908C483.434 408.796 483.658 408.644 483.802 408.452C483.946 408.252 484.018 408.028 484.018 407.78C484.018 407.492 483.922 407.26 483.73 407.084C483.546 406.908 483.302 406.768 482.998 406.664C482.702 406.552 482.374 406.456 482.014 406.376C481.654 406.296 481.29 406.204 480.922 406.1C480.562 405.988 480.23 405.848 479.926 405.68C479.63 405.512 479.39 405.288 479.206 405.008C479.022 404.72 478.93 404.352 478.93 403.904C478.93 403.472 479.042 403.076 479.266 402.716C479.498 402.348 479.85 402.056 480.322 401.84C480.802 401.616 481.41 401.504 482.146 401.504C482.634 401.504 483.118 401.568 483.598 401.696C484.078 401.824 484.494 402.008 484.846 402.248L484.45 403.208C484.09 402.968 483.71 402.796 483.31 402.692C482.91 402.58 482.522 402.524 482.146 402.524C481.674 402.524 481.286 402.584 480.982 402.704C480.678 402.824 480.454 402.984 480.31 403.184C480.174 403.384 480.106 403.608 480.106 403.856C480.106 404.152 480.198 404.388 480.382 404.564C480.574 404.74 480.818 404.88 481.114 404.984C481.418 405.088 481.75 405.184 482.11 405.272C482.47 405.352 482.83 405.444 483.19 405.548C483.558 405.652 483.89 405.788 484.186 405.956C484.49 406.124 484.734 406.348 484.918 406.628C485.102 406.908 485.194 407.268 485.194 407.708C485.194 408.132 485.078 408.528 484.846 408.896C484.614 409.256 484.254 409.548 483.766 409.772C483.286 409.988 482.678 410.096 481.942 410.096Z" fill="#243C47"/>
<g filter="url(#filter3_d_371_1093)">
<path d="M583 124.93C583 119.998 586.998 116 591.93 116H723.07C728.002 116 732 119.998 732 124.93V417.07C732 422.002 728.002 426 723.07 426H591.93C586.998 426 583 422.002 583 417.07V124.93Z" fill="white"/>
</g>
<mask id="mask4_371_1093" style="mask-type:alpha" maskUnits="userSpaceOnUse" x="583" y="116" width="149" height="310">
<path d="M583 124.93C583 119.998 586.998 116 591.93 116H723.07C728.002 116 732 119.998 732 124.93V417.07C732 422.002 728.002 426 723.07 426H591.93C586.998 426 583 422.002 583 417.07V124.93Z" fill="white"/>
</mask>
<g mask="url(#mask4_371_1093)">
<path opacity="0.06" fill-rule="evenodd" clip-rule="evenodd" d="M532 289.592C532 289.592 575.317 291.448 597.776 289.592C630.36 286.898 644.095 252.889 657.832 252.296C680.89 251.301 684.448 289.592 717.888 289.592C749.682 289.592 751.156 215 772.224 215C783.664 215 783.664 215 783.664 215V246.558C783.664 246.558 773.773 242.44 772.224 246.558C754.492 293.725 738.113 321.15 717.888 321.15C687.477 321.15 673.899 283.854 657.832 283.854C642.199 283.854 628.072 321.15 597.776 321.15C574.029 321.15 532 321.15 532 321.15V289.592Z" fill="#243C47"/>
<path opacity="0.25" fill-rule="evenodd" clip-rule="evenodd" d="M532 252.296C532 252.296 543.938 254.263 550.911 249.009C571.853 233.23 582.129 215 598.451 215C636.975 215 624.228 253.669 657.832 252.296C690.799 250.949 684.314 215 717.213 215C744.351 215 747.442 234.333 769.525 249.992C775.355 254.126 783.664 252.296 783.664 252.296V283.854C783.664 283.854 783.664 283.854 772.224 283.854C755.598 283.854 758.429 246.558 717.213 246.558C687.375 246.558 691.6 283.854 657.832 283.854C624.064 283.854 628.017 246.558 598.451 246.558C580.299 246.558 573.055 263.547 548.171 282.024C544.092 285.053 532 283.854 532 283.854V252.296Z" fill="#FDCB5B"/>
<path d="M592.056 215.858C592.056 215.384 592.441 215 592.915 215H602.637C603.111 215 603.495 215.384 603.495 215.858V245.699C603.495 246.174 603.111 246.558 602.637 246.558H592.915C592.441 246.558 592.056 246.174 592.056 245.699V215.858Z" fill="#FDCB5B"/>
<path d="M592.056 253.154C592.056 252.68 592.441 252.296 592.915 252.296H602.637C603.111 252.296 603.495 252.68 603.495 253.154V282.995C603.495 283.469 603.111 283.854 602.637 283.854H592.915C592.441 283.854 592.056 283.469 592.056 282.995V253.154Z" fill="#BBC3C6"/>
<path d="M592.056 290.45C592.056 289.976 592.441 289.592 592.915 289.592H602.637C603.111 289.592 603.495 289.976 603.495 290.45V320.291C603.495 320.765 603.111 321.15 602.637 321.15H592.915C592.441 321.15 592.056 320.765 592.056 320.291V290.45Z" fill="#BBC3C6"/>
<path d="M592.056 327.746C592.056 327.272 592.441 326.887 592.915 326.887H602.637C603.111 326.887 603.495 327.272 603.495 327.746V357.587C603.495 358.061 603.111 358.445 602.637 358.445H592.915C592.441 358.445 592.056 358.061 592.056 357.587V327.746Z" fill="#BBC3C6"/>
<path d="M652.112 253.154C652.112 252.68 652.497 252.296 652.971 252.296H662.693C663.167 252.296 663.551 252.68 663.551 253.154V282.995C663.551 283.469 663.167 283.854 662.693 283.854H652.971C652.497 283.854 652.112 283.469 652.112 282.995V253.154Z" fill="#FDCB5B"/>
<path d="M652.112 290.45C652.112 289.976 652.497 289.592 652.971 289.592H662.693C663.167 289.592 663.551 289.976 663.551 290.45V320.291C663.551 320.765 663.167 321.15 662.693 321.15H652.971C652.497 321.15 652.112 320.765 652.112 320.291V290.45Z" fill="#BBC3C6"/>
<path d="M652.112 327.746C652.112 327.272 652.497 326.887 652.971 326.887H662.693C663.167 326.887 663.551 327.272 663.551 327.746V357.587C663.551 358.061 663.167 358.445 662.693 358.445H652.971C652.497 358.445 652.112 358.061 652.112 357.587V327.746Z" fill="#BBC3C6"/>
<path d="M712.168 215.858C712.168 215.384 712.553 215 713.027 215H722.749C723.223 215 723.608 215.384 723.608 215.858V245.699C723.608 246.174 723.223 246.558 722.749 246.558H713.027C712.553 246.558 712.168 246.174 712.168 245.699V215.858Z" fill="#FDCB5B"/>
<path d="M712.168 253.154C712.168 252.68 712.553 252.296 713.027 252.296H722.749C723.223 252.296 723.608 252.68 723.608 253.154V282.995C723.608 283.469 723.223 283.854 722.749 283.854H713.027C712.553 283.854 712.168 283.469 712.168 282.995V253.154Z" fill="#BBC3C6"/>
<path d="M712.168 290.45C712.168 289.976 712.553 289.592 713.027 289.592H722.749C723.223 289.592 723.608 289.976 723.608 290.45V320.291C723.608 320.765 723.223 321.15 722.749 321.15H713.027C712.553 321.15 712.168 320.765 712.168 320.291V290.45Z" fill="#BBC3C6"/>
<path d="M712.168 327.746C712.168 327.272 712.553 326.887 713.027 326.887H722.749C723.223 326.887 723.608 327.272 723.608 327.746V357.587C723.608 358.061 723.223 358.445 722.749 358.445H713.027C712.553 358.445 712.168 358.061 712.168 357.587V327.746Z" fill="#BBC3C6"/>
<path opacity="0.06" fill-rule="evenodd" clip-rule="evenodd" d="M532 326.887C532 326.887 546.799 297.734 554.59 286.723C568.69 266.795 578.733 252.296 597.776 252.296C629.362 252.296 630.566 326.887 652.112 326.887C658.2 326.887 659.475 326.887 663.551 326.887C681.097 326.887 690.741 327.801 717.888 326.887C736.34 326.266 783.664 326.887 783.664 326.887V358.445C783.664 358.445 736.805 357.915 717.888 358.445C691.882 359.174 681.235 358.445 663.551 358.445C660.285 358.445 654.632 358.445 652.112 358.445C621.173 358.445 627.189 283.854 597.776 283.854C567.548 283.854 563.075 298.396 551.1 326.887C547.029 336.574 543.439 358.445 543.439 358.445C543.439 358.445 532 359.113 532 357.793C532 356.472 532 326.887 532 326.887Z" fill="#243C47"/>
</g>
<path d="M583 158.93C583 153.998 586.998 150 591.93 150H723.07C728.002 150 732 153.998 732 158.93V417.07C732 422.002 728.002 426 723.07 426H591.93C586.998 426 583 422.002 583 417.07V158.93Z" fill="url(#paint3_linear_371_1093)"/>
<path d="M600.928 410V402.644H598.048V401.6H604.996V402.644H602.116V410H600.928Z" fill="#243C47"/>
<path d="M607.395 405.224H611.715V406.244H607.395V405.224ZM607.503 408.956H612.399V410H606.303V401.6H612.231V402.644H607.503V408.956Z" fill="#243C47"/>
<path d="M614.342 410V401.6H617.618C618.354 401.6 618.982 401.716 619.502 401.948C620.022 402.18 620.422 402.516 620.702 402.956C620.982 403.396 621.122 403.92 621.122 404.528C621.122 405.136 620.982 405.66 620.702 406.1C620.422 406.532 620.022 406.864 619.502 407.096C618.982 407.328 618.354 407.444 617.618 407.444H615.002L615.542 406.892V410H614.342ZM619.958 410L617.822 406.952H619.106L621.266 410H619.958ZM615.542 407.012L615.002 406.424H617.582C618.35 406.424 618.93 406.26 619.322 405.932C619.722 405.596 619.922 405.128 619.922 404.528C619.922 403.928 619.722 403.464 619.322 403.136C618.93 402.808 618.35 402.644 617.582 402.644H615.002L615.542 402.044V407.012Z" fill="#243C47"/>
<path d="M623.061 410V401.6H624.045L627.813 407.948H627.285L631.005 401.6H631.989L632.001 410H630.849L630.837 403.412H631.113L627.801 408.98H627.249L623.913 403.412H624.213V410H623.061Z" fill="#243C47"/>
<path d="M636.97 410.096C636.33 410.096 635.718 410 635.134 409.808C634.55 409.608 634.09 409.352 633.754 409.04L634.198 408.104C634.518 408.384 634.926 408.616 635.422 408.8C635.918 408.984 636.434 409.076 636.97 409.076C637.458 409.076 637.854 409.02 638.158 408.908C638.462 408.796 638.686 408.644 638.83 408.452C638.974 408.252 639.046 408.028 639.046 407.78C639.046 407.492 638.95 407.26 638.758 407.084C638.574 406.908 638.33 406.768 638.026 406.664C637.73 406.552 637.402 406.456 637.042 406.376C636.682 406.296 636.318 406.204 635.95 406.1C635.59 405.988 635.258 405.848 634.954 405.68C634.658 405.512 634.418 405.288 634.234 405.008C634.05 404.72 633.958 404.352 633.958 403.904C633.958 403.472 634.07 403.076 634.294 402.716C634.526 402.348 634.878 402.056 635.35 401.84C635.83 401.616 636.438 401.504 637.174 401.504C637.662 401.504 638.146 401.568 638.626 401.696C639.106 401.824 639.522 402.008 639.874 402.248L639.478 403.208C639.118 402.968 638.738 402.796 638.338 402.692C637.938 402.58 637.55 402.524 637.174 402.524C636.702 402.524 636.314 402.584 636.01 402.704C635.706 402.824 635.482 402.984 635.338 403.184C635.202 403.384 635.134 403.608 635.134 403.856C635.134 404.152 635.226 404.388 635.41 404.564C635.602 404.74 635.846 404.88 636.142 404.984C636.446 405.088 636.778 405.184 637.138 405.272C637.498 405.352 637.858 405.444 638.218 405.548C638.586 405.652 638.918 405.788 639.214 405.956C639.518 406.124 639.762 406.348 639.946 406.628C640.13 406.908 640.222 407.268 640.222 407.708C640.222 408.132 640.106 408.528 639.874 408.896C639.642 409.256 639.282 409.548 638.794 409.772C638.314 409.988 637.706 410.096 636.97 410.096Z" fill="#243C47"/>
<path fill-rule="evenodd" clip-rule="evenodd" d="M162.5 72.6247C162.5 63.512 169.887 56.1247 179 56.1247H359.473V57.1247H179C170.44 57.1247 163.5 64.0643 163.5 72.6247V104.238L165.828 101.91C166.024 101.715 166.34 101.715 166.536 101.91C166.731 102.105 166.731 102.422 166.536 102.617L163.354 105.799C163.158 105.994 162.842 105.994 162.646 105.799L159.464 102.617C159.269 102.422 159.269 102.105 159.464 101.91C159.66 101.715 159.976 101.715 160.172 101.91L162.5 104.238V72.6247Z" fill="#243C47"/>
<path fill-rule="evenodd" clip-rule="evenodd" d="M661.553 72.6247C661.553 63.512 654.165 56.1247 645.053 56.1247H466.973V57.1247H645.053C653.613 57.1247 660.553 64.0643 660.553 72.6247V104.238L658.224 101.91C658.029 101.715 657.712 101.715 657.517 101.91C657.322 102.105 657.322 102.422 657.517 102.617L660.699 105.799C660.894 105.994 661.211 105.994 661.406 105.799L664.588 102.617C664.784 102.422 664.784 102.105 664.588 101.91C664.393 101.715 664.076 101.715 663.881 101.91L661.553 104.238V72.6247Z" fill="#243C47"/>
<path fill-rule="evenodd" clip-rule="evenodd" d="M329.973 57V103.893L332.301 101.564C332.496 101.369 332.813 101.369 333.008 101.564C333.203 101.76 333.203 102.076 333.008 102.272L329.826 105.454C329.631 105.649 329.314 105.649 329.119 105.454L325.937 102.272C325.742 102.076 325.742 101.76 325.937 101.564C326.132 101.369 326.449 101.369 326.644 101.564L328.973 103.893V57H329.973Z" fill="#243C47"/>
<path fill-rule="evenodd" clip-rule="evenodd" d="M494.973 56.2143V104.079L497.301 101.75C497.496 101.555 497.813 101.555 498.008 101.75C498.203 101.945 498.203 102.262 498.008 102.457L494.826 105.639C494.631 105.835 494.314 105.835 494.119 105.639L490.937 102.457C490.742 102.262 490.742 101.945 490.937 101.75C491.132 101.555 491.449 101.555 491.644 101.75L493.973 104.079V56.2143H494.973Z" fill="#243C47"/>
</g>
<defs>
<filter id="filter0_d_371_1093" x="65" y="90" width="198" height="358" filterUnits="userSpaceOnUse" color-interpolation-filters="sRGB">
<feFlood flood-opacity="0" result="BackgroundImageFix"/>
<feColorMatrix in="SourceAlpha" type="matrix" values="0 0 0 0 0 0 0 0 0 0 0 0 0 0 0 0 0 0 127 0" result="hardAlpha"/>
<feOffset dy="-2"/>
<feGaussianBlur stdDeviation="12"/>
<feColorMatrix type="matrix" values="0 0 0 0 0.141176 0 0 0 0 0.235294 0 0 0 0 0.278431 0 0 0 0.1 0"/>
<feBlend mode="normal" in2="BackgroundImageFix" result="effect1_dropShadow_371_1093"/>
<feBlend mode="normal" in="SourceGraphic" in2="effect1_dropShadow_371_1093" result="shape"/>
</filter>
<filter id="filter1_d_371_1093" x="230" y="90" width="197" height="358" filterUnits="userSpaceOnUse" color-interpolation-filters="sRGB">
<feFlood flood-opacity="0" result="BackgroundImageFix"/>
<feColorMatrix in="SourceAlpha" type="matrix" values="0 0 0 0 0 0 0 0 0 0 0 0 0 0 0 0 0 0 127 0" result="hardAlpha"/>
<feOffset dy="-2"/>
<feGaussianBlur stdDeviation="12"/>
<feColorMatrix type="matrix" values="0 0 0 0 0.141176 0 0 0 0 0.235294 0 0 0 0 0.278431 0 0 0 0.1 0"/>
<feBlend mode="normal" in2="BackgroundImageFix" result="effect1_dropShadow_371_1093"/>
<feBlend mode="normal" in="SourceGraphic" in2="effect1_dropShadow_371_1093" result="shape"/>
</filter>
<filter id="filter2_d_371_1093" x="394" y="90" width="198" height="358" filterUnits="userSpaceOnUse" color-interpolation-filters="sRGB">
<feFlood flood-opacity="0" result="BackgroundImageFix"/>
<feColorMatrix in="SourceAlpha" type="matrix" values="0 0 0 0 0 0 0 0 0 0 0 0 0 0 0 0 0 0 127 0" result="hardAlpha"/>
<feOffset dy="-2"/>
<feGaussianBlur stdDeviation="12"/>
<feColorMatrix type="matrix" values="0 0 0 0 0.141176 0 0 0 0 0.235294 0 0 0 0 0.278431 0 0 0 0.1 0"/>
<feBlend mode="normal" in2="BackgroundImageFix" result="effect1_dropShadow_371_1093"/>
<feBlend mode="normal" in="SourceGraphic" in2="effect1_dropShadow_371_1093" result="shape"/>
</filter>
<filter id="filter3_d_371_1093" x="559" y="90" width="197" height="358" filterUnits="userSpaceOnUse" color-interpolation-filters="sRGB">
<feFlood flood-opacity="0" result="BackgroundImageFix"/>
<feColorMatrix in="SourceAlpha" type="matrix" values="0 0 0 0 0 0 0 0 0 0 0 0 0 0 0 0 0 0 127 0" result="hardAlpha"/>
<feOffset dy="-2"/>
<feGaussianBlur stdDeviation="12"/>
<feColorMatrix type="matrix" values="0 0 0 0 0.141176 0 0 0 0 0.235294 0 0 0 0 0.278431 0 0 0 0.1 0"/>
<feBlend mode="normal" in2="BackgroundImageFix" result="effect1_dropShadow_371_1093"/>
<feBlend mode="normal" in="SourceGraphic" in2="effect1_dropShadow_371_1093" result="shape"/>
</filter>
<linearGradient id="paint0_linear_371_1093" x1="120.082" y1="202.455" x2="120.082" y2="358.804" gradientUnits="userSpaceOnUse">
<stop stop-color="white" stop-opacity="0.01"/>
<stop offset="1" stop-color="white"/>
</linearGradient>
<linearGradient id="paint1_linear_371_1093" x1="284.875" y1="205" x2="284.875" y2="377.5" gradientUnits="userSpaceOnUse">
<stop stop-color="white" stop-opacity="0.01"/>
<stop offset="1" stop-color="white"/>
</linearGradient>
<linearGradient id="paint2_linear_371_1093" x1="449.082" y1="194.92" x2="449.082" y2="359" gradientUnits="userSpaceOnUse">
<stop stop-color="white" stop-opacity="0.01"/>
<stop offset="1" stop-color="white"/>
</linearGradient>
<linearGradient id="paint3_linear_371_1093" x1="613.875" y1="194.92" x2="613.875" y2="356.539" gradientUnits="userSpaceOnUse">
<stop stop-color="white" stop-opacity="0.01"/>
<stop offset="1" stop-color="white"/>
</linearGradient>
<clipPath id="clip0_371_1093">
<rect width="822" height="474" fill="white"/>
</clipPath>
</defs>
</svg>
