<?xml version="1.0" encoding="UTF-8"?>
<svg width="766px" height="466px" viewBox="0 0 766 466" version="1.1" xmlns="http://www.w3.org/2000/svg" xmlns:xlink="http://www.w3.org/1999/xlink">
    <title>illustration/results/module/partI/Sorting v.2 Copy</title>
    <defs>
        <filter x="-20.8%" y="-20.9%" width="141.5%" height="141.9%" filterUnits="objectBoundingBox" id="filter-1">
            <feOffset dx="0" dy="4" in="SourceAlpha" result="shadowOffsetOuter1"></feOffset>
            <feGaussianBlur stdDeviation="5" in="shadowOffsetOuter1" result="shadowBlurOuter1"></feGaussianBlur>
            <feColorMatrix values="0 0 0 0 0   0 0 0 0 0   0 0 0 0 0  0 0 0 0.0847039923 0" type="matrix" in="shadowBlurOuter1" result="shadowMatrixOuter1"></feColorMatrix>
            <feMerge>
                <feMergeNode in="shadowMatrixOuter1"></feMergeNode>
                <feMergeNode in="SourceGraphic"></feMergeNode>
            </feMerge>
        </filter>
    </defs>
    <g id="illustration/results/module/partI/Sorting-v.2-Copy" stroke="none" stroke-width="1" fill="none" fill-rule="evenodd">
        <rect fill="#FFFFFF" x="0" y="0" width="766" height="466"></rect>
        <g id="Results" transform="translate(40.848428, 126.246249)" opacity="0.626521519">
            <g id="gridProduct" transform="translate(137.877280, 175.300607)">
                <rect id="Rectangle-Copy-13" fill="#E2E6E7" x="0" y="0" width="123.367993" height="144.398787" rx="5"></rect>
                <rect id="Rectangle" fill="#FFFFFF" x="11.9071648" y="9.9264363" width="99.5536636" height="78.1159342" rx="4.26584808"></rect>
                <g id="faketitle" transform="translate(28.074529, 97.301728)" fill="#BBC3C6">
                    <rect id="Rectangle-Copy-10" x="-3.55271368e-15" y="0" width="63.7808871" height="9.84537183" rx="4.26584808"></rect>
                </g>
                <g id="fakecart" transform="translate(10.242482, 115.996234)" fill="#BBC3C6">
                    <rect id="Rectangle-Copy-10" x="0" y="0" width="99.4449805" height="18.4761166" rx="9.2380583"></rect>
                </g>
            </g>
            <g id="gridProduct" transform="translate(0.000000, 175.300607)">
                <rect id="Rectangle-Copy-13" fill="#E2E6E7" x="-2.31273228e-16" y="0" width="123.367993" height="144.398787" rx="5"></rect>
                <rect id="Rectangle" fill="#FFFFFF" x="11.9071648" y="9.9264363" width="99.5536636" height="78.1159342" rx="4.26584808"></rect>
                <g id="faketitle" transform="translate(28.074529, 97.301728)" fill="#BBC3C6">
                    <rect id="Rectangle-Copy-10" x="-3.55271368e-15" y="0" width="63.7808871" height="9.84537183" rx="4.26584808"></rect>
                </g>
                <g id="fakecart" transform="translate(10.242482, 115.996234)" fill="#BBC3C6">
                    <rect id="Rectangle-Copy-10" x="0" y="0" width="99.4449805" height="18.4761166" rx="9.2380583"></rect>
                </g>
            </g>
            <g id="gridProduct" transform="translate(275.754560, 175.300607)">
                <rect id="Rectangle-Copy-13" fill="#E2E6E7" x="0" y="0" width="123.367993" height="144.398787" rx="5"></rect>
                <rect id="Rectangle" fill="#FFFFFF" x="11.9071648" y="9.9264363" width="99.5536636" height="78.1159342" rx="4.26584808"></rect>
                <g id="faketitle" transform="translate(28.074529, 97.301728)" fill="#BBC3C6">
                    <rect id="Rectangle-Copy-10" x="-3.55271368e-15" y="0" width="63.7808871" height="9.84537183" rx="4.26584808"></rect>
                </g>
                <g id="fakecart" transform="translate(10.242482, 115.996234)" fill="#BBC3C6">
                    <rect id="Rectangle-Copy-10" x="0" y="0" width="99.4449805" height="18.4761166" rx="9.2380583"></rect>
                </g>
            </g>
            <g id="gridProduct" transform="translate(413.631840, 175.300607)">
                <rect id="Rectangle-Copy-13" fill="#E2E6E7" x="0" y="0" width="123.367993" height="144.398787" rx="5"></rect>
                <rect id="Rectangle" fill="#FFFFFF" x="11.9071648" y="9.9264363" width="99.5536636" height="78.1159342" rx="4.26584808"></rect>
                <g id="faketitle" transform="translate(28.074529, 97.301728)" fill="#BBC3C6">
                    <rect id="Rectangle-Copy-10" x="-3.55271368e-15" y="0" width="63.7808871" height="9.84537183" rx="4.26584808"></rect>
                </g>
                <g id="fakecart" transform="translate(10.242482, 115.996234)" fill="#BBC3C6">
                    <rect id="Rectangle-Copy-10" x="0" y="0" width="99.4449805" height="18.4761166" rx="9.2380583"></rect>
                </g>
            </g>
            <g id="gridProduct" transform="translate(551.509120, 175.300607)">
                <rect id="Rectangle-Copy-13" fill="#E2E6E7" x="0" y="0" width="123.367993" height="144.398787" rx="5"></rect>
                <rect id="Rectangle" fill="#FFFFFF" x="11.9071648" y="9.9264363" width="99.5536636" height="78.1159342" rx="4.26584808"></rect>
                <g id="faketitle" transform="translate(28.074529, 97.301728)" fill="#BBC3C6">
                    <rect id="Rectangle-Copy-10" x="-3.55271368e-15" y="0" width="63.7808871" height="9.84537183" rx="4.26584808"></rect>
                </g>
                <g id="fakecart" transform="translate(10.242482, 115.996234)" fill="#BBC3C6">
                    <rect id="Rectangle-Copy-10" x="0" y="0" width="99.4449805" height="18.4761166" rx="9.2380583"></rect>
                </g>
            </g>
            <g id="gridProduct" transform="translate(137.877280, 0.000000)">
                <rect id="Rectangle-Copy-13" fill="#E2E6E7" x="0" y="0" width="123.367993" height="144.398787" rx="5"></rect>
                <rect id="Rectangle" fill="#FFFFFF" x="11.9071648" y="9.9264363" width="99.5536636" height="78.1159342" rx="4.26584808"></rect>
                <g id="faketitle" transform="translate(28.074529, 97.301728)" fill="#BBC3C6">
                    <rect id="Rectangle-Copy-10" x="-3.55271368e-15" y="0" width="63.7808871" height="9.84537183" rx="4.26584808"></rect>
                </g>
                <g id="fakecart" transform="translate(10.242482, 115.996234)" fill="#BBC3C6">
                    <rect id="Rectangle-Copy-10" x="0" y="0" width="99.4449805" height="18.4761166" rx="9.2380583"></rect>
                </g>
            </g>
            <g id="gridProduct" transform="translate(0.000000, 0.000000)">
                <rect id="Rectangle-Copy-13" fill="#E2E6E7" x="-2.31273228e-16" y="0" width="123.367993" height="144.398787" rx="5"></rect>
                <rect id="Rectangle" fill="#FFFFFF" x="11.9071648" y="9.9264363" width="99.5536636" height="78.1159342" rx="4.26584808"></rect>
                <g id="faketitle" transform="translate(28.074529, 97.301728)" fill="#BBC3C6">
                    <rect id="Rectangle-Copy-10" x="-3.55271368e-15" y="0" width="63.7808871" height="9.84537183" rx="4.26584808"></rect>
                </g>
                <g id="fakecart" transform="translate(10.242482, 115.996234)" fill="#BBC3C6">
                    <rect id="Rectangle-Copy-10" x="0" y="0" width="99.4449805" height="18.4761166" rx="9.2380583"></rect>
                </g>
            </g>
            <g id="gridProduct" transform="translate(275.754560, 0.000000)">
                <rect id="Rectangle-Copy-13" fill="#E2E6E7" x="0" y="0" width="123.367993" height="144.398787" rx="5"></rect>
                <rect id="Rectangle" fill="#FFFFFF" x="11.9071648" y="9.9264363" width="99.5536636" height="78.1159342" rx="4.26584808"></rect>
                <g id="faketitle" transform="translate(28.074529, 97.301728)" fill="#BBC3C6">
                    <rect id="Rectangle-Copy-10" x="-3.55271368e-15" y="0" width="63.7808871" height="9.84537183" rx="4.26584808"></rect>
                </g>
                <g id="fakecart" transform="translate(10.242482, 115.996234)" fill="#BBC3C6">
                    <rect id="Rectangle-Copy-10" x="0" y="0" width="99.4449805" height="18.4761166" rx="9.2380583"></rect>
                </g>
            </g>
            <g id="gridProduct" transform="translate(413.631840, 0.000000)">
                <rect id="Rectangle-Copy-13" fill="#E2E6E7" x="0" y="0" width="123.367993" height="144.398787" rx="5"></rect>
                <rect id="Rectangle" fill="#FFFFFF" x="11.9071648" y="9.9264363" width="99.5536636" height="78.1159342" rx="4.26584808"></rect>
                <g id="faketitle" transform="translate(28.074529, 97.301728)" fill="#BBC3C6">
                    <rect id="Rectangle-Copy-10" x="-3.55271368e-15" y="0" width="63.7808871" height="9.84537183" rx="4.26584808"></rect>
                </g>
                <g id="fakecart" transform="translate(10.242482, 115.996234)" fill="#BBC3C6">
                    <rect id="Rectangle-Copy-10" x="0" y="0" width="99.4449805" height="18.4761166" rx="9.2380583"></rect>
                </g>
            </g>
            <g id="gridProduct" transform="translate(551.509120, 0.000000)">
                <rect id="Rectangle-Copy-13" fill="#E2E6E7" x="0" y="0" width="123.367993" height="144.398787" rx="5"></rect>
                <rect id="Rectangle" fill="#FFFFFF" x="11.9071648" y="9.9264363" width="99.5536636" height="78.1159342" rx="4.26584808"></rect>
                <g id="faketitle" transform="translate(28.074529, 97.301728)" fill="#BBC3C6">
                    <rect id="Rectangle-Copy-10" x="-3.55271368e-15" y="0" width="63.7808871" height="9.84537183" rx="4.26584808"></rect>
                </g>
                <g id="fakecart" transform="translate(10.242482, 115.996234)" fill="#BBC3C6">
                    <rect id="Rectangle-Copy-10" x="0" y="0" width="99.4449805" height="18.4761166" rx="9.2380583"></rect>
                </g>
            </g>
        </g>
        <rect id="Rectangle" stroke="#D3D3D3" fill="#FFFFFF" x="200.340591" y="42" width="515.516607" height="23.5" rx="11.75"></rect>
        <g id="Group" transform="translate(697.180917, 48.586933)" stroke="#D3D3D3">
            <circle id="Oval" fill="#FFFFFF" cx="4.78029079" cy="4.78029079" r="4.28029079"></circle>
            <line x1="8.29332654" y1="7.81681274" x2="11.0576172" y2="10.5811034" id="Path-21" stroke-linecap="round"></line>
        </g>
        <rect id="Rectangle" fill="#BBC3C6" x="209.826901" y="48.5869335" width="55.2708174" height="10.5811034" rx="3"></rect>
        <path d="M737.3158,-0.942545 L27.7412515,-0.942545 C11.9153824,-0.942545 -0.914019474,11.8868568 -0.914019474,27.712726 L-0.914019474,437.287274 C-0.914019474,453.113143 11.9153824,465.942545 27.7412515,465.942545 L737.3158,465.942545 C753.141669,465.942545 765.971071,453.113143 765.971071,437.287274 L765.971071,27.712726 C765.971071,11.8868568 753.141669,-0.942545 737.3158,-0.942545 Z M737.3158,20.5 C741.299278,20.5 744.528526,23.7292474 744.528526,27.712726 L744.528526,437.287274 C744.528526,441.270753 741.299278,444.5 737.3158,444.5 L27.7412515,444.5 C23.757773,444.5 20.5285255,441.270753 20.5285255,437.287274 L20.5285255,27.712726 C20.5285255,23.7292474 23.757773,20.5 27.7412515,20.5 L737.3158,20.5 Z" id="Rectangle" fill="#202020" fill-rule="nonzero"></path>
        <rect id="Rectangle" fill="#243C47" x="40" y="40.75" width="144" height="26" rx="13"></rect>
        <g id="Sorting" transform="translate(585.000000, 90.000000)">
            <g id="Group-6" filter="url(#filter-1)">
                <g id="Group-2" transform="translate(0.000000, 1.000000)" fill="#FFFFFF" stroke="#80C0A1">
                    <rect id="Rectangle" x="0.5" y="0.5" width="129" height="127" rx="10.75"></rect>
                </g>
                <g fill="#80C0A1" id="Group-2">
                    <rect id="Rectangle" x="0" y="0" width="130" height="22" rx="10.75"></rect>
                </g>
                <g id="Sort-by…" transform="translate(46.733500, 6.693000)" fill="#FFFFFF" fill-rule="nonzero">
                    <path d="M2.346,6.392 C1.887,6.392 1.44358333,6.32683333 1.01575,6.1965 C0.587916667,6.06616667 0.249333333,5.89333333 0,5.678 L0.3825,4.8195 C0.626166667,5.01216667 0.925083333,5.16941667 1.27925,5.29125 C1.63341667,5.41308333 1.989,5.474 2.346,5.474 C2.788,5.474 3.11808333,5.40316667 3.33625,5.2615 C3.55441667,5.11983333 3.6635,4.93283333 3.6635,4.7005 C3.6635,4.5305 3.60258333,4.39025 3.48075,4.27975 C3.35891667,4.16925 3.2045,4.08283333 3.0175,4.0205 C2.8305,3.95816667 2.5755,3.88733333 2.2525,3.808 C1.79916667,3.70033333 1.43225,3.59266667 1.15175,3.485 C0.87125,3.37733333 0.630416667,3.20875 0.42925,2.97925 C0.228083333,2.74975 0.1275,2.4395 0.1275,2.0485 C0.1275,1.71983333 0.21675,1.42091667 0.39525,1.15175 C0.57375,0.882583333 0.842916667,0.668666667 1.20275,0.51 C1.56258333,0.351333333 2.00316667,0.272 2.5245,0.272 C2.88716667,0.272 3.24416667,0.317333333 3.5955,0.408 C3.94683333,0.498666667 4.25,0.629 4.505,0.799 L4.1565,1.6575 C3.89583333,1.5045 3.62383333,1.38833333 3.3405,1.309 C3.05716667,1.22966667 2.78233333,1.19 2.516,1.19 C2.07966667,1.19 1.75525,1.26366667 1.54275,1.411 C1.33025,1.55833333 1.224,1.75383333 1.224,1.9975 C1.224,2.1675 1.28491667,2.30633333 1.40675,2.414 C1.52858333,2.52166667 1.683,2.60666667 1.87,2.669 C2.057,2.73133333 2.312,2.80216667 2.635,2.8815 C3.077,2.9835 3.43966667,3.08975 3.723,3.20025 C4.00633333,3.31075 4.24858333,3.47933333 4.44975,3.706 C4.65091667,3.93266667 4.7515,4.23866667 4.7515,4.624 C4.7515,4.95266667 4.66225,5.25016667 4.48375,5.5165 C4.30525,5.78283333 4.03466667,5.99533333 3.672,6.154 C3.30933333,6.31266667 2.86733333,6.392 2.346,6.392 Z" id="Path"></path>
                    <path d="M7.786,6.3665 C7.327,6.3665 6.91333333,6.26733333 6.545,6.069 C6.17666667,5.87066667 5.88908333,5.59441667 5.68225,5.24025 C5.47541667,4.88608333 5.372,4.48516667 5.372,4.0375 C5.372,3.58983333 5.47541667,3.19033333 5.68225,2.839 C5.88908333,2.48766667 6.17666667,2.21283333 6.545,2.0145 C6.91333333,1.81616667 7.327,1.717 7.786,1.717 C8.25066667,1.717 8.66716667,1.81616667 9.0355,2.0145 C9.40383333,2.21283333 9.69141667,2.48766667 9.89825,2.839 C10.1050833,3.19033333 10.2085,3.58983333 10.2085,4.0375 C10.2085,4.48516667 10.1050833,4.88608333 9.89825,5.24025 C9.69141667,5.59441667 9.40383333,5.87066667 9.0355,6.069 C8.66716667,6.26733333 8.25066667,6.3665 7.786,6.3665 Z M7.786,5.457 C8.177,5.457 8.5,5.32666667 8.755,5.066 C9.01,4.80533333 9.1375,4.4625 9.1375,4.0375 C9.1375,3.6125 9.01,3.26966667 8.755,3.009 C8.5,2.74833333 8.177,2.618 7.786,2.618 C7.395,2.618 7.07341667,2.74833333 6.82125,3.009 C6.56908333,3.26966667 6.443,3.6125 6.443,4.0375 C6.443,4.4625 6.56908333,4.80533333 6.82125,5.066 C7.07341667,5.32666667 7.395,5.457 7.786,5.457 Z" id="Shape"></path>
                    <path d="M12.24,2.431 C12.546,1.955 13.0843333,1.717 13.855,1.717 L13.855,2.7285 C13.7643333,2.7115 13.6821667,2.703 13.6085,2.703 C13.1948333,2.703 12.8718333,2.82341667 12.6395,3.06425 C12.4071667,3.30508333 12.291,3.65216667 12.291,4.1055 L12.291,6.307 L11.2285,6.307 L11.2285,1.768 L12.24,1.768 L12.24,2.431 Z" id="Path"></path>
                    <path d="M17.6545,6.0605 C17.5298333,6.1625 17.37825,6.239 17.19975,6.29 C17.02125,6.341 16.8328333,6.3665 16.6345,6.3665 C16.1358333,6.3665 15.7505,6.23616667 15.4785,5.9755 C15.2065,5.71483333 15.0705,5.33516667 15.0705,4.8365 L15.0705,2.652 L14.3225,2.652 L14.3225,1.802 L15.0705,1.802 L15.0705,0.765 L16.133,0.765 L16.133,1.802 L17.3485,1.802 L17.3485,2.652 L16.133,2.652 L16.133,4.811 C16.133,5.032 16.1868333,5.20058333 16.2945,5.31675 C16.4021667,5.43291667 16.558,5.491 16.762,5.491 C17,5.491 17.1983333,5.42866667 17.357,5.304 L17.6545,6.0605 Z" id="Path"></path>
                    <path d="M23.392,1.717 C23.834,1.717 24.22925,1.81333333 24.57775,2.006 C24.92625,2.19866667 25.1996667,2.47066667 25.398,2.822 C25.5963333,3.17333333 25.6955,3.5785 25.6955,4.0375 C25.6955,4.4965 25.5963333,4.90308333 25.398,5.25725 C25.1996667,5.61141667 24.92625,5.88483333 24.57775,6.0775 C24.22925,6.27016667 23.834,6.3665 23.392,6.3665 C23.0803333,6.3665 22.7955833,6.31266667 22.53775,6.205 C22.2799167,6.09733333 22.0631667,5.93583333 21.8875,5.7205 L21.8875,6.307 L20.876,6.307 L20.876,0 L21.9385,0 L21.9385,2.3205 C22.1198333,2.12216667 22.33375,1.972 22.58025,1.87 C22.82675,1.768 23.0973333,1.717 23.392,1.717 Z M23.273,5.457 C23.664,5.457 23.9855833,5.32666667 24.23775,5.066 C24.4899167,4.80533333 24.616,4.4625 24.616,4.0375 C24.616,3.6125 24.4899167,3.26966667 24.23775,3.009 C23.9855833,2.74833333 23.664,2.618 23.273,2.618 C23.018,2.618 22.7885,2.67608333 22.5845,2.79225 C22.3805,2.90841667 22.219,3.07416667 22.1,3.2895 C21.981,3.50483333 21.9215,3.75416667 21.9215,4.0375 C21.9215,4.32083333 21.981,4.57016667 22.1,4.7855 C22.219,5.00083333 22.3805,5.16658333 22.5845,5.28275 C22.7885,5.39891667 23.018,5.457 23.273,5.457 Z" id="Shape"></path>
                    <path d="M30.8295,1.768 L28.7045,6.6725 C28.5061667,7.1655 28.2653333,7.51258333 27.982,7.71375 C27.6986667,7.91491667 27.3558333,8.0155 26.9535,8.0155 C26.7268333,8.0155 26.503,7.97866667 26.282,7.905 C26.061,7.83133333 25.8796667,7.72933333 25.738,7.599 L26.163,6.817 C26.265,6.91333333 26.3854167,6.98983333 26.52425,7.0465 C26.6630833,7.10316667 26.8033333,7.1315 26.945,7.1315 C27.132,7.1315 27.2864167,7.08333333 27.40825,6.987 C27.5300833,6.89066667 27.642,6.72916667 27.744,6.5025 L27.8205,6.324 L25.84,1.768 L26.945,1.768 L28.373,5.1255 L29.8095,1.768 L30.8295,1.768 Z" id="Path"></path>
                    <path d="M31.552,6.3665 C31.3593333,6.3665 31.195,6.29991667 31.059,6.16675 C30.923,6.03358333 30.855,5.865 30.855,5.661 C30.855,5.45133333 30.9215833,5.28133333 31.05475,5.151 C31.1879167,5.02066667 31.3536667,4.9555 31.552,4.9555 C31.7503333,4.9555 31.9160833,5.02066667 32.04925,5.151 C32.1824167,5.28133333 32.249,5.45133333 32.249,5.661 C32.249,5.865 32.181,6.03358333 32.045,6.16675 C31.909,6.29991667 31.7446667,6.3665 31.552,6.3665 Z M33.6685,6.3665 C33.4758333,6.3665 33.3115,6.29991667 33.1755,6.16675 C33.0395,6.03358333 32.9715,5.865 32.9715,5.661 C32.9715,5.45133333 33.0380833,5.28133333 33.17125,5.151 C33.3044167,5.02066667 33.4701667,4.9555 33.6685,4.9555 C33.8668333,4.9555 34.0325833,5.02066667 34.16575,5.151 C34.2989167,5.28133333 34.3655,5.45133333 34.3655,5.661 C34.3655,5.865 34.2975,6.03358333 34.1615,6.16675 C34.0255,6.29991667 33.8611667,6.3665 33.6685,6.3665 Z M35.7935,6.3665 C35.6008333,6.3665 35.4365,6.29991667 35.3005,6.16675 C35.1645,6.03358333 35.0965,5.865 35.0965,5.661 C35.0965,5.45133333 35.1630833,5.28133333 35.29625,5.151 C35.4294167,5.02066667 35.5951667,4.9555 35.7935,4.9555 C35.9918333,4.9555 36.1575833,5.02066667 36.29075,5.151 C36.4239167,5.28133333 36.4905,5.45133333 36.4905,5.661 C36.4905,5.865 36.4225,6.03358333 36.2865,6.16675 C36.1505,6.29991667 35.9861667,6.3665 35.7935,6.3665 Z" id="Shape"></path>
                </g>
            </g>
            <polyline id="Path-36" stroke="#FFFFFF" stroke-linecap="round" stroke-linejoin="round" transform="translate(117.500000, 10.750000) rotate(-180.000000) translate(-117.500000, -10.750000) " points="114 9 117.5 12.5 121 9"></polyline>
            <g id="Group-3" transform="translate(9.000000, 34.000000)">
                <rect id="Rectangle" fill="#BBC3C6" x="18" y="0" width="70" height="11" rx="2"></rect>
                <circle id="Oval" stroke="#BBC3C6" fill="#FFFFFF" cx="5.5" cy="5.5" r="5"></circle>
            </g>
            <g id="Group-3-Copy" transform="translate(9.000000, 57.000000)">
                <rect id="Rectangle" fill="#80C0A1" x="18" y="0" width="49" height="11" rx="2"></rect>
                <circle id="Oval" stroke="#BBC3C6" fill="#1E3D49" cx="5.5" cy="5.5" r="5"></circle>
            </g>
            <g id="Group-3-Copy-2" transform="translate(9.000000, 80.000000)">
                <rect id="Rectangle" fill="#BBC3C6" x="18" y="0" width="94" height="11" rx="2"></rect>
                <circle id="Oval" stroke="#BBC3C6" fill="#FFFFFF" cx="5.5" cy="5.5" r="5"></circle>
            </g>
            <g id="Group-3-Copy-3" transform="translate(9.000000, 103.000000)">
                <rect id="Rectangle" fill="#BBC3C6" x="18" y="0" width="83" height="11" rx="2"></rect>
                <circle id="Oval" stroke="#BBC3C6" fill="#FFFFFF" cx="5.5" cy="5.5" r="5"></circle>
            </g>
        </g>
    </g>
</svg>