<?xml version="1.0" encoding="UTF-8"?>
<svg width="766px" height="466px" viewBox="0 0 766 466" version="1.1" xmlns="http://www.w3.org/2000/svg" xmlns:xlink="http://www.w3.org/1999/xlink">
    <title>9_synonyms</title>
    <defs>
        <rect id="path-1" x="0" y="0" width="766" height="466"></rect>
        <linearGradient x1="50%" y1="0%" x2="50%" y2="100%" id="linearGradient-3">
            <stop stop-color="#FFFFFF" stop-opacity="0" offset="0%"></stop>
            <stop stop-color="#FFFFFF" offset="100%"></stop>
        </linearGradient>
    </defs>
    <g id="9_synonyms" stroke="none" stroke-width="1" fill="none" fill-rule="evenodd">
        <rect fill="#FFFFFF" x="0" y="0" width="766" height="466"></rect>
        <mask id="mask-2" fill="white">
            <use xlink:href="#path-1"></use>
        </mask>
        <use id="Mask" fill="#FFFFFF" xlink:href="#path-1"></use>
        <path d="M738.058091,0.0329758894 L287.483543,0.0329758894 C271.657674,0.0329758894 258.828272,12.8623777 258.828272,28.6882469 L258.828272,353.262795 C258.828272,369.088664 271.657674,381.918066 287.483543,381.918066 L738.058091,381.918066 C753.883961,381.918066 766.713362,369.088664 766.713362,353.262795 L766.713362,28.6882469 C766.713362,12.8623777 753.883961,0.0329758894 738.058091,0.0329758894 Z M738.058091,21.4755209 C742.04157,21.4755209 745.270817,24.7047683 745.270817,28.6882469 L745.270817,353.262795 C745.270817,357.246273 742.04157,360.475521 738.058091,360.475521 L287.483543,360.475521 C283.500065,360.475521 280.270817,357.246273 280.270817,353.262795 L280.270817,28.6882469 C280.270817,24.7047683 283.500065,21.4755209 287.483543,21.4755209 L738.058091,21.4755209 Z" id="Rectangle" fill="#202020" fill-rule="nonzero" mask="url(#mask-2)"></path>
        <g id="Group-3" opacity="0.413787115" transform="translate(305.920658, 155.000000)">
            <rect id="Rectangle" fill="#BBC3C6" x="190.26026" y="21.2999826" width="73" height="14" rx="4"></rect>
            <rect id="Rectangle" fill="#BBC3C6" x="276.26026" y="21.2999826" width="66" height="14" rx="4"></rect>
            <text id="Term" font-family="Montserrat-Regular, Montserrat" font-size="11" font-weight="normal" fill="#000000">
                <tspan x="0" y="11">TERM</tspan>
            </text>
            <text id="Synonyms-(4)" font-family="Montserrat-Regular, Montserrat" font-size="11" font-weight="normal" fill="#000000">
                <tspan x="110.26026" y="11">SYNONYMS (4)</tspan>
            </text>
            <text id="+" transform="translate(247.940606, 28.299983) rotate(-45.000000) translate(-247.940606, -28.299983) " font-family="Montserrat-Light, Montserrat" font-size="18" font-weight="300" fill="#000000">
                <tspan x="242.440606" y="34.2999826">+</tspan>
            </text>
            <text id="+" transform="translate(333.940606, 28.299983) rotate(-45.000000) translate(-333.940606, -28.299983) " font-family="Montserrat-Light, Montserrat" font-size="18" font-weight="300" fill="#000000">
                <tspan x="328.440606" y="34.2999826">+</tspan>
            </text>
            <rect id="Rectangle" fill="#BBC3C6" x="355.26026" y="21.2999826" width="66" height="14" rx="4"></rect>
            <text id="+" transform="translate(412.940606, 28.299983) rotate(-45.000000) translate(-412.940606, -28.299983) " font-family="Montserrat-Light, Montserrat" font-size="18" font-weight="300" fill="#000000">
                <tspan x="407.440606" y="34.2999826">+</tspan>
            </text>
            <rect id="Rectangle" fill="#BBC3C6" x="190.26026" y="171.299983" width="66" height="14" rx="4"></rect>
            <rect id="Rectangle" fill="#BBC3C6" x="270.26026" y="171.299983" width="66" height="14" rx="4"></rect>
            <text id="+" transform="translate(247.940606, 178.299983) rotate(-45.000000) translate(-247.940606, -178.299983) " font-family="Montserrat-Light, Montserrat" font-size="18" font-weight="300" fill="#000000">
                <tspan x="242.440606" y="184.299983">+</tspan>
            </text>
            <text id="+" transform="translate(327.940606, 178.299983) rotate(-45.000000) translate(-327.940606, -178.299983) " font-family="Montserrat-Light, Montserrat" font-size="18" font-weight="300" fill="#000000">
                <tspan x="322.440606" y="184.299983">+</tspan>
            </text>
            <rect id="Rectangle" fill="#BBC3C6" x="346.26026" y="171.299983" width="66" height="14" rx="4"></rect>
            <text id="+" transform="translate(403.940606, 178.299983) rotate(-45.000000) translate(-403.940606, -178.299983) " font-family="Montserrat-Light, Montserrat" font-size="18" font-weight="300" fill="#000000">
                <tspan x="398.440606" y="184.299983">+</tspan>
            </text>
            <rect id="Rectangle" fill="#BBC3C6" x="170.26026" y="121.299983" width="66" height="14" rx="4"></rect>
            <rect id="Rectangle" fill="#BBC3C6" x="250.26026" y="121.299983" width="66" height="14" rx="4"></rect>
            <rect id="Rectangle" stroke="#D3D3D3" x="326.201538" y="121.799983" width="44" height="13" rx="4"></rect>
            <text id="+" transform="translate(227.940606, 128.299983) rotate(-45.000000) translate(-227.940606, -128.299983) " font-family="Montserrat-Light, Montserrat" font-size="18" font-weight="300" fill="#000000">
                <tspan x="222.440606" y="134.299983">+</tspan>
            </text>
            <text id="+" transform="translate(307.940606, 128.299983) rotate(-45.000000) translate(-307.940606, -128.299983) " font-family="Montserrat-Light, Montserrat" font-size="18" font-weight="300" fill="#000000">
                <tspan x="302.440606" y="134.299983">+</tspan>
            </text>
            <text id="+" transform="translate(359.592998, 128.299983) rotate(-90.000000) translate(-359.592998, -128.299983) " font-family="Montserrat-Light, Montserrat" font-size="18" font-weight="300" fill="#000000">
                <tspan x="354.092998" y="134.299983">+</tspan>
            </text>
            <text id="ADD" font-family="Montserrat-SemiBold, Montserrat" font-size="7" font-weight="500" fill="#000000">
                <tspan x="333.513655" y="130.799983">ADD</tspan>
            </text>
            <rect id="Rectangle" fill="#BBC3C6" x="190.26026" y="71.2999826" width="99.5" height="14" rx="4"></rect>
            <rect id="Rectangle" stroke="#D3D3D3" x="301.201538" y="71.7999826" width="44" height="13" rx="4"></rect>
            <text id="+" transform="translate(277.940606, 78.299983) rotate(-45.000000) translate(-277.940606, -78.299983) " font-family="Montserrat-Light, Montserrat" font-size="18" font-weight="300" fill="#000000">
                <tspan x="272.440606" y="84.2999826">+</tspan>
            </text>
            <text id="+" transform="translate(334.592998, 78.299983) rotate(-90.000000) translate(-334.592998, -78.299983) " font-family="Montserrat-Light, Montserrat" font-size="18" font-weight="300" fill="#000000">
                <tspan x="329.092998" y="84.2999826">+</tspan>
            </text>
            <text id="ADD" font-family="Montserrat-SemiBold, Montserrat" font-size="7" font-weight="500" fill="#000000">
                <tspan x="308.513655" y="80.7999826">ADD</tspan>
            </text>
        </g>
        <path d="M287.082281,21.5 L738.082281,21.5 C741.948274,21.5 745.082281,24.6340068 745.082281,28.5 L745.082281,84 C745.082281,84.5522847 744.634566,85 744.082281,85 L281.082281,85 C280.529996,85 280.082281,84.5522847 280.082281,84 L280.082281,28.5 C280.082281,24.6340068 283.216288,21.5 287.082281,21.5 Z" id="Rectangle" fill="#1E3D49"></path>
        <rect id="Rectangle" fill="#FFFFFF" x="13" y="177" width="482" height="289"></rect>
        <path d="M479.3158,164.032976 L28.7412515,164.032976 C12.9153824,164.032976 0.0859805258,176.862378 0.0859805258,192.688247 L0.0859805258,537.262795 C0.0859805258,553.088664 12.9153824,565.918066 28.7412515,565.918066 L479.3158,565.918066 C495.141669,565.918066 507.971071,553.088664 507.971071,537.262795 L507.971071,192.688247 C507.971071,176.862378 495.141669,164.032976 479.3158,164.032976 Z M479.3158,185.475521 C483.299278,185.475521 486.528526,188.704768 486.528526,192.688247 L486.528526,537.262795 C486.528526,541.246273 483.299278,544.475521 479.3158,544.475521 L28.7412515,544.475521 C24.757773,544.475521 21.5285255,541.246273 21.5285255,537.262795 L21.5285255,192.688247 C21.5285255,188.704768 24.757773,185.475521 28.7412515,185.475521 L479.3158,185.475521 Z" id="Rectangle" fill="#202020" fill-rule="nonzero"></path>
        <rect id="Rectangle-Copy-13" fill="#E2E6E7" x="128.130491" y="360.195538" width="78.6455902" height="92.0524646" rx="5"></rect>
        <rect id="Rectangle" fill="#53B9C9" x="135.721163" y="366.52352" width="63.4642457" height="49.7979548" rx="4.26584808"></rect>
        <g id="faketitle" transform="translate(146.027660, 422.224202)" fill="#BBC3C6">
            <rect id="Rectangle-Copy-10" x="0" y="0" width="40.6595372" height="6.2763044" rx="3.1381522"></rect>
        </g>
        <rect id="Rectangle-Copy-13" fill="#E2E6E7" x="40.2354073" y="360.195538" width="78.6455902" height="92.0524646" rx="5"></rect>
        <rect id="Rectangle" fill="#53B9C9" x="47.8260796" y="366.52352" width="63.4642457" height="49.7979548" rx="4.26584808"></rect>
        <g id="faketitle" transform="translate(58.132577, 422.224202)" fill="#BBC3C6">
            <rect id="Rectangle-Copy-10" x="-7.10542736e-15" y="0" width="40.6595372" height="6.2763044" rx="3.1381522"></rect>
        </g>
        <rect id="Rectangle-Copy-13" fill="#E2E6E7" x="216.025574" y="360.195538" width="78.6455902" height="92.0524646" rx="5"></rect>
        <rect id="Rectangle" fill="#FDCB5B" x="223.616246" y="366.52352" width="63.4642457" height="49.7979548" rx="4.26584808"></rect>
        <g id="faketitle" transform="translate(233.922744, 422.224202)" fill="#BBC3C6">
            <rect id="Rectangle-Copy-10" x="0" y="0" width="40.6595372" height="6.2763044" rx="3.1381522"></rect>
        </g>
        <rect id="Rectangle-Copy-13" fill="#E2E6E7" x="303.920658" y="360.195538" width="78.6455902" height="92.0524646" rx="5"></rect>
        <rect id="Rectangle" fill="#53B9C9" x="311.51133" y="366.52352" width="63.4642457" height="49.7979548" rx="4.26584808"></rect>
        <g id="faketitle" transform="translate(321.817827, 422.224202)" fill="#BBC3C6">
            <rect id="Rectangle-Copy-10" x="0" y="0" width="40.6595372" height="6.2763044" rx="3.1381522"></rect>
        </g>
        <rect id="Rectangle-Copy-13" fill="#E2E6E7" x="391.815741" y="360.195538" width="78.6455902" height="92.0524646" rx="5"></rect>
        <rect id="Rectangle" fill="#53B9C9" x="399.406413" y="366.52352" width="63.4642457" height="49.7979548" rx="4.26584808"></rect>
        <g id="faketitle" transform="translate(409.712911, 422.224202)" fill="#BBC3C6">
            <rect id="Rectangle-Copy-10" x="0" y="0" width="40.6595372" height="6.2763044" rx="3.1381522"></rect>
        </g>
        <rect id="Rectangle-Copy-13" fill="#E2E6E7" x="128.130491" y="248.44354" width="78.6455902" height="92.0524646" rx="5"></rect>
        <rect id="Rectangle" fill="#53B9C9" x="135.721163" y="254.771522" width="63.4642457" height="49.7979548" rx="4.26584808"></rect>
        <g id="faketitle" transform="translate(146.027660, 310.472205)" fill="#BBC3C6">
            <rect id="Rectangle-Copy-10" x="0" y="0" width="40.6595372" height="6.2763044" rx="3.1381522"></rect>
        </g>
        <g id="fakecart" transform="translate(134.659948, 322.389724)" fill="#BBC3C6">
            <rect id="Rectangle-Copy-10" x="0" y="0" width="63.3949616" height="11.7782989" rx="5.88914944"></rect>
        </g>
        <rect id="Rectangle-Copy-13" fill="#E2E6E7" x="40.2354073" y="248.44354" width="78.6455902" height="92.0524646" rx="5"></rect>
        <rect id="Rectangle" fill="#53B9C9" x="47.8260796" y="254.771522" width="63.4642457" height="49.7979548" rx="4.26584808"></rect>
        <g id="faketitle" transform="translate(58.132577, 310.472205)" fill="#BBC3C6">
            <rect id="Rectangle-Copy-10" x="-7.10542736e-15" y="0" width="40.6595372" height="6.2763044" rx="3.1381522"></rect>
        </g>
        <g id="fakecart" transform="translate(46.764865, 322.389724)" fill="#BBC3C6">
            <rect id="Rectangle-Copy-10" x="0" y="0" width="63.3949616" height="11.7782989" rx="5.88914944"></rect>
        </g>
        <rect id="Rectangle-Copy-13" fill="#E2E6E7" x="216.025574" y="248.44354" width="78.6455902" height="92.0524646" rx="5"></rect>
        <rect id="Rectangle" fill="#FDCB5B" x="223.616246" y="254.771522" width="63.4642457" height="49.7979548" rx="4.26584808"></rect>
        <g id="faketitle" transform="translate(233.922744, 310.472205)" fill="#BBC3C6">
            <rect id="Rectangle-Copy-10" x="0" y="0" width="40.6595372" height="6.2763044" rx="3.1381522"></rect>
        </g>
        <g id="fakecart" transform="translate(222.555032, 322.389724)" fill="#BBC3C6">
            <rect id="Rectangle-Copy-10" x="0" y="0" width="63.3949616" height="11.7782989" rx="5.88914944"></rect>
        </g>
        <rect id="Rectangle-Copy-13" fill="#E2E6E7" x="303.920658" y="248.44354" width="78.6455902" height="92.0524646" rx="5"></rect>
        <rect id="Rectangle" fill="#53B9C9" x="311.51133" y="254.771522" width="63.4642457" height="49.7979548" rx="4.26584808"></rect>
        <g id="faketitle" transform="translate(321.817827, 310.472205)" fill="#BBC3C6">
            <rect id="Rectangle-Copy-10" x="0" y="0" width="40.6595372" height="6.2763044" rx="3.1381522"></rect>
        </g>
        <g id="fakecart" transform="translate(310.450115, 322.389724)" fill="#BBC3C6">
            <rect id="Rectangle-Copy-10" x="0" y="0" width="63.3949616" height="11.7782989" rx="5.88914944"></rect>
        </g>
        <rect id="Rectangle-Copy-13" fill="#E2E6E7" x="391.815741" y="248.44354" width="78.6455902" height="92.0524646" rx="5"></rect>
        <rect id="Rectangle" fill="#FDCB5B" x="399.406413" y="254.771522" width="63.4642457" height="49.7979548" rx="4.26584808"></rect>
        <g id="faketitle" transform="translate(409.712911, 310.472205)" fill="#BBC3C6">
            <rect id="Rectangle-Copy-10" x="0" y="0" width="40.6595372" height="6.2763044" rx="3.1381522"></rect>
        </g>
        <g id="fakecart" transform="translate(398.345198, 322.389724)" fill="#BBC3C6">
            <rect id="Rectangle-Copy-10" x="0" y="0" width="63.3949616" height="11.7782989" rx="5.88914944"></rect>
        </g>
        <path d="M458.107197,206.475521 C464.872686,206.475521 470.357197,211.960033 470.357197,218.725521 C470.357197,225.491009 464.872686,230.975521 458.107197,230.975521 L140.607197,230.975521 C133.841709,230.975521 128.357197,225.491009 128.357197,218.725521 C128.357197,211.960033 133.841709,206.475521 140.607197,206.475521 L458.107197,206.475521 Z M458.107197,207.475521 L140.607197,207.475521 C134.393994,207.475521 129.357197,212.512317 129.357197,218.725521 C129.357197,224.841643 134.237824,229.817834 140.31683,229.971847 L140.607197,229.975521 L458.107197,229.975521 C464.320401,229.975521 469.357197,224.938724 469.357197,218.725521 C469.357197,212.609399 464.476571,207.633208 458.397565,207.479195 L458.107197,207.475521 Z" id="Rectangle" fill="#D3D3D3" fill-rule="nonzero"></path>
        <g id="Group" transform="translate(449.180917, 213.562454)" stroke="#D3D3D3">
            <circle id="Oval" fill="#FFFFFF" cx="4.78029079" cy="4.78029079" r="4.28029079"></circle>
            <line x1="8.29332654" y1="7.81681274" x2="11.0576172" y2="10.5811034" id="Path-21" stroke-linecap="round"></line>
        </g>
        <rect id="Rectangle" fill="#53B9C9" x="129.55491" y="207.724374" width="79.7333234" height="22.0022939" rx="11.001147"></rect>
        <rect id="Rectangle" fill="#BBC3C6" x="40.2354073" y="197.225521" width="79.5" height="43" rx="10"></rect>
        <g id="Playboard" transform="translate(306.086658, 48.902000)" fill="#FFFFFF" fill-rule="nonzero">
            <path d="M4.978,0.798 C6.67533333,0.798 8.00533333,1.20333333 8.968,2.014 C9.93066667,2.82466667 10.412,3.93933333 10.412,5.358 C10.412,6.77666667 9.93066667,7.88816667 8.968,8.6925 C8.00533333,9.49683333 6.67533333,9.899 4.978,9.899 L1.406,9.899 L1.406,14.098 L0,14.098 L0,0.798 L4.978,0.798 Z M4.94,8.664 C6.25733333,8.664 7.26433333,8.37583333 7.961,7.7995 C8.65766667,7.22316667 9.006,6.40933333 9.006,5.358 C9.006,4.28133333 8.65766667,3.45483333 7.961,2.8785 C7.26433333,2.30216667 6.25733333,2.014 4.94,2.014 L1.406,2.014 L1.406,8.664 L4.94,8.664 Z" id="Shape"></path>
            <polygon id="Path" points="13.357 0 14.706 0 14.706 14.098 13.357 14.098"></polygon>
            <path d="M21.964,4.028 C23.2686667,4.028 24.2693333,4.35416667 24.966,5.0065 C25.6626667,5.65883333 26.011,6.62466667 26.011,7.904 L26.011,14.098 L24.719,14.098 L24.719,12.54 C24.415,13.0593333 23.9685,13.4646667 23.3795,13.756 C22.7905,14.0473333 22.0906667,14.193 21.28,14.193 C20.1653333,14.193 19.2786667,13.927 18.62,13.395 C17.9613333,12.863 17.632,12.16 17.632,11.286 C17.632,10.4373333 17.9391667,9.75333333 18.5535,9.234 C19.1678333,8.71466667 20.1463333,8.455 21.489,8.455 L24.662,8.455 L24.662,7.847 C24.662,6.98566667 24.4213333,6.33016667 23.94,5.8805 C23.4586667,5.43083333 22.7556667,5.206 21.831,5.206 C21.1976667,5.206 20.5896667,5.3105 20.007,5.5195 C19.4243333,5.7285 18.924,6.01666667 18.506,6.384 L17.898,5.377 C18.4046667,4.94633333 19.0126667,4.61383333 19.722,4.3795 C20.4313333,4.14516667 21.1786667,4.028 21.964,4.028 Z M21.489,13.129 C22.249,13.129 22.9013333,12.9548333 23.446,12.6065 C23.9906667,12.2581667 24.396,11.7546667 24.662,11.096 L24.662,9.462 L21.527,9.462 C19.817,9.462 18.962,10.0573333 18.962,11.248 C18.962,11.8306667 19.1836667,12.2898333 19.627,12.6255 C20.0703333,12.9611667 20.691,13.129 21.489,13.129 Z" id="Shape"></path>
            <path d="M37.886,4.104 L32.889,15.295 C32.4836667,16.2323333 32.015,16.8973333 31.483,17.29 C30.951,17.6826667 30.3113333,17.879 29.564,17.879 C29.0826667,17.879 28.633,17.803 28.215,17.651 C27.797,17.499 27.436,17.271 27.132,16.967 L27.759,15.96 C28.2656667,16.4666667 28.8736667,16.72 29.583,16.72 C30.039,16.72 30.4285,16.5933333 30.7515,16.34 C31.0745,16.0866667 31.3753333,15.656 31.654,15.048 L32.091,14.079 L27.626,4.104 L29.032,4.104 L32.794,12.597 L36.556,4.104 L37.886,4.104 Z" id="Path"></path>
            <path d="M44.935,4.028 C45.8723333,4.028 46.721,4.24016667 47.481,4.6645 C48.241,5.08883333 48.8363333,5.68733333 49.267,6.46 C49.6976667,7.23266667 49.913,8.113 49.913,9.101 C49.913,10.089 49.6976667,10.9693333 49.267,11.742 C48.8363333,12.5146667 48.241,13.1163333 47.481,13.547 C46.721,13.9776667 45.8723333,14.193 44.935,14.193 C44.099,14.193 43.3485,14.0156667 42.6835,13.661 C42.0185,13.3063333 41.4833333,12.7933333 41.078,12.122 L41.078,14.098 L39.786,14.098 L39.786,0 L41.135,0 L41.135,6.004 C41.553,5.358 42.0881667,4.86716667 42.7405,4.5315 C43.3928333,4.19583333 44.1243333,4.028 44.935,4.028 Z M44.84,12.996 C45.5366667,12.996 46.17,12.8345 46.74,12.5115 C47.31,12.1885 47.7565,11.7293333 48.0795,11.134 C48.4025,10.5386667 48.564,9.861 48.564,9.101 C48.564,8.341 48.4025,7.66333333 48.0795,7.068 C47.7565,6.47266667 47.31,6.0135 46.74,5.6905 C46.17,5.3675 45.5366667,5.206 44.84,5.206 C44.1306667,5.206 43.4941667,5.3675 42.9305,5.6905 C42.3668333,6.0135 41.9235,6.47266667 41.6005,7.068 C41.2775,7.66333333 41.116,8.341 41.116,9.101 C41.116,9.861 41.2775,10.5386667 41.6005,11.134 C41.9235,11.7293333 42.3668333,12.1885 42.9305,12.5115 C43.4941667,12.8345 44.1306667,12.996 44.84,12.996 Z" id="Shape"></path>
            <path d="M56.753,14.193 C55.7903333,14.193 54.9226667,13.9745 54.15,13.5375 C53.3773333,13.1005 52.7693333,12.4956667 52.326,11.723 C51.8826667,10.9503333 51.661,10.0763333 51.661,9.101 C51.661,8.12566667 51.8826667,7.25166667 52.326,6.479 C52.7693333,5.70633333 53.3773333,5.10466667 54.15,4.674 C54.9226667,4.24333333 55.7903333,4.028 56.753,4.028 C57.7156667,4.028 58.5833333,4.24333333 59.356,4.674 C60.1286667,5.10466667 60.7335,5.70633333 61.1705,6.479 C61.6075,7.25166667 61.826,8.12566667 61.826,9.101 C61.826,10.0763333 61.6075,10.9503333 61.1705,11.723 C60.7335,12.4956667 60.1286667,13.1005 59.356,13.5375 C58.5833333,13.9745 57.7156667,14.193 56.753,14.193 Z M56.753,12.996 C57.4623333,12.996 58.0988333,12.8345 58.6625,12.5115 C59.2261667,12.1885 59.6663333,11.7293333 59.983,11.134 C60.2996667,10.5386667 60.458,9.861 60.458,9.101 C60.458,8.341 60.2996667,7.66333333 59.983,7.068 C59.6663333,6.47266667 59.2261667,6.0135 58.6625,5.6905 C58.0988333,5.3675 57.4623333,5.206 56.753,5.206 C56.0436667,5.206 55.4071667,5.3675 54.8435,5.6905 C54.2798333,6.0135 53.8365,6.47266667 53.5135,7.068 C53.1905,7.66333333 53.029,8.341 53.029,9.101 C53.029,9.861 53.1905,10.5386667 53.5135,11.134 C53.8365,11.7293333 54.2798333,12.1885 54.8435,12.5115 C55.4071667,12.8345 56.0436667,12.996 56.753,12.996 Z" id="Shape"></path>
            <path d="M68.02,4.028 C69.3246667,4.028 70.3253333,4.35416667 71.022,5.0065 C71.7186667,5.65883333 72.067,6.62466667 72.067,7.904 L72.067,14.098 L70.775,14.098 L70.775,12.54 C70.471,13.0593333 70.0245,13.4646667 69.4355,13.756 C68.8465,14.0473333 68.1466667,14.193 67.336,14.193 C66.2213333,14.193 65.3346667,13.927 64.676,13.395 C64.0173333,12.863 63.688,12.16 63.688,11.286 C63.688,10.4373333 63.9951667,9.75333333 64.6095,9.234 C65.2238333,8.71466667 66.2023333,8.455 67.545,8.455 L70.718,8.455 L70.718,7.847 C70.718,6.98566667 70.4773333,6.33016667 69.996,5.8805 C69.5146667,5.43083333 68.8116667,5.206 67.887,5.206 C67.2536667,5.206 66.6456667,5.3105 66.063,5.5195 C65.4803333,5.7285 64.98,6.01666667 64.562,6.384 L63.954,5.377 C64.4606667,4.94633333 65.0686667,4.61383333 65.778,4.3795 C66.4873333,4.14516667 67.2346667,4.028 68.02,4.028 Z M67.545,13.129 C68.305,13.129 68.9573333,12.9548333 69.502,12.6065 C70.0466667,12.2581667 70.452,11.7546667 70.718,11.096 L70.718,9.462 L67.583,9.462 C65.873,9.462 65.018,10.0573333 65.018,11.248 C65.018,11.8306667 65.2396667,12.2898333 65.683,12.6255 C66.1263333,12.9611667 66.747,13.129 67.545,13.129 Z" id="Shape"></path>
            <path d="M77.026,6.061 C77.3426667,5.38966667 77.8145,4.883 78.4415,4.541 C79.0685,4.199 79.8443333,4.028 80.769,4.028 L80.769,5.339 L80.446,5.32 C79.3946667,5.32 78.5713333,5.643 77.976,6.289 C77.3806667,6.935 77.083,7.84066667 77.083,9.006 L77.083,14.098 L75.734,14.098 L75.734,4.104 L77.026,4.104 L77.026,6.061 Z" id="Path"></path>
            <path d="M92.226,0 L92.226,14.098 L90.934,14.098 L90.934,12.122 C90.5286667,12.7933333 89.9935,13.3063333 89.3285,13.661 C88.6635,14.0156667 87.913,14.193 87.077,14.193 C86.1396667,14.193 85.291,13.9776667 84.531,13.547 C83.771,13.1163333 83.1756667,12.5146667 82.745,11.742 C82.3143333,10.9693333 82.099,10.089 82.099,9.101 C82.099,8.113 82.3143333,7.23266667 82.745,6.46 C83.1756667,5.68733333 83.771,5.08883333 84.531,4.6645 C85.291,4.24016667 86.1396667,4.028 87.077,4.028 C87.8876667,4.028 88.6191667,4.19583333 89.2715,4.5315 C89.9238333,4.86716667 90.459,5.358 90.877,6.004 L90.877,0 L92.226,0 Z M87.191,12.996 C87.8876667,12.996 88.5178333,12.8345 89.0815,12.5115 C89.6451667,12.1885 90.0885,11.7293333 90.4115,11.134 C90.7345,10.5386667 90.896,9.861 90.896,9.101 C90.896,8.341 90.7345,7.66333333 90.4115,7.068 C90.0885,6.47266667 89.6451667,6.0135 89.0815,5.6905 C88.5178333,5.3675 87.8876667,5.206 87.191,5.206 C86.4816667,5.206 85.8451667,5.3675 85.2815,5.6905 C84.7178333,6.0135 84.2745,6.47266667 83.9515,7.068 C83.6285,7.66333333 83.467,8.341 83.467,9.101 C83.467,9.861 83.6285,10.5386667 83.9515,11.134 C84.2745,11.7293333 84.7178333,12.1885 85.2815,12.5115 C85.8451667,12.8345 86.4816667,12.996 87.191,12.996 Z" id="Shape"></path>
        </g>
        <g id="RESULTS" transform="translate(42.401407, 129.569622)" fill="#000000" fill-rule="nonzero">
            <path d="M9.082,13.414 L6.042,9.139 C5.7,9.177 5.34533333,9.196 4.978,9.196 L1.406,9.196 L1.406,13.414 L0,13.414 L0,0.114 L4.978,0.114 C6.67533333,0.114 8.00533333,0.519333333 8.968,1.33 C9.93066667,2.14066667 10.412,3.25533333 10.412,4.674 C10.412,5.71266667 10.1491667,6.58983333 9.6235,7.3055 C9.09783333,8.02116667 8.34733333,8.53733333 7.372,8.854 L10.621,13.414 L9.082,13.414 Z M4.94,7.999 C6.25733333,7.999 7.26433333,7.70766667 7.961,7.125 C8.65766667,6.54233333 9.006,5.72533333 9.006,4.674 C9.006,3.59733333 8.65766667,2.77083333 7.961,2.1945 C7.26433333,1.61816667 6.25733333,1.33 4.94,1.33 L1.406,1.33 L1.406,7.999 L4.94,7.999 Z" id="Shape"></path>
            <polygon id="Path" points="23.142 12.198 23.142 13.414 13.737 13.414 13.737 0.114 22.857 0.114 22.857 1.33 15.143 1.33 15.143 6.061 22.021 6.061 22.021 7.258 15.143 7.258 15.143 12.198"></polygon>
            <path d="M30.115,13.528 C29.127,13.528 28.1801667,13.3696667 27.2745,13.053 C26.3688333,12.7363333 25.669,12.3183333 25.175,11.799 L25.726,10.716 C26.2073333,11.1973333 26.847,11.5868333 27.645,11.8845 C28.443,12.1821667 29.2663333,12.331 30.115,12.331 C31.3056667,12.331 32.1986667,12.1125 32.794,11.6755 C33.3893333,11.2385 33.687,10.6716667 33.687,9.975 C33.687,9.443 33.5255,9.01866667 33.2025,8.702 C32.8795,8.38533333 32.4836667,8.1415 32.015,7.9705 C31.5463333,7.7995 30.894,7.61266667 30.058,7.41 C29.0573333,7.15666667 28.2593333,6.91283333 27.664,6.6785 C27.0686667,6.44416667 26.5588333,6.08633333 26.1345,5.605 C25.7101667,5.12366667 25.498,4.47133333 25.498,3.648 C25.498,2.97666667 25.6753333,2.3655 26.03,1.8145 C26.3846667,1.2635 26.9293333,0.823333333 27.664,0.494 C28.3986667,0.164666667 29.3106667,0 30.4,0 C31.16,0 31.9041667,0.1045 32.6325,0.3135 C33.3608333,0.5225 33.991,0.810666667 34.523,1.178 L34.048,2.299 C33.4906667,1.93166667 32.8953333,1.65616667 32.262,1.4725 C31.6286667,1.28883333 31.008,1.197 30.4,1.197 C29.2346667,1.197 28.3575,1.42183333 27.7685,1.8715 C27.1795,2.32116667 26.885,2.90066667 26.885,3.61 C26.885,4.142 27.0465,4.5695 27.3695,4.8925 C27.6925,5.2155 28.0978333,5.4625 28.5855,5.6335 C29.0731667,5.8045 29.7286667,5.99133333 30.552,6.194 C31.5273333,6.43466667 32.3158333,6.67216667 32.9175,6.9065 C33.5191667,7.14083333 34.029,7.4955 34.447,7.9705 C34.865,8.4455 35.074,9.08833333 35.074,9.899 C35.074,10.5703333 34.8935,11.1815 34.5325,11.7325 C34.1715,12.2835 33.6173333,12.7205 32.87,13.0435 C32.1226667,13.3665 31.2043333,13.528 30.115,13.528 Z" id="Path"></path>
            <path d="M43.491,13.528 C41.7683333,13.528 40.4256667,13.034 39.463,12.046 C38.5003333,11.058 38.019,9.62033333 38.019,7.733 L38.019,0.114 L39.425,0.114 L39.425,7.676 C39.425,9.22133333 39.7733333,10.374 40.47,11.134 C41.1666667,11.894 42.1736667,12.274 43.491,12.274 C44.821,12.274 45.8343333,11.894 46.531,11.134 C47.2276667,10.374 47.576,9.22133333 47.576,7.676 L47.576,0.114 L48.944,0.114 L48.944,7.733 C48.944,9.62033333 48.4658333,11.058 47.5095,12.046 C46.5531667,13.034 45.2136667,13.528 43.491,13.528 Z" id="Path"></path>
            <polygon id="Path" points="53.181 0.114 54.587 0.114 54.587 12.198 62.035 12.198 62.035 13.414 53.181 13.414"></polygon>
            <polygon id="Path" points="65.721 1.33 61.047 1.33 61.047 0.114 71.801 0.114 71.801 1.33 67.127 1.33 67.127 13.414 65.721 13.414"></polygon>
            <path d="M77.501,13.528 C76.513,13.528 75.5661667,13.3696667 74.6605,13.053 C73.7548333,12.7363333 73.055,12.3183333 72.561,11.799 L73.112,10.716 C73.5933333,11.1973333 74.233,11.5868333 75.031,11.8845 C75.829,12.1821667 76.6523333,12.331 77.501,12.331 C78.6916667,12.331 79.5846667,12.1125 80.18,11.6755 C80.7753333,11.2385 81.073,10.6716667 81.073,9.975 C81.073,9.443 80.9115,9.01866667 80.5885,8.702 C80.2655,8.38533333 79.8696667,8.1415 79.401,7.9705 C78.9323333,7.7995 78.28,7.61266667 77.444,7.41 C76.4433333,7.15666667 75.6453333,6.91283333 75.05,6.6785 C74.4546667,6.44416667 73.9448333,6.08633333 73.5205,5.605 C73.0961667,5.12366667 72.884,4.47133333 72.884,3.648 C72.884,2.97666667 73.0613333,2.3655 73.416,1.8145 C73.7706667,1.2635 74.3153333,0.823333333 75.05,0.494 C75.7846667,0.164666667 76.6966667,0 77.786,0 C78.546,0 79.2901667,0.1045 80.0185,0.3135 C80.7468333,0.5225 81.377,0.810666667 81.909,1.178 L81.434,2.299 C80.8766667,1.93166667 80.2813333,1.65616667 79.648,1.4725 C79.0146667,1.28883333 78.394,1.197 77.786,1.197 C76.6206667,1.197 75.7435,1.42183333 75.1545,1.8715 C74.5655,2.32116667 74.271,2.90066667 74.271,3.61 C74.271,4.142 74.4325,4.5695 74.7555,4.8925 C75.0785,5.2155 75.4838333,5.4625 75.9715,5.6335 C76.4591667,5.8045 77.1146667,5.99133333 77.938,6.194 C78.9133333,6.43466667 79.7018333,6.67216667 80.3035,6.9065 C80.9051667,7.14083333 81.415,7.4955 81.833,7.9705 C82.251,8.4455 82.46,9.08833333 82.46,9.899 C82.46,10.5703333 82.2795,11.1815 81.9185,11.7325 C81.5575,12.2835 81.0033333,12.7205 80.256,13.0435 C79.5086667,13.3665 78.5903333,13.528 77.501,13.528 Z" id="Path"></path>
        </g>
        <rect id="Rectangle" fill="#53B9C9" x="303.920658" y="122.299983" width="66" height="22" rx="4"></rect>
        <rect id="Rectangle" fill="#FDCB5B" x="416.180917" y="122.299983" width="60.5" height="22" rx="4"></rect>
        <rect id="Rectangle" fill="#FDCB5B" x="488.680917" y="122.299983" width="73.5" height="22" rx="4"></rect>
        <path d="M616.622196,122.299983 C618.831335,122.299983 620.622196,124.090844 620.622196,126.299983 L620.622196,140.299983 C620.622196,142.509122 618.831335,144.299983 616.622196,144.299983 L579.622196,144.299983 C577.413057,144.299983 575.622196,142.509122 575.622196,140.299983 L575.622196,126.299983 C575.622196,124.090844 577.413057,122.299983 579.622196,122.299983 L616.622196,122.299983 Z M616.622196,123.299983 L579.622196,123.299983 C578.024515,123.299983 576.718535,124.548903 576.627288,126.12371 L576.622196,126.299983 L576.622196,140.299983 C576.622196,141.897663 577.871116,143.203643 579.445923,143.29489 L579.622196,143.299983 L616.622196,143.299983 C618.219877,143.299983 619.525857,142.051063 619.617103,140.476255 L619.622196,140.299983 L619.622196,126.299983 C619.622196,124.702302 618.373276,123.396322 616.798469,123.305075 L616.622196,123.299983 Z" id="Rectangle" fill="#D3D3D3" fill-rule="nonzero"></path>
        <g id="Term" transform="translate(305.964658, 108.300000)" fill="#000000" fill-rule="nonzero">
            <polygon id="Path" points="2.706 0.704 0 0.704 0 0 6.226 0 6.226 0.704 3.52 0.704 3.52 7.7 2.706 7.7"></polygon>
            <polygon id="Path" points="12.969 6.996 12.969 7.7 7.524 7.7 7.524 0 12.804 0 12.804 0.704 8.338 0.704 8.338 3.443 12.32 3.443 12.32 4.136 8.338 4.136 8.338 6.996"></polygon>
            <path d="M20.141,7.7 L18.381,5.225 C18.183,5.247 17.9776667,5.258 17.765,5.258 L15.697,5.258 L15.697,7.7 L14.883,7.7 L14.883,0 L17.765,0 C18.7476667,0 19.5176667,0.234666667 20.075,0.704 C20.6323333,1.17333333 20.911,1.81866667 20.911,2.64 C20.911,3.24133333 20.7588333,3.74916667 20.4545,4.1635 C20.1501667,4.57783333 19.7156667,4.87666667 19.151,5.06 L21.032,7.7 L20.141,7.7 Z M17.743,4.565 C18.5056667,4.565 19.0886667,4.39633333 19.492,4.059 C19.8953333,3.72166667 20.097,3.24866667 20.097,2.64 C20.097,2.01666667 19.8953333,1.53816667 19.492,1.2045 C19.0886667,0.870833333 18.5056667,0.704 17.743,0.704 L15.697,0.704 L15.697,4.565 L17.743,4.565 Z" id="Shape"></path>
            <polygon id="Path" points="30.833 0 30.833 7.7 30.052 7.7 30.052 1.54 27.027 6.721 26.642 6.721 23.617 1.573 23.617 7.7 22.836 7.7 22.836 0 23.507 0 26.851 5.709 30.162 0"></polygon>
        </g>
        <g id="Synonyms-(2)" transform="translate(416.697917, 107.838000)" fill="#000000" fill-rule="nonzero">
            <path d="M2.86,8.228 C2.288,8.228 1.73983333,8.13633333 1.2155,7.953 C0.691166667,7.76966667 0.286,7.52766667 0,7.227 L0.319,6.6 C0.597666667,6.87866667 0.968,7.10416667 1.43,7.2765 C1.892,7.44883333 2.36866667,7.535 2.86,7.535 C3.54933333,7.535 4.06633333,7.4085 4.411,7.1555 C4.75566667,6.9025 4.928,6.57433333 4.928,6.171 C4.928,5.863 4.8345,5.61733333 4.6475,5.434 C4.4605,5.25066667 4.23133333,5.1095 3.96,5.0105 C3.68866667,4.9115 3.311,4.80333333 2.827,4.686 C2.24766667,4.53933333 1.78566667,4.39816667 1.441,4.2625 C1.09633333,4.12683333 0.801166667,3.91966667 0.5555,3.641 C0.309833333,3.36233333 0.187,2.98466667 0.187,2.508 C0.187,2.11933333 0.289666667,1.7655 0.495,1.4465 C0.700333333,1.1275 1.01566667,0.872666667 1.441,0.682 C1.86633333,0.491333333 2.39433333,0.396 3.025,0.396 C3.465,0.396 3.89583333,0.4565 4.3175,0.5775 C4.73916667,0.6985 5.104,0.865333333 5.412,1.078 L5.137,1.727 C4.81433333,1.51433333 4.46966667,1.35483333 4.103,1.2485 C3.73633333,1.14216667 3.377,1.089 3.025,1.089 C2.35033333,1.089 1.8425,1.21916667 1.5015,1.4795 C1.1605,1.73983333 0.99,2.07533333 0.99,2.486 C0.99,2.794 1.0835,3.0415 1.2705,3.2285 C1.4575,3.4155 1.69216667,3.5585 1.9745,3.6575 C2.25683333,3.7565 2.63633333,3.86466667 3.113,3.982 C3.67766667,4.12133333 4.13416667,4.25883333 4.4825,4.3945 C4.83083333,4.53016667 5.126,4.7355 5.368,5.0105 C5.61,5.2855 5.731,5.65766667 5.731,6.127 C5.731,6.51566667 5.6265,6.8695 5.4175,7.1885 C5.2085,7.5075 4.88766667,7.7605 4.455,7.9475 C4.02233333,8.1345 3.49066667,8.228 2.86,8.228 Z" id="Path"></path>
            <polygon id="Path" points="9.977 5.5 9.977 8.162 9.174 8.162 9.174 5.5 6.094 0.462 6.963 0.462 9.603 4.785 12.243 0.462 13.057 0.462"></polygon>
            <polygon id="Path" points="20.592 0.462 20.592 8.162 19.921 8.162 14.971 1.914 14.971 8.162 14.157 8.162 14.157 0.462 14.828 0.462 19.789 6.71 19.789 0.462"></polygon>
            <path d="M26.466,8.228 C25.7033333,8.228 25.0121667,8.0575 24.3925,7.7165 C23.7728333,7.3755 23.2888333,6.908 22.9405,6.314 C22.5921667,5.72 22.418,5.05266667 22.418,4.312 C22.418,3.57133333 22.5921667,2.904 22.9405,2.31 C23.2888333,1.716 23.7728333,1.2485 24.3925,0.9075 C25.0121667,0.5665 25.7033333,0.396 26.466,0.396 C27.2286667,0.396 27.9161667,0.564666667 28.5285,0.902 C29.1408333,1.23933333 29.623,1.70683333 29.975,2.3045 C30.327,2.90216667 30.503,3.57133333 30.503,4.312 C30.503,5.05266667 30.327,5.72183333 29.975,6.3195 C29.623,6.91716667 29.1408333,7.38466667 28.5285,7.722 C27.9161667,8.05933333 27.2286667,8.228 26.466,8.228 Z M26.466,7.502 C27.0746667,7.502 27.6246667,7.3645 28.116,7.0895 C28.6073333,6.8145 28.9923333,6.43316667 29.271,5.9455 C29.5496667,5.45783333 29.689,4.91333333 29.689,4.312 C29.689,3.71066667 29.5496667,3.16616667 29.271,2.6785 C28.9923333,2.19083333 28.6073333,1.8095 28.116,1.5345 C27.6246667,1.2595 27.0746667,1.122 26.466,1.122 C25.8573333,1.122 25.3055,1.2595 24.8105,1.5345 C24.3155,1.8095 23.9268333,2.19083333 23.6445,2.6785 C23.3621667,3.16616667 23.221,3.71066667 23.221,4.312 C23.221,4.91333333 23.3621667,5.45783333 23.6445,5.9455 C23.9268333,6.43316667 24.3155,6.8145 24.8105,7.0895 C25.3055,7.3645 25.8573333,7.502 26.466,7.502 Z" id="Shape"></path>
            <polygon id="Path" points="38.764 0.462 38.764 8.162 38.093 8.162 33.143 1.914 33.143 8.162 32.329 8.162 32.329 0.462 33 0.462 37.961 6.71 37.961 0.462"></polygon>
            <polygon id="Path" points="43.912 5.5 43.912 8.162 43.109 8.162 43.109 5.5 40.029 0.462 40.898 0.462 43.538 4.785 46.178 0.462 46.992 0.462"></polygon>
            <polygon id="Path" points="56.089 0.462 56.089 8.162 55.308 8.162 55.308 2.002 52.283 7.183 51.898 7.183 48.873 2.035 48.873 8.162 48.092 8.162 48.092 0.462 48.763 0.462 52.107 6.171 55.418 0.462"></polygon>
            <path d="M60.72,8.228 C60.148,8.228 59.5998333,8.13633333 59.0755,7.953 C58.5511667,7.76966667 58.146,7.52766667 57.86,7.227 L58.179,6.6 C58.4576667,6.87866667 58.828,7.10416667 59.29,7.2765 C59.752,7.44883333 60.2286667,7.535 60.72,7.535 C61.4093333,7.535 61.9263333,7.4085 62.271,7.1555 C62.6156667,6.9025 62.788,6.57433333 62.788,6.171 C62.788,5.863 62.6945,5.61733333 62.5075,5.434 C62.3205,5.25066667 62.0913333,5.1095 61.82,5.0105 C61.5486667,4.9115 61.171,4.80333333 60.687,4.686 C60.1076667,4.53933333 59.6456667,4.39816667 59.301,4.2625 C58.9563333,4.12683333 58.6611667,3.91966667 58.4155,3.641 C58.1698333,3.36233333 58.047,2.98466667 58.047,2.508 C58.047,2.11933333 58.1496667,1.7655 58.355,1.4465 C58.5603333,1.1275 58.8756667,0.872666667 59.301,0.682 C59.7263333,0.491333333 60.2543333,0.396 60.885,0.396 C61.325,0.396 61.7558333,0.4565 62.1775,0.5775 C62.5991667,0.6985 62.964,0.865333333 63.272,1.078 L62.997,1.727 C62.6743333,1.51433333 62.3296667,1.35483333 61.963,1.2485 C61.5963333,1.14216667 61.237,1.089 60.885,1.089 C60.2103333,1.089 59.7025,1.21916667 59.3615,1.4795 C59.0205,1.73983333 58.85,2.07533333 58.85,2.486 C58.85,2.794 58.9435,3.0415 59.1305,3.2285 C59.3175,3.4155 59.5521667,3.5585 59.8345,3.6575 C60.1168333,3.7565 60.4963333,3.86466667 60.973,3.982 C61.5376667,4.12133333 61.9941667,4.25883333 62.3425,4.3945 C62.6908333,4.53016667 62.986,4.7355 63.228,5.0105 C63.47,5.2855 63.591,5.65766667 63.591,6.127 C63.591,6.51566667 63.4865,6.8695 63.2775,7.1885 C63.0685,7.5075 62.7476667,7.7605 62.315,7.9475 C61.8823333,8.1345 61.3506667,8.228 60.72,8.228 Z" id="Path"></path>
            <path d="M69.41,10.296 C68.9993333,9.62133333 68.684,8.84583333 68.464,7.9695 C68.244,7.09316667 68.134,6.15266667 68.134,5.148 C68.134,4.14333333 68.244,3.19916667 68.464,2.3155 C68.684,1.43183333 68.9993333,0.66 69.41,0 L70.158,0 C69.7253333,0.740666667 69.4081667,1.53633333 69.2065,2.387 C69.0048333,3.23766667 68.904,4.158 68.904,5.148 C68.904,6.138 69.0048333,7.05833333 69.2065,7.909 C69.4081667,8.75966667 69.7253333,9.55533333 70.158,10.296 L69.41,10.296 Z" id="Path"></path>
            <path d="M76.439,7.458 L76.439,8.162 L71.038,8.162 L71.038,7.601 L74.239,4.466 C74.6423333,4.07 74.9155,3.72716667 75.0585,3.4375 C75.2015,3.14783333 75.273,2.85633333 75.273,2.563 C75.273,2.10833333 75.1171667,1.7545 74.8055,1.5015 C74.4938333,1.2485 74.0483333,1.122 73.469,1.122 C72.567,1.122 71.8666667,1.408 71.368,1.98 L70.807,1.496 C71.1076667,1.144 71.4908333,0.872666667 71.9565,0.682 C72.4221667,0.491333333 72.9483333,0.396 73.535,0.396 C74.3196667,0.396 74.9411667,0.581166667 75.3995,0.9515 C75.8578333,1.32183333 76.087,1.82966667 76.087,2.475 C76.087,2.871 75.999,3.25233333 75.823,3.619 C75.647,3.98566667 75.3133333,4.40733333 74.822,4.884 L72.204,7.458 L76.439,7.458 Z" id="Path"></path>
            <path d="M77.297,10.296 C77.7296667,9.55533333 78.0486667,8.7615 78.254,7.9145 C78.4593333,7.0675 78.562,6.14533333 78.562,5.148 C78.562,4.15066667 78.4593333,3.2285 78.254,2.3815 C78.0486667,1.5345 77.7296667,0.740666667 77.297,0 L78.045,0 C78.4556667,0.66 78.7728333,1.43183333 78.9965,2.3155 C79.2201667,3.19916667 79.332,4.14333333 79.332,5.148 C79.332,6.15266667 79.222,7.095 79.002,7.975 C78.782,8.855 78.463,9.62866667 78.045,10.296 L77.297,10.296 Z" id="Path"></path>
        </g>
        <g id="+" transform="translate(464.381138, 133.355844) rotate(-45.000000) translate(-464.381138, -133.355844) translate(460.556138, 129.629844)" fill="#000000" fill-rule="nonzero">
            <polygon id="Path" points="7.65 4.122 4.23 4.122 4.23 7.452 3.42 7.452 3.42 4.122 -2.17928201e-13 4.122 -2.17928201e-13 3.348 3.42 3.348 3.42 -6.16246101e-13 4.23 -6.16246101e-13 4.23 3.348 7.65 3.348"></polygon>
        </g>
        <g id="+" transform="translate(553.381138, 133.355844) rotate(-45.000000) translate(-553.381138, -133.355844) translate(549.556138, 129.629844)" fill="#000000" fill-rule="nonzero">
            <polygon id="Path" points="7.65 4.122 4.23 4.122 4.23 7.452 3.42 7.452 3.42 4.122 -2.17928201e-13 4.122 -2.17928201e-13 3.348 3.42 3.348 3.42 -6.16246101e-13 4.23 -6.16246101e-13 4.23 3.348 7.65 3.348"></polygon>
        </g>
        <g id="+" transform="translate(609.213655, 133.678983) rotate(-90.000000) translate(-609.213655, -133.678983) translate(605.388655, 129.952983)" fill="#000000" fill-rule="nonzero">
            <polygon id="Path" points="7.65 4.122 4.23 4.122 4.23 7.452 3.42 7.452 3.42 4.122 0 4.122 0 3.348 3.42 3.348 3.42 2.9259898e-13 4.23 2.9259898e-13 4.23 3.348 7.65 3.348"></polygon>
        </g>
        <g id="ADD" transform="translate(583.399313, 130.899983)" fill="#000000" fill-rule="nonzero">
            <path d="M3.871,3.766 L1.421,3.766 L0.938,4.9 L0,4.9 L2.205,0 L3.101,0 L5.313,4.9 L4.361,4.9 L3.871,3.766 Z M3.57,3.052 L2.646,0.91 L1.729,3.052 L3.57,3.052 Z" id="Shape"></path>
            <path d="M5.936,0 L8.078,0 C8.60066667,0 9.065,0.1015 9.471,0.3045 C9.877,0.5075 10.192,0.7945 10.416,1.1655 C10.64,1.5365 10.752,1.96466667 10.752,2.45 C10.752,2.93533333 10.64,3.3635 10.416,3.7345 C10.192,4.1055 9.877,4.3925 9.471,4.5955 C9.065,4.7985 8.60066667,4.9 8.078,4.9 L5.936,4.9 L5.936,0 Z M8.036,4.13 C8.39533333,4.13 8.7115,4.06116667 8.9845,3.9235 C9.2575,3.78583333 9.4675,3.58983333 9.6145,3.3355 C9.7615,3.08116667 9.835,2.786 9.835,2.45 C9.835,2.114 9.7615,1.81883333 9.6145,1.5645 C9.4675,1.31016667 9.2575,1.11416667 8.9845,0.9765 C8.7115,0.838833333 8.39533333,0.77 8.036,0.77 L6.846,0.77 L6.846,4.13 L8.036,4.13 Z" id="Shape"></path>
            <path d="M11.718,0 L13.86,0 C14.3826667,0 14.847,0.1015 15.253,0.3045 C15.659,0.5075 15.974,0.7945 16.198,1.1655 C16.422,1.5365 16.534,1.96466667 16.534,2.45 C16.534,2.93533333 16.422,3.3635 16.198,3.7345 C15.974,4.1055 15.659,4.3925 15.253,4.5955 C14.847,4.7985 14.3826667,4.9 13.86,4.9 L11.718,4.9 L11.718,0 Z M13.818,4.13 C14.1773333,4.13 14.4935,4.06116667 14.7665,3.9235 C15.0395,3.78583333 15.2495,3.58983333 15.3965,3.3355 C15.5435,3.08116667 15.617,2.786 15.617,2.45 C15.617,2.114 15.5435,1.81883333 15.3965,1.5645 C15.2495,1.31016667 15.0395,1.11416667 14.7665,0.9765 C14.4935,0.838833333 14.1773333,0.77 13.818,0.77 L12.628,0.77 L12.628,4.13 L13.818,4.13 Z" id="Shape"></path>
        </g>
        <path d="M437.254869,275.064212 L437.745131,275.935788 L431.109,279.668 L431.109,280.332 L437.745131,284.064212 L437.254869,284.935788 L429.254869,280.435788 L428.480136,280 L429.254869,279.564212 L437.254869,275.064212 Z M435.109152,279.5 L435.109152,280.5 L433.109152,280.5 L433.109152,279.5 L435.109152,279.5 Z M439.109152,279.5 L439.109152,280.5 L437.109152,280.5 L437.109152,279.5 L439.109152,279.5 Z M443.109152,279.5 L443.109152,280.5 L441.109152,280.5 L441.109152,279.5 L443.109152,279.5 Z M447.109152,279.5 L447.109152,280.5 L445.109152,280.5 L445.109152,279.5 L447.109152,279.5 Z M451.109152,279.5 L451.109152,280.5 L449.109152,280.5 L449.109152,279.5 L451.109152,279.5 Z M455.109152,279.5 L455.109152,280.5 L453.109152,280.5 L453.109152,279.5 L455.109152,279.5 Z M459.109152,279.5 L459.109152,280.5 L457.109152,280.5 L457.109152,279.5 L459.109152,279.5 Z M463.109152,279.5 L463.109152,280.5 L461.109152,280.5 L461.109152,279.5 L463.109152,279.5 Z M467.109152,279.5 L467.109152,280.5 L465.109152,280.5 L465.109152,279.5 L467.109152,279.5 Z M471.109152,279.5 L471.109152,280.5 L469.109152,280.5 L469.109152,279.5 L471.109152,279.5 Z M475.109152,279.5 L475.109152,280.5 L473.109152,280.5 L473.109152,279.5 L475.109152,279.5 Z M479.109152,279.5 L479.109152,280.5 L477.109152,280.5 L477.109152,279.5 L479.109152,279.5 Z M483.109152,279.5 L483.109152,280.5 L481.109152,280.5 L481.109152,279.5 L483.109152,279.5 Z M487.109152,279.5 L487.109152,280.5 L485.109152,280.5 L485.109152,279.5 L487.109152,279.5 Z M491.109152,279.5 L491.109152,280.5 L489.109152,280.5 L489.109152,279.5 L491.109152,279.5 Z M495.109152,279.5 L495.109152,280.5 L493.109152,280.5 L493.109152,279.5 L495.109152,279.5 Z M499.109152,279.5 L499.109152,280.5 L497.109152,280.5 L497.109152,279.5 L499.109152,279.5 Z M503.109152,279.5 L503.109152,280.5 L501.109152,280.5 L501.109152,279.5 L503.109152,279.5 Z M507.109152,279.5 L507.109152,280.5 L505.109152,280.5 L505.109152,279.5 L507.109152,279.5 Z M511.109152,279.5 L511.109152,280.5 L509.109152,280.5 L509.109152,279.5 L511.109152,279.5 Z M515.109152,279.5 L515.109152,280.5 L513.109152,280.5 L513.109152,279.5 L515.109152,279.5 Z M519.089297,279.482037 L519.150334,280.480172 L518.831471,280.494861 L518.510958,280.5 L517.10915,280.5 L517.10915,279.5 L518.51042,279.499994 C518.704162,279.499787 518.897176,279.493785 519.089297,279.482037 Z M522.689169,278.528978 L523.130739,279.426205 C522.627772,279.673739 522.105413,279.880599 521.568053,280.044537 L521.16229,280.159407 L520.909419,279.191907 C521.524855,279.031053 522.120659,278.80877 522.689169,278.528978 Z M525.744751,276.145525 L526.507007,276.7928 C526.143827,277.220495 525.747097,277.618575 525.320946,277.983021 L524.995881,278.249987 L524.37675,277.464699 C524.875319,277.07162 525.333772,276.629509 525.744751,276.145525 Z M527.575011,272.818661 L528.530104,273.114965 C528.363423,273.652238 528.153848,274.174035 527.903843,274.675902 L527.708796,275.048496 L526.832335,274.567024 C527.137644,274.011246 527.386637,273.425855 527.575011,272.818661 Z M529,269 L529,270 C529,270.234349 528.992315,270.467796 528.977013,270.700085 L528.948355,271.04762 L527.953231,270.948988 C527.973968,270.739762 527.987842,270.529319 527.994787,270.31788 L528,270 L528,269 L529,269 Z M529,265 L529,267 L528,267 L528,265 L529,265 Z M529,261 L529,263 L528,263 L528,261 L529,261 Z M529,257 L529,259 L528,259 L528,257 L529,257 Z M529,253 L529,255 L528,255 L528,253 L529,253 Z M529,249 L529,251 L528,251 L528,249 L529,249 Z M529,245 L529,247 L528,247 L528,245 L529,245 Z M529,241 L529,243 L528,243 L528,241 L529,241 Z M529,237 L529,239 L528,239 L528,237 L529,237 Z M529,233 L529,235 L528,235 L528,233 L529,233 Z M529,229 L529,231 L528,231 L528,229 L529,229 Z M529,225 L529,227 L528,227 L528,225 L529,225 Z M529,221 L529,223 L528,223 L528,221 L529,221 Z M529,217 L529,219 L528,219 L528,217 L529,217 Z M529,213 L529,215 L528,215 L528,213 L529,213 Z M529,209 L529,211 L528,211 L528,209 L529,209 Z M529,205 L529,207 L528,207 L528,205 L529,205 Z M529,201 L529,203 L528,203 L528,201 L529,201 Z M529,197 L529,199 L528,199 L528,197 L529,197 Z M529,193 L529,195 L528,195 L528,193 L529,193 Z M529,189 L529,191 L528,191 L528,189 L529,189 Z M529,185 L529,187 L528,187 L528,185 L529,185 Z M529,181 L529,183 L528,183 L528,181 L529,181 Z M529,177 L529,179 L528,179 L528,177 L529,177 Z M529,173 L529,175 L528,175 L528,173 L529,173 Z M529,169 L529,171 L528,171 L528,169 L529,169 Z M529,165 L529,167 L528,167 L528,165 L529,165 Z M529,161 L529,163 L528,163 L528,161 L529,161 Z M529,157 L529,159 L528,159 L528,157 L529,157 Z M529,153 L529,155 L528,155 L528,153 L529,153 Z M528.5,140.5 C530.985281,140.5 533,142.514719 533,145 C533,147.316034 531.250342,149.223414 529.000707,149.472457 L529,151 L528,151 L528.000297,149.472568 C525.750179,149.223981 524,147.316379 524,145 C524,142.514719 526.014719,140.5 528.5,140.5 Z M528.5,141.5 C526.567003,141.5 525,143.067003 525,145 C525,146.932997 526.567003,148.5 528.5,148.5 C530.432997,148.5 532,146.932997 532,145 C532,143.067003 530.432997,141.5 528.5,141.5 Z" id="Path-39" fill="#000000" fill-rule="nonzero"></path>
        <path d="M262.254869,275.064212 L262.745131,275.935788 L255.596,279.957 L255.596,280.043 L262.745131,284.064212 L262.254869,284.935788 L254.254869,280.435788 L253.480136,280 L254.254869,279.564212 L262.254869,275.064212 Z M371.596474,279.5 L371.596474,280.5 L369.596474,280.5 L369.596474,279.5 L371.596474,279.5 Z M259.596474,279.5 L259.596474,280.5 L257.596474,280.5 L257.596474,279.5 L259.596474,279.5 Z M263.596474,279.5 L263.596474,280.5 L261.596474,280.5 L261.596474,279.5 L263.596474,279.5 Z M267.596474,279.5 L267.596474,280.5 L265.596474,280.5 L265.596474,279.5 L267.596474,279.5 Z M271.596474,279.5 L271.596474,280.5 L269.596474,280.5 L269.596474,279.5 L271.596474,279.5 Z M275.596474,279.5 L275.596474,280.5 L273.596474,280.5 L273.596474,279.5 L275.596474,279.5 Z M279.596474,279.5 L279.596474,280.5 L277.596474,280.5 L277.596474,279.5 L279.596474,279.5 Z M283.596474,279.5 L283.596474,280.5 L281.596474,280.5 L281.596474,279.5 L283.596474,279.5 Z M287.596474,279.5 L287.596474,280.5 L285.596474,280.5 L285.596474,279.5 L287.596474,279.5 Z M291.596474,279.5 L291.596474,280.5 L289.596474,280.5 L289.596474,279.5 L291.596474,279.5 Z M295.596474,279.5 L295.596474,280.5 L293.596474,280.5 L293.596474,279.5 L295.596474,279.5 Z M299.596474,279.5 L299.596474,280.5 L297.596474,280.5 L297.596474,279.5 L299.596474,279.5 Z M303.596474,279.5 L303.596474,280.5 L301.596474,280.5 L301.596474,279.5 L303.596474,279.5 Z M307.596474,279.5 L307.596474,280.5 L305.596474,280.5 L305.596474,279.5 L307.596474,279.5 Z M311.596474,279.5 L311.596474,280.5 L309.596474,280.5 L309.596474,279.5 L311.596474,279.5 Z M315.596474,279.5 L315.596474,280.5 L313.596474,280.5 L313.596474,279.5 L315.596474,279.5 Z M375.596474,279.5 L375.596474,280.5 L373.596474,280.5 L373.596474,279.5 L375.596474,279.5 Z M323.596474,279.5 L323.596474,280.5 L321.596474,280.5 L321.596474,279.5 L323.596474,279.5 Z M327.596474,279.5 L327.596474,280.5 L325.596474,280.5 L325.596474,279.5 L327.596474,279.5 Z M331.596474,279.5 L331.596474,280.5 L329.596474,280.5 L329.596474,279.5 L331.596474,279.5 Z M335.596474,279.5 L335.596474,280.5 L333.596474,280.5 L333.596474,279.5 L335.596474,279.5 Z M339.596474,279.5 L339.596474,280.5 L337.596474,280.5 L337.596474,279.5 L339.596474,279.5 Z M343.596474,279.5 L343.596474,280.5 L341.596474,280.5 L341.596474,279.5 L343.596474,279.5 Z M347.596474,279.5 L347.596474,280.5 L345.596474,280.5 L345.596474,279.5 L347.596474,279.5 Z M351.596474,279.5 L351.596474,280.5 L349.596474,280.5 L349.596474,279.5 L351.596474,279.5 Z M355.596474,279.5 L355.596474,280.5 L353.596474,280.5 L353.596474,279.5 L355.596474,279.5 Z M359.596474,279.5 L359.596474,280.5 L357.596474,280.5 L357.596474,279.5 L359.596474,279.5 Z M363.596474,279.5 L363.596474,280.5 L361.596474,280.5 L361.596474,279.5 L363.596474,279.5 Z M367.596474,279.5 L367.596474,280.5 L365.596474,280.5 L365.596474,279.5 L367.596474,279.5 Z M319.596474,279.5 L319.596474,280.5 L317.596474,280.5 L317.596474,279.5 L319.596474,279.5 Z M379.52331,279.330959 L379.710961,280.313195 C379.199933,280.410824 378.680254,280.47057 378.154266,280.491528 L377.758628,280.499958 L377.596602,280.5 L377.596346,279.5 L377.757075,279.499961 C378.354927,279.498256 378.945364,279.441373 379.52331,279.330959 Z M382.989739,277.911951 L383.544205,278.744157 C383.077166,279.055327 382.58598,279.328614 382.075159,279.561149 L381.688432,279.727865 L381.311162,278.801762 C381.899381,278.562137 382.461564,278.263853 382.989739,277.911951 Z M385.664548,275.225346 L386.499194,275.776133 C386.190121,276.244492 385.844043,276.687374 385.464681,277.100446 L385.173977,277.404593 L384.464979,276.699382 C384.912829,276.249128 385.314889,275.755208 385.664548,275.225346 Z M387.086721,271.649794 L388.071746,271.822206 C387.974555,272.377478 387.83306,272.921649 387.649127,273.450491 L387.503248,273.844183 L386.572735,273.477923 C386.804452,272.889227 386.976867,272.277415 387.086721,271.649794 Z M388.229381,267.74206 L388.229381,269.74206 L387.229381,269.74206 L387.229381,267.74206 L388.229381,267.74206 Z M388.229381,263.74206 L388.229381,265.74206 L387.229381,265.74206 L387.229381,263.74206 L388.229381,263.74206 Z M388.229381,259.74206 L388.229381,261.74206 L387.229381,261.74206 L387.229381,259.74206 L388.229381,259.74206 Z M388.229381,255.74206 L388.229381,257.74206 L387.229381,257.74206 L387.229381,255.74206 L388.229381,255.74206 Z M388.229381,251.74206 L388.229381,253.74206 L387.229381,253.74206 L387.229381,251.74206 L388.229381,251.74206 Z M388.229381,247.74206 L388.229381,249.74206 L387.229381,249.74206 L387.229381,247.74206 L388.229381,247.74206 Z M388.229381,243.74206 L388.229381,245.74206 L387.229381,245.74206 L387.229381,243.74206 L388.229381,243.74206 Z M388.229381,239.74206 L388.229381,241.74206 L387.229381,241.74206 L387.229381,239.74206 L388.229381,239.74206 Z M388.229381,235.74206 L388.229381,237.74206 L387.229381,237.74206 L387.229381,235.74206 L388.229381,235.74206 Z M388.229381,231.74206 L388.229381,233.74206 L387.229381,233.74206 L387.229381,231.74206 L388.229381,231.74206 Z M388.229381,227.74206 L388.229381,229.74206 L387.229381,229.74206 L387.229381,227.74206 L388.229381,227.74206 Z M388.229381,223.74206 L388.229381,225.74206 L387.229381,225.74206 L387.229381,223.74206 L388.229381,223.74206 Z M388.229381,219.74206 L388.229381,221.74206 L387.229381,221.74206 L387.229381,219.74206 L388.229381,219.74206 Z M388.229381,215.74206 L388.229381,217.74206 L387.229381,217.74206 L387.229381,215.74206 L388.229381,215.74206 Z M388.229381,211.74206 L388.229381,213.74206 L387.229381,213.74206 L387.229381,211.74206 L388.229381,211.74206 Z M388.229381,207.74206 L388.229381,209.74206 L387.229381,209.74206 L387.229381,207.74206 L388.229381,207.74206 Z M388.229381,203.74206 L388.229381,205.74206 L387.229381,205.74206 L387.229381,203.74206 L388.229381,203.74206 Z M388.229381,199.74206 L388.229381,201.74206 L387.229381,201.74206 L387.229381,199.74206 L388.229381,199.74206 Z M388.229381,195.74206 L388.229381,197.74206 L387.229381,197.74206 L387.229381,195.74206 L388.229381,195.74206 Z M388.229381,191.74206 L388.229381,193.74206 L387.229381,193.74206 L387.229381,191.74206 L388.229381,191.74206 Z M388.229381,187.74206 L388.229381,189.74206 L387.229381,189.74206 L387.229381,187.74206 L388.229381,187.74206 Z M388.229381,183.74206 L388.229381,185.74206 L387.229381,185.74206 L387.229381,183.74206 L388.229381,183.74206 Z M388.229381,179.74206 L388.229381,181.74206 L387.229381,181.74206 L387.229381,179.74206 L388.229381,179.74206 Z M388.229381,175.74206 L388.229381,177.74206 L387.229381,177.74206 L387.229381,175.74206 L388.229381,175.74206 Z M388.229381,171.74206 L388.229381,173.74206 L387.229381,173.74206 L387.229381,171.74206 L388.229381,171.74206 Z M388.229381,167.74206 L388.229381,169.74206 L387.229381,169.74206 L387.229381,167.74206 L388.229381,167.74206 Z M388.229381,163.74206 L388.229381,165.74206 L387.229381,165.74206 L387.229381,163.74206 L388.229381,163.74206 Z M388.229381,159.74206 L388.229381,161.74206 L387.229381,161.74206 L387.229381,159.74206 L388.229381,159.74206 Z M388.229381,155.74206 L388.229381,157.74206 L387.229381,157.74206 L387.229381,155.74206 L388.229381,155.74206 Z M388.229381,151.74206 L388.229381,153.74206 L387.229381,153.74206 L387.229381,151.74206 L388.229381,151.74206 Z M388.229381,147.74206 L388.229381,149.74206 L387.229381,149.74206 L387.229381,147.74206 L388.229381,147.74206 Z M388.229381,143.74206 L388.229381,145.74206 L387.229381,145.74206 L387.229381,143.74206 L388.229381,143.74206 Z M387.533889,139.737643 L388.497979,140.00322 C388.3657,140.483412 388.281452,140.977537 388.247077,141.480434 L388.230675,141.859171 L387.230844,141.840783 C387.244039,141.123323 387.346395,140.418277 387.533889,139.737643 Z M417.5,129.5 C419.985281,129.5 422,131.514719 422,134 C422,136.485281 419.985281,138.5 417.5,138.5 C415.183966,138.5 413.276586,136.750342 413.027543,134.500707 L411.5,134.5 L411.5,133.5 L413.027432,133.500297 C413.276019,131.250179 415.183621,129.5 417.5,129.5 Z M389.729964,135.978622 L390.435786,136.687012 C390.080151,137.041357 389.760797,137.43023 389.48284,137.847463 L389.282215,138.165608 L388.42325,137.653573 C388.78716,137.043097 389.226487,136.480274 389.729964,135.978622 Z M417.5,130.5 C415.567003,130.5 414,132.067003 414,134 C414,135.932997 415.567003,137.5 417.5,137.5 C419.432997,137.5 421,135.932997 421,134 C421,132.067003 419.432997,130.5 417.5,130.5 Z M393.38338,133.828013 L393.65887,134.789317 C393.175533,134.927832 392.708806,135.114632 392.264869,135.346292 L391.936287,135.528395 L391.429761,134.66617 C392.04223,134.306366 392.69804,134.024418 393.38338,133.828013 Z M397.5,133.5 L397.5,134.5 L395.621622,134.500757 L395.514062,134.503027 L395.485916,133.503424 L395.607548,133.500856 L397.5,133.5 Z M401.5,133.5 L401.5,134.5 L399.5,134.5 L399.5,133.5 L401.5,133.5 Z M405.5,133.5 L405.5,134.5 L403.5,134.5 L403.5,133.5 L405.5,133.5 Z M409.5,133.5 L409.5,134.5 L407.5,134.5 L407.5,133.5 L409.5,133.5 Z" id="Path-39" fill="#000000" fill-rule="nonzero"></path>
        <path d="M262.254869,386.064212 L262.745131,386.935788 L255.519,390.999 L262.745131,395.064212 L262.254869,395.935788 L254.254869,391.435788 L253.480136,391 L254.254869,390.564212 L262.254869,386.064212 Z M374.596474,390.5 L374.596474,391.5 L372.596474,391.5 L372.596474,390.5 L374.596474,390.5 Z M258.596474,390.5 L258.596474,391.5 L256.596474,391.5 L256.596474,390.5 L258.596474,390.5 Z M262.596474,390.5 L262.596474,391.5 L260.596474,391.5 L260.596474,390.5 L262.596474,390.5 Z M266.596474,390.5 L266.596474,391.5 L264.596474,391.5 L264.596474,390.5 L266.596474,390.5 Z M270.596474,390.5 L270.596474,391.5 L268.596474,391.5 L268.596474,390.5 L270.596474,390.5 Z M274.596474,390.5 L274.596474,391.5 L272.596474,391.5 L272.596474,390.5 L274.596474,390.5 Z M278.596474,390.5 L278.596474,391.5 L276.596474,391.5 L276.596474,390.5 L278.596474,390.5 Z M282.596474,390.5 L282.596474,391.5 L280.596474,391.5 L280.596474,390.5 L282.596474,390.5 Z M286.596474,390.5 L286.596474,391.5 L284.596474,391.5 L284.596474,390.5 L286.596474,390.5 Z M290.596474,390.5 L290.596474,391.5 L288.596474,391.5 L288.596474,390.5 L290.596474,390.5 Z M294.596474,390.5 L294.596474,391.5 L292.596474,391.5 L292.596474,390.5 L294.596474,390.5 Z M298.596474,390.5 L298.596474,391.5 L296.596474,391.5 L296.596474,390.5 L298.596474,390.5 Z M302.596474,390.5 L302.596474,391.5 L300.596474,391.5 L300.596474,390.5 L302.596474,390.5 Z M306.596474,390.5 L306.596474,391.5 L304.596474,391.5 L304.596474,390.5 L306.596474,390.5 Z M310.596474,390.5 L310.596474,391.5 L308.596474,391.5 L308.596474,390.5 L310.596474,390.5 Z M314.596474,390.5 L314.596474,391.5 L312.596474,391.5 L312.596474,390.5 L314.596474,390.5 Z M318.596474,390.5 L318.596474,391.5 L316.596474,391.5 L316.596474,390.5 L318.596474,390.5 Z M322.596474,390.5 L322.596474,391.5 L320.596474,391.5 L320.596474,390.5 L322.596474,390.5 Z M326.596474,390.5 L326.596474,391.5 L324.596474,391.5 L324.596474,390.5 L326.596474,390.5 Z M330.596474,390.5 L330.596474,391.5 L328.596474,391.5 L328.596474,390.5 L330.596474,390.5 Z M334.596474,390.5 L334.596474,391.5 L332.596474,391.5 L332.596474,390.5 L334.596474,390.5 Z M338.596474,390.5 L338.596474,391.5 L336.596474,391.5 L336.596474,390.5 L338.596474,390.5 Z M342.596474,390.5 L342.596474,391.5 L340.596474,391.5 L340.596474,390.5 L342.596474,390.5 Z M346.596474,390.5 L346.596474,391.5 L344.596474,391.5 L344.596474,390.5 L346.596474,390.5 Z M370.596474,390.5 L370.596474,391.5 L368.596474,391.5 L368.596474,390.5 L370.596474,390.5 Z M354.596474,390.5 L354.596474,391.5 L352.596474,391.5 L352.596474,390.5 L354.596474,390.5 Z M358.596474,390.5 L358.596474,391.5 L356.596474,391.5 L356.596474,390.5 L358.596474,390.5 Z M362.596474,390.5 L362.596474,391.5 L360.596474,391.5 L360.596474,390.5 L362.596474,390.5 Z M366.596474,390.5 L366.596474,391.5 L364.596474,391.5 L364.596474,390.5 L366.596474,390.5 Z M350.596474,390.5 L350.596474,391.5 L348.596474,391.5 L348.596474,390.5 L350.596474,390.5 Z M378.567676,390.463552 L378.654714,391.459757 C378.453983,391.477295 378.252326,391.489122 378.049683,391.495197 L377.744972,391.499988 L376.596469,391.5 L376.596469,390.5 L377.744204,390.499989 C378.020357,390.499567 378.295007,390.487375 378.567676,390.463552 Z M382.145265,389.41359 L382.610786,390.298626 C382.114476,390.559681 381.597788,390.780563 381.065153,390.958898 L380.662756,391.084634 L380.383878,390.124308 C380.994513,389.946979 381.584228,389.70869 382.145265,389.41359 Z M385.132614,386.95389 L385.911463,387.581101 C385.55953,388.018118 385.173261,388.426393 384.756706,388.801825 L384.438675,389.077178 L383.799313,388.308272 C384.287535,387.902305 384.734375,387.448409 385.132614,386.95389 Z M386.874651,383.581209 L387.837202,383.852309 C387.684664,384.393898 387.488888,384.920933 387.252208,385.428995 L387.067066,385.806415 L386.178299,385.348056 C386.46879,384.784787 386.702267,384.193262 386.874651,383.581209 Z M388.229381,379.74206 L388.229381,381 L388.222274,381.38978 L388.200998,381.777654 L387.203671,381.704592 L387.222943,381.35322 L387.229381,381 L387.229381,379.74206 L388.229381,379.74206 Z M388.229381,375.74206 L388.229381,377.74206 L387.229381,377.74206 L387.229381,375.74206 L388.229381,375.74206 Z M388.229381,371.74206 L388.229381,373.74206 L387.229381,373.74206 L387.229381,371.74206 L388.229381,371.74206 Z M388.229381,367.74206 L388.229381,369.74206 L387.229381,369.74206 L387.229381,367.74206 L388.229381,367.74206 Z M388.229381,363.74206 L388.229381,365.74206 L387.229381,365.74206 L387.229381,363.74206 L388.229381,363.74206 Z M388.229381,359.74206 L388.229381,361.74206 L387.229381,361.74206 L387.229381,359.74206 L388.229381,359.74206 Z M388.229381,355.74206 L388.229381,357.74206 L387.229381,357.74206 L387.229381,355.74206 L388.229381,355.74206 Z M388.229381,351.74206 L388.229381,353.74206 L387.229381,353.74206 L387.229381,351.74206 L388.229381,351.74206 Z M388.229381,347.74206 L388.229381,349.74206 L387.229381,349.74206 L387.229381,347.74206 L388.229381,347.74206 Z M388.229381,343.74206 L388.229381,345.74206 L387.229381,345.74206 L387.229381,343.74206 L388.229381,343.74206 Z M388.229381,339.74206 L388.229381,341.74206 L387.229381,341.74206 L387.229381,339.74206 L388.229381,339.74206 Z M388.229381,335.74206 L388.229381,337.74206 L387.229381,337.74206 L387.229381,335.74206 L388.229381,335.74206 Z M388.229381,331.74206 L388.229381,333.74206 L387.229381,333.74206 L387.229381,331.74206 L388.229381,331.74206 Z M388.229381,327.74206 L388.229381,329.74206 L387.229381,329.74206 L387.229381,327.74206 L388.229381,327.74206 Z M388.229381,323.74206 L388.229381,325.74206 L387.229381,325.74206 L387.229381,323.74206 L388.229381,323.74206 Z M388.229381,319.74206 L388.229381,321.74206 L387.229381,321.74206 L387.229381,319.74206 L388.229381,319.74206 Z M388.229381,315.74206 L388.229381,317.74206 L387.229381,317.74206 L387.229381,315.74206 L388.229381,315.74206 Z M388.229381,311.74206 L388.229381,313.74206 L387.229381,313.74206 L387.229381,311.74206 L388.229381,311.74206 Z M388.229381,307.74206 L388.229381,309.74206 L387.229381,309.74206 L387.229381,307.74206 L388.229381,307.74206 Z M388.229381,303.74206 L388.229381,305.74206 L387.229381,305.74206 L387.229381,303.74206 L388.229381,303.74206 Z M388.229381,299.74206 L388.229381,301.74206 L387.229381,301.74206 L387.229381,299.74206 L388.229381,299.74206 Z M388.229381,295.74206 L388.229381,297.74206 L387.229381,297.74206 L387.229381,295.74206 L388.229381,295.74206 Z M388.229381,291.74206 L388.229381,293.74206 L387.229381,293.74206 L387.229381,291.74206 L388.229381,291.74206 Z M388.229381,287.74206 L388.229381,289.74206 L387.229381,289.74206 L387.229381,287.74206 L388.229381,287.74206 Z M388.229381,283.74206 L388.229381,285.74206 L387.229381,285.74206 L387.229381,283.74206 L388.229381,283.74206 Z M388.229381,279.74206 L388.229381,281.74206 L387.229381,281.74206 L387.229381,279.74206 L388.229381,279.74206 Z M388.229381,275.74206 L388.229381,277.74206 L387.229381,277.74206 L387.229381,275.74206 L388.229381,275.74206 Z M388.229381,271.74206 L388.229381,273.74206 L387.229381,273.74206 L387.229381,271.74206 L388.229381,271.74206 Z M388.229381,267.74206 L388.229381,269.74206 L387.229381,269.74206 L387.229381,267.74206 L388.229381,267.74206 Z M388.229381,263.74206 L388.229381,265.74206 L387.229381,265.74206 L387.229381,263.74206 L388.229381,263.74206 Z M388.229381,259.74206 L388.229381,261.74206 L387.229381,261.74206 L387.229381,259.74206 L388.229381,259.74206 Z M388.229381,255.74206 L388.229381,257.74206 L387.229381,257.74206 L387.229381,255.74206 L388.229381,255.74206 Z M388.229381,251.74206 L388.229381,253.74206 L387.229381,253.74206 L387.229381,251.74206 L388.229381,251.74206 Z M388.229381,247.74206 L388.229381,249.74206 L387.229381,249.74206 L387.229381,247.74206 L388.229381,247.74206 Z M388.229381,243.74206 L388.229381,245.74206 L387.229381,245.74206 L387.229381,243.74206 L388.229381,243.74206 Z M388.229381,239.74206 L388.229381,241.74206 L387.229381,241.74206 L387.229381,239.74206 L388.229381,239.74206 Z M388.229381,235.74206 L388.229381,237.74206 L387.229381,237.74206 L387.229381,235.74206 L388.229381,235.74206 Z M388.229381,231.74206 L388.229381,233.74206 L387.229381,233.74206 L387.229381,231.74206 L388.229381,231.74206 Z M388.229381,227.74206 L388.229381,229.74206 L387.229381,229.74206 L387.229381,227.74206 L388.229381,227.74206 Z M388.229381,223.74206 L388.229381,225.74206 L387.229381,225.74206 L387.229381,223.74206 L388.229381,223.74206 Z M388.229381,219.74206 L388.229381,221.74206 L387.229381,221.74206 L387.229381,219.74206 L388.229381,219.74206 Z M388.229381,215.74206 L388.229381,217.74206 L387.229381,217.74206 L387.229381,215.74206 L388.229381,215.74206 Z M388.229381,211.74206 L388.229381,213.74206 L387.229381,213.74206 L387.229381,211.74206 L388.229381,211.74206 Z M388.229381,207.74206 L388.229381,209.74206 L387.229381,209.74206 L387.229381,207.74206 L388.229381,207.74206 Z M388.229381,203.74206 L388.229381,205.74206 L387.229381,205.74206 L387.229381,203.74206 L388.229381,203.74206 Z M388.229381,199.74206 L388.229381,201.74206 L387.229381,201.74206 L387.229381,199.74206 L388.229381,199.74206 Z M388.229381,195.74206 L388.229381,197.74206 L387.229381,197.74206 L387.229381,195.74206 L388.229381,195.74206 Z M388.229381,191.74206 L388.229381,193.74206 L387.229381,193.74206 L387.229381,191.74206 L388.229381,191.74206 Z M388.229381,187.74206 L388.229381,189.74206 L387.229381,189.74206 L387.229381,187.74206 L388.229381,187.74206 Z M388.229381,183.74206 L388.229381,185.74206 L387.229381,185.74206 L387.229381,183.74206 L388.229381,183.74206 Z M388.229381,179.74206 L388.229381,181.74206 L387.229381,181.74206 L387.229381,179.74206 L388.229381,179.74206 Z M388.229381,175.74206 L388.229381,177.74206 L387.229381,177.74206 L387.229381,175.74206 L388.229381,175.74206 Z M388.229381,171.74206 L388.229381,173.74206 L387.229381,173.74206 L387.229381,171.74206 L388.229381,171.74206 Z M388.229381,167.74206 L388.229381,169.74206 L387.229381,169.74206 L387.229381,167.74206 L388.229381,167.74206 Z M388.229381,163.74206 L388.229381,165.74206 L387.229381,165.74206 L387.229381,163.74206 L388.229381,163.74206 Z M388.229381,159.74206 L388.229381,161.74206 L387.229381,161.74206 L387.229381,159.74206 L388.229381,159.74206 Z M388.229381,155.74206 L388.229381,157.74206 L387.229381,157.74206 L387.229381,155.74206 L388.229381,155.74206 Z M388.229381,151.74206 L388.229381,153.74206 L387.229381,153.74206 L387.229381,151.74206 L388.229381,151.74206 Z M388.229381,147.74206 L388.229381,149.74206 L387.229381,149.74206 L387.229381,147.74206 L388.229381,147.74206 Z M388.229381,143.74206 L388.229381,145.74206 L387.229381,145.74206 L387.229381,143.74206 L388.229381,143.74206 Z M387.533889,139.737643 L388.497979,140.00322 C388.3657,140.483412 388.281452,140.977537 388.247077,141.480434 L388.230675,141.859171 L387.230844,141.840783 C387.244039,141.123323 387.346395,140.418277 387.533889,139.737643 Z M417.5,129.5 C419.985281,129.5 422,131.514719 422,134 C422,136.485281 419.985281,138.5 417.5,138.5 C415.183966,138.5 413.276586,136.750342 413.027543,134.500707 L411.5,134.5 L411.5,133.5 L413.027432,133.500297 C413.276019,131.250179 415.183621,129.5 417.5,129.5 Z M389.729964,135.978622 L390.435786,136.687012 C390.080151,137.041357 389.760797,137.43023 389.48284,137.847463 L389.282215,138.165608 L388.42325,137.653573 C388.78716,137.043097 389.226487,136.480274 389.729964,135.978622 Z M417.5,130.5 C415.567003,130.5 414,132.067003 414,134 C414,135.932997 415.567003,137.5 417.5,137.5 C419.432997,137.5 421,135.932997 421,134 C421,132.067003 419.432997,130.5 417.5,130.5 Z M393.38338,133.828013 L393.65887,134.789317 C393.175533,134.927832 392.708806,135.114632 392.264869,135.346292 L391.936287,135.528395 L391.429761,134.66617 C392.04223,134.306366 392.69804,134.024418 393.38338,133.828013 Z M397.5,133.5 L397.5,134.5 L395.621622,134.500757 L395.514062,134.503027 L395.485916,133.503424 L395.607548,133.500856 L397.5,133.5 Z M401.5,133.5 L401.5,134.5 L399.5,134.5 L399.5,133.5 L401.5,133.5 Z M405.5,133.5 L405.5,134.5 L403.5,134.5 L403.5,133.5 L405.5,133.5 Z M409.5,133.5 L409.5,134.5 L407.5,134.5 L407.5,133.5 L409.5,133.5 Z" id="Path-39" fill="#000000" fill-rule="nonzero"></path>
        <path d="M293.985609,114.342896 L294.421397,115.11763 L298.921397,123.11763 L298.049821,123.607891 L294.485,117.271 L294.485609,210.86276 C294.485609,215.471828 290.817156,219.224082 286.240769,219.359004 L285.985609,219.36276 L213.18363,219.363085 C212.93476,221.612904 211.027295,223.36276 208.71113,223.36276 C206.225848,223.36276 204.21113,221.348042 204.21113,218.86276 C204.21113,216.377479 206.225848,214.36276 208.71113,214.36276 C211.027164,214.36276 212.934543,216.112418 213.183587,218.362053 L285.985609,218.36276 C290.046526,218.36276 293.353626,215.135286 293.481755,211.105491 L293.485609,210.86276 L293.485,117.271 L289.921397,123.607891 L289.049821,123.11763 L293.549821,115.11763 L293.985609,114.342896 Z M208.71113,215.36276 C206.778133,215.36276 205.21113,216.929764 205.21113,218.86276 C205.21113,220.795757 206.778133,222.36276 208.71113,222.36276 C210.644126,222.36276 212.21113,220.795757 212.21113,218.86276 C212.21113,216.929764 210.644126,215.36276 208.71113,215.36276 Z" id="Path-40" fill="#1E3D49" fill-rule="nonzero"></path>
        <rect id="Rectangle" fill="url(#linearGradient-3)" x="0" y="422" width="766" height="44" rx="1"></rect>
        <g id="t-shirt" transform="translate(145.238000, 212.612000)" fill="#FFFFFF" fill-rule="nonzero">
            <path d="M5.026,9.94 C4.83933333,10.108 4.60833333,10.2363333 4.333,10.325 C4.05766667,10.4136667 3.77066667,10.458 3.472,10.458 C2.78133333,10.458 2.24933333,10.2713333 1.876,9.898 C1.50266667,9.52466667 1.316,8.99733333 1.316,8.316 L1.316,3.864 L0,3.864 L0,3.024 L1.316,3.024 L1.316,1.414 L2.31,1.414 L2.31,3.024 L4.55,3.024 L4.55,3.864 L2.31,3.864 L2.31,8.26 C2.31,8.69866667 2.41966667,9.03233333 2.639,9.261 C2.85833333,9.48966667 3.17333333,9.604 3.584,9.604 C3.78933333,9.604 3.98766667,9.57133333 4.179,9.506 C4.37033333,9.44066667 4.536,9.34733333 4.676,9.226 L5.026,9.94 Z" id="Path"></path>
            <polygon id="Path" points="6.146 6.16 9.814 6.16 9.814 7.028 6.146 7.028"></polygon>
            <path d="M14.014,10.458 C13.4166667,10.458 12.845,10.3716667 12.299,10.199 C11.753,10.0263333 11.326,9.80933333 11.018,9.548 L11.466,8.764 C11.774,9.00666667 12.1613333,9.205 12.628,9.359 C13.0946667,9.513 13.58,9.59 14.084,9.59 C14.756,9.59 15.253,9.485 15.575,9.275 C15.897,9.065 16.058,8.76866667 16.058,8.386 C16.058,8.11533333 15.9693333,7.903 15.792,7.749 C15.6146667,7.595 15.3906667,7.47833333 15.12,7.399 C14.8493333,7.31966667 14.49,7.24266667 14.042,7.168 C13.4446667,7.056 12.964,6.94166667 12.6,6.825 C12.236,6.70833333 11.9256667,6.51 11.669,6.23 C11.4123333,5.95 11.284,5.56266667 11.284,5.068 C11.284,4.452 11.5406667,3.948 12.054,3.556 C12.5673333,3.164 13.2813333,2.968 14.196,2.968 C14.672,2.968 15.148,3.031 15.624,3.157 C16.1,3.283 16.492,3.44866667 16.8,3.654 L16.366,4.452 C15.7593333,4.032 15.036,3.822 14.196,3.822 C13.5613333,3.822 13.083,3.934 12.761,4.158 C12.439,4.382 12.278,4.676 12.278,5.04 C12.278,5.32 12.369,5.544 12.551,5.712 C12.733,5.88 12.9593333,6.00366667 13.23,6.083 C13.5006667,6.16233333 13.874,6.244 14.35,6.328 C14.938,6.44 15.4093333,6.552 15.764,6.664 C16.1186667,6.776 16.422,6.96733333 16.674,7.238 C16.926,7.50866667 17.052,7.882 17.052,8.358 C17.052,9.002 16.7836667,9.513 16.247,9.891 C15.7103333,10.269 14.966,10.458 14.014,10.458 Z" id="Path"></path>
            <path d="M22.638,2.968 C23.562,2.968 24.297,3.23633333 24.843,3.773 C25.389,4.30966667 25.662,5.09133333 25.662,6.118 L25.662,10.388 L24.668,10.388 L24.668,6.216 C24.668,5.45066667 24.4766667,4.86733333 24.094,4.466 C23.7113333,4.06466667 23.1653333,3.864 22.456,3.864 C21.6626667,3.864 21.035,4.09966667 20.573,4.571 C20.111,5.04233333 19.88,5.69333333 19.88,6.524 L19.88,10.388 L18.886,10.388 L18.886,0 L19.88,0 L19.88,4.312 C20.1506667,3.88266667 20.524,3.55133333 21,3.318 C21.476,3.08466667 22.022,2.968 22.638,2.968 Z" id="Path"></path>
            <path d="M28.364,3.024 L29.358,3.024 L29.358,10.388 L28.364,10.388 L28.364,3.024 Z M28.868,1.414 C28.6626667,1.414 28.49,1.344 28.35,1.204 C28.21,1.064 28.14,0.896 28.14,0.7 C28.14,0.513333333 28.21,0.35 28.35,0.21 C28.49,0.07 28.6626667,0 28.868,0 C29.0733333,0 29.246,0.0676666667 29.386,0.203 C29.526,0.338333333 29.596,0.499333333 29.596,0.686 C29.596,0.891333333 29.526,1.064 29.386,1.204 C29.246,1.344 29.0733333,1.414 28.868,1.414 Z" id="Shape"></path>
            <path d="M33.082,4.466 C33.3153333,3.97133333 33.663,3.598 34.125,3.346 C34.587,3.094 35.1586667,2.968 35.84,2.968 L35.84,3.934 L35.602,3.92 C34.8273333,3.92 34.2206667,4.158 33.782,4.634 C33.3433333,5.11 33.124,5.77733333 33.124,6.636 L33.124,10.388 L32.13,10.388 L32.13,3.024 L33.082,3.024 L33.082,4.466 Z" id="Path"></path>
            <path d="M41.832,9.94 C41.6453333,10.108 41.4143333,10.2363333 41.139,10.325 C40.8636667,10.4136667 40.5766667,10.458 40.278,10.458 C39.5873333,10.458 39.0553333,10.2713333 38.682,9.898 C38.3086667,9.52466667 38.122,8.99733333 38.122,8.316 L38.122,3.864 L36.806,3.864 L36.806,3.024 L38.122,3.024 L38.122,1.414 L39.116,1.414 L39.116,3.024 L41.356,3.024 L41.356,3.864 L39.116,3.864 L39.116,8.26 C39.116,8.69866667 39.2256667,9.03233333 39.445,9.261 C39.6643333,9.48966667 39.9793333,9.604 40.39,9.604 C40.5953333,9.604 40.7936667,9.57133333 40.985,9.506 C41.1763333,9.44066667 41.342,9.34733333 41.482,9.226 L41.832,9.94 Z" id="Path"></path>
        </g>
        <g id="t-shirt" transform="translate(309.715330, 128.579622)" fill="#FFFFFF" fill-rule="nonzero">
            <path d="M4.308,8.52 C4.148,8.664 3.95,8.774 3.714,8.85 C3.478,8.926 3.232,8.964 2.976,8.964 C2.384,8.964 1.928,8.804 1.608,8.484 C1.288,8.164 1.128,7.712 1.128,7.128 L1.128,3.312 L0,3.312 L0,2.592 L1.128,2.592 L1.128,1.212 L1.98,1.212 L1.98,2.592 L3.9,2.592 L3.9,3.312 L1.98,3.312 L1.98,7.08 C1.98,7.456 2.074,7.742 2.262,7.938 C2.45,8.134 2.72,8.232 3.072,8.232 C3.248,8.232 3.418,8.204 3.582,8.148 C3.746,8.092 3.888,8.012 4.008,7.908 L4.308,8.52 Z" id="Path"></path>
            <polygon id="Path" points="5.268 5.28 8.412 5.28 8.412 6.024 5.268 6.024"></polygon>
            <path d="M12.012,8.964 C11.5,8.964 11.01,8.89 10.542,8.742 C10.074,8.594 9.708,8.408 9.444,8.184 L9.828,7.512 C10.092,7.72 10.424,7.89 10.824,8.022 C11.224,8.154 11.64,8.22 12.072,8.22 C12.648,8.22 13.074,8.13 13.35,7.95 C13.626,7.77 13.764,7.516 13.764,7.188 C13.764,6.956 13.688,6.774 13.536,6.642 C13.384,6.51 13.192,6.41 12.96,6.342 C12.728,6.274 12.42,6.208 12.036,6.144 C11.524,6.048 11.112,5.95 10.8,5.85 C10.488,5.75 10.222,5.58 10.002,5.34 C9.782,5.1 9.672,4.768 9.672,4.344 C9.672,3.816 9.892,3.384 10.332,3.048 C10.772,2.712 11.384,2.544 12.168,2.544 C12.576,2.544 12.984,2.598 13.392,2.706 C13.8,2.814 14.136,2.956 14.4,3.132 L14.028,3.816 C13.508,3.456 12.888,3.276 12.168,3.276 C11.624,3.276 11.214,3.372 10.938,3.564 C10.662,3.756 10.524,4.008 10.524,4.32 C10.524,4.56 10.602,4.752 10.758,4.896 C10.914,5.04 11.108,5.146 11.34,5.214 C11.572,5.282 11.892,5.352 12.3,5.424 C12.804,5.52 13.208,5.616 13.512,5.712 C13.816,5.808 14.076,5.972 14.292,6.204 C14.508,6.436 14.616,6.756 14.616,7.164 C14.616,7.716 14.386,8.154 13.926,8.478 C13.466,8.802 12.828,8.964 12.012,8.964 Z" id="Path"></path>
            <path d="M19.404,2.544 C20.196,2.544 20.826,2.774 21.294,3.234 C21.762,3.694 21.996,4.364 21.996,5.244 L21.996,8.904 L21.144,8.904 L21.144,5.328 C21.144,4.672 20.98,4.172 20.652,3.828 C20.324,3.484 19.856,3.312 19.248,3.312 C18.568,3.312 18.03,3.514 17.634,3.918 C17.238,4.322 17.04,4.88 17.04,5.592 L17.04,8.904 L16.188,8.904 L16.188,0 L17.04,0 L17.04,3.696 C17.272,3.328 17.592,3.044 18,2.844 C18.408,2.644 18.876,2.544 19.404,2.544 Z" id="Path"></path>
            <path d="M24.312,2.592 L25.164,2.592 L25.164,8.904 L24.312,8.904 L24.312,2.592 Z M24.744,1.212 C24.568,1.212 24.42,1.152 24.3,1.032 C24.18,0.912 24.12,0.768 24.12,0.6 C24.12,0.44 24.18,0.3 24.3,0.18 C24.42,0.06 24.568,0 24.744,0 C24.92,0 25.068,0.058 25.188,0.174 C25.308,0.29 25.368,0.428 25.368,0.588 C25.368,0.764 25.308,0.912 25.188,1.032 C25.068,1.152 24.92,1.212 24.744,1.212 Z" id="Shape"></path>
            <path d="M28.356,3.828 C28.556,3.404 28.854,3.084 29.25,2.868 C29.646,2.652 30.136,2.544 30.72,2.544 L30.72,3.372 L30.516,3.36 C29.852,3.36 29.332,3.564 28.956,3.972 C28.58,4.38 28.392,4.952 28.392,5.688 L28.392,8.904 L27.54,8.904 L27.54,2.592 L28.356,2.592 L28.356,3.828 Z" id="Path"></path>
            <path d="M35.856,8.52 C35.696,8.664 35.498,8.774 35.262,8.85 C35.026,8.926 34.78,8.964 34.524,8.964 C33.932,8.964 33.476,8.804 33.156,8.484 C32.836,8.164 32.676,7.712 32.676,7.128 L32.676,3.312 L31.548,3.312 L31.548,2.592 L32.676,2.592 L32.676,1.212 L33.528,1.212 L33.528,2.592 L35.448,2.592 L35.448,3.312 L33.528,3.312 L33.528,7.08 C33.528,7.456 33.622,7.742 33.81,7.938 C33.998,8.134 34.268,8.232 34.62,8.232 C34.796,8.232 34.966,8.204 35.13,8.148 C35.294,8.092 35.436,8.012 35.556,7.908 L35.856,8.52 Z" id="Path"></path>
        </g>
        <g id="top" transform="translate(428.944160, 129.791622)" fill="#1E3D49" fill-rule="nonzero">
            <path d="M4.308,7.308 C4.148,7.452 3.95,7.562 3.714,7.638 C3.478,7.714 3.232,7.752 2.976,7.752 C2.384,7.752 1.928,7.592 1.608,7.272 C1.288,6.952 1.128,6.5 1.128,5.916 L1.128,2.1 L0,2.1 L0,1.38 L1.128,1.38 L1.128,0 L1.98,0 L1.98,1.38 L3.9,1.38 L3.9,2.1 L1.98,2.1 L1.98,5.868 C1.98,6.244 2.074,6.53 2.262,6.726 C2.45,6.922 2.72,7.02 3.072,7.02 C3.248,7.02 3.418,6.992 3.582,6.936 C3.746,6.88 3.888,6.8 4.008,6.696 L4.308,7.308 Z" id="Path"></path>
            <path d="M8.208,7.752 C7.6,7.752 7.052,7.614 6.564,7.338 C6.076,7.062 5.692,6.68 5.412,6.192 C5.132,5.704 4.992,5.152 4.992,4.536 C4.992,3.92 5.132,3.368 5.412,2.88 C5.692,2.392 6.076,2.012 6.564,1.74 C7.052,1.468 7.6,1.332 8.208,1.332 C8.816,1.332 9.364,1.468 9.852,1.74 C10.34,2.012 10.722,2.392 10.998,2.88 C11.274,3.368 11.412,3.92 11.412,4.536 C11.412,5.152 11.274,5.704 10.998,6.192 C10.722,6.68 10.34,7.062 9.852,7.338 C9.364,7.614 8.816,7.752 8.208,7.752 Z M8.208,6.996 C8.656,6.996 9.058,6.894 9.414,6.69 C9.77,6.486 10.048,6.196 10.248,5.82 C10.448,5.444 10.548,5.016 10.548,4.536 C10.548,4.056 10.448,3.628 10.248,3.252 C10.048,2.876 9.77,2.586 9.414,2.382 C9.058,2.178 8.656,2.076 8.208,2.076 C7.76,2.076 7.358,2.178 7.002,2.382 C6.646,2.586 6.366,2.876 6.162,3.252 C5.958,3.628 5.856,4.056 5.856,4.536 C5.856,5.016 5.958,5.444 6.162,5.82 C6.366,6.196 6.646,6.486 7.002,6.69 C7.358,6.894 7.76,6.996 8.208,6.996 Z" id="Shape"></path>
            <path d="M16.404,1.332 C16.996,1.332 17.532,1.466 18.012,1.734 C18.492,2.002 18.868,2.38 19.14,2.868 C19.412,3.356 19.548,3.912 19.548,4.536 C19.548,5.168 19.412,5.728 19.14,6.216 C18.868,6.704 18.494,7.082 18.018,7.35 C17.542,7.618 17.004,7.752 16.404,7.752 C15.892,7.752 15.43,7.646 15.018,7.434 C14.606,7.222 14.268,6.912 14.004,6.504 L14.004,10.02 L13.152,10.02 L13.152,1.38 L13.968,1.38 L13.968,2.628 C14.224,2.212 14.562,1.892 14.982,1.668 C15.402,1.444 15.876,1.332 16.404,1.332 Z M16.344,6.996 C16.784,6.996 17.184,6.894 17.544,6.69 C17.904,6.486 18.186,6.196 18.39,5.82 C18.594,5.444 18.696,5.016 18.696,4.536 C18.696,4.056 18.594,3.63 18.39,3.258 C18.186,2.886 17.904,2.596 17.544,2.388 C17.184,2.18 16.784,2.076 16.344,2.076 C15.896,2.076 15.494,2.18 15.138,2.388 C14.782,2.596 14.502,2.886 14.298,3.258 C14.094,3.63 13.992,4.056 13.992,4.536 C13.992,5.016 14.094,5.444 14.298,5.82 C14.502,6.196 14.782,6.486 15.138,6.69 C15.494,6.894 15.896,6.996 16.344,6.996 Z" id="Shape"></path>
        </g>
        <g id="v-neck" transform="translate(500.236592, 128.321521)" fill="#1E3D49" fill-rule="nonzero">
            <polygon id="Path" points="6.48 2.592 3.672 8.904 2.796 8.904 0 2.592 0.888 2.592 3.252 7.968 5.64 2.592"></polygon>
            <polygon id="Path" points="7.068 5.28 10.212 5.28 10.212 6.024 7.068 6.024"></polygon>
            <path d="M15.336,2.544 C16.128,2.544 16.758,2.774 17.226,3.234 C17.694,3.694 17.928,4.364 17.928,5.244 L17.928,8.904 L17.076,8.904 L17.076,5.328 C17.076,4.672 16.912,4.172 16.584,3.828 C16.256,3.484 15.788,3.312 15.18,3.312 C14.5,3.312 13.962,3.514 13.566,3.918 C13.17,4.322 12.972,4.88 12.972,5.592 L12.972,8.904 L12.12,8.904 L12.12,2.592 L12.936,2.592 L12.936,3.756 C13.168,3.372 13.49,3.074 13.902,2.862 C14.314,2.65 14.792,2.544 15.336,2.544 Z" id="Path"></path>
            <path d="M25.764,6.012 L20.484,6.012 C20.532,6.668 20.784,7.198 21.24,7.602 C21.696,8.006 22.272,8.208 22.968,8.208 C23.36,8.208 23.72,8.138 24.048,7.998 C24.376,7.858 24.66,7.652 24.9,7.38 L25.38,7.932 C25.1,8.268 24.75,8.524 24.33,8.7 C23.91,8.876 23.448,8.964 22.944,8.964 C22.296,8.964 21.722,8.826 21.222,8.55 C20.722,8.274 20.332,7.892 20.052,7.404 C19.772,6.916 19.632,6.364 19.632,5.748 C19.632,5.132 19.766,4.58 20.034,4.092 C20.302,3.604 20.67,3.224 21.138,2.952 C21.606,2.68 22.132,2.544 22.716,2.544 C23.3,2.544 23.824,2.68 24.288,2.952 C24.752,3.224 25.116,3.602 25.38,4.086 C25.644,4.57 25.776,5.124 25.776,5.748 L25.764,6.012 Z M22.716,3.276 C22.108,3.276 21.598,3.47 21.186,3.858 C20.774,4.246 20.54,4.752 20.484,5.376 L24.96,5.376 C24.904,4.752 24.67,4.246 24.258,3.858 C23.846,3.47 23.332,3.276 22.716,3.276 Z" id="Shape"></path>
            <path d="M30.132,8.964 C29.508,8.964 28.95,8.828 28.458,8.556 C27.966,8.284 27.58,7.902 27.3,7.41 C27.02,6.918 26.88,6.364 26.88,5.748 C26.88,5.132 27.02,4.58 27.3,4.092 C27.58,3.604 27.966,3.224 28.458,2.952 C28.95,2.68 29.508,2.544 30.132,2.544 C30.676,2.544 31.162,2.65 31.59,2.862 C32.018,3.074 32.356,3.384 32.604,3.792 L31.968,4.224 C31.76,3.912 31.496,3.678 31.176,3.522 C30.856,3.366 30.508,3.288 30.132,3.288 C29.676,3.288 29.266,3.39 28.902,3.594 C28.538,3.798 28.254,4.088 28.05,4.464 C27.846,4.84 27.744,5.268 27.744,5.748 C27.744,6.236 27.846,6.666 28.05,7.038 C28.254,7.41 28.538,7.698 28.902,7.902 C29.266,8.106 29.676,8.208 30.132,8.208 C30.508,8.208 30.856,8.132 31.176,7.98 C31.496,7.828 31.76,7.596 31.968,7.284 L32.604,7.716 C32.356,8.124 32.016,8.434 31.584,8.646 C31.152,8.858 30.668,8.964 30.132,8.964 Z" id="Path"></path>
            <polygon id="Path" points="36.516 5.736 35.028 7.104 35.028 8.904 34.176 8.904 34.176 0 35.028 0 35.028 6.036 38.796 2.592 39.852 2.592 37.152 5.172 40.104 8.904 39.06 8.904"></polygon>
        </g>
        <g id="fakecart" transform="translate(134.659948, 434.141722)" fill="#BBC3C6">
            <rect id="Rectangle-Copy-10" x="0" y="0" width="63.3949616" height="11.7782989" rx="5.88914944"></rect>
        </g>
        <g id="fakecart" transform="translate(46.764865, 434.141722)" fill="#BBC3C6">
            <rect id="Rectangle-Copy-10" x="0" y="0" width="63.3949616" height="11.7782989" rx="5.88914944"></rect>
        </g>
        <g id="fakecart" transform="translate(222.555032, 434.141722)" fill="#BBC3C6">
            <rect id="Rectangle-Copy-10" x="0" y="0" width="63.3949616" height="11.7782989" rx="5.88914944"></rect>
        </g>
        <g id="fakecart" transform="translate(310.450115, 434.141722)" fill="#BBC3C6">
            <rect id="Rectangle-Copy-10" x="0" y="0" width="63.3949616" height="11.7782989" rx="5.88914944"></rect>
        </g>
        <g id="fakecart" transform="translate(398.345198, 434.141722)" fill="#BBC3C6">
            <rect id="Rectangle-Copy-10" x="0" y="0" width="63.3949616" height="11.7782989" rx="5.88914944"></rect>
        </g>
    </g>
</svg>