<?xml version="1.0" encoding="UTF-8"?>
<svg width="766px" height="466px" viewBox="0 0 766 466" version="1.1" xmlns="http://www.w3.org/2000/svg" xmlns:xlink="http://www.w3.org/1999/xlink">
    <title>result_on_the_serp</title>
    <g id="result_on_the_serp" stroke="none" stroke-width="1" fill="none" fill-rule="evenodd">
        <g id="gridProduct" transform="translate(286.130491, 428.088278)">
            <rect id="Rectangle-Copy-13" fill="#E2E6E7" x="0" y="0" width="78.6455902" height="92.0524646" rx="5"></rect>
            <rect id="Rectangle" fill="#FFFFFF" x="7.59067224" y="6.32798201" width="63.4642457" height="49.7979548" rx="4.26584808"></rect>
            <g id="faketitle" transform="translate(17.897170, 62.028664)" fill="#BBC3C6">
                <rect id="Rectangle-Copy-10" x="-3.55271368e-15" y="0" width="40.6595372" height="6.2763044" rx="3.1381522"></rect>
            </g>
            <g id="fakecart" transform="translate(6.529457, 73.946184)" fill="#BBC3C6">
                <rect id="Rectangle-Copy-10" x="0" y="0" width="63.3949616" height="11.7782989" rx="5.88914944"></rect>
            </g>
        </g>
        <g id="gridProduct" transform="translate(198.235407, 428.088278)">
            <rect id="Rectangle-Copy-13" fill="#E2E6E7" x="0" y="0" width="78.6455902" height="92.0524646" rx="5"></rect>
            <rect id="Rectangle" fill="#FFFFFF" x="7.59067224" y="6.32798201" width="63.4642457" height="49.7979548" rx="4.26584808"></rect>
            <g id="faketitle" transform="translate(17.897170, 62.028664)" fill="#BBC3C6">
                <rect id="Rectangle-Copy-10" x="-3.55271368e-15" y="0" width="40.6595372" height="6.2763044" rx="3.1381522"></rect>
            </g>
            <g id="fakecart" transform="translate(6.529457, 73.946184)" fill="#BBC3C6">
                <rect id="Rectangle-Copy-10" x="0" y="0" width="63.3949616" height="11.7782989" rx="5.88914944"></rect>
            </g>
        </g>
        <g id="gridProduct" transform="translate(374.025574, 428.088278)">
            <rect id="Rectangle-Copy-13" fill="#E2E6E7" x="0" y="0" width="78.6455902" height="92.0524646" rx="5"></rect>
            <rect id="Rectangle" fill="#FFFFFF" x="7.59067224" y="6.32798201" width="63.4642457" height="49.7979548" rx="4.26584808"></rect>
            <g id="faketitle" transform="translate(17.897170, 62.028664)" fill="#BBC3C6">
                <rect id="Rectangle-Copy-10" x="-3.55271368e-15" y="0" width="40.6595372" height="6.2763044" rx="3.1381522"></rect>
            </g>
            <g id="fakecart" transform="translate(6.529457, 73.946184)" fill="#BBC3C6">
                <rect id="Rectangle-Copy-10" x="0" y="0" width="63.3949616" height="11.7782989" rx="5.88914944"></rect>
            </g>
        </g>
        <g id="gridProduct" transform="translate(461.920658, 428.088278)">
            <rect id="Rectangle-Copy-13" fill="#E2E6E7" x="0" y="0" width="78.6455902" height="92.0524646" rx="5"></rect>
            <rect id="Rectangle" fill="#FFFFFF" x="7.59067224" y="6.32798201" width="63.4642457" height="49.7979548" rx="4.26584808"></rect>
            <g id="faketitle" transform="translate(17.897170, 62.028664)" fill="#BBC3C6">
                <rect id="Rectangle-Copy-10" x="-3.55271368e-15" y="0" width="40.6595372" height="6.2763044" rx="3.1381522"></rect>
            </g>
            <g id="fakecart" transform="translate(6.529457, 73.946184)" fill="#BBC3C6">
                <rect id="Rectangle-Copy-10" x="0" y="0" width="63.3949616" height="11.7782989" rx="5.88914944"></rect>
            </g>
        </g>
        <g id="gridProduct" transform="translate(549.815741, 428.088278)">
            <rect id="Rectangle-Copy-13" fill="#E2E6E7" x="0" y="0" width="78.6455902" height="92.0524646" rx="5"></rect>
            <rect id="Rectangle" fill="#FFFFFF" x="7.59067224" y="6.32798201" width="63.4642457" height="49.7979548" rx="4.26584808"></rect>
            <g id="faketitle" transform="translate(17.897170, 62.028664)" fill="#BBC3C6">
                <rect id="Rectangle-Copy-10" x="-3.55271368e-15" y="0" width="40.6595372" height="6.2763044" rx="3.1381522"></rect>
            </g>
            <g id="fakecart" transform="translate(6.529457, 73.946184)" fill="#BBC3C6">
                <rect id="Rectangle-Copy-10" x="0" y="0" width="63.3949616" height="11.7782989" rx="5.88914944"></rect>
            </g>
        </g>
        <g id="gridProduct" transform="translate(637.710825, 428.088278)">
            <rect id="Rectangle-Copy-13" fill="#E2E6E7" x="0" y="0" width="78.6455902" height="92.0524646" rx="5"></rect>
            <rect id="Rectangle" fill="#FFFFFF" x="7.59067224" y="6.32798201" width="63.4642457" height="49.7979548" rx="4.26584808"></rect>
            <g id="faketitle" transform="translate(17.897170, 62.028664)" fill="#BBC3C6">
                <rect id="Rectangle-Copy-10" x="-3.55271368e-15" y="0" width="40.6595372" height="6.2763044" rx="3.1381522"></rect>
            </g>
            <g id="fakecart" transform="translate(6.529457, 73.946184)" fill="#BBC3C6">
                <rect id="Rectangle-Copy-10" x="0" y="0" width="63.3949616" height="11.7782989" rx="5.88914944"></rect>
            </g>
        </g>
        <path d="M737.377801,0 L28.6221989,0 C12.8145949,0 0,12.8050807 0,28.6009482 L0,437.399052 C0,453.194919 12.8145949,466 28.6221989,466 L737.377801,466 C753.185405,466 766,453.194919 766,437.399052 L766,28.6009482 C766,12.8050807 753.185405,0 737.377801,0 Z M736.797236,21 C740.775213,21 744,24.2216313 744,28.1957149 L744,436.804285 C744,440.778369 740.775213,444 736.797236,444 L28.2027637,444 C24.2247871,444 21,440.778369 21,436.804285 L21,28.1957149 C21,24.2216313 24.2247871,21 28.2027637,21 L736.797236,21 Z" id="Rectangle" fill="#202020" fill-rule="nonzero"></path>
        <rect id="Rectangle" fill="#FFFFFF" x="20.5285255" y="21" width="724" height="424" rx="7.212726"></rect>
        <polyline id="Path-20" stroke="#CFD4D7" stroke-width="2" stroke-linecap="round" stroke-linejoin="round" points="209.157502 352.093444 205.209356 356.04159 209.157502 359.989737"></polyline>
        <polyline id="Path-20" stroke="#CFD4D7" stroke-width="2" stroke-linecap="round" stroke-linejoin="round" transform="translate(704.929802, 354.936039) rotate(-180.000000) translate(-704.929802, -354.936039) " points="706.903875 350.987893 702.955729 354.936039 706.903875 358.884185"></polyline>
        <rect id="Rectangle" fill="#FDCB5B" x="198.235407" y="186.720017" width="78.453805" height="92.0524646" rx="6"></rect>
        <g id="gridProduct" transform="translate(286.130491, 186.720017)">
            <rect id="Rectangle-Copy-13" fill="#E2E6E7" x="0" y="0" width="78.6455902" height="92.0524646" rx="5"></rect>
            <rect id="Rectangle" fill="#FFFFFF" x="7.59067224" y="6.32798201" width="63.4642457" height="49.7979548" rx="4.26584808"></rect>
            <g id="faketitle" transform="translate(17.897170, 62.028664)" fill="#BBC3C6">
                <rect id="Rectangle-Copy-10" x="-3.55271368e-15" y="0" width="40.6595372" height="6.2763044" rx="3.1381522"></rect>
            </g>
            <g id="fakecart" transform="translate(6.529457, 73.946184)" fill="#BBC3C6">
                <rect id="Rectangle-Copy-10" x="0" y="0" width="63.3949616" height="11.7782989" rx="5.88914944"></rect>
            </g>
        </g>
        <rect id="Rectangle" fill="#FFFFFF" x="205.401302" y="193.997669" width="64.1220159" height="60.9749231" rx="5"></rect>
        <rect id="Rectangle" fill="#FFFFFF" x="214.2525" y="262.053551" width="46.4196189" height="6.68757221" rx="3.34378611"></rect>
        <g id="gridProduct" transform="translate(374.025574, 186.720017)">
            <rect id="Rectangle-Copy-13" fill="#E2E6E7" x="0" y="0" width="78.6455902" height="92.0524646" rx="5"></rect>
            <rect id="Rectangle" fill="#FFFFFF" x="7.59067224" y="6.32798201" width="63.4642457" height="49.7979548" rx="4.26584808"></rect>
            <g id="faketitle" transform="translate(17.897170, 62.028664)" fill="#BBC3C6">
                <rect id="Rectangle-Copy-10" x="-3.55271368e-15" y="0" width="40.6595372" height="6.2763044" rx="3.1381522"></rect>
            </g>
            <g id="fakecart" transform="translate(6.529457, 73.946184)" fill="#BBC3C6">
                <rect id="Rectangle-Copy-10" x="0" y="0" width="63.3949616" height="11.7782989" rx="5.88914944"></rect>
            </g>
        </g>
        <g id="gridProduct" transform="translate(461.920658, 186.720017)">
            <rect id="Rectangle-Copy-13" fill="#E2E6E7" x="0" y="0" width="78.6455902" height="92.0524646" rx="5"></rect>
            <rect id="Rectangle" fill="#FFFFFF" x="7.59067224" y="6.32798201" width="63.4642457" height="49.7979548" rx="4.26584808"></rect>
            <g id="faketitle" transform="translate(17.897170, 62.028664)" fill="#BBC3C6">
                <rect id="Rectangle-Copy-10" x="-3.55271368e-15" y="0" width="40.6595372" height="6.2763044" rx="3.1381522"></rect>
            </g>
            <g id="fakecart" transform="translate(6.529457, 73.946184)" fill="#BBC3C6">
                <rect id="Rectangle-Copy-10" x="0" y="0" width="63.3949616" height="11.7782989" rx="5.88914944"></rect>
            </g>
        </g>
        <g id="gridProduct" transform="translate(549.815741, 186.720017)">
            <rect id="Rectangle-Copy-13" fill="#E2E6E7" x="0" y="0" width="78.6455902" height="92.0524646" rx="5"></rect>
            <rect id="Rectangle" fill="#FFFFFF" x="7.59067224" y="6.32798201" width="63.4642457" height="49.7979548" rx="4.26584808"></rect>
            <g id="faketitle" transform="translate(17.897170, 62.028664)" fill="#BBC3C6">
                <rect id="Rectangle-Copy-10" x="-3.55271368e-15" y="0" width="40.6595372" height="6.2763044" rx="3.1381522"></rect>
            </g>
            <g id="fakecart" transform="translate(6.529457, 73.946184)" fill="#BBC3C6">
                <rect id="Rectangle-Copy-10" x="0" y="0" width="63.3949616" height="11.7782989" rx="5.88914944"></rect>
            </g>
        </g>
        <g id="gridProduct" transform="translate(637.710825, 186.720017)">
            <rect id="Rectangle-Copy-13" fill="#E2E6E7" x="0" y="0" width="78.6455902" height="92.0524646" rx="5"></rect>
            <rect id="Rectangle" fill="#FFFFFF" x="7.59067224" y="6.32798201" width="63.4642457" height="49.7979548" rx="4.26584808"></rect>
            <g id="faketitle" transform="translate(17.897170, 62.028664)" fill="#BBC3C6">
                <rect id="Rectangle-Copy-10" x="-3.55271368e-15" y="0" width="40.6595372" height="6.2763044" rx="3.1381522"></rect>
            </g>
            <g id="fakecart" transform="translate(6.529457, 73.946184)" fill="#BBC3C6">
                <rect id="Rectangle-Copy-10" x="0" y="0" width="63.3949616" height="11.7782989" rx="5.88914944"></rect>
            </g>
        </g>
        <g id="gridProduct" transform="translate(297.640347, 318.276477)">
            <rect id="Rectangle-Copy-13" fill="#E2E6E7" x="0" y="0" width="73.3007443" height="75.5302273" rx="5"></rect>
            <rect id="Rectangle" fill="#FFFFFF" x="7.07480131" y="5.95401915" width="59.1511416" height="46.85506" rx="4.26584808"></rect>
            <g id="faketitle" transform="translate(16.680857, 58.362975)" fill="#BBC3C6">
                <rect id="Rectangle-Copy-10" x="-3.55271368e-15" y="0" width="37.8962677" height="5.90539552" rx="2.95269776"></rect>
            </g>
        </g>
        <g id="gridProduct" transform="translate(215.718716, 318.276477)">
            <rect id="Rectangle-Copy-13" fill="#E2E6E7" x="0" y="0" width="73.3007443" height="75.5302273" rx="5"></rect>
            <rect id="Rectangle" fill="#FFFFFF" x="7.07480131" y="5.95401915" width="59.1511416" height="46.85506" rx="4.26584808"></rect>
            <g id="faketitle" transform="translate(16.680857, 58.362975)" fill="#BBC3C6">
                <rect id="Rectangle-Copy-10" x="-3.55271368e-15" y="0" width="37.8962677" height="5.90539552" rx="2.95269776"></rect>
            </g>
        </g>
        <g id="gridProduct" transform="translate(379.561978, 318.276477)">
            <rect id="Rectangle-Copy-13" fill="#E2E6E7" x="0" y="0" width="73.3007443" height="75.5302273" rx="5"></rect>
            <rect id="Rectangle" fill="#FFFFFF" x="7.07480131" y="5.95401915" width="59.1511416" height="46.85506" rx="4.26584808"></rect>
            <g id="faketitle" transform="translate(16.680857, 58.362975)" fill="#BBC3C6">
                <rect id="Rectangle-Copy-10" x="-3.55271368e-15" y="0" width="37.8962677" height="5.90539552" rx="2.95269776"></rect>
            </g>
        </g>
        <g id="gridProduct" transform="translate(461.483610, 318.276477)">
            <rect id="Rectangle-Copy-13" fill="#E2E6E7" x="0" y="0" width="73.3007443" height="75.5302273" rx="5"></rect>
            <rect id="Rectangle" fill="#FFFFFF" x="7.07480131" y="5.95401915" width="59.1511416" height="46.85506" rx="4.26584808"></rect>
            <g id="faketitle" transform="translate(16.680857, 58.362975)" fill="#BBC3C6">
                <rect id="Rectangle-Copy-10" x="-3.55271368e-15" y="0" width="37.8962677" height="5.90539552" rx="2.95269776"></rect>
            </g>
        </g>
        <g id="gridProduct" transform="translate(543.405241, 318.276477)">
            <rect id="Rectangle-Copy-13" fill="#E2E6E7" x="0" y="0" width="73.3007443" height="75.5302273" rx="5"></rect>
            <rect id="Rectangle" fill="#FFFFFF" x="7.07480131" y="5.95401915" width="59.1511416" height="46.85506" rx="4.26584808"></rect>
            <g id="faketitle" transform="translate(16.680857, 58.362975)" fill="#BBC3C6">
                <rect id="Rectangle-Copy-10" x="-3.55271368e-15" y="0" width="37.8962677" height="5.90539552" rx="2.95269776"></rect>
            </g>
        </g>
        <g id="gridProduct" transform="translate(625.326872, 318.276477)">
            <rect id="Rectangle-Copy-13" fill="#E2E6E7" x="0" y="0" width="73.3007443" height="75.5302273" rx="5"></rect>
            <rect id="Rectangle" fill="#FFFFFF" x="7.07480131" y="5.95401915" width="59.1511416" height="46.85506" rx="4.26584808"></rect>
            <g id="faketitle" transform="translate(16.680857, 58.362975)" fill="#BBC3C6">
                <rect id="Rectangle-Copy-10" x="3.55271368e-15" y="0" width="37.8962677" height="5.90539552" rx="2.95269776"></rect>
            </g>
        </g>
        <rect id="Rectangle" fill="#80C0A1" x="198.235407" y="84.9680195" width="517.696767" height="81" rx="6"></rect>
        <rect id="Rectangle" stroke="#0086B2" x="198.432174" y="287.43038" width="517" height="122" rx="17"></rect>
        <path d="M389.630942,310.39392 L389.630942,307.50792 L392.074942,307.50792 C392.326275,307.50792 392.568942,307.49492 392.802942,307.46892 L392.802942,307.46892 L394.882942,310.39392 L395.935942,310.39392 L393.712942,307.27392 C394.380275,307.057253 394.893775,306.704086 395.253442,306.21442 C395.613109,305.724753 395.792942,305.124586 395.792942,304.41392 C395.792942,303.443253 395.463609,302.680586 394.804942,302.12592 C394.146275,301.571253 393.236275,301.29392 392.074942,301.29392 L392.074942,301.29392 L388.668942,301.29392 L388.668942,310.39392 L389.630942,310.39392 Z M392.048942,306.68892 L389.630942,306.68892 L389.630942,302.12592 L392.048942,302.12592 C392.950275,302.12592 393.639275,302.323086 394.115942,302.71742 C394.592609,303.111753 394.830942,303.677253 394.830942,304.41392 C394.830942,305.133253 394.592609,305.692253 394.115942,306.09092 C393.639275,306.489586 392.950275,306.68892 392.048942,306.68892 L392.048942,306.68892 Z M404.502942,310.39392 L404.502942,309.56192 L399.029942,309.56192 L399.029942,306.18192 L403.735942,306.18192 L403.735942,305.36292 L399.029942,305.36292 L399.029942,302.12592 L404.307942,302.12592 L404.307942,301.29392 L398.067942,301.29392 L398.067942,310.39392 L404.502942,310.39392 Z M410.664942,310.47192 C411.340942,310.47192 411.967109,310.357086 412.543442,310.12742 C413.119775,309.897753 413.607275,309.566253 414.005942,309.13292 L414.005942,309.13292 L413.394942,308.52192 C412.692942,309.24992 411.795942,309.61392 410.703942,309.61392 C409.984609,309.61392 409.330275,309.449253 408.740942,309.11992 C408.151609,308.790586 407.690109,308.33992 407.356442,307.76792 C407.022775,307.19592 406.855942,306.554586 406.855942,305.84392 C406.855942,305.133253 407.022775,304.49192 407.356442,303.91992 C407.690109,303.34792 408.151609,302.897253 408.740942,302.56792 C409.330275,302.238586 409.984609,302.07392 410.703942,302.07392 C411.787275,302.07392 412.684275,302.433586 413.394942,303.15292 L413.394942,303.15292 L414.005942,302.54192 C413.607275,302.108586 413.121942,301.779253 412.549942,301.55392 C411.977942,301.328586 411.353942,301.21592 410.677942,301.21592 C409.776609,301.21592 408.961942,301.415253 408.233942,301.81392 C407.505942,302.212586 406.936109,302.765086 406.524442,303.47142 C406.112775,304.177753 405.906942,304.968586 405.906942,305.84392 C405.906942,306.719253 406.112775,307.510086 406.524442,308.21642 C406.936109,308.922753 407.503775,309.475253 408.227442,309.87392 C408.951109,310.272586 409.763609,310.47192 410.664942,310.47192 Z M419.842942,310.47192 C420.744275,310.47192 421.556775,310.272586 422.280442,309.87392 C423.004109,309.475253 423.573942,308.922753 423.989942,308.21642 C424.405942,307.510086 424.613942,306.719253 424.613942,305.84392 C424.613942,304.968586 424.405942,304.177753 423.989942,303.47142 C423.573942,302.765086 423.004109,302.212586 422.280442,301.81392 C421.556775,301.415253 420.744275,301.21592 419.842942,301.21592 C418.941609,301.21592 418.124775,301.41742 417.392442,301.82042 C416.660109,302.22342 416.088109,302.77592 415.676442,303.47792 C415.264775,304.17992 415.058942,304.968586 415.058942,305.84392 C415.058942,306.719253 415.264775,307.50792 415.676442,308.20992 C416.088109,308.91192 416.660109,309.46442 417.392442,309.86742 C418.124775,310.27042 418.941609,310.47192 419.842942,310.47192 Z M419.842942,309.61392 C419.123609,309.61392 418.471442,309.45142 417.886442,309.12642 C417.301442,308.80142 416.842109,308.350753 416.508442,307.77442 C416.174775,307.198086 416.007942,306.554586 416.007942,305.84392 C416.007942,305.133253 416.174775,304.489753 416.508442,303.91342 C416.842109,303.337086 417.301442,302.88642 417.886442,302.56142 C418.471442,302.23642 419.123609,302.07392 419.842942,302.07392 C420.562275,302.07392 421.212275,302.23642 421.792942,302.56142 C422.373609,302.88642 422.828609,303.337086 423.157942,303.91342 C423.487275,304.489753 423.651942,305.133253 423.651942,305.84392 C423.651942,306.554586 423.487275,307.198086 423.157942,307.77442 C422.828609,308.350753 422.373609,308.80142 421.792942,309.12642 C421.212275,309.45142 420.562275,309.61392 419.842942,309.61392 Z M427.694942,310.39392 L427.694942,303.15292 L431.269942,309.23692 L431.724942,309.23692 L435.299942,303.11392 L435.299942,310.39392 L436.222942,310.39392 L436.222942,301.29392 L435.429942,301.29392 L431.516942,308.04092 L427.564942,301.29392 L426.771942,301.29392 L426.771942,310.39392 L427.694942,310.39392 Z M440.109942,310.39392 L440.109942,303.15292 L443.684942,309.23692 L444.139942,309.23692 L447.714942,303.11392 L447.714942,310.39392 L448.637942,310.39392 L448.637942,301.29392 L447.844942,301.29392 L443.931942,308.04092 L439.979942,301.29392 L439.186942,301.29392 L439.186942,310.39392 L440.109942,310.39392 Z M458.036942,310.39392 L458.036942,309.56192 L452.563942,309.56192 L452.563942,306.18192 L457.269942,306.18192 L457.269942,305.36292 L452.563942,305.36292 L452.563942,302.12592 L457.841942,302.12592 L457.841942,301.29392 L451.601942,301.29392 L451.601942,310.39392 L458.036942,310.39392 Z M461.260942,310.39392 L461.260942,303.00992 L467.110942,310.39392 L467.903942,310.39392 L467.903942,301.29392 L466.954942,301.29392 L466.954942,308.67792 L461.091942,301.29392 L460.298942,301.29392 L460.298942,310.39392 L461.260942,310.39392 Z M474.572942,310.39392 C475.534942,310.39392 476.384275,310.201086 477.120942,309.81542 C477.857609,309.429753 478.429609,308.89242 478.836942,308.20342 C479.244275,307.51442 479.447942,306.72792 479.447942,305.84392 C479.447942,304.95992 479.244275,304.17342 478.836942,303.48442 C478.429609,302.79542 477.857609,302.258086 477.120942,301.87242 C476.384275,301.486753 475.534942,301.29392 474.572942,301.29392 L474.572942,301.29392 L470.867942,301.29392 L470.867942,310.39392 L474.572942,310.39392 Z M474.520942,309.56192 L471.829942,309.56192 L471.829942,302.12592 L474.520942,302.12592 C475.318275,302.12592 476.015942,302.284086 476.613942,302.60042 C477.211942,302.916753 477.675609,303.35442 478.004942,303.91342 C478.334275,304.47242 478.498942,305.11592 478.498942,305.84392 C478.498942,306.57192 478.334275,307.21542 478.004942,307.77442 C477.675609,308.33342 477.211942,308.771086 476.613942,309.08742 C476.015942,309.403753 475.318275,309.56192 474.520942,309.56192 L474.520942,309.56192 Z M481.020942,310.39392 L482.112942,307.96292 L487.182942,307.96292 L488.274942,310.39392 L489.288942,310.39392 L485.128942,301.29392 L484.179942,301.29392 L480.019942,310.39392 L481.020942,310.39392 Z M486.831942,307.18292 L482.463942,307.18292 L484.647942,302.29492 L486.831942,307.18292 Z M493.071942,310.39392 L493.071942,302.12592 L496.269942,302.12592 L496.269942,301.29392 L488.911942,301.29392 L488.911942,302.12592 L492.109942,302.12592 L492.109942,310.39392 L493.071942,310.39392 Z M498.765942,310.39392 L498.765942,301.29392 L497.803942,301.29392 L497.803942,310.39392 L498.765942,310.39392 Z M505.707942,310.47192 C506.609275,310.47192 507.421775,310.272586 508.145442,309.87392 C508.869109,309.475253 509.438942,308.922753 509.854942,308.21642 C510.270942,307.510086 510.478942,306.719253 510.478942,305.84392 C510.478942,304.968586 510.270942,304.177753 509.854942,303.47142 C509.438942,302.765086 508.869109,302.212586 508.145442,301.81392 C507.421775,301.415253 506.609275,301.21592 505.707942,301.21592 C504.806609,301.21592 503.989775,301.41742 503.257442,301.82042 C502.525109,302.22342 501.953109,302.77592 501.541442,303.47792 C501.129775,304.17992 500.923942,304.968586 500.923942,305.84392 C500.923942,306.719253 501.129775,307.50792 501.541442,308.20992 C501.953109,308.91192 502.525109,309.46442 503.257442,309.86742 C503.989775,310.27042 504.806609,310.47192 505.707942,310.47192 Z M505.707942,309.61392 C504.988609,309.61392 504.336442,309.45142 503.751442,309.12642 C503.166442,308.80142 502.707109,308.350753 502.373442,307.77442 C502.039775,307.198086 501.872942,306.554586 501.872942,305.84392 C501.872942,305.133253 502.039775,304.489753 502.373442,303.91342 C502.707109,303.337086 503.166442,302.88642 503.751442,302.56142 C504.336442,302.23642 504.988609,302.07392 505.707942,302.07392 C506.427275,302.07392 507.077275,302.23642 507.657942,302.56142 C508.238609,302.88642 508.693609,303.337086 509.022942,303.91342 C509.352275,304.489753 509.516942,305.133253 509.516942,305.84392 C509.516942,306.554586 509.352275,307.198086 509.022942,307.77442 C508.693609,308.350753 508.238609,308.80142 507.657942,309.12642 C507.077275,309.45142 506.427275,309.61392 505.707942,309.61392 Z M513.598942,310.39392 L513.598942,303.00992 L519.448942,310.39392 L520.241942,310.39392 L520.241942,301.29392 L519.292942,301.29392 L519.292942,308.67792 L513.429942,301.29392 L512.636942,301.29392 L512.636942,310.39392 L513.598942,310.39392 Z M525.714942,310.47192 C526.460275,310.47192 527.088609,310.36142 527.599942,310.14042 C528.111275,309.91942 528.490442,309.62042 528.737442,309.24342 C528.984442,308.86642 529.107942,308.448253 529.107942,307.98892 C529.107942,307.434253 528.964942,306.99442 528.678942,306.66942 C528.392942,306.34442 528.044109,306.101753 527.632442,305.94142 C527.220775,305.781086 526.681275,305.618586 526.013942,305.45392 C525.450609,305.315253 525.002109,305.18742 524.668442,305.07042 C524.334775,304.95342 524.057442,304.78442 523.836442,304.56342 C523.615442,304.34242 523.504942,304.04992 523.504942,303.68592 C523.504942,303.200586 523.706442,302.804086 524.109442,302.49642 C524.512442,302.188753 525.112609,302.03492 525.909942,302.03492 C526.325942,302.03492 526.750609,302.097753 527.183942,302.22342 C527.617275,302.349086 528.024609,302.537586 528.405942,302.78892 L528.405942,302.78892 L528.730942,302.02192 C528.366942,301.770586 527.935775,301.57342 527.437442,301.43042 C526.939109,301.28742 526.429942,301.21592 525.909942,301.21592 C525.164609,301.21592 524.540609,301.328586 524.037942,301.55392 C523.535275,301.779253 523.162609,302.08042 522.919942,302.45742 C522.677275,302.83442 522.555942,303.252586 522.555942,303.71192 C522.555942,304.275253 522.701109,304.721586 522.991442,305.05092 C523.281775,305.380253 523.630609,305.625086 524.037942,305.78542 C524.445275,305.945753 524.991275,306.112586 525.675942,306.28592 C526.247942,306.424586 526.694275,306.55242 527.014942,306.66942 C527.335609,306.78642 527.606442,306.953253 527.827442,307.16992 C528.048442,307.386586 528.158942,307.67692 528.158942,308.04092 C528.158942,308.517586 527.955275,308.90542 527.547942,309.20442 C527.140609,309.50342 526.529609,309.65292 525.714942,309.65292 C525.134275,309.65292 524.570942,309.551086 524.024942,309.34742 C523.478942,309.143753 523.041275,308.877253 522.711942,308.54792 L522.711942,308.54792 L522.334942,309.28892 C522.672942,309.644253 523.151775,309.930253 523.771442,310.14692 C524.391109,310.363586 525.038942,310.47192 525.714942,310.47192 Z" id="RECOMMENDATIONS" fill="#1E3D49" fill-rule="nonzero"></path>
        <rect id="Rectangle" stroke="#D3D3D3" fill="#FFFFFF" x="200.340591" y="42.5" width="515.516607" height="23.5" rx="11.75"></rect>
        <g id="Group" transform="translate(697.180917, 49.086933)" stroke="#D3D3D3">
            <circle id="Oval" fill="#FFFFFF" cx="4.78029079" cy="4.78029079" r="4.28029079"></circle>
            <line x1="8.29332654" y1="7.81681274" x2="11.0576172" y2="10.5811034" id="Path-21" stroke-linecap="round"></line>
        </g>
        <rect id="Rectangle" fill="#E2E6E7" opacity="0.614296323" x="40" y="36.5" width="136" height="35.5" rx="3"></rect>
        <rect id="Rectangle" fill="#E2E6E7" opacity="0.614296323" x="40" y="84.9680195" width="136" height="16" rx="3"></rect>
        <rect id="Rectangle" fill="#E2E6E7" opacity="0.614296323" x="40" y="108.968019" width="89" height="11" rx="2"></rect>
        <rect id="Rectangle" fill="#E2E6E7" opacity="0.614296323" x="40" y="127.968019" width="78" height="11" rx="2"></rect>
        <rect id="Rectangle" fill="#E2E6E7" opacity="0.614296323" x="40" y="146.968019" width="97.2808989" height="11" rx="2"></rect>
        <rect id="Rectangle" fill="#E2E6E7" opacity="0.614296323" x="40" y="165.968019" width="71.3603604" height="11" rx="2"></rect>
        <rect id="Rectangle" fill="#E2E6E7" opacity="0.614296323" x="40" y="276.436039" width="136" height="16" rx="3"></rect>
        <rect id="Rectangle" fill="#E2E6E7" opacity="0.614296323" x="40" y="300.436039" width="89" height="11" rx="2"></rect>
        <rect id="Rectangle" fill="#E2E6E7" opacity="0.614296323" x="40" y="319.436039" width="103" height="11" rx="2"></rect>
        <rect id="Rectangle" fill="#E2E6E7" opacity="0.614296323" x="40" y="338.436039" width="64" height="11" rx="2"></rect>
        <rect id="Rectangle" fill="#E2E6E7" opacity="0.614296323" x="40" y="357.436039" width="78" height="11" rx="2"></rect>
        <rect id="Rectangle" fill="#E2E6E7" opacity="0.614296323" x="40" y="184.968019" width="111" height="11" rx="2"></rect>
        <rect id="Rectangle" fill="#E2E6E7" opacity="0.614296323" x="40" y="203.968019" width="97" height="11" rx="2"></rect>
        <rect id="Rectangle" fill="#E2E6E7" opacity="0.614296323" x="40" y="222.968019" width="59" height="11" rx="2"></rect>
        <rect id="Rectangle" fill="#E2E6E7" opacity="0.614296323" x="40" y="241.968019" width="103" height="11" rx="2"></rect>
        <rect id="Rectangle" fill="#CFD4D7" x="209.826901" y="49.0869335" width="55.2708174" height="10.5811034" rx="3"></rect>
        <g id="Group-3" transform="translate(489.488840, 173.968019)">
            <path d="M4,0 L22.5,0 C24.709139,1.55629733e-15 26.5,1.790861 26.5,4 L26.5,13.75 L26.5,13.75 L26.5,22.5 C26.5,24.709139 24.709139,26.5 22.5,26.5 L4,26.5 C1.790861,26.5 -1.06172613e-15,24.709139 0,22.5 L0,4 C-2.705415e-16,1.790861 1.790861,-9.26455379e-16 4,0 Z" id="Rectangle" fill="#1E3D49"></path>
            <g id="C" transform="translate(9.252500, 8.072000)" fill="#FFFFFF" fill-rule="nonzero">
                <path d="M4.758,9.256 C3.85666667,9.256 3.04416667,9.05666667 2.3205,8.658 C1.59683333,8.25933333 1.02916667,7.70683333 0.6175,7.0005 C0.205833333,6.29416667 0,5.50333333 0,4.628 C0,3.75266667 0.205833333,2.96183333 0.6175,2.2555 C1.02916667,1.54916667 1.599,0.996666667 2.327,0.598 C3.055,0.199333333 3.86966667,0 4.771,0 C5.447,0 6.071,0.112666667 6.643,0.338 C7.215,0.563333333 7.70033333,0.892666667 8.099,1.326 L7.488,1.937 C6.77733333,1.21766667 5.88033333,0.858 4.797,0.858 C4.07766667,0.858 3.42333333,1.02266667 2.834,1.352 C2.24466667,1.68133333 1.78316667,2.132 1.4495,2.704 C1.11583333,3.276 0.949,3.91733333 0.949,4.628 C0.949,5.33866667 1.11583333,5.98 1.4495,6.552 C1.78316667,7.124 2.24466667,7.57466667 2.834,7.904 C3.42333333,8.23333333 4.07766667,8.398 4.797,8.398 C5.889,8.398 6.786,8.034 7.488,7.306 L8.099,7.917 C7.70033333,8.35033333 7.21283333,8.68183333 6.6365,8.9115 C6.06016667,9.14116667 5.434,9.256 4.758,9.256 Z" id="Path"></path>
            </g>
        </g>
        <g id="Group-2" transform="translate(161.250000, 219.496249)">
            <path d="M4,0 L22.5,0 C24.709139,1.55629733e-15 26.5,1.790861 26.5,4 L26.5,13.75 L26.5,13.75 L26.5,22.5 C26.5,24.709139 24.709139,26.5 22.5,26.5 L4,26.5 C1.790861,26.5 -1.06172613e-15,24.709139 0,22.5 L0,4 C-2.705415e-16,1.790861 1.790861,-9.26455379e-16 4,0 Z" id="Rectangle" fill="#FDCB5B"></path>
            <g id="B" transform="translate(9.831000, 9.150000)" fill="#1E3D49" fill-rule="nonzero">
                <path d="M5.733,4.407 C6.331,4.537 6.7925,4.79483333 7.1175,5.1805 C7.4425,5.56616667 7.605,6.06233333 7.605,6.669 C7.605,7.449 7.31683333,8.04916667 6.7405,8.4695 C6.16416667,8.88983333 5.31266667,9.1 4.186,9.1 L0,9.1 L0,0 L3.926,0 C4.94,0 5.7265,0.203666667 6.2855,0.611 C6.8445,1.01833333 7.124,1.59466667 7.124,2.34 C7.124,2.84266667 7.0005,3.2695 6.7535,3.6205 C6.5065,3.9715 6.16633333,4.23366667 5.733,4.407 Z M0.962,0.793 L0.962,4.095 L3.861,4.095 C4.59766667,4.095 5.16533333,3.95416667 5.564,3.6725 C5.96266667,3.39083333 6.162,2.98133333 6.162,2.444 C6.162,1.90666667 5.96266667,1.49716667 5.564,1.2155 C5.16533333,0.933833333 4.59766667,0.793 3.861,0.793 L0.962,0.793 Z M4.173,8.307 C4.98766667,8.307 5.603,8.16833333 6.019,7.891 C6.435,7.61366667 6.643,7.18033333 6.643,6.591 C6.643,5.45566667 5.81966667,4.888 4.173,4.888 L0.962,4.888 L0.962,8.307 L4.173,8.307 Z" id="Shape"></path>
            </g>
            <polyline id="Path-2" fill="#FDCB5B" points="25.5 9.625 25.5 17.625 29.5 13.625"></polyline>
        </g>
        <g id="Group" transform="translate(161.250000, 110.125918)">
            <path d="M4,0 L22.5,0 C24.709139,1.55629733e-15 26.5,1.790861 26.5,4 L26.5,13.75 L26.5,13.75 L26.5,22.5 C26.5,24.709139 24.709139,26.5 22.5,26.5 L4,26.5 C1.790861,26.5 -1.06172613e-15,24.709139 0,22.5 L0,4 C-2.705415e-16,1.790861 1.790861,-9.26455379e-16 4,0 Z" id="Rectangle" fill="#80C0A1"></path>
            <g id="A" transform="translate(8.615500, 8.150000)" fill="#FFFFFF" fill-rule="nonzero">
                <path d="M7.163,6.669 L2.093,6.669 L1.001,9.1 L0,9.1 L4.16,0 L5.109,0 L9.269,9.1 L8.255,9.1 L7.163,6.669 Z M6.812,5.889 L4.628,1.001 L2.444,5.889 L6.812,5.889 Z" id="Shape"></path>
            </g>
            <polyline id="Path-2" fill="#80C0A1" points="25.5 9.625 25.5 17.625 29.5 13.625"></polyline>
        </g>
        <g id="Group-4" transform="translate(443.682174, 396.680380)">
            <path d="M4,0 L22.5,0 C24.709139,1.55629733e-15 26.5,1.790861 26.5,4 L26.5,13.75 L26.5,13.75 L26.5,22.5 C26.5,24.709139 24.709139,26.5 22.5,26.5 L4,26.5 C1.790861,26.5 -1.06172613e-15,24.709139 0,22.5 L0,4 C-2.705415e-16,1.790861 1.790861,-9.26455379e-16 4,0 Z" id="Rectangle" fill="#0086B2"></path>
            <g id="D" transform="translate(9.363000, 8.150000)" fill="#FFFFFF" fill-rule="nonzero">
                <path d="M0,0 L3.705,0 C4.667,0 5.51633333,0.192833333 6.253,0.5785 C6.98966667,0.964166667 7.56166667,1.5015 7.969,2.1905 C8.37633333,2.8795 8.58,3.666 8.58,4.55 C8.58,5.434 8.37633333,6.2205 7.969,6.9095 C7.56166667,7.5985 6.98966667,8.13583333 6.253,8.5215 C5.51633333,8.90716667 4.667,9.1 3.705,9.1 L0,9.1 L0,0 Z M3.653,8.268 C4.45033333,8.268 5.148,8.10983333 5.746,7.7935 C6.344,7.47716667 6.80766667,7.0395 7.137,6.4805 C7.46633333,5.9215 7.631,5.278 7.631,4.55 C7.631,3.822 7.46633333,3.1785 7.137,2.6195 C6.80766667,2.0605 6.344,1.62283333 5.746,1.3065 C5.148,0.990166667 4.45033333,0.832 3.653,0.832 L0.962,0.832 L0.962,8.268 L3.653,8.268 Z" id="Shape"></path>
            </g>
        </g>
        <path d="M503.5,200 L503.5,209.263158 C503.5,211.677431 501.598763,213.647647 499.211836,213.75826 L499,213.763158 L329,213.763158 C327.131437,213.763158 325.604874,215.227435 325.505179,217.071123 L325.5,217.263158 L325.500707,223.527543 C327.750342,223.776586 329.5,225.683966 329.5,228 C329.5,230.485281 327.485281,232.5 325,232.5 C322.514719,232.5 320.5,230.485281 320.5,228 C320.5,225.683621 322.250179,223.776019 324.500297,223.527432 L324.5,217.263158 C324.5,214.848885 326.401237,212.878669 328.788164,212.768056 L329,212.763158 L499,212.763158 C500.868563,212.763158 502.395126,211.29888 502.494821,209.455193 L502.5,209.263158 L502.5,200 L503.5,200 Z M325,224.5 C323.067003,224.5 321.5,226.067003 321.5,228 C321.5,229.932997 323.067003,231.5 325,231.5 C326.932997,231.5 328.5,229.932997 328.5,228 C328.5,226.067003 326.932997,224.5 325,224.5 Z" id="Path-22" fill="#1E3D49" fill-rule="nonzero"></path>
        <path d="M503.5,200 L503.5,209.263158 C503.5,211.677431 501.598763,213.647647 499.211836,213.75826 L499,213.763158 L417,213.763158 C415.131437,213.763158 413.604874,215.227435 413.505179,217.071123 L413.5,217.263158 L413.500707,223.527543 C415.750342,223.776586 417.5,225.683966 417.5,228 C417.5,230.485281 415.485281,232.5 413,232.5 C410.514719,232.5 408.5,230.485281 408.5,228 C408.5,225.683621 410.250179,223.776019 412.500297,223.527432 L412.5,217.263158 C412.5,214.848885 414.401237,212.878669 416.788164,212.768056 L417,212.763158 L499,212.763158 C500.868563,212.763158 502.395126,211.29888 502.494821,209.455193 L502.5,209.263158 L502.5,200 L503.5,200 Z M413,224.5 C411.067003,224.5 409.5,226.067003 409.5,228 C409.5,229.932997 411.067003,231.5 413,231.5 C414.932997,231.5 416.5,229.932997 416.5,228 C416.5,226.067003 414.932997,224.5 413,224.5 Z" id="Path-22" fill="#1E3D49" fill-rule="nonzero"></path>
        <path d="M593.5,200 L593.5,209.263158 C593.5,211.677431 591.598763,213.647647 589.211836,213.75826 L589,213.763158 L511,213.763158 C509.131437,213.763158 507.604874,215.227435 507.505179,217.071123 L507.5,217.263158 L507.500707,223.527543 C509.750342,223.776586 511.5,225.683966 511.5,228 C511.5,230.485281 509.485281,232.5 507,232.5 C504.514719,232.5 502.5,230.485281 502.5,228 C502.5,225.683621 504.250179,223.776019 506.500297,223.527432 L506.5,217.263158 C506.5,214.848885 508.401237,212.878669 510.788164,212.768056 L511,212.763158 L589,212.763158 C590.868563,212.763158 592.395126,211.29888 592.494821,209.455193 L592.5,209.263158 L592.5,200 L593.5,200 Z M507,224.5 C505.067003,224.5 503.5,226.067003 503.5,228 C503.5,229.932997 505.067003,231.5 507,231.5 C508.932997,231.5 510.5,229.932997 510.5,228 C510.5,226.067003 508.932997,224.5 507,224.5 Z" id="Path-22" fill="#1E3D49" fill-rule="nonzero" transform="translate(548.000000, 216.250000) scale(-1, 1) translate(-548.000000, -216.250000) "></path>
        <path d="M681.5,200 L681.5,209.263158 C681.5,211.677431 679.598763,213.647647 677.211836,213.75826 L677,213.763158 L511,213.763158 C509.131437,213.763158 507.604874,215.227435 507.505179,217.071123 L507.5,217.263158 L507.500707,223.527543 C509.750342,223.776586 511.5,225.683966 511.5,228 C511.5,230.485281 509.485281,232.5 507,232.5 C504.514719,232.5 502.5,230.485281 502.5,228 C502.5,225.683621 504.250179,223.776019 506.500297,223.527432 L506.5,217.263158 C506.5,214.848885 508.401237,212.878669 510.788164,212.768056 L511,212.763158 L677,212.763158 C678.868563,212.763158 680.395126,211.29888 680.494821,209.455193 L680.5,209.263158 L680.5,200 L681.5,200 Z M507,224.5 C505.067003,224.5 503.5,226.067003 503.5,228 C503.5,229.932997 505.067003,231.5 507,231.5 C508.932997,231.5 510.5,229.932997 510.5,228 C510.5,226.067003 508.932997,224.5 507,224.5 Z" id="Path-22" fill="#1E3D49" fill-rule="nonzero" transform="translate(592.000000, 216.250000) scale(-1, 1) translate(-592.000000, -216.250000) "></path>
        <path d="M503.5,200 L503.500707,220.580174 C505.750342,220.829218 507.5,222.736598 507.5,225.052632 C507.5,227.537913 505.485281,229.552632 503,229.552632 C500.514719,229.552632 498.5,227.537913 498.5,225.052632 C498.5,222.736253 500.250179,220.82865 502.500297,220.580063 L502.5,200 L503.5,200 Z M503,221.552632 C501.067003,221.552632 499.5,223.119635 499.5,225.052632 C499.5,226.985628 501.067003,228.552632 503,228.552632 C504.932997,228.552632 506.5,226.985628 506.5,225.052632 C506.5,223.119635 504.932997,221.552632 503,221.552632 Z" id="Path-23" fill="#1E3D49" fill-rule="nonzero"></path>
    </g>
</svg>