<?xml version="1.0" encoding="UTF-8"?>
<svg width="766px" height="466px" viewBox="0 0 766 466" version="1.1" xmlns="http://www.w3.org/2000/svg" xmlns:xlink="http://www.w3.org/1999/xlink">
    <title>7_pagination</title>
    <defs>
        <rect id="path-1" x="0" y="0" width="687.818731" height="329" rx="10.25"></rect>
        <mask id="mask-2" maskContentUnits="userSpaceOnUse" maskUnits="objectBoundingBox" x="0" y="0" width="687.818731" height="329" fill="white">
            <use xlink:href="#path-1"></use>
        </mask>
        <linearGradient x1="50%" y1="18.7612875%" x2="50%" y2="100%" id="linearGradient-3">
            <stop stop-color="#FFFFFF" offset="0%"></stop>
            <stop stop-color="#FFFFFF" stop-opacity="0" offset="100%"></stop>
        </linearGradient>
    </defs>
    <g id="7_pagination" stroke="none" stroke-width="1" fill="none" fill-rule="evenodd">
        <rect fill="#FFFFFF" x="0" y="0" width="766" height="466"></rect>
        <g id="Selected-page" transform="translate(34.090634, 59.000000)">
            <use id="Rectangle" stroke="#80C0A1" mask="url(#mask-2)" stroke-width="4" stroke-dasharray="4" xlink:href="#path-1"></use>
            <g id="Results" transform="translate(14.909366, 3.000000)" opacity="0.626521519">
                <g id="gridProduct" transform="translate(135.000000, 171.000000)">
                    <rect id="Rectangle-Copy-13" fill="#E2E6E7" x="-2.84217094e-14" y="0" width="120.293347" height="141" rx="5"></rect>
                    <rect id="Rectangle" fill="#FFFFFF" x="11.6104078" y="9.69279278" width="97.0725318" height="76.2772801" rx="4.26584808"></rect>
                    <g id="faketitle" transform="translate(27.374840, 95.011489)" fill="#BBC3C6">
                        <rect id="Rectangle-Copy-10" x="0" y="0" width="62.1913043" height="9.61363636" rx="4.26584808"></rect>
                    </g>
                    <g id="fakecart" transform="translate(9.987213, 113.265972)" fill="#BBC3C6">
                        <rect id="Rectangle-Copy-10" x="0" y="0" width="96.9665574" height="18.041235" rx="9.02061748"></rect>
                    </g>
                </g>
                <g id="gridProduct" transform="translate(0.000000, 171.000000)">
                    <rect id="Rectangle-Copy-13" fill="#E2E6E7" x="-1.42108547e-15" y="0" width="120.293347" height="141" rx="5"></rect>
                    <rect id="Rectangle" fill="#FFFFFF" x="11.6104078" y="9.69279278" width="97.0725318" height="76.2772801" rx="4.26584808"></rect>
                    <g id="faketitle" transform="translate(27.374840, 95.011489)" fill="#BBC3C6">
                        <rect id="Rectangle-Copy-10" x="0" y="0" width="62.1913043" height="9.61363636" rx="4.26584808"></rect>
                    </g>
                    <g id="fakecart" transform="translate(9.987213, 113.265972)" fill="#BBC3C6">
                        <rect id="Rectangle-Copy-10" x="0" y="0" width="96.9665574" height="18.041235" rx="9.02061748"></rect>
                    </g>
                </g>
                <g id="gridProduct" transform="translate(269.000000, 171.000000)">
                    <rect id="Rectangle-Copy-13" fill="#E2E6E7" x="0" y="0" width="120.293347" height="141" rx="5"></rect>
                    <rect id="Rectangle" fill="#FFFFFF" x="11.6104078" y="9.69279278" width="97.0725318" height="76.2772801" rx="4.26584808"></rect>
                    <g id="faketitle" transform="translate(27.374840, 95.011489)" fill="#BBC3C6">
                        <rect id="Rectangle-Copy-10" x="0" y="0" width="62.1913043" height="9.61363636" rx="4.26584808"></rect>
                    </g>
                    <g id="fakecart" transform="translate(9.987213, 113.265972)" fill="#BBC3C6">
                        <rect id="Rectangle-Copy-10" x="0" y="0" width="96.9665574" height="18.041235" rx="9.02061748"></rect>
                    </g>
                </g>
                <g id="gridProduct" transform="translate(404.000000, 171.000000)">
                    <rect id="Rectangle-Copy-13" fill="#E2E6E7" x="0" y="0" width="120.293347" height="141" rx="5"></rect>
                    <rect id="Rectangle" fill="#FFFFFF" x="11.6104078" y="9.69279278" width="97.0725318" height="76.2772801" rx="4.26584808"></rect>
                    <g id="faketitle" transform="translate(27.374840, 95.011489)" fill="#BBC3C6">
                        <rect id="Rectangle-Copy-10" x="0" y="0" width="62.1913043" height="9.61363636" rx="4.26584808"></rect>
                    </g>
                    <g id="fakecart" transform="translate(9.987213, 113.265972)" fill="#BBC3C6">
                        <rect id="Rectangle-Copy-10" x="0" y="0" width="96.9665574" height="18.041235" rx="9.02061748"></rect>
                    </g>
                </g>
                <g id="gridProduct" transform="translate(538.000000, 171.000000)">
                    <rect id="Rectangle-Copy-13" fill="#E2E6E7" x="0" y="0" width="120.293347" height="141" rx="5"></rect>
                    <rect id="Rectangle" fill="#FFFFFF" x="11.6104078" y="9.69279278" width="97.0725318" height="76.2772801" rx="4.26584808"></rect>
                    <g id="faketitle" transform="translate(27.374840, 95.011489)" fill="#BBC3C6">
                        <rect id="Rectangle-Copy-10" x="0" y="0" width="62.1913043" height="9.61363636" rx="4.26584808"></rect>
                    </g>
                    <g id="fakecart" transform="translate(9.987213, 113.265972)" fill="#BBC3C6">
                        <rect id="Rectangle-Copy-10" x="0" y="0" width="96.9665574" height="18.041235" rx="9.02061748"></rect>
                    </g>
                </g>
                <g id="gridProduct" transform="translate(135.000000, 0.000000)">
                    <rect id="Rectangle-Copy-13" fill="#E2E6E7" x="-2.84217094e-14" y="0" width="120.293347" height="141" rx="5"></rect>
                    <rect id="Rectangle" fill="#FFFFFF" x="11.6104078" y="9.69279278" width="97.0725318" height="76.2772801" rx="4.26584808"></rect>
                    <g id="faketitle" transform="translate(27.374840, 95.011489)" fill="#BBC3C6">
                        <rect id="Rectangle-Copy-10" x="0" y="0" width="62.1913043" height="9.61363636" rx="4.26584808"></rect>
                    </g>
                    <g id="fakecart" transform="translate(9.987213, 113.265972)" fill="#BBC3C6">
                        <rect id="Rectangle-Copy-10" x="0" y="0" width="96.9665574" height="18.041235" rx="9.02061748"></rect>
                    </g>
                </g>
                <g id="gridProduct" transform="translate(0.000000, 0.000000)">
                    <rect id="Rectangle-Copy-13" fill="#E2E6E7" x="-1.42108547e-15" y="0" width="120.293347" height="141" rx="5"></rect>
                    <rect id="Rectangle" fill="#FFFFFF" x="11.6104078" y="9.69279278" width="97.0725318" height="76.2772801" rx="4.26584808"></rect>
                    <g id="faketitle" transform="translate(27.374840, 95.011489)" fill="#BBC3C6">
                        <rect id="Rectangle-Copy-10" x="0" y="0" width="62.1913043" height="9.61363636" rx="4.26584808"></rect>
                    </g>
                    <g id="fakecart" transform="translate(9.987213, 113.265972)" fill="#BBC3C6">
                        <rect id="Rectangle-Copy-10" x="0" y="0" width="96.9665574" height="18.041235" rx="9.02061748"></rect>
                    </g>
                </g>
                <g id="gridProduct" transform="translate(269.000000, 0.000000)">
                    <rect id="Rectangle-Copy-13" fill="#E2E6E7" x="0" y="0" width="120.293347" height="141" rx="5"></rect>
                    <rect id="Rectangle" fill="#FFFFFF" x="11.6104078" y="9.69279278" width="97.0725318" height="76.2772801" rx="4.26584808"></rect>
                    <g id="faketitle" transform="translate(27.374840, 95.011489)" fill="#BBC3C6">
                        <rect id="Rectangle-Copy-10" x="0" y="0" width="62.1913043" height="9.61363636" rx="4.26584808"></rect>
                    </g>
                    <g id="fakecart" transform="translate(9.987213, 113.265972)" fill="#BBC3C6">
                        <rect id="Rectangle-Copy-10" x="0" y="0" width="96.9665574" height="18.041235" rx="9.02061748"></rect>
                    </g>
                </g>
                <g id="gridProduct" transform="translate(404.000000, 0.000000)">
                    <rect id="Rectangle-Copy-13" fill="#E2E6E7" x="0" y="0" width="120.293347" height="141" rx="5"></rect>
                    <rect id="Rectangle" fill="#FFFFFF" x="11.6104078" y="9.69279278" width="97.0725318" height="76.2772801" rx="4.26584808"></rect>
                    <g id="faketitle" transform="translate(27.374840, 95.011489)" fill="#BBC3C6">
                        <rect id="Rectangle-Copy-10" x="0" y="0" width="62.1913043" height="9.61363636" rx="4.26584808"></rect>
                    </g>
                    <g id="fakecart" transform="translate(9.987213, 113.265972)" fill="#BBC3C6">
                        <rect id="Rectangle-Copy-10" x="0" y="0" width="96.9665574" height="18.041235" rx="9.02061748"></rect>
                    </g>
                </g>
                <g id="gridProduct" transform="translate(538.000000, 0.000000)">
                    <rect id="Rectangle-Copy-13" fill="#E2E6E7" x="0" y="0" width="120.293347" height="141" rx="5"></rect>
                    <rect id="Rectangle" fill="#FFFFFF" x="11.6104078" y="9.69279278" width="97.0725318" height="76.2772801" rx="4.26584808"></rect>
                    <g id="faketitle" transform="translate(27.374840, 95.011489)" fill="#BBC3C6">
                        <rect id="Rectangle-Copy-10" x="0" y="0" width="62.1913043" height="9.61363636" rx="4.26584808"></rect>
                    </g>
                    <g id="fakecart" transform="translate(9.987213, 113.265972)" fill="#BBC3C6">
                        <rect id="Rectangle-Copy-10" x="0" y="0" width="96.9665574" height="18.041235" rx="9.02061748"></rect>
                    </g>
                </g>
            </g>
        </g>
        <rect id="Rectangle" fill="url(#linearGradient-3)" x="32" y="53" width="699" height="92"></rect>
        <rect id="Rectangle" stroke="#D3D3D3" fill="#FFFFFF" x="200.340591" y="42" width="515.516607" height="23.5" rx="11.75"></rect>
        <g id="Group" transform="translate(697.180917, 48.586933)" stroke="#D3D3D3">
            <circle id="Oval" fill="#FFFFFF" cx="4.78029079" cy="4.78029079" r="4.28029079"></circle>
            <line x1="8.29332654" y1="7.81681274" x2="11.0576172" y2="10.5811034" id="Path-21" stroke-linecap="round"></line>
        </g>
        <rect id="Rectangle" fill="#BBC3C6" x="209.826901" y="48.5869335" width="55.2708174" height="10.5811034" rx="3"></rect>
        <path d="M737.3158,0.057455 L27.7412515,0.057455 C11.9153824,0.057455 -0.914019474,12.8868568 -0.914019474,28.712726 L-0.914019474,438.287274 C-0.914019474,454.113143 11.9153824,466.942545 27.7412515,466.942545 L737.3158,466.942545 C753.141669,466.942545 765.971071,454.113143 765.971071,438.287274 L765.971071,28.712726 C765.971071,12.8868568 753.141669,0.057455 737.3158,0.057455 Z M737.3158,21.5 C741.299278,21.5 744.528526,24.7292474 744.528526,28.712726 L744.528526,438.287274 C744.528526,442.270753 741.299278,445.5 737.3158,445.5 L27.7412515,445.5 C23.757773,445.5 20.5285255,442.270753 20.5285255,438.287274 L20.5285255,28.712726 C20.5285255,24.7292474 23.757773,21.5 27.7412515,21.5 L737.3158,21.5 Z" id="Rectangle" fill="#202020" fill-rule="nonzero"></path>
        <rect id="Rectangle" fill="#243C47" x="40" y="40.75" width="144" height="26" rx="13"></rect>
        <circle id="Oval" stroke="#80C0A1" fill="#80C0A1" cx="343.500254" cy="412.195897" r="9.75025445"></circle>
        <g id="1" transform="translate(341.780377, 408.995643)" fill="#FFFFFF" fill-rule="nonzero">
            <polygon id="Path" points="2.363 0 2.363 5.95 1.258 5.95 1.258 0.9265 0 0.9265 0 0"></polygon>
        </g>
        <circle id="Oval" stroke="#1E3D49" cx="372.000763" cy="412.195897" r="9.75025445"></circle>
        <g id="2" transform="translate(369.426636, 408.910643)" fill="#1E3D49" fill-rule="nonzero">
            <path d="M4.6155,5.1 L4.6155,6.035 L0.2295,6.035 L0.2295,5.2955 L2.5925,3.0515 C2.85883333,2.7965 3.03875,2.57408333 3.13225,2.38425 C3.22575,2.19441667 3.2725,2.006 3.2725,1.819 C3.2725,1.54133333 3.179,1.32883333 2.992,1.1815 C2.805,1.03416667 2.53016667,0.9605 2.1675,0.9605 C1.56116667,0.9605 1.0965,1.16733333 0.7735,1.581 L0,0.986 C0.232333333,0.674333333 0.545416667,0.432083333 0.93925,0.25925 C1.33308333,0.0864166667 1.77366667,0 2.261,0 C2.907,0 3.42266667,0.153 3.808,0.459 C4.19333333,0.765 4.386,1.1815 4.386,1.7085 C4.386,2.0315 4.318,2.33466667 4.182,2.618 C4.046,2.90133333 3.78533333,3.22433333 3.4,3.587 L1.8105,5.1 L4.6155,5.1 Z" id="Path"></path>
        </g>
        <circle id="Oval" stroke="#1E3D49" cx="400.501272" cy="412.195897" r="9.75025445"></circle>
        <g id="3" transform="translate(397.867645, 408.995643)" fill="#1E3D49" fill-rule="nonzero">
            <path d="M2.8985,2.4565 C3.44816667,2.5245 3.8675,2.7115 4.1565,3.0175 C4.4455,3.3235 4.59,3.706 4.59,4.165 C4.59,4.51066667 4.50216667,4.82516667 4.3265,5.1085 C4.15083333,5.39183333 3.88591667,5.61708333 3.53175,5.78425 C3.17758333,5.95141667 2.7455,6.035 2.2355,6.035 C1.8105,6.035 1.40108333,5.97408333 1.00725,5.85225 C0.613416667,5.73041667 0.277666667,5.56183333 0,5.3465 L0.476,4.488 C0.691333333,4.66933333 0.953416667,4.81241667 1.26225,4.91725 C1.57108333,5.02208333 1.88983333,5.0745 2.2185,5.0745 C2.6095,5.0745 2.91691667,4.99375 3.14075,4.83225 C3.36458333,4.67075 3.4765,4.45116667 3.4765,4.1735 C3.4765,3.89583333 3.37025,3.67908333 3.15775,3.52325 C2.94525,3.36741667 2.62083333,3.2895 2.1845,3.2895 L1.6405,3.2895 L1.6405,2.533 L2.992,0.9265 L0.289,0.9265 L0.289,0 L4.3435,0 L4.3435,0.7395 L2.8985,2.4565 Z" id="Path"></path>
        </g>
        <circle id="Oval" stroke="#1E3D49" cx="437.001781" cy="412.195897" r="9.75025445"></circle>
        <g id="15" transform="translate(432.799904, 408.995643)" fill="#1E3D49" fill-rule="nonzero">
            <polygon id="Path" points="2.363 0 2.363 5.95 1.258 5.95 1.258 0.9265 0 0.9265 0 0"></polygon>
            <path d="M5.406,2.3035 C6.24466667,2.3035 6.86516667,2.46641667 7.2675,2.79225 C7.66983333,3.11808333 7.871,3.5615 7.871,4.1225 C7.871,4.4795 7.78316667,4.8025 7.6075,5.0915 C7.43183333,5.3805 7.16833333,5.61 6.817,5.78 C6.46566667,5.95 6.03216667,6.035 5.5165,6.035 C5.0915,6.035 4.68066667,5.97408333 4.284,5.85225 C3.88733333,5.73041667 3.553,5.56183333 3.281,5.3465 L3.7485,4.488 C3.9695,4.66933333 4.23441667,4.81241667 4.54325,4.91725 C4.85208333,5.02208333 5.17083333,5.0745 5.4995,5.0745 C5.8905,5.0745 6.19791667,4.99375 6.42175,4.83225 C6.64558333,4.67075 6.7575,4.44833333 6.7575,4.165 C6.7575,3.859 6.63708333,3.62808333 6.39625,3.47225 C6.15541667,3.31641667 5.74316667,3.2385 5.1595,3.2385 L3.723,3.2385 L4.029,0 L7.5225,0 L7.5225,0.9265 L4.964,0.9265 L4.8365,2.3035 L5.406,2.3035 Z" id="Path"></path>
        </g>
        <text id="…" font-family="Montserrat-SemiBold, Montserrat" font-size="8.5" font-weight="500" fill="#1E3D49">
            <tspan x="415.342759" y="420.945643">…</tspan>
        </text>
        <polyline id="Path-36" stroke="#1E3D49" stroke-linecap="round" stroke-linejoin="round" transform="translate(315.500000, 412.695643) rotate(-270.000000) translate(-315.500000, -412.695643) " points="312 410.945643 315.5 414.445643 319 410.945643"></polyline>
        <polyline id="Path-36-Copy" stroke="#1E3D49" stroke-linecap="round" stroke-linejoin="round" transform="translate(465.002036, 412.695643) rotate(-90.000000) translate(-465.002036, -412.695643) " points="461.502036 410.945643 465.002036 414.445643 468.502036 410.945643"></polyline>
    </g>
</svg>