<?xml version="1.0" encoding="UTF-8"?>
<svg width="822px" height="475px" viewBox="0 0 822 475" version="1.1" xmlns="http://www.w3.org/2000/svg" xmlns:xlink="http://www.w3.org/1999/xlink">
    <title>8_product_scoring</title>
    <g id="8_product_scoring" stroke="none" stroke-width="1" fill="none" fill-rule="evenodd">
        <rect fill="#FFFFFF" x="0" y="0" width="822" height="475"></rect>
        <rect id="Rectangle" fill="#E2E6E7" opacity="0.6" x="137.5" y="147.2612" width="549" height="55.5" rx="16"></rect>
        <rect id="Rectangle" stroke="#1E3D49" stroke-width="18" fill="#FFFFFF" x="52" y="270" width="695" height="242" rx="18"></rect>
        <g id="Group-2" transform="translate(98.609375, 47.500000)" stroke="#D3D3D3">
            <rect id="Rectangle" fill="#FFFFFF" x="0.5" y="0.5" width="604" height="20.5" rx="10.25"></rect>
            <circle id="Oval" fill="#FFFFFF" cx="591.093527" cy="10.75" r="4.78921177"></circle>
            <line x1="594.506696" y1="14.3333333" x2="597.06622" y2="16.8928571" id="Path"></line>
        </g>
        <rect id="Rectangle" fill="#243C47" x="104.867789" y="52.5339655" width="77.9375" height="11.4320689" rx="5.71603446"></rect>
        <rect id="Rectangle" fill="#53B9C9" x="145.998658" y="156.363473" width="151.977682" height="36.5" rx="8"></rect>
        <rect id="Rectangle" fill="#E2E6E7" opacity="0.605880011" x="217.114687" y="297.5" width="100" height="126" rx="8"></rect>
        <rect id="Rectangle" fill="#E2E6E7" opacity="0.605880011" x="85.9246875" y="297.5" width="100" height="126" rx="8"></rect>
        <rect id="Rectangle" fill="#E2E6E7" opacity="0.605880011" x="348.304688" y="297.5" width="100" height="126" rx="8"></rect>
        <rect id="Rectangle" fill="#E2E6E7" opacity="0.605880011" x="479.494688" y="297.5" width="100" height="126" rx="8"></rect>
        <rect id="Rectangle" fill="#E2E6E7" opacity="0.605880011" x="610.684688" y="297.5" width="100" height="126" rx="8"></rect>
        <rect id="Rectangle" fill="#E2E6E7" opacity="0.605880011" x="217.114687" y="447.5" width="100" height="126" rx="8"></rect>
        <rect id="Rectangle" fill="#E2E6E7" opacity="0.605880011" x="85.9246875" y="447.5" width="100" height="126" rx="8"></rect>
        <rect id="Rectangle" fill="#E2E6E7" opacity="0.605880011" x="348.304688" y="447.5" width="100" height="126" rx="8"></rect>
        <rect id="Rectangle" fill="#E2E6E7" opacity="0.605880011" x="479.494688" y="447.5" width="100" height="126" rx="8"></rect>
        <rect id="Rectangle" fill="#E2E6E7" opacity="0.605880011" x="610.684688" y="447.5" width="100" height="126" rx="8"></rect>
        <rect id="Rectangle" fill="#80C0A1" x="335.759817" y="156.363473" width="151.977682" height="36.5" rx="8"></rect>
        <rect id="Rectangle" fill="#FDCB5B" x="525.520975" y="156.363473" width="151.977682" height="36.5" rx="8"></rect>
        <rect id="Rectangle" fill="#53B9C9" x="93.9246875" y="307" width="84" height="35.8333333" rx="3"></rect>
        <rect id="Rectangle" fill="#80C0A1" x="93.9246875" y="344.833333" width="84" height="35.8333333" rx="3"></rect>
        <rect id="Rectangle" fill="#FDCB5B" x="93.9246875" y="382.666667" width="84" height="34" rx="3"></rect>
        <rect id="Rectangle" fill="#53B9C9" x="225.114688" y="307" width="84" height="39.5" rx="3"></rect>
        <rect id="Rectangle" fill="#80C0A1" x="225.114688" y="348.666667" width="84" height="33.5" rx="3"></rect>
        <rect id="Rectangle" fill="#FDCB5B" x="225.114688" y="384.2388" width="84" height="20.5" rx="3"></rect>
        <rect id="Rectangle" fill="#53B9C9" x="356.304687" y="307" width="84" height="27.8333333" rx="3"></rect>
        <rect id="Rectangle" fill="#80C0A1" x="356.304687" y="336.833333" width="84" height="23" rx="3"></rect>
        <rect id="Rectangle" fill="#FDCB5B" x="356.304687" y="362" width="84" height="28" rx="3"></rect>
        <rect id="Rectangle" fill="#53B9C9" x="487.494687" y="307" width="84" height="32" rx="3"></rect>
        <rect id="Rectangle" fill="#80C0A1" x="487.494687" y="341" width="84" height="21.3068182" rx="3"></rect>
        <rect id="Rectangle" fill="#FDCB5B" x="487.494687" y="364.306818" width="84" height="16.1931818" rx="3"></rect>
        <rect id="Rectangle" fill="#53B9C9" x="618.684687" y="307" width="84" height="23.1666667" rx="3"></rect>
        <rect id="Rectangle" fill="#53B9C9" x="93.9246875" y="456.166667" width="84" height="35.8333333" rx="3"></rect>
        <rect id="Rectangle" fill="#53B9C9" x="225.114688" y="456.166667" width="84" height="31.1666667" rx="3"></rect>
        <rect id="Rectangle" fill="#53B9C9" x="356.304687" y="456.166667" width="84" height="27.8333333" rx="3"></rect>
        <rect id="Rectangle" fill="#53B9C9" x="487.494687" y="456.166667" width="84" height="25" rx="3"></rect>
        <rect id="Rectangle" fill="#53B9C9" x="618.684687" y="456.166667" width="84" height="23.1666667" rx="3"></rect>
        <rect id="Rectangle" fill="#80C0A1" x="618.684687" y="332.166667" width="84" height="23.1666667" rx="3"></rect>
        <rect id="Rectangle" fill="#FDCB5B" x="618.684687" y="357.333333" width="84" height="23.1666667" rx="3"></rect>
        <g id="Textual-Relevance" transform="translate(167.628919, 170.107200)" fill="#FFFFFF" fill-rule="nonzero">
            <polygon id="Path" points="2.952 1.272 0 1.272 0 0.504 6.792 0.504 6.792 1.272 3.84 1.272 3.84 8.904 2.952 8.904"></polygon>
            <path d="M12.864,6.012 L7.584,6.012 C7.632,6.668 7.884,7.198 8.34,7.602 C8.796,8.006 9.372,8.208 10.068,8.208 C10.46,8.208 10.82,8.138 11.148,7.998 C11.476,7.858 11.76,7.652 12,7.38 L12.48,7.932 C12.2,8.268 11.85,8.524 11.43,8.7 C11.01,8.876 10.548,8.964 10.044,8.964 C9.396,8.964 8.822,8.826 8.322,8.55 C7.822,8.274 7.432,7.892 7.152,7.404 C6.872,6.916 6.732,6.364 6.732,5.748 C6.732,5.132 6.866,4.58 7.134,4.092 C7.402,3.604 7.77,3.224 8.238,2.952 C8.706,2.68 9.232,2.544 9.816,2.544 C10.4,2.544 10.924,2.68 11.388,2.952 C11.852,3.224 12.216,3.602 12.48,4.086 C12.744,4.57 12.876,5.124 12.876,5.748 L12.864,6.012 Z M9.816,3.276 C9.208,3.276 8.698,3.47 8.286,3.858 C7.874,4.246 7.64,4.752 7.584,5.376 L12.06,5.376 C12.004,4.752 11.77,4.246 11.358,3.858 C10.946,3.47 10.432,3.276 9.816,3.276 Z" id="Shape"></path>
            <polygon id="Path" points="18.456 8.904 16.452 6.264 14.436 8.904 13.476 8.904 15.972 5.664 13.596 2.592 14.556 2.592 16.452 5.064 18.348 2.592 19.284 2.592 16.908 5.664 19.428 8.904"></polygon>
            <path d="M24.168,8.52 C24.008,8.664 23.81,8.774 23.574,8.85 C23.338,8.926 23.092,8.964 22.836,8.964 C22.244,8.964 21.788,8.804 21.468,8.484 C21.148,8.164 20.988,7.712 20.988,7.128 L20.988,3.312 L19.86,3.312 L19.86,2.592 L20.988,2.592 L20.988,1.212 L21.84,1.212 L21.84,2.592 L23.76,2.592 L23.76,3.312 L21.84,3.312 L21.84,7.08 C21.84,7.456 21.934,7.742 22.122,7.938 C22.31,8.134 22.58,8.232 22.932,8.232 C23.108,8.232 23.278,8.204 23.442,8.148 C23.606,8.092 23.748,8.012 23.868,7.908 L24.168,8.52 Z" id="Path"></path>
            <path d="M31.404,2.592 L31.404,8.904 L30.588,8.904 L30.588,7.752 C30.364,8.136 30.056,8.434 29.664,8.646 C29.272,8.858 28.824,8.964 28.32,8.964 C27.496,8.964 26.846,8.734 26.37,8.274 C25.894,7.814 25.656,7.14 25.656,6.252 L25.656,2.592 L26.508,2.592 L26.508,6.168 C26.508,6.832 26.672,7.336 27,7.68 C27.328,8.024 27.796,8.196 28.404,8.196 C29.068,8.196 29.592,7.994 29.976,7.59 C30.36,7.186 30.552,6.624 30.552,5.904 L30.552,2.592 L31.404,2.592 Z" id="Path"></path>
            <path d="M36,2.544 C36.824,2.544 37.456,2.75 37.896,3.162 C38.336,3.574 38.556,4.184 38.556,4.992 L38.556,8.904 L37.74,8.904 L37.74,7.92 C37.548,8.248 37.266,8.504 36.894,8.688 C36.522,8.872 36.08,8.964 35.568,8.964 C34.864,8.964 34.304,8.796 33.888,8.46 C33.472,8.124 33.264,7.68 33.264,7.128 C33.264,6.592 33.458,6.16 33.846,5.832 C34.234,5.504 34.852,5.34 35.7,5.34 L37.704,5.34 L37.704,4.956 C37.704,4.412 37.552,3.998 37.248,3.714 C36.944,3.43 36.5,3.288 35.916,3.288 C35.516,3.288 35.132,3.354 34.764,3.486 C34.396,3.618 34.08,3.8 33.816,4.032 L33.432,3.396 C33.752,3.124 34.136,2.914 34.584,2.766 C35.032,2.618 35.504,2.544 36,2.544 Z M35.7,8.292 C36.18,8.292 36.592,8.182 36.936,7.962 C37.28,7.742 37.536,7.424 37.704,7.008 L37.704,5.976 L35.724,5.976 C34.644,5.976 34.104,6.352 34.104,7.104 C34.104,7.472 34.244,7.762 34.524,7.974 C34.804,8.186 35.196,8.292 35.7,8.292 Z" id="Shape"></path>
            <polygon id="Path" points="40.872 0 41.724 0 41.724 8.904 40.872 8.904"></polygon>
            <path d="M53.16,8.904 L51.24,6.204 C51.024,6.228 50.8,6.24 50.568,6.24 L48.312,6.24 L48.312,8.904 L47.424,8.904 L47.424,0.504 L50.568,0.504 C51.64,0.504 52.48,0.76 53.088,1.272 C53.696,1.784 54,2.488 54,3.384 C54,4.04 53.834,4.594 53.502,5.046 C53.17,5.498 52.696,5.824 52.08,6.024 L54.132,8.904 L53.16,8.904 Z M50.544,5.484 C51.376,5.484 52.012,5.3 52.452,4.932 C52.892,4.564 53.112,4.048 53.112,3.384 C53.112,2.704 52.892,2.182 52.452,1.818 C52.012,1.454 51.376,1.272 50.544,1.272 L48.312,1.272 L48.312,5.484 L50.544,5.484 Z" id="Shape"></path>
            <path d="M61.416,6.012 L56.136,6.012 C56.184,6.668 56.436,7.198 56.892,7.602 C57.348,8.006 57.924,8.208 58.62,8.208 C59.012,8.208 59.372,8.138 59.7,7.998 C60.028,7.858 60.312,7.652 60.552,7.38 L61.032,7.932 C60.752,8.268 60.402,8.524 59.982,8.7 C59.562,8.876 59.1,8.964 58.596,8.964 C57.948,8.964 57.374,8.826 56.874,8.55 C56.374,8.274 55.984,7.892 55.704,7.404 C55.424,6.916 55.284,6.364 55.284,5.748 C55.284,5.132 55.418,4.58 55.686,4.092 C55.954,3.604 56.322,3.224 56.79,2.952 C57.258,2.68 57.784,2.544 58.368,2.544 C58.952,2.544 59.476,2.68 59.94,2.952 C60.404,3.224 60.768,3.602 61.032,4.086 C61.296,4.57 61.428,5.124 61.428,5.748 L61.416,6.012 Z M58.368,3.276 C57.76,3.276 57.25,3.47 56.838,3.858 C56.426,4.246 56.192,4.752 56.136,5.376 L60.612,5.376 C60.556,4.752 60.322,4.246 59.91,3.858 C59.498,3.47 58.984,3.276 58.368,3.276 Z" id="Shape"></path>
            <polygon id="Path" points="63.168 0 64.02 0 64.02 8.904 63.168 8.904"></polygon>
            <path d="M71.892,6.012 L66.612,6.012 C66.66,6.668 66.912,7.198 67.368,7.602 C67.824,8.006 68.4,8.208 69.096,8.208 C69.488,8.208 69.848,8.138 70.176,7.998 C70.504,7.858 70.788,7.652 71.028,7.38 L71.508,7.932 C71.228,8.268 70.878,8.524 70.458,8.7 C70.038,8.876 69.576,8.964 69.072,8.964 C68.424,8.964 67.85,8.826 67.35,8.55 C66.85,8.274 66.46,7.892 66.18,7.404 C65.9,6.916 65.76,6.364 65.76,5.748 C65.76,5.132 65.894,4.58 66.162,4.092 C66.43,3.604 66.798,3.224 67.266,2.952 C67.734,2.68 68.26,2.544 68.844,2.544 C69.428,2.544 69.952,2.68 70.416,2.952 C70.88,3.224 71.244,3.602 71.508,4.086 C71.772,4.57 71.904,5.124 71.904,5.748 L71.892,6.012 Z M68.844,3.276 C68.236,3.276 67.726,3.47 67.314,3.858 C66.902,4.246 66.668,4.752 66.612,5.376 L71.088,5.376 C71.032,4.752 70.798,4.246 70.386,3.858 C69.974,3.47 69.46,3.276 68.844,3.276 Z" id="Shape"></path>
            <polygon id="Path" points="78.828 2.592 76.02 8.904 75.144 8.904 72.348 2.592 73.236 2.592 75.6 7.968 77.988 2.592"></polygon>
            <path d="M82.044,2.544 C82.868,2.544 83.5,2.75 83.94,3.162 C84.38,3.574 84.6,4.184 84.6,4.992 L84.6,8.904 L83.784,8.904 L83.784,7.92 C83.592,8.248 83.31,8.504 82.938,8.688 C82.566,8.872 82.124,8.964 81.612,8.964 C80.908,8.964 80.348,8.796 79.932,8.46 C79.516,8.124 79.308,7.68 79.308,7.128 C79.308,6.592 79.502,6.16 79.89,5.832 C80.278,5.504 80.896,5.34 81.744,5.34 L83.748,5.34 L83.748,4.956 C83.748,4.412 83.596,3.998 83.292,3.714 C82.988,3.43 82.544,3.288 81.96,3.288 C81.56,3.288 81.176,3.354 80.808,3.486 C80.44,3.618 80.124,3.8 79.86,4.032 L79.476,3.396 C79.796,3.124 80.18,2.914 80.628,2.766 C81.076,2.618 81.548,2.544 82.044,2.544 Z M81.744,8.292 C82.224,8.292 82.636,8.182 82.98,7.962 C83.324,7.742 83.58,7.424 83.748,7.008 L83.748,5.976 L81.768,5.976 C80.688,5.976 80.148,6.352 80.148,7.104 C80.148,7.472 80.288,7.762 80.568,7.974 C80.848,8.186 81.24,8.292 81.744,8.292 Z" id="Shape"></path>
            <path d="M90.132,2.544 C90.924,2.544 91.554,2.774 92.022,3.234 C92.49,3.694 92.724,4.364 92.724,5.244 L92.724,8.904 L91.872,8.904 L91.872,5.328 C91.872,4.672 91.708,4.172 91.38,3.828 C91.052,3.484 90.584,3.312 89.976,3.312 C89.296,3.312 88.758,3.514 88.362,3.918 C87.966,4.322 87.768,4.88 87.768,5.592 L87.768,8.904 L86.916,8.904 L86.916,2.592 L87.732,2.592 L87.732,3.756 C87.964,3.372 88.286,3.074 88.698,2.862 C89.11,2.65 89.588,2.544 90.132,2.544 Z" id="Path"></path>
            <path d="M97.68,8.964 C97.056,8.964 96.498,8.828 96.006,8.556 C95.514,8.284 95.128,7.902 94.848,7.41 C94.568,6.918 94.428,6.364 94.428,5.748 C94.428,5.132 94.568,4.58 94.848,4.092 C95.128,3.604 95.514,3.224 96.006,2.952 C96.498,2.68 97.056,2.544 97.68,2.544 C98.224,2.544 98.71,2.65 99.138,2.862 C99.566,3.074 99.904,3.384 100.152,3.792 L99.516,4.224 C99.308,3.912 99.044,3.678 98.724,3.522 C98.404,3.366 98.056,3.288 97.68,3.288 C97.224,3.288 96.814,3.39 96.45,3.594 C96.086,3.798 95.802,4.088 95.598,4.464 C95.394,4.84 95.292,5.268 95.292,5.748 C95.292,6.236 95.394,6.666 95.598,7.038 C95.802,7.41 96.086,7.698 96.45,7.902 C96.814,8.106 97.224,8.208 97.68,8.208 C98.056,8.208 98.404,8.132 98.724,7.98 C99.044,7.828 99.308,7.596 99.516,7.284 L100.152,7.716 C99.904,8.124 99.564,8.434 99.132,8.646 C98.7,8.858 98.216,8.964 97.68,8.964 Z" id="Path"></path>
            <path d="M107.208,6.012 L101.928,6.012 C101.976,6.668 102.228,7.198 102.684,7.602 C103.14,8.006 103.716,8.208 104.412,8.208 C104.804,8.208 105.164,8.138 105.492,7.998 C105.82,7.858 106.104,7.652 106.344,7.38 L106.824,7.932 C106.544,8.268 106.194,8.524 105.774,8.7 C105.354,8.876 104.892,8.964 104.388,8.964 C103.74,8.964 103.166,8.826 102.666,8.55 C102.166,8.274 101.776,7.892 101.496,7.404 C101.216,6.916 101.076,6.364 101.076,5.748 C101.076,5.132 101.21,4.58 101.478,4.092 C101.746,3.604 102.114,3.224 102.582,2.952 C103.05,2.68 103.576,2.544 104.16,2.544 C104.744,2.544 105.268,2.68 105.732,2.952 C106.196,3.224 106.56,3.602 106.824,4.086 C107.088,4.57 107.22,5.124 107.22,5.748 L107.208,6.012 Z M104.16,3.276 C103.552,3.276 103.042,3.47 102.63,3.858 C102.218,4.246 101.984,4.752 101.928,5.376 L106.404,5.376 C106.348,4.752 106.114,4.246 105.702,3.858 C105.29,3.47 104.776,3.276 104.16,3.276 Z" id="Shape"></path>
        </g>
        <g id="Business-Rules" transform="translate(368.143484, 170.107200)" fill="#FFFFFF" fill-rule="nonzero">
            <path d="M5.292,4.572 C5.844,4.692 6.27,4.93 6.57,5.286 C6.87,5.642 7.02,6.1 7.02,6.66 C7.02,7.38 6.754,7.934 6.222,8.322 C5.69,8.71 4.904,8.904 3.864,8.904 L0,8.904 L0,0.504 L3.624,0.504 C4.56,0.504 5.286,0.692 5.802,1.068 C6.318,1.444 6.576,1.976 6.576,2.664 C6.576,3.128 6.462,3.522 6.234,3.846 C6.006,4.17 5.692,4.412 5.292,4.572 Z M0.888,1.236 L0.888,4.284 L3.564,4.284 C4.244,4.284 4.768,4.154 5.136,3.894 C5.504,3.634 5.688,3.256 5.688,2.76 C5.688,2.264 5.504,1.886 5.136,1.626 C4.768,1.366 4.244,1.236 3.564,1.236 L0.888,1.236 Z M3.852,8.172 C4.604,8.172 5.172,8.044 5.556,7.788 C5.94,7.532 6.132,7.132 6.132,6.588 C6.132,5.54 5.372,5.016 3.852,5.016 L0.888,5.016 L0.888,8.172 L3.852,8.172 Z" id="Shape"></path>
            <path d="M14.556,2.592 L14.556,8.904 L13.74,8.904 L13.74,7.752 C13.516,8.136 13.208,8.434 12.816,8.646 C12.424,8.858 11.976,8.964 11.472,8.964 C10.648,8.964 9.998,8.734 9.522,8.274 C9.046,7.814 8.808,7.14 8.808,6.252 L8.808,2.592 L9.66,2.592 L9.66,6.168 C9.66,6.832 9.824,7.336 10.152,7.68 C10.48,8.024 10.948,8.196 11.556,8.196 C12.22,8.196 12.744,7.994 13.128,7.59 C13.512,7.186 13.704,6.624 13.704,5.904 L13.704,2.592 L14.556,2.592 Z" id="Path"></path>
            <path d="M18.636,8.964 C18.124,8.964 17.634,8.89 17.166,8.742 C16.698,8.594 16.332,8.408 16.068,8.184 L16.452,7.512 C16.716,7.72 17.048,7.89 17.448,8.022 C17.848,8.154 18.264,8.22 18.696,8.22 C19.272,8.22 19.698,8.13 19.974,7.95 C20.25,7.77 20.388,7.516 20.388,7.188 C20.388,6.956 20.312,6.774 20.16,6.642 C20.008,6.51 19.816,6.41 19.584,6.342 C19.352,6.274 19.044,6.208 18.66,6.144 C18.148,6.048 17.736,5.95 17.424,5.85 C17.112,5.75 16.846,5.58 16.626,5.34 C16.406,5.1 16.296,4.768 16.296,4.344 C16.296,3.816 16.516,3.384 16.956,3.048 C17.396,2.712 18.008,2.544 18.792,2.544 C19.2,2.544 19.608,2.598 20.016,2.706 C20.424,2.814 20.76,2.956 21.024,3.132 L20.652,3.816 C20.132,3.456 19.512,3.276 18.792,3.276 C18.248,3.276 17.838,3.372 17.562,3.564 C17.286,3.756 17.148,4.008 17.148,4.32 C17.148,4.56 17.226,4.752 17.382,4.896 C17.538,5.04 17.732,5.146 17.964,5.214 C18.196,5.282 18.516,5.352 18.924,5.424 C19.428,5.52 19.832,5.616 20.136,5.712 C20.44,5.808 20.7,5.972 20.916,6.204 C21.132,6.436 21.24,6.756 21.24,7.164 C21.24,7.716 21.01,8.154 20.55,8.478 C20.09,8.802 19.452,8.964 18.636,8.964 Z" id="Path"></path>
            <path d="M22.812,2.592 L23.664,2.592 L23.664,8.904 L22.812,8.904 L22.812,2.592 Z M23.244,1.212 C23.068,1.212 22.92,1.152 22.8,1.032 C22.68,0.912 22.62,0.768 22.62,0.6 C22.62,0.44 22.68,0.3 22.8,0.18 C22.92,0.06 23.068,0 23.244,0 C23.42,0 23.568,0.058 23.688,0.174 C23.808,0.29 23.868,0.428 23.868,0.588 C23.868,0.764 23.808,0.912 23.688,1.032 C23.568,1.152 23.42,1.212 23.244,1.212 Z" id="Shape"></path>
            <path d="M29.256,2.544 C30.048,2.544 30.678,2.774 31.146,3.234 C31.614,3.694 31.848,4.364 31.848,5.244 L31.848,8.904 L30.996,8.904 L30.996,5.328 C30.996,4.672 30.832,4.172 30.504,3.828 C30.176,3.484 29.708,3.312 29.1,3.312 C28.42,3.312 27.882,3.514 27.486,3.918 C27.09,4.322 26.892,4.88 26.892,5.592 L26.892,8.904 L26.04,8.904 L26.04,2.592 L26.856,2.592 L26.856,3.756 C27.088,3.372 27.41,3.074 27.822,2.862 C28.234,2.65 28.712,2.544 29.256,2.544 Z" id="Path"></path>
            <path d="M39.684,6.012 L34.404,6.012 C34.452,6.668 34.704,7.198 35.16,7.602 C35.616,8.006 36.192,8.208 36.888,8.208 C37.28,8.208 37.64,8.138 37.968,7.998 C38.296,7.858 38.58,7.652 38.82,7.38 L39.3,7.932 C39.02,8.268 38.67,8.524 38.25,8.7 C37.83,8.876 37.368,8.964 36.864,8.964 C36.216,8.964 35.642,8.826 35.142,8.55 C34.642,8.274 34.252,7.892 33.972,7.404 C33.692,6.916 33.552,6.364 33.552,5.748 C33.552,5.132 33.686,4.58 33.954,4.092 C34.222,3.604 34.59,3.224 35.058,2.952 C35.526,2.68 36.052,2.544 36.636,2.544 C37.22,2.544 37.744,2.68 38.208,2.952 C38.672,3.224 39.036,3.602 39.3,4.086 C39.564,4.57 39.696,5.124 39.696,5.748 L39.684,6.012 Z M36.636,3.276 C36.028,3.276 35.518,3.47 35.106,3.858 C34.694,4.246 34.46,4.752 34.404,5.376 L38.88,5.376 C38.824,4.752 38.59,4.246 38.178,3.858 C37.766,3.47 37.252,3.276 36.636,3.276 Z" id="Shape"></path>
            <path d="M43.128,8.964 C42.616,8.964 42.126,8.89 41.658,8.742 C41.19,8.594 40.824,8.408 40.56,8.184 L40.944,7.512 C41.208,7.72 41.54,7.89 41.94,8.022 C42.34,8.154 42.756,8.22 43.188,8.22 C43.764,8.22 44.19,8.13 44.466,7.95 C44.742,7.77 44.88,7.516 44.88,7.188 C44.88,6.956 44.804,6.774 44.652,6.642 C44.5,6.51 44.308,6.41 44.076,6.342 C43.844,6.274 43.536,6.208 43.152,6.144 C42.64,6.048 42.228,5.95 41.916,5.85 C41.604,5.75 41.338,5.58 41.118,5.34 C40.898,5.1 40.788,4.768 40.788,4.344 C40.788,3.816 41.008,3.384 41.448,3.048 C41.888,2.712 42.5,2.544 43.284,2.544 C43.692,2.544 44.1,2.598 44.508,2.706 C44.916,2.814 45.252,2.956 45.516,3.132 L45.144,3.816 C44.624,3.456 44.004,3.276 43.284,3.276 C42.74,3.276 42.33,3.372 42.054,3.564 C41.778,3.756 41.64,4.008 41.64,4.32 C41.64,4.56 41.718,4.752 41.874,4.896 C42.03,5.04 42.224,5.146 42.456,5.214 C42.688,5.282 43.008,5.352 43.416,5.424 C43.92,5.52 44.324,5.616 44.628,5.712 C44.932,5.808 45.192,5.972 45.408,6.204 C45.624,6.436 45.732,6.756 45.732,7.164 C45.732,7.716 45.502,8.154 45.042,8.478 C44.582,8.802 43.944,8.964 43.128,8.964 Z" id="Path"></path>
            <path d="M48.996,8.964 C48.484,8.964 47.994,8.89 47.526,8.742 C47.058,8.594 46.692,8.408 46.428,8.184 L46.812,7.512 C47.076,7.72 47.408,7.89 47.808,8.022 C48.208,8.154 48.624,8.22 49.056,8.22 C49.632,8.22 50.058,8.13 50.334,7.95 C50.61,7.77 50.748,7.516 50.748,7.188 C50.748,6.956 50.672,6.774 50.52,6.642 C50.368,6.51 50.176,6.41 49.944,6.342 C49.712,6.274 49.404,6.208 49.02,6.144 C48.508,6.048 48.096,5.95 47.784,5.85 C47.472,5.75 47.206,5.58 46.986,5.34 C46.766,5.1 46.656,4.768 46.656,4.344 C46.656,3.816 46.876,3.384 47.316,3.048 C47.756,2.712 48.368,2.544 49.152,2.544 C49.56,2.544 49.968,2.598 50.376,2.706 C50.784,2.814 51.12,2.956 51.384,3.132 L51.012,3.816 C50.492,3.456 49.872,3.276 49.152,3.276 C48.608,3.276 48.198,3.372 47.922,3.564 C47.646,3.756 47.508,4.008 47.508,4.32 C47.508,4.56 47.586,4.752 47.742,4.896 C47.898,5.04 48.092,5.146 48.324,5.214 C48.556,5.282 48.876,5.352 49.284,5.424 C49.788,5.52 50.192,5.616 50.496,5.712 C50.8,5.808 51.06,5.972 51.276,6.204 C51.492,6.436 51.6,6.756 51.6,7.164 C51.6,7.716 51.37,8.154 50.91,8.478 C50.45,8.802 49.812,8.964 48.996,8.964 Z" id="Path"></path>
            <path d="M62.232,8.904 L60.312,6.204 C60.096,6.228 59.872,6.24 59.64,6.24 L57.384,6.24 L57.384,8.904 L56.496,8.904 L56.496,0.504 L59.64,0.504 C60.712,0.504 61.552,0.76 62.16,1.272 C62.768,1.784 63.072,2.488 63.072,3.384 C63.072,4.04 62.906,4.594 62.574,5.046 C62.242,5.498 61.768,5.824 61.152,6.024 L63.204,8.904 L62.232,8.904 Z M59.616,5.484 C60.448,5.484 61.084,5.3 61.524,4.932 C61.964,4.564 62.184,4.048 62.184,3.384 C62.184,2.704 61.964,2.182 61.524,1.818 C61.084,1.454 60.448,1.272 59.616,1.272 L57.384,1.272 L57.384,5.484 L59.616,5.484 Z" id="Shape"></path>
            <path d="M70.68,2.592 L70.68,8.904 L69.864,8.904 L69.864,7.752 C69.64,8.136 69.332,8.434 68.94,8.646 C68.548,8.858 68.1,8.964 67.596,8.964 C66.772,8.964 66.122,8.734 65.646,8.274 C65.17,7.814 64.932,7.14 64.932,6.252 L64.932,2.592 L65.784,2.592 L65.784,6.168 C65.784,6.832 65.948,7.336 66.276,7.68 C66.604,8.024 67.072,8.196 67.68,8.196 C68.344,8.196 68.868,7.994 69.252,7.59 C69.636,7.186 69.828,6.624 69.828,5.904 L69.828,2.592 L70.68,2.592 Z" id="Path"></path>
            <polygon id="Path" points="73.068 0 73.92 0 73.92 8.904 73.068 8.904"></polygon>
            <path d="M81.792,6.012 L76.512,6.012 C76.56,6.668 76.812,7.198 77.268,7.602 C77.724,8.006 78.3,8.208 78.996,8.208 C79.388,8.208 79.748,8.138 80.076,7.998 C80.404,7.858 80.688,7.652 80.928,7.38 L81.408,7.932 C81.128,8.268 80.778,8.524 80.358,8.7 C79.938,8.876 79.476,8.964 78.972,8.964 C78.324,8.964 77.75,8.826 77.25,8.55 C76.75,8.274 76.36,7.892 76.08,7.404 C75.8,6.916 75.66,6.364 75.66,5.748 C75.66,5.132 75.794,4.58 76.062,4.092 C76.33,3.604 76.698,3.224 77.166,2.952 C77.634,2.68 78.16,2.544 78.744,2.544 C79.328,2.544 79.852,2.68 80.316,2.952 C80.78,3.224 81.144,3.602 81.408,4.086 C81.672,4.57 81.804,5.124 81.804,5.748 L81.792,6.012 Z M78.744,3.276 C78.136,3.276 77.626,3.47 77.214,3.858 C76.802,4.246 76.568,4.752 76.512,5.376 L80.988,5.376 C80.932,4.752 80.698,4.246 80.286,3.858 C79.874,3.47 79.36,3.276 78.744,3.276 Z" id="Shape"></path>
            <path d="M85.236,8.964 C84.724,8.964 84.234,8.89 83.766,8.742 C83.298,8.594 82.932,8.408 82.668,8.184 L83.052,7.512 C83.316,7.72 83.648,7.89 84.048,8.022 C84.448,8.154 84.864,8.22 85.296,8.22 C85.872,8.22 86.298,8.13 86.574,7.95 C86.85,7.77 86.988,7.516 86.988,7.188 C86.988,6.956 86.912,6.774 86.76,6.642 C86.608,6.51 86.416,6.41 86.184,6.342 C85.952,6.274 85.644,6.208 85.26,6.144 C84.748,6.048 84.336,5.95 84.024,5.85 C83.712,5.75 83.446,5.58 83.226,5.34 C83.006,5.1 82.896,4.768 82.896,4.344 C82.896,3.816 83.116,3.384 83.556,3.048 C83.996,2.712 84.608,2.544 85.392,2.544 C85.8,2.544 86.208,2.598 86.616,2.706 C87.024,2.814 87.36,2.956 87.624,3.132 L87.252,3.816 C86.732,3.456 86.112,3.276 85.392,3.276 C84.848,3.276 84.438,3.372 84.162,3.564 C83.886,3.756 83.748,4.008 83.748,4.32 C83.748,4.56 83.826,4.752 83.982,4.896 C84.138,5.04 84.332,5.146 84.564,5.214 C84.796,5.282 85.116,5.352 85.524,5.424 C86.028,5.52 86.432,5.616 86.736,5.712 C87.04,5.808 87.3,5.972 87.516,6.204 C87.732,6.436 87.84,6.756 87.84,7.164 C87.84,7.716 87.61,8.154 87.15,8.478 C86.69,8.802 86.052,8.964 85.236,8.964 Z" id="Path"></path>
        </g>
        <g id="Context" transform="translate(578.846565, 170.539200)" fill="#FFFFFF" fill-rule="nonzero">
            <path d="M4.392,8.544 C3.56,8.544 2.81,8.36 2.142,7.992 C1.474,7.624 0.95,7.114 0.57,6.462 C0.19,5.81 -9.09494702e-13,5.08 -9.09494702e-13,4.272 C-9.09494702e-13,3.464 0.19,2.734 0.57,2.082 C0.95,1.43 1.476,0.92 2.148,0.552 C2.82,0.184 3.572,0 4.404,0 C5.028,0 5.604,0.104 6.132,0.312 C6.66,0.52 7.108,0.824 7.476,1.224 L6.912,1.788 C6.256,1.124 5.428,0.792 4.428,0.792 C3.764,0.792 3.16,0.944 2.616,1.248 C2.072,1.552 1.646,1.968 1.338,2.496 C1.03,3.024 0.876,3.616 0.876,4.272 C0.876,4.928 1.03,5.52 1.338,6.048 C1.646,6.576 2.072,6.992 2.616,7.296 C3.16,7.6 3.764,7.752 4.428,7.752 C5.436,7.752 6.264,7.416 6.912,6.744 L7.476,7.308 C7.108,7.708 6.658,8.014 6.126,8.226 C5.594,8.438 5.016,8.544 4.392,8.544 Z" id="Path"></path>
            <path d="M11.496,8.532 C10.888,8.532 10.34,8.394 9.852,8.118 C9.364,7.842 8.98,7.46 8.7,6.972 C8.42,6.484 8.28,5.932 8.28,5.316 C8.28,4.7 8.42,4.148 8.7,3.66 C8.98,3.172 9.364,2.792 9.852,2.52 C10.34,2.248 10.888,2.112 11.496,2.112 C12.104,2.112 12.652,2.248 13.14,2.52 C13.628,2.792 14.01,3.172 14.286,3.66 C14.562,4.148 14.7,4.7 14.7,5.316 C14.7,5.932 14.562,6.484 14.286,6.972 C14.01,7.46 13.628,7.842 13.14,8.118 C12.652,8.394 12.104,8.532 11.496,8.532 Z M11.496,7.776 C11.944,7.776 12.346,7.674 12.702,7.47 C13.058,7.266 13.336,6.976 13.536,6.6 C13.736,6.224 13.836,5.796 13.836,5.316 C13.836,4.836 13.736,4.408 13.536,4.032 C13.336,3.656 13.058,3.366 12.702,3.162 C12.346,2.958 11.944,2.856 11.496,2.856 C11.048,2.856 10.646,2.958 10.29,3.162 C9.934,3.366 9.654,3.656 9.45,4.032 C9.246,4.408 9.144,4.836 9.144,5.316 C9.144,5.796 9.246,6.224 9.45,6.6 C9.654,6.976 9.934,7.266 10.29,7.47 C10.646,7.674 11.048,7.776 11.496,7.776 Z" id="Shape"></path>
            <path d="M19.656,2.112 C20.448,2.112 21.078,2.342 21.546,2.802 C22.014,3.262 22.248,3.932 22.248,4.812 L22.248,8.472 L21.396,8.472 L21.396,4.896 C21.396,4.24 21.232,3.74 20.904,3.396 C20.576,3.052 20.108,2.88 19.5,2.88 C18.82,2.88 18.282,3.082 17.886,3.486 C17.49,3.89 17.292,4.448 17.292,5.16 L17.292,8.472 L16.44,8.472 L16.44,2.16 L17.256,2.16 L17.256,3.324 C17.488,2.94 17.81,2.642 18.222,2.43 C18.634,2.218 19.112,2.112 19.656,2.112 Z" id="Path"></path>
            <path d="M27.888,8.088 C27.728,8.232 27.53,8.342 27.294,8.418 C27.058,8.494 26.812,8.532 26.556,8.532 C25.964,8.532 25.508,8.372 25.188,8.052 C24.868,7.732 24.708,7.28 24.708,6.696 L24.708,2.88 L23.58,2.88 L23.58,2.16 L24.708,2.16 L24.708,0.78 L25.56,0.78 L25.56,2.16 L27.48,2.16 L27.48,2.88 L25.56,2.88 L25.56,6.648 C25.56,7.024 25.654,7.31 25.842,7.506 C26.03,7.702 26.3,7.8 26.652,7.8 C26.828,7.8 26.998,7.772 27.162,7.716 C27.326,7.66 27.468,7.58 27.588,7.476 L27.888,8.088 Z" id="Path"></path>
            <path d="M34.704,5.58 L29.424,5.58 C29.472,6.236 29.724,6.766 30.18,7.17 C30.636,7.574 31.212,7.776 31.908,7.776 C32.3,7.776 32.66,7.706 32.988,7.566 C33.316,7.426 33.6,7.22 33.84,6.948 L34.32,7.5 C34.04,7.836 33.69,8.092 33.27,8.268 C32.85,8.444 32.388,8.532 31.884,8.532 C31.236,8.532 30.662,8.394 30.162,8.118 C29.662,7.842 29.272,7.46 28.992,6.972 C28.712,6.484 28.572,5.932 28.572,5.316 C28.572,4.7 28.706,4.148 28.974,3.66 C29.242,3.172 29.61,2.792 30.078,2.52 C30.546,2.248 31.072,2.112 31.656,2.112 C32.24,2.112 32.764,2.248 33.228,2.52 C33.692,2.792 34.056,3.17 34.32,3.654 C34.584,4.138 34.716,4.692 34.716,5.316 L34.704,5.58 Z M31.656,2.844 C31.048,2.844 30.538,3.038 30.126,3.426 C29.714,3.814 29.48,4.32 29.424,4.944 L33.9,4.944 C33.844,4.32 33.61,3.814 33.198,3.426 C32.786,3.038 32.272,2.844 31.656,2.844 Z" id="Shape"></path>
            <polygon id="Path" points="40.296 8.472 38.292 5.832 36.276 8.472 35.316 8.472 37.812 5.232 35.436 2.16 36.396 2.16 38.292 4.632 40.188 2.16 41.124 2.16 38.748 5.232 41.268 8.472"></polygon>
            <path d="M46.008,8.088 C45.848,8.232 45.65,8.342 45.414,8.418 C45.178,8.494 44.932,8.532 44.676,8.532 C44.084,8.532 43.628,8.372 43.308,8.052 C42.988,7.732 42.828,7.28 42.828,6.696 L42.828,2.88 L41.7,2.88 L41.7,2.16 L42.828,2.16 L42.828,0.78 L43.68,0.78 L43.68,2.16 L45.6,2.16 L45.6,2.88 L43.68,2.88 L43.68,6.648 C43.68,7.024 43.774,7.31 43.962,7.506 C44.15,7.702 44.42,7.8 44.772,7.8 C44.948,7.8 45.118,7.772 45.282,7.716 C45.446,7.66 45.588,7.58 45.708,7.476 L46.008,8.088 Z" id="Path"></path>
        </g>
        <path id="Path-38" d="M413.5,66 L413.5,81 C413.5,86.7039245 408.951858,91.3455734 403.284295,91.4962258 L403,91.5 L154,91.5 C148.843755,91.5 144.646961,95.6078939 144.503776,100.729521 L144.5,101 L144.5,107.5 L148.5,107.5 L144,116.5 L139.5,107.5 L143.5,107.5 L143.5,101 C143.5,95.2960755 148.048142,90.6544266 153.715705,90.5037742 L154,90.5 L403,90.5 C408.156245,90.5 412.353039,86.3921061 412.496224,81.2704787 L412.5,81 L412.5,66 L413.5,66 Z" transform="translate(278.500000, 91.000000) scale(-1, 1) translate(-278.500000, -91.000000) " fill="#1E3D49" fill-rule="nonzero"></path>
        <path id="Path-38" d="M413.5,202.7612 L413.5,221.5 L417.5,221.5 L413,230.5 L408.5,221.5 L412.5,221.5 L412.5,202.7612 L413.5,202.7612 Z" fill="#1E3D49" fill-rule="nonzero"></path>
        <g id="PRODUCT-SCORING-POIN" transform="translate(286.217000, 124.292000)" fill="#1E3D49" fill-rule="nonzero">
            <path d="M4.716,0.108 C6.324,0.108 7.584,0.492 8.496,1.26 C9.408,2.028 9.864,3.084 9.864,4.428 C9.864,5.772 9.408,6.825 8.496,7.587 C7.584,8.349 6.324,8.73 4.716,8.73 L1.332,8.73 L1.332,12.708 L0,12.708 L0,0.108 L4.716,0.108 Z M4.68,7.56 C5.928,7.56 6.882,7.287 7.542,6.741 C8.202,6.195 8.532,5.424 8.532,4.428 C8.532,3.408 8.202,2.625 7.542,2.079 C6.882,1.533 5.928,1.26 4.68,1.26 L1.332,1.26 L1.332,7.56 L4.68,7.56 Z" id="Shape"></path>
            <path d="M21.348,12.708 L18.468,8.658 C18.144,8.694 17.808,8.712 17.46,8.712 L14.076,8.712 L14.076,12.708 L12.744,12.708 L12.744,0.108 L17.46,0.108 C19.068,0.108 20.328,0.492 21.24,1.26 C22.152,2.028 22.608,3.084 22.608,4.428 C22.608,5.412 22.359,6.243 21.861,6.921 C21.363,7.599 20.652,8.088 19.728,8.388 L22.806,12.708 L21.348,12.708 Z M17.424,7.578 C18.672,7.578 19.626,7.302 20.286,6.75 C20.946,6.198 21.276,5.424 21.276,4.428 C21.276,3.408 20.946,2.625 20.286,2.079 C19.626,1.533 18.672,1.26 17.424,1.26 L14.076,1.26 L14.076,7.578 L17.424,7.578 Z" id="Shape"></path>
            <path d="M31.266,12.816 C30.018,12.816 28.887,12.537 27.873,11.979 C26.859,11.421 26.067,10.656 25.497,9.684 C24.927,8.712 24.642,7.62 24.642,6.408 C24.642,5.196 24.927,4.104 25.497,3.132 C26.067,2.16 26.859,1.395 27.873,0.837 C28.887,0.279 30.018,0 31.266,0 C32.514,0 33.639,0.276 34.641,0.828 C35.643,1.38 36.432,2.145 37.008,3.123 C37.584,4.101 37.872,5.196 37.872,6.408 C37.872,7.62 37.584,8.715 37.008,9.693 C36.432,10.671 35.643,11.436 34.641,11.988 C33.639,12.54 32.514,12.816 31.266,12.816 Z M31.266,11.628 C32.262,11.628 33.162,11.403 33.966,10.953 C34.77,10.503 35.4,9.879 35.856,9.081 C36.312,8.283 36.54,7.392 36.54,6.408 C36.54,5.424 36.312,4.533 35.856,3.735 C35.4,2.937 34.77,2.313 33.966,1.863 C33.162,1.413 32.262,1.188 31.266,1.188 C30.27,1.188 29.367,1.413 28.557,1.863 C27.747,2.313 27.111,2.937 26.649,3.735 C26.187,4.533 25.956,5.424 25.956,6.408 C25.956,7.392 26.187,8.283 26.649,9.081 C27.111,9.879 27.747,10.503 28.557,10.953 C29.367,11.403 30.27,11.628 31.266,11.628 Z" id="Shape"></path>
            <path d="M40.86,0.108 L45.99,0.108 C47.322,0.108 48.498,0.375 49.518,0.909 C50.538,1.443 51.33,2.187 51.894,3.141 C52.458,4.095 52.74,5.184 52.74,6.408 C52.74,7.632 52.458,8.721 51.894,9.675 C51.33,10.629 50.538,11.373 49.518,11.907 C48.498,12.441 47.322,12.708 45.99,12.708 L40.86,12.708 L40.86,0.108 Z M45.918,11.556 C47.022,11.556 47.988,11.337 48.816,10.899 C49.644,10.461 50.286,9.855 50.742,9.081 C51.198,8.307 51.426,7.416 51.426,6.408 C51.426,5.4 51.198,4.509 50.742,3.735 C50.286,2.961 49.644,2.355 48.816,1.917 C47.988,1.479 47.022,1.26 45.918,1.26 L42.192,1.26 L42.192,11.556 L45.918,11.556 Z" id="Shape"></path>
            <path d="M60.804,12.816 C59.172,12.816 57.9,12.348 56.988,11.412 C56.076,10.476 55.62,9.114 55.62,7.326 L55.62,0.108 L56.952,0.108 L56.952,7.272 C56.952,8.736 57.282,9.828 57.942,10.548 C58.602,11.268 59.556,11.628 60.804,11.628 C62.064,11.628 63.024,11.268 63.684,10.548 C64.344,9.828 64.674,8.736 64.674,7.272 L64.674,0.108 L65.97,0.108 L65.97,7.326 C65.97,9.114 65.517,10.476 64.611,11.412 C63.705,12.348 62.436,12.816 60.804,12.816 Z" id="Path"></path>
            <path d="M75.456,12.816 C74.208,12.816 73.083,12.54 72.081,11.988 C71.079,11.436 70.293,10.671 69.723,9.693 C69.153,8.715 68.868,7.62 68.868,6.408 C68.868,5.196 69.153,4.101 69.723,3.123 C70.293,2.145 71.082,1.38 72.09,0.828 C73.098,0.276 74.226,0 75.474,0 C76.41,0 77.274,0.156 78.066,0.468 C78.858,0.78 79.53,1.236 80.082,1.836 L79.236,2.682 C78.252,1.686 77.01,1.188 75.51,1.188 C74.514,1.188 73.608,1.416 72.792,1.872 C71.976,2.328 71.337,2.952 70.875,3.744 C70.413,4.536 70.182,5.424 70.182,6.408 C70.182,7.392 70.413,8.28 70.875,9.072 C71.337,9.864 71.976,10.488 72.792,10.944 C73.608,11.4 74.514,11.628 75.51,11.628 C77.022,11.628 78.264,11.124 79.236,10.116 L80.082,10.962 C79.53,11.562 78.855,12.021 78.057,12.339 C77.259,12.657 76.392,12.816 75.456,12.816 Z" id="Path"></path>
            <polygon id="Path" points="85.212 1.26 80.784 1.26 80.784 0.108 90.972 0.108 90.972 1.26 86.544 1.26 86.544 12.708 85.212 12.708"></polygon>
            <path d="M101.286,12.816 C100.35,12.816 99.453,12.666 98.595,12.366 C97.737,12.066 97.074,11.67 96.606,11.178 L97.128,10.152 C97.584,10.608 98.19,10.977 98.946,11.259 C99.702,11.541 100.482,11.682 101.286,11.682 C102.414,11.682 103.26,11.475 103.824,11.061 C104.388,10.647 104.67,10.11 104.67,9.45 C104.67,8.946 104.517,8.544 104.211,8.244 C103.905,7.944 103.53,7.713 103.086,7.551 C102.642,7.389 102.024,7.212 101.232,7.02 C100.284,6.78 99.528,6.549 98.964,6.327 C98.4,6.105 97.917,5.766 97.515,5.31 C97.113,4.854 96.912,4.236 96.912,3.456 C96.912,2.82 97.08,2.241 97.416,1.719 C97.752,1.197 98.268,0.78 98.964,0.468 C99.66,0.156 100.524,0 101.556,0 C102.276,0 102.981,0.099 103.671,0.297 C104.361,0.495 104.958,0.768 105.462,1.116 L105.012,2.178 C104.484,1.83 103.92,1.569 103.32,1.395 C102.72,1.221 102.132,1.134 101.556,1.134 C100.452,1.134 99.621,1.347 99.063,1.773 C98.505,2.199 98.226,2.748 98.226,3.42 C98.226,3.924 98.379,4.329 98.685,4.635 C98.991,4.941 99.375,5.175 99.837,5.337 C100.299,5.499 100.92,5.676 101.7,5.868 C102.624,6.096 103.371,6.321 103.941,6.543 C104.511,6.765 104.994,7.101 105.39,7.551 C105.786,8.001 105.984,8.61 105.984,9.378 C105.984,10.014 105.813,10.593 105.471,11.115 C105.129,11.637 104.604,12.051 103.896,12.357 C103.188,12.663 102.318,12.816 101.286,12.816 Z" id="Path"></path>
            <path d="M114.354,12.816 C113.106,12.816 111.981,12.54 110.979,11.988 C109.977,11.436 109.191,10.671 108.621,9.693 C108.051,8.715 107.766,7.62 107.766,6.408 C107.766,5.196 108.051,4.101 108.621,3.123 C109.191,2.145 109.98,1.38 110.988,0.828 C111.996,0.276 113.124,0 114.372,0 C115.308,0 116.172,0.156 116.964,0.468 C117.756,0.78 118.428,1.236 118.98,1.836 L118.134,2.682 C117.15,1.686 115.908,1.188 114.408,1.188 C113.412,1.188 112.506,1.416 111.69,1.872 C110.874,2.328 110.235,2.952 109.773,3.744 C109.311,4.536 109.08,5.424 109.08,6.408 C109.08,7.392 109.311,8.28 109.773,9.072 C110.235,9.864 110.874,10.488 111.69,10.944 C112.506,11.4 113.412,11.628 114.408,11.628 C115.92,11.628 117.162,11.124 118.134,10.116 L118.98,10.962 C118.428,11.562 117.753,12.021 116.955,12.339 C116.157,12.657 115.29,12.816 114.354,12.816 Z" id="Path"></path>
            <path d="M127.062,12.816 C125.814,12.816 124.683,12.537 123.669,11.979 C122.655,11.421 121.863,10.656 121.293,9.684 C120.723,8.712 120.438,7.62 120.438,6.408 C120.438,5.196 120.723,4.104 121.293,3.132 C121.863,2.16 122.655,1.395 123.669,0.837 C124.683,0.279 125.814,0 127.062,0 C128.31,0 129.435,0.276 130.437,0.828 C131.439,1.38 132.228,2.145 132.804,3.123 C133.38,4.101 133.668,5.196 133.668,6.408 C133.668,7.62 133.38,8.715 132.804,9.693 C132.228,10.671 131.439,11.436 130.437,11.988 C129.435,12.54 128.31,12.816 127.062,12.816 Z M127.062,11.628 C128.058,11.628 128.958,11.403 129.762,10.953 C130.566,10.503 131.196,9.879 131.652,9.081 C132.108,8.283 132.336,7.392 132.336,6.408 C132.336,5.424 132.108,4.533 131.652,3.735 C131.196,2.937 130.566,2.313 129.762,1.863 C128.958,1.413 128.058,1.188 127.062,1.188 C126.066,1.188 125.163,1.413 124.353,1.863 C123.543,2.313 122.907,2.937 122.445,3.735 C121.983,4.533 121.752,5.424 121.752,6.408 C121.752,7.392 121.983,8.283 122.445,9.081 C122.907,9.879 123.543,10.503 124.353,10.953 C125.163,11.403 126.066,11.628 127.062,11.628 Z" id="Shape"></path>
            <path d="M145.26,12.708 L142.38,8.658 C142.056,8.694 141.72,8.712 141.372,8.712 L137.988,8.712 L137.988,12.708 L136.656,12.708 L136.656,0.108 L141.372,0.108 C142.98,0.108 144.24,0.492 145.152,1.26 C146.064,2.028 146.52,3.084 146.52,4.428 C146.52,5.412 146.271,6.243 145.773,6.921 C145.275,7.599 144.564,8.088 143.64,8.388 L146.718,12.708 L145.26,12.708 Z M141.336,7.578 C142.584,7.578 143.538,7.302 144.198,6.75 C144.858,6.198 145.188,5.424 145.188,4.428 C145.188,3.408 144.858,2.625 144.198,2.079 C143.538,1.533 142.584,1.26 141.336,1.26 L137.988,1.26 L137.988,7.578 L141.336,7.578 Z" id="Shape"></path>
            <polygon id="Path" points="149.67 0.108 151.002 0.108 151.002 12.708 149.67 12.708"></polygon>
            <polygon id="Path" points="165.636 0.108 165.636 12.708 164.538 12.708 156.438 2.484 156.438 12.708 155.106 12.708 155.106 0.108 156.204 0.108 164.322 10.332 164.322 0.108"></polygon>
            <path d="M178.614,6.408 L179.892,6.408 L179.892,11.214 C179.304,11.73 178.608,12.126 177.804,12.402 C177,12.678 176.154,12.816 175.266,12.816 C174.006,12.816 172.872,12.54 171.864,11.988 C170.856,11.436 170.064,10.671 169.488,9.693 C168.912,8.715 168.624,7.62 168.624,6.408 C168.624,5.196 168.912,4.101 169.488,3.123 C170.064,2.145 170.856,1.38 171.864,0.828 C172.872,0.276 174.012,0 175.284,0 C176.244,0 177.126,0.153 177.93,0.459 C178.734,0.765 179.412,1.218 179.964,1.818 L179.136,2.664 C178.14,1.68 176.874,1.188 175.338,1.188 C174.318,1.188 173.397,1.413 172.575,1.863 C171.753,2.313 171.108,2.937 170.64,3.735 C170.172,4.533 169.938,5.424 169.938,6.408 C169.938,7.392 170.172,8.28 170.64,9.072 C171.108,9.864 171.75,10.488 172.566,10.944 C173.382,11.4 174.3,11.628 175.32,11.628 C176.616,11.628 177.714,11.304 178.614,10.656 L178.614,6.408 Z" id="Path"></path>
            <path d="M193.086,0.108 C194.694,0.108 195.954,0.492 196.866,1.26 C197.778,2.028 198.234,3.084 198.234,4.428 C198.234,5.772 197.778,6.825 196.866,7.587 C195.954,8.349 194.694,8.73 193.086,8.73 L189.702,8.73 L189.702,12.708 L188.37,12.708 L188.37,0.108 L193.086,0.108 Z M193.05,7.56 C194.298,7.56 195.252,7.287 195.912,6.741 C196.572,6.195 196.902,5.424 196.902,4.428 C196.902,3.408 196.572,2.625 195.912,2.079 C195.252,1.533 194.298,1.26 193.05,1.26 L189.702,1.26 L189.702,7.56 L193.05,7.56 Z" id="Shape"></path>
            <path d="M206.802,12.816 C205.554,12.816 204.423,12.537 203.409,11.979 C202.395,11.421 201.603,10.656 201.033,9.684 C200.463,8.712 200.178,7.62 200.178,6.408 C200.178,5.196 200.463,4.104 201.033,3.132 C201.603,2.16 202.395,1.395 203.409,0.837 C204.423,0.279 205.554,0 206.802,0 C208.05,0 209.175,0.276 210.177,0.828 C211.179,1.38 211.968,2.145 212.544,3.123 C213.12,4.101 213.408,5.196 213.408,6.408 C213.408,7.62 213.12,8.715 212.544,9.693 C211.968,10.671 211.179,11.436 210.177,11.988 C209.175,12.54 208.05,12.816 206.802,12.816 Z M206.802,11.628 C207.798,11.628 208.698,11.403 209.502,10.953 C210.306,10.503 210.936,9.879 211.392,9.081 C211.848,8.283 212.076,7.392 212.076,6.408 C212.076,5.424 211.848,4.533 211.392,3.735 C210.936,2.937 210.306,2.313 209.502,1.863 C208.698,1.413 207.798,1.188 206.802,1.188 C205.806,1.188 204.903,1.413 204.093,1.863 C203.283,2.313 202.647,2.937 202.185,3.735 C201.723,4.533 201.492,5.424 201.492,6.408 C201.492,7.392 201.723,8.283 202.185,9.081 C202.647,9.879 203.283,10.503 204.093,10.953 C204.903,11.403 205.806,11.628 206.802,11.628 Z" id="Shape"></path>
            <polygon id="Path" points="216.396 0.108 217.728 0.108 217.728 12.708 216.396 12.708"></polygon>
            <polygon id="Path" points="232.362 0.108 232.362 12.708 231.264 12.708 223.164 2.484 223.164 12.708 221.832 12.708 221.832 0.108 222.93 0.108 231.048 10.332 231.048 0.108"></polygon>
            <polygon id="Path" points="238.914 1.26 234.486 1.26 234.486 0.108 244.674 0.108 244.674 1.26 240.246 1.26 240.246 12.708 238.914 12.708"></polygon>
            <path d="M250.074,12.816 C249.138,12.816 248.241,12.666 247.383,12.366 C246.525,12.066 245.862,11.67 245.394,11.178 L245.916,10.152 C246.372,10.608 246.978,10.977 247.734,11.259 C248.49,11.541 249.27,11.682 250.074,11.682 C251.202,11.682 252.048,11.475 252.612,11.061 C253.176,10.647 253.458,10.11 253.458,9.45 C253.458,8.946 253.305,8.544 252.999,8.244 C252.693,7.944 252.318,7.713 251.874,7.551 C251.43,7.389 250.812,7.212 250.02,7.02 C249.072,6.78 248.316,6.549 247.752,6.327 C247.188,6.105 246.705,5.766 246.303,5.31 C245.901,4.854 245.7,4.236 245.7,3.456 C245.7,2.82 245.868,2.241 246.204,1.719 C246.54,1.197 247.056,0.78 247.752,0.468 C248.448,0.156 249.312,0 250.344,0 C251.064,0 251.769,0.099 252.459,0.297 C253.149,0.495 253.746,0.768 254.25,1.116 L253.8,2.178 C253.272,1.83 252.708,1.569 252.108,1.395 C251.508,1.221 250.92,1.134 250.344,1.134 C249.24,1.134 248.409,1.347 247.851,1.773 C247.293,2.199 247.014,2.748 247.014,3.42 C247.014,3.924 247.167,4.329 247.473,4.635 C247.779,4.941 248.163,5.175 248.625,5.337 C249.087,5.499 249.708,5.676 250.488,5.868 C251.412,6.096 252.159,6.321 252.729,6.543 C253.299,6.765 253.782,7.101 254.178,7.551 C254.574,8.001 254.772,8.61 254.772,9.378 C254.772,10.014 254.601,10.593 254.259,11.115 C253.917,11.637 253.392,12.051 252.684,12.357 C251.976,12.663 251.106,12.816 250.074,12.816 Z" id="Path"></path>
        </g>
        <g id="PRODUCT-SCORING-RANK" transform="translate(277.199000, 239.916673)" fill="#1E3D49" fill-rule="nonzero">
            <path d="M4.716,0.108 C6.324,0.108 7.584,0.492 8.496,1.26 C9.408,2.028 9.864,3.084 9.864,4.428 C9.864,5.772 9.408,6.825 8.496,7.587 C7.584,8.349 6.324,8.73 4.716,8.73 L1.332,8.73 L1.332,12.708 L0,12.708 L0,0.108 L4.716,0.108 Z M4.68,7.56 C5.928,7.56 6.882,7.287 7.542,6.741 C8.202,6.195 8.532,5.424 8.532,4.428 C8.532,3.408 8.202,2.625 7.542,2.079 C6.882,1.533 5.928,1.26 4.68,1.26 L1.332,1.26 L1.332,7.56 L4.68,7.56 Z" id="Shape"></path>
            <path d="M21.348,12.708 L18.468,8.658 C18.144,8.694 17.808,8.712 17.46,8.712 L14.076,8.712 L14.076,12.708 L12.744,12.708 L12.744,0.108 L17.46,0.108 C19.068,0.108 20.328,0.492 21.24,1.26 C22.152,2.028 22.608,3.084 22.608,4.428 C22.608,5.412 22.359,6.243 21.861,6.921 C21.363,7.599 20.652,8.088 19.728,8.388 L22.806,12.708 L21.348,12.708 Z M17.424,7.578 C18.672,7.578 19.626,7.302 20.286,6.75 C20.946,6.198 21.276,5.424 21.276,4.428 C21.276,3.408 20.946,2.625 20.286,2.079 C19.626,1.533 18.672,1.26 17.424,1.26 L14.076,1.26 L14.076,7.578 L17.424,7.578 Z" id="Shape"></path>
            <path d="M31.266,12.816 C30.018,12.816 28.887,12.537 27.873,11.979 C26.859,11.421 26.067,10.656 25.497,9.684 C24.927,8.712 24.642,7.62 24.642,6.408 C24.642,5.196 24.927,4.104 25.497,3.132 C26.067,2.16 26.859,1.395 27.873,0.837 C28.887,0.279 30.018,1.13686838e-13 31.266,1.13686838e-13 C32.514,1.13686838e-13 33.639,0.276 34.641,0.828 C35.643,1.38 36.432,2.145 37.008,3.123 C37.584,4.101 37.872,5.196 37.872,6.408 C37.872,7.62 37.584,8.715 37.008,9.693 C36.432,10.671 35.643,11.436 34.641,11.988 C33.639,12.54 32.514,12.816 31.266,12.816 Z M31.266,11.628 C32.262,11.628 33.162,11.403 33.966,10.953 C34.77,10.503 35.4,9.879 35.856,9.081 C36.312,8.283 36.54,7.392 36.54,6.408 C36.54,5.424 36.312,4.533 35.856,3.735 C35.4,2.937 34.77,2.313 33.966,1.863 C33.162,1.413 32.262,1.188 31.266,1.188 C30.27,1.188 29.367,1.413 28.557,1.863 C27.747,2.313 27.111,2.937 26.649,3.735 C26.187,4.533 25.956,5.424 25.956,6.408 C25.956,7.392 26.187,8.283 26.649,9.081 C27.111,9.879 27.747,10.503 28.557,10.953 C29.367,11.403 30.27,11.628 31.266,11.628 Z" id="Shape"></path>
            <path d="M40.86,0.108 L45.99,0.108 C47.322,0.108 48.498,0.375 49.518,0.909 C50.538,1.443 51.33,2.187 51.894,3.141 C52.458,4.095 52.74,5.184 52.74,6.408 C52.74,7.632 52.458,8.721 51.894,9.675 C51.33,10.629 50.538,11.373 49.518,11.907 C48.498,12.441 47.322,12.708 45.99,12.708 L40.86,12.708 L40.86,0.108 Z M45.918,11.556 C47.022,11.556 47.988,11.337 48.816,10.899 C49.644,10.461 50.286,9.855 50.742,9.081 C51.198,8.307 51.426,7.416 51.426,6.408 C51.426,5.4 51.198,4.509 50.742,3.735 C50.286,2.961 49.644,2.355 48.816,1.917 C47.988,1.479 47.022,1.26 45.918,1.26 L42.192,1.26 L42.192,11.556 L45.918,11.556 Z" id="Shape"></path>
            <path d="M60.804,12.816 C59.172,12.816 57.9,12.348 56.988,11.412 C56.076,10.476 55.62,9.114 55.62,7.326 L55.62,0.108 L56.952,0.108 L56.952,7.272 C56.952,8.736 57.282,9.828 57.942,10.548 C58.602,11.268 59.556,11.628 60.804,11.628 C62.064,11.628 63.024,11.268 63.684,10.548 C64.344,9.828 64.674,8.736 64.674,7.272 L64.674,0.108 L65.97,0.108 L65.97,7.326 C65.97,9.114 65.517,10.476 64.611,11.412 C63.705,12.348 62.436,12.816 60.804,12.816 Z" id="Path"></path>
            <path d="M75.456,12.816 C74.208,12.816 73.083,12.54 72.081,11.988 C71.079,11.436 70.293,10.671 69.723,9.693 C69.153,8.715 68.868,7.62 68.868,6.408 C68.868,5.196 69.153,4.101 69.723,3.123 C70.293,2.145 71.082,1.38 72.09,0.828 C73.098,0.276 74.226,1.13686838e-13 75.474,1.13686838e-13 C76.41,1.13686838e-13 77.274,0.156 78.066,0.468 C78.858,0.78 79.53,1.236 80.082,1.836 L79.236,2.682 C78.252,1.686 77.01,1.188 75.51,1.188 C74.514,1.188 73.608,1.416 72.792,1.872 C71.976,2.328 71.337,2.952 70.875,3.744 C70.413,4.536 70.182,5.424 70.182,6.408 C70.182,7.392 70.413,8.28 70.875,9.072 C71.337,9.864 71.976,10.488 72.792,10.944 C73.608,11.4 74.514,11.628 75.51,11.628 C77.022,11.628 78.264,11.124 79.236,10.116 L80.082,10.962 C79.53,11.562 78.855,12.021 78.057,12.339 C77.259,12.657 76.392,12.816 75.456,12.816 Z" id="Path"></path>
            <polygon id="Path" points="85.212 1.26 80.784 1.26 80.784 0.108 90.972 0.108 90.972 1.26 86.544 1.26 86.544 12.708 85.212 12.708"></polygon>
            <path d="M101.286,12.816 C100.35,12.816 99.453,12.666 98.595,12.366 C97.737,12.066 97.074,11.67 96.606,11.178 L97.128,10.152 C97.584,10.608 98.19,10.977 98.946,11.259 C99.702,11.541 100.482,11.682 101.286,11.682 C102.414,11.682 103.26,11.475 103.824,11.061 C104.388,10.647 104.67,10.11 104.67,9.45 C104.67,8.946 104.517,8.544 104.211,8.244 C103.905,7.944 103.53,7.713 103.086,7.551 C102.642,7.389 102.024,7.212 101.232,7.02 C100.284,6.78 99.528,6.549 98.964,6.327 C98.4,6.105 97.917,5.766 97.515,5.31 C97.113,4.854 96.912,4.236 96.912,3.456 C96.912,2.82 97.08,2.241 97.416,1.719 C97.752,1.197 98.268,0.78 98.964,0.468 C99.66,0.156 100.524,1.13686838e-13 101.556,1.13686838e-13 C102.276,1.13686838e-13 102.981,0.099 103.671,0.297 C104.361,0.495 104.958,0.768 105.462,1.116 L105.012,2.178 C104.484,1.83 103.92,1.569 103.32,1.395 C102.72,1.221 102.132,1.134 101.556,1.134 C100.452,1.134 99.621,1.347 99.063,1.773 C98.505,2.199 98.226,2.748 98.226,3.42 C98.226,3.924 98.379,4.329 98.685,4.635 C98.991,4.941 99.375,5.175 99.837,5.337 C100.299,5.499 100.92,5.676 101.7,5.868 C102.624,6.096 103.371,6.321 103.941,6.543 C104.511,6.765 104.994,7.101 105.39,7.551 C105.786,8.001 105.984,8.61 105.984,9.378 C105.984,10.014 105.813,10.593 105.471,11.115 C105.129,11.637 104.604,12.051 103.896,12.357 C103.188,12.663 102.318,12.816 101.286,12.816 Z" id="Path"></path>
            <path d="M114.354,12.816 C113.106,12.816 111.981,12.54 110.979,11.988 C109.977,11.436 109.191,10.671 108.621,9.693 C108.051,8.715 107.766,7.62 107.766,6.408 C107.766,5.196 108.051,4.101 108.621,3.123 C109.191,2.145 109.98,1.38 110.988,0.828 C111.996,0.276 113.124,1.13686838e-13 114.372,1.13686838e-13 C115.308,1.13686838e-13 116.172,0.156 116.964,0.468 C117.756,0.78 118.428,1.236 118.98,1.836 L118.134,2.682 C117.15,1.686 115.908,1.188 114.408,1.188 C113.412,1.188 112.506,1.416 111.69,1.872 C110.874,2.328 110.235,2.952 109.773,3.744 C109.311,4.536 109.08,5.424 109.08,6.408 C109.08,7.392 109.311,8.28 109.773,9.072 C110.235,9.864 110.874,10.488 111.69,10.944 C112.506,11.4 113.412,11.628 114.408,11.628 C115.92,11.628 117.162,11.124 118.134,10.116 L118.98,10.962 C118.428,11.562 117.753,12.021 116.955,12.339 C116.157,12.657 115.29,12.816 114.354,12.816 Z" id="Path"></path>
            <path d="M127.062,12.816 C125.814,12.816 124.683,12.537 123.669,11.979 C122.655,11.421 121.863,10.656 121.293,9.684 C120.723,8.712 120.438,7.62 120.438,6.408 C120.438,5.196 120.723,4.104 121.293,3.132 C121.863,2.16 122.655,1.395 123.669,0.837 C124.683,0.279 125.814,1.13686838e-13 127.062,1.13686838e-13 C128.31,1.13686838e-13 129.435,0.276 130.437,0.828 C131.439,1.38 132.228,2.145 132.804,3.123 C133.38,4.101 133.668,5.196 133.668,6.408 C133.668,7.62 133.38,8.715 132.804,9.693 C132.228,10.671 131.439,11.436 130.437,11.988 C129.435,12.54 128.31,12.816 127.062,12.816 Z M127.062,11.628 C128.058,11.628 128.958,11.403 129.762,10.953 C130.566,10.503 131.196,9.879 131.652,9.081 C132.108,8.283 132.336,7.392 132.336,6.408 C132.336,5.424 132.108,4.533 131.652,3.735 C131.196,2.937 130.566,2.313 129.762,1.863 C128.958,1.413 128.058,1.188 127.062,1.188 C126.066,1.188 125.163,1.413 124.353,1.863 C123.543,2.313 122.907,2.937 122.445,3.735 C121.983,4.533 121.752,5.424 121.752,6.408 C121.752,7.392 121.983,8.283 122.445,9.081 C122.907,9.879 123.543,10.503 124.353,10.953 C125.163,11.403 126.066,11.628 127.062,11.628 Z" id="Shape"></path>
            <path d="M145.26,12.708 L142.38,8.658 C142.056,8.694 141.72,8.712 141.372,8.712 L137.988,8.712 L137.988,12.708 L136.656,12.708 L136.656,0.108 L141.372,0.108 C142.98,0.108 144.24,0.492 145.152,1.26 C146.064,2.028 146.52,3.084 146.52,4.428 C146.52,5.412 146.271,6.243 145.773,6.921 C145.275,7.599 144.564,8.088 143.64,8.388 L146.718,12.708 L145.26,12.708 Z M141.336,7.578 C142.584,7.578 143.538,7.302 144.198,6.75 C144.858,6.198 145.188,5.424 145.188,4.428 C145.188,3.408 144.858,2.625 144.198,2.079 C143.538,1.533 142.584,1.26 141.336,1.26 L137.988,1.26 L137.988,7.578 L141.336,7.578 Z" id="Shape"></path>
            <polygon id="Path" points="149.67 0.108 151.002 0.108 151.002 12.708 149.67 12.708"></polygon>
            <polygon id="Path" points="165.636 0.108 165.636 12.708 164.538 12.708 156.438 2.484 156.438 12.708 155.106 12.708 155.106 0.108 156.204 0.108 164.322 10.332 164.322 0.108"></polygon>
            <path d="M178.614,6.408 L179.892,6.408 L179.892,11.214 C179.304,11.73 178.608,12.126 177.804,12.402 C177,12.678 176.154,12.816 175.266,12.816 C174.006,12.816 172.872,12.54 171.864,11.988 C170.856,11.436 170.064,10.671 169.488,9.693 C168.912,8.715 168.624,7.62 168.624,6.408 C168.624,5.196 168.912,4.101 169.488,3.123 C170.064,2.145 170.856,1.38 171.864,0.828 C172.872,0.276 174.012,1.13686838e-13 175.284,1.13686838e-13 C176.244,1.13686838e-13 177.126,0.153 177.93,0.459 C178.734,0.765 179.412,1.218 179.964,1.818 L179.136,2.664 C178.14,1.68 176.874,1.188 175.338,1.188 C174.318,1.188 173.397,1.413 172.575,1.863 C171.753,2.313 171.108,2.937 170.64,3.735 C170.172,4.533 169.938,5.424 169.938,6.408 C169.938,7.392 170.172,8.28 170.64,9.072 C171.108,9.864 171.75,10.488 172.566,10.944 C173.382,11.4 174.3,11.628 175.32,11.628 C176.616,11.628 177.714,11.304 178.614,10.656 L178.614,6.408 Z" id="Path"></path>
            <path d="M196.974,12.708 L194.094,8.658 C193.77,8.694 193.434,8.712 193.086,8.712 L189.702,8.712 L189.702,12.708 L188.37,12.708 L188.37,0.108 L193.086,0.108 C194.694,0.108 195.954,0.492 196.866,1.26 C197.778,2.028 198.234,3.084 198.234,4.428 C198.234,5.412 197.985,6.243 197.487,6.921 C196.989,7.599 196.278,8.088 195.354,8.388 L198.432,12.708 L196.974,12.708 Z M193.05,7.578 C194.298,7.578 195.252,7.302 195.912,6.75 C196.572,6.198 196.902,5.424 196.902,4.428 C196.902,3.408 196.572,2.625 195.912,2.079 C195.252,1.533 194.298,1.26 193.05,1.26 L189.702,1.26 L189.702,7.578 L193.05,7.578 Z" id="Shape"></path>
            <path d="M209.286,9.342 L202.266,9.342 L200.754,12.708 L199.368,12.708 L205.128,0.108 L206.442,0.108 L212.202,12.708 L210.798,12.708 L209.286,9.342 Z M208.8,8.262 L205.776,1.494 L202.752,8.262 L208.8,8.262 Z" id="Shape"></path>
            <polygon id="Path" points="224.82 0.108 224.82 12.708 223.722 12.708 215.622 2.484 215.622 12.708 214.29 12.708 214.29 0.108 215.388 0.108 223.506 10.332 223.506 0.108"></polygon>
            <polygon id="Path" points="232.83 6.786 230.256 9.396 230.256 12.708 228.924 12.708 228.924 0.108 230.256 0.108 230.256 7.722 237.654 0.108 239.184 0.108 233.73 5.814 239.562 12.708 237.978 12.708"></polygon>
            <polygon id="Path" points="241.722 0.108 243.054 0.108 243.054 12.708 241.722 12.708"></polygon>
            <polygon id="Path" points="257.688 0.108 257.688 12.708 256.59 12.708 248.49 2.484 248.49 12.708 247.158 12.708 247.158 0.108 248.256 0.108 256.374 10.332 256.374 0.108"></polygon>
            <path d="M270.666,6.408 L271.944,6.408 L271.944,11.214 C271.356,11.73 270.66,12.126 269.856,12.402 C269.052,12.678 268.206,12.816 267.318,12.816 C266.058,12.816 264.924,12.54 263.916,11.988 C262.908,11.436 262.116,10.671 261.54,9.693 C260.964,8.715 260.676,7.62 260.676,6.408 C260.676,5.196 260.964,4.101 261.54,3.123 C262.116,2.145 262.908,1.38 263.916,0.828 C264.924,0.276 266.064,1.13686838e-13 267.336,1.13686838e-13 C268.296,1.13686838e-13 269.178,0.153 269.982,0.459 C270.786,0.765 271.464,1.218 272.016,1.818 L271.188,2.664 C270.192,1.68 268.926,1.188 267.39,1.188 C266.37,1.188 265.449,1.413 264.627,1.863 C263.805,2.313 263.16,2.937 262.692,3.735 C262.224,4.533 261.99,5.424 261.99,6.408 C261.99,7.392 262.224,8.28 262.692,9.072 C263.16,9.864 263.802,10.488 264.618,10.944 C265.434,11.4 266.352,11.628 267.372,11.628 C268.668,11.628 269.766,11.304 270.666,10.656 L270.666,6.408 Z" id="Path"></path>
        </g>
        <g id="+" transform="translate(313.199687, 170.395200)" fill="#1E3D49" fill-rule="nonzero">
            <polygon id="Path" points="7.83 4.356 4.482 4.356 4.482 7.632 3.348 7.632 3.348 4.356 0 4.356 0 3.294 3.348 3.294 3.348 0 4.482 0 4.482 3.294 7.83 3.294"></polygon>
        </g>
        <g id="+" transform="translate(502.665218, 170.395200)" fill="#1E3D49" fill-rule="nonzero">
            <polygon id="Path" points="7.83 4.356 4.482 4.356 4.482 7.632 3.348 7.632 3.348 4.356 0 4.356 0 3.294 3.348 3.294 3.348 0 4.482 0 4.482 3.294 7.83 3.294"></polygon>
        </g>
    </g>
</svg>