<?xml version="1.0" encoding="UTF-8"?>
<svg width="766px" height="466px" viewBox="0 0 766 466" version="1.1" xmlns="http://www.w3.org/2000/svg" xmlns:xlink="http://www.w3.org/1999/xlink">
    <title>14_spellcheck</title>
    <g id="14_spellcheck" stroke="none" stroke-width="1" fill="none" fill-rule="evenodd">
        <rect id="Rectangle" fill="#FFFFFF" x="20.5285255" y="21" width="724" height="424" rx="7.212726"></rect>
        <g id="gridProduct" opacity="0.626521519" transform="translate(286.130491, 252.720017)">
            <rect id="Rectangle-Copy-13" fill="#E2E6E7" x="0" y="0" width="78.6455902" height="92.0524646" rx="5"></rect>
            <rect id="Rectangle" fill="#FFFFFF" x="7.59067224" y="6.32798201" width="63.4642457" height="49.7979548" rx="4.26584808"></rect>
            <g id="faketitle" transform="translate(17.897170, 62.028664)" fill="#BBC3C6">
                <rect id="Rectangle-Copy-10" x="-3.55271368e-15" y="0" width="40.6595372" height="6.2763044" rx="3.1381522"></rect>
            </g>
            <g id="fakecart" transform="translate(6.529457, 73.946184)" fill="#BBC3C6">
                <rect id="Rectangle-Copy-10" x="0" y="0" width="63.3949616" height="11.7782989" rx="5.88914944"></rect>
            </g>
        </g>
        <g id="gridProduct" opacity="0.626521519" transform="translate(198.235407, 252.720017)">
            <rect id="Rectangle-Copy-13" fill="#E2E6E7" x="0" y="0" width="78.6455902" height="92.0524646" rx="5"></rect>
            <rect id="Rectangle" fill="#FFFFFF" x="7.59067224" y="6.32798201" width="63.4642457" height="49.7979548" rx="4.26584808"></rect>
            <g id="faketitle" transform="translate(17.897170, 62.028664)" fill="#BBC3C6">
                <rect id="Rectangle-Copy-10" x="-3.55271368e-15" y="0" width="40.6595372" height="6.2763044" rx="3.1381522"></rect>
            </g>
            <g id="fakecart" transform="translate(6.529457, 73.946184)" fill="#BBC3C6">
                <rect id="Rectangle-Copy-10" x="0" y="0" width="63.3949616" height="11.7782989" rx="5.88914944"></rect>
            </g>
        </g>
        <g id="gridProduct" opacity="0.626521519" transform="translate(374.025574, 252.720017)">
            <rect id="Rectangle-Copy-13" fill="#E2E6E7" x="0" y="0" width="78.6455902" height="92.0524646" rx="5"></rect>
            <rect id="Rectangle" fill="#FFFFFF" x="7.59067224" y="6.32798201" width="63.4642457" height="49.7979548" rx="4.26584808"></rect>
            <g id="faketitle" transform="translate(17.897170, 62.028664)" fill="#BBC3C6">
                <rect id="Rectangle-Copy-10" x="3.55271368e-15" y="0" width="40.6595372" height="6.2763044" rx="3.1381522"></rect>
            </g>
            <g id="fakecart" transform="translate(6.529457, 73.946184)" fill="#BBC3C6">
                <rect id="Rectangle-Copy-10" x="0" y="0" width="63.3949616" height="11.7782989" rx="5.88914944"></rect>
            </g>
        </g>
        <g id="gridProduct" opacity="0.626521519" transform="translate(461.920658, 252.720017)">
            <rect id="Rectangle-Copy-13" fill="#E2E6E7" x="0" y="0" width="78.6455902" height="92.0524646" rx="5"></rect>
            <rect id="Rectangle" fill="#FFFFFF" x="7.59067224" y="6.32798201" width="63.4642457" height="49.7979548" rx="4.26584808"></rect>
            <g id="faketitle" transform="translate(17.897170, 62.028664)" fill="#BBC3C6">
                <rect id="Rectangle-Copy-10" x="-3.55271368e-15" y="0" width="40.6595372" height="6.2763044" rx="3.1381522"></rect>
            </g>
            <g id="fakecart" transform="translate(6.529457, 73.946184)" fill="#BBC3C6">
                <rect id="Rectangle-Copy-10" x="0" y="0" width="63.3949616" height="11.7782989" rx="5.88914944"></rect>
            </g>
        </g>
        <g id="gridProduct" opacity="0.626521519" transform="translate(549.815741, 252.720017)">
            <rect id="Rectangle-Copy-13" fill="#E2E6E7" x="0" y="0" width="78.6455902" height="92.0524646" rx="5"></rect>
            <rect id="Rectangle" fill="#FFFFFF" x="7.59067224" y="6.32798201" width="63.4642457" height="49.7979548" rx="4.26584808"></rect>
            <g id="faketitle" transform="translate(17.897170, 62.028664)" fill="#BBC3C6">
                <rect id="Rectangle-Copy-10" x="3.55271368e-15" y="0" width="40.6595372" height="6.2763044" rx="3.1381522"></rect>
            </g>
            <g id="fakecart" transform="translate(6.529457, 73.946184)" fill="#BBC3C6">
                <rect id="Rectangle-Copy-10" x="0" y="0" width="63.3949616" height="11.7782989" rx="5.88914944"></rect>
            </g>
        </g>
        <g id="gridProduct" opacity="0.626521519" transform="translate(637.710825, 252.720017)">
            <rect id="Rectangle-Copy-13" fill="#E2E6E7" x="0" y="0" width="78.6455902" height="92.0524646" rx="5"></rect>
            <rect id="Rectangle" fill="#FFFFFF" x="7.59067224" y="6.32798201" width="63.4642457" height="49.7979548" rx="4.26584808"></rect>
            <g id="faketitle" transform="translate(17.897170, 62.028664)" fill="#BBC3C6">
                <rect id="Rectangle-Copy-10" x="3.55271368e-15" y="0" width="40.6595372" height="6.2763044" rx="3.1381522"></rect>
            </g>
            <g id="fakecart" transform="translate(6.529457, 73.946184)" fill="#BBC3C6">
                <rect id="Rectangle-Copy-10" x="0" y="0" width="63.3949616" height="11.7782989" rx="5.88914944"></rect>
            </g>
        </g>
        <g id="gridProduct" opacity="0.626521519" transform="translate(286.130491, 140.968019)">
            <rect id="Rectangle-Copy-13" fill="#E2E6E7" x="0" y="0" width="78.6455902" height="92.0524646" rx="5"></rect>
            <rect id="Rectangle" fill="#FFFFFF" x="7.59067224" y="6.32798201" width="63.4642457" height="49.7979548" rx="4.26584808"></rect>
            <g id="faketitle" transform="translate(17.897170, 62.028664)" fill="#BBC3C6">
                <rect id="Rectangle-Copy-10" x="-3.55271368e-15" y="0" width="40.6595372" height="6.2763044" rx="3.1381522"></rect>
            </g>
            <g id="fakecart" transform="translate(6.529457, 73.946184)" fill="#BBC3C6">
                <rect id="Rectangle-Copy-10" x="0" y="0" width="63.3949616" height="11.7782989" rx="5.88914944"></rect>
            </g>
        </g>
        <g id="gridProduct" opacity="0.626521519" transform="translate(198.235407, 140.968019)">
            <rect id="Rectangle-Copy-13" fill="#E2E6E7" x="0" y="0" width="78.6455902" height="92.0524646" rx="5"></rect>
            <rect id="Rectangle" fill="#FFFFFF" x="7.59067224" y="6.32798201" width="63.4642457" height="49.7979548" rx="4.26584808"></rect>
            <g id="faketitle" transform="translate(17.897170, 62.028664)" fill="#BBC3C6">
                <rect id="Rectangle-Copy-10" x="-3.55271368e-15" y="0" width="40.6595372" height="6.2763044" rx="3.1381522"></rect>
            </g>
            <g id="fakecart" transform="translate(6.529457, 73.946184)" fill="#BBC3C6">
                <rect id="Rectangle-Copy-10" x="0" y="0" width="63.3949616" height="11.7782989" rx="5.88914944"></rect>
            </g>
        </g>
        <g id="gridProduct" opacity="0.626521519" transform="translate(374.025574, 140.968019)">
            <rect id="Rectangle-Copy-13" fill="#E2E6E7" x="0" y="0" width="78.6455902" height="92.0524646" rx="5"></rect>
            <rect id="Rectangle" fill="#FFFFFF" x="7.59067224" y="6.32798201" width="63.4642457" height="49.7979548" rx="4.26584808"></rect>
            <g id="faketitle" transform="translate(17.897170, 62.028664)" fill="#BBC3C6">
                <rect id="Rectangle-Copy-10" x="3.55271368e-15" y="0" width="40.6595372" height="6.2763044" rx="3.1381522"></rect>
            </g>
            <g id="fakecart" transform="translate(6.529457, 73.946184)" fill="#BBC3C6">
                <rect id="Rectangle-Copy-10" x="0" y="0" width="63.3949616" height="11.7782989" rx="5.88914944"></rect>
            </g>
        </g>
        <g id="gridProduct" opacity="0.626521519" transform="translate(461.920658, 140.968019)">
            <rect id="Rectangle-Copy-13" fill="#E2E6E7" x="0" y="0" width="78.6455902" height="92.0524646" rx="5"></rect>
            <rect id="Rectangle" fill="#FFFFFF" x="7.59067224" y="6.32798201" width="63.4642457" height="49.7979548" rx="4.26584808"></rect>
            <g id="faketitle" transform="translate(17.897170, 62.028664)" fill="#BBC3C6">
                <rect id="Rectangle-Copy-10" x="-3.55271368e-15" y="0" width="40.6595372" height="6.2763044" rx="3.1381522"></rect>
            </g>
            <g id="fakecart" transform="translate(6.529457, 73.946184)" fill="#BBC3C6">
                <rect id="Rectangle-Copy-10" x="0" y="0" width="63.3949616" height="11.7782989" rx="5.88914944"></rect>
            </g>
        </g>
        <g id="gridProduct" opacity="0.626521519" transform="translate(549.815741, 140.968019)">
            <rect id="Rectangle-Copy-13" fill="#E2E6E7" x="0" y="0" width="78.6455902" height="92.0524646" rx="5"></rect>
            <rect id="Rectangle" fill="#FFFFFF" x="7.59067224" y="6.32798201" width="63.4642457" height="49.7979548" rx="4.26584808"></rect>
            <g id="faketitle" transform="translate(17.897170, 62.028664)" fill="#BBC3C6">
                <rect id="Rectangle-Copy-10" x="3.55271368e-15" y="0" width="40.6595372" height="6.2763044" rx="3.1381522"></rect>
            </g>
            <g id="fakecart" transform="translate(6.529457, 73.946184)" fill="#BBC3C6">
                <rect id="Rectangle-Copy-10" x="0" y="0" width="63.3949616" height="11.7782989" rx="5.88914944"></rect>
            </g>
        </g>
        <g id="gridProduct" opacity="0.626521519" transform="translate(637.710825, 140.968019)">
            <rect id="Rectangle-Copy-13" fill="#E2E6E7" x="0" y="0" width="78.6455902" height="92.0524646" rx="5"></rect>
            <rect id="Rectangle" fill="#FFFFFF" x="7.59067224" y="6.32798201" width="63.4642457" height="49.7979548" rx="4.26584808"></rect>
            <g id="faketitle" transform="translate(17.897170, 62.028664)" fill="#BBC3C6">
                <rect id="Rectangle-Copy-10" x="3.55271368e-15" y="0" width="40.6595372" height="6.2763044" rx="3.1381522"></rect>
            </g>
            <g id="fakecart" transform="translate(6.529457, 73.946184)" fill="#BBC3C6">
                <rect id="Rectangle-Copy-10" x="0" y="0" width="63.3949616" height="11.7782989" rx="5.88914944"></rect>
            </g>
        </g>
        <g id="gridProduct" opacity="0.626521519" transform="translate(286.130491, 364.472015)">
            <rect id="Rectangle-Copy-13" fill="#E2E6E7" x="0" y="0" width="78.6455902" height="92.0524646" rx="5"></rect>
            <rect id="Rectangle" fill="#FFFFFF" x="7.59067224" y="6.32798201" width="63.4642457" height="49.7979548" rx="4.26584808"></rect>
            <g id="faketitle" transform="translate(17.897170, 62.028664)" fill="#BBC3C6">
                <rect id="Rectangle-Copy-10" x="-3.55271368e-15" y="0" width="40.6595372" height="6.2763044" rx="3.1381522"></rect>
            </g>
            <g id="fakecart" transform="translate(6.529457, 73.946184)" fill="#BBC3C6">
                <rect id="Rectangle-Copy-10" x="0" y="0" width="63.3949616" height="11.7782989" rx="5.88914944"></rect>
            </g>
        </g>
        <g id="gridProduct" opacity="0.626521519" transform="translate(198.235407, 364.472015)">
            <rect id="Rectangle-Copy-13" fill="#E2E6E7" x="0" y="0" width="78.6455902" height="92.0524646" rx="5"></rect>
            <rect id="Rectangle" fill="#FFFFFF" x="7.59067224" y="6.32798201" width="63.4642457" height="49.7979548" rx="4.26584808"></rect>
            <g id="faketitle" transform="translate(17.897170, 62.028664)" fill="#BBC3C6">
                <rect id="Rectangle-Copy-10" x="-3.55271368e-15" y="0" width="40.6595372" height="6.2763044" rx="3.1381522"></rect>
            </g>
            <g id="fakecart" transform="translate(6.529457, 73.946184)" fill="#BBC3C6">
                <rect id="Rectangle-Copy-10" x="0" y="0" width="63.3949616" height="11.7782989" rx="5.88914944"></rect>
            </g>
        </g>
        <g id="gridProduct" opacity="0.626521519" transform="translate(374.025574, 364.472015)">
            <rect id="Rectangle-Copy-13" fill="#E2E6E7" x="0" y="0" width="78.6455902" height="92.0524646" rx="5"></rect>
            <rect id="Rectangle" fill="#FFFFFF" x="7.59067224" y="6.32798201" width="63.4642457" height="49.7979548" rx="4.26584808"></rect>
            <g id="faketitle" transform="translate(17.897170, 62.028664)" fill="#BBC3C6">
                <rect id="Rectangle-Copy-10" x="3.55271368e-15" y="0" width="40.6595372" height="6.2763044" rx="3.1381522"></rect>
            </g>
            <g id="fakecart" transform="translate(6.529457, 73.946184)" fill="#BBC3C6">
                <rect id="Rectangle-Copy-10" x="0" y="0" width="63.3949616" height="11.7782989" rx="5.88914944"></rect>
            </g>
        </g>
        <g id="gridProduct" opacity="0.626521519" transform="translate(461.920658, 364.472015)">
            <rect id="Rectangle-Copy-13" fill="#E2E6E7" x="0" y="0" width="78.6455902" height="92.0524646" rx="5"></rect>
            <rect id="Rectangle" fill="#FFFFFF" x="7.59067224" y="6.32798201" width="63.4642457" height="49.7979548" rx="4.26584808"></rect>
            <g id="faketitle" transform="translate(17.897170, 62.028664)" fill="#BBC3C6">
                <rect id="Rectangle-Copy-10" x="-3.55271368e-15" y="0" width="40.6595372" height="6.2763044" rx="3.1381522"></rect>
            </g>
            <g id="fakecart" transform="translate(6.529457, 73.946184)" fill="#BBC3C6">
                <rect id="Rectangle-Copy-10" x="0" y="0" width="63.3949616" height="11.7782989" rx="5.88914944"></rect>
            </g>
        </g>
        <g id="gridProduct" opacity="0.626521519" transform="translate(549.815741, 364.472015)">
            <rect id="Rectangle-Copy-13" fill="#E2E6E7" x="0" y="0" width="78.6455902" height="92.0524646" rx="5"></rect>
            <rect id="Rectangle" fill="#FFFFFF" x="7.59067224" y="6.32798201" width="63.4642457" height="49.7979548" rx="4.26584808"></rect>
            <g id="faketitle" transform="translate(17.897170, 62.028664)" fill="#BBC3C6">
                <rect id="Rectangle-Copy-10" x="3.55271368e-15" y="0" width="40.6595372" height="6.2763044" rx="3.1381522"></rect>
            </g>
            <g id="fakecart" transform="translate(6.529457, 73.946184)" fill="#BBC3C6">
                <rect id="Rectangle-Copy-10" x="0" y="0" width="63.3949616" height="11.7782989" rx="5.88914944"></rect>
            </g>
        </g>
        <g id="gridProduct" opacity="0.626521519" transform="translate(637.710825, 364.472015)">
            <rect id="Rectangle-Copy-13" fill="#E2E6E7" x="0" y="0" width="78.6455902" height="92.0524646" rx="5"></rect>
            <rect id="Rectangle" fill="#FFFFFF" x="7.59067224" y="6.32798201" width="63.4642457" height="49.7979548" rx="4.26584808"></rect>
            <g id="faketitle" transform="translate(17.897170, 62.028664)" fill="#BBC3C6">
                <rect id="Rectangle-Copy-10" x="3.55271368e-15" y="0" width="40.6595372" height="6.2763044" rx="3.1381522"></rect>
            </g>
            <g id="fakecart" transform="translate(6.529457, 73.946184)" fill="#BBC3C6">
                <rect id="Rectangle-Copy-10" x="0" y="0" width="63.3949616" height="11.7782989" rx="5.88914944"></rect>
            </g>
        </g>
        <rect id="Rectangle" stroke="#D3D3D3" fill="#FFFFFF" x="200.340591" y="42.5" width="515.516607" height="23.5" rx="11.75"></rect>
        <g id="Group" transform="translate(697.180917, 49.086933)" stroke="#D3D3D3">
            <circle id="Oval" fill="#FFFFFF" cx="4.78029079" cy="4.78029079" r="4.28029079"></circle>
            <line x1="8.29332654" y1="7.81681274" x2="11.0576172" y2="10.5811034" id="Path-21" stroke-linecap="round"></line>
        </g>
        <rect id="Rectangle" fill="#BBC3C6" x="41" y="86.9680195" width="136" height="16" rx="3"></rect>
        <rect id="Rectangle" fill="#BBC3C6" x="41" y="110.968019" width="89" height="11" rx="2"></rect>
        <rect id="Rectangle" fill="#BBC3C6" x="41" y="129.968019" width="78" height="11" rx="2"></rect>
        <rect id="Rectangle" fill="#BBC3C6" x="41" y="148.968019" width="97.2808989" height="11" rx="2"></rect>
        <rect id="Rectangle" fill="#BBC3C6" x="41" y="167.968019" width="71.3603604" height="11" rx="2"></rect>
        <rect id="Rectangle" fill="#BBC3C6" x="41" y="278.436039" width="136" height="16" rx="3"></rect>
        <rect id="Rectangle" fill="#BBC3C6" x="41" y="302.436039" width="89" height="11" rx="2"></rect>
        <rect id="Rectangle" fill="#BBC3C6" x="41" y="321.436039" width="103" height="11" rx="2"></rect>
        <rect id="Rectangle" fill="#BBC3C6" x="41" y="340.436039" width="64" height="11" rx="2"></rect>
        <rect id="Rectangle" fill="#BBC3C6" x="41" y="359.436039" width="78" height="11" rx="2"></rect>
        <rect id="Rectangle" fill="#BBC3C6" x="41" y="186.968019" width="111" height="11" rx="2"></rect>
        <rect id="Rectangle" fill="#BBC3C6" x="41" y="205.968019" width="97" height="11" rx="2"></rect>
        <rect id="Rectangle" fill="#BBC3C6" x="41" y="224.968019" width="59" height="11" rx="2"></rect>
        <rect id="Rectangle" fill="#BBC3C6" x="41" y="243.968019" width="103" height="11" rx="2"></rect>
        <rect id="Rectangle" fill="#243C47" x="40" y="41.25" width="144" height="26" rx="13"></rect>
        <rect id="Rectangle" fill="#80C0A1" x="200.098894" y="86.199533" width="516" height="33" rx="6"></rect>
        <g id="There-were-no-result" transform="translate(248.008879, 96.737019)" fill="#FFFFFF" fill-rule="nonzero">
            <polygon id="Path" points="3.198 1.963 0 1.963 0 1.131 7.358 1.131 7.358 1.963 4.16 1.963 4.16 10.231 3.198 10.231"></polygon>
            <path d="M12.181,3.341 C13.039,3.341 13.7215,3.59016667 14.2285,4.0885 C14.7355,4.58683333 14.989,5.31266667 14.989,6.266 L14.989,10.231 L14.066,10.231 L14.066,6.357 C14.066,5.64633333 13.8883333,5.10466667 13.533,4.732 C13.1776667,4.35933333 12.6706667,4.173 12.012,4.173 C11.2753333,4.173 10.6925,4.39183333 10.2635,4.8295 C9.8345,5.26716667 9.62,5.87166667 9.62,6.643 L9.62,10.231 L8.697,10.231 L8.697,0.585 L9.62,0.585 L9.62,4.589 C9.87133333,4.19033333 10.218,3.88266667 10.66,3.666 C11.102,3.44933333 11.609,3.341 12.181,3.341 Z" id="Path"></path>
            <path d="M23.478,7.098 L17.758,7.098 C17.81,7.80866667 18.083,8.38283333 18.577,8.8205 C19.071,9.25816667 19.695,9.477 20.449,9.477 C20.8736667,9.477 21.2636667,9.40116667 21.619,9.2495 C21.9743333,9.09783333 22.282,8.87466667 22.542,8.58 L23.062,9.178 C22.7586667,9.542 22.3795,9.81933333 21.9245,10.01 C21.4695,10.2006667 20.969,10.296 20.423,10.296 C19.721,10.296 19.0991667,10.1465 18.5575,9.8475 C18.0158333,9.5485 17.5933333,9.13466667 17.29,8.606 C16.9866667,8.07733333 16.835,7.47933333 16.835,6.812 C16.835,6.14466667 16.9801667,5.54666667 17.2705,5.018 C17.5608333,4.48933333 17.9595,4.07766667 18.4665,3.783 C18.9735,3.48833333 19.5433333,3.341 20.176,3.341 C20.8086667,3.341 21.3763333,3.48833333 21.879,3.783 C22.3816667,4.07766667 22.776,4.48716667 23.062,5.0115 C23.348,5.53583333 23.491,6.136 23.491,6.812 L23.478,7.098 Z M20.176,4.134 C19.5173333,4.134 18.9648333,4.34416667 18.5185,4.7645 C18.0721667,5.18483333 17.8186667,5.733 17.758,6.409 L22.607,6.409 C22.5463333,5.733 22.2928333,5.18483333 21.8465,4.7645 C21.4001667,4.34416667 20.8433333,4.134 20.176,4.134 Z" id="Shape"></path>
            <path d="M26.26,4.732 C26.4766667,4.27266667 26.7995,3.926 27.2285,3.692 C27.6575,3.458 28.1883333,3.341 28.821,3.341 L28.821,4.238 L28.6,4.225 C27.8806667,4.225 27.3173333,4.446 26.91,4.888 C26.5026667,5.33 26.299,5.94966667 26.299,6.747 L26.299,10.231 L25.376,10.231 L25.376,3.393 L26.26,3.393 L26.26,4.732 Z" id="Path"></path>
            <path d="M36.374,7.098 L30.654,7.098 C30.706,7.80866667 30.979,8.38283333 31.473,8.8205 C31.967,9.25816667 32.591,9.477 33.345,9.477 C33.7696667,9.477 34.1596667,9.40116667 34.515,9.2495 C34.8703333,9.09783333 35.178,8.87466667 35.438,8.58 L35.958,9.178 C35.6546667,9.542 35.2755,9.81933333 34.8205,10.01 C34.3655,10.2006667 33.865,10.296 33.319,10.296 C32.617,10.296 31.9951667,10.1465 31.4535,9.8475 C30.9118333,9.5485 30.4893333,9.13466667 30.186,8.606 C29.8826667,8.07733333 29.731,7.47933333 29.731,6.812 C29.731,6.14466667 29.8761667,5.54666667 30.1665,5.018 C30.4568333,4.48933333 30.8555,4.07766667 31.3625,3.783 C31.8695,3.48833333 32.4393333,3.341 33.072,3.341 C33.7046667,3.341 34.2723333,3.48833333 34.775,3.783 C35.2776667,4.07766667 35.672,4.48716667 35.958,5.0115 C36.244,5.53583333 36.387,6.136 36.387,6.812 L36.374,7.098 Z M33.072,4.134 C32.4133333,4.134 31.8608333,4.34416667 31.4145,4.7645 C30.9681667,5.18483333 30.7146667,5.733 30.654,6.409 L35.503,6.409 C35.4423333,5.733 35.1888333,5.18483333 34.7425,4.7645 C34.2961667,4.34416667 33.7393333,4.134 33.072,4.134 Z" id="Shape"></path>
            <polygon id="Path" points="51.714 3.393 49.127 10.231 48.256 10.231 46.098 4.628 43.94 10.231 43.069 10.231 40.495 3.393 41.379 3.393 43.524 9.204 45.721 3.393 46.514 3.393 48.698 9.204 50.869 3.393"></polygon>
            <path d="M58.864,7.098 L53.144,7.098 C53.196,7.80866667 53.469,8.38283333 53.963,8.8205 C54.457,9.25816667 55.081,9.477 55.835,9.477 C56.2596667,9.477 56.6496667,9.40116667 57.005,9.2495 C57.3603333,9.09783333 57.668,8.87466667 57.928,8.58 L58.448,9.178 C58.1446667,9.542 57.7655,9.81933333 57.3105,10.01 C56.8555,10.2006667 56.355,10.296 55.809,10.296 C55.107,10.296 54.4851667,10.1465 53.9435,9.8475 C53.4018333,9.5485 52.9793333,9.13466667 52.676,8.606 C52.3726667,8.07733333 52.221,7.47933333 52.221,6.812 C52.221,6.14466667 52.3661667,5.54666667 52.6565,5.018 C52.9468333,4.48933333 53.3455,4.07766667 53.8525,3.783 C54.3595,3.48833333 54.9293333,3.341 55.562,3.341 C56.1946667,3.341 56.7623333,3.48833333 57.265,3.783 C57.7676667,4.07766667 58.162,4.48716667 58.448,5.0115 C58.734,5.53583333 58.877,6.136 58.877,6.812 L58.864,7.098 Z M55.562,4.134 C54.9033333,4.134 54.3508333,4.34416667 53.9045,4.7645 C53.4581667,5.18483333 53.2046667,5.733 53.144,6.409 L57.993,6.409 C57.9323333,5.733 57.6788333,5.18483333 57.2325,4.7645 C56.7861667,4.34416667 56.2293333,4.134 55.562,4.134 Z" id="Shape"></path>
            <path d="M61.646,4.732 C61.8626667,4.27266667 62.1855,3.926 62.6145,3.692 C63.0435,3.458 63.5743333,3.341 64.207,3.341 L64.207,4.238 L63.986,4.225 C63.2666667,4.225 62.7033333,4.446 62.296,4.888 C61.8886667,5.33 61.685,5.94966667 61.685,6.747 L61.685,10.231 L60.762,10.231 L60.762,3.393 L61.646,3.393 L61.646,4.732 Z" id="Path"></path>
            <path d="M71.76,7.098 L66.04,7.098 C66.092,7.80866667 66.365,8.38283333 66.859,8.8205 C67.353,9.25816667 67.977,9.477 68.731,9.477 C69.1556667,9.477 69.5456667,9.40116667 69.901,9.2495 C70.2563333,9.09783333 70.564,8.87466667 70.824,8.58 L71.344,9.178 C71.0406667,9.542 70.6615,9.81933333 70.2065,10.01 C69.7515,10.2006667 69.251,10.296 68.705,10.296 C68.003,10.296 67.3811667,10.1465 66.8395,9.8475 C66.2978333,9.5485 65.8753333,9.13466667 65.572,8.606 C65.2686667,8.07733333 65.117,7.47933333 65.117,6.812 C65.117,6.14466667 65.2621667,5.54666667 65.5525,5.018 C65.8428333,4.48933333 66.2415,4.07766667 66.7485,3.783 C67.2555,3.48833333 67.8253333,3.341 68.458,3.341 C69.0906667,3.341 69.6583333,3.48833333 70.161,3.783 C70.6636667,4.07766667 71.058,4.48716667 71.344,5.0115 C71.63,5.53583333 71.773,6.136 71.773,6.812 L71.76,7.098 Z M68.458,4.134 C67.7993333,4.134 67.2468333,4.34416667 66.8005,4.7645 C66.3541667,5.18483333 66.1006667,5.733 66.04,6.409 L70.889,6.409 C70.8283333,5.733 70.5748333,5.18483333 70.1285,4.7645 C69.6821667,4.34416667 69.1253333,4.134 68.458,4.134 Z" id="Shape"></path>
            <path d="M80.548,3.341 C81.406,3.341 82.0885,3.59016667 82.5955,4.0885 C83.1025,4.58683333 83.356,5.31266667 83.356,6.266 L83.356,10.231 L82.433,10.231 L82.433,6.357 C82.433,5.64633333 82.2553333,5.10466667 81.9,4.732 C81.5446667,4.35933333 81.0376667,4.173 80.379,4.173 C79.6423333,4.173 79.0595,4.39183333 78.6305,4.8295 C78.2015,5.26716667 77.987,5.87166667 77.987,6.643 L77.987,10.231 L77.064,10.231 L77.064,3.393 L77.948,3.393 L77.948,4.654 C78.1993333,4.238 78.5481667,3.91516667 78.9945,3.6855 C79.4408333,3.45583333 79.9586667,3.341 80.548,3.341 Z" id="Path"></path>
            <path d="M88.686,10.296 C88.0273333,10.296 87.4336667,10.1465 86.905,9.8475 C86.3763333,9.5485 85.9603333,9.13466667 85.657,8.606 C85.3536667,8.07733333 85.202,7.47933333 85.202,6.812 C85.202,6.14466667 85.3536667,5.54666667 85.657,5.018 C85.9603333,4.48933333 86.3763333,4.07766667 86.905,3.783 C87.4336667,3.48833333 88.0273333,3.341 88.686,3.341 C89.3446667,3.341 89.9383333,3.48833333 90.467,3.783 C90.9956667,4.07766667 91.4095,4.48933333 91.7085,5.018 C92.0075,5.54666667 92.157,6.14466667 92.157,6.812 C92.157,7.47933333 92.0075,8.07733333 91.7085,8.606 C91.4095,9.13466667 90.9956667,9.5485 90.467,9.8475 C89.9383333,10.1465 89.3446667,10.296 88.686,10.296 Z M88.686,9.477 C89.1713333,9.477 89.6068333,9.3665 89.9925,9.1455 C90.3781667,8.9245 90.6793333,8.61033333 90.896,8.203 C91.1126667,7.79566667 91.221,7.332 91.221,6.812 C91.221,6.292 91.1126667,5.82833333 90.896,5.421 C90.6793333,5.01366667 90.3781667,4.6995 89.9925,4.4785 C89.6068333,4.2575 89.1713333,4.147 88.686,4.147 C88.2006667,4.147 87.7651667,4.2575 87.3795,4.4785 C86.9938333,4.6995 86.6905,5.01366667 86.4695,5.421 C86.2485,5.82833333 86.138,6.292 86.138,6.812 C86.138,7.332 86.2485,7.79566667 86.4695,8.203 C86.6905,8.61033333 86.9938333,8.9245 87.3795,9.1455 C87.7651667,9.3665 88.2006667,9.477 88.686,9.477 Z" id="Shape"></path>
            <path d="M98.332,4.732 C98.5486667,4.27266667 98.8715,3.926 99.3005,3.692 C99.7295,3.458 100.260333,3.341 100.893,3.341 L100.893,4.238 L100.672,4.225 C99.9526667,4.225 99.3893333,4.446 98.982,4.888 C98.5746667,5.33 98.371,5.94966667 98.371,6.747 L98.371,10.231 L97.448,10.231 L97.448,3.393 L98.332,3.393 L98.332,4.732 Z" id="Path"></path>
            <path d="M108.446,7.098 L102.726,7.098 C102.778,7.80866667 103.051,8.38283333 103.545,8.8205 C104.039,9.25816667 104.663,9.477 105.417,9.477 C105.841667,9.477 106.231667,9.40116667 106.587,9.2495 C106.942333,9.09783333 107.25,8.87466667 107.51,8.58 L108.03,9.178 C107.726667,9.542 107.3475,9.81933333 106.8925,10.01 C106.4375,10.2006667 105.937,10.296 105.391,10.296 C104.689,10.296 104.067167,10.1465 103.5255,9.8475 C102.983833,9.5485 102.561333,9.13466667 102.258,8.606 C101.954667,8.07733333 101.803,7.47933333 101.803,6.812 C101.803,6.14466667 101.948167,5.54666667 102.2385,5.018 C102.528833,4.48933333 102.9275,4.07766667 103.4345,3.783 C103.9415,3.48833333 104.511333,3.341 105.144,3.341 C105.776667,3.341 106.344333,3.48833333 106.847,3.783 C107.349667,4.07766667 107.744,4.48716667 108.03,5.0115 C108.316,5.53583333 108.459,6.136 108.459,6.812 L108.446,7.098 Z M105.144,4.134 C104.485333,4.134 103.932833,4.34416667 103.4865,4.7645 C103.040167,5.18483333 102.786667,5.733 102.726,6.409 L107.575,6.409 C107.514333,5.733 107.260833,5.18483333 106.8145,4.7645 C106.368167,4.34416667 105.811333,4.134 105.144,4.134 Z" id="Shape"></path>
            <path d="M112.177,10.296 C111.622333,10.296 111.0915,10.2158333 110.5845,10.0555 C110.0775,9.89516667 109.681,9.69366667 109.395,9.451 L109.811,8.723 C110.097,8.94833333 110.456667,9.1325 110.89,9.2755 C111.323333,9.4185 111.774,9.49 112.242,9.49 C112.866,9.49 113.3275,9.3925 113.6265,9.1975 C113.9255,9.0025 114.075,8.72733333 114.075,8.372 C114.075,8.12066667 113.992667,7.9235 113.828,7.7805 C113.663333,7.6375 113.455333,7.52916667 113.204,7.4555 C112.952667,7.38183333 112.619,7.31033333 112.203,7.241 C111.648333,7.137 111.202,7.03083333 110.864,6.9225 C110.526,6.81416667 110.237833,6.63 109.9995,6.37 C109.761167,6.11 109.642,5.75033333 109.642,5.291 C109.642,4.719 109.880333,4.251 110.357,3.887 C110.833667,3.523 111.496667,3.341 112.346,3.341 C112.788,3.341 113.23,3.3995 113.672,3.5165 C114.114,3.6335 114.478,3.78733333 114.764,3.978 L114.361,4.719 C113.797667,4.329 113.126,4.134 112.346,4.134 C111.756667,4.134 111.3125,4.238 111.0135,4.446 C110.7145,4.654 110.565,4.927 110.565,5.265 C110.565,5.525 110.6495,5.733 110.8185,5.889 C110.9875,6.045 111.197667,6.15983333 111.449,6.2335 C111.700333,6.30716667 112.047,6.383 112.489,6.461 C113.035,6.565 113.472667,6.669 113.802,6.773 C114.131333,6.877 114.413,7.05466667 114.647,7.306 C114.881,7.55733333 114.998,7.904 114.998,8.346 C114.998,8.944 114.748833,9.4185 114.2505,9.7695 C113.752167,10.1205 113.061,10.296 112.177,10.296 Z" id="Path"></path>
            <path d="M122.863,3.393 L122.863,10.231 L121.979,10.231 L121.979,8.983 C121.736333,9.399 121.402667,9.72183333 120.978,9.9515 C120.553333,10.1811667 120.068,10.296 119.522,10.296 C118.629333,10.296 117.925167,10.0468333 117.4095,9.5485 C116.893833,9.05016667 116.636,8.32 116.636,7.358 L116.636,3.393 L117.559,3.393 L117.559,7.267 C117.559,7.98633333 117.736667,8.53233333 118.092,8.905 C118.447333,9.27766667 118.954333,9.464 119.613,9.464 C120.332333,9.464 120.9,9.24516667 121.316,8.8075 C121.732,8.36983333 121.94,7.761 121.94,6.981 L121.94,3.393 L122.863,3.393 Z" id="Path"></path>
            <polygon id="Path" points="125.45 0.585 126.373 0.585 126.373 10.231 125.45 10.231"></polygon>
            <path d="M132.574,9.815 C132.400667,9.971 132.186167,10.0901667 131.9305,10.1725 C131.674833,10.2548333 131.408333,10.296 131.131,10.296 C130.489667,10.296 129.995667,10.1226667 129.649,9.776 C129.302333,9.42933333 129.129,8.93966667 129.129,8.307 L129.129,4.173 L127.907,4.173 L127.907,3.393 L129.129,3.393 L129.129,1.898 L130.052,1.898 L130.052,3.393 L132.132,3.393 L132.132,4.173 L130.052,4.173 L130.052,8.255 C130.052,8.66233333 130.153833,8.97216667 130.3575,9.1845 C130.561167,9.39683333 130.853667,9.503 131.235,9.503 C131.425667,9.503 131.609833,9.47266667 131.7875,9.412 C131.965167,9.35133333 132.119,9.26466667 132.249,9.152 L132.574,9.815 Z" id="Path"></path>
            <path d="M136.084,10.296 C135.529333,10.296 134.9985,10.2158333 134.4915,10.0555 C133.9845,9.89516667 133.588,9.69366667 133.302,9.451 L133.718,8.723 C134.004,8.94833333 134.363667,9.1325 134.797,9.2755 C135.230333,9.4185 135.681,9.49 136.149,9.49 C136.773,9.49 137.2345,9.3925 137.5335,9.1975 C137.8325,9.0025 137.982,8.72733333 137.982,8.372 C137.982,8.12066667 137.899667,7.9235 137.735,7.7805 C137.570333,7.6375 137.362333,7.52916667 137.111,7.4555 C136.859667,7.38183333 136.526,7.31033333 136.11,7.241 C135.555333,7.137 135.109,7.03083333 134.771,6.9225 C134.433,6.81416667 134.144833,6.63 133.9065,6.37 C133.668167,6.11 133.549,5.75033333 133.549,5.291 C133.549,4.719 133.787333,4.251 134.264,3.887 C134.740667,3.523 135.403667,3.341 136.253,3.341 C136.695,3.341 137.137,3.3995 137.579,3.5165 C138.021,3.6335 138.385,3.78733333 138.671,3.978 L138.268,4.719 C137.704667,4.329 137.033,4.134 136.253,4.134 C135.663667,4.134 135.2195,4.238 134.9205,4.446 C134.6215,4.654 134.472,4.927 134.472,5.265 C134.472,5.525 134.5565,5.733 134.7255,5.889 C134.8945,6.045 135.104667,6.15983333 135.356,6.2335 C135.607333,6.30716667 135.954,6.383 136.396,6.461 C136.942,6.565 137.379667,6.669 137.709,6.773 C138.038333,6.877 138.32,7.05466667 138.554,7.306 C138.788,7.55733333 138.905,7.904 138.905,8.346 C138.905,8.944 138.655833,9.4185 138.1575,9.7695 C137.659167,10.1205 136.968,10.296 136.084,10.296 Z" id="Path"></path>
            <path d="M146.276,1.3 C145.877333,1.3 145.576167,1.40833333 145.3725,1.625 C145.168833,1.84166667 145.067,2.16233333 145.067,2.587 L145.067,3.393 L147.173,3.393 L147.173,4.173 L145.093,4.173 L145.093,10.231 L144.17,10.231 L144.17,4.173 L142.948,4.173 L142.948,3.393 L144.17,3.393 L144.17,2.548 C144.17,1.924 144.349833,1.43 144.7095,1.066 C145.069167,0.702 145.578333,0.52 146.237,0.52 C146.497,0.52 146.748333,0.556833333 146.991,0.6305 C147.233667,0.704166667 147.437333,0.810333333 147.602,0.949 L147.29,1.638 C147.021333,1.41266667 146.683333,1.3 146.276,1.3 Z" id="Path"></path>
            <path d="M151.099,10.296 C150.440333,10.296 149.846667,10.1465 149.318,9.8475 C148.789333,9.5485 148.373333,9.13466667 148.07,8.606 C147.766667,8.07733333 147.615,7.47933333 147.615,6.812 C147.615,6.14466667 147.766667,5.54666667 148.07,5.018 C148.373333,4.48933333 148.789333,4.07766667 149.318,3.783 C149.846667,3.48833333 150.440333,3.341 151.099,3.341 C151.757667,3.341 152.351333,3.48833333 152.88,3.783 C153.408667,4.07766667 153.8225,4.48933333 154.1215,5.018 C154.4205,5.54666667 154.57,6.14466667 154.57,6.812 C154.57,7.47933333 154.4205,8.07733333 154.1215,8.606 C153.8225,9.13466667 153.408667,9.5485 152.88,9.8475 C152.351333,10.1465 151.757667,10.296 151.099,10.296 Z M151.099,9.477 C151.584333,9.477 152.019833,9.3665 152.4055,9.1455 C152.791167,8.9245 153.092333,8.61033333 153.309,8.203 C153.525667,7.79566667 153.634,7.332 153.634,6.812 C153.634,6.292 153.525667,5.82833333 153.309,5.421 C153.092333,5.01366667 152.791167,4.6995 152.4055,4.4785 C152.019833,4.2575 151.584333,4.147 151.099,4.147 C150.613667,4.147 150.178167,4.2575 149.7925,4.4785 C149.406833,4.6995 149.1035,5.01366667 148.8825,5.421 C148.6615,5.82833333 148.551,6.292 148.551,6.812 C148.551,7.332 148.6615,7.79566667 148.8825,8.203 C149.1035,8.61033333 149.406833,8.9245 149.7925,9.1455 C150.178167,9.3665 150.613667,9.477 151.099,9.477 Z" id="Shape"></path>
            <path d="M157.339,4.732 C157.555667,4.27266667 157.8785,3.926 158.3075,3.692 C158.7365,3.458 159.267333,3.341 159.9,3.341 L159.9,4.238 L159.679,4.225 C158.959667,4.225 158.396333,4.446 157.989,4.888 C157.581667,5.33 157.378,5.94966667 157.378,6.747 L157.378,10.231 L156.455,10.231 L156.455,3.393 L157.339,3.393 L157.339,4.732 Z" id="Path"></path>
            <path d="M165.373,2.457 C165.520333,2.50033333 165.635167,2.5805 165.7175,2.6975 C165.799833,2.8145 165.841,2.95533333 165.841,3.12 C165.841,3.328 165.776,3.497 165.646,3.627 C165.516,3.757 165.355667,3.822 165.165,3.822 C164.957,3.822 164.790167,3.75483333 164.6645,3.6205 C164.538833,3.48616667 164.476,3.31933333 164.476,3.12 C164.476,3.016 164.486833,2.91416667 164.5085,2.8145 C164.530167,2.71483333 164.575667,2.56966667 164.645,2.379 L165.191,0.585 L165.815,0.585 L165.373,2.457 Z M167.583,2.457 C167.730333,2.50033333 167.845167,2.5805 167.9275,2.6975 C168.009833,2.8145 168.051,2.95533333 168.051,3.12 C168.051,3.328 167.986,3.497 167.856,3.627 C167.726,3.757 167.565667,3.822 167.375,3.822 C167.167,3.822 167.000167,3.75483333 166.8745,3.6205 C166.748833,3.48616667 166.686,3.31933333 166.686,3.12 C166.686,3.016 166.696833,2.91416667 166.7185,2.8145 C166.740167,2.71483333 166.785667,2.56966667 166.855,2.379 L167.401,0.585 L168.025,0.585 L167.583,2.457 Z" id="Shape"></path>
            <path d="M173.823,3.133 C174.473,3.133 175.0645,3.2825 175.5975,3.5815 C176.1305,3.8805 176.548667,4.30083333 176.852,4.8425 C177.155333,5.38416667 177.307,6.01466667 177.307,6.734 C177.307,7.45333333 177.155333,8.08383333 176.852,8.6255 C176.548667,9.16716667 176.1305,9.5875 175.5975,9.8865 C175.0645,10.1855 174.473,10.335 173.823,10.335 C172.861,10.335 172.128667,10.0316667 171.626,9.425 L171.626,10.231 L169.689,10.231 L169.689,0.585 L171.717,0.585 L171.717,3.978 C172.228333,3.41466667 172.930333,3.133 173.823,3.133 Z M173.472,8.671 C173.992,8.671 174.418833,8.4955 174.7525,8.1445 C175.086167,7.7935 175.253,7.32333333 175.253,6.734 C175.253,6.14466667 175.086167,5.6745 174.7525,5.3235 C174.418833,4.9725 173.992,4.797 173.472,4.797 C172.952,4.797 172.525167,4.9725 172.1915,5.3235 C171.857833,5.6745 171.691,6.14466667 171.691,6.734 C171.691,7.32333333 171.857833,7.7935 172.1915,8.1445 C172.525167,8.4955 172.952,8.671 173.472,8.671 Z" id="Shape"></path>
            <path d="M178.659,3.237 L180.687,3.237 L180.687,10.231 L178.659,10.231 L178.659,3.237 Z M179.673,2.262 C179.300333,2.262 178.997,2.15366667 178.763,1.937 C178.529,1.72033333 178.412,1.45166667 178.412,1.131 C178.412,0.810333333 178.529,0.541666667 178.763,0.325 C178.997,0.108333333 179.300333,0 179.673,0 C180.045667,0 180.349,0.104 180.583,0.312 C180.817,0.52 180.934,0.78 180.934,1.092 C180.934,1.43 180.817,1.7095 180.583,1.9305 C180.349,2.1515 180.045667,2.262 179.673,2.262 Z" id="Shape"></path>
            <path d="M184.925,10.335 C184.344333,10.335 183.776667,10.2635 183.222,10.1205 C182.667333,9.9775 182.225333,9.79766667 181.896,9.581 L182.572,8.125 C182.884,8.32433333 183.261,8.48683333 183.703,8.6125 C184.145,8.73816667 184.578333,8.801 185.003,8.801 C185.861,8.801 186.29,8.58866667 186.29,8.164 C186.29,7.96466667 186.173,7.82166667 185.939,7.735 C185.705,7.64833333 185.345333,7.57466667 184.86,7.514 C184.288,7.42733333 183.815667,7.32766667 183.443,7.215 C183.070333,7.10233333 182.7475,6.903 182.4745,6.617 C182.2015,6.331 182.065,5.92366667 182.065,5.395 C182.065,4.953 182.192833,4.56083333 182.4485,4.2185 C182.704167,3.87616667 183.076833,3.60966667 183.5665,3.419 C184.056167,3.22833333 184.634667,3.133 185.302,3.133 C185.796,3.133 186.287833,3.18716667 186.7775,3.2955 C187.267167,3.40383333 187.672333,3.55333333 187.993,3.744 L187.317,5.187 C186.701667,4.84033333 186.03,4.667 185.302,4.667 C184.868667,4.667 184.543667,4.72766667 184.327,4.849 C184.110333,4.97033333 184.002,5.12633333 184.002,5.317 C184.002,5.53366667 184.119,5.68533333 184.353,5.772 C184.587,5.85866667 184.959667,5.941 185.471,6.019 C186.043,6.11433333 186.511,6.21616667 186.875,6.3245 C187.239,6.43283333 187.555333,6.63 187.824,6.916 C188.092667,7.202 188.227,7.60066667 188.227,8.112 C188.227,8.54533333 188.097,8.931 187.837,9.269 C187.577,9.607 187.197833,9.86916667 186.6995,10.0555 C186.201167,10.2418333 185.609667,10.335 184.925,10.335 Z" id="Path"></path>
            <path d="M189.475,3.237 L191.503,3.237 L191.503,10.231 L189.475,10.231 L189.475,3.237 Z M190.489,2.262 C190.116333,2.262 189.813,2.15366667 189.579,1.937 C189.345,1.72033333 189.228,1.45166667 189.228,1.131 C189.228,0.810333333 189.345,0.541666667 189.579,0.325 C189.813,0.108333333 190.116333,0 190.489,0 C190.861667,0 191.165,0.104 191.399,0.312 C191.633,0.52 191.75,0.78 191.75,1.092 C191.75,1.43 191.633,1.7095 191.399,1.9305 C191.165,2.1515 190.861667,2.262 190.489,2.262 Z" id="Shape"></path>
            <path d="M200.434,3.237 L200.434,10.231 L198.51,10.231 L198.51,9.399 C198.241333,9.70233333 197.920667,9.93416667 197.548,10.0945 C197.175333,10.2548333 196.772333,10.335 196.339,10.335 C195.420333,10.335 194.692333,10.0706667 194.155,9.542 C193.617667,9.01333333 193.349,8.229 193.349,7.189 L193.349,3.237 L195.377,3.237 L195.377,6.89 C195.377,8.01666667 195.849333,8.58 196.794,8.58 C197.279333,8.58 197.669333,8.42183333 197.964,8.1055 C198.258667,7.78916667 198.406,7.319 198.406,6.695 L198.406,3.237 L200.434,3.237 Z" id="Path"></path>
            <path d="M206.83,9.893 C206.630667,10.0403333 206.385833,10.1508333 206.0955,10.2245 C205.805167,10.2981667 205.499667,10.335 205.179,10.335 C204.347,10.335 203.7035,10.1226667 203.2485,9.698 C202.7935,9.27333333 202.566,8.64933333 202.566,7.826 L202.566,4.953 L201.487,4.953 L201.487,3.393 L202.566,3.393 L202.566,1.69 L204.594,1.69 L204.594,3.393 L206.336,3.393 L206.336,4.953 L204.594,4.953 L204.594,7.8 C204.594,8.09466667 204.669833,8.32216667 204.8215,8.4825 C204.973167,8.64283333 205.187667,8.723 205.465,8.723 C205.785667,8.723 206.058667,8.63633333 206.284,8.463 L206.83,9.893 Z" id="Path"></path>
            <path d="M208.429,0.52 C208.628333,0.52 208.793,0.587166667 208.923,0.7215 C209.053,0.855833333 209.118,1.02266667 209.118,1.222 C209.118,1.326 209.102833,1.4365 209.0725,1.5535 C209.042167,1.6705 209.001,1.807 208.949,1.963 L208.39,3.757 L207.766,3.757 L208.221,1.885 C208.073667,1.84166667 207.956667,1.7615 207.87,1.6445 C207.783333,1.5275 207.74,1.38666667 207.74,1.222 C207.74,1.014 207.805,0.845 207.935,0.715 C208.065,0.585 208.229667,0.52 208.429,0.52 Z M210.639,0.52 C210.838333,0.52 211.003,0.587166667 211.133,0.7215 C211.263,0.855833333 211.328,1.02266667 211.328,1.222 C211.328,1.326 211.312833,1.4365 211.2825,1.5535 C211.252167,1.6705 211.211,1.807 211.159,1.963 L210.6,3.757 L209.976,3.757 L210.431,1.885 C210.283667,1.84166667 210.166667,1.7615 210.08,1.6445 C209.993333,1.5275 209.95,1.38666667 209.95,1.222 C209.95,1.014 210.015,0.845 210.145,0.715 C210.275,0.585 210.439667,0.52 210.639,0.52 Z" id="Shape"></path>
            <path d="M213.161,10.296 C212.970333,10.296 212.807833,10.2266667 212.6735,10.088 C212.539167,9.94933333 212.472,9.78033333 212.472,9.581 C212.472,9.38166667 212.539167,9.21483333 212.6735,9.0805 C212.807833,8.94616667 212.970333,8.879 213.161,8.879 C213.351667,8.879 213.516333,8.94616667 213.655,9.0805 C213.793667,9.21483333 213.863,9.38166667 213.863,9.581 C213.863,9.78033333 213.793667,9.94933333 213.655,10.088 C213.516333,10.2266667 213.351667,10.296 213.161,10.296 Z" id="Path"></path>
            <path d="M221.936,10.309 C221.26,10.309 220.612167,10.2006667 219.9925,9.984 C219.372833,9.76733333 218.894,9.48133333 218.556,9.126 L218.933,8.385 C219.262333,8.71433333 219.7,8.98083333 220.246,9.1845 C220.792,9.38816667 221.355333,9.49 221.936,9.49 C222.750667,9.49 223.361667,9.3405 223.769,9.0415 C224.176333,8.7425 224.38,8.35466667 224.38,7.878 C224.38,7.514 224.2695,7.22366667 224.0485,7.007 C223.8275,6.79033333 223.556667,6.6235 223.236,6.5065 C222.915333,6.3895 222.469,6.26166667 221.897,6.123 C221.212333,5.94966667 220.666333,5.78283333 220.259,5.6225 C219.851667,5.46216667 219.502833,5.21733333 219.2125,4.888 C218.922167,4.55866667 218.777,4.11233333 218.777,3.549 C218.777,3.08966667 218.898333,2.6715 219.141,2.2945 C219.383667,1.9175 219.756333,1.61633333 220.259,1.391 C220.761667,1.16566667 221.385667,1.053 222.131,1.053 C222.651,1.053 223.160167,1.1245 223.6585,1.2675 C224.156833,1.4105 224.588,1.60766667 224.952,1.859 L224.627,2.626 C224.245667,2.37466667 223.838333,2.18616667 223.405,2.0605 C222.971667,1.93483333 222.547,1.872 222.131,1.872 C221.333667,1.872 220.7335,2.02583333 220.3305,2.3335 C219.9275,2.64116667 219.726,3.03766667 219.726,3.523 C219.726,3.887 219.8365,4.1795 220.0575,4.4005 C220.2785,4.6215 220.555833,4.7905 220.8895,4.9075 C221.223167,5.0245 221.671667,5.15233333 222.235,5.291 C222.902333,5.45566667 223.441833,5.61816667 223.8535,5.7785 C224.265167,5.93883333 224.614,6.1815 224.9,6.5065 C225.186,6.8315 225.329,7.27133333 225.329,7.826 C225.329,8.28533333 225.2055,8.7035 224.9585,9.0805 C224.7115,9.4575 224.332333,9.7565 223.821,9.9775 C223.309667,10.1985 222.681333,10.309 221.936,10.309 Z" id="Path"></path>
            <path d="M230.711,3.341 C231.569,3.341 232.2515,3.59016667 232.7585,4.0885 C233.2655,4.58683333 233.519,5.31266667 233.519,6.266 L233.519,10.231 L232.596,10.231 L232.596,6.357 C232.596,5.64633333 232.418333,5.10466667 232.063,4.732 C231.707667,4.35933333 231.200667,4.173 230.542,4.173 C229.805333,4.173 229.2225,4.39183333 228.7935,4.8295 C228.3645,5.26716667 228.15,5.87166667 228.15,6.643 L228.15,10.231 L227.227,10.231 L227.227,0.585 L228.15,0.585 L228.15,4.589 C228.401333,4.19033333 228.748,3.88266667 229.19,3.666 C229.632,3.44933333 230.139,3.341 230.711,3.341 Z" id="Path"></path>
            <path d="M238.849,10.296 C238.190333,10.296 237.596667,10.1465 237.068,9.8475 C236.539333,9.5485 236.123333,9.13466667 235.82,8.606 C235.516667,8.07733333 235.365,7.47933333 235.365,6.812 C235.365,6.14466667 235.516667,5.54666667 235.82,5.018 C236.123333,4.48933333 236.539333,4.07766667 237.068,3.783 C237.596667,3.48833333 238.190333,3.341 238.849,3.341 C239.507667,3.341 240.101333,3.48833333 240.63,3.783 C241.158667,4.07766667 241.5725,4.48933333 241.8715,5.018 C242.1705,5.54666667 242.32,6.14466667 242.32,6.812 C242.32,7.47933333 242.1705,8.07733333 241.8715,8.606 C241.5725,9.13466667 241.158667,9.5485 240.63,9.8475 C240.101333,10.1465 239.507667,10.296 238.849,10.296 Z M238.849,9.477 C239.334333,9.477 239.769833,9.3665 240.1555,9.1455 C240.541167,8.9245 240.842333,8.61033333 241.059,8.203 C241.275667,7.79566667 241.384,7.332 241.384,6.812 C241.384,6.292 241.275667,5.82833333 241.059,5.421 C240.842333,5.01366667 240.541167,4.6995 240.1555,4.4785 C239.769833,4.2575 239.334333,4.147 238.849,4.147 C238.363667,4.147 237.928167,4.2575 237.5425,4.4785 C237.156833,4.6995 236.8535,5.01366667 236.6325,5.421 C236.4115,5.82833333 236.301,6.292 236.301,6.812 C236.301,7.332 236.4115,7.79566667 236.6325,8.203 C236.8535,8.61033333 237.156833,8.9245 237.5425,9.1455 C237.928167,9.3665 238.363667,9.477 238.849,9.477 Z" id="Shape"></path>
            <polygon id="Path" points="254.046 3.393 251.459 10.231 250.588 10.231 248.43 4.628 246.272 10.231 245.401 10.231 242.827 3.393 243.711 3.393 245.856 9.204 248.053 3.393 248.846 3.393 251.03 9.204 253.201 3.393"></polygon>
            <path d="M255.437,3.393 L256.36,3.393 L256.36,10.231 L255.437,10.231 L255.437,3.393 Z M255.905,1.898 C255.714333,1.898 255.554,1.833 255.424,1.703 C255.294,1.573 255.229,1.417 255.229,1.235 C255.229,1.06166667 255.294,0.91 255.424,0.78 C255.554,0.65 255.714333,0.585 255.905,0.585 C256.095667,0.585 256.256,0.647833333 256.386,0.7735 C256.516,0.899166667 256.581,1.04866667 256.581,1.222 C256.581,1.41266667 256.516,1.573 256.386,1.703 C256.256,1.833 256.095667,1.898 255.905,1.898 Z" id="Shape"></path>
            <path d="M262.418,3.341 C263.276,3.341 263.9585,3.59016667 264.4655,4.0885 C264.9725,4.58683333 265.226,5.31266667 265.226,6.266 L265.226,10.231 L264.303,10.231 L264.303,6.357 C264.303,5.64633333 264.125333,5.10466667 263.77,4.732 C263.414667,4.35933333 262.907667,4.173 262.249,4.173 C261.512333,4.173 260.9295,4.39183333 260.5005,4.8295 C260.0715,5.26716667 259.857,5.87166667 259.857,6.643 L259.857,10.231 L258.934,10.231 L258.934,3.393 L259.818,3.393 L259.818,4.654 C260.069333,4.238 260.418167,3.91516667 260.8645,3.6855 C261.310833,3.45583333 261.828667,3.341 262.418,3.341 Z" id="Path"></path>
            <path d="M274.092,3.393 L274.092,9.399 C274.092,10.5603333 273.808167,11.4205 273.2405,11.9795 C272.672833,12.5385 271.817,12.818 270.673,12.818 C270.040333,12.818 269.440167,12.7248333 268.8725,12.5385 C268.304833,12.3521667 267.843333,12.0943333 267.488,11.765 L267.956,11.063 C268.285333,11.3576667 268.686167,11.5873333 269.1585,11.752 C269.630833,11.9166667 270.127,11.999 270.647,11.999 C271.513667,11.999 272.150667,11.7975 272.558,11.3945 C272.965333,10.9915 273.169,10.3653333 273.169,9.516 L273.169,8.645 C272.883,9.07833333 272.508167,9.40766667 272.0445,9.633 C271.580833,9.85833333 271.067333,9.971 270.504,9.971 C269.862667,9.971 269.279833,9.83016667 268.7555,9.5485 C268.231167,9.26683333 267.8195,8.8725 267.5205,8.3655 C267.2215,7.8585 267.072,7.28433333 267.072,6.643 C267.072,6.00166667 267.2215,5.42966667 267.5205,4.927 C267.8195,4.42433333 268.229,4.03433333 268.749,3.757 C269.269,3.47966667 269.854,3.341 270.504,3.341 C271.084667,3.341 271.609,3.458 272.077,3.692 C272.545,3.926 272.922,4.264 273.208,4.706 L273.208,3.393 L274.092,3.393 Z M270.595,9.152 C271.089,9.152 271.535333,9.04583333 271.934,8.8335 C272.332667,8.62116667 272.6425,8.32433333 272.8635,7.943 C273.0845,7.56166667 273.195,7.12833333 273.195,6.643 C273.195,6.15766667 273.0845,5.7265 272.8635,5.3495 C272.6425,4.9725 272.334833,4.67783333 271.9405,4.4655 C271.546167,4.25316667 271.097667,4.147 270.595,4.147 C270.101,4.147 269.656833,4.251 269.2625,4.459 C268.868167,4.667 268.5605,4.96166667 268.3395,5.343 C268.1185,5.72433333 268.008,6.15766667 268.008,6.643 C268.008,7.12833333 268.1185,7.56166667 268.3395,7.943 C268.5605,8.32433333 268.868167,8.62116667 269.2625,8.8335 C269.656833,9.04583333 270.101,9.152 270.595,9.152 Z" id="Shape"></path>
            <path d="M280.969,4.732 C281.185667,4.27266667 281.5085,3.926 281.9375,3.692 C282.3665,3.458 282.897333,3.341 283.53,3.341 L283.53,4.238 L283.309,4.225 C282.589667,4.225 282.026333,4.446 281.619,4.888 C281.211667,5.33 281.008,5.94966667 281.008,6.747 L281.008,10.231 L280.085,10.231 L280.085,3.393 L280.969,3.393 L280.969,4.732 Z" id="Path"></path>
            <path d="M291.083,7.098 L285.363,7.098 C285.415,7.80866667 285.688,8.38283333 286.182,8.8205 C286.676,9.25816667 287.3,9.477 288.054,9.477 C288.478667,9.477 288.868667,9.40116667 289.224,9.2495 C289.579333,9.09783333 289.887,8.87466667 290.147,8.58 L290.667,9.178 C290.363667,9.542 289.9845,9.81933333 289.5295,10.01 C289.0745,10.2006667 288.574,10.296 288.028,10.296 C287.326,10.296 286.704167,10.1465 286.1625,9.8475 C285.620833,9.5485 285.198333,9.13466667 284.895,8.606 C284.591667,8.07733333 284.44,7.47933333 284.44,6.812 C284.44,6.14466667 284.585167,5.54666667 284.8755,5.018 C285.165833,4.48933333 285.5645,4.07766667 286.0715,3.783 C286.5785,3.48833333 287.148333,3.341 287.781,3.341 C288.413667,3.341 288.981333,3.48833333 289.484,3.783 C289.986667,4.07766667 290.381,4.48716667 290.667,5.0115 C290.953,5.53583333 291.096,6.136 291.096,6.812 L291.083,7.098 Z M287.781,4.134 C287.122333,4.134 286.569833,4.34416667 286.1235,4.7645 C285.677167,5.18483333 285.423667,5.733 285.363,6.409 L290.212,6.409 C290.151333,5.733 289.897833,5.18483333 289.4515,4.7645 C289.005167,4.34416667 288.448333,4.134 287.781,4.134 Z" id="Shape"></path>
            <path d="M294.814,10.296 C294.259333,10.296 293.7285,10.2158333 293.2215,10.0555 C292.7145,9.89516667 292.318,9.69366667 292.032,9.451 L292.448,8.723 C292.734,8.94833333 293.093667,9.1325 293.527,9.2755 C293.960333,9.4185 294.411,9.49 294.879,9.49 C295.503,9.49 295.9645,9.3925 296.2635,9.1975 C296.5625,9.0025 296.712,8.72733333 296.712,8.372 C296.712,8.12066667 296.629667,7.9235 296.465,7.7805 C296.300333,7.6375 296.092333,7.52916667 295.841,7.4555 C295.589667,7.38183333 295.256,7.31033333 294.84,7.241 C294.285333,7.137 293.839,7.03083333 293.501,6.9225 C293.163,6.81416667 292.874833,6.63 292.6365,6.37 C292.398167,6.11 292.279,5.75033333 292.279,5.291 C292.279,4.719 292.517333,4.251 292.994,3.887 C293.470667,3.523 294.133667,3.341 294.983,3.341 C295.425,3.341 295.867,3.3995 296.309,3.5165 C296.751,3.6335 297.115,3.78733333 297.401,3.978 L296.998,4.719 C296.434667,4.329 295.763,4.134 294.983,4.134 C294.393667,4.134 293.9495,4.238 293.6505,4.446 C293.3515,4.654 293.202,4.927 293.202,5.265 C293.202,5.525 293.2865,5.733 293.4555,5.889 C293.6245,6.045 293.834667,6.15983333 294.086,6.2335 C294.337333,6.30716667 294.684,6.383 295.126,6.461 C295.672,6.565 296.109667,6.669 296.439,6.773 C296.768333,6.877 297.05,7.05466667 297.284,7.306 C297.518,7.55733333 297.635,7.904 297.635,8.346 C297.635,8.944 297.385833,9.4185 296.8875,9.7695 C296.389167,10.1205 295.698,10.296 294.814,10.296 Z" id="Path"></path>
            <path d="M305.5,3.393 L305.5,10.231 L304.616,10.231 L304.616,8.983 C304.373333,9.399 304.039667,9.72183333 303.615,9.9515 C303.190333,10.1811667 302.705,10.296 302.159,10.296 C301.266333,10.296 300.562167,10.0468333 300.0465,9.5485 C299.530833,9.05016667 299.273,8.32 299.273,7.358 L299.273,3.393 L300.196,3.393 L300.196,7.267 C300.196,7.98633333 300.373667,8.53233333 300.729,8.905 C301.084333,9.27766667 301.591333,9.464 302.25,9.464 C302.969333,9.464 303.537,9.24516667 303.953,8.8075 C304.369,8.36983333 304.577,7.761 304.577,6.981 L304.577,3.393 L305.5,3.393 Z" id="Path"></path>
            <polygon id="Path" points="308.087 0.585 309.01 0.585 309.01 10.231 308.087 10.231"></polygon>
            <path d="M315.211,9.815 C315.037667,9.971 314.823167,10.0901667 314.5675,10.1725 C314.311833,10.2548333 314.045333,10.296 313.768,10.296 C313.126667,10.296 312.632667,10.1226667 312.286,9.776 C311.939333,9.42933333 311.766,8.93966667 311.766,8.307 L311.766,4.173 L310.544,4.173 L310.544,3.393 L311.766,3.393 L311.766,1.898 L312.689,1.898 L312.689,3.393 L314.769,3.393 L314.769,4.173 L312.689,4.173 L312.689,8.255 C312.689,8.66233333 312.790833,8.97216667 312.9945,9.1845 C313.198167,9.39683333 313.490667,9.503 313.872,9.503 C314.062667,9.503 314.246833,9.47266667 314.4245,9.412 C314.602167,9.35133333 314.756,9.26466667 314.886,9.152 L315.211,9.815 Z" id="Path"></path>
            <path d="M318.721,10.296 C318.166333,10.296 317.6355,10.2158333 317.1285,10.0555 C316.6215,9.89516667 316.225,9.69366667 315.939,9.451 L316.355,8.723 C316.641,8.94833333 317.000667,9.1325 317.434,9.2755 C317.867333,9.4185 318.318,9.49 318.786,9.49 C319.41,9.49 319.8715,9.3925 320.1705,9.1975 C320.4695,9.0025 320.619,8.72733333 320.619,8.372 C320.619,8.12066667 320.536667,7.9235 320.372,7.7805 C320.207333,7.6375 319.999333,7.52916667 319.748,7.4555 C319.496667,7.38183333 319.163,7.31033333 318.747,7.241 C318.192333,7.137 317.746,7.03083333 317.408,6.9225 C317.07,6.81416667 316.781833,6.63 316.5435,6.37 C316.305167,6.11 316.186,5.75033333 316.186,5.291 C316.186,4.719 316.424333,4.251 316.901,3.887 C317.377667,3.523 318.040667,3.341 318.89,3.341 C319.332,3.341 319.774,3.3995 320.216,3.5165 C320.658,3.6335 321.022,3.78733333 321.308,3.978 L320.905,4.719 C320.341667,4.329 319.67,4.134 318.89,4.134 C318.300667,4.134 317.8565,4.238 317.5575,4.446 C317.2585,4.654 317.109,4.927 317.109,5.265 C317.109,5.525 317.1935,5.733 317.3625,5.889 C317.5315,6.045 317.741667,6.15983333 317.993,6.2335 C318.244333,6.30716667 318.591,6.383 319.033,6.461 C319.579,6.565 320.016667,6.669 320.346,6.773 C320.675333,6.877 320.957,7.05466667 321.191,7.306 C321.425,7.55733333 321.542,7.904 321.542,8.346 C321.542,8.944 321.292833,9.4185 320.7945,9.7695 C320.296167,10.1205 319.605,10.296 318.721,10.296 Z" id="Path"></path>
            <path d="M328.913,1.3 C328.514333,1.3 328.213167,1.40833333 328.0095,1.625 C327.805833,1.84166667 327.704,2.16233333 327.704,2.587 L327.704,3.393 L329.81,3.393 L329.81,4.173 L327.73,4.173 L327.73,10.231 L326.807,10.231 L326.807,4.173 L325.585,4.173 L325.585,3.393 L326.807,3.393 L326.807,2.548 C326.807,1.924 326.986833,1.43 327.3465,1.066 C327.706167,0.702 328.215333,0.52 328.874,0.52 C329.134,0.52 329.385333,0.556833333 329.628,0.6305 C329.870667,0.704166667 330.074333,0.810333333 330.239,0.949 L329.927,1.638 C329.658333,1.41266667 329.320333,1.3 328.913,1.3 Z" id="Path"></path>
            <path d="M333.736,10.296 C333.077333,10.296 332.483667,10.1465 331.955,9.8475 C331.426333,9.5485 331.010333,9.13466667 330.707,8.606 C330.403667,8.07733333 330.252,7.47933333 330.252,6.812 C330.252,6.14466667 330.403667,5.54666667 330.707,5.018 C331.010333,4.48933333 331.426333,4.07766667 331.955,3.783 C332.483667,3.48833333 333.077333,3.341 333.736,3.341 C334.394667,3.341 334.988333,3.48833333 335.517,3.783 C336.045667,4.07766667 336.4595,4.48933333 336.7585,5.018 C337.0575,5.54666667 337.207,6.14466667 337.207,6.812 C337.207,7.47933333 337.0575,8.07733333 336.7585,8.606 C336.4595,9.13466667 336.045667,9.5485 335.517,9.8475 C334.988333,10.1465 334.394667,10.296 333.736,10.296 Z M333.736,9.477 C334.221333,9.477 334.656833,9.3665 335.0425,9.1455 C335.428167,8.9245 335.729333,8.61033333 335.946,8.203 C336.162667,7.79566667 336.271,7.332 336.271,6.812 C336.271,6.292 336.162667,5.82833333 335.946,5.421 C335.729333,5.01366667 335.428167,4.6995 335.0425,4.4785 C334.656833,4.2575 334.221333,4.147 333.736,4.147 C333.250667,4.147 332.815167,4.2575 332.4295,4.4785 C332.043833,4.6995 331.7405,5.01366667 331.5195,5.421 C331.2985,5.82833333 331.188,6.292 331.188,6.812 C331.188,7.332 331.2985,7.79566667 331.5195,8.203 C331.7405,8.61033333 332.043833,8.9245 332.4295,9.1455 C332.815167,9.3665 333.250667,9.477 333.736,9.477 Z" id="Shape"></path>
            <path d="M339.976,4.732 C340.192667,4.27266667 340.5155,3.926 340.9445,3.692 C341.3735,3.458 341.904333,3.341 342.537,3.341 L342.537,4.238 L342.316,4.225 C341.596667,4.225 341.033333,4.446 340.626,4.888 C340.218667,5.33 340.015,5.94966667 340.015,6.747 L340.015,10.231 L339.092,10.231 L339.092,3.393 L339.976,3.393 L339.976,4.732 Z" id="Path"></path>
            <path d="M347.321,1.131 L348.14,1.131 L348.075,4.563 L347.386,4.563 L347.321,1.131 Z M349.544,1.131 L350.363,1.131 L350.298,4.563 L349.609,4.563 L349.544,1.131 Z" id="Shape"></path>
            <path d="M356.343,3.133 C356.993,3.133 357.5845,3.2825 358.1175,3.5815 C358.6505,3.8805 359.068667,4.30083333 359.372,4.8425 C359.675333,5.38416667 359.827,6.01466667 359.827,6.734 C359.827,7.45333333 359.675333,8.08383333 359.372,8.6255 C359.068667,9.16716667 358.6505,9.5875 358.1175,9.8865 C357.5845,10.1855 356.993,10.335 356.343,10.335 C355.381,10.335 354.648667,10.0316667 354.146,9.425 L354.146,10.231 L352.209,10.231 L352.209,0.585 L354.237,0.585 L354.237,3.978 C354.748333,3.41466667 355.450333,3.133 356.343,3.133 Z M355.992,8.671 C356.512,8.671 356.938833,8.4955 357.2725,8.1445 C357.606167,7.7935 357.773,7.32333333 357.773,6.734 C357.773,6.14466667 357.606167,5.6745 357.2725,5.3235 C356.938833,4.9725 356.512,4.797 355.992,4.797 C355.472,4.797 355.045167,4.9725 354.7115,5.3235 C354.377833,5.6745 354.211,6.14466667 354.211,6.734 C354.211,7.32333333 354.377833,7.7935 354.7115,8.1445 C355.045167,8.4955 355.472,8.671 355.992,8.671 Z" id="Shape"></path>
            <path d="M361.179,3.237 L363.207,3.237 L363.207,10.231 L361.179,10.231 L361.179,3.237 Z M362.193,2.262 C361.820333,2.262 361.517,2.15366667 361.283,1.937 C361.049,1.72033333 360.932,1.45166667 360.932,1.131 C360.932,0.810333333 361.049,0.541666667 361.283,0.325 C361.517,0.108333333 361.820333,0 362.193,0 C362.565667,0 362.869,0.104 363.103,0.312 C363.337,0.52 363.454,0.78 363.454,1.092 C363.454,1.43 363.337,1.7095 363.103,1.9305 C362.869,2.1515 362.565667,2.262 362.193,2.262 Z" id="Shape"></path>
            <path d="M367.445,10.335 C366.864333,10.335 366.296667,10.2635 365.742,10.1205 C365.187333,9.9775 364.745333,9.79766667 364.416,9.581 L365.092,8.125 C365.404,8.32433333 365.781,8.48683333 366.223,8.6125 C366.665,8.73816667 367.098333,8.801 367.523,8.801 C368.381,8.801 368.81,8.58866667 368.81,8.164 C368.81,7.96466667 368.693,7.82166667 368.459,7.735 C368.225,7.64833333 367.865333,7.57466667 367.38,7.514 C366.808,7.42733333 366.335667,7.32766667 365.963,7.215 C365.590333,7.10233333 365.2675,6.903 364.9945,6.617 C364.7215,6.331 364.585,5.92366667 364.585,5.395 C364.585,4.953 364.712833,4.56083333 364.9685,4.2185 C365.224167,3.87616667 365.596833,3.60966667 366.0865,3.419 C366.576167,3.22833333 367.154667,3.133 367.822,3.133 C368.316,3.133 368.807833,3.18716667 369.2975,3.2955 C369.787167,3.40383333 370.192333,3.55333333 370.513,3.744 L369.837,5.187 C369.221667,4.84033333 368.55,4.667 367.822,4.667 C367.388667,4.667 367.063667,4.72766667 366.847,4.849 C366.630333,4.97033333 366.522,5.12633333 366.522,5.317 C366.522,5.53366667 366.639,5.68533333 366.873,5.772 C367.107,5.85866667 367.479667,5.941 367.991,6.019 C368.563,6.11433333 369.031,6.21616667 369.395,6.3245 C369.759,6.43283333 370.075333,6.63 370.344,6.916 C370.612667,7.202 370.747,7.60066667 370.747,8.112 C370.747,8.54533333 370.617,8.931 370.357,9.269 C370.097,9.607 369.717833,9.86916667 369.2195,10.0555 C368.721167,10.2418333 368.129667,10.335 367.445,10.335 Z" id="Path"></path>
            <path d="M375.375,10.335 C374.629667,10.335 373.960167,10.1811667 373.3665,9.8735 C372.772833,9.56583333 372.309167,9.139 371.9755,8.593 C371.641833,8.047 371.475,7.42733333 371.475,6.734 C371.475,6.04066667 371.641833,5.421 371.9755,4.875 C372.309167,4.329 372.772833,3.90216667 373.3665,3.5945 C373.960167,3.28683333 374.629667,3.133 375.375,3.133 C376.111667,3.133 376.755167,3.28683333 377.3055,3.5945 C377.855833,3.90216667 378.256667,4.342 378.508,4.914 L376.935,5.759 C376.571,5.11766667 376.046667,4.797 375.362,4.797 C374.833333,4.797 374.395667,4.97033333 374.049,5.317 C373.702333,5.66366667 373.529,6.136 373.529,6.734 C373.529,7.332 373.702333,7.80433333 374.049,8.151 C374.395667,8.49766667 374.833333,8.671 375.362,8.671 C376.055333,8.671 376.579667,8.35033333 376.935,7.709 L378.508,8.567 C378.256667,9.12166667 377.855833,9.555 377.3055,9.867 C376.755167,10.179 376.111667,10.335 375.375,10.335 Z" id="Path"></path>
            <path d="M386.724,3.237 L386.724,10.231 L384.8,10.231 L384.8,9.399 C384.531333,9.70233333 384.210667,9.93416667 383.838,10.0945 C383.465333,10.2548333 383.062333,10.335 382.629,10.335 C381.710333,10.335 380.982333,10.0706667 380.445,9.542 C379.907667,9.01333333 379.639,8.229 379.639,7.189 L379.639,3.237 L381.667,3.237 L381.667,6.89 C381.667,8.01666667 382.139333,8.58 383.084,8.58 C383.569333,8.58 383.959333,8.42183333 384.254,8.1055 C384.548667,7.78916667 384.696,7.319 384.696,6.695 L384.696,3.237 L386.724,3.237 Z" id="Path"></path>
            <path d="M388.609,3.237 L390.637,3.237 L390.637,10.231 L388.609,10.231 L388.609,3.237 Z M389.623,2.262 C389.250333,2.262 388.947,2.15366667 388.713,1.937 C388.479,1.72033333 388.362,1.45166667 388.362,1.131 C388.362,0.810333333 388.479,0.541666667 388.713,0.325 C388.947,0.108333333 389.250333,0 389.623,0 C389.995667,0 390.299,0.104 390.533,0.312 C390.767,0.52 390.884,0.78 390.884,1.092 C390.884,1.43 390.767,1.7095 390.533,1.9305 C390.299,2.1515 389.995667,2.262 389.623,2.262 Z" id="Shape"></path>
            <path d="M397.033,9.893 C396.833667,10.0403333 396.588833,10.1508333 396.2985,10.2245 C396.008167,10.2981667 395.702667,10.335 395.382,10.335 C394.55,10.335 393.9065,10.1226667 393.4515,9.698 C392.9965,9.27333333 392.769,8.64933333 392.769,7.826 L392.769,4.953 L391.69,4.953 L391.69,3.393 L392.769,3.393 L392.769,1.69 L394.797,1.69 L394.797,3.393 L396.539,3.393 L396.539,4.953 L394.797,4.953 L394.797,7.8 C394.797,8.09466667 394.872833,8.32216667 395.0245,8.4825 C395.176167,8.64283333 395.390667,8.723 395.668,8.723 C395.988667,8.723 396.261667,8.63633333 396.487,8.463 L397.033,9.893 Z" id="Path"></path>
            <path d="M400.53,10.335 C399.949333,10.335 399.381667,10.2635 398.827,10.1205 C398.272333,9.9775 397.830333,9.79766667 397.501,9.581 L398.177,8.125 C398.489,8.32433333 398.866,8.48683333 399.308,8.6125 C399.75,8.73816667 400.183333,8.801 400.608,8.801 C401.466,8.801 401.895,8.58866667 401.895,8.164 C401.895,7.96466667 401.778,7.82166667 401.544,7.735 C401.31,7.64833333 400.950333,7.57466667 400.465,7.514 C399.893,7.42733333 399.420667,7.32766667 399.048,7.215 C398.675333,7.10233333 398.3525,6.903 398.0795,6.617 C397.8065,6.331 397.67,5.92366667 397.67,5.395 C397.67,4.953 397.797833,4.56083333 398.0535,4.2185 C398.309167,3.87616667 398.681833,3.60966667 399.1715,3.419 C399.661167,3.22833333 400.239667,3.133 400.907,3.133 C401.401,3.133 401.892833,3.18716667 402.3825,3.2955 C402.872167,3.40383333 403.277333,3.55333333 403.598,3.744 L402.922,5.187 C402.306667,4.84033333 401.635,4.667 400.907,4.667 C400.473667,4.667 400.148667,4.72766667 399.932,4.849 C399.715333,4.97033333 399.607,5.12633333 399.607,5.317 C399.607,5.53366667 399.724,5.68533333 399.958,5.772 C400.192,5.85866667 400.564667,5.941 401.076,6.019 C401.648,6.11433333 402.116,6.21616667 402.48,6.3245 C402.844,6.43283333 403.160333,6.63 403.429,6.916 C403.697667,7.202 403.832,7.60066667 403.832,8.112 C403.832,8.54533333 403.702,8.931 403.442,9.269 C403.182,9.607 402.802833,9.86916667 402.3045,10.0555 C401.806167,10.2418333 401.214667,10.335 400.53,10.335 Z" id="Path"></path>
            <path d="M405.041,1.131 L405.86,1.131 L405.795,4.563 L405.106,4.563 L405.041,1.131 Z M407.264,1.131 L408.083,1.131 L408.018,4.563 L407.329,4.563 L407.264,1.131 Z" id="Shape"></path>
        </g>
        <g id="bisiut" transform="translate(215.239310, 50.506037)" fill="#1E3D49" fill-rule="nonzero">
            <path d="M2.981,2.332 C3.52366667,2.332 4.015,2.45483333 4.455,2.7005 C4.895,2.94616667 5.23966667,3.29266667 5.489,3.74 C5.73833333,4.18733333 5.863,4.697 5.863,5.269 C5.863,5.841 5.73833333,6.35066667 5.489,6.798 C5.23966667,7.24533333 4.895,7.59366667 4.455,7.843 C4.015,8.09233333 3.52366667,8.217 2.981,8.217 C2.497,8.217 2.0625,8.11433333 1.6775,7.909 C1.2925,7.70366667 0.982666667,7.40666667 0.748,7.018 L0.748,8.162 L0,8.162 L0,0 L0.781,0 L0.781,3.476 C1.023,3.102 1.33283333,2.81783333 1.7105,2.6235 C2.08816667,2.42916667 2.51166667,2.332 2.981,2.332 Z M2.926,7.524 C3.32933333,7.524 3.696,7.4305 4.026,7.2435 C4.356,7.0565 4.6145,6.79066667 4.8015,6.446 C4.9885,6.10133333 5.082,5.709 5.082,5.269 C5.082,4.829 4.9885,4.43666667 4.8015,4.092 C4.6145,3.74733333 4.356,3.4815 4.026,3.2945 C3.696,3.1075 3.32933333,3.014 2.926,3.014 C2.51533333,3.014 2.14683333,3.1075 1.8205,3.2945 C1.49416667,3.4815 1.2375,3.74733333 1.0505,4.092 C0.8635,4.43666667 0.77,4.829 0.77,5.269 C0.77,5.709 0.8635,6.10133333 1.0505,6.446 C1.2375,6.79066667 1.49416667,7.0565 1.8205,7.2435 C2.14683333,7.4305 2.51533333,7.524 2.926,7.524 Z" id="Shape"></path>
            <path d="M7.458,2.376 L8.239,2.376 L8.239,8.162 L7.458,8.162 L7.458,2.376 Z M7.854,1.111 C7.69266667,1.111 7.557,1.056 7.447,0.946 C7.337,0.836 7.282,0.704 7.282,0.55 C7.282,0.403333333 7.337,0.275 7.447,0.165 C7.557,0.055 7.69266667,0 7.854,0 C8.01533333,0 8.151,0.0531666667 8.261,0.1595 C8.371,0.265833333 8.426,0.392333333 8.426,0.539 C8.426,0.700333333 8.371,0.836 8.261,0.946 C8.151,1.056 8.01533333,1.111 7.854,1.111 Z" id="Shape"></path>
            <path d="M11.968,8.217 C11.4986667,8.217 11.0495,8.14916667 10.6205,8.0135 C10.1915,7.87783333 9.856,7.70733333 9.614,7.502 L9.966,6.886 C10.208,7.07666667 10.5123333,7.2325 10.879,7.3535 C11.2456667,7.4745 11.627,7.535 12.023,7.535 C12.551,7.535 12.9415,7.4525 13.1945,7.2875 C13.4475,7.1225 13.574,6.88966667 13.574,6.589 C13.574,6.37633333 13.5043333,6.2095 13.365,6.0885 C13.2256667,5.9675 13.0496667,5.87583333 12.837,5.8135 C12.6243333,5.75116667 12.342,5.69066667 11.99,5.632 C11.5206667,5.544 11.143,5.45416667 10.857,5.3625 C10.571,5.27083333 10.3271667,5.115 10.1255,4.895 C9.92383333,4.675 9.823,4.37066667 9.823,3.982 C9.823,3.498 10.0246667,3.102 10.428,2.794 C10.8313333,2.486 11.3923333,2.332 12.111,2.332 C12.485,2.332 12.859,2.3815 13.233,2.4805 C13.607,2.5795 13.915,2.70966667 14.157,2.871 L13.816,3.498 C13.3393333,3.168 12.771,3.003 12.111,3.003 C11.6123333,3.003 11.2365,3.091 10.9835,3.267 C10.7305,3.443 10.604,3.674 10.604,3.96 C10.604,4.18 10.6755,4.356 10.8185,4.488 C10.9615,4.62 11.1393333,4.71716667 11.352,4.7795 C11.5646667,4.84183333 11.858,4.906 12.232,4.972 C12.694,5.06 13.0643333,5.148 13.343,5.236 C13.6216667,5.324 13.86,5.47433333 14.058,5.687 C14.256,5.89966667 14.355,6.193 14.355,6.567 C14.355,7.073 14.1441667,7.4745 13.7225,7.7715 C13.3008333,8.0685 12.716,8.217 11.968,8.217 Z" id="Path"></path>
            <path d="M15.796,2.376 L16.577,2.376 L16.577,8.162 L15.796,8.162 L15.796,2.376 Z M16.192,1.111 C16.0306667,1.111 15.895,1.056 15.785,0.946 C15.675,0.836 15.62,0.704 15.62,0.55 C15.62,0.403333333 15.675,0.275 15.785,0.165 C15.895,0.055 16.0306667,0 16.192,0 C16.3533333,0 16.489,0.0531666667 16.599,0.1595 C16.709,0.265833333 16.764,0.392333333 16.764,0.539 C16.764,0.700333333 16.709,0.836 16.599,0.946 C16.489,1.056 16.3533333,1.111 16.192,1.111 Z" id="Shape"></path>
            <path d="M23.969,2.376 L23.969,8.162 L23.221,8.162 L23.221,7.106 C23.0156667,7.458 22.7333333,7.73116667 22.374,7.9255 C22.0146667,8.11983333 21.604,8.217 21.142,8.217 C20.3866667,8.217 19.7908333,8.00616667 19.3545,7.5845 C18.9181667,7.16283333 18.7,6.545 18.7,5.731 L18.7,2.376 L19.481,2.376 L19.481,5.654 C19.481,6.26266667 19.6313333,6.72466667 19.932,7.04 C20.2326667,7.35533333 20.6616667,7.513 21.219,7.513 C21.8276667,7.513 22.308,7.32783333 22.66,6.9575 C23.012,6.58716667 23.188,6.072 23.188,5.412 L23.188,2.376 L23.969,2.376 Z" id="Path"></path>
            <path d="M29.205,7.81 C29.0583333,7.942 28.8768333,8.04283333 28.6605,8.1125 C28.4441667,8.18216667 28.2186667,8.217 27.984,8.217 C27.4413333,8.217 27.0233333,8.07033333 26.73,7.777 C26.4366667,7.48366667 26.29,7.06933333 26.29,6.534 L26.29,3.036 L25.256,3.036 L25.256,2.376 L26.29,2.376 L26.29,1.111 L27.071,1.111 L27.071,2.376 L28.831,2.376 L28.831,3.036 L27.071,3.036 L27.071,6.49 C27.071,6.83466667 27.1571667,7.09683333 27.3295,7.2765 C27.5018333,7.45616667 27.7493333,7.546 28.072,7.546 C28.2333333,7.546 28.3891667,7.52033333 28.5395,7.469 C28.6898333,7.41766667 28.82,7.34433333 28.93,7.249 L29.205,7.81 Z" id="Path"></path>
        </g>
        <path d="M737.3158,-0.442545 L27.7412515,-0.442545 C11.9153824,-0.442545 -0.914019474,12.3868568 -0.914019474,28.212726 L-0.914019474,437.787274 C-0.914019474,453.613143 11.9153824,466.442545 27.7412515,466.442545 L737.3158,466.442545 C753.141669,466.442545 765.971071,453.613143 765.971071,437.787274 L765.971071,28.212726 C765.971071,12.3868568 753.141669,-0.442545 737.3158,-0.442545 Z M737.3158,21 C741.299278,21 744.528526,24.2292474 744.528526,28.212726 L744.528526,437.787274 C744.528526,441.770753 741.299278,445 737.3158,445 L27.7412515,445 C23.757773,445 20.5285255,441.770753 20.5285255,437.787274 L20.5285255,28.212726 C20.5285255,24.2292474 23.757773,21 27.7412515,21 L737.3158,21 Z" id="Rectangle" fill="#202020" fill-rule="nonzero"></path>
    </g>
</svg>