<svg width="24" height="24" viewBox="0 0 24 24" fill="none" xmlns="http://www.w3.org/2000/svg">
<g clip-path="url(#clip0_538_3256)">
<path d="M12.5625 8.60421C12.5625 8.886 12.4506 9.15625 12.2513 9.35551C12.0521 9.55477 11.7818 9.66671 11.5 9.66671C11.2182 9.66671 10.948 9.55477 10.7487 9.35551C10.5494 9.15625 10.4375 8.886 10.4375 8.60421C10.4375 8.32241 10.5494 8.05216 10.7487 7.85291C10.948 7.65365 11.2182 7.54171 11.5 7.54171C11.7818 7.54171 12.0521 7.65365 12.2513 7.85291C12.4506 8.05216 12.5625 8.32241 12.5625 8.60421V8.60421ZM20 17.4584V12.7409C20.0264 10.5574 19.2259 8.44476 17.7591 6.82712C16.2923 5.20948 14.2678 4.20662 12.0922 4.01987C10.8778 3.93491 9.65943 4.11177 8.51937 4.53848C7.3793 4.96519 6.3442 5.6318 5.48407 6.4932C4.62395 7.3546 3.95888 8.39069 3.53386 9.53138C3.10884 10.6721 2.93379 11.8908 3.02055 13.105C3.33363 17.6057 7.30809 21 12.2671 21H16.4583C17.3973 20.9989 18.2975 20.6254 18.9614 19.9615C19.6254 19.2975 19.9989 18.3973 20 17.4584V17.4584ZM11.9958 5.43371C13.8137 5.59452 15.5034 6.43735 16.7254 7.79285C17.9474 9.14835 18.6112 10.9161 18.5833 12.7409V17.4584C18.5833 18.022 18.3595 18.5625 17.9609 18.961C17.5624 19.3595 17.0219 19.5834 16.4583 19.5834H12.2671C7.99305 19.5834 4.70001 16.8209 4.43438 13.0072C4.36465 12.0358 4.49599 11.0604 4.8202 10.142C5.14441 9.22367 5.65452 8.38202 6.31867 7.66968C6.98282 6.95734 7.78673 6.38961 8.68018 6.00197C9.57363 5.61432 10.5374 5.41508 11.5113 5.41671C11.6721 5.41671 11.8343 5.42308 11.9958 5.43371ZM12.9167 16.75V12.5C12.9167 12.1243 12.7674 11.764 12.5017 11.4983C12.2361 11.2326 11.8757 11.0834 11.5 11.0834H10.7917C10.6038 11.0834 10.4236 11.158 10.2908 11.2908C10.158 11.4237 10.0833 11.6038 10.0833 11.7917C10.0833 11.9796 10.158 12.1597 10.2908 12.2926C10.4236 12.4254 10.6038 12.5 10.7917 12.5H11.5V16.75C11.5 16.9379 11.5746 17.1181 11.7075 17.2509C11.8403 17.3837 12.0205 17.4584 12.2083 17.4584C12.3962 17.4584 12.5764 17.3837 12.7092 17.2509C12.842 17.1181 12.9167 16.9379 12.9167 16.75Z" fill="#0086b2"/>
</g>
<defs>
<clipPath id="clip0_538_3256">
<rect width="17" height="17" fill="white" transform="translate(3 4)"/>
</clipPath>
</defs>
</svg>
