<svg width="430" height="131" viewBox="0 0 430 131" fill="none" xmlns="http://www.w3.org/2000/svg">
<g clip-path="url(#clip0_58_12609)">
<g opacity="0.46">
<circle cx="187.214" cy="29.7349" r="27.7349" fill="url(#paint0_linear_58_12609)"/>
<circle cx="219.87" cy="37.3396" r="20.1301" fill="url(#paint1_linear_58_12609)"/>
<circle cx="157.243" cy="43.6023" r="22.8142" fill="url(#paint2_linear_58_12609)"/>
</g>
<path d="M359.801 38.4482C390.566 38.7062 393.68 1.84023 430.214 4.09979L430.214 88H413.351L220.714 85.7476C228.95 83.6932 231.467 79.3129 236.738 76.1751C271.99 57.5932 268.145 37.322 298.269 30.565C328.394 23.8079 332.989 38.2234 359.801 38.4482Z" fill="#F8D7D0"/>
<path d="M359.801 38.4482C390.566 38.7062 393.68 1.84023 430.214 4.09979L430.214 88H413.351L220.714 85.7476C228.95 83.6932 231.467 79.3129 236.738 76.1751C271.99 57.5932 268.145 37.322 298.269 30.565C328.394 23.8079 332.989 38.2234 359.801 38.4482Z" fill="url(#paint3_radial_58_12609)"/>
<path d="M169.714 35C124.714 47 112.214 4 80.2143 20C21.2146 49.4998 -16.9307 60.8779 61.2143 83.7971L138.214 91.2971L305.714 95.7971C298.214 93.9637 365.014 94.0971 360.214 91.2971C354.214 87.7971 268.214 81.4574 248.714 71.5C217.818 55.7232 216.714 20 169.714 35Z" fill="#F8D7D0"/>
<path d="M169.714 35C124.714 47 112.214 4 80.2143 20C21.2146 49.4998 -16.9307 60.8779 61.2143 83.7971L138.214 91.2971L305.714 95.7971C298.214 93.9637 365.014 94.0971 360.214 91.2971C354.214 87.7971 268.214 81.4574 248.714 71.5C217.818 55.7232 216.714 20 169.714 35Z" fill="url(#paint4_linear_58_12609)"/>
<path d="M169.714 35C124.714 47 112.214 4 80.2143 20C21.2146 49.4998 -16.9307 60.8779 61.2143 83.7971L138.214 91.2971L305.714 95.7971C298.214 93.9637 365.014 94.0971 360.214 91.2971C354.214 87.7971 268.214 81.4574 248.714 71.5C217.818 55.7232 216.714 20 169.714 35Z" fill="url(#paint5_linear_58_12609)"/>
<g opacity="0.42">
<path d="M414.792 61.5833C405.518 61.5833 398 54.0654 398 44.7917C398 35.5179 405.518 28 414.792 28C436.448 28 436.448 61.5833 414.792 61.5833Z" fill="url(#paint6_linear_58_12609)"/>
<circle cx="399" cy="55" r="11" fill="url(#paint7_linear_58_12609)"/>
</g>
<path fill-rule="evenodd" clip-rule="evenodd" d="M-5.31375e-05 53.6576C87.9908 50.8145 134.786 92.7656 250.276 92.7656C365.767 92.7656 430.214 38.5 430.214 38.5L429.714 131C429.714 131 23.2648 131 0.355574 131C-0.642465 108.846 0.47164 74.1239 -5.31375e-05 53.6576Z" fill="#F8D7D0"/>
<path fill-rule="evenodd" clip-rule="evenodd" d="M-5.31375e-05 53.6576C87.9908 50.8145 134.786 92.7656 250.276 92.7656C365.767 92.7656 430.214 38.5 430.214 38.5L429.714 131C429.714 131 23.2648 131 0.355574 131C-0.642465 108.846 0.47164 74.1239 -5.31375e-05 53.6576Z" fill="url(#paint8_radial_58_12609)"/>
<path fill-rule="evenodd" clip-rule="evenodd" d="M-5.31375e-05 53.6576C87.9908 50.8145 134.786 92.7656 250.276 92.7656C365.767 92.7656 430.214 38.5 430.214 38.5L429.714 131C429.714 131 23.2648 131 0.355574 131C-0.642465 108.846 0.47164 74.1239 -5.31375e-05 53.6576Z" fill="url(#paint9_radial_58_12609)"/>
<ellipse opacity="0.54" cx="381.716" cy="90.2139" rx="1.5" ry="1" transform="rotate(-12.687 381.716 90.2139)" fill="#C7A08A"/>
<ellipse opacity="0.54" cx="395.69" cy="83.9928" rx="1.5" ry="1" transform="rotate(-12.687 395.69 83.9928)" fill="#C7A08A"/>
<ellipse opacity="0.54" cx="389.52" cy="88.4569" rx="1.5" ry="1" transform="rotate(-12.687 389.52 88.4569)" fill="#C7A08A"/>
<ellipse opacity="0.54" cx="392.324" cy="82.7005" rx="1.5" ry="1" transform="rotate(-12.687 392.324 82.7005)" fill="#C7A08A"/>
<ellipse opacity="0.54" cx="378.35" cy="88.9216" rx="1.5" ry="1" transform="rotate(-12.687 378.35 88.9216)" fill="#C7A08A"/>
<ellipse opacity="0.54" cx="407.642" cy="91.5524" rx="1.5" ry="1" transform="rotate(167.313 407.642 91.5524)" fill="#C7A08A"/>
<ellipse opacity="0.54" cx="400.349" cy="81.9191" rx="1.5" ry="1" transform="rotate(-12.687 400.349 81.9191)" fill="#C7A08A"/>
<ellipse opacity="0.54" cx="416.3" cy="84.4782" rx="1.5" ry="1" transform="rotate(-12.687 416.3 84.4782)" fill="#C7A08A"/>
<ellipse opacity="0.54" cx="416.642" cy="90.5513" rx="1.5" ry="1" transform="rotate(-12.687 416.642 90.5513)" fill="#C7A08A"/>
<ellipse opacity="0.54" cx="392.861" cy="80.5297" rx="1.5" ry="1" transform="rotate(167.313 392.861 80.5297)" fill="#C7A08A"/>
<ellipse opacity="0.54" cx="399.618" cy="92.3338" rx="1.5" ry="1" transform="rotate(167.313 399.618 92.3338)" fill="#C7A08A"/>
<ellipse opacity="0.54" cx="390.057" cy="86.2861" rx="1.5" ry="1" transform="rotate(167.313 390.057 86.2861)" fill="#C7A08A"/>
<ellipse opacity="0.54" cx="382.397" cy="72.305" rx="1.5" ry="1" transform="rotate(-12.687 382.397 72.305)" fill="#AF866E"/>
<ellipse opacity="0.54" cx="407.106" cy="93.7232" rx="1.5" ry="1" transform="rotate(-12.6869 407.106 93.7232)" fill="#C7A08A"/>
<ellipse opacity="0.54" cx="385.397" cy="92.305" rx="1.5" ry="1" transform="rotate(-12.687 385.397 92.305)" fill="#AF866E"/>
<ellipse opacity="0.54" cx="386.397" cy="79.305" rx="1.5" ry="1" transform="rotate(167.313 386.397 79.305)" fill="#AF866E"/>
<ellipse opacity="0.54" cx="368.397" cy="91.305" rx="1.5" ry="1" transform="rotate(-12.687 368.397 91.305)" fill="#AF866E"/>
<ellipse opacity="0.54" cx="405.397" cy="78.305" rx="1.5" ry="1" transform="rotate(-12.687 405.397 78.305)" fill="#C7B98A"/>
<ellipse opacity="0.54" cx="392.764" cy="84.6516" rx="1.5" ry="1" transform="rotate(-12.687 392.764 84.6516)" fill="#C7B98A"/>
<ellipse opacity="0.54" cx="381.397" cy="76.305" rx="1.5" ry="1" transform="rotate(167.313 381.397 76.305)" fill="#AF866E"/>
<ellipse opacity="0.54" cx="392.421" cy="78.5785" rx="1.5" ry="1" transform="rotate(167.313 392.421 78.5785)" fill="#C7B98A"/>
<ellipse opacity="0.54" cx="414.569" cy="85.8931" rx="1.5" ry="1" transform="rotate(-12.687 414.569 85.8931)" fill="#C7B98A"/>
<ellipse opacity="0.54" cx="378.324" cy="79.7021" rx="1.5" ry="1" transform="rotate(-12.687 378.324 79.7021)" fill="#C7B98A"/>
<ellipse opacity="0.54" cx="403.837" cy="88.3089" rx="1.5" ry="1" transform="rotate(167.313 403.837 88.3089)" fill="#C7B98A"/>
<ellipse opacity="0.54" cx="383.397" cy="82.305" rx="1.5" ry="1" transform="rotate(-12.687 383.397 82.305)" fill="#C7B98A"/>
<ellipse opacity="0.54" cx="389.959" cy="90.4081" rx="1.5" ry="1" transform="rotate(-12.687 389.959 90.4081)" fill="#C7B98A"/>
<ellipse opacity="0.54" cx="389.617" cy="84.3349" rx="1.5" ry="1" transform="rotate(167.313 389.617 84.3349)" fill="#C7B98A"/>
<ellipse opacity="0.54" cx="378.447" cy="84.7996" rx="1.5" ry="1" transform="rotate(167.313 378.447 84.7996)" fill="#C7B98A"/>
<path d="M352.714 59L352.714 78" stroke="#BB8C71" stroke-linecap="square"/>
<ellipse cx="353.365" cy="55.7209" rx="8.65116" ry="11.7209" fill="#DDB8A4"/>
<path d="M141.086 59.0698L141.086 80" stroke="#BB8C71" stroke-linecap="square"/>
<ellipse cx="141.365" cy="55.7209" rx="8.65116" ry="11.7209" fill="#C0BA80"/>
<path d="M191.389 70.8139L191.389 90" stroke="#BB8C71" stroke-linecap="square"/>
<ellipse cx="191.645" cy="67.7442" rx="7.93023" ry="10.7442" fill="#D6A886"/>
<path d="M127.714 54L127.714 79" stroke="#BB8C71" stroke-width="2" stroke-linecap="square"/>
<ellipse cx="127.714" cy="40.5" rx="13" ry="17.5" fill="#C0A380"/>
<path d="M110.714 52L110.714 77" stroke="#BB8C71" stroke-width="2" stroke-linecap="square"/>
<ellipse cx="110.714" cy="50" rx="11" ry="14" fill="#D6C599"/>
<path d="M289.464 72.7L289.464 90.525" stroke="#BB8C71" stroke-linecap="square"/>
<ellipse cx="289.723" cy="73.85" rx="8.00833" ry="10.85" fill="#C0BA80"/>
<path d="M313.714 72L313.714 97" stroke="#BB8C71" stroke-width="2" stroke-linecap="square"/>
<path d="M332.714 61L332.714 86" stroke="#BB8C71" stroke-width="2" stroke-linecap="square"/>
<ellipse cx="332.714" cy="59" rx="11" ry="14" fill="#D6C599"/>
<ellipse cx="313.714" cy="58.5" rx="13" ry="17.5" fill="#C0A380"/>
<path d="M169.714 69L169.714 94" stroke="#BB8C71" stroke-width="2" stroke-linecap="square"/>
<ellipse cx="169.714" cy="67" rx="11" ry="14" fill="#D6C599"/>
<path d="M370.714 60L370.714 85" stroke="#BB8C71" stroke-width="2" stroke-linecap="square"/>
<ellipse cx="370.714" cy="46.5" rx="13" ry="17.5" fill="#D7C084"/>
<ellipse opacity="0.54" cx="83.2143" cy="84" rx="1.5" ry="1" fill="#C7A08A"/>
<ellipse opacity="0.54" cx="58.2143" cy="70" rx="1.5" ry="1" fill="#C7A08A"/>
<ellipse opacity="0.54" cx="89.2143" cy="80" rx="1.5" ry="1" fill="#C7A08A"/>
<ellipse opacity="0.54" cx="133.214" cy="83" rx="1.5" ry="1" transform="rotate(-180 133.214 83)" fill="#C7A08A"/>
<ellipse opacity="0.54" cx="80.2143" cy="82" rx="1.5" ry="1" fill="#C7A08A"/>
<ellipse opacity="0.54" cx="85.2143" cy="75" rx="1.5" ry="1" fill="#C7A08A"/>
<ellipse opacity="0.54" cx="68.2143" cy="80" rx="1.5" ry="1" fill="#C7A08A"/>
<ellipse opacity="0.54" cx="97.2143" cy="89" rx="1.5" ry="1" transform="rotate(-180 97.2143 89)" fill="#C7A08A"/>
<ellipse opacity="0.54" cx="93.2143" cy="79" rx="1.5" ry="1" fill="#C7A08A"/>
<ellipse opacity="0.54" cx="108.214" cy="84" rx="1.5" ry="1" fill="#C7A08A"/>
<ellipse opacity="0.54" cx="106.214" cy="90" rx="1.5" ry="1" fill="#C7A08A"/>
<ellipse opacity="0.54" cx="82.2143" cy="72" rx="1.5" ry="1" transform="rotate(-180 82.2143 72)" fill="#C7A08A"/>
<ellipse opacity="0.54" cx="89.2143" cy="88" rx="1.5" ry="1" transform="rotate(-180 89.2143 88)" fill="#C7A08A"/>
<ellipse opacity="0.54" cx="61.2143" cy="65" rx="1.5" ry="1" transform="rotate(-180 61.2143 65)" fill="#C7A08A"/>
<ellipse opacity="0.54" cx="95.2143" cy="82" rx="1.5" ry="1" fill="#AF866E"/>
<ellipse opacity="0.54" cx="62.2143" cy="76" rx="1.5" ry="1" transform="rotate(-180 62.2143 76)" fill="#C7A08A"/>
<ellipse opacity="0.54" cx="96.2143" cy="91" rx="1.5" ry="1" fill="#C7A08A"/>
<ellipse opacity="0.54" cx="90.2143" cy="77" rx="1.5" ry="1" fill="#AF866E"/>
<ellipse opacity="0.54" cx="87.2143" cy="86" rx="1.5" ry="1" fill="#AF866E"/>
<ellipse opacity="0.54" cx="76.2143" cy="84" rx="1.5" ry="1" fill="#AF866E"/>
<ellipse opacity="0.54" cx="89.2143" cy="72" rx="1.5" ry="1" fill="#AF866E"/>
<ellipse opacity="0.54" cx="138.214" cy="84" rx="1.5" ry="1" transform="rotate(-180 138.214 84)" fill="#AF866E"/>
<ellipse opacity="0.54" cx="86.2143" cy="82" rx="1.5" ry="1" fill="#AF866E"/>
<ellipse opacity="0.54" cx="96.2143" cy="73" rx="1.5" ry="1" fill="#AF866E"/>
<ellipse opacity="0.54" cx="76.2143" cy="81" rx="1.5" ry="1" fill="#AF866E"/>
<ellipse opacity="0.54" cx="92.2143" cy="89" rx="1.5" ry="1" transform="rotate(-180 92.2143 89)" fill="#AF866E"/>
<ellipse opacity="0.54" cx="77.2143" cy="68" rx="1.5" ry="1" transform="rotate(-180 77.2143 68)" fill="#AF866E"/>
<ellipse opacity="0.54" cx="50.2143" cy="65" rx="1.5" ry="1" fill="#AF866E"/>
<ellipse opacity="0.54" cx="101.214" cy="78" rx="1.5" ry="1" fill="#C7B98A"/>
<ellipse opacity="0.54" cx="108.214" cy="98" rx="1.5" ry="1" transform="rotate(-180 108.214 98)" fill="#AF866E"/>
<ellipse opacity="0.54" cx="110.214" cy="80" rx="1.5" ry="1" fill="#AF866E"/>
<ellipse opacity="0.54" cx="94.2143" cy="77" rx="1.5" ry="1" fill="#C7B98A"/>
<ellipse opacity="0.54" cx="78.2143" cy="79" rx="1.5" ry="1" fill="#AF866E"/>
<ellipse opacity="0.54" cx="88.2143" cy="90" rx="1.5" ry="1" transform="rotate(-180 88.2143 90)" fill="#AF866E"/>
<ellipse opacity="0.54" cx="84.2143" cy="79" rx="1.5" ry="1" fill="#C7B98A"/>
<ellipse opacity="0.54" cx="77.2143" cy="74" rx="1.5" ry="1" transform="rotate(-180 77.2143 74)" fill="#AF866E"/>
<ellipse opacity="0.54" cx="117.214" cy="76" rx="1.5" ry="1" transform="rotate(-180 117.214 76)" fill="#AF866E"/>
<ellipse opacity="0.54" cx="84.2143" cy="69" rx="1.5" ry="1" transform="rotate(-180 84.2143 69)" fill="#C7B98A"/>
<ellipse opacity="0.54" cx="132.214" cy="89" rx="1.5" ry="1" fill="#AF866E"/>
<ellipse opacity="0.54" cx="105.214" cy="85" rx="1.5" ry="1" fill="#C7B98A"/>
<ellipse opacity="0.54" cx="99.2143" cy="81" rx="1.5" ry="1" fill="#C7B98A"/>
<ellipse opacity="0.54" cx="94.2143" cy="85" rx="1.5" ry="1" transform="rotate(-180 94.2143 85)" fill="#C7B98A"/>
<ellipse opacity="0.54" cx="108.214" cy="78" rx="1.5" ry="1" fill="#C7B98A"/>
<ellipse opacity="0.54" cx="67.2143" cy="70" rx="1.5" ry="1" fill="#C7B98A"/>
<ellipse opacity="0.54" cx="134.214" cy="80" rx="1.5" ry="1" transform="rotate(-180 134.214 80)" fill="#C7B98A"/>
<ellipse opacity="0.54" cx="80.2143" cy="87" rx="1.5" ry="1" fill="#C7B98A"/>
<ellipse opacity="0.54" cx="69.2143" cy="83" rx="1.5" ry="1" fill="#C7B98A"/>
<ellipse opacity="0.54" cx="109.214" cy="91" rx="1.5" ry="1" transform="rotate(-180 109.214 91)" fill="#C7B98A"/>
<ellipse opacity="0.54" cx="73.2143" cy="78" rx="1.5" ry="1" transform="rotate(-180 73.2143 78)" fill="#C7B98A"/>
<ellipse opacity="0.54" cx="73.2143" cy="71" rx="1.5" ry="1" transform="rotate(-180 73.2143 71)" fill="#C7B98A"/>
<ellipse opacity="0.54" cx="146.214" cy="84" rx="1.5" ry="1" fill="#C7B98A"/>
<ellipse opacity="0.54" cx="120.214" cy="96" rx="1.5" ry="1" fill="#C7A08A"/>
<ellipse opacity="0.54" cx="108.214" cy="93" rx="1.5" ry="1" fill="#C7A08A"/>
<ellipse opacity="0.54" cx="123.214" cy="89" rx="1.5" ry="1" fill="#C7A08A"/>
<ellipse opacity="0.54" cx="183.214" cy="93" rx="1.5" ry="1" transform="rotate(-180 183.214 93)" fill="#C7A08A"/>
<ellipse opacity="0.54" cx="187.214" cy="91" rx="1.5" ry="1" transform="rotate(-180 187.214 91)" fill="#C7A08A"/>
<ellipse opacity="0.54" cx="163.214" cy="94" rx="1.5" ry="1" transform="rotate(-180 163.214 94)" fill="#C7A08A"/>
<ellipse opacity="0.54" cx="159.214" cy="90" rx="1.5" ry="1" transform="rotate(-180 159.214 90)" fill="#C7A08A"/>
<ellipse opacity="0.54" cx="116.214" cy="93" rx="1.5" ry="1" fill="#C7A08A"/>
<ellipse opacity="0.54" cx="120.214" cy="87" rx="1.5" ry="1" fill="#C7A08A"/>
<ellipse opacity="0.54" cx="102.214" cy="90" rx="1.5" ry="1" fill="#C7A08A"/>
<ellipse opacity="0.54" cx="134.214" cy="96" rx="1.5" ry="1" transform="rotate(-180 134.214 96)" fill="#C7A08A"/>
<ellipse opacity="0.54" cx="128.214" cy="88" rx="1.5" ry="1" fill="#C7A08A"/>
<ellipse opacity="0.54" cx="145.214" cy="94" rx="1.5" ry="1" fill="#C7A08A"/>
<ellipse opacity="0.54" cx="142.214" cy="100" rx="1.5" ry="1" fill="#C7A08A"/>
<ellipse opacity="0.54" cx="121.214" cy="85" rx="1.5" ry="1" transform="rotate(-180 121.214 85)" fill="#C7A08A"/>
<ellipse opacity="0.54" cx="128.214" cy="99" rx="1.5" ry="1" transform="rotate(-180 128.214 99)" fill="#C7A08A"/>
<ellipse opacity="0.54" cx="118.214" cy="91" rx="1.5" ry="1" transform="rotate(-180 118.214 91)" fill="#C7A08A"/>
<ellipse opacity="0.54" cx="125.214" cy="91" rx="1.5" ry="1" fill="#AF866E"/>
<ellipse opacity="0.54" cx="106.214" cy="88" rx="1.5" ry="1" transform="rotate(-180 106.214 88)" fill="#C7A08A"/>
<ellipse opacity="0.54" cx="136.214" cy="98" rx="1.5" ry="1" fill="#C7A08A"/>
<ellipse opacity="0.54" cx="149.214" cy="89" rx="1.5" ry="1" fill="#AF866E"/>
<ellipse opacity="0.54" cx="119.214" cy="98" rx="1.5" ry="1" fill="#AF866E"/>
<ellipse opacity="0.54" cx="112.214" cy="94" rx="1.5" ry="1" fill="#AF866E"/>
<ellipse opacity="0.54" cx="127.214" cy="84" rx="1.5" ry="1" fill="#AF866E"/>
<ellipse opacity="0.54" cx="192.214" cy="93" rx="1.5" ry="1" transform="rotate(-180 192.214 93)" fill="#AF866E"/>
<ellipse opacity="0.54" cx="197.214" cy="93" rx="1.5" ry="1" transform="rotate(-180 197.214 93)" fill="#AF866E"/>
<ellipse opacity="0.54" cx="173.214" cy="94" rx="1.5" ry="1" transform="rotate(-180 173.214 94)" fill="#AF866E"/>
<ellipse opacity="0.54" cx="176.214" cy="92" rx="1.5" ry="1" transform="rotate(-180 176.214 92)" fill="#AF866E"/>
<ellipse opacity="0.54" cx="172.214" cy="97" rx="1.5" ry="1" transform="rotate(-180 172.214 97)" fill="#AF866E"/>
<ellipse opacity="0.54" cx="122.214" cy="92" rx="1.5" ry="1" fill="#AF866E"/>
<ellipse opacity="0.54" cx="129.214" cy="86" rx="1.5" ry="1" fill="#AF866E"/>
<ellipse opacity="0.54" cx="111.214" cy="89" rx="1.5" ry="1" fill="#AF866E"/>
<ellipse opacity="0.54" cx="124.214" cy="96" rx="1.5" ry="1" transform="rotate(-180 124.214 96)" fill="#AF866E"/>
<ellipse opacity="0.54" cx="117.214" cy="84" rx="1.5" ry="1" transform="rotate(-180 117.214 84)" fill="#AF866E"/>
<ellipse opacity="0.54" cx="137.214" cy="90" rx="1.5" ry="1" fill="#AF866E"/>
<ellipse opacity="0.54" cx="106.214" cy="95" rx="1.5" ry="1" fill="#AF866E"/>
<ellipse opacity="0.54" cx="137.214" cy="88" rx="1.5" ry="1" fill="#C7B98A"/>
<ellipse opacity="0.54" cx="147.214" cy="100" rx="1.5" ry="1" transform="rotate(-180 147.214 100)" fill="#AF866E"/>
<ellipse opacity="0.54" cx="146.214" cy="90" rx="1.5" ry="1" fill="#AF866E"/>
<ellipse opacity="0.54" cx="132.214" cy="86" rx="1.5" ry="1" fill="#C7B98A"/>
<ellipse opacity="0.54" cx="114.214" cy="88" rx="1.5" ry="1" fill="#AF866E"/>
<ellipse opacity="0.54" cx="124.214" cy="100" rx="1.5" ry="1" transform="rotate(-180 124.214 100)" fill="#AF866E"/>
<ellipse opacity="0.54" cx="120.214" cy="89" rx="1.5" ry="1" fill="#C7B98A"/>
<ellipse opacity="0.54" cx="113.214" cy="85" rx="1.5" ry="1" transform="rotate(-180 113.214 85)" fill="#AF866E"/>
<ellipse opacity="0.54" cx="102.214" cy="87" rx="1.5" ry="1" transform="rotate(-180 102.214 87)" fill="#AF866E"/>
<ellipse opacity="0.54" cx="121.214" cy="83" rx="1.5" ry="1" transform="rotate(-180 121.214 83)" fill="#C7B98A"/>
<ellipse opacity="0.54" cx="154.214" cy="101" rx="1.5" ry="1" fill="#AF866E"/>
<ellipse opacity="0.54" cx="141.214" cy="95" rx="1.5" ry="1" fill="#C7B98A"/>
<ellipse opacity="0.54" cx="105.214" cy="81" rx="1.5" ry="1" fill="#C7B98A"/>
<ellipse opacity="0.54" cx="130.214" cy="95" rx="1.5" ry="1" transform="rotate(-180 130.214 95)" fill="#C7B98A"/>
<ellipse opacity="0.54" cx="144.214" cy="88" rx="1.5" ry="1" fill="#C7B98A"/>
<ellipse opacity="0.54" cx="115.214" cy="90" rx="1.5" ry="1" fill="#C7B98A"/>
<ellipse opacity="0.54" cx="155.214" cy="94" rx="1.5" ry="1" transform="rotate(-180 155.214 94)" fill="#C7B98A"/>
<ellipse opacity="0.54" cx="116.214" cy="96" rx="1.5" ry="1" fill="#C7B98A"/>
<ellipse opacity="0.54" cx="105.214" cy="92" rx="1.5" ry="1" fill="#C7B98A"/>
<ellipse opacity="0.54" cx="145.214" cy="101" rx="1.5" ry="1" transform="rotate(-180 145.214 101)" fill="#C7B98A"/>
<ellipse opacity="0.54" cx="117.214" cy="88" rx="1.5" ry="1" transform="rotate(-180 117.214 88)" fill="#C7B98A"/>
<ellipse opacity="0.54" cx="109.214" cy="86" rx="1.5" ry="1" transform="rotate(-180 109.214 86)" fill="#C7B98A"/>
<ellipse opacity="0.54" cx="168.214" cy="96" rx="1.5" ry="1" fill="#C7B98A"/>
<ellipse opacity="0.54" cx="165.214" cy="91" rx="1.5" ry="1" fill="#C7B98A"/>
<ellipse opacity="0.54" cx="187.214" cy="94" rx="1.5" ry="1" fill="#C7B98A"/>
<ellipse opacity="0.54" cx="288.288" cy="106.66" rx="1.5" ry="1" transform="rotate(-12.687 288.288 106.66)" fill="#C7A08A"/>
<ellipse opacity="0.54" cx="277.117" cy="107.125" rx="1.5" ry="1" transform="rotate(-12.687 277.117 107.125)" fill="#C7A08A"/>
<ellipse opacity="0.54" cx="294.397" cy="102.305" rx="1.5" ry="1" transform="rotate(-12.687 294.397 102.305)" fill="#C7A08A"/>
<ellipse opacity="0.54" cx="320.397" cy="99.305" rx="1.5" ry="1" transform="rotate(167.313 320.397 99.305)" fill="#C7A08A"/>
<ellipse opacity="0.54" cx="284.922" cy="105.368" rx="1.5" ry="1" transform="rotate(-12.687 284.922 105.368)" fill="#C7A08A"/>
<ellipse opacity="0.54" cx="287.397" cy="97.305" rx="1.5" ry="1" transform="rotate(-12.687 287.397 97.305)" fill="#C7A08A"/>
<ellipse opacity="0.54" cx="273.751" cy="105.833" rx="1.5" ry="1" transform="rotate(-12.687 273.751 105.833)" fill="#C7A08A"/>
<ellipse opacity="0.54" cx="303.044" cy="108.464" rx="1.5" ry="1" transform="rotate(167.313 303.044 108.464)" fill="#C7A08A"/>
<ellipse opacity="0.54" cx="295.751" cy="98.8302" rx="1.5" ry="1" transform="rotate(-12.687 295.751 98.8302)" fill="#C7A08A"/>
<ellipse opacity="0.54" cx="311.702" cy="101.389" rx="1.5" ry="1" transform="rotate(-12.687 311.702 101.389)" fill="#C7A08A"/>
<ellipse opacity="0.54" cx="312.044" cy="107.463" rx="1.5" ry="1" transform="rotate(-12.687 312.044 107.463)" fill="#C7A08A"/>
<ellipse opacity="0.54" cx="289.397" cy="94.305" rx="1.5" ry="1" transform="rotate(167.313 289.397 94.305)" fill="#C7A08A"/>
<ellipse opacity="0.54" cx="296.397" cy="108.305" rx="1.5" ry="1" transform="rotate(167.313 296.397 108.305)" fill="#C7A08A"/>
<ellipse opacity="0.54" cx="275.397" cy="99.305" rx="1.5" ry="1" transform="rotate(167.313 275.397 99.305)" fill="#C7A08A"/>
<ellipse opacity="0.54" cx="299.397" cy="102.305" rx="1.5" ry="1" transform="rotate(-12.687 299.397 102.305)" fill="#AF866E"/>
<ellipse opacity="0.54" cx="274.288" cy="103.662" rx="1.5" ry="1" transform="rotate(167.313 274.288 103.662)" fill="#C7A08A"/>
<ellipse opacity="0.54" cx="302.508" cy="110.634" rx="1.5" ry="1" transform="rotate(-12.6869 302.508 110.634)" fill="#C7A08A"/>
<ellipse opacity="0.54" cx="292.397" cy="93.305" rx="1.5" ry="1" transform="rotate(-12.687 292.397 93.305)" fill="#AF866E"/>
<ellipse opacity="0.54" cx="293.397" cy="106.305" rx="1.5" ry="1" transform="rotate(-12.687 293.397 106.305)" fill="#AF866E"/>
<ellipse opacity="0.54" cx="259.397" cy="109.305" rx="1.5" ry="1" transform="rotate(-12.687 259.397 109.305)" fill="#AF866E"/>
<ellipse opacity="0.54" cx="291.397" cy="100.305" rx="1.5" ry="1" transform="rotate(-12.687 291.397 100.305)" fill="#AF866E"/>
<ellipse opacity="0.54" cx="348.397" cy="93.305" rx="1.5" ry="1" transform="rotate(167.313 348.397 93.305)" fill="#AF866E"/>
<ellipse opacity="0.54" cx="290.776" cy="104.05" rx="1.5" ry="1" transform="rotate(-12.687 290.776 104.05)" fill="#AF866E"/>
<ellipse opacity="0.54" cx="298.397" cy="92.305" rx="1.5" ry="1" transform="rotate(-12.687 298.397 92.305)" fill="#AF866E"/>
<ellipse opacity="0.54" cx="279.605" cy="104.515" rx="1.5" ry="1" transform="rotate(-12.687 279.605 104.515)" fill="#AF866E"/>
<ellipse opacity="0.54" cx="283.397" cy="112.305" rx="1.5" ry="1" transform="rotate(167.313 283.397 112.305)" fill="#AF866E"/>
<ellipse opacity="0.54" cx="283.397" cy="95.305" rx="1.5" ry="1" transform="rotate(167.313 283.397 95.305)" fill="#AF866E"/>
<ellipse opacity="0.54" cx="304.97" cy="98.8048" rx="1.5" ry="1" transform="rotate(-12.687 304.97 98.8048)" fill="#AF866E"/>
<ellipse opacity="0.54" cx="269.397" cy="106.305" rx="1.5" ry="1" transform="rotate(-12.687 269.397 106.305)" fill="#AF866E"/>
<ellipse opacity="0.54" cx="304.531" cy="96.8536" rx="1.5" ry="1" transform="rotate(-12.687 304.531 96.8536)" fill="#C7B98A"/>
<ellipse opacity="0.54" cx="316.922" cy="106.364" rx="1.5" ry="1" transform="rotate(167.313 316.922 106.364)" fill="#AF866E"/>
<ellipse opacity="0.54" cx="309.397" cy="98.305" rx="1.5" ry="1" transform="rotate(-12.687 309.397 98.305)" fill="#AF866E"/>
<ellipse opacity="0.54" cx="299.397" cy="95.305" rx="1.5" ry="1" transform="rotate(-12.687 299.397 95.305)" fill="#C7B98A"/>
<ellipse opacity="0.54" cx="258.397" cy="99.305" rx="1.5" ry="1" transform="rotate(-12.687 258.397 99.305)" fill="#AF866E"/>
<ellipse opacity="0.54" cx="294.484" cy="111.416" rx="1.5" ry="1" transform="rotate(167.313 294.484 111.416)" fill="#AF866E"/>
<ellipse opacity="0.54" cx="288.166" cy="101.563" rx="1.5" ry="1" transform="rotate(-12.687 288.166 101.563)" fill="#C7B98A"/>
<ellipse opacity="0.54" cx="265.397" cy="99.305" rx="1.5" ry="1" transform="rotate(167.313 265.397 99.305)" fill="#AF866E"/>
<ellipse opacity="0.54" cx="269.397" cy="102.305" rx="1.5" ry="1" transform="rotate(167.313 269.397 102.305)" fill="#AF866E"/>
<ellipse opacity="0.54" cx="286.397" cy="93.305" rx="1.5" ry="1" transform="rotate(167.313 286.397 93.305)" fill="#C7B98A"/>
<ellipse opacity="0.54" cx="311.397" cy="114.305" rx="1.5" ry="1" transform="rotate(-12.6869 311.397 114.305)" fill="#AF866E"/>
<ellipse opacity="0.54" cx="308.397" cy="103.305" rx="1.5" ry="1" transform="rotate(-12.687 308.397 103.305)" fill="#C7B98A"/>
<ellipse opacity="0.54" cx="278.397" cy="94.305" rx="1.5" ry="1" transform="rotate(-12.687 278.397 94.305)" fill="#C7B98A"/>
<ellipse opacity="0.54" cx="299.239" cy="105.22" rx="1.5" ry="1" transform="rotate(167.313 299.239 105.22)" fill="#C7B98A"/>
<ellipse opacity="0.54" cx="311.36" cy="95.3163" rx="1.5" ry="1" transform="rotate(-12.687 311.36 95.3163)" fill="#C7B98A"/>
<ellipse opacity="0.54" cx="283.507" cy="103.637" rx="1.5" ry="1" transform="rotate(-12.687 283.507 103.637)" fill="#C7B98A"/>
<ellipse opacity="0.54" cx="323.409" cy="98.7539" rx="1.5" ry="1" transform="rotate(167.313 323.409 98.7539)" fill="#C7B98A"/>
<ellipse opacity="0.54" cx="285.361" cy="107.319" rx="1.5" ry="1" transform="rotate(-12.687 285.361 107.319)" fill="#C7B98A"/>
<ellipse opacity="0.54" cx="268.397" cy="109.305" rx="1.5" ry="1" transform="rotate(-12.687 268.397 109.305)" fill="#C7B98A"/>
<ellipse opacity="0.54" cx="312.397" cy="110.305" rx="1.5" ry="1" transform="rotate(167.313 312.397 110.305)" fill="#C7B98A"/>
<ellipse opacity="0.54" cx="285.019" cy="101.246" rx="1.5" ry="1" transform="rotate(167.313 285.019 101.246)" fill="#C7B98A"/>
<ellipse opacity="0.54" cx="273.849" cy="101.711" rx="1.5" ry="1" transform="rotate(167.313 273.849 101.711)" fill="#C7B98A"/>
<ellipse opacity="0.54" cx="336.531" cy="97.8499" rx="1.5" ry="1" transform="rotate(-12.6869 336.531 97.8499)" fill="#C7B98A"/>
<ellipse opacity="0.54" cx="333.886" cy="95.7492" rx="1.5" ry="1" transform="rotate(-12.687 333.886 95.7492)" fill="#C7A08A"/>
<ellipse opacity="0.54" cx="322.715" cy="96.2139" rx="1.5" ry="1" transform="rotate(-12.687 322.715 96.2139)" fill="#C7A08A"/>
<ellipse opacity="0.54" cx="336.69" cy="89.9928" rx="1.5" ry="1" transform="rotate(-12.687 336.69 89.9928)" fill="#C7A08A"/>
<ellipse opacity="0.54" cx="373.397" cy="87.305" rx="1.5" ry="1" transform="rotate(167.313 373.397 87.305)" fill="#C7A08A"/>
<ellipse opacity="0.54" cx="354.397" cy="85.305" rx="1.5" ry="1" transform="rotate(-12.687 354.397 85.305)" fill="#C7A08A"/>
<ellipse opacity="0.54" cx="333.324" cy="88.7005" rx="1.5" ry="1" transform="rotate(-12.687 333.324 88.7005)" fill="#C7A08A"/>
<ellipse opacity="0.54" cx="319.35" cy="94.9216" rx="1.5" ry="1" transform="rotate(-12.687 319.35 94.9216)" fill="#C7A08A"/>
<ellipse opacity="0.54" cx="348.642" cy="97.5524" rx="1.5" ry="1" transform="rotate(167.313 348.642 97.5524)" fill="#C7A08A"/>
<ellipse opacity="0.54" cx="358.397" cy="90.305" rx="1.5" ry="1" transform="rotate(-12.687 358.397 90.305)" fill="#C7A08A"/>
<ellipse opacity="0.54" cx="357.642" cy="96.5514" rx="1.5" ry="1" transform="rotate(-12.687 357.642 96.5514)" fill="#C7A08A"/>
<ellipse opacity="0.54" cx="319.397" cy="88.305" rx="1.5" ry="1" transform="rotate(167.313 319.397 88.305)" fill="#C7A08A"/>
<ellipse opacity="0.54" cx="340.618" cy="98.3338" rx="1.5" ry="1" transform="rotate(167.313 340.618 98.3338)" fill="#C7A08A"/>
<ellipse opacity="0.54" cx="331.056" cy="92.2861" rx="1.5" ry="1" transform="rotate(167.313 331.056 92.2861)" fill="#C7A08A"/>
<ellipse opacity="0.54" cx="340.683" cy="90.305" rx="1.5" ry="1" transform="rotate(-12.687 340.683 90.305)" fill="#AF866E"/>
<ellipse opacity="0.54" cx="319.886" cy="92.7508" rx="1.5" ry="1" transform="rotate(167.313 319.886 92.7508)" fill="#C7A08A"/>
<ellipse opacity="0.54" cx="348.106" cy="99.7232" rx="1.5" ry="1" transform="rotate(-12.6869 348.106 99.7232)" fill="#C7A08A"/>
<ellipse opacity="0.54" cx="339.178" cy="87.3828" rx="1.5" ry="1" transform="rotate(-12.687 339.178 87.3828)" fill="#AF866E"/>
<ellipse opacity="0.54" cx="338.397" cy="95.305" rx="1.5" ry="1" transform="rotate(-12.687 338.397 95.305)" fill="#AF866E"/>
<ellipse opacity="0.54" cx="326.397" cy="96.305" rx="1.5" ry="1" transform="rotate(-12.687 326.397 96.305)" fill="#AF866E"/>
<ellipse opacity="0.54" cx="361.397" cy="91.305" rx="1.5" ry="1" transform="rotate(-12.687 361.397 91.305)" fill="#AF866E"/>
<ellipse opacity="0.54" cx="375.397" cy="82.305" rx="1.5" ry="1" transform="rotate(167.313 375.397 82.305)" fill="#AF866E"/>
<ellipse opacity="0.54" cx="336.374" cy="93.1392" rx="1.5" ry="1" transform="rotate(-12.687 336.374 93.1392)" fill="#AF866E"/>
<ellipse opacity="0.54" cx="341.885" cy="85.7483" rx="1.5" ry="1" transform="rotate(-12.687 341.885 85.7483)" fill="#AF866E"/>
<ellipse opacity="0.54" cx="325.203" cy="93.6039" rx="1.5" ry="1" transform="rotate(-12.687 325.203 93.6039)" fill="#AF866E"/>
<ellipse opacity="0.54" cx="343.397" cy="101.305" rx="1.5" ry="1" transform="rotate(167.313 343.397 101.305)" fill="#AF866E"/>
<ellipse opacity="0.54" cx="331.69" cy="85.9934" rx="1.5" ry="1" transform="rotate(167.313 331.69 85.9934)" fill="#AF866E"/>
<ellipse opacity="0.54" cx="360.397" cy="86.305" rx="1.5" ry="1" transform="rotate(-12.687 360.397 86.305)" fill="#AF866E"/>
<ellipse opacity="0.54" cx="305.397" cy="94.305" rx="1.5" ry="1" transform="rotate(-12.687 305.397 94.305)" fill="#AF866E"/>
<ellipse opacity="0.54" cx="350.129" cy="85.9425" rx="1.5" ry="1" transform="rotate(-12.687 350.129 85.9425)" fill="#C7B98A"/>
<ellipse opacity="0.54" cx="362.52" cy="95.4532" rx="1.5" ry="1" transform="rotate(167.313 362.52 95.4532)" fill="#AF866E"/>
<ellipse opacity="0.54" cx="365.397" cy="85.305" rx="1.5" ry="1" transform="rotate(-12.687 365.397 85.305)" fill="#AF866E"/>
<ellipse opacity="0.54" cx="359.397" cy="78.305" rx="1.5" ry="1" transform="rotate(-12.687 359.397 78.305)" fill="#C7B98A"/>
<ellipse opacity="0.54" cx="327.91" cy="91.9694" rx="1.5" ry="1" transform="rotate(-12.687 327.91 91.9694)" fill="#AF866E"/>
<ellipse opacity="0.54" cx="349.397" cy="107.305" rx="1.5" ry="1" transform="rotate(167.313 349.397 107.305)" fill="#AF866E"/>
<ellipse opacity="0.54" cx="333.764" cy="90.6517" rx="1.5" ry="1" transform="rotate(-12.687 333.764 90.6517)" fill="#C7B98A"/>
<ellipse opacity="0.54" cx="355.397" cy="78.305" rx="1.5" ry="1" transform="rotate(167.313 355.397 78.305)" fill="#AF866E"/>
<ellipse opacity="0.54" cx="324.397" cy="88.305" rx="1.5" ry="1" transform="rotate(167.313 324.397 88.305)" fill="#AF866E"/>
<ellipse opacity="0.54" cx="329.397" cy="87.305" rx="1.5" ry="1" transform="rotate(167.313 329.397 87.305)" fill="#C7B98A"/>
<ellipse opacity="0.54" cx="369.569" cy="94.8914" rx="1.5" ry="1" transform="rotate(-12.6869 369.569 94.8914)" fill="#AF866E"/>
<ellipse opacity="0.54" cx="355.569" cy="91.8931" rx="1.5" ry="1" transform="rotate(-12.687 355.569 91.8931)" fill="#C7B98A"/>
<ellipse opacity="0.54" cx="338.397" cy="83.305" rx="1.5" ry="1" transform="rotate(-12.687 338.397 83.305)" fill="#C7B98A"/>
<ellipse opacity="0.54" cx="344.837" cy="94.3089" rx="1.5" ry="1" transform="rotate(167.313 344.837 94.3089)" fill="#C7B98A"/>
<ellipse opacity="0.54" cx="353.397" cy="81.305" rx="1.5" ry="1" transform="rotate(-12.687 353.397 81.305)" fill="#C7B98A"/>
<ellipse opacity="0.54" cx="330.397" cy="111.305" rx="1.5" ry="1" transform="rotate(-12.687 330.397 111.305)" fill="#C7B98A"/>
<ellipse opacity="0.54" cx="369.007" cy="87.8427" rx="1.5" ry="1" transform="rotate(167.313 369.007 87.8427)" fill="#C7B98A"/>
<ellipse opacity="0.54" cx="318.397" cy="97.305" rx="1.5" ry="1" transform="rotate(-12.687 318.397 97.305)" fill="#C7B98A"/>
<ellipse opacity="0.54" cx="360.789" cy="96.8681" rx="1.5" ry="1" transform="rotate(167.313 360.789 96.8681)" fill="#C7B98A"/>
<ellipse opacity="0.54" cx="330.617" cy="90.3349" rx="1.5" ry="1" transform="rotate(167.313 330.617 90.3349)" fill="#C7B98A"/>
<ellipse opacity="0.54" cx="319.447" cy="90.7996" rx="1.5" ry="1" transform="rotate(167.313 319.447 90.7996)" fill="#C7B98A"/>
<ellipse opacity="0.54" cx="382.129" cy="86.9388" rx="1.5" ry="1" transform="rotate(-12.6869 382.129 86.9388)" fill="#C7B98A"/>
<ellipse opacity="0.54" cx="330.886" cy="107.749" rx="1.5" ry="1" transform="rotate(-12.687 330.886 107.749)" fill="#C7A08A"/>
<ellipse opacity="0.54" cx="322.397" cy="110.305" rx="1.5" ry="1" transform="rotate(-12.687 322.397 110.305)" fill="#C7A08A"/>
<ellipse opacity="0.54" cx="333.69" cy="101.993" rx="1.5" ry="1" transform="rotate(-12.687 333.69 101.993)" fill="#C7A08A"/>
<ellipse opacity="0.54" cx="370.397" cy="100.305" rx="1.5" ry="1" transform="rotate(167.313 370.397 100.305)" fill="#C7A08A"/>
<ellipse opacity="0.54" cx="327.52" cy="106.457" rx="1.5" ry="1" transform="rotate(-12.687 327.52 106.457)" fill="#C7A08A"/>
<ellipse opacity="0.54" cx="330.324" cy="100.7" rx="1.5" ry="1" transform="rotate(-12.687 330.324 100.7)" fill="#C7A08A"/>
<ellipse opacity="0.54" cx="315.397" cy="112.305" rx="1.5" ry="1" transform="rotate(-12.687 315.397 112.305)" fill="#C7A08A"/>
<ellipse opacity="0.54" cx="345.642" cy="109.552" rx="1.5" ry="1" transform="rotate(167.313 345.642 109.552)" fill="#C7A08A"/>
<ellipse opacity="0.54" cx="338.349" cy="99.9191" rx="1.5" ry="1" transform="rotate(-12.687 338.349 99.9191)" fill="#C7A08A"/>
<ellipse opacity="0.54" cx="354.3" cy="102.478" rx="1.5" ry="1" transform="rotate(-12.687 354.3 102.478)" fill="#C7A08A"/>
<ellipse opacity="0.54" cx="354.642" cy="108.551" rx="1.5" ry="1" transform="rotate(-12.687 354.642 108.551)" fill="#C7A08A"/>
<ellipse opacity="0.54" cx="330.861" cy="98.5297" rx="1.5" ry="1" transform="rotate(167.313 330.861 98.5297)" fill="#C7A08A"/>
<ellipse opacity="0.54" cx="337.618" cy="110.334" rx="1.5" ry="1" transform="rotate(167.313 337.618 110.334)" fill="#C7A08A"/>
<ellipse opacity="0.54" cx="328.056" cy="104.286" rx="1.5" ry="1" transform="rotate(167.313 328.056 104.286)" fill="#C7A08A"/>
<ellipse opacity="0.54" cx="337.397" cy="103.305" rx="1.5" ry="1" transform="rotate(-12.687 337.397 103.305)" fill="#AF866E"/>
<ellipse opacity="0.54" cx="319.397" cy="104.305" rx="1.5" ry="1" transform="rotate(167.313 319.397 104.305)" fill="#C7A08A"/>
<ellipse opacity="0.54" cx="345.106" cy="111.723" rx="1.5" ry="1" transform="rotate(-12.6869 345.106 111.723)" fill="#C7A08A"/>
<ellipse opacity="0.54" cx="344.397" cy="97.305" rx="1.5" ry="1" transform="rotate(-12.687 344.397 97.305)" fill="#AF866E"/>
<ellipse opacity="0.54" cx="334.397" cy="108.305" rx="1.5" ry="1" transform="rotate(-12.687 334.397 108.305)" fill="#AF866E"/>
<ellipse opacity="0.54" cx="325.397" cy="112.305" rx="1.5" ry="1" transform="rotate(-12.687 325.397 112.305)" fill="#AF866E"/>
<ellipse opacity="0.54" cx="347.397" cy="82.305" rx="1.5" ry="1" transform="rotate(-12.687 347.397 82.305)" fill="#AF866E"/>
<ellipse opacity="0.54" cx="333.374" cy="105.139" rx="1.5" ry="1" transform="rotate(-12.687 333.374 105.139)" fill="#AF866E"/>
<ellipse opacity="0.54" cx="347.397" cy="90.305" rx="1.5" ry="1" transform="rotate(-12.687 347.397 90.305)" fill="#AF866E"/>
<ellipse opacity="0.54" cx="322.397" cy="103.305" rx="1.5" ry="1" transform="rotate(-12.687 322.397 103.305)" fill="#AF866E"/>
<ellipse opacity="0.54" cx="340.397" cy="114.305" rx="1.5" ry="1" transform="rotate(167.313 340.397 114.305)" fill="#AF866E"/>
<ellipse opacity="0.54" cx="363.397" cy="76.305" rx="1.5" ry="1" transform="rotate(167.313 363.397 76.305)" fill="#AF866E"/>
<ellipse opacity="0.54" cx="352.397" cy="99.305" rx="1.5" ry="1" transform="rotate(-12.687 352.397 99.305)" fill="#AF866E"/>
<ellipse opacity="0.54" cx="308.397" cy="106.305" rx="1.5" ry="1" transform="rotate(-12.687 308.397 106.305)" fill="#AF866E"/>
<ellipse opacity="0.54" cx="347.129" cy="97.9424" rx="1.5" ry="1" transform="rotate(-12.687 347.129 97.9424)" fill="#C7B98A"/>
<ellipse opacity="0.54" cx="343.397" cy="92.305" rx="1.5" ry="1" transform="rotate(-12.687 343.397 92.305)" fill="#C7B98A"/>
<ellipse opacity="0.54" cx="324.91" cy="103.969" rx="1.5" ry="1" transform="rotate(-12.687 324.91 103.969)" fill="#AF866E"/>
<ellipse opacity="0.54" cx="337.082" cy="112.505" rx="1.5" ry="1" transform="rotate(167.313 337.082 112.505)" fill="#AF866E"/>
<ellipse opacity="0.54" cx="330.764" cy="102.652" rx="1.5" ry="1" transform="rotate(-12.687 330.764 102.652)" fill="#C7B98A"/>
<ellipse opacity="0.54" cx="347.397" cy="103.305" rx="1.5" ry="1" transform="rotate(167.313 347.397 103.305)" fill="#AF866E"/>
<ellipse opacity="0.54" cx="313.397" cy="104.305" rx="1.5" ry="1" transform="rotate(167.313 313.397 104.305)" fill="#AF866E"/>
<ellipse opacity="0.54" cx="351.397" cy="104.305" rx="1.5" ry="1" transform="rotate(-12.687 351.397 104.305)" fill="#C7B98A"/>
<ellipse opacity="0.54" cx="306.397" cy="91.305" rx="1.5" ry="1" transform="rotate(-12.687 306.397 91.305)" fill="#C7B98A"/>
<ellipse opacity="0.54" cx="341.837" cy="106.309" rx="1.5" ry="1" transform="rotate(167.313 341.837 106.309)" fill="#C7B98A"/>
<ellipse opacity="0.54" cx="353.958" cy="96.4051" rx="1.5" ry="1" transform="rotate(-12.687 353.958 96.4051)" fill="#C7B98A"/>
<ellipse opacity="0.54" cx="338.397" cy="106.305" rx="1.5" ry="1" transform="rotate(-12.687 338.397 106.305)" fill="#C7B98A"/>
<ellipse opacity="0.54" cx="366.007" cy="99.8427" rx="1.5" ry="1" transform="rotate(167.313 366.007 99.8427)" fill="#C7B98A"/>
<ellipse opacity="0.54" cx="327.959" cy="108.408" rx="1.5" ry="1" transform="rotate(-12.687 327.959 108.408)" fill="#C7B98A"/>
<ellipse opacity="0.54" cx="316.789" cy="108.873" rx="1.5" ry="1" transform="rotate(-12.687 316.789 108.873)" fill="#C7B98A"/>
<ellipse opacity="0.54" cx="358.789" cy="107.868" rx="1.5" ry="1" transform="rotate(167.313 358.789 107.868)" fill="#C7B98A"/>
<ellipse opacity="0.54" cx="327.617" cy="102.335" rx="1.5" ry="1" transform="rotate(167.313 327.617 102.335)" fill="#C7B98A"/>
<ellipse opacity="0.54" cx="317.397" cy="102.305" rx="1.5" ry="1" transform="rotate(167.313 317.397 102.305)" fill="#C7B98A"/>
<path d="M213.465 94.5C167.965 101.5 147 111 162.5 130.5H248.5C240 129.5 224.265 127.4 209.465 121C190.965 113 196.503 107.432 204.965 103C215.465 97.5 224.965 93 234.465 93H225.465C222.965 93 215.465 94.1 213.465 94.5Z" fill="url(#paint10_linear_58_12609)"/>
<ellipse opacity="0.54" cx="411.172" cy="72.7492" rx="1.5" ry="1" transform="rotate(-12.687 411.172 72.7492)" fill="#C7A08A"/>
<ellipse opacity="0.54" cx="400.001" cy="73.2139" rx="1.5" ry="1" transform="rotate(-12.687 400.001 73.2139)" fill="#C7A08A"/>
<ellipse opacity="0.54" cx="413.976" cy="66.9928" rx="1.5" ry="1" transform="rotate(-12.687 413.976 66.9928)" fill="#C7A08A"/>
<ellipse opacity="0.54" cx="407.806" cy="71.4569" rx="1.5" ry="1" transform="rotate(-12.687 407.806 71.4569)" fill="#C7A08A"/>
<ellipse opacity="0.54" cx="410.61" cy="65.7005" rx="1.5" ry="1" transform="rotate(-12.687 410.61 65.7005)" fill="#C7A08A"/>
<ellipse opacity="0.54" cx="396.635" cy="71.9216" rx="1.5" ry="1" transform="rotate(-12.687 396.635 71.9216)" fill="#C7A08A"/>
<ellipse opacity="0.54" cx="425.928" cy="74.5524" rx="1.5" ry="1" transform="rotate(167.313 425.928 74.5524)" fill="#C7A08A"/>
<ellipse opacity="0.54" cx="418.634" cy="64.9191" rx="1.5" ry="1" transform="rotate(-12.687 418.634 64.9191)" fill="#C7A08A"/>
<ellipse opacity="0.54" cx="408.683" cy="64.305" rx="1.5" ry="1" transform="rotate(167.313 408.683 64.305)" fill="#C7A08A"/>
<ellipse opacity="0.54" cx="414.683" cy="75.305" rx="1.5" ry="1" transform="rotate(167.313 414.683 75.305)" fill="#C7A08A"/>
<ellipse opacity="0.54" cx="417.683" cy="69.305" rx="1.5" ry="1" transform="rotate(-12.687 417.683 69.305)" fill="#AF866E"/>
<ellipse opacity="0.54" cx="392.683" cy="66.305" rx="1.5" ry="1" transform="rotate(167.313 392.683 66.305)" fill="#C7A08A"/>
<ellipse opacity="0.54" cx="425.392" cy="76.7232" rx="1.5" ry="1" transform="rotate(-12.6869 425.392 76.7232)" fill="#C7A08A"/>
<ellipse opacity="0.54" cx="407.683" cy="57.305" rx="1.5" ry="1" transform="rotate(-12.687 407.683 57.305)" fill="#AF866E"/>
<ellipse opacity="0.54" cx="387.683" cy="73.305" rx="1.5" ry="1" transform="rotate(-12.687 387.683 73.305)" fill="#AF866E"/>
<ellipse opacity="0.54" cx="413.659" cy="70.1392" rx="1.5" ry="1" transform="rotate(-12.687 413.659 70.1392)" fill="#AF866E"/>
<ellipse opacity="0.54" cx="416.683" cy="56.305" rx="1.5" ry="1" transform="rotate(-12.687 416.683 56.305)" fill="#AF866E"/>
<ellipse opacity="0.54" cx="402.489" cy="70.6039" rx="1.5" ry="1" transform="rotate(-12.687 402.489 70.6039)" fill="#AF866E"/>
<ellipse opacity="0.54" cx="420.075" cy="75.8701" rx="1.5" ry="1" transform="rotate(167.313 420.075 75.8701)" fill="#AF866E"/>
<ellipse opacity="0.54" cx="404.683" cy="62.305" rx="1.5" ry="1" transform="rotate(167.313 404.683 62.305)" fill="#AF866E"/>
<ellipse opacity="0.54" cx="427.854" cy="64.8936" rx="1.5" ry="1" transform="rotate(-12.687 427.854 64.8936)" fill="#AF866E"/>
<ellipse opacity="0.54" cx="390.683" cy="76.305" rx="1.5" ry="1" transform="rotate(-12.687 390.683 76.305)" fill="#AF866E"/>
<ellipse opacity="0.54" cx="427.415" cy="62.9425" rx="1.5" ry="1" transform="rotate(-12.687 427.415 62.9425)" fill="#C7B98A"/>
<ellipse opacity="0.54" cx="416.683" cy="61.305" rx="1.5" ry="1" transform="rotate(-12.687 416.683 61.305)" fill="#C7B98A"/>
<ellipse opacity="0.54" cx="402.683" cy="68.305" rx="1.5" ry="1" transform="rotate(-12.687 402.683 68.305)" fill="#AF866E"/>
<ellipse opacity="0.54" cx="396.61" cy="62.7021" rx="1.5" ry="1" transform="rotate(-12.687 396.61 62.7021)" fill="#C7B98A"/>
<ellipse opacity="0.54" cx="422.123" cy="71.3089" rx="1.5" ry="1" transform="rotate(167.313 422.123 71.3089)" fill="#C7B98A"/>
<ellipse opacity="0.54" cx="400.683" cy="65.305" rx="1.5" ry="1" transform="rotate(-12.687 400.683 65.305)" fill="#C7B98A"/>
<ellipse opacity="0.54" cx="405.683" cy="75.305" rx="1.5" ry="1" transform="rotate(-12.687 405.683 75.305)" fill="#C7B98A"/>
<ellipse opacity="0.54" cx="395.683" cy="75.305" rx="1.5" ry="1" transform="rotate(-12.687 395.683 75.305)" fill="#C7B98A"/>
<ellipse opacity="0.54" cx="407.903" cy="67.335" rx="1.5" ry="1" transform="rotate(167.313 407.903 67.335)" fill="#C7B98A"/>
<ellipse opacity="0.54" cx="396.732" cy="67.7997" rx="1.5" ry="1" transform="rotate(167.313 396.732 67.7997)" fill="#C7B98A"/>
</g>
<defs>
<linearGradient id="paint0_linear_58_12609" x1="170.225" y1="-3.75558" x2="179.07" y2="22.9802" gradientUnits="userSpaceOnUse">
<stop stop-color="white"/>
<stop offset="1" stop-color="white"/>
</linearGradient>
<linearGradient id="paint1_linear_58_12609" x1="202.652" y1="1.28152" x2="213.903" y2="35.7173" gradientUnits="userSpaceOnUse">
<stop stop-color="#EEEEEE"/>
<stop offset="1" stop-color="white"/>
</linearGradient>
<linearGradient id="paint2_linear_58_12609" x1="170.789" y1="-31.4963" x2="129.913" y2="23.1642" gradientUnits="userSpaceOnUse">
<stop stop-color="#DFDFDF"/>
<stop offset="1" stop-color="white"/>
</linearGradient>
<radialGradient id="paint3_radial_58_12609" cx="0" cy="0" r="1" gradientUnits="userSpaceOnUse" gradientTransform="translate(403.714 -124) rotate(111.47) scale(256.821 512.9)">
<stop offset="0.149524" stop-color="#D2A27E"/>
<stop offset="0.95589" stop-color="#F7BEA6" stop-opacity="0.01"/>
</radialGradient>
<linearGradient id="paint4_linear_58_12609" x1="207.214" y1="17.0001" x2="158.806" y2="83.5669" gradientUnits="userSpaceOnUse">
<stop stop-color="#D9A885"/>
<stop offset="0.427061" stop-color="#F1C3AF"/>
<stop offset="1" stop-color="#F7BEA6" stop-opacity="0.01"/>
</linearGradient>
<linearGradient id="paint5_linear_58_12609" x1="195.714" y1="86.5" x2="339.847" y2="159.573" gradientUnits="userSpaceOnUse">
<stop offset="0.187867" stop-color="#F9D39F" stop-opacity="0.01"/>
<stop offset="1" stop-color="#E0865F"/>
</linearGradient>
<linearGradient id="paint6_linear_58_12609" x1="404.506" y1="24.5154" x2="409.861" y2="40.7022" gradientUnits="userSpaceOnUse">
<stop stop-color="white"/>
<stop offset="1" stop-color="white"/>
</linearGradient>
<linearGradient id="paint7_linear_58_12609" x1="405.531" y1="18.7907" x2="385.823" y2="45.1456" gradientUnits="userSpaceOnUse">
<stop stop-color="#DFDFDF"/>
<stop offset="1" stop-color="white"/>
</linearGradient>
<radialGradient id="paint8_radial_58_12609" cx="0" cy="0" r="1" gradientUnits="userSpaceOnUse" gradientTransform="translate(257.714 32.5) rotate(95.8395) scale(88.459 309.993)">
<stop stop-color="#D2A27E"/>
<stop offset="0.681393" stop-color="#E8B192" stop-opacity="0.736553"/>
<stop offset="1" stop-color="#F7BEA6" stop-opacity="0.01"/>
</radialGradient>
<radialGradient id="paint9_radial_58_12609" cx="0" cy="0" r="1" gradientUnits="userSpaceOnUse" gradientTransform="translate(379.714 39) rotate(101.196) scale(72.5749 196.769)">
<stop stop-color="#E0865F"/>
<stop offset="1" stop-color="#F9D39F" stop-opacity="0.01"/>
</radialGradient>
<linearGradient id="paint10_linear_58_12609" x1="205.965" y1="88" x2="202.965" y2="125.5" gradientUnits="userSpaceOnUse">
<stop stop-color="#BB8C71"/>
<stop offset="0.599785" stop-color="#BB8C71" stop-opacity="0.21217"/>
<stop offset="1" stop-color="#BB8C71" stop-opacity="0"/>
</linearGradient>
<clipPath id="clip0_58_12609">
<rect width="430" height="131" fill="white"/>
</clipPath>
</defs>
</svg>
