<svg width="24" height="24" viewBox="0 0 24 24" fill="none" xmlns="http://www.w3.org/2000/svg">
<g clip-path="url(#clip0_538_3268)">
<path d="M11.5 4C9.81886 4 8.17547 4.49852 6.77766 5.43251C5.37984 6.3665 4.29037 7.69402 3.64703 9.24719C3.00368 10.8004 2.83535 12.5094 3.16333 14.1583C3.4913 15.8071 4.30085 17.3217 5.4896 18.5104C6.67834 19.6992 8.1929 20.5087 9.84174 20.8367C11.4906 21.1646 13.1996 20.9963 14.7528 20.353C16.306 19.7096 17.6335 18.6202 18.5675 17.2223C19.5015 15.8245 20 14.1811 20 12.5C19.9976 10.2464 19.1013 8.08582 17.5077 6.49228C15.9142 4.89875 13.7536 4.00244 11.5 4V4ZM11.5 19.5833C10.0991 19.5833 8.72956 19.1679 7.56471 18.3896C6.39987 17.6112 5.49198 16.505 4.95586 15.2107C4.41974 13.9164 4.27946 12.4921 4.55277 11.1181C4.82609 9.74408 5.50071 8.48195 6.49133 7.49133C7.48195 6.50071 8.74408 5.82608 10.1181 5.55277C11.4921 5.27946 12.9164 5.41973 14.2107 5.95585C15.505 6.49197 16.6113 7.39986 17.3896 8.56471C18.1679 9.72956 18.5833 11.099 18.5833 12.5C18.5813 14.378 17.8343 16.1785 16.5064 17.5064C15.1785 18.8343 13.378 19.5813 11.5 19.5833V19.5833Z" fill="#0086b2"/>
<path d="M12.0079 7.5863C11.5994 7.51187 11.1795 7.52813 10.7781 7.63392C10.3766 7.73972 10.0032 7.93246 9.68446 8.19851C9.3657 8.46456 9.1093 8.79742 8.93342 9.17353C8.75754 9.54964 8.66647 9.9598 8.66666 10.375C8.66666 10.5629 8.74128 10.743 8.87412 10.8759C9.00696 11.0087 9.18713 11.0833 9.37499 11.0833C9.56285 11.0833 9.74302 11.0087 9.87586 10.8759C10.0087 10.743 10.0833 10.5629 10.0833 10.375C10.0831 10.1666 10.129 9.96071 10.2175 9.77204C10.306 9.58337 10.4351 9.41655 10.5955 9.28348C10.7559 9.15042 10.9436 9.05438 11.1454 9.00221C11.3472 8.95005 11.558 8.94305 11.7628 8.98171C12.0426 9.03603 12.2999 9.17253 12.5017 9.37377C12.7036 9.57501 12.8409 9.83186 12.8961 10.1115C12.9519 10.405 12.9134 10.7087 12.7861 10.979C12.6589 11.2494 12.4495 11.4726 12.1878 11.6167C11.7544 11.8678 11.3963 12.2305 11.1507 12.667C10.9052 13.1036 10.7812 13.598 10.7917 14.0987V14.625C10.7917 14.8129 10.8663 14.993 10.9991 15.1259C11.132 15.2587 11.3121 15.3333 11.5 15.3333C11.6879 15.3333 11.868 15.2587 12.0009 15.1259C12.1337 14.993 12.2083 14.8129 12.2083 14.625V14.0987C12.1994 13.8522 12.2556 13.6077 12.3713 13.3899C12.4869 13.172 12.6579 12.9885 12.8671 12.8577C13.3803 12.5758 13.7935 12.1419 14.05 11.6156C14.3066 11.0893 14.3937 10.4964 14.2995 9.9185C14.2053 9.34062 13.9344 8.80611 13.5241 8.38848C13.1137 7.97085 12.584 7.69061 12.0079 7.5863V7.5863Z" fill="#0086b2"/>
<path d="M12.2083 16.75C12.2083 16.3588 11.8912 16.0416 11.5 16.0416C11.1088 16.0416 10.7917 16.3588 10.7917 16.75C10.7917 17.1412 11.1088 17.4583 11.5 17.4583C11.8912 17.4583 12.2083 17.1412 12.2083 16.75Z" fill="#0086b2"/>
</g>
<defs>
<clipPath id="clip0_538_3268">
<rect width="17" height="17" fill="white" transform="translate(3 4)"/>
</clipPath>
</defs>
</svg>
