<svg width="24" height="24" viewBox="0 0 24 24" fill="none" xmlns="http://www.w3.org/2000/svg">
<mask id="mask0_262_776" style="mask-type:alpha" maskUnits="userSpaceOnUse" x="1" y="2" width="21" height="20">
<path fill-rule="evenodd" clip-rule="evenodd" d="M1 2H22V22H1V2Z" fill="white"/>
</mask>
<g mask="url(#mask0_262_776)">
<path fill-rule="evenodd" clip-rule="evenodd" d="M9.08993 2.26094C5.19558 3.10345 2.13648 6.07833 1.26913 9.86711C-0.00794458 15.4456 3.40616 20.4875 8.415 21.9834C8.50945 22.0116 8.61392 22.0048 8.69853 21.9552C8.71577 21.9451 8.73284 21.933 8.74936 21.9187C8.81655 21.8601 8.89441 21.7595 8.90795 21.3636C8.92896 20.7495 8.90545 20.1338 8.90151 19.5188C8.90103 19.4428 8.87955 19.4179 8.79167 19.4356C8.34256 19.5261 7.88815 19.529 7.43273 19.4951C6.84795 19.4517 6.29706 19.3259 5.84611 18.9225C5.57082 18.6762 5.44313 18.3519 5.29397 18.0343C5.04296 17.4999 4.73586 17.0087 4.18551 16.7067C4.06278 16.6394 3.96248 16.5359 3.88706 16.4138C3.78951 16.2559 3.81057 16.206 3.99876 16.1526C4.21713 16.0906 4.42924 16.1256 4.63711 16.1925C5.21778 16.3792 5.64408 16.7472 5.94987 17.2573C6.13728 17.5698 6.38095 17.8329 6.70064 18.0237C7.3455 18.4086 8.01208 18.2913 8.68361 18.1083C8.8666 18.0585 8.94542 17.9673 8.98015 17.7708C8.99978 17.6595 9.03999 17.5567 9.07167 17.4495C9.1632 17.1401 9.36326 16.893 9.58682 16.6426C8.89674 16.55 8.23314 16.4591 7.60677 16.2072C6.82158 15.8914 6.12087 15.4686 5.64975 14.7544C5.25942 14.1627 5.04087 13.5077 4.9293 12.8187C4.82953 12.2031 4.79427 11.5824 4.88908 10.9632C5.00042 10.2358 5.30375 9.58991 5.80047 9.03186C5.85345 8.9723 5.9232 8.92852 5.87928 8.81318C5.59969 8.07829 5.64605 7.33795 5.86652 6.59808C5.98764 6.19188 6.1124 6.1192 6.54509 6.20808C6.55822 6.21081 6.57021 6.21847 6.58328 6.22167C7.35296 6.40981 8.05969 6.73525 8.71804 7.16095C8.83653 7.23758 8.94274 7.25471 9.07579 7.21744C9.58539 7.07451 10.1083 6.99916 10.6351 6.95376C11.7539 6.8574 12.8582 6.94331 13.9447 7.2251C14.0538 7.25337 14.1451 7.24135 14.2428 7.17813C14.6588 6.90918 15.0884 6.66013 15.5538 6.48348C15.97 6.32552 16.3808 6.14585 16.8376 6.19316C16.9068 6.20036 16.9678 6.20315 16.9984 6.28326C17.3014 7.07544 17.423 7.88051 17.1453 8.70195C17.0905 8.86403 17.1132 8.96016 17.2222 9.08254C17.6189 9.52791 17.8827 10.0416 18.0255 10.6162C18.2126 11.3696 18.1703 12.1255 18.0478 12.8789C17.9358 13.5677 17.7191 14.2277 17.3032 14.804C16.6484 15.7113 15.691 16.1639 14.6236 16.4364C14.2275 16.5376 13.8191 16.5806 13.4055 16.6443C13.8361 17.1914 13.9092 17.3275 14.0101 17.7628C14.0779 18.0552 14.0824 18.3531 14.0836 18.6503C14.0869 19.5101 14.0815 20.3699 14.0861 21.2297C14.0869 21.3815 14.0564 21.7333 14.2738 21.9022C14.2834 21.9096 14.2931 21.9165 14.3029 21.9228C14.4051 21.9882 14.535 21.999 14.6519 21.9633C18.9107 20.6609 22 16.7898 22 12.2161C22 5.80903 15.938 0.779443 9.08993 2.26094Z" fill="#0086b2"/>
</g>
</svg>
