<svg width="24" height="24" viewBox="0 0 24 24" fill="none" xmlns="http://www.w3.org/2000/svg">
<g clip-path="url(#clip0_538_3279)">
<path d="M16.0417 3C15.8538 3 15.6736 3.07463 15.5408 3.20747C15.408 3.3403 15.3333 3.52047 15.3333 3.70833C15.3333 5.79721 13.5037 6.54167 11.7917 6.54167H6.83333C6.08189 6.54167 5.36122 6.84018 4.82986 7.37153C4.29851 7.90288 4 8.62355 4 9.375L4 10.7917C4.00155 11.2158 4.09879 11.6341 4.28447 12.0154C4.47015 12.3967 4.73949 12.7311 5.07242 12.9939L7.60258 18.6407C7.78253 19.0452 8.07587 19.3889 8.44711 19.6302C8.81835 19.8714 9.25155 19.9999 9.69429 20C10.0466 19.9998 10.3932 19.9115 10.7026 19.7431C11.012 19.5747 11.2744 19.3316 11.4659 19.0359C11.6574 18.7403 11.7718 18.4014 11.7989 18.0502C11.826 17.699 11.7648 17.3465 11.621 17.025L10.0626 13.625H11.7917C13.5037 13.625 15.3333 14.3695 15.3333 16.4583C15.3333 16.6462 15.408 16.8264 15.5408 16.9592C15.6736 17.092 15.8538 17.1667 16.0417 17.1667C16.2295 17.1667 16.4097 17.092 16.5425 16.9592C16.6754 16.8264 16.75 16.6462 16.75 16.4583V3.70833C16.75 3.52047 16.6754 3.3403 16.5425 3.20747C16.4097 3.07463 16.2295 3 16.0417 3V3ZM10.3304 17.6051C10.3773 17.7111 10.397 17.8271 10.3878 17.9426C10.3785 18.0581 10.3406 18.1695 10.2774 18.2666C10.2143 18.3638 10.1279 18.4436 10.026 18.4989C9.92419 18.5542 9.81017 18.5832 9.69429 18.5833C9.52528 18.5832 9.35994 18.534 9.21835 18.4417C9.07677 18.3494 8.96503 18.218 8.89671 18.0634L6.90771 13.625H8.50429L10.3304 17.6051ZM15.3333 13.3417C14.3213 12.5619 13.0683 12.161 11.7917 12.2083H6.83333C6.45761 12.2083 6.09728 12.0591 5.8316 11.7934C5.56592 11.5277 5.41667 11.1674 5.41667 10.7917V9.375C5.41667 8.99928 5.56592 8.63894 5.8316 8.37327C6.09728 8.10759 6.45761 7.95833 6.83333 7.95833H11.7917C13.0679 8.00671 14.3209 7.60702 15.3333 6.82854V13.3417ZM20.9292 13.9452C20.8876 14.0284 20.8301 14.1027 20.7598 14.1637C20.6895 14.2248 20.6079 14.2714 20.5196 14.3008C20.4314 14.3303 20.3381 14.3421 20.2453 14.3355C20.1525 14.3289 20.0618 14.3041 19.9786 14.2625L18.5619 13.5542C18.3938 13.4702 18.2659 13.3229 18.2064 13.1446C18.1469 12.9663 18.1606 12.7717 18.2446 12.6036C18.3286 12.4354 18.4759 12.3076 18.6542 12.248C18.8324 12.1885 19.027 12.2023 19.1952 12.2862L20.6118 12.9946C20.7791 13.0785 20.9064 13.2252 20.9658 13.4027C21.0253 13.5801 21.0121 13.7739 20.9292 13.9416V13.9452ZM18.2446 7.57017C18.203 7.48692 18.1782 7.39629 18.1716 7.30345C18.165 7.21062 18.1768 7.11739 18.2063 7.02911C18.2357 6.94083 18.2823 6.85923 18.3433 6.78896C18.4044 6.71869 18.4786 6.66113 18.5619 6.61958L19.9786 5.91125C20.1467 5.82728 20.3413 5.81353 20.5196 5.87304C20.6979 5.93256 20.8452 6.06045 20.9292 6.22858C21.0131 6.39672 21.0269 6.59133 20.9674 6.7696C20.9079 6.94787 20.78 7.09519 20.6118 7.17917L19.1952 7.8875C19.1119 7.92912 19.0213 7.95393 18.9285 7.9605C18.8356 7.96708 18.7424 7.95529 18.6541 7.92582C18.5658 7.89635 18.4842 7.84977 18.414 7.78875C18.3437 7.72772 18.2861 7.65345 18.2446 7.57017V7.57017ZM18.1667 10.0833C18.1667 9.89547 18.2413 9.7153 18.3741 9.58247C18.507 9.44963 18.6871 9.375 18.875 9.375H20.2917C20.4795 9.375 20.6597 9.44963 20.7925 9.58247C20.9254 9.7153 21 9.89547 21 10.0833C21 10.2712 20.9254 10.4514 20.7925 10.5842C20.6597 10.717 20.4795 10.7917 20.2917 10.7917H18.875C18.6871 10.7917 18.507 10.717 18.3741 10.5842C18.2413 10.4514 18.1667 10.2712 18.1667 10.0833Z" fill="#0086b2"/>
</g>
<defs>
<clipPath id="clip0_538_3279">
<rect width="17" height="17" fill="white" transform="translate(4 3)"/>
</clipPath>
</defs>
</svg>
