<svg width="24" height="24" viewBox="0 0 24 24" fill="none" xmlns="http://www.w3.org/2000/svg">
<path fill-rule="evenodd" clip-rule="evenodd" d="M21.3082 9.22406C20.988 9.33215 20.623 9.17942 20.4928 8.88286C19.3321 6.23905 16.8301 4.30895 13.7998 3.71993L12.779 3.5215L13.1734 4.04873C13.3716 4.31366 13.3028 4.66748 13.0198 4.83898C12.7367 5.0103 12.3467 4.93449 12.1483 4.66957L10.8873 2.98402C10.6891 2.71907 10.7579 2.36525 11.0409 2.19381L12.8415 1.10335C12.983 1.01766 13.1513 0.993739 13.3091 1.0244C13.4667 1.05505 13.6138 1.14027 13.713 1.27274C13.9111 1.53773 13.8424 1.8915 13.5593 2.063L12.9961 2.40409L14.017 2.60252C17.4739 3.27448 20.3282 5.47596 21.6521 8.49143C21.7823 8.78795 21.6283 9.11595 21.3082 9.22406Z" fill="#0086b2"/>
<path d="M12.164 14.4611L15.2911 12.512" stroke="#0086b2" stroke-width="1.5" stroke-linecap="round" stroke-linejoin="round"/>
<path d="M17.727 14.2073H20.0833" stroke="#0086b2" stroke-width="1.5" stroke-linecap="round"/>
<path d="M3.58908 14.2073H5.94541" stroke="#0086b2" stroke-width="1.5" stroke-linecap="round"/>
<path d="M17.1379 11.2618L18.9784 10.0836" stroke="#0086b2" stroke-width="1.5" stroke-linecap="round"/>
<path d="M4.69397 18.3309L6.73461 17.1527" stroke="#0086b2" stroke-width="1.5" stroke-linecap="round"/>
<path d="M15.3707 8.23158L16.0494 7.19634" stroke="#0086b2" stroke-width="1.5" stroke-linecap="round"/>
<path d="M7.71265 21.3495L8.89081 19.3088" stroke="#0086b2" stroke-width="1.5" stroke-linecap="round"/>
<path d="M11.8362 6.38758V6.32098" stroke="#0086b2" stroke-width="1.5" stroke-linecap="round"/>
<path d="M11.8362 22.4544V20.098" stroke="#0086b2" stroke-width="1.5" stroke-linecap="round"/>
<path d="M8.89081 9.1057L7.71265 7.06506" stroke="#0086b2" stroke-width="1.5" stroke-linecap="round"/>
<path d="M15.9598 21.3495L14.7816 19.3088" stroke="#0086b2" stroke-width="1.5" stroke-linecap="round"/>
<path d="M6.73461 11.2618L4.69397 10.0836" stroke="#0086b2" stroke-width="1.5" stroke-linecap="round"/>
<path d="M18.9784 18.3309L16.9378 17.1527" stroke="#0086b2" stroke-width="1.5" stroke-linecap="round"/>
</svg>
