<svg width="24" height="24" viewBox="0 0 24 24" fill="none" xmlns="http://www.w3.org/2000/svg">
<g clip-path="url(#clip0_538_3286)">
<path d="M16.75 9.02078C16.75 9.49044 16.5634 9.94086 16.2313 10.273C15.8992 10.605 15.4488 10.7916 14.9792 10.7916C14.5095 10.7916 14.0591 10.605 13.727 10.273C13.3949 9.94086 13.2083 9.49044 13.2083 9.02078C13.2083 8.55113 13.3949 8.10071 13.727 7.76861C14.0591 7.43652 14.5095 7.24995 14.9792 7.24995C15.4488 7.24995 15.8992 7.43652 16.2313 7.76861C16.5634 8.10071 16.75 8.55113 16.75 9.02078V9.02078ZM16.7457 13.8842C16.7068 15.0096 16.4259 16.1135 15.9219 17.1206C15.4577 17.9986 14.7605 18.7318 13.907 19.2397C13.0534 19.7476 12.0765 20.0107 11.0833 19.9999H10.375V16.1041C10.3718 15.4476 10.1096 14.8188 9.64536 14.3546C9.18111 13.8903 8.55237 13.6281 7.89583 13.6249H3.99999V12.9166C3.98927 11.9234 4.2523 10.9465 4.76022 10.093C5.26814 9.23943 6.00133 8.54228 6.87937 8.07799C7.88645 7.57408 8.9903 7.29311 10.1157 7.2542C11.1477 5.92129 12.4729 4.84412 13.9886 4.10632C15.5042 3.36851 17.1695 2.98993 18.8552 2.99995V2.99995C19.1356 2.99818 19.4137 3.05179 19.6735 3.15771C19.9332 3.26363 20.1695 3.41977 20.3687 3.61719C20.568 3.81461 20.7263 4.04941 20.8346 4.30815C20.943 4.56688 20.9992 4.84445 21 5.12495C21.012 6.81377 20.6344 8.48261 19.8966 10.0018C19.1587 11.5209 18.0805 12.8495 16.7457 13.8842V13.8842ZM5.47616 12.2083H7.07841C7.60445 11.0367 8.22239 9.90857 8.92645 8.83449C8.43743 8.94826 7.96357 9.11945 7.51474 9.34449C6.97495 9.62953 6.50941 10.037 6.1554 10.5343C5.8014 11.0316 5.56878 11.6049 5.47616 12.2083V12.2083ZM15.1654 15.0735C14.0914 15.7775 12.9633 16.3955 11.7917 16.9215V18.5238C12.395 18.4312 12.9683 18.1985 13.4656 17.8445C13.9629 17.4905 14.3704 17.025 14.6555 16.4852C14.8805 16.0364 15.0517 15.5625 15.1654 15.0735V15.0735ZM19.5833 5.10512C19.5782 4.92071 19.5013 4.7456 19.369 4.61702C19.2367 4.48844 19.0595 4.41654 18.875 4.41662C15.22 4.52074 12.7479 5.92112 10.3622 9.24887C9.69651 10.2074 9.11109 11.2193 8.61195 12.2742C9.38539 12.4182 10.0971 12.7931 10.6534 13.3494C11.2097 13.9057 11.5846 14.6174 11.7286 15.3908C12.7835 14.8917 13.7954 14.3063 14.7539 13.6405C18.0788 11.252 19.4792 8.77995 19.5833 5.10512ZM8.33641 15.6642C8.7322 16.0641 8.95422 16.604 8.95422 17.1666C8.95422 17.7292 8.7322 18.2691 8.33641 18.669C7.69395 19.3107 5.77083 19.7067 4.97324 19.8477L3.97733 20.0226L4.15228 19.0267C4.29395 18.2291 4.6892 16.306 5.33095 15.6635C5.73594 15.2773 6.27415 15.0618 6.83382 15.0619C7.39349 15.0621 7.9316 15.2778 8.33641 15.6642V15.6642ZM7.54166 17.1666C7.54191 17.0736 7.5237 16.9814 7.48807 16.8954C7.45245 16.8095 7.40012 16.7314 7.33412 16.6658C7.20128 16.533 7.02115 16.4584 6.83333 16.4584C6.6455 16.4584 6.46537 16.533 6.33253 16.6658C6.06248 17.1533 5.87281 17.6812 5.77083 18.2291C6.31894 18.1267 6.84701 17.9368 7.33483 17.6667C7.40061 17.6011 7.45276 17.5232 7.48826 17.4373C7.52376 17.3515 7.54191 17.2595 7.54166 17.1666V17.1666Z" fill="#0086b2"/>
</g>
<defs>
<clipPath id="clip0_538_3286">
<rect width="17" height="17" fill="white" transform="translate(4 3)"/>
</clipPath>
</defs>
</svg>
