<svg width="24" height="24" viewBox="0 0 24 24" fill="none" xmlns="http://www.w3.org/2000/svg">
<g clip-path="url(#clip0_538_3223)">
<path d="M7.8125 14.9375H6.25C5.91848 14.9375 5.60054 15.0692 5.36612 15.3036C5.1317 15.538 5 15.856 5 16.1875V17.75C5 18.0815 5.1317 18.3995 5.36612 18.6339C5.60054 18.8683 5.91848 19 6.25 19H7.8125C8.14402 19 8.46196 18.8683 8.69638 18.6339C8.9308 18.3995 9.0625 18.0815 9.0625 17.75V16.1875C9.0625 15.856 8.9308 15.538 8.69638 15.3036C8.46196 15.0692 8.14402 14.9375 7.8125 14.9375ZM7.8125 17.75H6.25V16.1875H7.8125V17.75Z" fill="#0086b2"/>
<path d="M18.75 14.9375H17.1875C16.856 14.9375 16.538 15.0692 16.3036 15.3036C16.0692 15.538 15.9375 15.856 15.9375 16.1875V17.75C15.9375 18.0815 16.0692 18.3995 16.3036 18.6339C16.538 18.8683 16.856 19 17.1875 19H18.75C19.0815 19 19.3994 18.8683 19.6339 18.6339C19.8683 18.3995 20 18.0815 20 17.75V16.1875C20 15.856 19.8683 15.538 19.6339 15.3036C19.3994 15.0692 19.0815 14.9375 18.75 14.9375ZM18.75 17.75H17.1875V16.1875H18.75V17.75Z" fill="#0086b2"/>
<path d="M7.8125 9.46875H6.25C5.91848 9.46875 5.60054 9.60045 5.36612 9.83487C5.1317 10.0693 5 10.3872 5 10.7188V12.2813C5 12.6128 5.1317 12.9307 5.36612 13.1651C5.60054 13.3996 5.91848 13.5313 6.25 13.5313H7.8125C8.14402 13.5313 8.46196 13.3996 8.69638 13.1651C8.9308 12.9307 9.0625 12.6128 9.0625 12.2813V10.7188C9.0625 10.3872 8.9308 10.0693 8.69638 9.83487C8.46196 9.60045 8.14402 9.46875 7.8125 9.46875ZM7.8125 12.2813H6.25V10.7188H7.8125V12.2813Z" fill="#0086b2"/>
<path d="M18.75 9.46875H17.1875C16.856 9.46875 16.538 9.60045 16.3036 9.83487C16.0692 10.0693 15.9375 10.3872 15.9375 10.7188V12.2813C15.9375 12.6128 16.0692 12.9307 16.3036 13.1651C16.538 13.3996 16.856 13.5313 17.1875 13.5313H18.75C19.0815 13.5313 19.3994 13.3996 19.6339 13.1651C19.8683 12.9307 20 12.6128 20 12.2813V10.7188C20 10.3872 19.8683 10.0693 19.6339 9.83487C19.3994 9.60045 19.0815 9.46875 18.75 9.46875ZM18.75 12.2813H17.1875V10.7188H18.75V12.2813Z" fill="#0086b2"/>
<path d="M7.8125 4H6.25C5.91848 4 5.60054 4.1317 5.36612 4.36612C5.1317 4.60054 5 4.91848 5 5.25V6.8125C5 7.14402 5.1317 7.46196 5.36612 7.69638C5.60054 7.9308 5.91848 8.0625 6.25 8.0625H7.8125C8.14402 8.0625 8.46196 7.9308 8.69638 7.69638C8.9308 7.46196 9.0625 7.14402 9.0625 6.8125V5.25C9.0625 4.91848 8.9308 4.60054 8.69638 4.36612C8.46196 4.1317 8.14402 4 7.8125 4V4ZM7.8125 6.8125H6.25V5.25H7.8125V6.8125Z" fill="#0086b2"/>
<path d="M13.2813 14.9375H11.7188C11.3872 14.9375 11.0693 15.0692 10.8349 15.3036C10.6005 15.538 10.4688 15.856 10.4688 16.1875V17.75C10.4688 18.0815 10.6005 18.3995 10.8349 18.6339C11.0693 18.8683 11.3872 19 11.7188 19H13.2813C13.6128 19 13.9307 18.8683 14.1651 18.6339C14.3996 18.3995 14.5313 18.0815 14.5313 17.75V16.1875C14.5313 15.856 14.3996 15.538 14.1651 15.3036C13.9307 15.0692 13.6128 14.9375 13.2813 14.9375ZM13.2813 17.75H11.7188V16.1875H13.2813V17.75Z" fill="#0086b2"/>
<path d="M13.2813 9.46875H11.7188C11.3872 9.46875 11.0693 9.60045 10.8349 9.83487C10.6005 10.0693 10.4688 10.3872 10.4688 10.7188V12.2813C10.4688 12.6128 10.6005 12.9307 10.8349 13.1651C11.0693 13.3996 11.3872 13.5313 11.7188 13.5313H13.2813C13.6128 13.5313 13.9307 13.3996 14.1651 13.1651C14.3996 12.9307 14.5313 12.6128 14.5313 12.2813V10.7188C14.5313 10.3872 14.3996 10.0693 14.1651 9.83487C13.9307 9.60045 13.6128 9.46875 13.2813 9.46875ZM13.2813 12.2813H11.7188V10.7188H13.2813V12.2813Z" fill="#0086b2"/>
<path d="M13.2813 4H11.7188C11.3872 4 11.0693 4.1317 10.8349 4.36612C10.6005 4.60054 10.4688 4.91848 10.4688 5.25V6.8125C10.4688 7.14402 10.6005 7.46196 10.8349 7.69638C11.0693 7.9308 11.3872 8.0625 11.7188 8.0625H13.2813C13.6128 8.0625 13.9307 7.9308 14.1651 7.69638C14.3996 7.46196 14.5313 7.14402 14.5313 6.8125V5.25C14.5313 4.91848 14.3996 4.60054 14.1651 4.36612C13.9307 4.1317 13.6128 4 13.2813 4V4ZM13.2813 6.8125H11.7188V5.25H13.2813V6.8125Z" fill="#0086b2"/>
<path d="M18.75 4H17.1875C16.856 4 16.538 4.1317 16.3036 4.36612C16.0692 4.60054 15.9375 4.91848 15.9375 5.25V6.8125C15.9375 7.14402 16.0692 7.46196 16.3036 7.69638C16.538 7.9308 16.856 8.0625 17.1875 8.0625H18.75C19.0815 8.0625 19.3994 7.9308 19.6339 7.69638C19.8683 7.46196 20 7.14402 20 6.8125V5.25C20 4.91848 19.8683 4.60054 19.6339 4.36612C19.3994 4.1317 19.0815 4 18.75 4V4ZM18.75 6.8125H17.1875V5.25H18.75V6.8125Z" fill="#0086b2"/>
<rect x="11.585" y="5.41003" width="1.245" height="3.69" transform="rotate(90 11.585 5.41003)" fill="#0086b2"/>
<rect x="17.105" y="16.36" width="1.245" height="3.69" transform="rotate(90 17.105 16.36)" fill="#0086b2"/>
<rect x="11.87" y="6.84998" width="1.245" height="3.69" fill="#0086b2"/>
<rect x="11.87" y="12.385" width="1.245" height="3.69" fill="#0086b2"/>
</g>
<defs>
<clipPath id="clip0_538_3223">
<rect width="15" height="15" fill="white" transform="translate(5 4)"/>
</clipPath>
</defs>
</svg>
