<svg width="24" height="24" viewBox="0 0 24 24" fill="none" xmlns="http://www.w3.org/2000/svg">
<path fill-rule="evenodd" clip-rule="evenodd" d="M3 8.4497C3 7.09677 4.20278 6 5.68648 6H13.4734C14.9571 6 16.1598 7.09677 16.1598 8.4497V9.1334L19.5208 7.60104C20.6598 7.08171 22 7.837 22 8.99825V15.0017C22 16.163 20.6598 16.9183 19.5208 16.399L16.1598 14.8666V15.5503C16.1598 16.9032 14.9571 18 13.4734 18H5.68648C4.20278 18 3 16.9032 3 15.5503V8.4497ZM14.6803 13.7605C14.6801 13.7699 14.6801 13.7793 14.6803 13.7887V15.5503C14.6803 16.1581 14.14 16.6509 13.4734 16.6509H5.68648C5.01989 16.6509 4.47951 16.1581 4.47951 15.5503V8.4497C4.47951 7.84186 5.01989 7.34911 5.68648 7.34911H13.4734C14.14 7.34911 14.6803 7.84186 14.6803 8.4497V10.2113C14.6801 10.2207 14.6801 10.2301 14.6803 10.2395V13.7605ZM16.1598 13.3582L20.1824 15.1923C20.3377 15.2631 20.5205 15.1601 20.5205 15.0017V8.99825C20.5205 8.8399 20.3377 8.73691 20.1824 8.80773L16.1598 10.6418V13.3582Z" fill="#0086b2"/>
</svg>
