<svg width="24" height="24" viewBox="0 0 24 24" fill="none" xmlns="http://www.w3.org/2000/svg">
<path d="M16.9383 4.41667H16.23V3.70833C16.23 3.31733 15.9134 3 15.5217 3C15.13 3 14.8133 3.31733 14.8133 3.70833V4.41667H9.14668V3.70833C9.14668 3.31733 8.83005 3 8.43834 3C8.04664 3 7.73001 3.31733 7.73001 3.70833V4.41667H7.02168C5.0688 4.41667 3.48001 6.00546 3.48001 7.95833V16.4583C3.48001 18.4112 5.0688 20 7.02168 20H16.9383C18.8912 20 20.48 18.4112 20.48 16.4583V7.95833C20.48 6.00546 18.8912 4.41667 16.9383 4.41667ZM7.02168 5.83333H16.9383C18.1099 5.83333 19.0633 6.78675 19.0633 7.95833V8.66667H4.89668V7.95833C4.89668 6.78675 5.85009 5.83333 7.02168 5.83333ZM16.9383 18.5833H7.02168C5.85009 18.5833 4.89668 17.6299 4.89668 16.4583V10.0833H19.0633V16.4583C19.0633 17.6299 18.1099 18.5833 16.9383 18.5833ZM16.111 12.316C16.383 12.5972 16.3745 13.0463 16.0933 13.3176L12.7358 16.5533C12.3441 16.945 11.81 17.1667 11.2426 17.1667C10.6753 17.1667 10.1412 16.9457 9.74026 16.544L8.14509 15.0622C7.85893 14.7959 7.84193 14.3475 8.10826 14.0613C8.37601 13.7745 8.82368 13.7589 9.10914 14.0245L10.7227 15.524C11.0294 15.8286 11.4757 15.8088 11.742 15.5425L15.1094 12.2969C15.3913 12.0256 15.839 12.0348 16.111 12.316Z" fill="#0086b2"/>
</svg>
