<svg width="430" height="131" viewBox="0 0 430 131" fill="none" xmlns="http://www.w3.org/2000/svg">
<g clip-path="url(#clip0_58_12627)">
<path d="M429.5 130.5V12.8065C358 0.609803 277.902 53.9785 259.5 59.1098C210.499 72.7734 158.855 -17.6709 56.8547 56.6429C4.93508 94.4697 68 130.5 95 130.5C122 130.5 290 129.5 429.5 130.5Z" fill="url(#paint0_linear_58_12627)"/>
<path d="M329.572 81.7072C220.796 73.9961 151.408 94.7637 123.85 97.2507C56.1736 109.265 20.0808 118.012 0 130H430V95.6518C423.805 91.5069 365.5 84.254 329.572 81.7072Z" fill="url(#paint1_linear_58_12627)"/>
<path d="M100.887 119.331C84.9336 109.307 74.1462 118.515 70.7466 124.372L69.0752 133.71L181.018 118.204C176.116 114.79 165.58 107.203 162.659 104.174C159.007 100.387 149.046 97.0556 142.39 108.969C135.673 103.279 122.757 107.489 121.384 113.529C114.907 109.766 106.857 110.438 100.887 119.331Z" fill="url(#paint2_linear_58_12627)"/>
<path d="M255.036 106.116C235.184 93.1177 218.993 101.498 213.379 107.313L209.5 117.109L363.665 116.119C357.622 111.766 344.68 102.143 341.251 98.4802C336.964 93.9017 324.063 88.9301 312.992 100.794C304.888 93.743 286.682 96.4574 283.779 102.753C275.664 97.8051 264.655 97.4001 255.036 106.116Z" fill="url(#paint3_linear_58_12627)"/>
<path fill-rule="evenodd" clip-rule="evenodd" d="M217.463 114.516L217.463 96.6536L219.463 96.6536L219.463 114.516L217.463 114.516Z" fill="#B8B491"/>
<path d="M218.464 66.2875L236.682 98.8226H200.245L218.464 66.2875Z" fill="url(#paint4_linear_58_12627)"/>
<path d="M218.464 60.9288L235.28 90.5931H201.647L218.464 60.9288Z" fill="url(#paint5_linear_58_12627)"/>
<path d="M218.463 55.8252L233.879 83.5758H203.048L218.463 55.8252Z" fill="url(#paint6_linear_58_12627)"/>
<path d="M218.62 48L234.036 75.7505H203.205L218.62 48Z" fill="url(#paint7_linear_58_12627)"/>
<path d="M218.441 48L226.257 62.1826C226.257 62.1826 219.73 69.9185 218.441 62.1826C217.152 54.4466 210.625 62.1826 210.625 62.1826L218.441 48Z" fill="url(#paint8_linear_58_12627)"/>
<path fill-rule="evenodd" clip-rule="evenodd" d="M177.859 105.451L177.859 91.985L179.859 91.985L179.859 105.451L177.859 105.451Z" fill="#B8B491"/>
<path d="M178.859 69.0923L192.594 93.6202H165.125L178.859 69.0923Z" fill="url(#paint9_linear_58_12627)"/>
<path d="M178.859 65.0524L191.537 87.416H166.181L178.859 65.0524Z" fill="url(#paint10_linear_58_12627)"/>
<path d="M178.859 61.2049L190.481 82.1257H167.238L178.859 61.2049Z" fill="url(#paint11_linear_58_12627)"/>
<path d="M178.859 55.4336L190.481 76.3545H167.238L178.859 55.4336Z" fill="url(#paint12_linear_58_12627)"/>
<path d="M179.004 54.8764L186.821 69.059C186.821 69.059 185.801 78.1607 183.222 71.461C180.643 64.7612 179.354 67.7697 178.065 72.4972C176.775 77.2247 171.188 69.059 171.188 69.059L179.004 54.8764Z" fill="url(#paint13_linear_58_12627)"/>
<path fill-rule="evenodd" clip-rule="evenodd" d="M350.55 104.344L350.55 88.0553L352.55 88.0553L352.55 104.344L350.55 104.344Z" fill="#B8B491"/>
<path d="M351.55 60.365L369.014 90.0333H334.085L351.55 60.365Z" fill="url(#paint14_linear_58_12627)"/>
<path d="M351.55 55.4784L367.671 82.5289H335.428L351.55 55.4784Z" fill="url(#paint15_linear_58_12627)"/>
<path d="M351.55 50.8246L366.327 76.1299H336.772L351.55 50.8246Z" fill="url(#paint16_linear_58_12627)"/>
<path d="M351.55 43.8438L366.327 69.1491H336.772L351.55 43.8438Z" fill="url(#paint17_linear_58_12627)"/>
<path d="M351.5 43.8438L343.5 57.5267C343.5 57.5267 352.68 70.8072 354 63.3438C355.32 55.8804 359.5 57.5267 359.5 57.5267L351.5 43.8438Z" fill="url(#paint18_linear_58_12627)"/>
<path fill-rule="evenodd" clip-rule="evenodd" d="M391.333 90.3438L391.333 81.9977L392.333 81.9977L392.333 90.3438L391.333 90.3438Z" fill="#B8B491"/>
<path d="M391.833 67.8092L400.782 83.0111H382.884L391.833 67.8092Z" fill="url(#paint19_linear_58_12627)"/>
<path d="M391.833 65.3054L400.094 79.1659H383.573L391.833 65.3054Z" fill="url(#paint20_linear_58_12627)"/>
<path d="M391.833 62.9207L399.406 75.8871H384.261L391.833 62.9207Z" fill="url(#paint21_linear_58_12627)"/>
<path d="M391.833 59.3438L399.406 72.3102H384.261L391.833 59.3438Z" fill="url(#paint22_linear_58_12627)"/>
<path d="M392 58.8438L396 66.3438C396 66.3438 391.336 74.2023 390.594 70.0895C389.851 65.9767 388 65.8438 388 65.8438L392 58.8438Z" fill="url(#paint23_linear_58_12627)"/>
<path fill-rule="evenodd" clip-rule="evenodd" d="M317.333 86.3438L317.333 77.9977L318.333 77.9977L318.333 86.3438L317.333 86.3438Z" fill="#B8B491"/>
<path d="M317.833 63.8092L326.782 79.0111H308.884L317.833 63.8092Z" fill="url(#paint24_linear_58_12627)"/>
<path d="M317.833 61.3054L326.094 75.1659H309.573L317.833 61.3054Z" fill="url(#paint25_linear_58_12627)"/>
<path d="M317.833 58.9207L325.406 71.8871H310.261L317.833 58.9207Z" fill="url(#paint26_linear_58_12627)"/>
<path d="M317.833 55.3438L325.406 68.3102H310.261L317.833 55.3438Z" fill="url(#paint27_linear_58_12627)"/>
<path d="M318 54.8438L322 62.3438C322 62.3438 317.336 70.2023 316.594 66.0895C315.851 61.9767 314 61.8438 314 61.8438L318 54.8438Z" fill="url(#paint28_linear_58_12627)"/>
<path fill-rule="evenodd" clip-rule="evenodd" d="M130.333 106.344L130.333 97.9977L131.333 97.9977L131.333 106.344L130.333 106.344Z" fill="#B8B491"/>
<path d="M130.833 83.8092L139.782 99.0111H121.884L130.833 83.8092Z" fill="url(#paint29_linear_58_12627)"/>
<path d="M130.833 81.3054L139.094 95.1659H122.573L130.833 81.3054Z" fill="url(#paint30_linear_58_12627)"/>
<path d="M130.833 78.9207L138.406 91.8871H123.261L130.833 78.9207Z" fill="url(#paint31_linear_58_12627)"/>
<path d="M130.833 75.3438L138.406 88.3102H123.261L130.833 75.3438Z" fill="url(#paint32_linear_58_12627)"/>
<path d="M131 74.8438L135 82.3438C135 82.3438 130.336 90.2023 129.594 86.0895C128.851 81.9767 127 81.8438 127 81.8438L131 74.8438Z" fill="url(#paint33_linear_58_12627)"/>
<path d="M159.009 120.443C141.052 107.152 126.49 115.868 121.453 121.887L118 132L257 130.194C251.532 125.74 239.819 115.892 236.711 112.136C232.826 107.441 221.171 102.384 211.242 114.664C203.904 107.441 187.5 110.33 184.91 116.831C177.571 111.775 167.643 111.414 159.009 120.443Z" fill="url(#paint34_linear_58_12627)"/>
<path d="M380.857 107.679C392.743 98.1093 402.381 104.385 405.714 108.719L408 116L316 114.7C319.619 111.493 327.371 104.402 329.429 101.698C332 98.3173 339.714 94.6768 346.286 103.518C351.143 98.3173 362 100.398 363.714 105.078C368.571 101.438 375.143 101.178 380.857 107.679Z" fill="url(#paint35_linear_58_12627)"/>
<path d="M169.906 13.1193L170.039 15.6587L172.495 16.3168L170.121 17.2281L170.254 19.7675L168.654 17.7913L166.28 18.7026L167.665 16.57L166.065 14.5938L168.521 15.2519L169.906 13.1193Z" fill="white"/>
<path d="M146.693 55.7497L146.826 58.2891L149.282 58.9472L146.908 59.8585L147.041 62.398L145.441 60.4218L143.067 61.333L144.452 59.2004L142.851 57.2242L145.308 57.8823L146.693 55.7497Z" fill="white"/>
<path d="M222.881 37.7497L224.266 39.8823L226.722 39.2242L225.122 41.2004L226.507 43.333L224.133 42.4217L222.532 44.3979L222.665 41.8585L220.291 40.9472L222.748 40.2891L222.881 37.7497Z" fill="white"/>
<path d="M103.381 58.9059L104.766 61.0385L107.222 60.3804L105.622 62.3566L107.007 64.4892L104.633 63.5779L103.032 65.5541L103.165 63.0147L100.791 62.1034L103.248 61.4453L103.381 58.9059Z" fill="white"/>
<path d="M323.881 38.7497L325.266 40.8823L327.722 40.2242L326.122 42.2004L327.507 44.333L325.133 43.4217L323.532 45.3979L323.665 42.8585L321.291 41.9472L323.748 41.2891L323.881 38.7497Z" fill="white"/>
<path d="M330.767 18.4483L329.694 20.4416L331.258 22.0778L329.031 21.6735L327.958 23.6667L327.655 21.4236L325.427 21.0193L327.467 20.0373L327.163 17.7941L328.727 19.4303L330.767 18.4483Z" fill="white"/>
<path d="M210.881 0.905865L212.266 3.03852L214.722 2.38037L213.122 4.35657L214.507 6.48923L212.133 5.57793L210.532 7.55414L210.665 5.01472L208.291 4.10343L210.748 3.44528L210.881 0.905865Z" fill="white"/>
<path d="M400.525 5.02513L402.791 6.17958L404.589 4.38148L404.191 6.89307L406.457 8.04753L403.945 8.44532L403.548 10.9569L402.393 8.69117L399.881 9.08897L401.68 7.29087L400.525 5.02513Z" fill="white"/>
<path d="M373.975 40.3187L376.241 41.4731L378.039 39.675L377.641 42.1866L379.907 43.3411L377.395 43.7389L376.997 46.2505L375.843 43.9847L373.331 44.3825L375.129 42.5844L373.975 40.3187Z" fill="white"/>
<path d="M112 19L112.786 21.4184H115.329L113.271 22.9131L114.057 25.3316L112 23.8369L109.943 25.3316L110.729 22.9131L108.671 21.4184H111.214L112 19Z" fill="white"/>
<path d="M304.881 10.9059L306.266 13.0385L308.722 12.3804L307.122 14.3566L308.507 16.4892L306.133 15.5779L304.532 17.5541L304.665 15.0147L302.291 14.1034L304.748 13.4453L304.881 10.9059Z" fill="white"/>
<path d="M201.209 23.1277L202.933 25.7825L205.99 24.9632L203.998 27.4233L205.722 30.0781L202.767 28.9437L200.775 31.4038L200.94 28.2426L197.985 27.1081L201.043 26.2888L201.209 23.1277Z" fill="white"/>
<path d="M280.629 10.25L279.647 14.8693L283.737 17.2306L279.04 17.7242L278.059 22.3435L276.138 18.0293L271.441 18.5229L274.951 15.363L273.03 11.0487L277.12 13.41L280.629 10.25Z" fill="white"/>
<path d="M355.046 6.18197L353.562 9.09507L355.873 11.4069L352.644 10.8955L351.16 13.8086L350.649 10.5794L347.419 10.0679L350.332 8.58361L349.821 5.35443L352.133 7.66627L355.046 6.18197Z" fill="white"/>
<path fill-rule="evenodd" clip-rule="evenodd" d="M253.67 10.7663C246.643 15.6337 244.59 25.2104 249.143 32.561C253.844 40.1514 263.809 42.4937 271.399 37.7925C271.773 37.5612 272.133 37.3172 272.481 37.0613C271.06 41.3707 268.174 45.2233 264.014 47.7995C254.616 53.62 242.28 50.7201 236.459 41.3224C230.638 31.9247 233.538 19.5878 242.936 13.7673C246.284 11.6939 250.004 10.727 253.67 10.7663Z" fill="white"/>
<path d="M317.558 120.894C297.699 109.258 281.512 116.744 275.901 121.942L272.027 130.702L426.191 129.897C420.146 126 407.199 117.387 403.768 114.11C399.479 110.013 386.575 105.56 375.511 116.165C367.403 109.854 349.199 112.272 346.298 117.901C338.181 113.472 327.172 113.104 317.558 120.894Z" fill="url(#paint36_linear_58_12627)"/>
</g>
<defs>
<linearGradient id="paint0_linear_58_12627" x1="278.855" y1="-8.04319" x2="249.855" y2="123.957" gradientUnits="userSpaceOnUse">
<stop stop-color="#A3D1D9"/>
<stop offset="1" stop-color="#CBEAEF"/>
</linearGradient>
<linearGradient id="paint1_linear_58_12627" x1="226.312" y1="93.5366" x2="226.312" y2="126.036" gradientUnits="userSpaceOnUse">
<stop stop-color="white"/>
<stop offset="1" stop-color="white" stop-opacity="0"/>
</linearGradient>
<linearGradient id="paint2_linear_58_12627" x1="121.464" y1="102.757" x2="123.828" y2="114.543" gradientUnits="userSpaceOnUse">
<stop stop-color="white"/>
<stop offset="1" stop-color="white" stop-opacity="0"/>
</linearGradient>
<linearGradient id="paint3_linear_58_12627" x1="285.751" y1="91.1944" x2="286.459" y2="104.208" gradientUnits="userSpaceOnUse">
<stop stop-color="white"/>
<stop offset="1" stop-color="white" stop-opacity="0"/>
</linearGradient>
<linearGradient id="paint4_linear_58_12627" x1="218.464" y1="81.9809" x2="218.464" y2="97.9295" gradientUnits="userSpaceOnUse">
<stop stop-color="#7CB99C"/>
<stop offset="1" stop-color="#B3D9C7"/>
</linearGradient>
<linearGradient id="paint5_linear_58_12627" x1="218.464" y1="75.2374" x2="218.464" y2="89.7788" gradientUnits="userSpaceOnUse">
<stop stop-color="#7CB99C"/>
<stop offset="1" stop-color="#B3D9C7"/>
</linearGradient>
<linearGradient id="paint6_linear_58_12627" x1="218.463" y1="69.2108" x2="218.463" y2="82.814" gradientUnits="userSpaceOnUse">
<stop stop-color="#7CB99C"/>
<stop offset="1" stop-color="#B3D9C7"/>
</linearGradient>
<linearGradient id="paint7_linear_58_12627" x1="221.048" y1="41.6206" x2="219.537" y2="75.0302" gradientUnits="userSpaceOnUse">
<stop stop-color="#85C2A5"/>
<stop offset="1" stop-color="#B3D9C7"/>
</linearGradient>
<linearGradient id="paint8_linear_58_12627" x1="216.722" y1="51.0084" x2="211.628" y2="69.9183" gradientUnits="userSpaceOnUse">
<stop stop-color="white"/>
<stop offset="1" stop-color="white" stop-opacity="0"/>
</linearGradient>
<linearGradient id="paint9_linear_58_12627" x1="178.859" y1="80.9234" x2="178.859" y2="92.9468" gradientUnits="userSpaceOnUse">
<stop stop-color="#7CB99C"/>
<stop offset="1" stop-color="#B3D9C7"/>
</linearGradient>
<linearGradient id="paint10_linear_58_12627" x1="178.859" y1="75.8396" x2="178.859" y2="86.8021" gradientUnits="userSpaceOnUse">
<stop stop-color="#7CB99C"/>
<stop offset="1" stop-color="#B3D9C7"/>
</linearGradient>
<linearGradient id="paint11_linear_58_12627" x1="178.859" y1="71.2961" x2="178.859" y2="81.5514" gradientUnits="userSpaceOnUse">
<stop stop-color="#7CB99C"/>
<stop offset="1" stop-color="#B3D9C7"/>
</linearGradient>
<linearGradient id="paint12_linear_58_12627" x1="180.689" y1="50.6242" x2="179.55" y2="75.8114" gradientUnits="userSpaceOnUse">
<stop stop-color="#85C2A5"/>
<stop offset="1" stop-color="#B3D9C7"/>
</linearGradient>
<linearGradient id="paint13_linear_58_12627" x1="177.285" y1="57.8848" x2="172.192" y2="76.7947" gradientUnits="userSpaceOnUse">
<stop stop-color="white"/>
<stop offset="1" stop-color="white" stop-opacity="0"/>
</linearGradient>
<linearGradient id="paint14_linear_58_12627" x1="351.55" y1="74.6756" x2="351.55" y2="89.2188" gradientUnits="userSpaceOnUse">
<stop stop-color="#7CB99C"/>
<stop offset="1" stop-color="#B3D9C7"/>
</linearGradient>
<linearGradient id="paint15_linear_58_12627" x1="351.55" y1="68.5263" x2="351.55" y2="81.7863" gradientUnits="userSpaceOnUse">
<stop stop-color="#7CB99C"/>
<stop offset="1" stop-color="#B3D9C7"/>
</linearGradient>
<linearGradient id="paint16_linear_58_12627" x1="351.55" y1="63.0307" x2="351.55" y2="75.4352" gradientUnits="userSpaceOnUse">
<stop stop-color="#7CB99C"/>
<stop offset="1" stop-color="#B3D9C7"/>
</linearGradient>
<linearGradient id="paint17_linear_58_12627" x1="353.876" y1="38.0265" x2="352.566" y2="68.4981" gradientUnits="userSpaceOnUse">
<stop stop-color="#85C2A5"/>
<stop offset="1" stop-color="#B3D9C7"/>
</linearGradient>
<linearGradient id="paint18_linear_58_12627" x1="353.26" y1="46.7463" x2="357.927" y2="65.1286" gradientUnits="userSpaceOnUse">
<stop stop-color="white"/>
<stop offset="1" stop-color="white" stop-opacity="0"/>
</linearGradient>
<linearGradient id="paint19_linear_58_12627" x1="391.833" y1="75.1419" x2="391.833" y2="82.5938" gradientUnits="userSpaceOnUse">
<stop stop-color="#7CB99C"/>
<stop offset="1" stop-color="#B3D9C7"/>
</linearGradient>
<linearGradient id="paint20_linear_58_12627" x1="391.833" y1="71.991" x2="391.833" y2="78.7854" gradientUnits="userSpaceOnUse">
<stop stop-color="#7CB99C"/>
<stop offset="1" stop-color="#B3D9C7"/>
</linearGradient>
<linearGradient id="paint21_linear_58_12627" x1="391.833" y1="69.1751" x2="391.833" y2="75.5311" gradientUnits="userSpaceOnUse">
<stop stop-color="#7CB99C"/>
<stop offset="1" stop-color="#B3D9C7"/>
</linearGradient>
<linearGradient id="paint22_linear_58_12627" x1="393.026" y1="56.363" x2="392.354" y2="71.9766" gradientUnits="userSpaceOnUse">
<stop stop-color="#85C2A5"/>
<stop offset="1" stop-color="#B3D9C7"/>
</linearGradient>
<linearGradient id="paint23_linear_58_12627" x1="391.01" y1="60.9432" x2="388.484" y2="71.0978" gradientUnits="userSpaceOnUse">
<stop stop-color="white"/>
<stop offset="1" stop-color="white" stop-opacity="0"/>
</linearGradient>
<linearGradient id="paint24_linear_58_12627" x1="317.833" y1="71.1419" x2="317.833" y2="78.5938" gradientUnits="userSpaceOnUse">
<stop stop-color="#7CB99C"/>
<stop offset="1" stop-color="#B3D9C7"/>
</linearGradient>
<linearGradient id="paint25_linear_58_12627" x1="317.833" y1="67.991" x2="317.833" y2="74.7854" gradientUnits="userSpaceOnUse">
<stop stop-color="#7CB99C"/>
<stop offset="1" stop-color="#B3D9C7"/>
</linearGradient>
<linearGradient id="paint26_linear_58_12627" x1="317.833" y1="65.1751" x2="317.833" y2="71.5311" gradientUnits="userSpaceOnUse">
<stop stop-color="#7CB99C"/>
<stop offset="1" stop-color="#B3D9C7"/>
</linearGradient>
<linearGradient id="paint27_linear_58_12627" x1="319.026" y1="52.363" x2="318.354" y2="67.9766" gradientUnits="userSpaceOnUse">
<stop stop-color="#85C2A5"/>
<stop offset="1" stop-color="#B3D9C7"/>
</linearGradient>
<linearGradient id="paint28_linear_58_12627" x1="317.01" y1="56.9432" x2="314.484" y2="67.0978" gradientUnits="userSpaceOnUse">
<stop stop-color="white"/>
<stop offset="1" stop-color="white" stop-opacity="0"/>
</linearGradient>
<linearGradient id="paint29_linear_58_12627" x1="130.833" y1="91.1419" x2="130.833" y2="98.5938" gradientUnits="userSpaceOnUse">
<stop stop-color="#7CB99C"/>
<stop offset="1" stop-color="#B3D9C7"/>
</linearGradient>
<linearGradient id="paint30_linear_58_12627" x1="130.833" y1="87.991" x2="130.833" y2="94.7854" gradientUnits="userSpaceOnUse">
<stop stop-color="#7CB99C"/>
<stop offset="1" stop-color="#B3D9C7"/>
</linearGradient>
<linearGradient id="paint31_linear_58_12627" x1="130.833" y1="85.1751" x2="130.833" y2="91.5311" gradientUnits="userSpaceOnUse">
<stop stop-color="#7CB99C"/>
<stop offset="1" stop-color="#B3D9C7"/>
</linearGradient>
<linearGradient id="paint32_linear_58_12627" x1="132.026" y1="72.363" x2="131.354" y2="87.9766" gradientUnits="userSpaceOnUse">
<stop stop-color="#85C2A5"/>
<stop offset="1" stop-color="#B3D9C7"/>
</linearGradient>
<linearGradient id="paint33_linear_58_12627" x1="130.01" y1="76.9432" x2="127.484" y2="87.0978" gradientUnits="userSpaceOnUse">
<stop stop-color="white"/>
<stop offset="1" stop-color="white" stop-opacity="0"/>
</linearGradient>
<linearGradient id="paint34_linear_58_12627" x1="189.658" y1="116.483" x2="189.486" y2="122.512" gradientUnits="userSpaceOnUse">
<stop stop-color="#ECF7F9"/>
<stop offset="1" stop-color="white" stop-opacity="0"/>
</linearGradient>
<linearGradient id="paint35_linear_58_12627" x1="360.571" y1="104.828" x2="360.706" y2="109.168" gradientUnits="userSpaceOnUse">
<stop stop-color="#F7FEFF"/>
<stop offset="1" stop-color="white" stop-opacity="0"/>
</linearGradient>
<linearGradient id="paint36_linear_58_12627" x1="348.264" y1="107.565" x2="348.825" y2="119.211" gradientUnits="userSpaceOnUse">
<stop stop-color="white"/>
<stop offset="1" stop-color="white" stop-opacity="0"/>
</linearGradient>
<clipPath id="clip0_58_12627">
<rect width="430" height="131" fill="white"/>
</clipPath>
</defs>
</svg>
