<svg width="751" height="486" viewBox="0 0 751 486" fill="none" xmlns="http://www.w3.org/2000/svg">
<path opacity="0.769671" d="M137.307 315.331C137.307 353.252 106.569 383.993 68.6533 383.993C30.7371 383.993 0 353.252 0 315.331C0 277.409 30.7371 246.668 68.6533 246.668C106.569 246.668 137.307 277.409 137.307 315.331Z" fill="#FDCB5B"/>
<path opacity="0.754418" d="M750.999 224.479C750.999 268.181 715.577 303.609 671.88 303.609C628.184 303.609 592.762 268.181 592.762 224.479C592.762 180.777 628.184 145.35 671.88 145.35C715.577 145.35 750.999 180.777 750.999 224.479Z" fill="#80C0A1"/>
<path d="M560.527 152.467C560.527 231.084 496.804 294.816 418.197 294.816C339.59 294.816 275.867 231.084 275.867 152.467C275.867 73.8492 339.59 10.1172 418.197 10.1172C496.804 10.1172 560.527 73.8492 560.527 152.467Z" fill="#B683BE" fill-opacity="0.707769"/>
<path d="M614.532 55.3341C614.532 69.439 603.1 80.8732 588.997 80.8732C574.894 80.8732 563.461 69.439 563.461 55.3341C563.461 41.2292 574.894 29.7949 588.997 29.7949C603.1 29.7949 614.532 41.2292 614.532 55.3341Z" fill="#80C0A1"/>
<path fill-rule="evenodd" clip-rule="evenodd" d="M595.656 55.0677C594.942 55.0677 594.362 55.6698 594.362 56.4125C594.362 55.6698 593.783 55.0677 593.068 55.0677C592.354 55.0677 591.775 55.6698 591.775 56.4125C591.775 55.6698 591.195 55.0677 590.481 55.0677C589.766 55.0677 589.187 55.6698 589.187 56.4125V50.3609C589.187 49.6182 588.607 49.0161 587.893 49.0161C587.178 49.0161 586.599 49.6182 586.599 50.3609V55.0677V58.4297H586.522L585.305 56.7433C584.976 56.1805 584.217 56.0455 583.654 56.4357C583.119 56.8066 582.933 57.5336 583.221 58.1316L586.062 64.711C586.391 65.3944 587.063 65.826 587.798 65.826H595.009C596.081 65.826 596.95 64.9229 596.95 63.8088V57.0849V56.4125C596.95 55.6698 596.371 55.0677 595.656 55.0677Z" fill="#243D48"/>
<path fill-rule="evenodd" clip-rule="evenodd" d="M584.011 48.3438C584.011 46.1192 585.753 44.3094 587.893 44.3094C590.033 44.3094 591.775 46.1192 591.775 48.3438C591.775 49.5085 591.282 50.5946 590.481 51.3458V53.0006C591.076 52.6419 591.604 52.1607 592.021 51.588C592.706 50.6478 593.069 49.5259 593.069 48.3438C593.069 45.3777 590.747 42.9646 587.893 42.9646C585.039 42.9646 582.717 45.3777 582.717 48.3438C582.717 49.5259 583.079 50.6478 583.764 51.588C584.182 52.1607 584.71 52.6419 585.305 53.0006V51.3458C584.504 50.5946 584.011 49.5085 584.011 48.3438Z" fill="#243D48"/>
<path fill-rule="evenodd" clip-rule="evenodd" d="M589.719 46.4377C589.23 45.9321 588.582 45.6542 587.893 45.6542C587.889 45.6542 587.885 45.6542 587.881 45.6542C586.507 45.6606 585.377 46.7817 585.308 48.2064C585.289 48.6014 585.356 48.9911 585.496 49.3496C585.719 48.7788 586.126 48.3052 586.641 48.0083C586.786 47.435 587.299 47.0017 587.887 46.999H587.893C588.237 46.999 588.561 47.138 588.806 47.3907C588.973 47.5642 589.09 47.7769 589.146 48.0091C589.661 48.3068 590.069 48.7817 590.292 49.354C590.415 49.0376 590.481 48.6957 590.481 48.3438C590.481 47.6231 590.21 46.9462 589.719 46.4377V46.4377Z" fill="#243D48"/>
<g clip-path="url(#clip0_168_1348)">
<path opacity="0.601911" d="M196.751 394.461C196.751 408.566 185.318 420 171.215 420C157.112 420 145.68 408.566 145.68 394.461C145.68 380.356 157.112 368.922 171.215 368.922C185.318 368.922 196.751 380.356 196.751 394.461Z" fill="#FDCB5B"/>
<path fill-rule="evenodd" clip-rule="evenodd" d="M170.614 386.082C166.782 386.082 163.677 389.188 163.677 393.019C163.677 396.85 166.782 399.956 170.614 399.956C174.445 399.956 177.551 396.85 177.551 393.019C177.551 389.188 174.445 386.082 170.614 386.082ZM161.177 393.019C161.177 387.807 165.402 383.582 170.614 383.582C175.826 383.582 180.051 387.807 180.051 393.019C180.051 398.231 175.826 402.456 170.614 402.456C165.402 402.456 161.177 398.231 161.177 393.019Z" fill="#243D48"/>
<path fill-rule="evenodd" clip-rule="evenodd" d="M175.512 397.917C176.001 397.429 176.792 397.429 177.28 397.917L181.732 402.369C182.22 402.858 182.22 403.649 181.732 404.137C181.244 404.625 180.452 404.625 179.964 404.137L175.512 399.685C175.024 399.197 175.024 398.406 175.512 397.917Z" fill="#243D48"/>
</g>
<path opacity="0.762509" d="M51.0714 195.172C51.0714 209.277 39.6386 220.711 25.5357 220.711C11.4327 220.711 0 209.277 0 195.172C0 181.067 11.4327 169.633 25.5357 169.633C39.6386 169.633 51.0714 181.067 51.0714 195.172Z" fill="#53B9C9"/>
<path fill-rule="evenodd" clip-rule="evenodd" d="M25.5358 187.601C26.1059 187.601 26.573 188.042 26.6143 188.602L26.6172 188.683V188.867C27.8773 189.313 28.7801 190.515 28.7801 191.928C28.7801 193.34 27.8773 194.542 26.6172 194.988V202.743C26.6172 203.341 26.133 203.825 25.5358 203.825C24.9657 203.825 24.4986 203.384 24.4573 202.824L24.4544 202.743V194.988C23.1943 194.542 22.2915 193.34 22.2915 191.928C22.2915 190.515 23.1943 189.313 24.4544 188.867V188.683C24.4544 188.085 24.9385 187.601 25.5358 187.601ZM24.4544 191.928C24.4544 191.33 24.9385 190.846 25.5358 190.846C26.133 190.846 26.6172 191.33 26.6172 191.928C26.6172 192.525 26.133 193.009 25.5358 193.009C24.9385 193.009 24.4544 192.525 24.4544 191.928Z" fill="#2C4653"/>
<path fill-rule="evenodd" clip-rule="evenodd" d="M17.9657 187.601C18.5358 187.601 19.0029 188.042 19.0442 188.602L19.0472 188.683V195.357C20.3072 195.802 21.21 197.004 21.21 198.417C21.21 199.83 20.3072 201.032 19.0472 201.477V202.743C19.0472 203.341 18.563 203.825 17.9657 203.825C17.3956 203.825 16.9285 203.384 16.8873 202.824L16.8843 202.743V201.477C15.6242 201.032 14.7214 199.83 14.7214 198.417C14.7214 197.004 15.6242 195.802 16.8843 195.357V188.683C16.8843 188.085 17.3685 187.601 17.9657 187.601ZM16.8843 198.417C16.8843 197.82 17.3685 197.335 17.9657 197.335C18.563 197.335 19.0472 197.82 19.0472 198.417C19.0472 199.014 18.563 199.499 17.9657 199.499C17.3685 199.499 16.8843 199.014 16.8843 198.417Z" fill="#2C4653"/>
<path fill-rule="evenodd" clip-rule="evenodd" d="M33.1059 187.601C33.676 187.601 34.143 188.042 34.1843 188.602L34.1873 188.683V192.112C35.4474 192.558 36.3501 193.76 36.3501 195.172C36.3501 196.585 35.4474 197.787 34.1873 198.232V202.743C34.1873 203.341 33.7031 203.825 33.1059 203.825C32.5357 203.825 32.0687 203.384 32.0274 202.824L32.0244 202.743V198.232C30.7644 197.787 29.8616 196.585 29.8616 195.172C29.8616 193.76 30.7644 192.558 32.0244 192.112V188.683C32.0244 188.085 32.5086 187.601 33.1059 187.601ZM32.0244 195.172C32.0244 194.575 32.5086 194.091 33.1059 194.091C33.7031 194.091 34.1873 194.575 34.1873 195.172C34.1873 195.77 33.7031 196.254 33.1059 196.254C32.5086 196.254 32.0244 195.77 32.0244 195.172Z" fill="#2C4653"/>
<g filter="url(#filter0_dd_168_1348)">
<path fill-rule="evenodd" clip-rule="evenodd" d="M234.984 18.174L641.499 112.471C647.384 113.836 652.155 119.714 652.155 125.6V373.911C652.155 379.797 647.384 383.462 641.499 382.097L234.984 287.801C229.099 286.435 224.328 280.557 224.328 274.671V26.3596C224.328 20.4737 229.099 16.8089 234.984 18.174Z" fill="url(#paint0_linear_168_1348)"/>
<path fill-rule="evenodd" clip-rule="evenodd" d="M234.984 18.174L641.499 112.471C647.384 113.836 652.155 119.714 652.155 125.6V373.911C652.155 379.797 647.384 383.462 641.499 382.097L234.984 287.801C229.099 286.435 224.328 280.557 224.328 274.671V26.3596C224.328 20.4737 229.099 16.8089 234.984 18.174Z" fill="url(#paint1_radial_168_1348)"/>
</g>
<g opacity="0.904832" filter="url(#filter1_d_168_1348)">
<path fill-rule="evenodd" clip-rule="evenodd" d="M641.497 112.471L493.078 78.043V347.669L641.497 382.097C647.382 383.462 652.153 379.797 652.153 373.911V125.6C652.153 119.714 647.382 113.836 641.497 112.471Z" fill="white"/>
<path fill-rule="evenodd" clip-rule="evenodd" d="M641.497 112.471L493.078 78.043V347.669L641.497 382.097C647.382 383.462 652.153 379.797 652.153 373.911V125.6C652.153 119.714 647.382 113.836 641.497 112.471Z" fill="url(#paint2_radial_168_1348)"/>
</g>
<path opacity="0.362793" d="M550.065 16.3976C550.065 23.7969 544.067 29.7952 536.669 29.7952C529.271 29.7952 523.273 23.7969 523.273 16.3976C523.273 8.99831 529.271 3 536.669 3C544.067 3 550.065 8.99831 550.065 16.3976Z" fill="#80C0A1"/>
<g filter="url(#filter2_dd_168_1348)">
<path fill-rule="evenodd" clip-rule="evenodd" d="M159.633 39.1076L566.148 133.404C572.033 134.769 576.804 140.647 576.804 146.533V394.845C576.804 400.731 572.033 404.396 566.148 403.031L159.633 308.734C153.747 307.369 148.977 301.491 148.977 295.605V47.2932C148.977 41.4073 153.747 37.7425 159.633 39.1076Z" fill="url(#paint3_linear_168_1348)"/>
</g>
<g filter="url(#filter3_d_168_1348)">
<path fill-rule="evenodd" clip-rule="evenodd" d="M566.148 133.404L417.729 98.9764V368.603L566.148 403.031C572.033 404.396 576.804 400.731 576.804 394.845V146.533C576.804 140.647 572.033 134.769 566.148 133.404Z" fill="white"/>
</g>
<g filter="url(#filter4_dd_168_1348)">
<path fill-rule="evenodd" clip-rule="evenodd" d="M84.281 55.7131L490.796 150.01C496.681 151.375 501.452 157.253 501.452 163.139V411.45C501.452 417.336 496.681 421.001 490.796 419.636L84.281 325.34C78.3958 323.974 73.625 318.096 73.625 312.21V63.8987C73.625 58.0128 78.3958 54.3479 84.281 55.7131Z" fill="url(#paint4_linear_168_1348)"/>
<path fill-rule="evenodd" clip-rule="evenodd" d="M84.281 55.7131L490.796 150.01C496.681 151.375 501.452 157.253 501.452 163.139V411.45C501.452 417.336 496.681 421.001 490.796 419.636L84.281 325.34C78.3958 323.974 73.625 318.096 73.625 312.21V63.8987C73.625 58.0128 78.3958 54.3479 84.281 55.7131Z" fill="url(#paint5_radial_168_1348)"/>
</g>
<path opacity="0.80313" fill-rule="evenodd" clip-rule="evenodd" d="M290.331 222.346L120.372 182.957C119.43 182.738 118.646 182.934 118.111 183.345C117.578 183.754 117.212 184.437 117.212 185.358V262.394C117.212 264.302 118.803 266.284 120.75 266.735L290.709 306.125C291.651 306.343 292.435 306.148 292.97 305.736C293.503 305.327 293.869 304.644 293.869 303.724V226.687C293.869 224.779 292.278 222.797 290.331 222.346ZM290.52 221.53L120.561 182.141C118.249 181.605 116.375 183.045 116.375 185.358V262.394C116.375 264.706 118.249 267.015 120.561 267.551L290.52 306.94C292.832 307.476 294.706 306.036 294.706 303.724V226.687C294.706 224.375 292.832 222.066 290.52 221.53Z" fill="#E2E6E7"/>
<g filter="url(#filter5_d_168_1348)">
<path fill-rule="evenodd" clip-rule="evenodd" d="M257.868 226.656L270.427 229.566C272.277 229.995 273.776 231.842 273.776 233.692C273.776 235.541 272.277 236.694 270.427 236.265L257.868 233.354C256.019 232.926 254.52 231.079 254.52 229.229C254.52 227.379 256.019 226.227 257.868 226.656Z" fill="#E2E6E7"/>
<g filter="url(#filter6_d_168_1348)">
<path d="M271.059 237.027C268.907 238.27 265.948 237.174 264.45 234.579C262.951 231.984 263.482 228.874 265.634 227.631C267.786 226.388 270.746 227.484 272.244 230.079C273.742 232.674 273.211 235.785 271.059 237.027Z" fill="#1E3D49"/>
</g>
</g>
<g filter="url(#filter7_d_168_1348)">
<path fill-rule="evenodd" clip-rule="evenodd" d="M257.868 252.613L270.427 255.524C272.276 255.952 273.776 257.799 273.776 259.649C273.776 261.499 272.276 262.651 270.427 262.223L257.868 259.312C256.019 258.883 254.519 257.036 254.519 255.186C254.519 253.337 256.019 252.185 257.868 252.613Z" fill="#E2E6E7"/>
<g filter="url(#filter8_d_168_1348)">
<path d="M261.322 260.646C259.17 261.889 256.211 260.793 254.712 258.198C253.214 255.603 253.745 252.493 255.897 251.25C258.049 250.007 261.009 251.103 262.507 253.698C264.005 256.293 263.474 259.404 261.322 260.646Z" fill="white"/>
</g>
</g>
<g filter="url(#filter9_d_168_1348)">
<path fill-rule="evenodd" clip-rule="evenodd" d="M154.468 204.366L186.283 211.74C187.439 212.008 188.376 213.162 188.376 214.318C188.376 215.474 187.439 216.195 186.283 215.927L154.468 208.553C153.312 208.285 152.375 207.131 152.375 205.975C152.375 204.819 153.312 204.099 154.468 204.366Z" fill="#8E9EA4"/>
</g>
<g filter="url(#filter10_d_168_1348)">
<path fill-rule="evenodd" clip-rule="evenodd" d="M134.441 199.997C134.8 199.705 135.327 199.76 135.619 200.119L138.453 203.61L141.155 201.534C141.522 201.253 142.047 201.322 142.329 201.688C142.61 202.055 142.541 202.58 142.175 202.862L138.827 205.434C138.467 205.71 137.953 205.65 137.667 205.298L134.319 201.174C134.028 200.815 134.082 200.288 134.441 199.997Z" fill="#1E3D49"/>
</g>
<g filter="url(#filter11_d_168_1348)">
<path fill-rule="evenodd" clip-rule="evenodd" d="M134.441 225.954C134.8 225.662 135.327 225.717 135.619 226.076L138.453 229.567L141.155 227.491C141.522 227.21 142.047 227.279 142.329 227.645C142.61 228.012 142.541 228.537 142.175 228.819L138.827 231.391C138.467 231.667 137.953 231.607 137.667 231.255L134.319 227.131C134.028 226.772 134.082 226.245 134.441 225.954Z" fill="#1E3D49"/>
</g>
<g filter="url(#filter12_d_168_1348)">
<path fill-rule="evenodd" clip-rule="evenodd" d="M134.441 252.749C134.8 252.457 135.327 252.512 135.619 252.871L138.453 256.362L141.155 254.286C141.522 254.005 142.047 254.074 142.329 254.44C142.61 254.807 142.541 255.332 142.175 255.614L138.827 258.186C138.467 258.462 137.953 258.402 137.667 258.05L134.319 253.926C134.028 253.567 134.082 253.04 134.441 252.749Z" fill="#1E3D49"/>
</g>
<g filter="url(#filter13_d_168_1348)">
<path fill-rule="evenodd" clip-rule="evenodd" d="M154.468 230.325L186.283 237.699C187.439 237.967 188.376 239.121 188.376 240.277C188.376 241.433 187.439 242.153 186.283 241.886L154.468 234.512C153.312 234.244 152.375 233.09 152.375 231.934C152.375 230.778 153.312 230.058 154.468 230.325Z" fill="#8E9EA4"/>
</g>
<g filter="url(#filter14_d_168_1348)">
<path fill-rule="evenodd" clip-rule="evenodd" d="M257.868 279.41L270.427 282.32C272.277 282.749 273.776 284.596 273.776 286.446C273.776 288.296 272.277 289.448 270.427 289.019L257.868 286.109C256.019 285.68 254.52 283.833 254.52 281.983C254.52 280.133 256.019 278.981 257.868 279.41Z" fill="#E2E6E7"/>
<g filter="url(#filter15_d_168_1348)">
<path d="M271.321 289.646C269.169 290.889 266.209 289.793 264.711 287.198C263.213 284.603 263.744 281.493 265.896 280.25C268.048 279.007 271.007 280.103 272.505 282.698C274.004 285.293 273.473 288.404 271.321 289.646Z" fill="#1E3D49"/>
</g>
</g>
<g filter="url(#filter16_d_168_1348)">
<path fill-rule="evenodd" clip-rule="evenodd" d="M154.468 257.12L186.283 264.494C187.439 264.762 188.376 265.916 188.376 267.072C188.376 268.228 187.439 268.948 186.283 268.681L154.468 261.307C153.312 261.039 152.375 259.885 152.375 258.729C152.375 257.573 153.312 256.852 154.468 257.12Z" fill="#8E9EA4"/>
</g>
<path fill-rule="evenodd" clip-rule="evenodd" d="M134.062 213.861L273.021 246.066L272.832 246.881L133.873 214.676L134.062 213.861Z" fill="#E2E6E7"/>
<path fill-rule="evenodd" clip-rule="evenodd" d="M138.249 240.658L277.208 272.863L277.02 273.678L138.06 241.473L138.249 240.658Z" fill="#E2E6E7"/>
<path fill-rule="evenodd" clip-rule="evenodd" d="M14.2344 337.707L16.7461 338.299L14.2344 337.707Z" fill="#1E3D49"/>
<g filter="url(#filter17_d_168_1348)">
<path fill-rule="evenodd" clip-rule="evenodd" d="M490.798 150.01L342.379 115.582V385.209L490.798 419.636C496.683 421.001 501.454 417.336 501.454 411.451V163.139C501.454 157.253 496.683 151.375 490.798 150.01Z" fill="white"/>
</g>
<g filter="url(#filter18_d_168_1348)">
<path fill-rule="evenodd" clip-rule="evenodd" d="M124.327 124.066L272.518 158.441C273.674 158.709 274.611 159.863 274.611 161.019C274.611 162.176 273.674 162.895 272.518 162.627L124.327 128.253C123.171 127.984 122.234 126.83 122.234 125.674C122.234 124.518 123.171 123.798 124.327 124.066Z" fill="#E2E6E7"/>
<path d="M175.827 140.329C174.46 141.696 172.085 141.538 170.523 139.975C168.961 138.413 168.803 136.039 170.17 134.672C171.536 133.305 173.911 133.464 175.473 135.026C177.035 136.588 177.193 138.962 175.827 140.329Z" fill="#1E3D49"/>
</g>
<path fill-rule="evenodd" clip-rule="evenodd" d="M124.327 156.722L272.518 191.097C273.674 191.365 274.611 192.52 274.611 193.676C274.611 194.832 273.674 195.552 272.518 195.284L124.327 160.909C123.171 160.641 122.234 159.486 122.234 158.33C122.234 157.174 123.171 156.454 124.327 156.722Z" fill="#E2E6E7"/>
<g filter="url(#filter19_d_168_1348)">
<path d="M296.04 203.768C292.721 207.087 286.705 206.454 282.605 202.354C278.504 198.253 277.871 192.238 281.191 188.919C284.51 185.599 290.525 186.232 294.626 190.333C298.726 194.433 299.359 200.449 296.04 203.768Z" fill="#8E9EA4"/>
</g>
<path d="M290.738 199.172C289.566 200.343 287.508 200.185 286.141 198.818C284.775 197.451 284.616 195.394 285.788 194.222C286.959 193.051 289.017 193.209 290.384 194.576C291.751 195.942 291.909 198 290.738 199.172Z" fill="white"/>
<g filter="url(#filter20_d_168_1348)">
<path d="M156.266 118.768C155.485 119.549 154.06 119.391 153.084 118.415C152.108 117.438 151.949 116.014 152.73 115.233C153.511 114.452 154.936 114.61 155.912 115.586C156.889 116.562 157.047 117.987 156.266 118.768Z" fill="#D44A6F"/>
</g>
<g filter="url(#filter21_d_168_1348)">
<path fill-rule="evenodd" clip-rule="evenodd" d="M124.327 109.831L148.607 115.463C149.763 115.732 150.7 116.886 150.7 118.042C150.7 119.198 149.763 119.918 148.607 119.65L124.327 114.018C123.171 113.75 122.234 112.595 122.234 111.439C122.234 110.283 123.171 109.563 124.327 109.831Z" fill="#BBC3C6"/>
</g>
<g filter="url(#filter22_d_168_1348)">
<path d="M156.266 154.768C155.485 155.549 154.06 155.391 153.084 154.415C152.108 153.438 151.949 152.014 152.73 151.233C153.511 150.452 154.936 150.61 155.912 151.586C156.889 152.562 157.047 153.987 156.266 154.768Z" fill="#D44A6F"/>
</g>
<g filter="url(#filter23_d_168_1348)">
<path fill-rule="evenodd" clip-rule="evenodd" d="M124.327 144.162L148.607 149.794C149.763 150.062 150.7 151.216 150.7 152.372C150.7 153.529 149.763 154.248 148.607 153.98L124.327 148.348C123.171 148.08 122.234 146.926 122.234 145.769C122.234 144.613 123.171 143.893 124.327 144.162Z" fill="#BBC3C6"/>
</g>
<g filter="url(#filter24_d_168_1348)">
<path d="M296.923 170.924C293.603 174.244 287.588 173.611 283.488 169.51C279.387 165.41 278.754 159.394 282.074 156.075C285.393 152.756 291.408 153.389 295.509 157.489C299.609 161.59 300.242 167.605 296.923 170.924Z" fill="#8E9EA4"/>
</g>
<path d="M291.62 166.328C290.449 167.5 288.391 167.341 287.024 165.975C285.657 164.608 285.499 162.55 286.671 161.378C287.842 160.207 289.9 160.365 291.267 161.732C292.634 163.099 292.792 165.157 291.62 166.328Z" fill="white"/>
<g filter="url(#filter25_d_168_1348)">
<path fill-rule="evenodd" clip-rule="evenodd" d="M387.244 208.115L451.756 223.276C454.1 223.827 456 226.201 456 228.578C456 230.955 454.1 232.436 451.756 231.885L387.244 216.724C384.9 216.173 383 213.799 383 211.422C383 209.045 384.9 207.564 387.244 208.115Z" fill="#243D48"/>
</g>
<g filter="url(#filter26_d_168_1348)">
<path fill-rule="evenodd" clip-rule="evenodd" d="M387.244 232.115L451.756 247.276C454.1 247.827 456 250.201 456 252.578C456 254.955 454.1 256.436 451.756 255.885L387.244 240.724C384.9 240.173 383 237.799 383 235.422C383 233.045 384.9 231.564 387.244 232.115Z" fill="#BDC3C6"/>
</g>
<g filter="url(#filter27_d_168_1348)">
<path fill-rule="evenodd" clip-rule="evenodd" d="M387.244 256.115L451.756 271.276C454.1 271.827 456 274.201 456 276.578C456 278.955 454.1 280.436 451.756 279.885L387.244 264.724C384.9 264.173 383 261.799 383 259.422C383 257.045 384.9 255.564 387.244 256.115Z" fill="#BDC3C6"/>
</g>
<g filter="url(#filter28_d_168_1348)">
<path fill-rule="evenodd" clip-rule="evenodd" d="M387.244 280.115L451.756 295.276C454.1 295.827 456 298.201 456 300.578C456 302.955 454.1 304.436 451.756 303.885L387.244 288.724C384.9 288.173 383 285.799 383 283.422C383 281.045 384.9 279.564 387.244 280.115Z" fill="#BDC3C6"/>
</g>
<g filter="url(#filter29_d_168_1348)">
<path fill-rule="evenodd" clip-rule="evenodd" d="M387.244 304.115L451.756 319.276C454.1 319.827 456 322.201 456 324.578C456 326.955 454.1 328.436 451.756 327.885L387.244 312.724C384.9 312.173 383 309.799 383 307.422C383 305.045 384.9 303.564 387.244 304.115Z" fill="#BDC3C6"/>
</g>
<g filter="url(#filter30_d_168_1348)">
<path fill-rule="evenodd" clip-rule="evenodd" d="M387.244 328.115L451.756 343.276C454.1 343.827 456 346.201 456 348.578C456 350.955 454.1 352.436 451.756 351.885L387.244 336.724C384.9 336.173 383 333.799 383 331.422C383 329.045 384.9 327.564 387.244 328.115Z" fill="#BDC3C6"/>
</g>
<g filter="url(#filter31_d_168_1348)">
<path fill-rule="evenodd" clip-rule="evenodd" d="M387.244 352.115L451.756 367.276C454.1 367.827 456 370.201 456 372.578C456 374.955 454.1 376.436 451.756 375.885L387.244 360.724C384.9 360.173 383 357.799 383 355.422C383 353.045 384.9 351.564 387.244 352.115Z" fill="#BDC3C6"/>
</g>
<g filter="url(#filter32_d_168_1348)">
<path fill-rule="evenodd" clip-rule="evenodd" d="M175.819 300.653L221.03 311.14C226.116 312.32 230.239 317.4 230.239 322.487C230.239 327.574 226.116 330.742 221.03 329.562L175.819 319.075C170.733 317.895 166.609 312.814 166.609 307.727C166.609 302.64 170.733 299.473 175.819 300.653Z" fill="#1E3D49"/>
</g>
<path fill-rule="evenodd" clip-rule="evenodd" d="M465.084 171.33L501.504 179.495V202.103L465.084 193.938C458.842 192.539 453.781 186.343 453.781 180.1C453.781 173.857 458.842 169.93 465.084 171.33Z" fill="#E2E6E7" fill-opacity="0.475251"/>
<g opacity="0.534784">
<path fill-rule="evenodd" clip-rule="evenodd" d="M540.435 151.232L576.855 159.397V182.006L540.435 173.841C534.193 172.441 529.133 166.246 529.133 160.002C529.133 153.759 534.193 149.833 540.435 151.232Z" fill="#E2E6E7" fill-opacity="0.475251"/>
</g>
<g opacity="0.333705">
<path fill-rule="evenodd" clip-rule="evenodd" d="M615.787 133.648L652.207 141.813V164.422L615.787 156.257C609.545 154.857 604.484 148.662 604.484 142.418C604.484 136.175 609.545 132.249 615.787 133.648Z" fill="#E2E6E7" fill-opacity="0.475251"/>
</g>
<path d="M469.959 187.269C468.34 188.325 465.926 187.493 464.569 185.412C463.211 183.33 463.422 180.787 465.041 179.731C466.66 178.675 469.073 179.506 470.431 181.587C471.789 183.669 471.578 186.212 469.959 187.269Z" fill="#243D48"/>
<path d="M545.849 166.45C544.23 167.506 541.817 166.675 540.459 164.594C539.101 162.512 539.313 159.968 540.932 158.912C542.551 157.856 544.964 158.687 546.322 160.769C547.68 162.85 547.468 165.394 545.849 166.45Z" fill="#D0D4D7"/>
<path d="M620.849 149.45C619.23 150.506 616.817 149.675 615.459 147.594C614.101 145.512 614.313 142.968 615.932 141.912C617.551 140.856 619.964 141.687 621.322 143.769C622.68 145.85 622.468 148.394 620.849 149.45Z" fill="#D0D4D7"/>
<path d="M102.993 47.7596C118.04 60.3293 121.34 81.1706 110.363 94.3099C99.387 107.449 78.2911 107.911 63.2444 95.3414C48.1978 82.7718 44.8981 61.9305 55.8744 48.7911C66.8507 35.6518 87.9466 35.1899 102.993 47.7596Z" fill="#1E3D49"/>
<path fill-rule="evenodd" clip-rule="evenodd" d="M87.6704 56.06C87.2463 54.4907 85.9831 53.1755 84.5265 52.8173L81.7125 52.1254L81.495 52.0796L81.2787 52.0495L81.0556 52.0345C79.7327 51.9948 78.6968 52.8554 78.469 54.2445L78.2101 55.786L77.9737 55.8258L77.5593 55.9094L77.3239 55.9658L76.1286 54.7549L75.9249 54.561L75.6976 54.3707C75.2359 54.0085 74.7328 53.758 74.213 53.6302C73.3293 53.4129 72.502 53.5756 71.886 54.0883L69.8914 55.7126L69.7275 55.8598L69.5782 56.0215L69.4368 56.2056C68.7282 57.2212 68.7506 58.7615 69.5362 60.1285L70.423 61.6723L70.3202 61.8957L70.1505 62.2977L70.0605 62.5352L68.6153 62.44L68.4023 62.4335L68.1926 62.4428C66.8154 62.5555 65.8711 63.6669 65.8711 65.216V68.2093L65.8783 68.4424L65.9 68.6779L65.9375 68.9243C66.2059 70.3975 67.2545 71.7573 68.613 72.3338L70.1221 72.9785L70.2142 73.2543L70.3885 73.7378L70.496 74.0131L69.6374 75.0727L69.5039 75.2555L69.3873 75.4495C68.7367 76.6423 68.9703 78.3376 69.9925 79.6654L71.9831 82.2725L72.1662 82.4981L72.3732 82.7233C72.9387 83.3014 73.608 83.6988 74.3068 83.8707L74.5636 83.9233L74.8169 83.9542C75.3193 83.9943 75.795 83.9047 76.2109 83.6886L77.4561 83.0516L77.6629 83.2004L78.0541 83.4675L78.2756 83.6106L78.5219 85.2438L78.5651 85.4816L78.6223 85.7188C79.0466 87.288 80.3098 88.6031 81.7661 88.9612L84.5866 89.6548L84.8041 89.7006L85.0205 89.7306L85.2435 89.7457C86.5666 89.7854 87.6026 88.9246 87.8306 87.535L88.0806 86.0229L88.3204 85.9863L88.7357 85.9058L88.9706 85.8507L90.1849 87.072L90.3877 87.265L90.615 87.4554C91.0768 87.8177 91.5799 88.0683 92.0996 88.1961C92.9749 88.4113 93.8012 88.2492 94.4231 87.7406L96.4148 86.1114L96.5784 85.9645L96.7276 85.8029L96.8691 85.6188C97.5778 84.6033 97.5553 83.0629 96.7697 81.6959L95.8966 80.1772L96.0048 79.9538L96.1772 79.5551L96.2654 79.3239L97.7436 79.4261L97.9572 79.4327L98.167 79.4234C99.5441 79.3107 100.489 78.1993 100.489 76.6502V73.663L100.484 73.4339L100.464 73.1984L100.429 72.9519C100.173 71.4785 99.1278 70.117 97.7592 69.5353L96.2806 68.9048L96.19 68.6284L96.0183 68.1444L95.9117 67.8674L96.7828 66.7861L96.9158 66.604L97.0324 66.41C97.683 65.2173 97.4494 63.5221 96.4272 62.1941L94.4366 59.5869L94.2535 59.3614L94.0465 59.1362C93.4809 58.558 92.8117 58.1606 92.1128 57.9888L91.856 57.9362L91.6027 57.9053C91.1003 57.8652 90.6245 57.9549 90.2085 58.1711L88.9857 58.7958L88.7254 58.6067L88.2823 58.3034L88.0138 58.1311L87.7706 56.5343L87.7276 56.2972L87.6704 56.06ZM81.7138 54.9142L84.5279 55.6061C84.8563 55.6869 85.1329 56.0038 85.1873 56.3619L85.5532 58.7595L85.5933 58.9496L85.6564 59.1416C85.8244 59.58 86.1347 59.9478 86.5216 60.1685C87.1756 60.5407 87.828 60.9867 88.4612 61.4945C88.9278 61.8685 89.4853 61.9647 89.9146 61.7456L91.7356 60.8138L91.8457 60.7703L91.9213 60.7582C91.9773 60.7546 92.0436 60.7602 92.1142 60.7776C92.2939 60.8218 92.4536 60.932 92.5845 61.1036L94.5797 63.7163L94.6585 63.8328L94.7166 63.9492C94.8138 64.1888 94.7961 64.4613 94.6504 64.643L93.3565 66.2505L93.265 66.385L93.1923 66.5383C93.0467 66.9073 93.07 67.3506 93.2562 67.7746C93.566 68.4798 93.8265 69.213 94.0305 69.9542C94.188 70.5265 94.6091 71.0207 95.1269 71.241L97.3224 72.1771L97.4409 72.2373L97.5315 72.2999C97.7341 72.4617 97.8722 72.7305 97.8689 72.9938V76.0066L97.861 76.1207L97.839 76.2208C97.7685 76.4436 97.5669 76.5881 97.3123 76.571L95.1174 76.4204L94.9481 76.4209L94.7823 76.4467C94.4091 76.5323 94.1345 76.7934 94.0151 77.1741C93.8258 77.7802 93.5652 78.3847 93.2409 78.9696C92.9981 79.4056 93.037 80.0082 93.3423 80.5384L94.6358 82.7886L94.6974 82.913L94.739 83.0357C94.8015 83.2836 94.7406 83.5401 94.5628 83.6855L92.5711 85.3144L92.4687 85.3818L92.3916 85.4118C92.3085 85.4347 92.2083 85.4355 92.1007 85.4091C91.9579 85.374 91.8261 85.2969 91.7138 85.1833L89.904 83.3624L89.7573 83.2291L89.5963 83.1116C89.2155 82.8621 88.8033 82.7852 88.4466 82.896C87.8541 83.0802 87.2249 83.2026 86.5768 83.2596C86.0752 83.3035 85.7076 83.6613 85.6201 84.1906L85.2473 86.4363L85.2215 86.5436L85.1835 86.6343C85.0766 86.8323 84.8472 86.9316 84.5878 86.8678L81.7672 86.1742L81.6581 86.1392L81.5589 86.0915C81.3332 85.961 81.1508 85.7018 81.108 85.4204L80.7422 82.9957L80.7029 82.8071L80.6409 82.6164C80.4756 82.1806 80.1696 81.8133 79.7876 81.591C79.1476 81.2187 78.5388 80.8028 77.9776 80.3547C77.7772 80.1948 77.5574 80.084 77.3351 80.0294C77.0475 79.9586 76.7659 79.9846 76.528 80.1061L74.6866 81.0474L74.5765 81.0909L74.5007 81.103C74.4446 81.1066 74.3785 81.101 74.308 81.0837C74.128 81.0394 73.9684 80.9292 73.8378 80.7579L71.8422 78.1448L71.7634 78.0285L71.7053 77.9121C71.6081 77.6727 71.6255 77.4004 71.77 77.2199L73.0551 75.6345L73.1478 75.4997L73.2218 75.3451C73.3698 74.9729 73.3451 74.525 73.1539 74.0958C72.8359 73.3832 72.5723 72.6532 72.3704 71.9259C72.2117 71.3563 71.7921 70.8646 71.2767 70.6442L69.0512 69.6935L68.9443 69.6397L68.8503 69.5761C68.6395 69.4104 68.4931 69.1304 68.4931 68.8546V65.8614L68.5008 65.7472L68.5228 65.6471C68.5934 65.4243 68.7953 65.2799 69.0512 65.2971L71.2198 65.4411L71.3891 65.4403L71.555 65.4141C71.9283 65.3275 72.2025 65.0653 72.3207 64.6831C72.52 64.0386 72.776 63.4317 73.0815 62.8799C73.3231 62.4443 73.2841 61.8433 72.9801 61.3135L71.6725 59.0379L71.6107 58.9133L71.5691 58.7906C71.5065 58.5428 71.5671 58.2865 71.7442 58.1416L73.7423 56.5147L73.8486 56.4428L73.9231 56.4146C74.0049 56.3931 74.1066 56.3925 74.2141 56.4189C74.3567 56.454 74.4887 56.5309 74.598 56.6415L76.3946 58.459L76.5432 58.5944L76.7058 58.713C77.0902 58.9649 77.5058 59.0406 77.8643 58.925C78.4602 58.7336 79.0856 58.607 79.722 58.5489C80.2208 58.5031 80.586 58.147 80.6746 57.6198L81.0542 55.3457L81.08 55.2382L81.1181 55.1475C81.225 54.9497 81.4544 54.8504 81.7138 54.9142Z" fill="white"/>
<path fill-rule="evenodd" clip-rule="evenodd" d="M89.7372 72.1047C89.7372 68.2282 86.7728 64.346 83.1284 63.4499C79.4839 62.5538 76.5195 64.9781 76.5195 68.8547C76.5195 72.7312 79.4839 76.6134 83.1284 77.5095C86.7728 78.4056 89.7372 75.9813 89.7372 72.1047ZM79.0453 69.475C79.0453 67.0808 80.8771 65.5828 83.1279 66.1363C85.3787 66.6897 87.2105 69.0885 87.2105 71.4827C87.2105 73.8769 85.3787 75.375 83.1279 74.8215C80.8771 74.268 79.0453 71.8692 79.0453 69.475Z" fill="white"/>
<path d="M219.131 183.132C217.764 184.499 215.39 184.34 213.828 182.778C212.266 181.216 212.108 178.842 213.474 177.475C214.841 176.108 217.216 176.266 218.778 177.828C220.34 179.391 220.498 181.765 219.131 183.132Z" fill="#1E3D49"/>
<defs>
<filter id="filter0_dd_168_1348" x="193.328" y="1.88867" width="481.827" height="418.494" filterUnits="userSpaceOnUse" color-interpolation-filters="sRGB">
<feFlood flood-opacity="0" result="BackgroundImageFix"/>
<feColorMatrix in="SourceAlpha" type="matrix" values="0 0 0 0 0 0 0 0 0 0 0 0 0 0 0 0 0 0 127 0" result="hardAlpha"/>
<feOffset dx="-4" dy="11"/>
<feGaussianBlur stdDeviation="13.5"/>
<feColorMatrix type="matrix" values="0 0 0 0 0 0 0 0 0 0 0 0 0 0 0 0 0 0 0.0398274 0"/>
<feBlend mode="normal" in2="BackgroundImageFix" result="effect1_dropShadow_168_1348"/>
<feColorMatrix in="SourceAlpha" type="matrix" values="0 0 0 0 0 0 0 0 0 0 0 0 0 0 0 0 0 0 127 0" result="hardAlpha"/>
<feOffset dx="3" dy="-2"/>
<feColorMatrix type="matrix" values="0 0 0 0 1 0 0 0 0 1 0 0 0 0 1 0 0 0 1 0"/>
<feBlend mode="normal" in2="effect1_dropShadow_168_1348" result="effect2_dropShadow_168_1348"/>
<feBlend mode="normal" in="SourceGraphic" in2="effect2_dropShadow_168_1348" result="shape"/>
</filter>
<filter id="filter1_d_168_1348" x="443.078" y="34.043" width="269.075" height="414.339" filterUnits="userSpaceOnUse" color-interpolation-filters="sRGB">
<feFlood flood-opacity="0" result="BackgroundImageFix"/>
<feColorMatrix in="SourceAlpha" type="matrix" values="0 0 0 0 0 0 0 0 0 0 0 0 0 0 0 0 0 0 127 0" result="hardAlpha"/>
<feOffset dx="5" dy="11"/>
<feGaussianBlur stdDeviation="27.5"/>
<feColorMatrix type="matrix" values="0 0 0 0 0 0 0 0 0 0 0 0 0 0 0 0 0 0 0.0827688 0"/>
<feBlend mode="normal" in2="BackgroundImageFix" result="effect1_dropShadow_168_1348"/>
<feBlend mode="normal" in="SourceGraphic" in2="effect1_dropShadow_168_1348" result="shape"/>
</filter>
<filter id="filter2_dd_168_1348" x="99.9766" y="0.822266" width="525.827" height="462.494" filterUnits="userSpaceOnUse" color-interpolation-filters="sRGB">
<feFlood flood-opacity="0" result="BackgroundImageFix"/>
<feColorMatrix in="SourceAlpha" type="matrix" values="0 0 0 0 0 0 0 0 0 0 0 0 0 0 0 0 0 0 127 0" result="hardAlpha"/>
<feOffset dy="11"/>
<feGaussianBlur stdDeviation="24.5"/>
<feColorMatrix type="matrix" values="0 0 0 0 0 0 0 0 0 0 0 0 0 0 0 0 0 0 0.0697115 0"/>
<feBlend mode="normal" in2="BackgroundImageFix" result="effect1_dropShadow_168_1348"/>
<feColorMatrix in="SourceAlpha" type="matrix" values="0 0 0 0 0 0 0 0 0 0 0 0 0 0 0 0 0 0 127 0" result="hardAlpha"/>
<feOffset dx="3" dy="-2"/>
<feColorMatrix type="matrix" values="0 0 0 0 1 0 0 0 0 1 0 0 0 0 1 0 0 0 1 0"/>
<feBlend mode="normal" in2="effect1_dropShadow_168_1348" result="effect2_dropShadow_168_1348"/>
<feBlend mode="normal" in="SourceGraphic" in2="effect2_dropShadow_168_1348" result="shape"/>
</filter>
<filter id="filter3_d_168_1348" x="367.729" y="54.9764" width="269.075" height="414.339" filterUnits="userSpaceOnUse" color-interpolation-filters="sRGB">
<feFlood flood-opacity="0" result="BackgroundImageFix"/>
<feColorMatrix in="SourceAlpha" type="matrix" values="0 0 0 0 0 0 0 0 0 0 0 0 0 0 0 0 0 0 127 0" result="hardAlpha"/>
<feOffset dx="5" dy="11"/>
<feGaussianBlur stdDeviation="27.5"/>
<feColorMatrix type="matrix" values="0 0 0 0 0.871886 0 0 0 0 0.871886 0 0 0 0 0.871886 0 0 0 0.5 0"/>
<feBlend mode="normal" in2="BackgroundImageFix" result="effect1_dropShadow_168_1348"/>
<feBlend mode="normal" in="SourceGraphic" in2="effect1_dropShadow_168_1348" result="shape"/>
</filter>
<filter id="filter4_dd_168_1348" x="44.625" y="18.4277" width="523.827" height="460.494" filterUnits="userSpaceOnUse" color-interpolation-filters="sRGB">
<feFlood flood-opacity="0" result="BackgroundImageFix"/>
<feColorMatrix in="SourceAlpha" type="matrix" values="0 0 0 0 0 0 0 0 0 0 0 0 0 0 0 0 0 0 127 0" result="hardAlpha"/>
<feOffset dx="19" dy="11"/>
<feGaussianBlur stdDeviation="24"/>
<feColorMatrix type="matrix" values="0 0 0 0 0 0 0 0 0 0 0 0 0 0 0 0 0 0 0.0491149 0"/>
<feBlend mode="normal" in2="BackgroundImageFix" result="effect1_dropShadow_168_1348"/>
<feColorMatrix in="SourceAlpha" type="matrix" values="0 0 0 0 0 0 0 0 0 0 0 0 0 0 0 0 0 0 127 0" result="hardAlpha"/>
<feOffset dx="3" dy="-2"/>
<feColorMatrix type="matrix" values="0 0 0 0 1 0 0 0 0 1 0 0 0 0 1 0 0 0 1 0"/>
<feBlend mode="normal" in2="effect1_dropShadow_168_1348" result="effect2_dropShadow_168_1348"/>
<feBlend mode="normal" in="SourceGraphic" in2="effect2_dropShadow_168_1348" result="shape"/>
</filter>
<filter id="filter5_d_168_1348" x="251.52" y="219.566" width="31.2563" height="22.9734" filterUnits="userSpaceOnUse" color-interpolation-filters="sRGB">
<feFlood flood-opacity="0" result="BackgroundImageFix"/>
<feColorMatrix in="SourceAlpha" type="matrix" values="0 0 0 0 0 0 0 0 0 0 0 0 0 0 0 0 0 0 127 0" result="hardAlpha"/>
<feOffset dx="3" dy="-1"/>
<feGaussianBlur stdDeviation="3"/>
<feColorMatrix type="matrix" values="0 0 0 0 0 0 0 0 0 0 0 0 0 0 0 0 0 0 0.137511 0"/>
<feBlend mode="normal" in2="BackgroundImageFix" result="effect1_dropShadow_168_1348"/>
<feBlend mode="normal" in="SourceGraphic" in2="effect1_dropShadow_168_1348" result="shape"/>
</filter>
<filter id="filter6_d_168_1348" x="263.598" y="226.119" width="11.4971" height="12.4208" filterUnits="userSpaceOnUse" color-interpolation-filters="sRGB">
<feFlood flood-opacity="0" result="BackgroundImageFix"/>
<feColorMatrix in="SourceAlpha" type="matrix" values="0 0 0 0 0 0 0 0 0 0 0 0 0 0 0 0 0 0 127 0" result="hardAlpha"/>
<feOffset dx="1"/>
<feGaussianBlur stdDeviation="0.5"/>
<feColorMatrix type="matrix" values="0 0 0 0 0.117647 0 0 0 0 0.239216 0 0 0 0 0.286275 0 0 0 0.181627 0"/>
<feBlend mode="normal" in2="BackgroundImageFix" result="effect1_dropShadow_168_1348"/>
<feBlend mode="normal" in="SourceGraphic" in2="effect1_dropShadow_168_1348" result="shape"/>
</filter>
<filter id="filter7_d_168_1348" x="250.861" y="243.738" width="31.9146" height="23.5743" filterUnits="userSpaceOnUse" color-interpolation-filters="sRGB">
<feFlood flood-opacity="0" result="BackgroundImageFix"/>
<feColorMatrix in="SourceAlpha" type="matrix" values="0 0 0 0 0 0 0 0 0 0 0 0 0 0 0 0 0 0 127 0" result="hardAlpha"/>
<feOffset dx="3" dy="-1"/>
<feGaussianBlur stdDeviation="3"/>
<feColorMatrix type="matrix" values="0 0 0 0 0.48095 0 0 0 0 0.48095 0 0 0 0 0.48095 0 0 0 0.137511 0"/>
<feBlend mode="normal" in2="BackgroundImageFix" result="effect1_dropShadow_168_1348"/>
<feBlend mode="normal" in="SourceGraphic" in2="effect1_dropShadow_168_1348" result="shape"/>
</filter>
<filter id="filter8_d_168_1348" x="252.861" y="249.738" width="11.4971" height="12.4208" filterUnits="userSpaceOnUse" color-interpolation-filters="sRGB">
<feFlood flood-opacity="0" result="BackgroundImageFix"/>
<feColorMatrix in="SourceAlpha" type="matrix" values="0 0 0 0 0 0 0 0 0 0 0 0 0 0 0 0 0 0 127 0" result="hardAlpha"/>
<feOffset/>
<feGaussianBlur stdDeviation="0.5"/>
<feColorMatrix type="matrix" values="0 0 0 0 0.117647 0 0 0 0 0.239216 0 0 0 0 0.286275 0 0 0 0.24 0"/>
<feBlend mode="normal" in2="BackgroundImageFix" result="effect1_dropShadow_168_1348"/>
<feBlend mode="normal" in="SourceGraphic" in2="effect1_dropShadow_168_1348" result="shape"/>
</filter>
<filter id="filter9_d_168_1348" x="148.375" y="195.311" width="50.0012" height="25.672" filterUnits="userSpaceOnUse" color-interpolation-filters="sRGB">
<feFlood flood-opacity="0" result="BackgroundImageFix"/>
<feColorMatrix in="SourceAlpha" type="matrix" values="0 0 0 0 0 0 0 0 0 0 0 0 0 0 0 0 0 0 127 0" result="hardAlpha"/>
<feOffset dx="3" dy="-2"/>
<feGaussianBlur stdDeviation="3.5"/>
<feColorMatrix type="matrix" values="0 0 0 0 0.672752 0 0 0 0 0.672752 0 0 0 0 0.672752 0 0 0 0.5 0"/>
<feBlend mode="normal" in2="BackgroundImageFix" result="effect1_dropShadow_168_1348"/>
<feBlend mode="normal" in="SourceGraphic" in2="effect1_dropShadow_168_1348" result="shape"/>
</filter>
<filter id="filter10_d_168_1348" x="133.132" y="195.809" width="14.3701" height="11.7979" filterUnits="userSpaceOnUse" color-interpolation-filters="sRGB">
<feFlood flood-opacity="0" result="BackgroundImageFix"/>
<feColorMatrix in="SourceAlpha" type="matrix" values="0 0 0 0 0 0 0 0 0 0 0 0 0 0 0 0 0 0 127 0" result="hardAlpha"/>
<feOffset dx="2" dy="-1"/>
<feGaussianBlur stdDeviation="1.5"/>
<feColorMatrix type="matrix" values="0 0 0 0 0.625708 0 0 0 0 0.625708 0 0 0 0 0.625708 0 0 0 0.5 0"/>
<feBlend mode="normal" in2="BackgroundImageFix" result="effect1_dropShadow_168_1348"/>
<feBlend mode="normal" in="SourceGraphic" in2="effect1_dropShadow_168_1348" result="shape"/>
</filter>
<filter id="filter11_d_168_1348" x="133.132" y="221.766" width="14.3701" height="11.7979" filterUnits="userSpaceOnUse" color-interpolation-filters="sRGB">
<feFlood flood-opacity="0" result="BackgroundImageFix"/>
<feColorMatrix in="SourceAlpha" type="matrix" values="0 0 0 0 0 0 0 0 0 0 0 0 0 0 0 0 0 0 127 0" result="hardAlpha"/>
<feOffset dx="2" dy="-1"/>
<feGaussianBlur stdDeviation="1.5"/>
<feColorMatrix type="matrix" values="0 0 0 0 0.625708 0 0 0 0 0.625708 0 0 0 0 0.625708 0 0 0 0.5 0"/>
<feBlend mode="normal" in2="BackgroundImageFix" result="effect1_dropShadow_168_1348"/>
<feBlend mode="normal" in="SourceGraphic" in2="effect1_dropShadow_168_1348" result="shape"/>
</filter>
<filter id="filter12_d_168_1348" x="133.132" y="248.561" width="14.3701" height="11.7979" filterUnits="userSpaceOnUse" color-interpolation-filters="sRGB">
<feFlood flood-opacity="0" result="BackgroundImageFix"/>
<feColorMatrix in="SourceAlpha" type="matrix" values="0 0 0 0 0 0 0 0 0 0 0 0 0 0 0 0 0 0 127 0" result="hardAlpha"/>
<feOffset dx="2" dy="-1"/>
<feGaussianBlur stdDeviation="1.5"/>
<feColorMatrix type="matrix" values="0 0 0 0 0.625708 0 0 0 0 0.625708 0 0 0 0 0.625708 0 0 0 0.5 0"/>
<feBlend mode="normal" in2="BackgroundImageFix" result="effect1_dropShadow_168_1348"/>
<feBlend mode="normal" in="SourceGraphic" in2="effect1_dropShadow_168_1348" result="shape"/>
</filter>
<filter id="filter13_d_168_1348" x="148.375" y="221.27" width="50.0012" height="25.672" filterUnits="userSpaceOnUse" color-interpolation-filters="sRGB">
<feFlood flood-opacity="0" result="BackgroundImageFix"/>
<feColorMatrix in="SourceAlpha" type="matrix" values="0 0 0 0 0 0 0 0 0 0 0 0 0 0 0 0 0 0 127 0" result="hardAlpha"/>
<feOffset dx="3" dy="-2"/>
<feGaussianBlur stdDeviation="3.5"/>
<feColorMatrix type="matrix" values="0 0 0 0 0.672752 0 0 0 0 0.672752 0 0 0 0 0.672752 0 0 0 0.5 0"/>
<feBlend mode="normal" in2="BackgroundImageFix" result="effect1_dropShadow_168_1348"/>
<feBlend mode="normal" in="SourceGraphic" in2="effect1_dropShadow_168_1348" result="shape"/>
</filter>
<filter id="filter14_d_168_1348" x="251.52" y="272.32" width="31.2563" height="22.8383" filterUnits="userSpaceOnUse" color-interpolation-filters="sRGB">
<feFlood flood-opacity="0" result="BackgroundImageFix"/>
<feColorMatrix in="SourceAlpha" type="matrix" values="0 0 0 0 0 0 0 0 0 0 0 0 0 0 0 0 0 0 127 0" result="hardAlpha"/>
<feOffset dx="3" dy="-1"/>
<feGaussianBlur stdDeviation="3"/>
<feColorMatrix type="matrix" values="0 0 0 0 0 0 0 0 0 0 0 0 0 0 0 0 0 0 0.137511 0"/>
<feBlend mode="normal" in2="BackgroundImageFix" result="effect1_dropShadow_168_1348"/>
<feBlend mode="normal" in="SourceGraphic" in2="effect1_dropShadow_168_1348" result="shape"/>
</filter>
<filter id="filter15_d_168_1348" x="263.86" y="278.738" width="11.4971" height="12.4208" filterUnits="userSpaceOnUse" color-interpolation-filters="sRGB">
<feFlood flood-opacity="0" result="BackgroundImageFix"/>
<feColorMatrix in="SourceAlpha" type="matrix" values="0 0 0 0 0 0 0 0 0 0 0 0 0 0 0 0 0 0 127 0" result="hardAlpha"/>
<feOffset dx="1"/>
<feGaussianBlur stdDeviation="0.5"/>
<feColorMatrix type="matrix" values="0 0 0 0 0.117647 0 0 0 0 0.239216 0 0 0 0 0.286275 0 0 0 0.181627 0"/>
<feBlend mode="normal" in2="BackgroundImageFix" result="effect1_dropShadow_168_1348"/>
<feBlend mode="normal" in="SourceGraphic" in2="effect1_dropShadow_168_1348" result="shape"/>
</filter>
<filter id="filter16_d_168_1348" x="148.375" y="248.064" width="50.0012" height="25.672" filterUnits="userSpaceOnUse" color-interpolation-filters="sRGB">
<feFlood flood-opacity="0" result="BackgroundImageFix"/>
<feColorMatrix in="SourceAlpha" type="matrix" values="0 0 0 0 0 0 0 0 0 0 0 0 0 0 0 0 0 0 127 0" result="hardAlpha"/>
<feOffset dx="3" dy="-2"/>
<feGaussianBlur stdDeviation="3.5"/>
<feColorMatrix type="matrix" values="0 0 0 0 0.672752 0 0 0 0 0.672752 0 0 0 0 0.672752 0 0 0 0.5 0"/>
<feBlend mode="normal" in2="BackgroundImageFix" result="effect1_dropShadow_168_1348"/>
<feBlend mode="normal" in="SourceGraphic" in2="effect1_dropShadow_168_1348" result="shape"/>
</filter>
<filter id="filter17_d_168_1348" x="292.379" y="71.582" width="269.075" height="414.339" filterUnits="userSpaceOnUse" color-interpolation-filters="sRGB">
<feFlood flood-opacity="0" result="BackgroundImageFix"/>
<feColorMatrix in="SourceAlpha" type="matrix" values="0 0 0 0 0 0 0 0 0 0 0 0 0 0 0 0 0 0 127 0" result="hardAlpha"/>
<feOffset dx="5" dy="11"/>
<feGaussianBlur stdDeviation="27.5"/>
<feColorMatrix type="matrix" values="0 0 0 0 0.871886 0 0 0 0 0.871886 0 0 0 0 0.871886 0 0 0 0.5 0"/>
<feBlend mode="normal" in2="BackgroundImageFix" result="effect1_dropShadow_168_1348"/>
<feBlend mode="normal" in="SourceGraphic" in2="effect1_dropShadow_168_1348" result="shape"/>
</filter>
<filter id="filter18_d_168_1348" x="119.234" y="114.01" width="164.377" height="50.6736" filterUnits="userSpaceOnUse" color-interpolation-filters="sRGB">
<feFlood flood-opacity="0" result="BackgroundImageFix"/>
<feColorMatrix in="SourceAlpha" type="matrix" values="0 0 0 0 0 0 0 0 0 0 0 0 0 0 0 0 0 0 127 0" result="hardAlpha"/>
<feOffset dx="3" dy="-4"/>
<feGaussianBlur stdDeviation="3"/>
<feColorMatrix type="matrix" values="0 0 0 0 0.558113 0 0 0 0 0.539736 0 0 0 0 0.539736 0 0 0 0.145187 0"/>
<feBlend mode="normal" in2="BackgroundImageFix" result="effect1_dropShadow_168_1348"/>
<feBlend mode="normal" in="SourceGraphic" in2="effect1_dropShadow_168_1348" result="shape"/>
</filter>
<filter id="filter19_d_168_1348" x="276.062" y="173.791" width="37.1057" height="37.1057" filterUnits="userSpaceOnUse" color-interpolation-filters="sRGB">
<feFlood flood-opacity="0" result="BackgroundImageFix"/>
<feColorMatrix in="SourceAlpha" type="matrix" values="0 0 0 0 0 0 0 0 0 0 0 0 0 0 0 0 0 0 127 0" result="hardAlpha"/>
<feOffset dx="6" dy="-4"/>
<feGaussianBlur stdDeviation="4.5"/>
<feColorMatrix type="matrix" values="0 0 0 0 0.556863 0 0 0 0 0.619608 0 0 0 0 0.643137 0 0 0 0.349104 0"/>
<feBlend mode="normal" in2="BackgroundImageFix" result="effect1_dropShadow_168_1348"/>
<feBlend mode="normal" in="SourceGraphic" in2="effect1_dropShadow_168_1348" result="shape"/>
</filter>
<filter id="filter20_d_168_1348" x="149.234" y="108.736" width="14.5278" height="14.5278" filterUnits="userSpaceOnUse" color-interpolation-filters="sRGB">
<feFlood flood-opacity="0" result="BackgroundImageFix"/>
<feColorMatrix in="SourceAlpha" type="matrix" values="0 0 0 0 0 0 0 0 0 0 0 0 0 0 0 0 0 0 127 0" result="hardAlpha"/>
<feOffset dx="2" dy="-1"/>
<feGaussianBlur stdDeviation="2.5"/>
<feColorMatrix type="matrix" values="0 0 0 0 0.831373 0 0 0 0 0.290196 0 0 0 0 0.435294 0 0 0 0.467302 0"/>
<feBlend mode="normal" in2="BackgroundImageFix" result="effect1_dropShadow_168_1348"/>
<feBlend mode="normal" in="SourceGraphic" in2="effect1_dropShadow_168_1348" result="shape"/>
</filter>
<filter id="filter21_d_168_1348" x="121.234" y="102.775" width="36.4661" height="17.9309" filterUnits="userSpaceOnUse" color-interpolation-filters="sRGB">
<feFlood flood-opacity="0" result="BackgroundImageFix"/>
<feColorMatrix in="SourceAlpha" type="matrix" values="0 0 0 0 0 0 0 0 0 0 0 0 0 0 0 0 0 0 127 0" result="hardAlpha"/>
<feOffset dx="3" dy="-3"/>
<feGaussianBlur stdDeviation="2"/>
<feColorMatrix type="matrix" values="0 0 0 0 0 0 0 0 0 0 0 0 0 0 0 0 0 0 0.0677721 0"/>
<feBlend mode="normal" in2="BackgroundImageFix" result="effect1_dropShadow_168_1348"/>
<feBlend mode="normal" in="SourceGraphic" in2="effect1_dropShadow_168_1348" result="shape"/>
</filter>
<filter id="filter22_d_168_1348" x="149.234" y="144.736" width="14.5278" height="14.5279" filterUnits="userSpaceOnUse" color-interpolation-filters="sRGB">
<feFlood flood-opacity="0" result="BackgroundImageFix"/>
<feColorMatrix in="SourceAlpha" type="matrix" values="0 0 0 0 0 0 0 0 0 0 0 0 0 0 0 0 0 0 127 0" result="hardAlpha"/>
<feOffset dx="2" dy="-1"/>
<feGaussianBlur stdDeviation="2.5"/>
<feColorMatrix type="matrix" values="0 0 0 0 0.831373 0 0 0 0 0.290196 0 0 0 0 0.435294 0 0 0 0.467302 0"/>
<feBlend mode="normal" in2="BackgroundImageFix" result="effect1_dropShadow_168_1348"/>
<feBlend mode="normal" in="SourceGraphic" in2="effect1_dropShadow_168_1348" result="shape"/>
</filter>
<filter id="filter23_d_168_1348" x="121.234" y="137.105" width="36.4661" height="17.9308" filterUnits="userSpaceOnUse" color-interpolation-filters="sRGB">
<feFlood flood-opacity="0" result="BackgroundImageFix"/>
<feColorMatrix in="SourceAlpha" type="matrix" values="0 0 0 0 0 0 0 0 0 0 0 0 0 0 0 0 0 0 127 0" result="hardAlpha"/>
<feOffset dx="3" dy="-3"/>
<feGaussianBlur stdDeviation="2"/>
<feColorMatrix type="matrix" values="0 0 0 0 0 0 0 0 0 0 0 0 0 0 0 0 0 0 0.0677721 0"/>
<feBlend mode="normal" in2="BackgroundImageFix" result="effect1_dropShadow_168_1348"/>
<feBlend mode="normal" in="SourceGraphic" in2="effect1_dropShadow_168_1348" result="shape"/>
</filter>
<filter id="filter24_d_168_1348" x="276.945" y="140.947" width="37.1057" height="37.1057" filterUnits="userSpaceOnUse" color-interpolation-filters="sRGB">
<feFlood flood-opacity="0" result="BackgroundImageFix"/>
<feColorMatrix in="SourceAlpha" type="matrix" values="0 0 0 0 0 0 0 0 0 0 0 0 0 0 0 0 0 0 127 0" result="hardAlpha"/>
<feOffset dx="6" dy="-4"/>
<feGaussianBlur stdDeviation="4.5"/>
<feColorMatrix type="matrix" values="0 0 0 0 0.556863 0 0 0 0 0.619608 0 0 0 0 0.643137 0 0 0 0.349104 0"/>
<feBlend mode="normal" in2="BackgroundImageFix" result="effect1_dropShadow_168_1348"/>
<feBlend mode="normal" in="SourceGraphic" in2="effect1_dropShadow_168_1348" result="shape"/>
</filter>
<filter id="filter25_d_168_1348" x="379" y="199" width="87" height="38" filterUnits="userSpaceOnUse" color-interpolation-filters="sRGB">
<feFlood flood-opacity="0" result="BackgroundImageFix"/>
<feColorMatrix in="SourceAlpha" type="matrix" values="0 0 0 0 0 0 0 0 0 0 0 0 0 0 0 0 0 0 127 0" result="hardAlpha"/>
<feOffset dx="3" dy="-2"/>
<feGaussianBlur stdDeviation="3.5"/>
<feColorMatrix type="matrix" values="0 0 0 0 0.672752 0 0 0 0 0.672752 0 0 0 0 0.672752 0 0 0 0.5 0"/>
<feBlend mode="normal" in2="BackgroundImageFix" result="effect1_dropShadow_168_1348"/>
<feBlend mode="normal" in="SourceGraphic" in2="effect1_dropShadow_168_1348" result="shape"/>
</filter>
<filter id="filter26_d_168_1348" x="379" y="223" width="87" height="38" filterUnits="userSpaceOnUse" color-interpolation-filters="sRGB">
<feFlood flood-opacity="0" result="BackgroundImageFix"/>
<feColorMatrix in="SourceAlpha" type="matrix" values="0 0 0 0 0 0 0 0 0 0 0 0 0 0 0 0 0 0 127 0" result="hardAlpha"/>
<feOffset dx="3" dy="-2"/>
<feGaussianBlur stdDeviation="3.5"/>
<feColorMatrix type="matrix" values="0 0 0 0 0.672752 0 0 0 0 0.672752 0 0 0 0 0.672752 0 0 0 0.5 0"/>
<feBlend mode="normal" in2="BackgroundImageFix" result="effect1_dropShadow_168_1348"/>
<feBlend mode="normal" in="SourceGraphic" in2="effect1_dropShadow_168_1348" result="shape"/>
</filter>
<filter id="filter27_d_168_1348" x="379" y="247" width="87" height="38" filterUnits="userSpaceOnUse" color-interpolation-filters="sRGB">
<feFlood flood-opacity="0" result="BackgroundImageFix"/>
<feColorMatrix in="SourceAlpha" type="matrix" values="0 0 0 0 0 0 0 0 0 0 0 0 0 0 0 0 0 0 127 0" result="hardAlpha"/>
<feOffset dx="3" dy="-2"/>
<feGaussianBlur stdDeviation="3.5"/>
<feColorMatrix type="matrix" values="0 0 0 0 0.672752 0 0 0 0 0.672752 0 0 0 0 0.672752 0 0 0 0.5 0"/>
<feBlend mode="normal" in2="BackgroundImageFix" result="effect1_dropShadow_168_1348"/>
<feBlend mode="normal" in="SourceGraphic" in2="effect1_dropShadow_168_1348" result="shape"/>
</filter>
<filter id="filter28_d_168_1348" x="379" y="271" width="87" height="38" filterUnits="userSpaceOnUse" color-interpolation-filters="sRGB">
<feFlood flood-opacity="0" result="BackgroundImageFix"/>
<feColorMatrix in="SourceAlpha" type="matrix" values="0 0 0 0 0 0 0 0 0 0 0 0 0 0 0 0 0 0 127 0" result="hardAlpha"/>
<feOffset dx="3" dy="-2"/>
<feGaussianBlur stdDeviation="3.5"/>
<feColorMatrix type="matrix" values="0 0 0 0 0.672752 0 0 0 0 0.672752 0 0 0 0 0.672752 0 0 0 0.5 0"/>
<feBlend mode="normal" in2="BackgroundImageFix" result="effect1_dropShadow_168_1348"/>
<feBlend mode="normal" in="SourceGraphic" in2="effect1_dropShadow_168_1348" result="shape"/>
</filter>
<filter id="filter29_d_168_1348" x="379" y="295" width="87" height="38" filterUnits="userSpaceOnUse" color-interpolation-filters="sRGB">
<feFlood flood-opacity="0" result="BackgroundImageFix"/>
<feColorMatrix in="SourceAlpha" type="matrix" values="0 0 0 0 0 0 0 0 0 0 0 0 0 0 0 0 0 0 127 0" result="hardAlpha"/>
<feOffset dx="3" dy="-2"/>
<feGaussianBlur stdDeviation="3.5"/>
<feColorMatrix type="matrix" values="0 0 0 0 0.672752 0 0 0 0 0.672752 0 0 0 0 0.672752 0 0 0 0.5 0"/>
<feBlend mode="normal" in2="BackgroundImageFix" result="effect1_dropShadow_168_1348"/>
<feBlend mode="normal" in="SourceGraphic" in2="effect1_dropShadow_168_1348" result="shape"/>
</filter>
<filter id="filter30_d_168_1348" x="379" y="319" width="87" height="38" filterUnits="userSpaceOnUse" color-interpolation-filters="sRGB">
<feFlood flood-opacity="0" result="BackgroundImageFix"/>
<feColorMatrix in="SourceAlpha" type="matrix" values="0 0 0 0 0 0 0 0 0 0 0 0 0 0 0 0 0 0 127 0" result="hardAlpha"/>
<feOffset dx="3" dy="-2"/>
<feGaussianBlur stdDeviation="3.5"/>
<feColorMatrix type="matrix" values="0 0 0 0 0.672752 0 0 0 0 0.672752 0 0 0 0 0.672752 0 0 0 0.5 0"/>
<feBlend mode="normal" in2="BackgroundImageFix" result="effect1_dropShadow_168_1348"/>
<feBlend mode="normal" in="SourceGraphic" in2="effect1_dropShadow_168_1348" result="shape"/>
</filter>
<filter id="filter31_d_168_1348" x="379" y="343" width="87" height="38" filterUnits="userSpaceOnUse" color-interpolation-filters="sRGB">
<feFlood flood-opacity="0" result="BackgroundImageFix"/>
<feColorMatrix in="SourceAlpha" type="matrix" values="0 0 0 0 0 0 0 0 0 0 0 0 0 0 0 0 0 0 127 0" result="hardAlpha"/>
<feOffset dx="3" dy="-2"/>
<feGaussianBlur stdDeviation="3.5"/>
<feColorMatrix type="matrix" values="0 0 0 0 0.672752 0 0 0 0 0.672752 0 0 0 0 0.672752 0 0 0 0.5 0"/>
<feBlend mode="normal" in2="BackgroundImageFix" result="effect1_dropShadow_168_1348"/>
<feBlend mode="normal" in="SourceGraphic" in2="effect1_dropShadow_168_1348" result="shape"/>
</filter>
<filter id="filter32_d_168_1348" x="163.609" y="285.406" width="83.6299" height="49.4021" filterUnits="userSpaceOnUse" color-interpolation-filters="sRGB">
<feFlood flood-opacity="0" result="BackgroundImageFix"/>
<feColorMatrix in="SourceAlpha" type="matrix" values="0 0 0 0 0 0 0 0 0 0 0 0 0 0 0 0 0 0 127 0" result="hardAlpha"/>
<feOffset dx="7" dy="-5"/>
<feGaussianBlur stdDeviation="5"/>
<feColorMatrix type="matrix" values="0 0 0 0 0.556863 0 0 0 0 0.619608 0 0 0 0 0.643137 0 0 0 0.408545 0"/>
<feBlend mode="normal" in2="BackgroundImageFix" result="effect1_dropShadow_168_1348"/>
<feBlend mode="normal" in="SourceGraphic" in2="effect1_dropShadow_168_1348" result="shape"/>
</filter>
<linearGradient id="paint0_linear_168_1348" x1="358.639" y1="274.289" x2="467.838" y2="154.799" gradientUnits="userSpaceOnUse">
<stop stop-color="white"/>
<stop offset="1" stop-color="white"/>
</linearGradient>
<radialGradient id="paint1_radial_168_1348" cx="0" cy="0" r="1" gradientUnits="userSpaceOnUse" gradientTransform="translate(424.5 126) rotate(-16.2263) scale(258.593 227.637)">
<stop stop-color="#CCAAD1" stop-opacity="0.495083"/>
<stop offset="0.316344" stop-color="#D5BADA" stop-opacity="0.495993"/>
<stop offset="0.994946" stop-color="white" stop-opacity="0.5"/>
</radialGradient>
<radialGradient id="paint2_radial_168_1348" cx="0" cy="0" r="1" gradientUnits="userSpaceOnUse" gradientTransform="translate(672.778 224.198) rotate(90) scale(114.212 59.697)">
<stop stop-color="#BDDECE" stop-opacity="0.575858"/>
<stop offset="1" stop-color="#BDDFCE" stop-opacity="0.01"/>
</radialGradient>
<linearGradient id="paint3_linear_168_1348" x1="283.287" y1="295.222" x2="392.486" y2="175.733" gradientUnits="userSpaceOnUse">
<stop stop-color="white"/>
<stop offset="1" stop-color="white" stop-opacity="0.632567"/>
</linearGradient>
<linearGradient id="paint4_linear_168_1348" x1="190.202" y1="383.591" x2="337.971" y2="206.491" gradientUnits="userSpaceOnUse">
<stop stop-color="white"/>
<stop offset="1" stop-color="white" stop-opacity="0.818018"/>
</linearGradient>
<radialGradient id="paint5_radial_168_1348" cx="0" cy="0" r="1" gradientUnits="userSpaceOnUse" gradientTransform="translate(77.8792 318.594) rotate(-17.4606) scale(115.765 101.981)">
<stop stop-color="#DECA8D" stop-opacity="0.430288"/>
<stop offset="0.48066" stop-color="#E6D19B" stop-opacity="0.34405"/>
<stop offset="0.687719" stop-color="#EEE4C2" stop-opacity="0.248907"/>
<stop offset="1" stop-color="white" stop-opacity="0.5"/>
</radialGradient>
<clipPath id="clip0_168_1348">
<rect width="51.0714" height="51.0783" fill="white" transform="translate(145.68 368.922)"/>
</clipPath>
</defs>
</svg>
