<svg width="766" height="466" viewBox="0 0 766 466" fill="none" xmlns="http://www.w3.org/2000/svg">
<g clip-path="url(#clip0_166_5594)">
<rect width="766" height="466" fill="white"/>
<g filter="url(#filter0_d_166_5594)">
<path d="M15 23C15 18.5817 18.5817 15 23 15H742C746.418 15 750 18.5817 750 23V444C750 448.418 746.418 452 742 452H23C18.5817 452 15 448.418 15 444V23Z" fill="#E3E6E7"/>
</g>
<path fill-rule="evenodd" clip-rule="evenodd" d="M738 21H28C24.134 21 21 24.134 21 28V438C21 441.866 24.134 445 28 445H738C741.866 445 745 441.866 745 438V28C745 24.134 741.866 21 738 21ZM28 0C12.536 0 0 12.536 0 28V438C0 453.464 12.536 466 28 466H738C753.464 466 766 453.464 766 438V28C766 12.536 753.464 0 738 0H28Z" fill="#202020"/>
<g opacity="0.18" filter="url(#filter1_f_166_5594)">
<path d="M46 97C46 92.5817 49.5817 89 54 89H712C716.418 89 720 92.5817 720 97V414C720 418.418 716.418 422 712 422H54C49.5817 422 46 418.418 46 414V97Z" fill="#66777F"/>
</g>
<path d="M53 102C53 97.5817 56.5817 94 61 94H705C709.418 94 713 97.5817 713 102V405C713 409.418 709.418 413 705 413H61C56.5817 413 53 409.418 53 405V102Z" fill="white"/>
<path d="M300.579 67.9996V51.4636H294.183V49.7996H308.899V51.4636H302.503V67.9996H300.579Z" fill="#243D48"/>
<path d="M319.675 68.1556C318.306 68.1556 317.032 67.9302 315.853 67.4796C314.692 67.0116 313.678 66.3616 312.811 65.5296C311.962 64.6802 311.294 63.7009 310.809 62.5916C310.341 61.4649 310.107 60.2342 310.107 58.8996C310.107 57.5649 310.341 56.3429 310.809 55.2336C311.294 54.1069 311.962 53.1276 312.811 52.2956C313.678 51.4462 314.692 50.7962 315.853 50.3456C317.014 49.8776 318.288 49.6436 319.675 49.6436C321.044 49.6436 322.31 49.8776 323.471 50.3456C324.632 50.7962 325.638 51.4376 326.487 52.2696C327.354 53.1016 328.021 54.0809 328.489 55.2076C328.974 56.3342 329.217 57.5649 329.217 58.8996C329.217 60.2342 328.974 61.4649 328.489 62.5916C328.021 63.7182 327.354 64.6976 326.487 65.5296C325.638 66.3616 324.632 67.0116 323.471 67.4796C322.31 67.9302 321.044 68.1556 319.675 68.1556ZM319.675 66.4396C320.767 66.4396 321.772 66.2576 322.691 65.8936C323.627 65.5122 324.433 64.9836 325.109 64.3076C325.802 63.6142 326.34 62.8169 326.721 61.9156C327.102 60.9969 327.293 59.9916 327.293 58.8996C327.293 57.8076 327.102 56.8109 326.721 55.9096C326.34 54.9909 325.802 54.1936 325.109 53.5176C324.433 52.8242 323.627 52.2956 322.691 51.9316C321.772 51.5502 320.767 51.3596 319.675 51.3596C318.583 51.3596 317.569 51.5502 316.633 51.9316C315.697 52.2956 314.882 52.8242 314.189 53.5176C313.513 54.1936 312.976 54.9909 312.577 55.9096C312.196 56.8109 312.005 57.8076 312.005 58.8996C312.005 59.9742 312.196 60.9709 312.577 61.8896C312.976 62.8082 313.513 63.6142 314.189 64.3076C314.882 64.9836 315.697 65.5122 316.633 65.8936C317.569 66.2576 318.583 66.4396 319.675 66.4396Z" fill="#243D48"/>
<path d="M333.529 67.9996V49.7996H340.341C341.884 49.7996 343.21 50.0509 344.319 50.5536C345.429 51.0389 346.278 51.7496 346.867 52.6856C347.474 53.6042 347.777 54.7222 347.777 56.0396C347.777 57.3222 347.474 58.4316 346.867 59.3676C346.278 60.2862 345.429 60.9969 344.319 61.4996C343.21 62.0022 341.884 62.2536 340.341 62.2536H334.595L335.453 61.3436V67.9996H333.529ZM335.453 61.4996L334.595 60.5636H340.289C342.109 60.5636 343.487 60.1736 344.423 59.3936C345.377 58.5962 345.853 57.4782 345.853 56.0396C345.853 54.5836 345.377 53.4569 344.423 52.6596C343.487 51.8622 342.109 51.4636 340.289 51.4636H334.595L335.453 50.5536V61.4996Z" fill="#243D48"/>
<path d="M366.9 68.1556C365.531 68.1556 364.266 67.9302 363.104 67.4796C361.943 67.0116 360.938 66.3616 360.088 65.5296C359.239 64.6976 358.572 63.7182 358.086 62.5916C357.618 61.4649 357.384 60.2342 357.384 58.8996C357.384 57.5649 357.618 56.3342 358.086 55.2076C358.572 54.0809 359.239 53.1016 360.088 52.2696C360.955 51.4376 361.969 50.7962 363.13 50.3456C364.292 49.8776 365.557 49.6436 366.926 49.6436C368.244 49.6436 369.483 49.8689 370.644 50.3196C371.806 50.7529 372.785 51.4116 373.582 52.2956L372.36 53.5176C371.615 52.7549 370.792 52.2089 369.89 51.8796C368.989 51.5329 368.018 51.3596 366.978 51.3596C365.886 51.3596 364.872 51.5502 363.936 51.9316C363 52.2956 362.186 52.8242 361.492 53.5176C360.799 54.1936 360.253 54.9909 359.854 55.9096C359.473 56.8109 359.282 57.8076 359.282 58.8996C359.282 59.9916 359.473 60.9969 359.854 61.9156C360.253 62.8169 360.799 63.6142 361.492 64.3076C362.186 64.9836 363 65.5122 363.936 65.8936C364.872 66.2576 365.886 66.4396 366.978 66.4396C368.018 66.4396 368.989 66.2662 369.89 65.9196C370.792 65.5729 371.615 65.0182 372.36 64.2556L373.582 65.4776C372.785 66.3616 371.806 67.0289 370.644 67.4796C369.483 67.9302 368.235 68.1556 366.9 68.1556Z" fill="#243D48"/>
<path d="M377.684 67.9996V49.7996H379.608V66.3356H389.8V67.9996H377.684Z" fill="#243D48"/>
<path d="M392.994 67.9996V49.7996H394.918V67.9996H392.994Z" fill="#243D48"/>
<path d="M408.744 68.1556C407.375 68.1556 406.109 67.9302 404.948 67.4796C403.787 67.0116 402.781 66.3616 401.932 65.5296C401.083 64.6976 400.415 63.7182 399.93 62.5916C399.462 61.4649 399.228 60.2342 399.228 58.8996C399.228 57.5649 399.462 56.3342 399.93 55.2076C400.415 54.0809 401.083 53.1016 401.932 52.2696C402.799 51.4376 403.813 50.7962 404.974 50.3456C406.135 49.8776 407.401 49.6436 408.77 49.6436C410.087 49.6436 411.327 49.8689 412.488 50.3196C413.649 50.7529 414.629 51.4116 415.426 52.2956L414.204 53.5176C413.459 52.7549 412.635 52.2089 411.734 51.8796C410.833 51.5329 409.862 51.3596 408.822 51.3596C407.73 51.3596 406.716 51.5502 405.78 51.9316C404.844 52.2956 404.029 52.8242 403.336 53.5176C402.643 54.1936 402.097 54.9909 401.698 55.9096C401.317 56.8109 401.126 57.8076 401.126 58.8996C401.126 59.9916 401.317 60.9969 401.698 61.9156C402.097 62.8169 402.643 63.6142 403.336 64.3076C404.029 64.9836 404.844 65.5122 405.78 65.8936C406.716 66.2576 407.73 66.4396 408.822 66.4396C409.862 66.4396 410.833 66.2662 411.734 65.9196C412.635 65.5729 413.459 65.0182 414.204 64.2556L415.426 65.4776C414.629 66.3616 413.649 67.0289 412.488 67.4796C411.327 67.9302 410.079 68.1556 408.744 68.1556Z" fill="#243D48"/>
<path d="M421.191 63.4756L421.113 61.1356L432.137 49.7996H434.347L426.313 58.2236L425.221 59.3936L421.191 63.4756ZM419.527 67.9996V49.7996H421.451V67.9996H419.527ZM432.605 67.9996L424.753 58.9516L426.053 57.5476L434.893 67.9996H432.605Z" fill="#243D48"/>
<path d="M439.728 57.9376H449.348V59.5756H439.728V57.9376ZM439.936 66.3356H450.882V67.9996H438.012V49.7996H450.492V51.4636H439.936V66.3356Z" fill="#243D48"/>
<path d="M455.404 67.9996V49.7996H462.814C464.756 49.7996 466.454 50.1896 467.91 50.9696C469.384 51.7322 470.528 52.7982 471.342 54.1676C472.157 55.5369 472.564 57.1142 472.564 58.8996C472.564 60.6849 472.157 62.2622 471.342 63.6316C470.528 65.0009 469.384 66.0756 467.91 66.8556C466.454 67.6182 464.756 67.9996 462.814 67.9996H455.404ZM457.328 66.3356H462.71C464.322 66.3356 465.718 66.0236 466.896 65.3996C468.092 64.7582 469.02 63.8829 469.678 62.7736C470.337 61.6469 470.666 60.3556 470.666 58.8996C470.666 57.4262 470.337 56.1349 469.678 55.0256C469.02 53.9162 468.092 53.0496 466.896 52.4256C465.718 51.7842 464.322 51.4636 462.71 51.4636H457.328V66.3356Z" fill="#243D48"/>
<path d="M640 240.5C640 234.701 644.701 230 650.5 230V230C656.299 230 661 234.701 661 240.5V240.737C661 246.536 656.299 251.237 650.5 251.237V251.237C644.701 251.237 640 246.536 640 240.737V240.5Z" fill="#243D48"/>
<path d="M649.844 237.146C649.844 236.783 650.138 236.489 650.5 236.489V236.489C650.862 236.489 651.156 236.783 651.156 237.146V243.62C651.156 243.983 650.862 244.277 650.5 244.277V244.277C650.138 244.277 649.844 243.983 649.844 243.62V237.146Z" fill="white"/>
<path d="M647.211 241.032C646.853 241.032 646.562 240.742 646.562 240.383V240.383C646.562 240.025 646.853 239.734 647.211 239.734L653.789 239.734C654.147 239.734 654.437 240.025 654.437 240.383V240.383C654.437 240.742 654.147 241.032 653.789 241.032L647.211 241.032Z" fill="white"/>
<path d="M106.05 230V223H108.78C109.393 223 109.917 223.096 110.35 223.29C110.783 223.483 111.117 223.763 111.35 224.13C111.583 224.496 111.7 224.933 111.7 225.44C111.7 225.946 111.583 226.383 111.35 226.75C111.117 227.11 110.783 227.39 110.35 227.59C109.917 227.783 109.393 227.88 108.78 227.88H106.6L107.05 227.41V230H106.05ZM107.05 227.51L106.6 227.01H108.75C109.39 227.01 109.873 226.873 110.2 226.6C110.533 226.326 110.7 225.94 110.7 225.44C110.7 224.94 110.533 224.553 110.2 224.28C109.873 224.006 109.39 223.87 108.75 223.87H106.6L107.05 223.37V227.51Z" fill="#66777F"/>
<path d="M113.127 230V224.7H114.087V230H113.127ZM113.607 223.68C113.42 223.68 113.264 223.62 113.137 223.5C113.017 223.38 112.957 223.233 112.957 223.06C112.957 222.88 113.017 222.73 113.137 222.61C113.264 222.49 113.42 222.43 113.607 222.43C113.794 222.43 113.947 222.49 114.067 222.61C114.194 222.723 114.257 222.866 114.257 223.04C114.257 223.22 114.197 223.373 114.077 223.5C113.957 223.62 113.8 223.68 113.607 223.68Z" fill="#66777F"/>
<path d="M117.31 230L114.99 224.7H115.99L118.05 229.5H117.57L119.67 224.7H120.61L118.29 230H117.31Z" fill="#66777F"/>
<path d="M123.629 230.06C123.096 230.06 122.623 229.943 122.209 229.71C121.796 229.476 121.469 229.156 121.229 228.75C120.989 228.336 120.869 227.87 120.869 227.35C120.869 226.823 120.989 226.356 121.229 225.95C121.469 225.543 121.796 225.226 122.209 225C122.623 224.766 123.096 224.65 123.629 224.65C124.156 224.65 124.626 224.766 125.039 225C125.459 225.226 125.786 225.543 126.019 225.95C126.259 226.35 126.379 226.816 126.379 227.35C126.379 227.876 126.259 228.343 126.019 228.75C125.786 229.156 125.459 229.476 125.039 229.71C124.626 229.943 124.156 230.06 123.629 230.06ZM123.629 229.22C123.969 229.22 124.273 229.143 124.539 228.99C124.813 228.836 125.026 228.62 125.179 228.34C125.333 228.053 125.409 227.723 125.409 227.35C125.409 226.97 125.333 226.643 125.179 226.37C125.026 226.09 124.813 225.873 124.539 225.72C124.273 225.566 123.969 225.49 123.629 225.49C123.289 225.49 122.986 225.566 122.719 225.72C122.453 225.873 122.239 226.09 122.079 226.37C121.919 226.643 121.839 226.97 121.839 227.35C121.839 227.723 121.919 228.053 122.079 228.34C122.239 228.62 122.453 228.836 122.719 228.99C122.986 229.143 123.289 229.22 123.629 229.22Z" fill="#66777F"/>
<path d="M129.527 230.06C128.994 230.06 128.58 229.916 128.287 229.63C127.994 229.343 127.847 228.933 127.847 228.4V223.54H128.807V228.36C128.807 228.646 128.877 228.866 129.017 229.02C129.164 229.173 129.37 229.25 129.637 229.25C129.937 229.25 130.187 229.166 130.387 229L130.687 229.69C130.54 229.816 130.364 229.91 130.157 229.97C129.957 230.03 129.747 230.06 129.527 230.06ZM126.947 225.49V224.7H130.327V225.49H126.947Z" fill="#66777F"/>
<path d="M134.673 230V224.23C134.673 223.71 134.823 223.296 135.123 222.99C135.43 222.676 135.863 222.52 136.423 222.52C136.63 222.52 136.826 222.546 137.013 222.6C137.206 222.646 137.37 222.723 137.503 222.83L137.213 223.56C137.113 223.48 137 223.42 136.873 223.38C136.746 223.333 136.613 223.31 136.473 223.31C136.193 223.31 135.98 223.39 135.833 223.55C135.686 223.703 135.613 223.933 135.613 224.24V224.95L135.633 225.39V230H134.673ZM133.773 225.49V224.7H137.153V225.49H133.773ZM138.063 230V224.7H139.023V230H138.063ZM138.543 223.68C138.356 223.68 138.2 223.62 138.073 223.5C137.953 223.38 137.893 223.233 137.893 223.06C137.893 222.88 137.953 222.73 138.073 222.61C138.2 222.49 138.356 222.43 138.543 222.43C138.73 222.43 138.883 222.49 139.003 222.61C139.13 222.723 139.193 222.866 139.193 223.04C139.193 223.22 139.133 223.373 139.013 223.5C138.893 223.62 138.736 223.68 138.543 223.68Z" fill="#66777F"/>
<path d="M143.211 230.06C142.645 230.06 142.145 229.943 141.711 229.71C141.285 229.476 140.951 229.156 140.711 228.75C140.478 228.343 140.361 227.876 140.361 227.35C140.361 226.823 140.475 226.356 140.701 225.95C140.935 225.543 141.251 225.226 141.651 225C142.058 224.766 142.515 224.65 143.021 224.65C143.535 224.65 143.988 224.763 144.381 224.99C144.775 225.216 145.081 225.536 145.301 225.95C145.528 226.356 145.641 226.833 145.641 227.38C145.641 227.42 145.638 227.466 145.631 227.52C145.631 227.573 145.628 227.623 145.621 227.67H141.111V226.98H145.121L144.731 227.22C144.738 226.88 144.668 226.576 144.521 226.31C144.375 226.043 144.171 225.836 143.911 225.69C143.658 225.536 143.361 225.46 143.021 225.46C142.688 225.46 142.391 225.536 142.131 225.69C141.871 225.836 141.668 226.046 141.521 226.32C141.375 226.586 141.301 226.893 141.301 227.24V227.4C141.301 227.753 141.381 228.07 141.541 228.35C141.708 228.623 141.938 228.836 142.231 228.99C142.525 229.143 142.861 229.22 143.241 229.22C143.555 229.22 143.838 229.166 144.091 229.06C144.351 228.953 144.578 228.793 144.771 228.58L145.301 229.2C145.061 229.48 144.761 229.693 144.401 229.84C144.048 229.986 143.651 230.06 143.211 230.06Z" fill="#66777F"/>
<path d="M146.975 230V222.58H147.935V230H146.975Z" fill="#66777F"/>
<path d="M151.957 230.06C151.444 230.06 150.984 229.946 150.577 229.72C150.177 229.493 149.861 229.176 149.627 228.77C149.394 228.363 149.277 227.89 149.277 227.35C149.277 226.81 149.394 226.34 149.627 225.94C149.861 225.533 150.177 225.216 150.577 224.99C150.984 224.763 151.444 224.65 151.957 224.65C152.404 224.65 152.807 224.75 153.167 224.95C153.527 225.15 153.814 225.45 154.027 225.85C154.247 226.25 154.357 226.75 154.357 227.35C154.357 227.95 154.251 228.45 154.037 228.85C153.831 229.25 153.547 229.553 153.187 229.76C152.827 229.96 152.417 230.06 151.957 230.06ZM152.037 229.22C152.371 229.22 152.671 229.143 152.937 228.99C153.211 228.836 153.424 228.62 153.577 228.34C153.737 228.053 153.817 227.723 153.817 227.35C153.817 226.97 153.737 226.643 153.577 226.37C153.424 226.09 153.211 225.873 152.937 225.72C152.671 225.566 152.371 225.49 152.037 225.49C151.697 225.49 151.394 225.566 151.127 225.72C150.861 225.873 150.647 226.09 150.487 226.37C150.327 226.643 150.247 226.97 150.247 227.35C150.247 227.723 150.327 228.053 150.487 228.34C150.647 228.62 150.861 228.836 151.127 228.99C151.394 229.143 151.697 229.22 152.037 229.22ZM153.847 230V228.57L153.907 227.34L153.807 226.11V222.58H154.767V230H153.847Z" fill="#66777F"/>
<path d="M158.104 230.06C157.664 230.06 157.244 230 156.844 229.88C156.451 229.76 156.141 229.613 155.914 229.44L156.314 228.68C156.541 228.833 156.821 228.963 157.154 229.07C157.487 229.176 157.827 229.23 158.174 229.23C158.621 229.23 158.941 229.166 159.134 229.04C159.334 228.913 159.434 228.736 159.434 228.51C159.434 228.343 159.374 228.213 159.254 228.12C159.134 228.026 158.974 227.956 158.774 227.91C158.581 227.863 158.364 227.823 158.124 227.79C157.884 227.75 157.644 227.703 157.404 227.65C157.164 227.59 156.944 227.51 156.744 227.41C156.544 227.303 156.384 227.16 156.264 226.98C156.144 226.793 156.084 226.546 156.084 226.24C156.084 225.92 156.174 225.64 156.354 225.4C156.534 225.16 156.787 224.976 157.114 224.85C157.447 224.716 157.841 224.65 158.294 224.65C158.641 224.65 158.991 224.693 159.344 224.78C159.704 224.86 159.997 224.976 160.224 225.13L159.814 225.89C159.574 225.73 159.324 225.62 159.064 225.56C158.804 225.5 158.544 225.47 158.284 225.47C157.864 225.47 157.551 225.54 157.344 225.68C157.137 225.813 157.034 225.986 157.034 226.2C157.034 226.38 157.094 226.52 157.214 226.62C157.341 226.713 157.501 226.786 157.694 226.84C157.894 226.893 158.114 226.94 158.354 226.98C158.594 227.013 158.834 227.06 159.074 227.12C159.314 227.173 159.531 227.25 159.724 227.35C159.924 227.45 160.084 227.59 160.204 227.77C160.331 227.95 160.394 228.19 160.394 228.49C160.394 228.81 160.301 229.086 160.114 229.32C159.927 229.553 159.664 229.736 159.324 229.87C158.984 229.996 158.577 230.06 158.104 230.06Z" fill="#66777F"/>
<path fill-rule="evenodd" clip-rule="evenodd" d="M614 251H105V250H614V251Z" fill="#E3E6E7"/>
<path d="M114.819 268V261.322H115.683V268H114.819ZM120.294 268V266.992L120.249 266.803V265.084C120.249 264.718 120.141 264.436 119.925 264.238C119.715 264.034 119.397 263.932 118.971 263.932C118.689 263.932 118.413 263.98 118.143 264.076C117.873 264.166 117.645 264.289 117.459 264.445L117.099 263.797C117.345 263.599 117.639 263.449 117.981 263.347C118.329 263.239 118.692 263.185 119.07 263.185C119.724 263.185 120.228 263.344 120.582 263.662C120.936 263.98 121.113 264.466 121.113 265.12V268H120.294ZM118.728 268.054C118.374 268.054 118.062 267.994 117.792 267.874C117.528 267.754 117.324 267.589 117.18 267.379C117.036 267.163 116.964 266.92 116.964 266.65C116.964 266.392 117.024 266.158 117.144 265.948C117.27 265.738 117.471 265.57 117.747 265.444C118.029 265.318 118.407 265.255 118.881 265.255H120.393V265.876H118.917C118.485 265.876 118.194 265.948 118.044 266.092C117.894 266.236 117.819 266.41 117.819 266.614C117.819 266.848 117.912 267.037 118.098 267.181C118.284 267.319 118.542 267.388 118.872 267.388C119.196 267.388 119.478 267.316 119.718 267.172C119.964 267.028 120.141 266.818 120.249 266.542L120.42 267.136C120.306 267.418 120.105 267.643 119.817 267.811C119.529 267.973 119.166 268.054 118.728 268.054ZM125.259 263.185C125.649 263.185 125.991 263.26 126.285 263.41C126.585 263.56 126.819 263.788 126.987 264.094C127.155 264.4 127.239 264.787 127.239 265.255V268H126.375V265.354C126.375 264.892 126.261 264.544 126.033 264.31C125.811 264.076 125.496 263.959 125.088 263.959C124.782 263.959 124.515 264.019 124.287 264.139C124.059 264.259 123.882 264.436 123.756 264.67C123.636 264.904 123.576 265.195 123.576 265.543V268H122.712V263.23H123.54V264.517L123.405 264.175C123.561 263.863 123.801 263.62 124.125 263.446C124.449 263.272 124.827 263.185 125.259 263.185ZM130.926 269.8C130.488 269.8 130.062 269.737 129.648 269.611C129.24 269.491 128.907 269.317 128.649 269.089L129.063 268.423C129.285 268.615 129.558 268.765 129.882 268.873C130.206 268.987 130.545 269.044 130.899 269.044C131.463 269.044 131.877 268.912 132.141 268.648C132.405 268.384 132.537 267.982 132.537 267.442V266.434L132.627 265.489L132.582 264.535V263.23H133.401V267.352C133.401 268.192 133.191 268.81 132.771 269.206C132.351 269.602 131.736 269.8 130.926 269.8ZM130.818 267.802C130.356 267.802 129.942 267.706 129.576 267.514C129.216 267.316 128.928 267.043 128.712 266.695C128.502 266.347 128.397 265.945 128.397 265.489C128.397 265.027 128.502 264.625 128.712 264.283C128.928 263.935 129.216 263.665 129.576 263.473C129.942 263.281 130.356 263.185 130.818 263.185C131.226 263.185 131.598 263.269 131.934 263.437C132.27 263.599 132.537 263.851 132.735 264.193C132.939 264.535 133.041 264.967 133.041 265.489C133.041 266.005 132.939 266.434 132.735 266.776C132.537 267.118 132.27 267.376 131.934 267.55C131.598 267.718 131.226 267.802 130.818 267.802ZM130.917 267.046C131.235 267.046 131.517 266.98 131.763 266.848C132.009 266.716 132.201 266.533 132.339 266.299C132.483 266.065 132.555 265.795 132.555 265.489C132.555 265.183 132.483 264.913 132.339 264.679C132.201 264.445 132.009 264.265 131.763 264.139C131.517 264.007 131.235 263.941 130.917 263.941C130.599 263.941 130.314 264.007 130.062 264.139C129.816 264.265 129.621 264.445 129.477 264.679C129.339 264.913 129.27 265.183 129.27 265.489C129.27 265.795 129.339 266.065 129.477 266.299C129.621 266.533 129.816 266.716 130.062 266.848C130.314 266.98 130.599 267.046 130.917 267.046Z" fill="#243D48"/>
<path fill-rule="evenodd" clip-rule="evenodd" d="M148.708 262.938L148.062 262.292L145.5 264.854L142.938 262.292L142.292 262.938L144.854 265.5L142.292 268.062L142.938 268.709L145.5 266.147L148.062 268.709L148.708 268.062L146.146 265.5L148.708 262.938Z" fill="#919EA3"/>
<rect x="105.5" y="256.5" width="52" height="18" rx="9" stroke="#243D48"/>
<path d="M108.078 198.072C107.52 198.072 107.043 197.949 106.647 197.703C106.251 197.457 105.948 197.103 105.738 196.641C105.534 196.173 105.432 195.603 105.432 194.931C105.432 194.217 105.558 193.614 105.81 193.122C106.062 192.63 106.413 192.258 106.863 192.006C107.313 191.754 107.829 191.628 108.411 191.628C108.711 191.628 108.996 191.658 109.266 191.718C109.542 191.778 109.779 191.871 109.977 191.997L109.635 192.699C109.473 192.585 109.287 192.507 109.077 192.465C108.873 192.423 108.657 192.402 108.429 192.402C107.787 192.402 107.277 192.603 106.899 193.005C106.521 193.401 106.332 193.992 106.332 194.778C106.332 194.904 106.338 195.054 106.35 195.228C106.362 195.402 106.392 195.573 106.44 195.741L106.134 195.435C106.224 195.159 106.365 194.928 106.557 194.742C106.755 194.55 106.989 194.409 107.259 194.319C107.535 194.223 107.832 194.175 108.15 194.175C108.57 194.175 108.942 194.253 109.266 194.409C109.59 194.565 109.845 194.787 110.031 195.075C110.217 195.357 110.31 195.693 110.31 196.083C110.31 196.485 110.211 196.836 110.013 197.136C109.815 197.436 109.548 197.667 109.212 197.829C108.876 197.991 108.498 198.072 108.078 198.072ZM108.042 197.343C108.318 197.343 108.558 197.292 108.762 197.19C108.972 197.088 109.137 196.947 109.257 196.767C109.377 196.581 109.437 196.365 109.437 196.119C109.437 195.747 109.308 195.453 109.05 195.237C108.792 195.015 108.441 194.904 107.997 194.904C107.709 194.904 107.457 194.958 107.241 195.066C107.025 195.174 106.854 195.321 106.728 195.507C106.608 195.687 106.548 195.894 106.548 196.128C106.548 196.344 106.605 196.545 106.719 196.731C106.833 196.911 107.001 197.058 107.223 197.172C107.445 197.286 107.718 197.343 108.042 197.343Z" fill="#243D48"/>
<path d="M113.561 198.072C113.069 198.072 112.628 197.946 112.238 197.694C111.854 197.442 111.548 197.076 111.32 196.596C111.098 196.116 110.987 195.534 110.987 194.85C110.987 194.166 111.098 193.584 111.32 193.104C111.548 192.624 111.854 192.258 112.238 192.006C112.628 191.754 113.069 191.628 113.561 191.628C114.047 191.628 114.485 191.754 114.875 192.006C115.265 192.258 115.571 192.624 115.793 193.104C116.015 193.584 116.126 194.166 116.126 194.85C116.126 195.534 116.015 196.116 115.793 196.596C115.571 197.076 115.265 197.442 114.875 197.694C114.485 197.946 114.047 198.072 113.561 198.072ZM113.561 197.271C113.891 197.271 114.179 197.181 114.425 197.001C114.677 196.821 114.872 196.551 115.01 196.191C115.154 195.831 115.226 195.384 115.226 194.85C115.226 194.316 115.154 193.869 115.01 193.509C114.872 193.149 114.677 192.879 114.425 192.699C114.179 192.519 113.891 192.429 113.561 192.429C113.231 192.429 112.94 192.519 112.688 192.699C112.436 192.879 112.238 193.149 112.094 193.509C111.956 193.869 111.887 194.316 111.887 194.85C111.887 195.384 111.956 195.831 112.094 196.191C112.238 196.551 112.436 196.821 112.688 197.001C112.94 197.181 113.231 197.271 113.561 197.271Z" fill="#243D48"/>
<path d="M119.456 198.054C118.97 198.054 118.535 197.949 118.151 197.739C117.773 197.529 117.476 197.241 117.26 196.875C117.044 196.509 116.936 196.089 116.936 195.615C116.936 195.141 117.044 194.721 117.26 194.355C117.476 193.989 117.773 193.704 118.151 193.5C118.535 193.29 118.97 193.185 119.456 193.185C119.888 193.185 120.272 193.272 120.608 193.446C120.95 193.614 121.214 193.866 121.4 194.202L120.743 194.625C120.587 194.391 120.395 194.22 120.167 194.112C119.945 193.998 119.705 193.941 119.447 193.941C119.135 193.941 118.856 194.01 118.61 194.148C118.364 194.286 118.169 194.481 118.025 194.733C117.881 194.979 117.809 195.273 117.809 195.615C117.809 195.957 117.881 196.254 118.025 196.506C118.169 196.758 118.364 196.953 118.61 197.091C118.856 197.229 119.135 197.298 119.447 197.298C119.705 197.298 119.945 197.244 120.167 197.136C120.395 197.022 120.587 196.848 120.743 196.614L121.4 197.028C121.214 197.358 120.95 197.613 120.608 197.793C120.272 197.967 119.888 198.054 119.456 198.054Z" fill="#243D48"/>
<path d="M124.716 198.072C124.158 198.072 123.681 197.949 123.285 197.703C122.889 197.457 122.586 197.103 122.376 196.641C122.172 196.173 122.07 195.603 122.07 194.931C122.07 194.217 122.196 193.614 122.448 193.122C122.7 192.63 123.051 192.258 123.501 192.006C123.951 191.754 124.467 191.628 125.049 191.628C125.349 191.628 125.634 191.658 125.904 191.718C126.18 191.778 126.417 191.871 126.615 191.997L126.273 192.699C126.111 192.585 125.925 192.507 125.715 192.465C125.511 192.423 125.295 192.402 125.067 192.402C124.425 192.402 123.915 192.603 123.537 193.005C123.159 193.401 122.97 193.992 122.97 194.778C122.97 194.904 122.976 195.054 122.988 195.228C123 195.402 123.03 195.573 123.078 195.741L122.772 195.435C122.862 195.159 123.003 194.928 123.195 194.742C123.393 194.55 123.627 194.409 123.897 194.319C124.173 194.223 124.47 194.175 124.788 194.175C125.208 194.175 125.58 194.253 125.904 194.409C126.228 194.565 126.483 194.787 126.669 195.075C126.855 195.357 126.948 195.693 126.948 196.083C126.948 196.485 126.849 196.836 126.651 197.136C126.453 197.436 126.186 197.667 125.85 197.829C125.514 197.991 125.136 198.072 124.716 198.072ZM124.68 197.343C124.956 197.343 125.196 197.292 125.4 197.19C125.61 197.088 125.775 196.947 125.895 196.767C126.015 196.581 126.075 196.365 126.075 196.119C126.075 195.747 125.946 195.453 125.688 195.237C125.43 195.015 125.079 194.904 124.635 194.904C124.347 194.904 124.095 194.958 123.879 195.066C123.663 195.174 123.492 195.321 123.366 195.507C123.246 195.687 123.186 195.894 123.186 196.128C123.186 196.344 123.243 196.545 123.357 196.731C123.471 196.911 123.639 197.058 123.861 197.172C124.083 197.286 124.356 197.343 124.68 197.343Z" fill="#243D48"/>
<path d="M128.137 198V192.807C128.137 192.339 128.272 191.967 128.542 191.691C128.818 191.409 129.208 191.268 129.712 191.268C129.898 191.268 130.075 191.292 130.243 191.34C130.417 191.382 130.564 191.451 130.684 191.547L130.423 192.204C130.333 192.132 130.231 192.078 130.117 192.042C130.003 192 129.883 191.979 129.757 191.979C129.505 191.979 129.313 192.051 129.181 192.195C129.049 192.333 128.983 192.54 128.983 192.816V193.455L129.001 193.851V198H128.137ZM127.327 193.941V193.23H130.369V193.941H127.327Z" fill="#243D48"/>
<path d="M133.549 198.072C132.991 198.072 132.514 197.949 132.118 197.703C131.722 197.457 131.419 197.103 131.209 196.641C131.005 196.173 130.903 195.603 130.903 194.931C130.903 194.217 131.029 193.614 131.281 193.122C131.533 192.63 131.884 192.258 132.334 192.006C132.784 191.754 133.3 191.628 133.882 191.628C134.182 191.628 134.467 191.658 134.737 191.718C135.013 191.778 135.25 191.871 135.448 191.997L135.106 192.699C134.944 192.585 134.758 192.507 134.548 192.465C134.344 192.423 134.128 192.402 133.9 192.402C133.258 192.402 132.748 192.603 132.37 193.005C131.992 193.401 131.803 193.992 131.803 194.778C131.803 194.904 131.809 195.054 131.821 195.228C131.833 195.402 131.863 195.573 131.911 195.741L131.605 195.435C131.695 195.159 131.836 194.928 132.028 194.742C132.226 194.55 132.46 194.409 132.73 194.319C133.006 194.223 133.303 194.175 133.621 194.175C134.041 194.175 134.413 194.253 134.737 194.409C135.061 194.565 135.316 194.787 135.502 195.075C135.688 195.357 135.781 195.693 135.781 196.083C135.781 196.485 135.682 196.836 135.484 197.136C135.286 197.436 135.019 197.667 134.683 197.829C134.347 197.991 133.969 198.072 133.549 198.072ZM133.513 197.343C133.789 197.343 134.029 197.292 134.233 197.19C134.443 197.088 134.608 196.947 134.728 196.767C134.848 196.581 134.908 196.365 134.908 196.119C134.908 195.747 134.779 195.453 134.521 195.237C134.263 195.015 133.912 194.904 133.468 194.904C133.18 194.904 132.928 194.958 132.712 195.066C132.496 195.174 132.325 195.321 132.199 195.507C132.079 195.687 132.019 195.894 132.019 196.128C132.019 196.344 132.076 196.545 132.19 196.731C132.304 196.911 132.472 197.058 132.694 197.172C132.916 197.286 133.189 197.343 133.513 197.343Z" fill="#243D48"/>
<path d="M139.031 198.072C138.539 198.072 138.098 197.946 137.708 197.694C137.324 197.442 137.018 197.076 136.79 196.596C136.568 196.116 136.457 195.534 136.457 194.85C136.457 194.166 136.568 193.584 136.79 193.104C137.018 192.624 137.324 192.258 137.708 192.006C138.098 191.754 138.539 191.628 139.031 191.628C139.517 191.628 139.955 191.754 140.345 192.006C140.735 192.258 141.041 192.624 141.263 193.104C141.485 193.584 141.596 194.166 141.596 194.85C141.596 195.534 141.485 196.116 141.263 196.596C141.041 197.076 140.735 197.442 140.345 197.694C139.955 197.946 139.517 198.072 139.031 198.072ZM139.031 197.271C139.361 197.271 139.649 197.181 139.895 197.001C140.147 196.821 140.342 196.551 140.48 196.191C140.624 195.831 140.696 195.384 140.696 194.85C140.696 194.316 140.624 193.869 140.48 193.509C140.342 193.149 140.147 192.879 139.895 192.699C139.649 192.519 139.361 192.429 139.031 192.429C138.701 192.429 138.41 192.519 138.158 192.699C137.906 192.879 137.708 193.149 137.564 193.509C137.426 193.869 137.357 194.316 137.357 194.85C137.357 195.384 137.426 195.831 137.564 196.191C137.708 196.551 137.906 196.821 138.158 197.001C138.41 197.181 138.701 197.271 139.031 197.271Z" fill="#243D48"/>
<path d="M145.034 198.072C144.542 198.072 144.101 197.946 143.711 197.694C143.327 197.442 143.021 197.076 142.793 196.596C142.571 196.116 142.46 195.534 142.46 194.85C142.46 194.166 142.571 193.584 142.793 193.104C143.021 192.624 143.327 192.258 143.711 192.006C144.101 191.754 144.542 191.628 145.034 191.628C145.52 191.628 145.958 191.754 146.348 192.006C146.738 192.258 147.044 192.624 147.266 193.104C147.488 193.584 147.599 194.166 147.599 194.85C147.599 195.534 147.488 196.116 147.266 196.596C147.044 197.076 146.738 197.442 146.348 197.694C145.958 197.946 145.52 198.072 145.034 198.072ZM145.034 197.271C145.364 197.271 145.652 197.181 145.898 197.001C146.15 196.821 146.345 196.551 146.483 196.191C146.627 195.831 146.699 195.384 146.699 194.85C146.699 194.316 146.627 193.869 146.483 193.509C146.345 193.149 146.15 192.879 145.898 192.699C145.652 192.519 145.364 192.429 145.034 192.429C144.704 192.429 144.413 192.519 144.161 192.699C143.909 192.879 143.711 193.149 143.567 193.509C143.429 193.869 143.36 194.316 143.36 194.85C143.36 195.384 143.429 195.831 143.567 196.191C143.711 196.551 143.909 196.821 144.161 197.001C144.413 197.181 144.704 197.271 145.034 197.271Z" fill="#243D48"/>
<path d="M151.109 198.072C150.551 198.072 150.074 197.949 149.678 197.703C149.282 197.457 148.979 197.103 148.769 196.641C148.565 196.173 148.463 195.603 148.463 194.931C148.463 194.217 148.589 193.614 148.841 193.122C149.093 192.63 149.444 192.258 149.894 192.006C150.344 191.754 150.86 191.628 151.442 191.628C151.742 191.628 152.027 191.658 152.297 191.718C152.573 191.778 152.81 191.871 153.008 191.997L152.666 192.699C152.504 192.585 152.318 192.507 152.108 192.465C151.904 192.423 151.688 192.402 151.46 192.402C150.818 192.402 150.308 192.603 149.93 193.005C149.552 193.401 149.363 193.992 149.363 194.778C149.363 194.904 149.369 195.054 149.381 195.228C149.393 195.402 149.423 195.573 149.471 195.741L149.165 195.435C149.255 195.159 149.396 194.928 149.588 194.742C149.786 194.55 150.02 194.409 150.29 194.319C150.566 194.223 150.863 194.175 151.181 194.175C151.601 194.175 151.973 194.253 152.297 194.409C152.621 194.565 152.876 194.787 153.062 195.075C153.248 195.357 153.341 195.693 153.341 196.083C153.341 196.485 153.242 196.836 153.044 197.136C152.846 197.436 152.579 197.667 152.243 197.829C151.907 197.991 151.529 198.072 151.109 198.072ZM151.073 197.343C151.349 197.343 151.589 197.292 151.793 197.19C152.003 197.088 152.168 196.947 152.288 196.767C152.408 196.581 152.468 196.365 152.468 196.119C152.468 195.747 152.339 195.453 152.081 195.237C151.823 195.015 151.472 194.904 151.028 194.904C150.74 194.904 150.488 194.958 150.272 195.066C150.056 195.174 149.885 195.321 149.759 195.507C149.639 195.687 149.579 195.894 149.579 196.128C149.579 196.344 149.636 196.545 149.75 196.731C149.864 196.911 150.032 197.058 150.254 197.172C150.476 197.286 150.749 197.343 151.073 197.343Z" fill="#243D48"/>
<path d="M156.934 198.054C156.526 198.054 156.157 197.964 155.827 197.784C155.503 197.598 155.245 197.325 155.053 196.965C154.867 196.605 154.774 196.155 154.774 195.615C154.774 195.075 154.87 194.625 155.062 194.265C155.26 193.905 155.521 193.635 155.845 193.455C156.175 193.275 156.538 193.185 156.934 193.185C157.402 193.185 157.816 193.287 158.176 193.491C158.536 193.695 158.821 193.98 159.031 194.346C159.241 194.706 159.346 195.129 159.346 195.615C159.346 196.101 159.241 196.527 159.031 196.893C158.821 197.259 158.536 197.544 158.176 197.748C157.816 197.952 157.402 198.054 156.934 198.054ZM154.405 198V191.322H155.269V194.499L155.179 195.606L155.233 196.713V198H154.405ZM156.862 197.298C157.168 197.298 157.441 197.229 157.681 197.091C157.927 196.953 158.119 196.758 158.257 196.506C158.401 196.248 158.473 195.951 158.473 195.615C158.473 195.273 158.401 194.979 158.257 194.733C158.119 194.481 157.927 194.286 157.681 194.148C157.441 194.01 157.168 193.941 156.862 193.941C156.562 193.941 156.289 194.01 156.043 194.148C155.803 194.286 155.611 194.481 155.467 194.733C155.329 194.979 155.26 195.273 155.26 195.615C155.26 195.951 155.329 196.248 155.467 196.506C155.611 196.758 155.803 196.953 156.043 197.091C156.289 197.229 156.562 197.298 156.862 197.298Z" fill="#243D48"/>
<path d="M162.664 198.054C162.154 198.054 161.704 197.949 161.314 197.739C160.93 197.529 160.63 197.241 160.414 196.875C160.204 196.509 160.099 196.089 160.099 195.615C160.099 195.141 160.201 194.721 160.405 194.355C160.615 193.989 160.9 193.704 161.26 193.5C161.626 193.29 162.037 193.185 162.493 193.185C162.955 193.185 163.363 193.287 163.717 193.491C164.071 193.695 164.347 193.983 164.545 194.355C164.749 194.721 164.851 195.15 164.851 195.642C164.851 195.678 164.848 195.72 164.842 195.768C164.842 195.816 164.839 195.861 164.833 195.903H160.774V195.282H164.383L164.032 195.498C164.038 195.192 163.975 194.919 163.843 194.679C163.711 194.439 163.528 194.253 163.294 194.121C163.066 193.983 162.799 193.914 162.493 193.914C162.193 193.914 161.926 193.983 161.692 194.121C161.458 194.253 161.275 194.442 161.143 194.688C161.011 194.928 160.945 195.204 160.945 195.516V195.66C160.945 195.978 161.017 196.263 161.161 196.515C161.311 196.761 161.518 196.953 161.782 197.091C162.046 197.229 162.349 197.298 162.691 197.298C162.973 197.298 163.228 197.25 163.456 197.154C163.69 197.058 163.894 196.914 164.068 196.722L164.545 197.28C164.329 197.532 164.059 197.724 163.735 197.856C163.417 197.988 163.06 198.054 162.664 198.054Z" fill="#243D48"/>
<path d="M168.309 198.072C167.751 198.072 167.274 197.949 166.878 197.703C166.482 197.457 166.179 197.103 165.969 196.641C165.765 196.173 165.663 195.603 165.663 194.931C165.663 194.217 165.789 193.614 166.041 193.122C166.293 192.63 166.644 192.258 167.094 192.006C167.544 191.754 168.06 191.628 168.642 191.628C168.942 191.628 169.227 191.658 169.497 191.718C169.773 191.778 170.01 191.871 170.208 191.997L169.866 192.699C169.704 192.585 169.518 192.507 169.308 192.465C169.104 192.423 168.888 192.402 168.66 192.402C168.018 192.402 167.508 192.603 167.13 193.005C166.752 193.401 166.563 193.992 166.563 194.778C166.563 194.904 166.569 195.054 166.581 195.228C166.593 195.402 166.623 195.573 166.671 195.741L166.365 195.435C166.455 195.159 166.596 194.928 166.788 194.742C166.986 194.55 167.22 194.409 167.49 194.319C167.766 194.223 168.063 194.175 168.381 194.175C168.801 194.175 169.173 194.253 169.497 194.409C169.821 194.565 170.076 194.787 170.262 195.075C170.448 195.357 170.541 195.693 170.541 196.083C170.541 196.485 170.442 196.836 170.244 197.136C170.046 197.436 169.779 197.667 169.443 197.829C169.107 197.991 168.729 198.072 168.309 198.072ZM168.273 197.343C168.549 197.343 168.789 197.292 168.993 197.19C169.203 197.088 169.368 196.947 169.488 196.767C169.608 196.581 169.668 196.365 169.668 196.119C169.668 195.747 169.539 195.453 169.281 195.237C169.023 195.015 168.672 194.904 168.228 194.904C167.94 194.904 167.688 194.958 167.472 195.066C167.256 195.174 167.085 195.321 166.959 195.507C166.839 195.687 166.779 195.894 166.779 196.128C166.779 196.344 166.836 196.545 166.95 196.731C167.064 196.911 167.232 197.058 167.454 197.172C167.676 197.286 167.949 197.343 168.273 197.343Z" fill="#243D48"/>
<path d="M173.646 198.054C173.184 198.054 172.77 197.952 172.404 197.748C172.044 197.544 171.759 197.259 171.549 196.893C171.339 196.527 171.234 196.101 171.234 195.615C171.234 195.129 171.339 194.706 171.549 194.346C171.759 193.98 172.044 193.695 172.404 193.491C172.77 193.287 173.184 193.185 173.646 193.185C174.048 193.185 174.411 193.275 174.735 193.455C175.059 193.635 175.317 193.905 175.509 194.265C175.707 194.625 175.806 195.075 175.806 195.615C175.806 196.155 175.71 196.605 175.518 196.965C175.332 197.325 175.077 197.598 174.753 197.784C174.429 197.964 174.06 198.054 173.646 198.054ZM173.718 197.298C174.018 197.298 174.288 197.229 174.528 197.091C174.774 196.953 174.966 196.758 175.104 196.506C175.248 196.248 175.32 195.951 175.32 195.615C175.32 195.273 175.248 194.979 175.104 194.733C174.966 194.481 174.774 194.286 174.528 194.148C174.288 194.01 174.018 193.941 173.718 193.941C173.412 193.941 173.139 194.01 172.899 194.148C172.659 194.286 172.467 194.481 172.323 194.733C172.179 194.979 172.107 195.273 172.107 195.615C172.107 195.951 172.179 196.248 172.323 196.506C172.467 196.758 172.659 196.953 172.899 197.091C173.139 197.229 173.412 197.298 173.718 197.298ZM175.347 198V196.713L175.401 195.606L175.311 194.499V191.322H176.175V198H175.347Z" fill="#243D48"/>
<path d="M177.936 198V192.807C177.936 192.339 178.071 191.967 178.341 191.691C178.617 191.409 179.007 191.268 179.511 191.268C179.697 191.268 179.874 191.292 180.042 191.34C180.216 191.382 180.363 191.451 180.483 191.547L180.222 192.204C180.132 192.132 180.03 192.078 179.916 192.042C179.802 192 179.682 191.979 179.556 191.979C179.304 191.979 179.112 192.051 178.98 192.195C178.848 192.333 178.782 192.54 178.782 192.816V193.455L178.8 193.851V198H177.936ZM177.126 193.941V193.23H180.168V193.941H177.126Z" fill="#243D48"/>
<path d="M180.26 196.452V195.822L183.482 191.7H184.454L181.259 195.822L180.8 195.678H185.831V196.452H180.26ZM183.761 198V196.452L183.788 195.678V194.31H184.634V198H183.761Z" fill="#243D48"/>
<path d="M186.28 196.452V195.822L189.502 191.7H190.474L187.279 195.822L186.82 195.678H191.851V196.452H186.28ZM189.781 198V196.452L189.808 195.678V194.31H190.654V198H189.781Z" fill="#243D48"/>
<path d="M194.965 198.072C194.473 198.072 194.032 197.946 193.642 197.694C193.258 197.442 192.952 197.076 192.724 196.596C192.502 196.116 192.391 195.534 192.391 194.85C192.391 194.166 192.502 193.584 192.724 193.104C192.952 192.624 193.258 192.258 193.642 192.006C194.032 191.754 194.473 191.628 194.965 191.628C195.451 191.628 195.889 191.754 196.279 192.006C196.669 192.258 196.975 192.624 197.197 193.104C197.419 193.584 197.53 194.166 197.53 194.85C197.53 195.534 197.419 196.116 197.197 196.596C196.975 197.076 196.669 197.442 196.279 197.694C195.889 197.946 195.451 198.072 194.965 198.072ZM194.965 197.271C195.295 197.271 195.583 197.181 195.829 197.001C196.081 196.821 196.276 196.551 196.414 196.191C196.558 195.831 196.63 195.384 196.63 194.85C196.63 194.316 196.558 193.869 196.414 193.509C196.276 193.149 196.081 192.879 195.829 192.699C195.583 192.519 195.295 192.429 194.965 192.429C194.635 192.429 194.344 192.519 194.092 192.699C193.84 192.879 193.642 193.149 193.498 193.509C193.36 193.869 193.291 194.316 193.291 194.85C193.291 195.384 193.36 195.831 193.498 196.191C193.642 196.551 193.84 196.821 194.092 197.001C194.344 197.181 194.635 197.271 194.965 197.271Z" fill="#243D48"/>
<path d="M199.456 198V192.06L199.843 192.483H198.034V191.7H200.347V198H199.456Z" fill="#243D48"/>
<path d="M204.299 198.072C203.807 198.072 203.366 197.946 202.976 197.694C202.592 197.442 202.286 197.076 202.058 196.596C201.836 196.116 201.725 195.534 201.725 194.85C201.725 194.166 201.836 193.584 202.058 193.104C202.286 192.624 202.592 192.258 202.976 192.006C203.366 191.754 203.807 191.628 204.299 191.628C204.785 191.628 205.223 191.754 205.613 192.006C206.003 192.258 206.309 192.624 206.531 193.104C206.753 193.584 206.864 194.166 206.864 194.85C206.864 195.534 206.753 196.116 206.531 196.596C206.309 197.076 206.003 197.442 205.613 197.694C205.223 197.946 204.785 198.072 204.299 198.072ZM204.299 197.271C204.629 197.271 204.917 197.181 205.163 197.001C205.415 196.821 205.61 196.551 205.748 196.191C205.892 195.831 205.964 195.384 205.964 194.85C205.964 194.316 205.892 193.869 205.748 193.509C205.61 193.149 205.415 192.879 205.163 192.699C204.917 192.519 204.629 192.429 204.299 192.429C203.969 192.429 203.678 192.519 203.426 192.699C203.174 192.879 202.976 193.149 202.832 193.509C202.694 193.869 202.625 194.316 202.625 194.85C202.625 195.384 202.694 195.831 202.832 196.191C202.976 196.551 203.174 196.821 203.426 197.001C203.678 197.181 203.969 197.271 204.299 197.271Z" fill="#243D48"/>
<path d="M209.566 198.072C209.122 198.072 208.69 198.003 208.27 197.865C207.856 197.727 207.517 197.541 207.253 197.307L207.667 196.596C207.877 196.794 208.15 196.956 208.486 197.082C208.822 197.208 209.182 197.271 209.566 197.271C210.034 197.271 210.397 197.172 210.655 196.974C210.919 196.77 211.051 196.497 211.051 196.155C211.051 195.825 210.925 195.561 210.673 195.363C210.427 195.159 210.034 195.057 209.494 195.057H208.99V194.427L210.862 192.123L210.988 192.483H207.541V191.7H211.699V192.312L209.836 194.607L209.368 194.328H209.665C210.427 194.328 210.997 194.499 211.375 194.841C211.759 195.183 211.951 195.618 211.951 196.146C211.951 196.5 211.864 196.824 211.69 197.118C211.516 197.412 211.252 197.646 210.898 197.82C210.55 197.988 210.106 198.072 209.566 198.072Z" fill="#243D48"/>
<path d="M215.364 198.072C214.872 198.072 214.431 197.946 214.041 197.694C213.657 197.442 213.351 197.076 213.123 196.596C212.901 196.116 212.79 195.534 212.79 194.85C212.79 194.166 212.901 193.584 213.123 193.104C213.351 192.624 213.657 192.258 214.041 192.006C214.431 191.754 214.872 191.628 215.364 191.628C215.85 191.628 216.288 191.754 216.678 192.006C217.068 192.258 217.374 192.624 217.596 193.104C217.818 193.584 217.929 194.166 217.929 194.85C217.929 195.534 217.818 196.116 217.596 196.596C217.374 197.076 217.068 197.442 216.678 197.694C216.288 197.946 215.85 198.072 215.364 198.072ZM215.364 197.271C215.694 197.271 215.982 197.181 216.228 197.001C216.48 196.821 216.675 196.551 216.813 196.191C216.957 195.831 217.029 195.384 217.029 194.85C217.029 194.316 216.957 193.869 216.813 193.509C216.675 193.149 216.48 192.879 216.228 192.699C215.982 192.519 215.694 192.429 215.364 192.429C215.034 192.429 214.743 192.519 214.491 192.699C214.239 192.879 214.041 193.149 213.897 193.509C213.759 193.869 213.69 194.316 213.69 194.85C213.69 195.384 213.759 195.831 213.897 196.191C214.041 196.551 214.239 196.821 214.491 197.001C214.743 197.181 215.034 197.271 215.364 197.271Z" fill="#243D48"/>
<path d="M218.694 198V197.388L221.259 194.913C221.487 194.697 221.655 194.508 221.763 194.346C221.877 194.178 221.952 194.025 221.988 193.887C222.03 193.743 222.051 193.605 222.051 193.473C222.051 193.149 221.937 192.894 221.709 192.708C221.481 192.522 221.148 192.429 220.71 192.429C220.374 192.429 220.071 192.486 219.801 192.6C219.531 192.708 219.297 192.879 219.099 193.113L218.487 192.582C218.727 192.276 219.048 192.042 219.45 191.88C219.858 191.712 220.305 191.628 220.791 191.628C221.229 191.628 221.61 191.7 221.934 191.844C222.258 191.982 222.507 192.183 222.681 192.447C222.861 192.711 222.951 193.023 222.951 193.383C222.951 193.587 222.924 193.788 222.87 193.986C222.816 194.184 222.714 194.394 222.564 194.616C222.414 194.838 222.198 195.087 221.916 195.363L219.63 197.568L219.414 197.217H223.221V198H218.694Z" fill="#243D48"/>
<path d="M226.231 198.054C225.769 198.054 225.355 197.952 224.989 197.748C224.629 197.544 224.344 197.259 224.134 196.893C223.924 196.527 223.819 196.101 223.819 195.615C223.819 195.129 223.924 194.706 224.134 194.346C224.344 193.98 224.629 193.695 224.989 193.491C225.355 193.287 225.769 193.185 226.231 193.185C226.633 193.185 226.996 193.275 227.32 193.455C227.644 193.635 227.902 193.905 228.094 194.265C228.292 194.625 228.391 195.075 228.391 195.615C228.391 196.155 228.295 196.605 228.103 196.965C227.917 197.325 227.662 197.598 227.338 197.784C227.014 197.964 226.645 198.054 226.231 198.054ZM226.303 197.298C226.603 197.298 226.873 197.229 227.113 197.091C227.359 196.953 227.551 196.758 227.689 196.506C227.833 196.248 227.905 195.951 227.905 195.615C227.905 195.273 227.833 194.979 227.689 194.733C227.551 194.481 227.359 194.286 227.113 194.148C226.873 194.01 226.603 193.941 226.303 193.941C225.997 193.941 225.724 194.01 225.484 194.148C225.244 194.286 225.052 194.481 224.908 194.733C224.764 194.979 224.692 195.273 224.692 195.615C224.692 195.951 224.764 196.248 224.908 196.506C225.052 196.758 225.244 196.953 225.484 197.091C225.724 197.229 225.997 197.298 226.303 197.298ZM227.932 198V196.713L227.986 195.606L227.896 194.499V191.322H228.76V198H227.932Z" fill="#243D48"/>
<path d="M232.519 198.054C232.009 198.054 231.559 197.949 231.169 197.739C230.785 197.529 230.485 197.241 230.269 196.875C230.059 196.509 229.954 196.089 229.954 195.615C229.954 195.141 230.056 194.721 230.26 194.355C230.47 193.989 230.755 193.704 231.115 193.5C231.481 193.29 231.892 193.185 232.348 193.185C232.81 193.185 233.218 193.287 233.572 193.491C233.926 193.695 234.202 193.983 234.4 194.355C234.604 194.721 234.706 195.15 234.706 195.642C234.706 195.678 234.703 195.72 234.697 195.768C234.697 195.816 234.694 195.861 234.688 195.903H230.629V195.282H234.238L233.887 195.498C233.893 195.192 233.83 194.919 233.698 194.679C233.566 194.439 233.383 194.253 233.149 194.121C232.921 193.983 232.654 193.914 232.348 193.914C232.048 193.914 231.781 193.983 231.547 194.121C231.313 194.253 231.13 194.442 230.998 194.688C230.866 194.928 230.8 195.204 230.8 195.516V195.66C230.8 195.978 230.872 196.263 231.016 196.515C231.166 196.761 231.373 196.953 231.637 197.091C231.901 197.229 232.204 197.298 232.546 197.298C232.828 197.298 233.083 197.25 233.311 197.154C233.545 197.058 233.749 196.914 233.923 196.722L234.4 197.28C234.184 197.532 233.914 197.724 233.59 197.856C233.272 197.988 232.915 198.054 232.519 198.054Z" fill="#243D48"/>
<path d="M106.05 300V293H106.87L111.5 298.75H111.07V293H112.07V300H111.25L106.62 294.25H107.05V300H106.05Z" fill="#66777F"/>
<path d="M116.255 300.06C115.802 300.06 115.402 299.976 115.055 299.81C114.715 299.643 114.449 299.39 114.255 299.05C114.069 298.703 113.975 298.27 113.975 297.75V294.7H114.935V297.64C114.935 298.16 115.059 298.55 115.305 298.81C115.559 299.07 115.912 299.2 116.365 299.2C116.699 299.2 116.989 299.133 117.235 299C117.482 298.86 117.672 298.66 117.805 298.4C117.939 298.133 118.005 297.813 118.005 297.44V294.7H118.965V300H118.055V298.57L118.205 298.95C118.032 299.303 117.772 299.576 117.425 299.77C117.079 299.963 116.689 300.06 116.255 300.06Z" fill="#66777F"/>
<path d="M127.423 294.65C127.85 294.65 128.226 294.733 128.553 294.9C128.88 295.066 129.133 295.32 129.313 295.66C129.5 296 129.593 296.43 129.593 296.95V300H128.633V297.06C128.633 296.546 128.513 296.16 128.273 295.9C128.033 295.64 127.696 295.51 127.263 295.51C126.943 295.51 126.663 295.576 126.423 295.71C126.183 295.843 125.996 296.04 125.863 296.3C125.736 296.56 125.673 296.883 125.673 297.27V300H124.713V297.06C124.713 296.546 124.593 296.16 124.353 295.9C124.12 295.64 123.783 295.51 123.343 295.51C123.03 295.51 122.753 295.576 122.513 295.71C122.273 295.843 122.086 296.04 121.953 296.3C121.82 296.56 121.753 296.883 121.753 297.27V300H120.793V294.7H121.713V296.11L121.563 295.75C121.73 295.403 121.986 295.133 122.333 294.94C122.68 294.746 123.083 294.65 123.543 294.65C124.05 294.65 124.486 294.776 124.853 295.03C125.22 295.276 125.46 295.653 125.573 296.16L125.183 296C125.343 295.593 125.623 295.266 126.023 295.02C126.423 294.773 126.89 294.65 127.423 294.65Z" fill="#66777F"/>
<path d="M134.169 300.06C133.716 300.06 133.306 299.96 132.939 299.76C132.579 299.553 132.293 299.25 132.079 298.85C131.873 298.45 131.769 297.95 131.769 297.35C131.769 296.75 131.876 296.25 132.089 295.85C132.309 295.45 132.599 295.15 132.959 294.95C133.326 294.75 133.729 294.65 134.169 294.65C134.689 294.65 135.149 294.763 135.549 294.99C135.949 295.216 136.266 295.533 136.499 295.94C136.733 296.34 136.849 296.81 136.849 297.35C136.849 297.89 136.733 298.363 136.499 298.77C136.266 299.176 135.949 299.493 135.549 299.72C135.149 299.946 134.689 300.06 134.169 300.06ZM131.359 300V292.58H132.319V296.11L132.219 297.34L132.279 298.57V300H131.359ZM134.089 299.22C134.429 299.22 134.733 299.143 134.999 298.99C135.273 298.836 135.486 298.62 135.639 298.34C135.799 298.053 135.879 297.723 135.879 297.35C135.879 296.97 135.799 296.643 135.639 296.37C135.486 296.09 135.273 295.873 134.999 295.72C134.733 295.566 134.429 295.49 134.089 295.49C133.756 295.49 133.453 295.566 133.179 295.72C132.913 295.873 132.699 296.09 132.539 296.37C132.386 296.643 132.309 296.97 132.309 297.35C132.309 297.723 132.386 298.053 132.539 298.34C132.699 298.62 132.913 298.836 133.179 298.99C133.453 299.143 133.756 299.22 134.089 299.22Z" fill="#66777F"/>
<path d="M140.536 300.06C139.969 300.06 139.469 299.943 139.036 299.71C138.609 299.476 138.276 299.156 138.036 298.75C137.802 298.343 137.686 297.876 137.686 297.35C137.686 296.823 137.799 296.356 138.026 295.95C138.259 295.543 138.576 295.226 138.976 295C139.382 294.766 139.839 294.65 140.346 294.65C140.859 294.65 141.312 294.763 141.706 294.99C142.099 295.216 142.406 295.536 142.626 295.95C142.852 296.356 142.966 296.833 142.966 297.38C142.966 297.42 142.962 297.466 142.956 297.52C142.956 297.573 142.952 297.623 142.946 297.67H138.436V296.98H142.446L142.056 297.22C142.062 296.88 141.992 296.576 141.846 296.31C141.699 296.043 141.496 295.836 141.236 295.69C140.982 295.536 140.686 295.46 140.346 295.46C140.012 295.46 139.716 295.536 139.456 295.69C139.196 295.836 138.992 296.046 138.846 296.32C138.699 296.586 138.626 296.893 138.626 297.24V297.4C138.626 297.753 138.706 298.07 138.866 298.35C139.032 298.623 139.262 298.836 139.556 298.99C139.849 299.143 140.186 299.22 140.566 299.22C140.879 299.22 141.162 299.166 141.416 299.06C141.676 298.953 141.902 298.793 142.096 298.58L142.626 299.2C142.386 299.48 142.086 299.693 141.726 299.84C141.372 299.986 140.976 300.06 140.536 300.06Z" fill="#66777F"/>
<path d="M144.299 300V294.7H145.219V296.14L145.129 295.78C145.275 295.413 145.522 295.133 145.869 294.94C146.215 294.746 146.642 294.65 147.149 294.65V295.58C147.109 295.573 147.069 295.57 147.029 295.57C146.995 295.57 146.962 295.57 146.929 295.57C146.415 295.57 146.009 295.723 145.709 296.03C145.409 296.336 145.259 296.78 145.259 297.36V300H144.299Z" fill="#66777F"/>
<path d="M153.356 300.06C152.822 300.06 152.349 299.943 151.936 299.71C151.522 299.476 151.196 299.156 150.956 298.75C150.716 298.336 150.596 297.87 150.596 297.35C150.596 296.823 150.716 296.356 150.956 295.95C151.196 295.543 151.522 295.226 151.936 295C152.349 294.766 152.822 294.65 153.356 294.65C153.882 294.65 154.352 294.766 154.766 295C155.186 295.226 155.512 295.543 155.746 295.95C155.986 296.35 156.106 296.816 156.106 297.35C156.106 297.876 155.986 298.343 155.746 298.75C155.512 299.156 155.186 299.476 154.766 299.71C154.352 299.943 153.882 300.06 153.356 300.06ZM153.356 299.22C153.696 299.22 153.999 299.143 154.266 298.99C154.539 298.836 154.752 298.62 154.906 298.34C155.059 298.053 155.136 297.723 155.136 297.35C155.136 296.97 155.059 296.643 154.906 296.37C154.752 296.09 154.539 295.873 154.266 295.72C153.999 295.566 153.696 295.49 153.356 295.49C153.016 295.49 152.712 295.566 152.446 295.72C152.179 295.873 151.966 296.09 151.806 296.37C151.646 296.643 151.566 296.97 151.566 297.35C151.566 297.723 151.646 298.053 151.806 298.34C151.966 298.62 152.179 298.836 152.446 298.99C152.712 299.143 153.016 299.22 153.356 299.22Z" fill="#66777F"/>
<path d="M157.573 300V294.23C157.573 293.71 157.723 293.296 158.023 292.99C158.33 292.676 158.763 292.52 159.323 292.52C159.53 292.52 159.727 292.546 159.913 292.6C160.107 292.646 160.27 292.723 160.403 292.83L160.113 293.56C160.013 293.48 159.9 293.42 159.773 293.38C159.647 293.333 159.513 293.31 159.373 293.31C159.093 293.31 158.88 293.39 158.733 293.55C158.587 293.703 158.513 293.933 158.513 294.24V294.95L158.533 295.39V300H157.573ZM156.673 295.49V294.7H160.053V295.49H156.673Z" fill="#66777F"/>
<path d="M163.644 300V294.7H164.564V296.14L164.474 295.78C164.621 295.413 164.868 295.133 165.214 294.94C165.561 294.746 165.988 294.65 166.494 294.65V295.58C166.454 295.573 166.414 295.57 166.374 295.57C166.341 295.57 166.308 295.57 166.274 295.57C165.761 295.57 165.354 295.723 165.054 296.03C164.754 296.336 164.604 296.78 164.604 297.36V300H163.644Z" fill="#66777F"/>
<path d="M169.989 300.06C169.422 300.06 168.922 299.943 168.489 299.71C168.062 299.476 167.729 299.156 167.489 298.75C167.255 298.343 167.139 297.876 167.139 297.35C167.139 296.823 167.252 296.356 167.479 295.95C167.712 295.543 168.029 295.226 168.429 295C168.835 294.766 169.292 294.65 169.799 294.65C170.312 294.65 170.765 294.763 171.159 294.99C171.552 295.216 171.859 295.536 172.079 295.95C172.305 296.356 172.419 296.833 172.419 297.38C172.419 297.42 172.415 297.466 172.409 297.52C172.409 297.573 172.405 297.623 172.399 297.67H167.889V296.98H171.899L171.509 297.22C171.515 296.88 171.445 296.576 171.299 296.31C171.152 296.043 170.949 295.836 170.689 295.69C170.435 295.536 170.139 295.46 169.799 295.46C169.465 295.46 169.169 295.536 168.909 295.69C168.649 295.836 168.445 296.046 168.299 296.32C168.152 296.586 168.079 296.893 168.079 297.24V297.4C168.079 297.753 168.159 298.07 168.319 298.35C168.485 298.623 168.715 298.836 169.009 298.99C169.302 299.143 169.639 299.22 170.019 299.22C170.332 299.22 170.615 299.166 170.869 299.06C171.129 298.953 171.355 298.793 171.549 298.58L172.079 299.2C171.839 299.48 171.539 299.693 171.179 299.84C170.825 299.986 170.429 300.06 169.989 300.06Z" fill="#66777F"/>
<path d="M175.272 300.06C174.832 300.06 174.412 300 174.012 299.88C173.619 299.76 173.309 299.613 173.082 299.44L173.482 298.68C173.709 298.833 173.989 298.963 174.322 299.07C174.655 299.176 174.995 299.23 175.342 299.23C175.789 299.23 176.109 299.166 176.302 299.04C176.502 298.913 176.602 298.736 176.602 298.51C176.602 298.343 176.542 298.213 176.422 298.12C176.302 298.026 176.142 297.956 175.942 297.91C175.749 297.863 175.532 297.823 175.292 297.79C175.052 297.75 174.812 297.703 174.572 297.65C174.332 297.59 174.112 297.51 173.912 297.41C173.712 297.303 173.552 297.16 173.432 296.98C173.312 296.793 173.252 296.546 173.252 296.24C173.252 295.92 173.342 295.64 173.522 295.4C173.702 295.16 173.955 294.976 174.282 294.85C174.615 294.716 175.009 294.65 175.462 294.65C175.809 294.65 176.159 294.693 176.512 294.78C176.872 294.86 177.165 294.976 177.392 295.13L176.982 295.89C176.742 295.73 176.492 295.62 176.232 295.56C175.972 295.5 175.712 295.47 175.452 295.47C175.032 295.47 174.719 295.54 174.512 295.68C174.305 295.813 174.202 295.986 174.202 296.2C174.202 296.38 174.262 296.52 174.382 296.62C174.509 296.713 174.669 296.786 174.862 296.84C175.062 296.893 175.282 296.94 175.522 296.98C175.762 297.013 176.002 297.06 176.242 297.12C176.482 297.173 176.699 297.25 176.892 297.35C177.092 297.45 177.252 297.59 177.372 297.77C177.499 297.95 177.562 298.19 177.562 298.49C177.562 298.81 177.469 299.086 177.282 299.32C177.095 299.553 176.832 299.736 176.492 299.87C176.152 299.996 175.745 300.06 175.272 300.06Z" fill="#66777F"/>
<path d="M180.992 300.06C180.538 300.06 180.138 299.976 179.792 299.81C179.452 299.643 179.185 299.39 178.992 299.05C178.805 298.703 178.712 298.27 178.712 297.75V294.7H179.672V297.64C179.672 298.16 179.795 298.55 180.042 298.81C180.295 299.07 180.648 299.2 181.102 299.2C181.435 299.2 181.725 299.133 181.972 299C182.218 298.86 182.408 298.66 182.542 298.4C182.675 298.133 182.742 297.813 182.742 297.44V294.7H183.702V300H182.792V298.57L182.942 298.95C182.768 299.303 182.508 299.576 182.162 299.77C181.815 299.963 181.425 300.06 180.992 300.06Z" fill="#66777F"/>
<path d="M185.529 300V292.58H186.489V300H185.529Z" fill="#66777F"/>
<path d="M190.279 300.06C189.746 300.06 189.332 299.916 189.039 299.63C188.746 299.343 188.599 298.933 188.599 298.4V293.54H189.559V298.36C189.559 298.646 189.629 298.866 189.769 299.02C189.916 299.173 190.122 299.25 190.389 299.25C190.689 299.25 190.939 299.166 191.139 299L191.439 299.69C191.292 299.816 191.116 299.91 190.909 299.97C190.709 300.03 190.499 300.06 190.279 300.06ZM187.699 295.49V294.7H191.079V295.49H187.699Z" fill="#66777F"/>
<path d="M194.119 300.06C193.679 300.06 193.259 300 192.859 299.88C192.466 299.76 192.156 299.613 191.929 299.44L192.329 298.68C192.556 298.833 192.836 298.963 193.17 299.07C193.503 299.176 193.843 299.23 194.189 299.23C194.636 299.23 194.956 299.166 195.149 299.04C195.349 298.913 195.45 298.736 195.45 298.51C195.45 298.343 195.39 298.213 195.27 298.12C195.149 298.026 194.989 297.956 194.789 297.91C194.596 297.863 194.379 297.823 194.139 297.79C193.899 297.75 193.66 297.703 193.42 297.65C193.18 297.59 192.959 297.51 192.759 297.41C192.56 297.303 192.399 297.16 192.279 296.98C192.159 296.793 192.1 296.546 192.1 296.24C192.1 295.92 192.189 295.64 192.369 295.4C192.549 295.16 192.803 294.976 193.13 294.85C193.463 294.716 193.856 294.65 194.31 294.65C194.656 294.65 195.006 294.693 195.359 294.78C195.719 294.86 196.013 294.976 196.24 295.13L195.829 295.89C195.59 295.73 195.34 295.62 195.079 295.56C194.819 295.5 194.56 295.47 194.299 295.47C193.88 295.47 193.566 295.54 193.359 295.68C193.153 295.813 193.049 295.986 193.049 296.2C193.049 296.38 193.109 296.52 193.229 296.62C193.356 296.713 193.516 296.786 193.709 296.84C193.909 296.893 194.13 296.94 194.369 296.98C194.609 297.013 194.85 297.06 195.09 297.12C195.329 297.173 195.546 297.25 195.74 297.35C195.939 297.45 196.099 297.59 196.219 297.77C196.346 297.95 196.41 298.19 196.41 298.49C196.41 298.81 196.316 299.086 196.13 299.32C195.943 299.553 195.679 299.736 195.34 299.87C195 299.996 194.593 300.06 194.119 300.06Z" fill="#66777F"/>
<path d="M202.115 300.06C201.581 300.06 201.168 299.916 200.875 299.63C200.581 299.343 200.435 298.933 200.435 298.4V293.54H201.395V298.36C201.395 298.646 201.465 298.866 201.605 299.02C201.751 299.173 201.958 299.25 202.225 299.25C202.525 299.25 202.775 299.166 202.975 299L203.275 299.69C203.128 299.816 202.951 299.91 202.745 299.97C202.545 300.03 202.335 300.06 202.115 300.06ZM199.535 295.49V294.7H202.915V295.49H199.535Z" fill="#66777F"/>
<path d="M206.53 300.06C205.996 300.06 205.523 299.943 205.11 299.71C204.696 299.476 204.37 299.156 204.13 298.75C203.89 298.336 203.77 297.87 203.77 297.35C203.77 296.823 203.89 296.356 204.13 295.95C204.37 295.543 204.696 295.226 205.11 295C205.523 294.766 205.996 294.65 206.53 294.65C207.056 294.65 207.526 294.766 207.94 295C208.36 295.226 208.686 295.543 208.92 295.95C209.16 296.35 209.28 296.816 209.28 297.35C209.28 297.876 209.16 298.343 208.92 298.75C208.686 299.156 208.36 299.476 207.94 299.71C207.526 299.943 207.056 300.06 206.53 300.06ZM206.53 299.22C206.87 299.22 207.173 299.143 207.44 298.99C207.713 298.836 207.926 298.62 208.08 298.34C208.233 298.053 208.31 297.723 208.31 297.35C208.31 296.97 208.233 296.643 208.08 296.37C207.926 296.09 207.713 295.873 207.44 295.72C207.173 295.566 206.87 295.49 206.53 295.49C206.19 295.49 205.886 295.566 205.62 295.72C205.353 295.873 205.14 296.09 204.98 296.37C204.82 296.643 204.74 296.97 204.74 297.35C204.74 297.723 204.82 298.053 204.98 298.34C205.14 298.62 205.353 298.836 205.62 298.99C205.886 299.143 206.19 299.22 206.53 299.22Z" fill="#66777F"/>
<path d="M215.613 302C215.126 302 214.653 301.93 214.193 301.79C213.74 301.656 213.37 301.463 213.083 301.21L213.543 300.47C213.79 300.683 214.093 300.85 214.453 300.97C214.813 301.096 215.19 301.16 215.583 301.16C216.21 301.16 216.67 301.013 216.963 300.72C217.256 300.426 217.403 299.98 217.403 299.38V298.26L217.503 297.21L217.453 296.15V294.7H218.363V299.28C218.363 300.213 218.13 300.9 217.663 301.34C217.196 301.78 216.513 302 215.613 302ZM215.493 299.78C214.98 299.78 214.52 299.673 214.113 299.46C213.713 299.24 213.393 298.936 213.153 298.55C212.92 298.163 212.803 297.716 212.803 297.21C212.803 296.696 212.92 296.25 213.153 295.87C213.393 295.483 213.713 295.183 214.113 294.97C214.52 294.756 214.98 294.65 215.493 294.65C215.946 294.65 216.36 294.743 216.733 294.93C217.106 295.11 217.403 295.39 217.623 295.77C217.85 296.15 217.963 296.63 217.963 297.21C217.963 297.783 217.85 298.26 217.623 298.64C217.403 299.02 217.106 299.306 216.733 299.5C216.36 299.686 215.946 299.78 215.493 299.78ZM215.603 298.94C215.956 298.94 216.27 298.866 216.543 298.72C216.816 298.573 217.03 298.37 217.183 298.11C217.343 297.85 217.423 297.55 217.423 297.21C217.423 296.87 217.343 296.57 217.183 296.31C217.03 296.05 216.816 295.85 216.543 295.71C216.27 295.563 215.956 295.49 215.603 295.49C215.25 295.49 214.933 295.563 214.653 295.71C214.38 295.85 214.163 296.05 214.003 296.31C213.85 296.57 213.773 296.87 213.773 297.21C213.773 297.55 213.85 297.85 214.003 298.11C214.163 298.37 214.38 298.573 214.653 298.72C214.933 298.866 215.25 298.94 215.603 298.94Z" fill="#66777F"/>
<path d="M222.557 300.06C221.99 300.06 221.49 299.943 221.057 299.71C220.63 299.476 220.297 299.156 220.057 298.75C219.824 298.343 219.707 297.876 219.707 297.35C219.707 296.823 219.82 296.356 220.047 295.95C220.28 295.543 220.597 295.226 220.997 295C221.404 294.766 221.86 294.65 222.367 294.65C222.88 294.65 223.334 294.763 223.727 294.99C224.12 295.216 224.427 295.536 224.647 295.95C224.874 296.356 224.987 296.833 224.987 297.38C224.987 297.42 224.984 297.466 224.977 297.52C224.977 297.573 224.974 297.623 224.967 297.67H220.457V296.98H224.467L224.077 297.22C224.084 296.88 224.014 296.576 223.867 296.31C223.72 296.043 223.517 295.836 223.257 295.69C223.004 295.536 222.707 295.46 222.367 295.46C222.034 295.46 221.737 295.536 221.477 295.69C221.217 295.836 221.014 296.046 220.867 296.32C220.72 296.586 220.647 296.893 220.647 297.24V297.4C220.647 297.753 220.727 298.07 220.887 298.35C221.054 298.623 221.284 298.836 221.577 298.99C221.87 299.143 222.207 299.22 222.587 299.22C222.9 299.22 223.184 299.166 223.437 299.06C223.697 298.953 223.924 298.793 224.117 298.58L224.647 299.2C224.407 299.48 224.107 299.693 223.747 299.84C223.394 299.986 222.997 300.06 222.557 300.06Z" fill="#66777F"/>
<path d="M229.15 294.65C229.584 294.65 229.964 294.733 230.29 294.9C230.624 295.066 230.884 295.32 231.07 295.66C231.257 296 231.35 296.43 231.35 296.95V300H230.39V297.06C230.39 296.546 230.264 296.16 230.01 295.9C229.764 295.64 229.414 295.51 228.96 295.51C228.62 295.51 228.324 295.576 228.07 295.71C227.817 295.843 227.62 296.04 227.48 296.3C227.347 296.56 227.28 296.883 227.28 297.27V300H226.32V294.7H227.24V296.13L227.09 295.75C227.264 295.403 227.53 295.133 227.89 294.94C228.25 294.746 228.67 294.65 229.15 294.65Z" fill="#66777F"/>
<path d="M235.487 300.06C234.92 300.06 234.42 299.943 233.987 299.71C233.56 299.476 233.227 299.156 232.987 298.75C232.754 298.343 232.637 297.876 232.637 297.35C232.637 296.823 232.75 296.356 232.977 295.95C233.21 295.543 233.527 295.226 233.927 295C234.334 294.766 234.79 294.65 235.297 294.65C235.81 294.65 236.264 294.763 236.657 294.99C237.05 295.216 237.357 295.536 237.577 295.95C237.804 296.356 237.917 296.833 237.917 297.38C237.917 297.42 237.914 297.466 237.907 297.52C237.907 297.573 237.904 297.623 237.897 297.67H233.387V296.98H237.397L237.007 297.22C237.014 296.88 236.944 296.576 236.797 296.31C236.65 296.043 236.447 295.836 236.187 295.69C235.934 295.536 235.637 295.46 235.297 295.46C234.964 295.46 234.667 295.536 234.407 295.69C234.147 295.836 233.944 296.046 233.797 296.32C233.65 296.586 233.577 296.893 233.577 297.24V297.4C233.577 297.753 233.657 298.07 233.817 298.35C233.984 298.623 234.214 298.836 234.507 298.99C234.8 299.143 235.137 299.22 235.517 299.22C235.83 299.22 236.114 299.166 236.367 299.06C236.627 298.953 236.854 298.793 237.047 298.58L237.577 299.2C237.337 299.48 237.037 299.693 236.677 299.84C236.324 299.986 235.927 300.06 235.487 300.06Z" fill="#66777F"/>
<path d="M239.25 300V294.7H240.17V296.14L240.08 295.78C240.227 295.413 240.473 295.133 240.82 294.94C241.167 294.746 241.593 294.65 242.1 294.65V295.58C242.06 295.573 242.02 295.57 241.98 295.57C241.947 295.57 241.913 295.57 241.88 295.57C241.367 295.57 240.96 295.723 240.66 296.03C240.36 296.336 240.21 296.78 240.21 297.36V300H239.25Z" fill="#66777F"/>
<path d="M246.182 300V298.88L246.132 298.67V296.76C246.132 296.353 246.012 296.04 245.772 295.82C245.539 295.593 245.186 295.48 244.712 295.48C244.399 295.48 244.092 295.533 243.792 295.64C243.492 295.74 243.239 295.876 243.032 296.05L242.632 295.33C242.906 295.11 243.232 294.943 243.612 294.83C243.999 294.71 244.402 294.65 244.822 294.65C245.549 294.65 246.109 294.826 246.502 295.18C246.896 295.533 247.092 296.073 247.092 296.8V300H246.182ZM244.442 300.06C244.049 300.06 243.702 299.993 243.402 299.86C243.109 299.726 242.882 299.543 242.722 299.31C242.562 299.07 242.482 298.8 242.482 298.5C242.482 298.213 242.549 297.953 242.682 297.72C242.822 297.486 243.046 297.3 243.352 297.16C243.666 297.02 244.086 296.95 244.612 296.95H246.292V297.64H244.652C244.172 297.64 243.849 297.72 243.682 297.88C243.516 298.04 243.432 298.233 243.432 298.46C243.432 298.72 243.536 298.93 243.742 299.09C243.949 299.243 244.236 299.32 244.602 299.32C244.962 299.32 245.276 299.24 245.542 299.08C245.816 298.92 246.012 298.686 246.132 298.38L246.322 299.04C246.196 299.353 245.972 299.603 245.652 299.79C245.332 299.97 244.929 300.06 244.442 300.06Z" fill="#66777F"/>
<path d="M250.689 300.06C250.156 300.06 249.742 299.916 249.449 299.63C249.156 299.343 249.009 298.933 249.009 298.4V293.54H249.969V298.36C249.969 298.646 250.039 298.866 250.179 299.02C250.326 299.173 250.532 299.25 250.799 299.25C251.099 299.25 251.349 299.166 251.549 299L251.849 299.69C251.702 299.816 251.526 299.91 251.319 299.97C251.119 300.03 250.909 300.06 250.689 300.06ZM248.109 295.49V294.7H251.489V295.49H248.109Z" fill="#66777F"/>
<path d="M255.194 300.06C254.627 300.06 254.127 299.943 253.694 299.71C253.267 299.476 252.934 299.156 252.694 298.75C252.461 298.343 252.344 297.876 252.344 297.35C252.344 296.823 252.457 296.356 252.684 295.95C252.917 295.543 253.234 295.226 253.634 295C254.041 294.766 254.497 294.65 255.004 294.65C255.517 294.65 255.971 294.763 256.364 294.99C256.757 295.216 257.064 295.536 257.284 295.95C257.511 296.356 257.624 296.833 257.624 297.38C257.624 297.42 257.621 297.466 257.614 297.52C257.614 297.573 257.611 297.623 257.604 297.67H253.094V296.98H257.104L256.714 297.22C256.721 296.88 256.651 296.576 256.504 296.31C256.357 296.043 256.154 295.836 255.894 295.69C255.641 295.536 255.344 295.46 255.004 295.46C254.671 295.46 254.374 295.536 254.114 295.69C253.854 295.836 253.651 296.046 253.504 296.32C253.357 296.586 253.284 296.893 253.284 297.24V297.4C253.284 297.753 253.364 298.07 253.524 298.35C253.691 298.623 253.921 298.836 254.214 298.99C254.507 299.143 254.844 299.22 255.224 299.22C255.537 299.22 255.821 299.166 256.074 299.06C256.334 298.953 256.561 298.793 256.754 298.58L257.284 299.2C257.044 299.48 256.744 299.693 256.384 299.84C256.031 299.986 255.634 300.06 255.194 300.06Z" fill="#66777F"/>
<path fill-rule="evenodd" clip-rule="evenodd" d="M661 321H105V320H661V321Z" fill="#E3E6E7"/>
<path d="M107.358 314.072C106.914 314.072 106.482 314.003 106.062 313.865C105.648 313.727 105.309 313.541 105.045 313.307L105.459 312.596C105.669 312.794 105.942 312.956 106.278 313.082C106.614 313.208 106.974 313.271 107.358 313.271C107.826 313.271 108.189 313.172 108.447 312.974C108.711 312.77 108.843 312.497 108.843 312.155C108.843 311.825 108.717 311.561 108.465 311.363C108.219 311.159 107.826 311.057 107.286 311.057H106.782V310.427L108.654 308.123L108.78 308.483H105.333V307.7H109.491V308.312L107.628 310.607L107.16 310.328H107.457C108.219 310.328 108.789 310.499 109.167 310.841C109.551 311.183 109.743 311.618 109.743 312.146C109.743 312.5 109.656 312.824 109.482 313.118C109.308 313.412 109.044 313.646 108.69 313.82C108.342 313.988 107.898 314.072 107.358 314.072Z" fill="#243D48"/>
<path d="M113.156 314.072C112.664 314.072 112.223 313.946 111.833 313.694C111.449 313.442 111.143 313.076 110.915 312.596C110.693 312.116 110.582 311.534 110.582 310.85C110.582 310.166 110.693 309.584 110.915 309.104C111.143 308.624 111.449 308.258 111.833 308.006C112.223 307.754 112.664 307.628 113.156 307.628C113.642 307.628 114.08 307.754 114.47 308.006C114.86 308.258 115.166 308.624 115.388 309.104C115.61 309.584 115.721 310.166 115.721 310.85C115.721 311.534 115.61 312.116 115.388 312.596C115.166 313.076 114.86 313.442 114.47 313.694C114.08 313.946 113.642 314.072 113.156 314.072ZM113.156 313.271C113.486 313.271 113.774 313.181 114.02 313.001C114.272 312.821 114.467 312.551 114.605 312.191C114.749 311.831 114.821 311.384 114.821 310.85C114.821 310.316 114.749 309.869 114.605 309.509C114.467 309.149 114.272 308.879 114.02 308.699C113.774 308.519 113.486 308.429 113.156 308.429C112.826 308.429 112.535 308.519 112.283 308.699C112.031 308.879 111.833 309.149 111.689 309.509C111.551 309.869 111.482 310.316 111.482 310.85C111.482 311.384 111.551 311.831 111.689 312.191C111.833 312.551 112.031 312.821 112.283 313.001C112.535 313.181 112.826 313.271 113.156 313.271Z" fill="#243D48"/>
<path d="M119.159 314.072C118.667 314.072 118.226 313.946 117.836 313.694C117.452 313.442 117.146 313.076 116.918 312.596C116.696 312.116 116.585 311.534 116.585 310.85C116.585 310.166 116.696 309.584 116.918 309.104C117.146 308.624 117.452 308.258 117.836 308.006C118.226 307.754 118.667 307.628 119.159 307.628C119.645 307.628 120.083 307.754 120.473 308.006C120.863 308.258 121.169 308.624 121.391 309.104C121.613 309.584 121.724 310.166 121.724 310.85C121.724 311.534 121.613 312.116 121.391 312.596C121.169 313.076 120.863 313.442 120.473 313.694C120.083 313.946 119.645 314.072 119.159 314.072ZM119.159 313.271C119.489 313.271 119.777 313.181 120.023 313.001C120.275 312.821 120.47 312.551 120.608 312.191C120.752 311.831 120.824 311.384 120.824 310.85C120.824 310.316 120.752 309.869 120.608 309.509C120.47 309.149 120.275 308.879 120.023 308.699C119.777 308.519 119.489 308.429 119.159 308.429C118.829 308.429 118.538 308.519 118.286 308.699C118.034 308.879 117.836 309.149 117.692 309.509C117.554 309.869 117.485 310.316 117.485 310.85C117.485 311.384 117.554 311.831 117.692 312.191C117.836 312.551 118.034 312.821 118.286 313.001C118.538 313.181 118.829 313.271 119.159 313.271Z" fill="#243D48"/>
<path d="M106.05 138V131H109C109.747 131 110.403 131.147 110.97 131.44C111.543 131.733 111.987 132.143 112.3 132.67C112.62 133.197 112.78 133.807 112.78 134.5C112.78 135.193 112.62 135.803 112.3 136.33C111.987 136.857 111.543 137.267 110.97 137.56C110.403 137.853 109.747 138 109 138H106.05ZM107.05 137.13H108.94C109.52 137.13 110.02 137.02 110.44 136.8C110.867 136.58 111.197 136.273 111.43 135.88C111.663 135.48 111.78 135.02 111.78 134.5C111.78 133.973 111.663 133.513 111.43 133.12C111.197 132.727 110.867 132.42 110.44 132.2C110.02 131.98 109.52 131.87 108.94 131.87H107.05V137.13Z" fill="#66777F"/>
<path d="M117.462 138V136.88L117.412 136.67V134.76C117.412 134.353 117.292 134.04 117.052 133.82C116.818 133.593 116.465 133.48 115.992 133.48C115.678 133.48 115.372 133.533 115.072 133.64C114.772 133.74 114.518 133.877 114.312 134.05L113.912 133.33C114.185 133.11 114.512 132.943 114.892 132.83C115.278 132.71 115.682 132.65 116.102 132.65C116.828 132.65 117.388 132.827 117.782 133.18C118.175 133.533 118.372 134.073 118.372 134.8V138H117.462ZM115.722 138.06C115.328 138.06 114.982 137.993 114.682 137.86C114.388 137.727 114.162 137.543 114.002 137.31C113.842 137.07 113.762 136.8 113.762 136.5C113.762 136.213 113.828 135.953 113.962 135.72C114.102 135.487 114.325 135.3 114.632 135.16C114.945 135.02 115.365 134.95 115.892 134.95H117.572V135.64H115.932C115.452 135.64 115.128 135.72 114.962 135.88C114.795 136.04 114.712 136.233 114.712 136.46C114.712 136.72 114.815 136.93 115.022 137.09C115.228 137.243 115.515 137.32 115.882 137.32C116.242 137.32 116.555 137.24 116.822 137.08C117.095 136.92 117.292 136.687 117.412 136.38L117.602 137.04C117.475 137.353 117.252 137.603 116.932 137.79C116.612 137.97 116.208 138.06 115.722 138.06Z" fill="#66777F"/>
<path d="M120.281 140C120.027 140 119.781 139.957 119.541 139.87C119.301 139.79 119.094 139.67 118.921 139.51L119.331 138.79C119.464 138.917 119.611 139.013 119.771 139.08C119.931 139.147 120.101 139.18 120.281 139.18C120.514 139.18 120.707 139.12 120.861 139C121.014 138.88 121.157 138.667 121.291 138.36L121.621 137.63L121.721 137.51L123.801 132.7H124.741L122.171 138.53C122.017 138.903 121.844 139.197 121.651 139.41C121.464 139.623 121.257 139.773 121.031 139.86C120.804 139.953 120.554 140 120.281 140ZM121.541 138.17L119.121 132.7H120.121L122.181 137.42L121.541 138.17Z" fill="#66777F"/>
<path d="M127.088 138.06C126.648 138.06 126.228 138 125.828 137.88C125.435 137.76 125.125 137.613 124.898 137.44L125.298 136.68C125.525 136.833 125.805 136.963 126.138 137.07C126.472 137.177 126.812 137.23 127.158 137.23C127.605 137.23 127.925 137.167 128.118 137.04C128.318 136.913 128.418 136.737 128.418 136.51C128.418 136.343 128.358 136.213 128.238 136.12C128.118 136.027 127.958 135.957 127.758 135.91C127.565 135.863 127.348 135.823 127.108 135.79C126.868 135.75 126.628 135.703 126.388 135.65C126.148 135.59 125.928 135.51 125.728 135.41C125.528 135.303 125.368 135.16 125.248 134.98C125.128 134.793 125.068 134.547 125.068 134.24C125.068 133.92 125.158 133.64 125.338 133.4C125.518 133.16 125.772 132.977 126.098 132.85C126.432 132.717 126.825 132.65 127.278 132.65C127.625 132.65 127.975 132.693 128.328 132.78C128.688 132.86 128.982 132.977 129.208 133.13L128.798 133.89C128.558 133.73 128.308 133.62 128.048 133.56C127.788 133.5 127.528 133.47 127.268 133.47C126.848 133.47 126.535 133.54 126.328 133.68C126.122 133.813 126.018 133.987 126.018 134.2C126.018 134.38 126.078 134.52 126.198 134.62C126.325 134.713 126.485 134.787 126.678 134.84C126.878 134.893 127.098 134.94 127.338 134.98C127.578 135.013 127.818 135.06 128.058 135.12C128.298 135.173 128.515 135.25 128.708 135.35C128.908 135.45 129.068 135.59 129.188 135.77C129.315 135.95 129.378 136.19 129.378 136.49C129.378 136.81 129.285 137.087 129.098 137.32C128.912 137.553 128.648 137.737 128.308 137.87C127.968 137.997 127.562 138.06 127.088 138.06Z" fill="#66777F"/>
<path d="M106.05 184V177H107.05V184H106.05Z" fill="#66777F"/>
<path d="M111.836 178.65C112.269 178.65 112.649 178.733 112.976 178.9C113.309 179.067 113.569 179.32 113.756 179.66C113.942 180 114.036 180.43 114.036 180.95V184H113.076V181.06C113.076 180.547 112.949 180.16 112.696 179.9C112.449 179.64 112.099 179.51 111.646 179.51C111.306 179.51 111.009 179.577 110.756 179.71C110.502 179.843 110.306 180.04 110.166 180.3C110.032 180.56 109.966 180.883 109.966 181.27V184H109.006V178.7H109.926V180.13L109.776 179.75C109.949 179.403 110.216 179.133 110.576 178.94C110.936 178.747 111.356 178.65 111.836 178.65Z" fill="#66777F"/>
<path d="M118.002 184.06C117.489 184.06 117.029 183.947 116.622 183.72C116.222 183.493 115.906 183.177 115.672 182.77C115.439 182.363 115.322 181.89 115.322 181.35C115.322 180.81 115.439 180.34 115.672 179.94C115.906 179.533 116.222 179.217 116.622 178.99C117.029 178.763 117.489 178.65 118.002 178.65C118.449 178.65 118.852 178.75 119.212 178.95C119.572 179.15 119.859 179.45 120.072 179.85C120.292 180.25 120.402 180.75 120.402 181.35C120.402 181.95 120.296 182.45 120.082 182.85C119.876 183.25 119.592 183.553 119.232 183.76C118.872 183.96 118.462 184.06 118.002 184.06ZM118.082 183.22C118.416 183.22 118.716 183.143 118.982 182.99C119.256 182.837 119.469 182.62 119.622 182.34C119.782 182.053 119.862 181.723 119.862 181.35C119.862 180.97 119.782 180.643 119.622 180.37C119.469 180.09 119.256 179.873 118.982 179.72C118.716 179.567 118.416 179.49 118.082 179.49C117.742 179.49 117.439 179.567 117.172 179.72C116.906 179.873 116.692 180.09 116.532 180.37C116.372 180.643 116.292 180.97 116.292 181.35C116.292 181.723 116.372 182.053 116.532 182.34C116.692 182.62 116.906 182.837 117.172 182.99C117.439 183.143 117.742 183.22 118.082 183.22ZM119.892 184V182.57L119.952 181.34L119.852 180.11V176.58H120.812V184H119.892Z" fill="#66777F"/>
<path d="M124.989 184.06C124.422 184.06 123.922 183.943 123.489 183.71C123.062 183.477 122.729 183.157 122.489 182.75C122.255 182.343 122.139 181.877 122.139 181.35C122.139 180.823 122.252 180.357 122.479 179.95C122.712 179.543 123.029 179.227 123.429 179C123.835 178.767 124.292 178.65 124.799 178.65C125.312 178.65 125.765 178.763 126.159 178.99C126.552 179.217 126.859 179.537 127.079 179.95C127.305 180.357 127.419 180.833 127.419 181.38C127.419 181.42 127.415 181.467 127.409 181.52C127.409 181.573 127.405 181.623 127.399 181.67H122.889V180.98H126.899L126.509 181.22C126.515 180.88 126.445 180.577 126.299 180.31C126.152 180.043 125.949 179.837 125.689 179.69C125.435 179.537 125.139 179.46 124.799 179.46C124.465 179.46 124.169 179.537 123.909 179.69C123.649 179.837 123.445 180.047 123.299 180.32C123.152 180.587 123.079 180.893 123.079 181.24V181.4C123.079 181.753 123.159 182.07 123.319 182.35C123.485 182.623 123.715 182.837 124.009 182.99C124.302 183.143 124.639 183.22 125.019 183.22C125.332 183.22 125.615 183.167 125.869 183.06C126.129 182.953 126.355 182.793 126.549 182.58L127.079 183.2C126.839 183.48 126.539 183.693 126.179 183.84C125.825 183.987 125.429 184.06 124.989 184.06Z" fill="#66777F"/>
<path d="M127.835 184L130.115 181.04L130.105 181.53L127.935 178.7H129.005L130.665 180.88H130.255L131.915 178.7H132.965L130.765 181.55L130.775 181.04L133.075 184H131.985L130.235 181.68L130.625 181.74L128.905 184H127.835Z" fill="#66777F"/>
<path d="M138.628 184.06C138.095 184.06 137.682 183.917 137.388 183.63C137.095 183.343 136.948 182.933 136.948 182.4V177.54H137.908V182.36C137.908 182.647 137.978 182.867 138.118 183.02C138.265 183.173 138.472 183.25 138.738 183.25C139.038 183.25 139.288 183.167 139.488 183L139.788 183.69C139.642 183.817 139.465 183.91 139.258 183.97C139.058 184.03 138.848 184.06 138.628 184.06ZM136.048 179.49V178.7H139.428V179.49H136.048Z" fill="#66777F"/>
<path d="M143.043 184.06C142.51 184.06 142.037 183.943 141.623 183.71C141.21 183.477 140.883 183.157 140.643 182.75C140.403 182.337 140.283 181.87 140.283 181.35C140.283 180.823 140.403 180.357 140.643 179.95C140.883 179.543 141.21 179.227 141.623 179C142.037 178.767 142.51 178.65 143.043 178.65C143.57 178.65 144.04 178.767 144.453 179C144.873 179.227 145.2 179.543 145.433 179.95C145.673 180.35 145.793 180.817 145.793 181.35C145.793 181.877 145.673 182.343 145.433 182.75C145.2 183.157 144.873 183.477 144.453 183.71C144.04 183.943 143.57 184.06 143.043 184.06ZM143.043 183.22C143.383 183.22 143.687 183.143 143.953 182.99C144.227 182.837 144.44 182.62 144.593 182.34C144.747 182.053 144.823 181.723 144.823 181.35C144.823 180.97 144.747 180.643 144.593 180.37C144.44 180.09 144.227 179.873 143.953 179.72C143.687 179.567 143.383 179.49 143.043 179.49C142.703 179.49 142.4 179.567 142.133 179.72C141.867 179.873 141.653 180.09 141.493 180.37C141.333 180.643 141.253 180.97 141.253 181.35C141.253 181.723 141.333 182.053 141.493 182.34C141.653 182.62 141.867 182.837 142.133 182.99C142.4 183.143 142.703 183.22 143.043 183.22Z" fill="#66777F"/>
<path d="M147.901 182.72L147.921 181.49L150.971 178.7H152.131L149.791 181L149.271 181.44L147.901 182.72ZM147.121 184V176.58H148.081V184H147.121ZM151.171 184L149.091 181.42L149.711 180.65L152.351 184H151.171Z" fill="#66777F"/>
<path d="M155.428 184.06C154.862 184.06 154.362 183.943 153.928 183.71C153.502 183.477 153.168 183.157 152.928 182.75C152.695 182.343 152.578 181.877 152.578 181.35C152.578 180.823 152.692 180.357 152.918 179.95C153.152 179.543 153.468 179.227 153.868 179C154.275 178.767 154.732 178.65 155.238 178.65C155.752 178.65 156.205 178.763 156.598 178.99C156.992 179.217 157.298 179.537 157.518 179.95C157.745 180.357 157.858 180.833 157.858 181.38C157.858 181.42 157.855 181.467 157.848 181.52C157.848 181.573 157.845 181.623 157.838 181.67H153.328V180.98H157.338L156.948 181.22C156.955 180.88 156.885 180.577 156.738 180.31C156.592 180.043 156.388 179.837 156.128 179.69C155.875 179.537 155.578 179.46 155.238 179.46C154.905 179.46 154.608 179.537 154.348 179.69C154.088 179.837 153.885 180.047 153.738 180.32C153.592 180.587 153.518 180.893 153.518 181.24V181.4C153.518 181.753 153.598 182.07 153.758 182.35C153.925 182.623 154.155 182.837 154.448 182.99C154.742 183.143 155.078 183.22 155.458 183.22C155.772 183.22 156.055 183.167 156.308 183.06C156.568 182.953 156.795 182.793 156.988 182.58L157.518 183.2C157.278 183.48 156.978 183.693 156.618 183.84C156.265 183.987 155.868 184.06 155.428 184.06Z" fill="#66777F"/>
<path d="M162.021 178.65C162.455 178.65 162.835 178.733 163.161 178.9C163.495 179.067 163.755 179.32 163.941 179.66C164.128 180 164.221 180.43 164.221 180.95V184H163.261V181.06C163.261 180.547 163.135 180.16 162.881 179.9C162.635 179.64 162.285 179.51 161.831 179.51C161.491 179.51 161.195 179.577 160.941 179.71C160.688 179.843 160.491 180.04 160.351 180.3C160.218 180.56 160.151 180.883 160.151 181.27V184H159.191V178.7H160.111V180.13L159.961 179.75C160.135 179.403 160.401 179.133 160.761 178.94C161.121 178.747 161.541 178.65 162.021 178.65Z" fill="#66777F"/>
<path d="M107.494 152V146.06L107.881 146.483H106.072V145.7H108.385V152H107.494Z" fill="#243D48"/>
<path d="M112.337 152.072C111.845 152.072 111.404 151.946 111.014 151.694C110.63 151.442 110.324 151.076 110.096 150.596C109.874 150.116 109.763 149.534 109.763 148.85C109.763 148.166 109.874 147.584 110.096 147.104C110.324 146.624 110.63 146.258 111.014 146.006C111.404 145.754 111.845 145.628 112.337 145.628C112.823 145.628 113.261 145.754 113.651 146.006C114.041 146.258 114.347 146.624 114.569 147.104C114.791 147.584 114.902 148.166 114.902 148.85C114.902 149.534 114.791 150.116 114.569 150.596C114.347 151.076 114.041 151.442 113.651 151.694C113.261 151.946 112.823 152.072 112.337 152.072ZM112.337 151.271C112.667 151.271 112.955 151.181 113.201 151.001C113.453 150.821 113.648 150.551 113.786 150.191C113.93 149.831 114.002 149.384 114.002 148.85C114.002 148.316 113.93 147.869 113.786 147.509C113.648 147.149 113.453 146.879 113.201 146.699C112.955 146.519 112.667 146.429 112.337 146.429C112.007 146.429 111.716 146.519 111.464 146.699C111.212 146.879 111.014 147.149 110.87 147.509C110.732 147.869 110.663 148.316 110.663 148.85C110.663 149.384 110.732 149.831 110.87 150.191C111.014 150.551 111.212 150.821 111.464 151.001C111.716 151.181 112.007 151.271 112.337 151.271Z" fill="#243D48"/>
<path fill-rule="evenodd" clip-rule="evenodd" d="M661 159H105V158H661V159Z" fill="#E3E6E7"/>
<path fill-rule="evenodd" clip-rule="evenodd" d="M661 205H105V204H661V205Z" fill="#E3E6E7"/>
<path d="M290 373.5C290 366.044 296.044 360 303.5 360H364.5C371.956 360 378 366.044 378 373.5V373.5C378 380.956 371.956 387 364.5 387H303.5C296.044 387 290 380.956 290 373.5V373.5Z" fill="#243D48"/>
<path d="M321.884 378.12C321.236 378.12 320.608 378.028 320 377.844C319.4 377.66 318.924 377.416 318.572 377.112L319.112 375.9C319.456 376.172 319.876 376.396 320.372 376.572C320.876 376.74 321.38 376.824 321.884 376.824C322.508 376.824 322.972 376.724 323.276 376.524C323.588 376.324 323.744 376.06 323.744 375.732C323.744 375.492 323.656 375.296 323.48 375.144C323.312 374.984 323.096 374.86 322.832 374.772C322.568 374.684 322.208 374.584 321.752 374.472C321.112 374.32 320.592 374.168 320.192 374.016C319.8 373.864 319.46 373.628 319.172 373.308C318.892 372.98 318.752 372.54 318.752 371.988C318.752 371.524 318.876 371.104 319.124 370.728C319.38 370.344 319.76 370.04 320.264 369.816C320.776 369.592 321.4 369.48 322.136 369.48C322.648 369.48 323.152 369.544 323.648 369.672C324.144 369.8 324.572 369.984 324.932 370.224L324.44 371.436C324.072 371.22 323.688 371.056 323.288 370.944C322.888 370.832 322.5 370.776 322.124 370.776C321.508 370.776 321.048 370.88 320.744 371.088C320.448 371.296 320.3 371.572 320.3 371.916C320.3 372.156 320.384 372.352 320.552 372.504C320.728 372.656 320.948 372.776 321.212 372.864C321.476 372.952 321.836 373.052 322.292 373.164C322.916 373.308 323.428 373.46 323.828 373.62C324.228 373.772 324.568 374.008 324.848 374.328C325.136 374.648 325.28 375.08 325.28 375.624C325.28 376.088 325.152 376.508 324.896 376.884C324.648 377.26 324.268 377.56 323.756 377.784C323.244 378.008 322.62 378.12 321.884 378.12Z" fill="white"/>
<path d="M332.275 376.056H328.075L327.247 378H325.639L329.419 369.6H330.955L334.747 378H333.115L332.275 376.056ZM331.759 374.832L330.175 371.16L328.603 374.832H331.759Z" fill="white"/>
<path d="M343.05 369.6L339.39 378H337.854L334.182 369.6H335.874L338.67 376.08L341.49 369.6H343.05Z" fill="white"/>
<path d="M350.237 376.692V378H343.937V369.6H350.069V370.908H345.497V373.092H349.553V374.376H345.497V376.692H350.237Z" fill="white"/>
<path d="M440.19 373.91V375H434.94V368H440.05V369.09H436.24V370.91H439.62V371.98H436.24V373.91H440.19Z" fill="#243D48"/>
<path d="M444.549 369.6C445.222 369.6 445.762 369.797 446.169 370.19C446.576 370.583 446.779 371.167 446.779 371.94V375H445.529V372.1C445.529 371.633 445.419 371.283 445.199 371.05C444.979 370.81 444.666 370.69 444.259 370.69C443.799 370.69 443.436 370.83 443.169 371.11C442.902 371.383 442.769 371.78 442.769 372.3V375H441.519V369.66H442.709V370.35C442.916 370.103 443.176 369.917 443.489 369.79C443.802 369.663 444.156 369.6 444.549 369.6Z" fill="#243D48"/>
<path d="M450.405 369.6C451.192 369.6 451.792 369.79 452.205 370.17C452.625 370.543 452.835 371.11 452.835 371.87V375H451.655V374.35C451.502 374.583 451.282 374.763 450.995 374.89C450.715 375.01 450.375 375.07 449.975 375.07C449.575 375.07 449.225 375.003 448.925 374.87C448.625 374.73 448.392 374.54 448.225 374.3C448.065 374.053 447.985 373.777 447.985 373.47C447.985 372.99 448.162 372.607 448.515 372.32C448.875 372.027 449.438 371.88 450.205 371.88H451.585V371.8C451.585 371.427 451.472 371.14 451.245 370.94C451.025 370.74 450.695 370.64 450.255 370.64C449.955 370.64 449.658 370.687 449.365 370.78C449.078 370.873 448.835 371.003 448.635 371.17L448.145 370.26C448.425 370.047 448.762 369.883 449.155 369.77C449.548 369.657 449.965 369.6 450.405 369.6ZM450.235 374.16C450.548 374.16 450.825 374.09 451.065 373.95C451.312 373.803 451.485 373.597 451.585 373.33V372.71H450.295C449.575 372.71 449.215 372.947 449.215 373.42C449.215 373.647 449.305 373.827 449.485 373.96C449.665 374.093 449.915 374.16 450.235 374.16Z" fill="#243D48"/>
<path d="M457.399 369.6C457.919 369.6 458.382 369.713 458.789 369.94C459.202 370.167 459.526 370.487 459.759 370.9C459.992 371.313 460.109 371.79 460.109 372.33C460.109 372.87 459.992 373.35 459.759 373.77C459.526 374.183 459.202 374.503 458.789 374.73C458.382 374.957 457.919 375.07 457.399 375.07C457.032 375.07 456.696 375.007 456.389 374.88C456.089 374.753 455.836 374.563 455.629 374.31V375H454.439V367.58H455.689V370.31C455.902 370.077 456.152 369.9 456.439 369.78C456.732 369.66 457.052 369.6 457.399 369.6ZM457.259 374C457.719 374 458.096 373.847 458.389 373.54C458.689 373.233 458.839 372.83 458.839 372.33C458.839 371.83 458.689 371.427 458.389 371.12C458.096 370.813 457.719 370.66 457.259 370.66C456.959 370.66 456.689 370.73 456.449 370.87C456.209 371.003 456.019 371.197 455.879 371.45C455.739 371.703 455.669 371.997 455.669 372.33C455.669 372.663 455.739 372.957 455.879 373.21C456.019 373.463 456.209 373.66 456.449 373.8C456.689 373.933 456.959 374 457.259 374Z" fill="#243D48"/>
<path d="M461.295 367.58H462.545V375H461.295V367.58Z" fill="#243D48"/>
<path d="M469.205 372.36C469.205 372.447 469.199 372.57 469.185 372.73H464.995C465.069 373.123 465.259 373.437 465.565 373.67C465.879 373.897 466.265 374.01 466.725 374.01C467.312 374.01 467.795 373.817 468.175 373.43L468.845 374.2C468.605 374.487 468.302 374.703 467.935 374.85C467.569 374.997 467.155 375.07 466.695 375.07C466.109 375.07 465.592 374.953 465.145 374.72C464.699 374.487 464.352 374.163 464.105 373.75C463.865 373.33 463.745 372.857 463.745 372.33C463.745 371.81 463.862 371.343 464.095 370.93C464.335 370.51 464.665 370.183 465.085 369.95C465.505 369.717 465.979 369.6 466.505 369.6C467.025 369.6 467.489 369.717 467.895 369.95C468.309 370.177 468.629 370.5 468.855 370.92C469.089 371.333 469.205 371.813 469.205 372.36ZM466.505 370.6C466.105 370.6 465.765 370.72 465.485 370.96C465.212 371.193 465.045 371.507 464.985 371.9H468.015C467.962 371.513 467.799 371.2 467.525 370.96C467.252 370.72 466.912 370.6 466.505 370.6Z" fill="#243D48"/>
<path d="M475.636 367.58V375H474.436V374.31C474.229 374.563 473.973 374.753 473.666 374.88C473.366 375.007 473.033 375.07 472.666 375.07C472.153 375.07 471.689 374.957 471.276 374.73C470.869 374.503 470.549 374.183 470.316 373.77C470.083 373.35 469.966 372.87 469.966 372.33C469.966 371.79 470.083 371.313 470.316 370.9C470.549 370.487 470.869 370.167 471.276 369.94C471.689 369.713 472.153 369.6 472.666 369.6C473.019 369.6 473.343 369.66 473.636 369.78C473.929 369.9 474.179 370.08 474.386 370.32V367.58H475.636ZM472.816 374C473.116 374 473.386 373.933 473.626 373.8C473.866 373.66 474.056 373.463 474.196 373.21C474.336 372.957 474.406 372.663 474.406 372.33C474.406 371.997 474.336 371.703 474.196 371.45C474.056 371.197 473.866 371.003 473.626 370.87C473.386 370.73 473.116 370.66 472.816 370.66C472.516 370.66 472.246 370.73 472.006 370.87C471.766 371.003 471.576 371.197 471.436 371.45C471.296 371.703 471.226 371.997 471.226 372.33C471.226 372.663 471.296 372.957 471.436 373.21C471.576 373.463 471.766 373.66 472.006 373.8C472.246 373.933 472.516 374 472.816 374Z" fill="#243D48"/>
<path d="M401 372C401 369.791 402.791 368 405 368H420C422.209 368 424 369.791 424 372C424 374.209 422.209 376 420 376H405C402.791 376 401 374.209 401 372Z" fill="#BDC3C6"/>
<g filter="url(#filter2_d_166_5594)">
<path d="M424 372C424 375.314 421.314 378 418 378C414.686 378 412 375.314 412 372C412 368.686 414.686 366 418 366C421.314 366 424 368.686 424 372Z" fill="#243D48"/>
</g>
</g>
<defs>
<filter id="filter0_d_166_5594" x="4" y="4" width="757" height="459" filterUnits="userSpaceOnUse" color-interpolation-filters="sRGB">
<feFlood flood-opacity="0" result="BackgroundImageFix"/>
<feColorMatrix in="SourceAlpha" type="matrix" values="0 0 0 0 0 0 0 0 0 0 0 0 0 0 0 0 0 0 127 0" result="hardAlpha"/>
<feOffset/>
<feGaussianBlur stdDeviation="5.5"/>
<feColorMatrix type="matrix" values="0 0 0 0 0 0 0 0 0 0 0 0 0 0 0 0 0 0 0.05 0"/>
<feBlend mode="normal" in2="BackgroundImageFix" result="effect1_dropShadow_166_5594"/>
<feBlend mode="normal" in="SourceGraphic" in2="effect1_dropShadow_166_5594" result="shape"/>
</filter>
<filter id="filter1_f_166_5594" x="10" y="53" width="746" height="405" filterUnits="userSpaceOnUse" color-interpolation-filters="sRGB">
<feFlood flood-opacity="0" result="BackgroundImageFix"/>
<feBlend mode="normal" in="SourceGraphic" in2="BackgroundImageFix" result="shape"/>
<feGaussianBlur stdDeviation="18" result="effect1_foregroundBlur_166_5594"/>
</filter>
<filter id="filter2_d_166_5594" x="410" y="364" width="16" height="16" filterUnits="userSpaceOnUse" color-interpolation-filters="sRGB">
<feFlood flood-opacity="0" result="BackgroundImageFix"/>
<feColorMatrix in="SourceAlpha" type="matrix" values="0 0 0 0 0 0 0 0 0 0 0 0 0 0 0 0 0 0 127 0" result="hardAlpha"/>
<feOffset/>
<feGaussianBlur stdDeviation="1"/>
<feComposite in2="hardAlpha" operator="out"/>
<feColorMatrix type="matrix" values="0 0 0 0 0 0 0 0 0 0 0 0 0 0 0 0 0 0 0.25 0"/>
<feBlend mode="normal" in2="BackgroundImageFix" result="effect1_dropShadow_166_5594"/>
<feBlend mode="normal" in="SourceGraphic" in2="effect1_dropShadow_166_5594" result="shape"/>
</filter>
<clipPath id="clip0_166_5594">
<rect width="766" height="466" fill="white"/>
</clipPath>
</defs>
</svg>
