<svg width="766" height="466" viewBox="0 0 766 466" fill="none" xmlns="http://www.w3.org/2000/svg">
<g clip-path="url(#clip0_168_2501)">
<rect width="766" height="466" fill="white"/>
<g filter="url(#filter0_d_168_2501)">
<path d="M15 23C15 18.5817 18.5817 15 23 15H742C746.418 15 750 18.5817 750 23V444C750 448.418 746.418 452 742 452H23C18.5817 452 15 448.418 15 444V23Z" fill="#E3E6E7"/>
</g>
<path fill-rule="evenodd" clip-rule="evenodd" d="M738 21H28C24.134 21 21 24.134 21 28V438C21 441.866 24.134 445 28 445H738C741.866 445 745 441.866 745 438V28C745 24.134 741.866 21 738 21ZM28 0C12.536 0 0 12.536 0 28V438C0 453.464 12.536 466 28 466H738C753.464 466 766 453.464 766 438V28C766 12.536 753.464 0 738 0H28Z" fill="#202020"/>
<g opacity="0.18" filter="url(#filter1_f_168_2501)">
<path d="M46 95C46 90.5817 49.5817 87 54 87H712C716.418 87 720 90.5817 720 95V417C720 421.418 716.418 425 712 425H54C49.5817 425 46 421.418 46 417V95Z" fill="#66777F"/>
</g>
<path d="M53 102C53 97.5817 56.5817 94 61 94H705C709.418 94 713 97.5817 713 102V407C713 411.418 709.418 415 705 415H61C56.5817 415 53 411.418 53 407V102Z" fill="white"/>
<path d="M339 375.5C339 368.044 345.044 362 352.5 362H413.5C420.956 362 427 368.044 427 375.5V375.5C427 382.956 420.956 389 413.5 389H352.5C345.044 389 339 382.956 339 375.5V375.5Z" fill="#243D48"/>
<path d="M370.884 380.12C370.236 380.12 369.608 380.028 369 379.844C368.4 379.66 367.924 379.416 367.572 379.112L368.112 377.9C368.456 378.172 368.876 378.396 369.372 378.572C369.876 378.74 370.38 378.824 370.884 378.824C371.508 378.824 371.972 378.724 372.276 378.524C372.588 378.324 372.744 378.06 372.744 377.732C372.744 377.492 372.656 377.296 372.48 377.144C372.312 376.984 372.096 376.86 371.832 376.772C371.568 376.684 371.208 376.584 370.752 376.472C370.112 376.32 369.592 376.168 369.192 376.016C368.8 375.864 368.46 375.628 368.172 375.308C367.892 374.98 367.752 374.54 367.752 373.988C367.752 373.524 367.876 373.104 368.124 372.728C368.38 372.344 368.76 372.04 369.264 371.816C369.776 371.592 370.4 371.48 371.136 371.48C371.648 371.48 372.152 371.544 372.648 371.672C373.144 371.8 373.572 371.984 373.932 372.224L373.44 373.436C373.072 373.22 372.688 373.056 372.288 372.944C371.888 372.832 371.5 372.776 371.124 372.776C370.508 372.776 370.048 372.88 369.744 373.088C369.448 373.296 369.3 373.572 369.3 373.916C369.3 374.156 369.384 374.352 369.552 374.504C369.728 374.656 369.948 374.776 370.212 374.864C370.476 374.952 370.836 375.052 371.292 375.164C371.916 375.308 372.428 375.46 372.828 375.62C373.228 375.772 373.568 376.008 373.848 376.328C374.136 376.648 374.28 377.08 374.28 377.624C374.28 378.088 374.152 378.508 373.896 378.884C373.648 379.26 373.268 379.56 372.756 379.784C372.244 380.008 371.62 380.12 370.884 380.12Z" fill="white"/>
<path d="M381.275 378.056H377.075L376.247 380H374.639L378.419 371.6H379.955L383.747 380H382.115L381.275 378.056ZM380.759 376.832L379.175 373.16L377.603 376.832H380.759Z" fill="white"/>
<path d="M392.05 371.6L388.39 380H386.854L383.182 371.6H384.874L387.67 378.08L390.49 371.6H392.05Z" fill="white"/>
<path d="M399.237 378.692V380H392.937V371.6H399.069V372.908H394.497V375.092H398.553V376.376H394.497V378.692H399.237Z" fill="white"/>
<path d="M261.339 68V49.8H268.151C269.694 49.8 271.02 50.0514 272.129 50.554C273.238 51.0394 274.088 51.75 274.677 52.686C275.284 53.6047 275.587 54.7227 275.587 56.04C275.587 57.3227 275.284 58.432 274.677 59.368C274.088 60.2867 273.238 60.9974 272.129 61.5C271.02 62.0027 269.694 62.254 268.151 62.254H262.405L263.263 61.344V68H261.339ZM263.263 61.5L262.405 60.564H268.099C269.919 60.564 271.297 60.174 272.233 59.394C273.186 58.5967 273.663 57.4787 273.663 56.04C273.663 54.584 273.186 53.4574 272.233 52.66C271.297 51.8627 269.919 51.464 268.099 51.464H262.405L263.263 50.554V61.5Z" fill="#243D48"/>
<path d="M279.747 68V49.8H281.671V66.336H291.863V68H279.747Z" fill="#243D48"/>
<path d="M292.146 68L300.466 49.8H302.364L310.684 68H308.656L301.012 50.918H301.792L294.148 68H292.146ZM295.422 63.138L295.994 61.578H306.576L307.148 63.138H295.422Z" fill="#243D48"/>
<path d="M316.97 68V61.24L317.412 62.436L309.69 49.8H311.744L318.53 60.902H317.438L324.224 49.8H326.148L318.426 62.436L318.868 61.24V68H316.97Z" fill="#243D48"/>
<path d="M328.751 68V49.8H336.603C338.631 49.8 340.2 50.2074 341.309 51.022C342.436 51.8367 342.999 52.9894 342.999 54.48C342.999 55.468 342.765 56.3 342.297 56.976C341.846 57.652 341.222 58.1634 340.425 58.51C339.645 58.8567 338.787 59.03 337.851 59.03L338.293 58.406C339.454 58.406 340.451 58.588 341.283 58.952C342.132 59.2987 342.791 59.8274 343.259 60.538C343.727 61.2314 343.961 62.098 343.961 63.138C343.961 64.6807 343.389 65.8767 342.245 66.726C341.118 67.5754 339.411 68 337.123 68H328.751ZM330.675 66.414H337.097C338.692 66.414 339.914 66.1454 340.763 65.608C341.612 65.0534 342.037 64.178 342.037 62.982C342.037 61.8034 341.612 60.9454 340.763 60.408C339.914 59.8534 338.692 59.576 337.097 59.576H330.467V57.99H336.473C337.929 57.99 339.056 57.7127 339.853 57.158C340.668 56.6034 341.075 55.78 341.075 54.688C341.075 53.5787 340.668 52.7554 339.853 52.218C339.056 51.6634 337.929 51.386 336.473 51.386H330.675V66.414Z" fill="#243D48"/>
<path d="M356.309 68.156C354.939 68.156 353.665 67.9307 352.487 67.48C351.325 67.012 350.311 66.362 349.445 65.53C348.595 64.6807 347.928 63.7014 347.443 62.592C346.975 61.4654 346.741 60.2347 346.741 58.9C346.741 57.5654 346.975 56.3434 347.443 55.234C347.928 54.1074 348.595 53.128 349.445 52.296C350.311 51.4467 351.325 50.7967 352.487 50.346C353.648 49.878 354.922 49.644 356.309 49.644C357.678 49.644 358.943 49.878 360.105 50.346C361.266 50.7967 362.271 51.438 363.121 52.27C363.987 53.102 364.655 54.0814 365.123 55.208C365.608 56.3347 365.851 57.5654 365.851 58.9C365.851 60.2347 365.608 61.4654 365.123 62.592C364.655 63.7187 363.987 64.698 363.121 65.53C362.271 66.362 361.266 67.012 360.105 67.48C358.943 67.9307 357.678 68.156 356.309 68.156ZM356.309 66.44C357.401 66.44 358.406 66.258 359.325 65.894C360.261 65.5127 361.067 64.984 361.743 64.308C362.436 63.6147 362.973 62.8174 363.355 61.916C363.736 60.9974 363.927 59.992 363.927 58.9C363.927 57.808 363.736 56.8114 363.355 55.91C362.973 54.9914 362.436 54.194 361.743 53.518C361.067 52.8247 360.261 52.296 359.325 51.932C358.406 51.5507 357.401 51.36 356.309 51.36C355.217 51.36 354.203 51.5507 353.267 51.932C352.331 52.296 351.516 52.8247 350.823 53.518C350.147 54.194 349.609 54.9914 349.211 55.91C348.829 56.8114 348.639 57.808 348.639 58.9C348.639 59.9747 348.829 60.9714 349.211 61.89C349.609 62.8087 350.147 63.6147 350.823 64.308C351.516 64.984 352.331 65.5127 353.267 65.894C354.203 66.258 355.217 66.44 356.309 66.44Z" fill="#243D48"/>
<path d="M366.997 68L375.317 49.8H377.215L385.535 68H383.507L375.863 50.918H376.643L368.999 68H366.997ZM370.273 63.138L370.845 61.578H381.427L381.999 63.138H370.273Z" fill="#243D48"/>
<path d="M388.546 68V49.8H395.358C396.901 49.8 398.227 50.0514 399.336 50.554C400.445 51.0394 401.295 51.75 401.884 52.686C402.491 53.6047 402.794 54.7227 402.794 56.04C402.794 57.3227 402.491 58.432 401.884 59.368C401.295 60.2867 400.445 60.9974 399.336 61.5C398.227 61.9854 396.901 62.228 395.358 62.228H389.612L390.47 61.344V68H388.546ZM400.974 68L396.294 61.396H398.374L403.08 68H400.974ZM390.47 61.5L389.612 60.59H395.306C397.126 60.59 398.504 60.1914 399.44 59.394C400.393 58.5967 400.87 57.4787 400.87 56.04C400.87 54.584 400.393 53.4574 399.44 52.66C398.504 51.8627 397.126 51.464 395.306 51.464H389.612L390.47 50.554V61.5Z" fill="#243D48"/>
<path d="M407.335 68V49.8H414.745C416.686 49.8 418.385 50.19 419.841 50.97C421.314 51.7327 422.458 52.7987 423.273 54.168C424.088 55.5374 424.495 57.1147 424.495 58.9C424.495 60.6854 424.088 62.2627 423.273 63.632C422.458 65.0014 421.314 66.076 419.841 66.856C418.385 67.6187 416.686 68 414.745 68H407.335ZM409.259 66.336H414.641C416.253 66.336 417.648 66.024 418.827 65.4C420.023 64.7587 420.95 63.8834 421.609 62.774C422.268 61.6474 422.597 60.356 422.597 58.9C422.597 57.4267 422.268 56.1354 421.609 55.026C420.95 53.9167 420.023 53.05 418.827 52.426C417.648 51.7847 416.253 51.464 414.641 51.464H409.259V66.336Z" fill="#243D48"/>
<path d="M434.216 61.76V60.148H441.028V61.76H434.216Z" fill="#243D48"/>
<path d="M458.099 60.382L455.213 63.346V68H451.833V49.8H455.213V59.134L464.209 49.8H468.005L460.361 57.938L468.473 68H464.521L458.099 60.382Z" fill="#243D48"/>
<path d="M478.262 49.8C479.839 49.8 481.209 50.06 482.37 50.58C483.549 51.1 484.45 51.8454 485.074 52.816C485.698 53.7867 486.01 54.9394 486.01 56.274C486.01 57.5914 485.698 58.744 485.074 59.732C484.45 60.7027 483.549 61.448 482.37 61.968C481.209 62.488 479.839 62.748 478.262 62.748H474.154V68H470.774V49.8H478.262ZM478.106 59.888C479.579 59.888 480.697 59.576 481.46 58.952C482.223 58.328 482.604 57.4354 482.604 56.274C482.604 55.1127 482.223 54.22 481.46 53.596C480.697 52.972 479.579 52.66 478.106 52.66H474.154V59.888H478.106Z" fill="#243D48"/>
<path d="M489.385 49.8H492.765V68H489.385V49.8Z" fill="#243D48"/>
<path d="M501.666 68.182C500.539 68.182 499.439 68.0347 498.364 67.74C497.289 67.4454 496.431 67.0727 495.79 66.622L497.038 64.152C497.662 64.568 498.407 64.906 499.274 65.166C500.158 65.4087 501.025 65.53 501.874 65.53C503.815 65.53 504.786 65.0187 504.786 63.996C504.786 63.5107 504.535 63.1727 504.032 62.982C503.547 62.7914 502.758 62.6094 501.666 62.436C500.522 62.2627 499.586 62.0634 498.858 61.838C498.147 61.6127 497.523 61.2227 496.986 60.668C496.466 60.096 496.206 59.3074 496.206 58.302C496.206 56.9847 496.752 55.936 497.844 55.156C498.953 54.3587 500.444 53.96 502.316 53.96C503.269 53.96 504.223 54.0727 505.176 54.298C506.129 54.506 506.909 54.792 507.516 55.156L506.268 57.626C505.089 56.9327 503.763 56.586 502.29 56.586C501.337 56.586 500.609 56.7334 500.106 57.028C499.621 57.3054 499.378 57.678 499.378 58.146C499.378 58.666 499.638 59.0387 500.158 59.264C500.695 59.472 501.519 59.6714 502.628 59.862C503.737 60.0354 504.647 60.2347 505.358 60.46C506.069 60.6854 506.675 61.0667 507.178 61.604C507.698 62.1414 507.958 62.904 507.958 63.892C507.958 65.192 507.395 66.232 506.268 67.012C505.141 67.792 503.607 68.182 501.666 68.182Z" fill="#243D48"/>
<path d="M168.33 166.7C168.097 166.973 167.823 167.18 167.51 167.32C167.203 167.46 166.867 167.53 166.5 167.53C166.02 167.53 165.58 167.42 165.18 167.2C164.78 166.987 164.323 166.613 163.81 166.08C163.163 166.027 162.583 165.84 162.07 165.52C161.557 165.193 161.157 164.77 160.87 164.25C160.583 163.723 160.44 163.14 160.44 162.5C160.44 161.82 160.603 161.207 160.93 160.66C161.257 160.107 161.707 159.677 162.28 159.37C162.853 159.057 163.497 158.9 164.21 158.9C164.923 158.9 165.567 159.057 166.14 159.37C166.713 159.677 167.163 160.103 167.49 160.65C167.817 161.197 167.98 161.813 167.98 162.5C167.98 163.053 167.87 163.567 167.65 164.04C167.43 164.507 167.123 164.907 166.73 165.24C166.337 165.567 165.88 165.803 165.36 165.95C165.553 166.157 165.743 166.307 165.93 166.4C166.117 166.493 166.317 166.54 166.53 166.54C166.99 166.54 167.39 166.353 167.73 165.98L168.33 166.7ZM161.75 162.5C161.75 162.967 161.857 163.39 162.07 163.77C162.283 164.143 162.577 164.437 162.95 164.65C163.323 164.857 163.743 164.96 164.21 164.96C164.677 164.96 165.097 164.857 165.47 164.65C165.843 164.437 166.137 164.143 166.35 163.77C166.563 163.39 166.67 162.967 166.67 162.5C166.67 162.033 166.563 161.613 166.35 161.24C166.137 160.86 165.843 160.567 165.47 160.36C165.097 160.147 164.677 160.04 164.21 160.04C163.743 160.04 163.323 160.147 162.95 160.36C162.577 160.567 162.283 160.86 162.07 161.24C161.857 161.613 161.75 162.033 161.75 162.5Z" fill="#243D48"/>
<path d="M174.408 160.66V166H173.218V165.32C173.018 165.56 172.768 165.747 172.468 165.88C172.168 166.007 171.845 166.07 171.498 166.07C170.785 166.07 170.221 165.873 169.808 165.48C169.401 165.08 169.198 164.49 169.198 163.71V160.66H170.448V163.54C170.448 164.02 170.555 164.38 170.768 164.62C170.988 164.853 171.298 164.97 171.698 164.97C172.145 164.97 172.498 164.833 172.758 164.56C173.025 164.28 173.158 163.88 173.158 163.36V160.66H174.408Z" fill="#243D48"/>
<path d="M181.065 163.36C181.065 163.447 181.058 163.57 181.045 163.73H176.855C176.928 164.123 177.118 164.437 177.425 164.67C177.738 164.897 178.125 165.01 178.585 165.01C179.171 165.01 179.655 164.817 180.035 164.43L180.705 165.2C180.465 165.487 180.161 165.703 179.795 165.85C179.428 165.997 179.015 166.07 178.555 166.07C177.968 166.07 177.451 165.953 177.005 165.72C176.558 165.487 176.211 165.163 175.965 164.75C175.725 164.33 175.605 163.857 175.605 163.33C175.605 162.81 175.721 162.343 175.955 161.93C176.195 161.51 176.525 161.183 176.945 160.95C177.365 160.717 177.838 160.6 178.365 160.6C178.885 160.6 179.348 160.717 179.755 160.95C180.168 161.177 180.488 161.5 180.715 161.92C180.948 162.333 181.065 162.813 181.065 163.36ZM178.365 161.6C177.965 161.6 177.625 161.72 177.345 161.96C177.071 162.193 176.905 162.507 176.845 162.9H179.875C179.821 162.513 179.658 162.2 179.385 161.96C179.111 161.72 178.771 161.6 178.365 161.6Z" fill="#243D48"/>
<path d="M183.455 161.44C183.815 160.88 184.449 160.6 185.355 160.6V161.79C185.249 161.77 185.152 161.76 185.065 161.76C184.579 161.76 184.199 161.903 183.925 162.19C183.652 162.47 183.515 162.877 183.515 163.41V166H182.265V160.66H183.455V161.44Z" fill="#243D48"/>
<path d="M191.611 160.66L189.111 166.43C188.878 167.01 188.594 167.417 188.261 167.65C187.928 167.89 187.524 168.01 187.051 168.01C186.784 168.01 186.521 167.967 186.261 167.88C186.001 167.793 185.788 167.673 185.621 167.52L186.121 166.6C186.241 166.713 186.381 166.803 186.541 166.87C186.708 166.937 186.874 166.97 187.041 166.97C187.261 166.97 187.441 166.913 187.581 166.8C187.728 166.687 187.861 166.497 187.981 166.23L188.071 166.02L185.741 160.66H187.041L188.721 164.61L190.411 160.66H191.611Z" fill="#243D48"/>
<path d="M196.86 160.5L198 161.13L197.61 161.81L196.45 161.13L196.46 162.42H195.7L195.71 161.14L194.56 161.81L194.16 161.13L195.31 160.5L194.16 159.87L194.56 159.18L195.71 159.86L195.7 158.58H196.46L196.45 159.87L197.61 159.18L198 159.87L196.86 160.5Z" fill="#D44A6F"/>
<path d="M211.86 188.5L213 189.13L212.61 189.81L211.45 189.13L211.46 190.42H210.7L210.71 189.14L209.56 189.81L209.16 189.13L210.31 188.5L209.16 187.87L209.56 187.18L210.71 187.86L210.7 186.58H211.46L211.45 187.87L212.61 187.18L213 187.87L211.86 188.5Z" fill="#D44A6F"/>
<path d="M190.86 216.5L192 217.13L191.61 217.81L190.45 217.13L190.46 218.42H189.7L189.71 217.14L188.56 217.81L188.16 217.13L189.31 216.5L188.16 215.87L188.56 215.18L189.71 215.86L189.7 214.58H190.46L190.45 215.87L191.61 215.18L192 215.87L190.86 216.5Z" fill="#D44A6F"/>
<path d="M219.86 245.5L221 246.13L220.61 246.81L219.45 246.13L219.46 247.42H218.7L218.71 246.14L217.56 246.81L217.16 246.13L218.31 245.5L217.16 244.87L217.56 244.18L218.71 244.86L218.7 243.58H219.46L219.45 244.87L220.61 244.18L221 244.87L219.86 245.5Z" fill="#D44A6F"/>
<path d="M222.86 272.5L224 273.13L223.61 273.81L222.45 273.13L222.46 274.42H221.7L221.71 273.14L220.56 273.81L220.16 273.13L221.31 272.5L220.16 271.87L220.56 271.18L221.71 271.86L221.7 270.58H222.46L222.45 271.87L223.61 271.18L224 271.87L222.86 272.5Z" fill="#D44A6F"/>
<path d="M214.86 300.5L216 301.13L215.61 301.81L214.45 301.13L214.46 302.42H213.7L213.71 301.14L212.56 301.81L212.16 301.13L213.31 300.5L212.16 299.87L212.56 299.18L213.71 299.86L213.7 298.58H214.46L214.45 299.87L215.61 299.18L216 299.87L214.86 300.5Z" fill="#D44A6F"/>
<path d="M203.86 328.5L205 329.13L204.61 329.81L203.45 329.13L203.46 330.42H202.7L202.71 329.14L201.56 329.81L201.16 329.13L202.31 328.5L201.16 327.87L201.56 327.18L202.71 327.86L202.7 326.58H203.46L203.45 327.87L204.61 327.18L205 327.87L203.86 328.5Z" fill="#D44A6F"/>
<path d="M127 163C127 160.791 128.791 159 131 159H146C148.209 159 150 160.791 150 163V163C150 165.209 148.209 167 146 167H131C128.791 167 127 165.209 127 163V163Z" fill="#BDC3C6"/>
<g filter="url(#filter2_d_168_2501)">
<path d="M150 163C150 166.314 147.314 169 144 169C140.686 169 138 166.314 138 163C138 159.686 140.686 157 144 157C147.314 157 150 159.686 150 163Z" fill="#243D48"/>
</g>
<path d="M164.18 222.1C163.473 222.1 162.833 221.946 162.26 221.64C161.693 221.326 161.247 220.896 160.92 220.35C160.6 219.803 160.44 219.186 160.44 218.5C160.44 217.813 160.603 217.196 160.93 216.65C161.257 216.103 161.703 215.676 162.27 215.37C162.843 215.056 163.483 214.9 164.19 214.9C164.763 214.9 165.287 215 165.76 215.2C166.233 215.4 166.633 215.69 166.96 216.07L166.12 216.86C165.613 216.313 164.99 216.04 164.25 216.04C163.77 216.04 163.34 216.146 162.96 216.36C162.58 216.566 162.283 216.856 162.07 217.23C161.857 217.603 161.75 218.026 161.75 218.5C161.75 218.973 161.857 219.396 162.07 219.77C162.283 220.143 162.58 220.436 162.96 220.65C163.34 220.856 163.77 220.96 164.25 220.96C164.99 220.96 165.613 220.683 166.12 220.13L166.96 220.93C166.633 221.31 166.23 221.6 165.75 221.8C165.277 222 164.753 222.1 164.18 222.1Z" fill="#243D48"/>
<path d="M168.086 214.58H169.336V222H168.086V214.58Z" fill="#243D48"/>
<path d="M170.976 216.66H172.226V222H170.976V216.66ZM171.606 215.78C171.38 215.78 171.19 215.71 171.036 215.57C170.883 215.423 170.806 215.243 170.806 215.03C170.806 214.816 170.883 214.64 171.036 214.5C171.19 214.353 171.38 214.28 171.606 214.28C171.833 214.28 172.023 214.35 172.176 214.49C172.33 214.623 172.406 214.793 172.406 215C172.406 215.22 172.33 215.406 172.176 215.56C172.03 215.706 171.84 215.78 171.606 215.78Z" fill="#243D48"/>
<path d="M176.317 222.07C175.763 222.07 175.267 221.953 174.827 221.72C174.387 221.486 174.043 221.163 173.797 220.75C173.55 220.33 173.427 219.856 173.427 219.33C173.427 218.803 173.55 218.333 173.797 217.92C174.043 217.506 174.383 217.183 174.817 216.95C175.257 216.716 175.757 216.6 176.317 216.6C176.843 216.6 177.303 216.706 177.697 216.92C178.097 217.133 178.397 217.44 178.597 217.84L177.637 218.4C177.483 218.153 177.29 217.97 177.057 217.85C176.83 217.723 176.58 217.66 176.307 217.66C175.84 217.66 175.453 217.813 175.147 218.12C174.84 218.42 174.687 218.823 174.687 219.33C174.687 219.836 174.837 220.243 175.137 220.55C175.443 220.85 175.833 221 176.307 221C176.58 221 176.83 220.94 177.057 220.82C177.29 220.693 177.483 220.506 177.637 220.26L178.597 220.82C178.39 221.22 178.087 221.53 177.687 221.75C177.293 221.963 176.837 222.07 176.317 222.07Z" fill="#243D48"/>
<path d="M181.809 219.71L180.879 220.59V222H179.629V214.58H180.879V219.06L183.469 216.66H184.969L182.739 218.9L185.179 222H183.659L181.809 219.71Z" fill="#243D48"/>
<path d="M127 219C127 216.791 128.791 215 131 215H146C148.209 215 150 216.791 150 219V219C150 221.209 148.209 223 146 223H131C128.791 223 127 221.209 127 219V219Z" fill="#BDC3C6"/>
<g filter="url(#filter3_d_168_2501)">
<path d="M150 219C150 222.314 147.314 225 144 225C140.686 225 138 222.314 138 219C138 215.686 140.686 213 144 213C147.314 213 150 215.686 150 219Z" fill="#243D48"/>
</g>
<path d="M167.16 187V194H166.09L162.23 189.26V194H160.94V187H162.01L165.87 191.74V187H167.16Z" fill="#243D48"/>
<path d="M171.316 194.07C170.776 194.07 170.289 193.953 169.856 193.72C169.422 193.487 169.082 193.163 168.836 192.75C168.596 192.33 168.476 191.857 168.476 191.33C168.476 190.803 168.596 190.333 168.836 189.92C169.082 189.507 169.422 189.183 169.856 188.95C170.289 188.717 170.776 188.6 171.316 188.6C171.862 188.6 172.352 188.717 172.786 188.95C173.219 189.183 173.556 189.507 173.796 189.92C174.042 190.333 174.166 190.803 174.166 191.33C174.166 191.857 174.042 192.33 173.796 192.75C173.556 193.163 173.219 193.487 172.786 193.72C172.352 193.953 171.862 194.07 171.316 194.07ZM171.316 193C171.776 193 172.156 192.847 172.456 192.54C172.756 192.233 172.906 191.83 172.906 191.33C172.906 190.83 172.756 190.427 172.456 190.12C172.156 189.813 171.776 189.66 171.316 189.66C170.856 189.66 170.476 189.813 170.176 190.12C169.882 190.427 169.736 190.83 169.736 191.33C169.736 191.83 169.882 192.233 170.176 192.54C170.476 192.847 170.856 193 171.316 193Z" fill="#243D48"/>
<path d="M179.315 189.44C179.675 188.88 180.308 188.6 181.215 188.6V189.79C181.108 189.77 181.011 189.76 180.925 189.76C180.438 189.76 180.058 189.903 179.785 190.19C179.511 190.47 179.375 190.877 179.375 191.41V194H178.125V188.66H179.315V189.44Z" fill="#243D48"/>
<path d="M187.246 191.36C187.246 191.447 187.24 191.57 187.226 191.73H183.036C183.11 192.123 183.3 192.437 183.606 192.67C183.92 192.897 184.306 193.01 184.766 193.01C185.353 193.01 185.836 192.817 186.216 192.43L186.886 193.2C186.646 193.487 186.343 193.703 185.976 193.85C185.61 193.997 185.196 194.07 184.736 194.07C184.15 194.07 183.633 193.953 183.186 193.72C182.74 193.487 182.393 193.163 182.146 192.75C181.906 192.33 181.786 191.857 181.786 191.33C181.786 190.81 181.903 190.343 182.136 189.93C182.376 189.51 182.706 189.183 183.126 188.95C183.546 188.717 184.02 188.6 184.546 188.6C185.066 188.6 185.53 188.717 185.936 188.95C186.35 189.177 186.67 189.5 186.896 189.92C187.13 190.333 187.246 190.813 187.246 191.36ZM184.546 189.6C184.146 189.6 183.806 189.72 183.526 189.96C183.253 190.193 183.086 190.507 183.026 190.9H186.056C186.003 190.513 185.84 190.2 185.566 189.96C185.293 189.72 184.953 189.6 184.546 189.6Z" fill="#243D48"/>
<path d="M190.097 194.07C189.664 194.07 189.24 194.013 188.827 193.9C188.414 193.787 188.084 193.643 187.837 193.47L188.317 192.52C188.557 192.68 188.844 192.81 189.177 192.91C189.517 193.003 189.85 193.05 190.177 193.05C190.924 193.05 191.297 192.853 191.297 192.46C191.297 192.273 191.2 192.143 191.007 192.07C190.82 191.997 190.517 191.927 190.097 191.86C189.657 191.793 189.297 191.717 189.017 191.63C188.744 191.543 188.504 191.393 188.297 191.18C188.097 190.96 187.997 190.657 187.997 190.27C187.997 189.763 188.207 189.36 188.627 189.06C189.054 188.753 189.627 188.6 190.347 188.6C190.714 188.6 191.08 188.643 191.447 188.73C191.814 188.81 192.114 188.92 192.347 189.06L191.867 190.01C191.414 189.743 190.904 189.61 190.337 189.61C189.97 189.61 189.69 189.667 189.497 189.78C189.31 189.887 189.217 190.03 189.217 190.21C189.217 190.41 189.317 190.553 189.517 190.64C189.724 190.72 190.04 190.797 190.467 190.87C190.894 190.937 191.244 191.013 191.517 191.1C191.79 191.187 192.024 191.333 192.217 191.54C192.417 191.747 192.517 192.04 192.517 192.42C192.517 192.92 192.3 193.32 191.867 193.62C191.434 193.92 190.844 194.07 190.097 194.07Z" fill="#243D48"/>
<path d="M198.763 188.66V194H197.573V193.32C197.373 193.56 197.123 193.747 196.823 193.88C196.523 194.007 196.2 194.07 195.853 194.07C195.14 194.07 194.577 193.873 194.163 193.48C193.757 193.08 193.553 192.49 193.553 191.71V188.66H194.803V191.54C194.803 192.02 194.91 192.38 195.123 192.62C195.343 192.853 195.653 192.97 196.053 192.97C196.5 192.97 196.853 192.833 197.113 192.56C197.38 192.28 197.513 191.88 197.513 191.36V188.66H198.763Z" fill="#243D48"/>
<path d="M200.4 186.58H201.65V194H200.4V186.58Z" fill="#243D48"/>
<path d="M206.764 193.71C206.618 193.83 206.438 193.92 206.224 193.98C206.018 194.04 205.798 194.07 205.564 194.07C204.978 194.07 204.524 193.917 204.204 193.61C203.884 193.303 203.724 192.857 203.724 192.27V189.7H202.844V188.7H203.724V187.48H204.974V188.7H206.404V189.7H204.974V192.24C204.974 192.5 205.038 192.7 205.164 192.84C205.291 192.973 205.474 193.04 205.714 193.04C205.994 193.04 206.228 192.967 206.414 192.82L206.764 193.71Z" fill="#243D48"/>
<path d="M127 191C127 188.791 128.791 187 131 187H146C148.209 187 150 188.791 150 191V191C150 193.209 148.209 195 146 195H131C128.791 195 127 193.209 127 191V191Z" fill="#BDC3C6"/>
<g filter="url(#filter4_d_168_2501)">
<path d="M150 191C150 194.314 147.314 197 144 197C140.686 197 138 194.314 138 191C138 187.686 140.686 185 144 185C147.314 185 150 187.686 150 191Z" fill="#243D48"/>
</g>
<path d="M165.48 276.38H161.98L161.29 278H159.95L163.1 271H164.38L167.54 278H166.18L165.48 276.38ZM165.05 275.36L163.73 272.3L162.42 275.36H165.05Z" fill="#243D48"/>
<path d="M173.491 270.58V278H172.291V277.31C172.085 277.563 171.828 277.753 171.521 277.88C171.221 278.007 170.888 278.07 170.521 278.07C170.008 278.07 169.545 277.957 169.131 277.73C168.725 277.503 168.405 277.183 168.171 276.77C167.938 276.35 167.821 275.87 167.821 275.33C167.821 274.79 167.938 274.313 168.171 273.9C168.405 273.487 168.725 273.167 169.131 272.94C169.545 272.713 170.008 272.6 170.521 272.6C170.875 272.6 171.198 272.66 171.491 272.78C171.785 272.9 172.035 273.08 172.241 273.32V270.58H173.491ZM170.671 277C170.971 277 171.241 276.933 171.481 276.8C171.721 276.66 171.911 276.463 172.051 276.21C172.191 275.957 172.261 275.663 172.261 275.33C172.261 274.997 172.191 274.703 172.051 274.45C171.911 274.197 171.721 274.003 171.481 273.87C171.241 273.73 170.971 273.66 170.671 273.66C170.371 273.66 170.101 273.73 169.861 273.87C169.621 274.003 169.431 274.197 169.291 274.45C169.151 274.703 169.081 274.997 169.081 275.33C169.081 275.663 169.151 275.957 169.291 276.21C169.431 276.463 169.621 276.66 169.861 276.8C170.101 276.933 170.371 277 170.671 277Z" fill="#243D48"/>
<path d="M180.357 270.58V278H179.157V277.31C178.95 277.563 178.693 277.753 178.387 277.88C178.087 278.007 177.753 278.07 177.387 278.07C176.873 278.07 176.41 277.957 175.997 277.73C175.59 277.503 175.27 277.183 175.037 276.77C174.803 276.35 174.687 275.87 174.687 275.33C174.687 274.79 174.803 274.313 175.037 273.9C175.27 273.487 175.59 273.167 175.997 272.94C176.41 272.713 176.873 272.6 177.387 272.6C177.74 272.6 178.063 272.66 178.357 272.78C178.65 272.9 178.9 273.08 179.107 273.32V270.58H180.357ZM177.537 277C177.837 277 178.107 276.933 178.347 276.8C178.587 276.66 178.777 276.463 178.917 276.21C179.057 275.957 179.127 275.663 179.127 275.33C179.127 274.997 179.057 274.703 178.917 274.45C178.777 274.197 178.587 274.003 178.347 273.87C178.107 273.73 177.837 273.66 177.537 273.66C177.237 273.66 176.967 273.73 176.727 273.87C176.487 274.003 176.297 274.197 176.157 274.45C176.017 274.703 175.947 274.997 175.947 275.33C175.947 275.663 176.017 275.957 176.157 276.21C176.297 276.463 176.487 276.66 176.727 276.8C176.967 276.933 177.237 277 177.537 277Z" fill="#243D48"/>
<path d="M187.965 277.71C187.819 277.83 187.639 277.92 187.425 277.98C187.219 278.04 186.999 278.07 186.765 278.07C186.179 278.07 185.725 277.917 185.405 277.61C185.085 277.303 184.925 276.857 184.925 276.27V273.7H184.045V272.7H184.925V271.48H186.175V272.7H187.605V273.7H186.175V276.24C186.175 276.5 186.239 276.7 186.365 276.84C186.492 276.973 186.675 277.04 186.915 277.04C187.195 277.04 187.429 276.967 187.615 276.82L187.965 277.71Z" fill="#243D48"/>
<path d="M191.218 278.07C190.678 278.07 190.191 277.953 189.758 277.72C189.325 277.487 188.985 277.163 188.738 276.75C188.498 276.33 188.378 275.857 188.378 275.33C188.378 274.803 188.498 274.333 188.738 273.92C188.985 273.507 189.325 273.183 189.758 272.95C190.191 272.717 190.678 272.6 191.218 272.6C191.765 272.6 192.255 272.717 192.688 272.95C193.121 273.183 193.458 273.507 193.698 273.92C193.945 274.333 194.068 274.803 194.068 275.33C194.068 275.857 193.945 276.33 193.698 276.75C193.458 277.163 193.121 277.487 192.688 277.72C192.255 277.953 191.765 278.07 191.218 278.07ZM191.218 277C191.678 277 192.058 276.847 192.358 276.54C192.658 276.233 192.808 275.83 192.808 275.33C192.808 274.83 192.658 274.427 192.358 274.12C192.058 273.813 191.678 273.66 191.218 273.66C190.758 273.66 190.378 273.813 190.078 274.12C189.785 274.427 189.638 274.83 189.638 275.33C189.638 275.83 189.785 276.233 190.078 276.54C190.378 276.847 190.758 277 191.218 277Z" fill="#243D48"/>
<path d="M200.477 278.07C199.924 278.07 199.427 277.953 198.987 277.72C198.547 277.487 198.204 277.163 197.957 276.75C197.71 276.33 197.587 275.857 197.587 275.33C197.587 274.803 197.71 274.333 197.957 273.92C198.204 273.507 198.544 273.183 198.977 272.95C199.417 272.717 199.917 272.6 200.477 272.6C201.004 272.6 201.464 272.707 201.857 272.92C202.257 273.133 202.557 273.44 202.757 273.84L201.797 274.4C201.644 274.153 201.45 273.97 201.217 273.85C200.99 273.723 200.74 273.66 200.467 273.66C200 273.66 199.614 273.813 199.307 274.12C199 274.42 198.847 274.823 198.847 275.33C198.847 275.837 198.997 276.243 199.297 276.55C199.604 276.85 199.994 277 200.467 277C200.74 277 200.99 276.94 201.217 276.82C201.45 276.693 201.644 276.507 201.797 276.26L202.757 276.82C202.55 277.22 202.247 277.53 201.847 277.75C201.454 277.963 200.997 278.07 200.477 278.07Z" fill="#243D48"/>
<path d="M205.878 272.6C206.664 272.6 207.264 272.79 207.678 273.17C208.098 273.543 208.308 274.11 208.308 274.87V278H207.128V277.35C206.974 277.583 206.754 277.763 206.468 277.89C206.188 278.01 205.848 278.07 205.448 278.07C205.048 278.07 204.698 278.003 204.398 277.87C204.098 277.73 203.864 277.54 203.698 277.3C203.538 277.053 203.458 276.777 203.458 276.47C203.458 275.99 203.634 275.607 203.988 275.32C204.348 275.027 204.911 274.88 205.678 274.88H207.058V274.8C207.058 274.427 206.944 274.14 206.718 273.94C206.498 273.74 206.168 273.64 205.728 273.64C205.428 273.64 205.131 273.687 204.838 273.78C204.551 273.873 204.308 274.003 204.108 274.17L203.618 273.26C203.898 273.047 204.234 272.883 204.628 272.77C205.021 272.657 205.438 272.6 205.878 272.6ZM205.708 277.16C206.021 277.16 206.298 277.09 206.538 276.95C206.784 276.803 206.958 276.597 207.058 276.33V275.71H205.768C205.048 275.71 204.688 275.947 204.688 276.42C204.688 276.647 204.778 276.827 204.958 276.96C205.138 277.093 205.388 277.16 205.708 277.16Z" fill="#243D48"/>
<path d="M211.102 273.44C211.462 272.88 212.095 272.6 213.002 272.6V273.79C212.895 273.77 212.798 273.76 212.712 273.76C212.225 273.76 211.845 273.903 211.572 274.19C211.298 274.47 211.162 274.877 211.162 275.41V278H209.912V272.66H211.102V273.44Z" fill="#243D48"/>
<path d="M217.467 277.71C217.321 277.83 217.141 277.92 216.927 277.98C216.721 278.04 216.501 278.07 216.267 278.07C215.681 278.07 215.227 277.917 214.907 277.61C214.587 277.303 214.427 276.857 214.427 276.27V273.7H213.547V272.7H214.427V271.48H215.677V272.7H217.107V273.7H215.677V276.24C215.677 276.5 215.741 276.7 215.867 276.84C215.994 276.973 216.177 277.04 216.417 277.04C216.697 277.04 216.931 276.967 217.117 276.82L217.467 277.71Z" fill="#243D48"/>
<path d="M127 275C127 272.791 128.791 271 131 271H146C148.209 271 150 272.791 150 275V275C150 277.209 148.209 279 146 279H131C128.791 279 127 277.209 127 275V275Z" fill="#BDC3C6"/>
<g filter="url(#filter5_d_168_2501)">
<path d="M150 275C150 278.314 147.314 281 144 281C140.686 281 138 278.314 138 275C138 271.686 140.686 269 144 269C147.314 269 150 271.686 150 275Z" fill="#243D48"/>
</g>
<path d="M164.18 306.1C163.473 306.1 162.833 305.947 162.26 305.64C161.693 305.327 161.247 304.897 160.92 304.35C160.6 303.803 160.44 303.187 160.44 302.5C160.44 301.813 160.603 301.197 160.93 300.65C161.257 300.103 161.703 299.677 162.27 299.37C162.843 299.057 163.483 298.9 164.19 298.9C164.763 298.9 165.287 299 165.76 299.2C166.233 299.4 166.633 299.69 166.96 300.07L166.12 300.86C165.613 300.313 164.99 300.04 164.25 300.04C163.77 300.04 163.34 300.147 162.96 300.36C162.58 300.567 162.283 300.857 162.07 301.23C161.857 301.603 161.75 302.027 161.75 302.5C161.75 302.973 161.857 303.397 162.07 303.77C162.283 304.143 162.58 304.437 162.96 304.65C163.34 304.857 163.77 304.96 164.25 304.96C164.99 304.96 165.613 304.683 166.12 304.13L166.96 304.93C166.633 305.31 166.23 305.6 165.75 305.8C165.277 306 164.753 306.1 164.18 306.1Z" fill="#243D48"/>
<path d="M171.116 300.6C171.789 300.6 172.329 300.797 172.736 301.19C173.142 301.583 173.346 302.167 173.346 302.94V306H172.096V303.1C172.096 302.633 171.986 302.283 171.766 302.05C171.546 301.81 171.232 301.69 170.826 301.69C170.366 301.69 170.002 301.83 169.736 302.11C169.469 302.383 169.336 302.78 169.336 303.3V306H168.086V298.58H169.336V301.28C169.542 301.06 169.796 300.893 170.096 300.78C170.402 300.66 170.742 300.6 171.116 300.6Z" fill="#243D48"/>
<path d="M180 303.36C180 303.447 179.993 303.57 179.98 303.73H175.79C175.863 304.123 176.053 304.437 176.36 304.67C176.673 304.897 177.06 305.01 177.52 305.01C178.107 305.01 178.59 304.817 178.97 304.43L179.64 305.2C179.4 305.487 179.097 305.703 178.73 305.85C178.363 305.997 177.95 306.07 177.49 306.07C176.903 306.07 176.387 305.953 175.94 305.72C175.493 305.487 175.147 305.163 174.9 304.75C174.66 304.33 174.54 303.857 174.54 303.33C174.54 302.81 174.657 302.343 174.89 301.93C175.13 301.51 175.46 301.183 175.88 300.95C176.3 300.717 176.773 300.6 177.3 300.6C177.82 300.6 178.283 300.717 178.69 300.95C179.103 301.177 179.423 301.5 179.65 301.92C179.883 302.333 180 302.813 180 303.36ZM177.3 301.6C176.9 301.6 176.56 301.72 176.28 301.96C176.007 302.193 175.84 302.507 175.78 302.9H178.81C178.757 302.513 178.593 302.2 178.32 301.96C178.047 301.72 177.707 301.6 177.3 301.6Z" fill="#243D48"/>
<path d="M183.651 306.07C183.097 306.07 182.601 305.953 182.161 305.72C181.721 305.487 181.377 305.163 181.131 304.75C180.884 304.33 180.761 303.857 180.761 303.33C180.761 302.803 180.884 302.333 181.131 301.92C181.377 301.507 181.717 301.183 182.151 300.95C182.591 300.717 183.091 300.6 183.651 300.6C184.177 300.6 184.637 300.707 185.031 300.92C185.431 301.133 185.731 301.44 185.931 301.84L184.971 302.4C184.817 302.153 184.624 301.97 184.391 301.85C184.164 301.723 183.914 301.66 183.641 301.66C183.174 301.66 182.787 301.813 182.481 302.12C182.174 302.42 182.021 302.823 182.021 303.33C182.021 303.837 182.171 304.243 182.471 304.55C182.777 304.85 183.167 305 183.641 305C183.914 305 184.164 304.94 184.391 304.82C184.624 304.693 184.817 304.507 184.971 304.26L185.931 304.82C185.724 305.22 185.421 305.53 185.021 305.75C184.627 305.963 184.171 306.07 183.651 306.07Z" fill="#243D48"/>
<path d="M189.143 303.71L188.213 304.59V306H186.963V298.58H188.213V303.06L190.803 300.66H192.303L190.073 302.9L192.513 306H190.993L189.143 303.71Z" fill="#243D48"/>
<path d="M195.495 306.07C194.955 306.07 194.469 305.953 194.035 305.72C193.602 305.487 193.262 305.163 193.015 304.75C192.775 304.33 192.655 303.857 192.655 303.33C192.655 302.803 192.775 302.333 193.015 301.92C193.262 301.507 193.602 301.183 194.035 300.95C194.469 300.717 194.955 300.6 195.495 300.6C196.042 300.6 196.532 300.717 196.965 300.95C197.399 301.183 197.735 301.507 197.975 301.92C198.222 302.333 198.345 302.803 198.345 303.33C198.345 303.857 198.222 304.33 197.975 304.75C197.735 305.163 197.399 305.487 196.965 305.72C196.532 305.953 196.042 306.07 195.495 306.07ZM195.495 305C195.955 305 196.335 304.847 196.635 304.54C196.935 304.233 197.085 303.83 197.085 303.33C197.085 302.83 196.935 302.427 196.635 302.12C196.335 301.813 195.955 301.66 195.495 301.66C195.035 301.66 194.655 301.813 194.355 302.12C194.062 302.427 193.915 302.83 193.915 303.33C193.915 303.83 194.062 304.233 194.355 304.54C194.655 304.847 195.035 305 195.495 305Z" fill="#243D48"/>
<path d="M204.711 300.66V306H203.521V305.32C203.321 305.56 203.071 305.747 202.771 305.88C202.471 306.007 202.147 306.07 201.801 306.07C201.087 306.07 200.524 305.873 200.111 305.48C199.704 305.08 199.501 304.49 199.501 303.71V300.66H200.751V303.54C200.751 304.02 200.857 304.38 201.071 304.62C201.291 304.853 201.601 304.97 202.001 304.97C202.447 304.97 202.801 304.833 203.061 304.56C203.327 304.28 203.461 303.88 203.461 303.36V300.66H204.711Z" fill="#243D48"/>
<path d="M209.557 305.71C209.411 305.83 209.231 305.92 209.017 305.98C208.811 306.04 208.591 306.07 208.357 306.07C207.771 306.07 207.317 305.917 206.997 305.61C206.677 305.303 206.517 304.857 206.517 304.27V301.7H205.637V300.7H206.517V299.48H207.767V300.7H209.197V301.7H207.767V304.24C207.767 304.5 207.831 304.7 207.957 304.84C208.084 304.973 208.267 305.04 208.507 305.04C208.787 305.04 209.021 304.967 209.207 304.82L209.557 305.71Z" fill="#243D48"/>
<path d="M127 303C127 300.791 128.791 299 131 299H146C148.209 299 150 300.791 150 303V303C150 305.209 148.209 307 146 307H131C128.791 307 127 305.209 127 303V303Z" fill="#BDC3C6"/>
<g filter="url(#filter6_d_168_2501)">
<path d="M150 303C150 306.314 147.314 309 144 309C140.686 309 138 306.314 138 303C138 299.686 140.686 297 144 297C147.314 297 150 299.686 150 303Z" fill="#243D48"/>
</g>
<path d="M162.24 244.09V246.22H165.62V247.32H162.24V250H160.94V243H166.05V244.09H162.24Z" fill="#243D48"/>
<path d="M167.089 244.66H168.339V250H167.089V244.66ZM167.719 243.78C167.493 243.78 167.303 243.71 167.149 243.57C166.996 243.423 166.919 243.243 166.919 243.03C166.919 242.816 166.996 242.64 167.149 242.5C167.303 242.353 167.493 242.28 167.719 242.28C167.946 242.28 168.136 242.35 168.289 242.49C168.443 242.623 168.519 242.793 168.519 243C168.519 243.22 168.443 243.406 168.289 243.56C168.143 243.706 167.953 243.78 167.719 243.78Z" fill="#243D48"/>
<path d="M173.01 244.6C173.683 244.6 174.223 244.796 174.63 245.19C175.037 245.583 175.24 246.166 175.24 246.94V250H173.99V247.1C173.99 246.633 173.88 246.283 173.66 246.05C173.44 245.81 173.127 245.69 172.72 245.69C172.26 245.69 171.897 245.83 171.63 246.11C171.363 246.383 171.23 246.78 171.23 247.3V250H169.98V244.66H171.17V245.35C171.377 245.103 171.637 244.916 171.95 244.79C172.263 244.663 172.617 244.6 173.01 244.6Z" fill="#243D48"/>
<path d="M182.105 242.58V250H180.905V249.31C180.698 249.563 180.441 249.753 180.135 249.88C179.835 250.006 179.501 250.07 179.135 250.07C178.621 250.07 178.158 249.956 177.745 249.73C177.338 249.503 177.018 249.183 176.785 248.77C176.551 248.35 176.435 247.87 176.435 247.33C176.435 246.79 176.551 246.313 176.785 245.9C177.018 245.486 177.338 245.166 177.745 244.94C178.158 244.713 178.621 244.6 179.135 244.6C179.488 244.6 179.811 244.66 180.105 244.78C180.398 244.9 180.648 245.08 180.855 245.32V242.58H182.105ZM179.285 249C179.585 249 179.855 248.933 180.095 248.8C180.335 248.66 180.525 248.463 180.665 248.21C180.805 247.956 180.875 247.663 180.875 247.33C180.875 246.996 180.805 246.703 180.665 246.45C180.525 246.196 180.335 246.003 180.095 245.87C179.855 245.73 179.585 245.66 179.285 245.66C178.985 245.66 178.715 245.73 178.475 245.87C178.235 246.003 178.045 246.196 177.905 246.45C177.765 246.703 177.695 246.996 177.695 247.33C177.695 247.663 177.765 247.956 177.905 248.21C178.045 248.463 178.235 248.66 178.475 248.8C178.715 248.933 178.985 249 179.285 249Z" fill="#243D48"/>
<path d="M185.78 244.6C186.567 244.6 187.167 244.79 187.58 245.17C188 245.543 188.21 246.11 188.21 246.87V250H187.03V249.35C186.877 249.583 186.657 249.763 186.37 249.89C186.09 250.01 185.75 250.07 185.35 250.07C184.95 250.07 184.6 250.003 184.3 249.87C184 249.73 183.767 249.54 183.6 249.3C183.44 249.053 183.36 248.776 183.36 248.47C183.36 247.99 183.537 247.606 183.89 247.32C184.25 247.026 184.813 246.88 185.58 246.88H186.96V246.8C186.96 246.426 186.847 246.14 186.62 245.94C186.4 245.74 186.07 245.64 185.63 245.64C185.33 245.64 185.033 245.686 184.74 245.78C184.453 245.873 184.21 246.003 184.01 246.17L183.52 245.26C183.8 245.046 184.137 244.883 184.53 244.77C184.923 244.656 185.34 244.6 185.78 244.6ZM185.61 249.16C185.923 249.16 186.2 249.09 186.44 248.95C186.687 248.803 186.86 248.596 186.96 248.33V247.71H185.67C184.95 247.71 184.59 247.946 184.59 248.42C184.59 248.646 184.68 248.826 184.86 248.96C185.04 249.093 185.29 249.16 185.61 249.16Z" fill="#243D48"/>
<path d="M192.774 244.6C193.294 244.6 193.757 244.713 194.164 244.94C194.577 245.166 194.901 245.486 195.134 245.9C195.367 246.313 195.484 246.79 195.484 247.33C195.484 247.87 195.367 248.35 195.134 248.77C194.901 249.183 194.577 249.503 194.164 249.73C193.757 249.956 193.294 250.07 192.774 250.07C192.407 250.07 192.071 250.006 191.764 249.88C191.464 249.753 191.211 249.563 191.004 249.31V250H189.814V242.58H191.064V245.31C191.277 245.076 191.527 244.9 191.814 244.78C192.107 244.66 192.427 244.6 192.774 244.6ZM192.634 249C193.094 249 193.471 248.846 193.764 248.54C194.064 248.233 194.214 247.83 194.214 247.33C194.214 246.83 194.064 246.426 193.764 246.12C193.471 245.813 193.094 245.66 192.634 245.66C192.334 245.66 192.064 245.73 191.824 245.87C191.584 246.003 191.394 246.196 191.254 246.45C191.114 246.703 191.044 246.996 191.044 247.33C191.044 247.663 191.114 247.956 191.254 248.21C191.394 248.463 191.584 248.66 191.824 248.8C192.064 248.933 192.334 249 192.634 249Z" fill="#243D48"/>
<path d="M196.67 244.66H197.92V250H196.67V244.66ZM197.3 243.78C197.073 243.78 196.883 243.71 196.73 243.57C196.576 243.423 196.5 243.243 196.5 243.03C196.5 242.816 196.576 242.64 196.73 242.5C196.883 242.353 197.073 242.28 197.3 242.28C197.526 242.28 197.716 242.35 197.87 242.49C198.023 242.623 198.1 242.793 198.1 243C198.1 243.22 198.023 243.406 197.87 243.56C197.723 243.706 197.533 243.78 197.3 243.78Z" fill="#243D48"/>
<path d="M199.56 242.58H200.81V250H199.56V242.58Z" fill="#243D48"/>
<path d="M202.451 244.66H203.701V250H202.451V244.66ZM203.081 243.78C202.854 243.78 202.664 243.71 202.511 243.57C202.357 243.423 202.281 243.243 202.281 243.03C202.281 242.816 202.357 242.64 202.511 242.5C202.664 242.353 202.854 242.28 203.081 242.28C203.307 242.28 203.497 242.35 203.651 242.49C203.804 242.623 203.881 242.793 203.881 243C203.881 243.22 203.804 243.406 203.651 243.56C203.504 243.706 203.314 243.78 203.081 243.78Z" fill="#243D48"/>
<path d="M208.551 249.71C208.405 249.83 208.225 249.92 208.011 249.98C207.805 250.04 207.585 250.07 207.351 250.07C206.765 250.07 206.311 249.916 205.991 249.61C205.671 249.303 205.511 248.856 205.511 248.27V245.7H204.631V244.7H205.511V243.48H206.761V244.7H208.191V245.7H206.761V248.24C206.761 248.5 206.825 248.7 206.951 248.84C207.078 248.973 207.261 249.04 207.501 249.04C207.781 249.04 208.015 248.966 208.201 248.82L208.551 249.71Z" fill="#243D48"/>
<path d="M214.482 244.66L211.982 250.43C211.749 251.01 211.465 251.416 211.132 251.65C210.799 251.89 210.395 252.01 209.922 252.01C209.655 252.01 209.392 251.966 209.132 251.88C208.872 251.793 208.659 251.673 208.492 251.52L208.992 250.6C209.112 250.713 209.252 250.803 209.412 250.87C209.579 250.936 209.745 250.97 209.912 250.97C210.132 250.97 210.312 250.913 210.452 250.8C210.599 250.686 210.732 250.496 210.852 250.23L210.942 250.02L208.612 244.66H209.912L211.592 248.61L213.282 244.66H214.482Z" fill="#243D48"/>
<path d="M127 247C127 244.791 128.791 243 131 243H146C148.209 243 150 244.791 150 247V247C150 249.209 148.209 251 146 251H131C128.791 251 127 249.209 127 247V247Z" fill="#BDC3C6"/>
<g filter="url(#filter7_d_168_2501)">
<path d="M150 247C150 250.314 147.314 253 144 253C140.686 253 138 250.314 138 247C138 243.686 140.686 241 144 241C147.314 241 150 243.686 150 247Z" fill="#243D48"/>
</g>
<path d="M163.11 334.1C162.57 334.1 162.047 334.023 161.54 333.87C161.04 333.716 160.643 333.513 160.35 333.26L160.8 332.25C161.087 332.476 161.437 332.663 161.85 332.81C162.27 332.95 162.69 333.02 163.11 333.02C163.63 333.02 164.017 332.936 164.27 332.77C164.53 332.603 164.66 332.383 164.66 332.11C164.66 331.91 164.587 331.746 164.44 331.62C164.3 331.486 164.12 331.383 163.9 331.31C163.68 331.236 163.38 331.153 163 331.06C162.467 330.933 162.033 330.806 161.7 330.68C161.373 330.553 161.09 330.356 160.85 330.09C160.617 329.816 160.5 329.45 160.5 328.99C160.5 328.603 160.603 328.253 160.81 327.94C161.023 327.62 161.34 327.366 161.76 327.18C162.187 326.993 162.707 326.9 163.32 326.9C163.747 326.9 164.167 326.953 164.58 327.06C164.993 327.166 165.35 327.32 165.65 327.52L165.24 328.53C164.933 328.35 164.613 328.213 164.28 328.12C163.947 328.026 163.623 327.98 163.31 327.98C162.797 327.98 162.413 328.066 162.16 328.24C161.913 328.413 161.79 328.643 161.79 328.93C161.79 329.13 161.86 329.293 162 329.42C162.147 329.546 162.33 329.646 162.55 329.72C162.77 329.793 163.07 329.876 163.45 329.97C163.97 330.09 164.397 330.216 164.73 330.35C165.063 330.476 165.347 330.673 165.58 330.94C165.82 331.206 165.94 331.566 165.94 332.02C165.94 332.406 165.833 332.756 165.62 333.07C165.413 333.383 165.097 333.633 164.67 333.82C164.243 334.006 163.723 334.1 163.11 334.1Z" fill="#243D48"/>
<path d="M172.129 331.36C172.129 331.446 172.122 331.57 172.109 331.73H167.919C167.992 332.123 168.182 332.436 168.489 332.67C168.802 332.896 169.189 333.01 169.649 333.01C170.236 333.01 170.719 332.816 171.099 332.43L171.769 333.2C171.529 333.486 171.226 333.703 170.859 333.85C170.492 333.996 170.079 334.07 169.619 334.07C169.032 334.07 168.516 333.953 168.069 333.72C167.622 333.486 167.276 333.163 167.029 332.75C166.789 332.33 166.669 331.856 166.669 331.33C166.669 330.81 166.786 330.343 167.019 329.93C167.259 329.51 167.589 329.183 168.009 328.95C168.429 328.716 168.902 328.6 169.429 328.6C169.949 328.6 170.412 328.716 170.819 328.95C171.232 329.176 171.552 329.5 171.779 329.92C172.012 330.333 172.129 330.813 172.129 331.36ZM169.429 329.6C169.029 329.6 168.689 329.72 168.409 329.96C168.136 330.193 167.969 330.506 167.909 330.9H170.939C170.886 330.513 170.722 330.2 170.449 329.96C170.176 329.72 169.836 329.6 169.429 329.6Z" fill="#243D48"/>
<path d="M174.98 334.07C174.547 334.07 174.123 334.013 173.71 333.9C173.297 333.786 172.967 333.643 172.72 333.47L173.2 332.52C173.44 332.68 173.727 332.81 174.06 332.91C174.4 333.003 174.733 333.05 175.06 333.05C175.807 333.05 176.18 332.853 176.18 332.46C176.18 332.273 176.083 332.143 175.89 332.07C175.703 331.996 175.4 331.926 174.98 331.86C174.54 331.793 174.18 331.716 173.9 331.63C173.627 331.543 173.387 331.393 173.18 331.18C172.98 330.96 172.88 330.656 172.88 330.27C172.88 329.763 173.09 329.36 173.51 329.06C173.937 328.753 174.51 328.6 175.23 328.6C175.597 328.6 175.963 328.643 176.33 328.73C176.697 328.81 176.997 328.92 177.23 329.06L176.75 330.01C176.297 329.743 175.787 329.61 175.22 329.61C174.853 329.61 174.573 329.666 174.38 329.78C174.193 329.886 174.1 330.03 174.1 330.21C174.1 330.41 174.2 330.553 174.4 330.64C174.607 330.72 174.923 330.796 175.35 330.87C175.777 330.936 176.127 331.013 176.4 331.1C176.673 331.186 176.907 331.333 177.1 331.54C177.3 331.746 177.4 332.04 177.4 332.42C177.4 332.92 177.183 333.32 176.75 333.62C176.317 333.92 175.727 334.07 174.98 334.07Z" fill="#243D48"/>
<path d="M180.126 334.07C179.693 334.07 179.27 334.013 178.856 333.9C178.443 333.786 178.113 333.643 177.866 333.47L178.346 332.52C178.586 332.68 178.873 332.81 179.206 332.91C179.546 333.003 179.88 333.05 180.206 333.05C180.953 333.05 181.326 332.853 181.326 332.46C181.326 332.273 181.23 332.143 181.036 332.07C180.85 331.996 180.546 331.926 180.126 331.86C179.686 331.793 179.326 331.716 179.046 331.63C178.773 331.543 178.533 331.393 178.326 331.18C178.126 330.96 178.026 330.656 178.026 330.27C178.026 329.763 178.236 329.36 178.656 329.06C179.083 328.753 179.656 328.6 180.376 328.6C180.743 328.6 181.11 328.643 181.476 328.73C181.843 328.81 182.143 328.92 182.376 329.06L181.896 330.01C181.443 329.743 180.933 329.61 180.366 329.61C180 329.61 179.72 329.666 179.526 329.78C179.34 329.886 179.246 330.03 179.246 330.21C179.246 330.41 179.346 330.553 179.546 330.64C179.753 330.72 180.07 330.796 180.496 330.87C180.923 330.936 181.273 331.013 181.546 331.1C181.82 331.186 182.053 331.333 182.246 331.54C182.446 331.746 182.546 332.04 182.546 332.42C182.546 332.92 182.33 333.32 181.896 333.62C181.463 333.92 180.873 334.07 180.126 334.07Z" fill="#243D48"/>
<path d="M183.623 328.66H184.873V334H183.623V328.66ZM184.253 327.78C184.026 327.78 183.836 327.71 183.683 327.57C183.529 327.423 183.453 327.243 183.453 327.03C183.453 326.816 183.529 326.64 183.683 326.5C183.836 326.353 184.026 326.28 184.253 326.28C184.479 326.28 184.669 326.35 184.823 326.49C184.976 326.623 185.053 326.793 185.053 327C185.053 327.22 184.976 327.406 184.823 327.56C184.676 327.706 184.486 327.78 184.253 327.78Z" fill="#243D48"/>
<path d="M188.913 334.07C188.373 334.07 187.887 333.953 187.453 333.72C187.02 333.486 186.68 333.163 186.433 332.75C186.193 332.33 186.073 331.856 186.073 331.33C186.073 330.803 186.193 330.333 186.433 329.92C186.68 329.506 187.02 329.183 187.453 328.95C187.887 328.716 188.373 328.6 188.913 328.6C189.46 328.6 189.95 328.716 190.383 328.95C190.817 329.183 191.153 329.506 191.393 329.92C191.64 330.333 191.763 330.803 191.763 331.33C191.763 331.856 191.64 332.33 191.393 332.75C191.153 333.163 190.817 333.486 190.383 333.72C189.95 333.953 189.46 334.07 188.913 334.07ZM188.913 333C189.373 333 189.753 332.846 190.053 332.54C190.353 332.233 190.503 331.83 190.503 331.33C190.503 330.83 190.353 330.426 190.053 330.12C189.753 329.813 189.373 329.66 188.913 329.66C188.453 329.66 188.073 329.813 187.773 330.12C187.48 330.426 187.333 330.83 187.333 331.33C187.333 331.83 187.48 332.233 187.773 332.54C188.073 332.846 188.453 333 188.913 333Z" fill="#243D48"/>
<path d="M195.989 328.6C196.662 328.6 197.202 328.796 197.609 329.19C198.015 329.583 198.219 330.166 198.219 330.94V334H196.969V331.1C196.969 330.633 196.859 330.283 196.639 330.05C196.419 329.81 196.105 329.69 195.699 329.69C195.239 329.69 194.875 329.83 194.609 330.11C194.342 330.383 194.209 330.78 194.209 331.3V334H192.959V328.66H194.149V329.35C194.355 329.103 194.615 328.916 194.929 328.79C195.242 328.663 195.595 328.6 195.989 328.6Z" fill="#243D48"/>
<path d="M127 331C127 328.791 128.791 327 131 327H146C148.209 327 150 328.791 150 331V331C150 333.209 148.209 335 146 335H131C128.791 335 127 333.209 127 331V331Z" fill="#BDC3C6"/>
<g filter="url(#filter8_d_168_2501)">
<path d="M150 331C150 334.314 147.314 337 144 337C140.686 337 138 334.314 138 331C138 327.686 140.686 325 144 325C147.314 325 150 327.686 150 331Z" fill="#243D48"/>
</g>
</g>
<defs>
<filter id="filter0_d_168_2501" x="4" y="4" width="757" height="459" filterUnits="userSpaceOnUse" color-interpolation-filters="sRGB">
<feFlood flood-opacity="0" result="BackgroundImageFix"/>
<feColorMatrix in="SourceAlpha" type="matrix" values="0 0 0 0 0 0 0 0 0 0 0 0 0 0 0 0 0 0 127 0" result="hardAlpha"/>
<feOffset/>
<feGaussianBlur stdDeviation="5.5"/>
<feColorMatrix type="matrix" values="0 0 0 0 0 0 0 0 0 0 0 0 0 0 0 0 0 0 0.05 0"/>
<feBlend mode="normal" in2="BackgroundImageFix" result="effect1_dropShadow_168_2501"/>
<feBlend mode="normal" in="SourceGraphic" in2="effect1_dropShadow_168_2501" result="shape"/>
</filter>
<filter id="filter1_f_168_2501" x="10" y="51" width="746" height="410" filterUnits="userSpaceOnUse" color-interpolation-filters="sRGB">
<feFlood flood-opacity="0" result="BackgroundImageFix"/>
<feBlend mode="normal" in="SourceGraphic" in2="BackgroundImageFix" result="shape"/>
<feGaussianBlur stdDeviation="18" result="effect1_foregroundBlur_168_2501"/>
</filter>
<filter id="filter2_d_168_2501" x="136" y="155" width="16" height="16" filterUnits="userSpaceOnUse" color-interpolation-filters="sRGB">
<feFlood flood-opacity="0" result="BackgroundImageFix"/>
<feColorMatrix in="SourceAlpha" type="matrix" values="0 0 0 0 0 0 0 0 0 0 0 0 0 0 0 0 0 0 127 0" result="hardAlpha"/>
<feOffset/>
<feGaussianBlur stdDeviation="1"/>
<feComposite in2="hardAlpha" operator="out"/>
<feColorMatrix type="matrix" values="0 0 0 0 0 0 0 0 0 0 0 0 0 0 0 0 0 0 0.25 0"/>
<feBlend mode="normal" in2="BackgroundImageFix" result="effect1_dropShadow_168_2501"/>
<feBlend mode="normal" in="SourceGraphic" in2="effect1_dropShadow_168_2501" result="shape"/>
</filter>
<filter id="filter3_d_168_2501" x="136" y="211" width="16" height="16" filterUnits="userSpaceOnUse" color-interpolation-filters="sRGB">
<feFlood flood-opacity="0" result="BackgroundImageFix"/>
<feColorMatrix in="SourceAlpha" type="matrix" values="0 0 0 0 0 0 0 0 0 0 0 0 0 0 0 0 0 0 127 0" result="hardAlpha"/>
<feOffset/>
<feGaussianBlur stdDeviation="1"/>
<feComposite in2="hardAlpha" operator="out"/>
<feColorMatrix type="matrix" values="0 0 0 0 0 0 0 0 0 0 0 0 0 0 0 0 0 0 0.25 0"/>
<feBlend mode="normal" in2="BackgroundImageFix" result="effect1_dropShadow_168_2501"/>
<feBlend mode="normal" in="SourceGraphic" in2="effect1_dropShadow_168_2501" result="shape"/>
</filter>
<filter id="filter4_d_168_2501" x="136" y="183" width="16" height="16" filterUnits="userSpaceOnUse" color-interpolation-filters="sRGB">
<feFlood flood-opacity="0" result="BackgroundImageFix"/>
<feColorMatrix in="SourceAlpha" type="matrix" values="0 0 0 0 0 0 0 0 0 0 0 0 0 0 0 0 0 0 127 0" result="hardAlpha"/>
<feOffset/>
<feGaussianBlur stdDeviation="1"/>
<feComposite in2="hardAlpha" operator="out"/>
<feColorMatrix type="matrix" values="0 0 0 0 0 0 0 0 0 0 0 0 0 0 0 0 0 0 0.25 0"/>
<feBlend mode="normal" in2="BackgroundImageFix" result="effect1_dropShadow_168_2501"/>
<feBlend mode="normal" in="SourceGraphic" in2="effect1_dropShadow_168_2501" result="shape"/>
</filter>
<filter id="filter5_d_168_2501" x="136" y="267" width="16" height="16" filterUnits="userSpaceOnUse" color-interpolation-filters="sRGB">
<feFlood flood-opacity="0" result="BackgroundImageFix"/>
<feColorMatrix in="SourceAlpha" type="matrix" values="0 0 0 0 0 0 0 0 0 0 0 0 0 0 0 0 0 0 127 0" result="hardAlpha"/>
<feOffset/>
<feGaussianBlur stdDeviation="1"/>
<feComposite in2="hardAlpha" operator="out"/>
<feColorMatrix type="matrix" values="0 0 0 0 0 0 0 0 0 0 0 0 0 0 0 0 0 0 0.25 0"/>
<feBlend mode="normal" in2="BackgroundImageFix" result="effect1_dropShadow_168_2501"/>
<feBlend mode="normal" in="SourceGraphic" in2="effect1_dropShadow_168_2501" result="shape"/>
</filter>
<filter id="filter6_d_168_2501" x="136" y="295" width="16" height="16" filterUnits="userSpaceOnUse" color-interpolation-filters="sRGB">
<feFlood flood-opacity="0" result="BackgroundImageFix"/>
<feColorMatrix in="SourceAlpha" type="matrix" values="0 0 0 0 0 0 0 0 0 0 0 0 0 0 0 0 0 0 127 0" result="hardAlpha"/>
<feOffset/>
<feGaussianBlur stdDeviation="1"/>
<feComposite in2="hardAlpha" operator="out"/>
<feColorMatrix type="matrix" values="0 0 0 0 0 0 0 0 0 0 0 0 0 0 0 0 0 0 0.25 0"/>
<feBlend mode="normal" in2="BackgroundImageFix" result="effect1_dropShadow_168_2501"/>
<feBlend mode="normal" in="SourceGraphic" in2="effect1_dropShadow_168_2501" result="shape"/>
</filter>
<filter id="filter7_d_168_2501" x="136" y="239" width="16" height="16" filterUnits="userSpaceOnUse" color-interpolation-filters="sRGB">
<feFlood flood-opacity="0" result="BackgroundImageFix"/>
<feColorMatrix in="SourceAlpha" type="matrix" values="0 0 0 0 0 0 0 0 0 0 0 0 0 0 0 0 0 0 127 0" result="hardAlpha"/>
<feOffset/>
<feGaussianBlur stdDeviation="1"/>
<feComposite in2="hardAlpha" operator="out"/>
<feColorMatrix type="matrix" values="0 0 0 0 0 0 0 0 0 0 0 0 0 0 0 0 0 0 0.25 0"/>
<feBlend mode="normal" in2="BackgroundImageFix" result="effect1_dropShadow_168_2501"/>
<feBlend mode="normal" in="SourceGraphic" in2="effect1_dropShadow_168_2501" result="shape"/>
</filter>
<filter id="filter8_d_168_2501" x="136" y="323" width="16" height="16" filterUnits="userSpaceOnUse" color-interpolation-filters="sRGB">
<feFlood flood-opacity="0" result="BackgroundImageFix"/>
<feColorMatrix in="SourceAlpha" type="matrix" values="0 0 0 0 0 0 0 0 0 0 0 0 0 0 0 0 0 0 127 0" result="hardAlpha"/>
<feOffset/>
<feGaussianBlur stdDeviation="1"/>
<feComposite in2="hardAlpha" operator="out"/>
<feColorMatrix type="matrix" values="0 0 0 0 0 0 0 0 0 0 0 0 0 0 0 0 0 0 0.25 0"/>
<feBlend mode="normal" in2="BackgroundImageFix" result="effect1_dropShadow_168_2501"/>
<feBlend mode="normal" in="SourceGraphic" in2="effect1_dropShadow_168_2501" result="shape"/>
</filter>
<clipPath id="clip0_168_2501">
<rect width="766" height="466" fill="white"/>
</clipPath>
</defs>
</svg>
