<svg width="27" height="27" xmlns="http://www.w3.org/2000/svg">
    <g fill="none" fill-rule="evenodd">
        <circle stroke="#1E3D49" cx="9.778" cy="18.774" r="2.159"/>
        <circle stroke="#1E3D49" cx="21.684" cy="13.566" r="2.159"/>
        <circle stroke="#1E3D49" fill="#1E3D49" cx="21.808" cy="8.993" r="1"/>
        <circle stroke="#1E3D49" fill="#1E3D49" cx="12.191" cy="11.246" r="1"/>
        <circle stroke="#1E3D49" fill="#1E3D49" cx="2.801" cy="8.21" r="1"/>
        <circle stroke="#1E3D49" fill="#1E3D49" cx="15.376" cy="12.943" r="1"/>
        <circle stroke="#1E3D49" fill="#1E3D49" cx="12.437" cy="14.349" r="1"/>
        <circle stroke="#1E3D49" fill="#1E3D49" cx="16.556" cy="15.914" r="1"/>
        <circle stroke="#1E3D49" fill="#1E3D49" cx="12.715" cy="23.2" r="1"/>
        <circle stroke="#1E3D49" fill="#1E3D49" cx="5.134" cy="17.226" r="1"/>
        <circle stroke="#1E3D49" cx="17.626" cy="7.116" r="2.159"/>
        <circle stroke="#1E3D49" cx="7.119" cy="2.659" r="2.159"/>
        <circle stroke="#1E3D49" cx="17.626" cy="20.349" r="2.159"/>
        <path d="M16.37.837c2.874.432 5.396 2 7.224 4.174a13.086 13.086 0 013.074 8.45 13.13 13.13 0 01-3.858 9.314 13.13 13.13 0 01-9.313 3.857c-3.254 0-6.233-1.18-8.531-3.136a13.165 13.165 0 01-4.33-7.18l-.031-.15.178-.004a5.466 5.466 0 003.244-1.277l.2-.177a5.476 5.476 0 001.685-3.127A5.476 5.476 0 009.8 9.973a5.473 5.473 0 001.604-4.09l-.008-.145.26-.03a5.464 5.464 0 002.955-1.38l.18-.171a5.476 5.476 0 001.58-3.32z" stroke="#243C47"/>
    </g>
</svg>