<svg width="32" height="32" viewBox="0 0 32 32" fill="none" xmlns="http://www.w3.org/2000/svg">
<path d="M28.4841 10.7901C27.8694 10.7901 27.2992 10.9852 26.8294 11.3166C26.5155 10.0374 25.372 9.08644 24.0129 9.08644C23.3306 9.08644 22.7029 9.32667 22.2068 9.72716C21.7611 8.68323 20.7343 7.95069 19.5414 7.95069C18.9636 7.95069 18.4252 8.12321 17.9724 8.41903V2.93829C17.9724 1.31808 16.6705 0 15.0702 0C13.4697 0 12.1678 1.31808 12.1678 2.93829V17.8649L10.493 16.2892C9.73485 15.5274 8.7306 15.1083 7.66283 15.1083C7.65945 15.1083 7.65599 15.1083 7.65268 15.1083C6.57679 15.1109 5.56684 15.5387 4.80898 16.3126C4.12106 17.0151 4.12397 18.1551 4.81535 18.8542L14.7079 28.8527C16.5234 30.853 19.0983 31.9999 21.7772 31.9999C27.0758 31.9999 31.3865 27.6247 31.3865 22.2468V17.1357V16.5678V13.7283C31.3865 12.1082 30.0845 10.7901 28.4841 10.7901ZM30.0531 16.5678V17.1358V22.2469C30.0531 26.8896 26.3405 30.6667 21.7771 30.6667C19.4659 30.6667 17.2432 29.6726 15.6791 27.9393C15.6745 27.9343 15.6695 27.93 15.6648 27.9251C15.6623 27.9225 15.6603 27.9197 15.6578 27.9172L5.7632 17.9165C5.58072 17.732 5.57998 17.4309 5.76157 17.2455C6.26743 16.7288 6.94025 16.4435 7.65599 16.4416C7.65823 16.4416 7.6604 16.4416 7.6627 16.4416C8.37581 16.4416 9.0472 16.7235 9.55394 17.2358C9.55956 17.2415 9.56524 17.247 9.57107 17.2525L12.3777 19.8929C12.5714 20.0752 12.8551 20.1248 13.099 20.0194C13.3431 19.9138 13.5011 19.6733 13.5011 19.4073V2.93829C13.5011 2.05333 14.205 1.33332 15.0702 1.33332C15.9353 1.33332 16.6391 2.05333 16.6391 2.93829V12.5926C16.6391 12.5929 16.6392 12.5932 16.6392 12.5935V13.1605C16.6392 13.5287 16.9377 13.8271 17.3058 13.8271C17.674 13.8271 17.9725 13.5286 17.9725 13.1605L17.9724 10.8888C17.9724 10.0039 18.6763 9.28394 19.5414 9.28394C20.4066 9.28394 21.1105 10.0039 21.1105 10.8888V12.0247V14.2963C21.1105 14.6645 21.409 14.9629 21.7771 14.9629C22.1452 14.9629 22.4438 14.6644 22.4438 14.2963V12.0247C22.4438 11.1397 23.1476 10.4197 24.0128 10.4197C24.8779 10.4197 25.5817 11.1397 25.5817 12.0247V15.432C25.5817 15.8002 25.8803 16.0987 26.2484 16.0987C26.6165 16.0987 26.9151 15.8002 26.9151 15.432V13.7283C26.9151 12.8434 27.6189 12.1234 28.4841 12.1234C29.3492 12.1234 30.0531 12.8434 30.0531 13.7283V16.5678H30.0531Z" fill="#BDC3C6"/>
<path d="M6.24001 13.5466C6.24001 13.1784 5.94148 12.8799 5.57335 12.8799H2.88944L9.81326 5.95616V8.64C9.81326 9.0082 10.1118 9.30666 10.4799 9.30666C10.8481 9.30666 11.1466 9.00813 11.1466 8.64V4.34659C11.1466 3.97839 10.8481 3.67993 10.4799 3.67993H6.18665C5.81845 3.67993 5.51999 3.97846 5.51999 4.34659C5.51999 4.71472 5.81852 5.01325 6.18665 5.01325H8.87049L1.9466 11.9371V9.25324C1.9466 8.88504 1.64807 8.58658 1.27994 8.58658C0.911809 8.58658 0.613281 8.8851 0.613281 9.25324V13.5462C0.613281 13.5684 0.614432 13.5905 0.616599 13.6125C0.617479 13.6217 0.61924 13.6305 0.620526 13.6395C0.622287 13.652 0.623776 13.6646 0.626281 13.677C0.62838 13.6876 0.631292 13.6978 0.633865 13.7082C0.636505 13.7189 0.638943 13.7297 0.642125 13.7403C0.64524 13.7505 0.649031 13.7603 0.65262 13.7703C0.656344 13.7808 0.659865 13.7915 0.664198 13.8019C0.66799 13.811 0.672459 13.8198 0.676657 13.8288C0.681735 13.8396 0.686542 13.8505 0.69223 13.8611C0.696698 13.8694 0.701777 13.8773 0.706516 13.8854C0.712813 13.896 0.718839 13.9067 0.725745 13.917C0.731568 13.9257 0.738068 13.9338 0.74423 13.9422C0.750933 13.9513 0.757298 13.9605 0.764542 13.9693C0.775782 13.9831 0.787902 13.996 0.800225 14.0088C0.803069 14.0118 0.805574 14.0151 0.808485 14.018C0.811261 14.0207 0.814308 14.023 0.817152 14.0258C0.830084 14.0383 0.843288 14.0505 0.857168 14.062C0.865496 14.0688 0.874163 14.0747 0.882694 14.0811C0.891632 14.0877 0.900298 14.0946 0.909574 14.1008C0.919324 14.1074 0.929481 14.113 0.939502 14.1191C0.948168 14.1242 0.956632 14.1297 0.965569 14.1344C0.975658 14.1398 0.986018 14.1444 0.996309 14.1493C1.00572 14.1537 1.01506 14.1585 1.02475 14.1625C1.03463 14.1666 1.04479 14.1698 1.05481 14.1735C1.0653 14.1773 1.07566 14.1813 1.08636 14.1845C1.09638 14.1876 1.10654 14.1898 1.1167 14.1923C1.12766 14.1951 1.1385 14.1981 1.14967 14.2004C1.16138 14.2027 1.17316 14.204 1.18488 14.2057C1.19463 14.2071 1.20424 14.209 1.21413 14.21C1.236 14.2122 1.25794 14.2133 1.27994 14.2133H5.57335C5.94148 14.2132 6.24001 13.9148 6.24001 13.5466Z" fill="#BDC3C6"/>
</svg>
