<?xml version="1.0" encoding="UTF-8"?>
<svg width="87px" height="123px" viewBox="0 0 87 123" version="1.1" xmlns="http://www.w3.org/2000/svg" xmlns:xlink="http://www.w3.org/1999/xlink">
    <title>Rectangle Copy 6</title>
    <g id="Desktop-in-progress" stroke="none" stroke-width="1" fill="none" fill-rule="evenodd">
        <path d="M7,1.19951192 C7.69597524,1.19951192 8.38743385,1.31128768 9.04796174,1.53056932 L9.04796174,1.53056932 L82.0479617,25.7650641 C83.3769961,26.2062761 84.4900057,27.0483331 85.2707566,28.1301765 C86.0515076,29.2120198 86.5,30.5336495 86.5,31.9340067 L86.5,31.9340067 L86.5,91.0659933 C86.5,92.4663505 86.0515076,93.7879802 85.2707566,94.8698235 C84.4900057,95.9516669 83.3769961,96.7937239 82.0479617,97.2349359 L82.0479617,97.2349359 L9.04796174,121.469431 C7.34445528,122.03496 5.57299371,121.856468 4.08602649,121.110717 C2.59905928,120.364966 1.39658643,119.051956 0.831057408,117.34845 C0.611775766,116.687922 0.5,115.996463 0.5,115.300488 L0.5,115.300488 L0.5,7.69951192 C0.5,5.90458648 1.22753728,4.27958648 2.40380592,3.10331784 C3.58007456,1.9270492 5.20507456,1.19951192 7,1.19951192 Z" id="Rectangle-Copy-6" stroke="#0387B3"></path>
    </g>
</svg>