<?xml version="1.0" encoding="UTF-8"?>
<svg width="766px" height="466px" viewBox="0 0 766 466" version="1.1" xmlns="http://www.w3.org/2000/svg" xmlns:xlink="http://www.w3.org/1999/xlink">
    <title>01_next_queries_03</title>
    <g id="01_next_queries_03" stroke="none" stroke-width="1" fill="none" fill-rule="evenodd">
        <rect fill="#FFFFFF" x="0" y="0" width="766" height="466"></rect>
        <rect id="Rectangle-Copy-18" fill="#CFD4D7" x="13.1764706" y="16" width="738.647059" height="433"></rect>
        <g id="Next-Queries" transform="translate(287.892000, 50.644000)" fill="#1E3D49" fill-rule="nonzero">
            <polygon id="Path" points="15.21 0.156 15.21 18.356 13.624 18.356 1.924 3.588 1.924 18.356 0 18.356 0 0.156 1.586 0.156 13.312 14.924 13.312 0.156"></polygon>
            <polygon id="Path" points="34.008 16.692 34.008 18.356 21.138 18.356 21.138 0.156 33.618 0.156 33.618 1.82 23.062 1.82 23.062 8.294 32.474 8.294 32.474 9.932 23.062 9.932 23.062 16.692"></polygon>
            <polygon id="Path" points="49.712 18.356 43.836 10.348 37.986 18.356 35.776 18.356 42.692 8.996 36.218 0.156 38.428 0.156 43.914 7.592 49.374 0.156 51.454 0.156 45.006 8.944 51.948 18.356"></polygon>
            <polygon id="Path" points="58.11 1.82 51.714 1.82 51.714 0.156 66.43 0.156 66.43 1.82 60.034 1.82 60.034 18.356 58.11 18.356"></polygon>
            <path d="M94.64,19.89 C94.0853333,20.566 93.431,21.0816667 92.677,21.437 C91.923,21.7923333 91.104,21.97 90.22,21.97 C89.1453333,21.97 88.127,21.7056667 87.165,21.177 C86.203,20.6483333 85.124,19.76 83.928,18.512 C82.1773333,18.46 80.6,18.0266667 79.196,17.212 C77.792,16.3973333 76.6913333,15.2966667 75.894,13.91 C75.0966667,12.5233333 74.698,10.972 74.698,9.256 C74.698,7.50533333 75.1096667,5.928 75.933,4.524 C76.7563333,3.12 77.9003333,2.015 79.365,1.209 C80.8296667,0.403 82.4633333,0 84.266,0 C86.0686667,0 87.6936667,0.398666667 89.141,1.196 C90.5883333,1.99333333 91.728,3.09833333 92.56,4.511 C93.392,5.92366667 93.808,7.50533333 93.808,9.256 C93.808,10.7813333 93.4916667,12.181 92.859,13.455 C92.2263333,14.729 91.3423333,15.7906667 90.207,16.64 C89.0716667,17.4893333 87.7673333,18.0526667 86.294,18.33 C87.6286667,19.734 88.946,20.436 90.246,20.436 C91.598,20.436 92.7506667,19.8813333 93.704,18.772 L94.64,19.89 Z M76.596,9.256 C76.596,10.6773333 76.9296667,11.96 77.597,13.104 C78.2643333,14.248 79.183,15.1493333 80.353,15.808 C81.523,16.4666667 82.8273333,16.796 84.266,16.796 C85.7046667,16.796 87.0046667,16.4666667 88.166,15.808 C89.3273333,15.1493333 90.2373333,14.248 90.896,13.104 C91.5546667,11.96 91.884,10.6773333 91.884,9.256 C91.884,7.83466667 91.5546667,6.552 90.896,5.408 C90.2373333,4.264 89.3273333,3.36266667 88.166,2.704 C87.0046667,2.04533333 85.7046667,1.716 84.266,1.716 C82.8273333,1.716 81.523,2.04533333 80.353,2.704 C79.183,3.36266667 78.2643333,4.264 77.597,5.408 C76.9296667,6.552 76.596,7.83466667 76.596,9.256 Z" id="Shape"></path>
            <path d="M105.456,18.512 C103.098667,18.512 101.261333,17.836 99.944,16.484 C98.6266667,15.132 97.968,13.1646667 97.968,10.582 L97.968,0.156 L99.892,0.156 L99.892,10.504 C99.892,12.6186667 100.368667,14.196 101.322,15.236 C102.275333,16.276 103.653333,16.796 105.456,16.796 C107.276,16.796 108.662667,16.276 109.616,15.236 C110.569333,14.196 111.046,12.6186667 111.046,10.504 L111.046,0.156 L112.918,0.156 L112.918,10.582 C112.918,13.1646667 112.263667,15.132 110.955,16.484 C109.646333,17.836 107.813333,18.512 105.456,18.512 Z" id="Path"></path>
            <polygon id="Path" points="131.586 16.692 131.586 18.356 118.716 18.356 118.716 0.156 131.196 0.156 131.196 1.82 120.64 1.82 120.64 8.294 130.052 8.294 130.052 9.932 120.64 9.932 120.64 16.692"></polygon>
            <path d="M148.538,18.356 L144.378,12.506 C143.91,12.558 143.424667,12.584 142.922,12.584 L138.034,12.584 L138.034,18.356 L136.11,18.356 L136.11,0.156 L142.922,0.156 C145.244667,0.156 147.064667,0.710666667 148.382,1.82 C149.699333,2.92933333 150.358,4.45466667 150.358,6.396 C150.358,7.81733333 149.998333,9.01766667 149.279,9.997 C148.559667,10.9763333 147.532667,11.6826667 146.198,12.116 L150.644,18.356 L148.538,18.356 Z M142.87,10.946 C144.672667,10.946 146.050667,10.5473333 147.004,9.75 C147.957333,8.95266667 148.434,7.83466667 148.434,6.396 C148.434,4.92266667 147.957333,3.79166667 147.004,3.003 C146.050667,2.21433333 144.672667,1.82 142.87,1.82 L138.034,1.82 L138.034,10.946 L142.87,10.946 Z" id="Shape"></path>
            <polygon id="Path" points="154.908 0.156 156.832 0.156 156.832 18.356 154.908 18.356"></polygon>
            <polygon id="Path" points="175.63 16.692 175.63 18.356 162.76 18.356 162.76 0.156 175.24 0.156 175.24 1.82 164.684 1.82 164.684 8.294 174.096 8.294 174.096 9.932 164.684 9.932 164.684 16.692"></polygon>
            <path d="M185.172,18.512 C183.82,18.512 182.524333,18.2953333 181.285,17.862 C180.045667,17.4286667 179.088,16.8566667 178.412,16.146 L179.166,14.664 C179.824667,15.3226667 180.7,15.8556667 181.792,16.263 C182.884,16.6703333 184.010667,16.874 185.172,16.874 C186.801333,16.874 188.023333,16.575 188.838,15.977 C189.652667,15.379 190.06,14.6033333 190.06,13.65 C190.06,12.922 189.839,12.3413333 189.397,11.908 C188.955,11.4746667 188.413333,11.141 187.772,10.907 C187.130667,10.673 186.238,10.4173333 185.094,10.14 C183.724667,9.79333333 182.632667,9.45966667 181.818,9.139 C181.003333,8.81833333 180.305667,8.32866667 179.725,7.67 C179.144333,7.01133333 178.854,6.11866667 178.854,4.992 C178.854,4.07333333 179.096667,3.237 179.582,2.483 C180.067333,1.729 180.812667,1.12666667 181.818,0.676 C182.823333,0.225333333 184.071333,0 185.562,0 C186.602,0 187.620333,0.143 188.617,0.429 C189.613667,0.715 190.476,1.10933333 191.204,1.612 L190.554,3.146 C189.791333,2.64333333 188.976667,2.26633333 188.11,2.015 C187.243333,1.76366667 186.394,1.638 185.562,1.638 C183.967333,1.638 182.767,1.94566667 181.961,2.561 C181.155,3.17633333 180.752,3.96933333 180.752,4.94 C180.752,5.668 180.973,6.253 181.415,6.695 C181.857,7.137 182.411667,7.475 183.079,7.709 C183.746333,7.943 184.643333,8.19866667 185.77,8.476 C187.104667,8.80533333 188.183667,9.13033333 189.007,9.451 C189.830333,9.77166667 190.528,10.257 191.1,10.907 C191.672,11.557 191.958,12.4366667 191.958,13.546 C191.958,14.4646667 191.711,15.301 191.217,16.055 C190.723,16.809 189.964667,17.407 188.942,17.849 C187.919333,18.291 186.662667,18.512 185.172,18.512 Z" id="Path"></path>
        </g>
        <rect id="Rectangle-Copy-2" fill="#FFFFFF" x="53" y="106" width="660" height="306" rx="10"></rect>
        <g id="Group-4" transform="translate(211.895083, 178.000000)">
            <g id="gridProduct" opacity="0.626521519" transform="translate(0.000000, 0.000000)">
                <rect id="Rectangle-Copy-13" fill="#E2E6E7" x="3.13128287e-15" y="0" width="78.6455902" height="92.0524646" rx="5"></rect>
                <rect id="Rectangle" fill="#FFFFFF" x="7.59067224" y="6.32798201" width="63.4642457" height="49.7979548" rx="4.26584808"></rect>
                <g id="faketitle" transform="translate(17.897170, 62.028664)" fill="#BBC3C6">
                    <rect id="Rectangle-Copy-10" x="-3.55271368e-15" y="0" width="40.6595372" height="6.2763044" rx="3.1381522"></rect>
                </g>
                <g id="fakecart" transform="translate(6.529457, 73.946184)" fill="#BBC3C6">
                    <rect id="Rectangle-Copy-10" x="0" y="0" width="63.3949616" height="11.7782989" rx="5.88914944"></rect>
                </g>
            </g>
            <g id="Group-79-Copy" transform="translate(26.104917, 13.000000)" fill="#53B9C9">
                <path d="M9.65908845,0 L22.519078,0 C23.0454173,-8.09608822e-16 23.4816603,0.407996229 23.5168416,0.933158452 L25.9285308,36.9331585 C25.9654464,37.4842081 25.5486584,37.960848 24.9976088,37.9977636 C24.9753594,37.9992541 24.9530664,38 24.9307672,38 L19.564932,38 C19.0911204,38 18.6823459,37.6674872 18.5858778,37.2036 L12.7282639,9.03601629 C12.7091689,8.94419375 12.6772515,8.85551398 12.6334499,8.77258376 L8.77484833,1.46703256 C8.51691337,0.978680232 8.70370355,0.373694846 9.19205588,0.115759883 C9.33599147,0.0397368593 9.4963096,-1.92142615e-16 9.65908845,0 Z" id="Path-69"></path>
                <path d="M1.05676509,0 L9.30623887,0 C9.82010502,3.49693529e-16 10.2503274,0.389463187 10.3013058,0.900794416 L13.8904121,36.9007944 C13.9452018,37.4503547 13.544111,37.9402772 12.9945507,37.995067 C12.9615843,37.9983536 12.9284749,38 12.8953451,38 L7.44900729,38 C6.97636481,38 6.56826301,37.6690892 6.47059208,37.2066486 L0.507343486,8.97257504 C0.496801744,8.92266326 0.490094662,8.87201801 0.487280975,8.82108279 L0.0582873615,1.0551564 C0.027825321,0.503712382 0.450164663,0.0319843135 1.00160869,0.00152227307 C1.01997665,0.000507617541 1.03836912,-1.07643018e-16 1.05676509,0 Z" id="Path-69-Copy" transform="translate(7.000000, 19.000000) scale(-1, 1) translate(-7.000000, -19.000000) "></path>
            </g>
        </g>
        <g id="Group-3" transform="translate(124.000000, 178.000000)">
            <g id="gridProduct" opacity="0.626521519" transform="translate(0.000000, 0.000000)">
                <rect id="Rectangle-Copy-13" fill="#E2E6E7" x="3.13128287e-15" y="0" width="78.6455902" height="92.0524646" rx="5"></rect>
                <rect id="Rectangle" fill="#FFFFFF" x="7.59067224" y="6.32798201" width="63.4642457" height="49.7979548" rx="4.26584808"></rect>
                <g id="faketitle" transform="translate(17.897170, 62.028664)" fill="#BBC3C6">
                    <rect id="Rectangle-Copy-10" x="-3.55271368e-15" y="0" width="40.6595372" height="6.2763044" rx="3.1381522"></rect>
                </g>
                <g id="fakecart" transform="translate(6.529457, 73.946184)" fill="#BBC3C6">
                    <rect id="Rectangle-Copy-10" x="0" y="0" width="63.3949616" height="11.7782989" rx="5.88914944"></rect>
                </g>
            </g>
            <g id="Group-79" transform="translate(25.000000, 13.000000)" fill="#53B9C9">
                <path d="M9.65908845,0 L22.519078,0 C23.0454173,-8.09608822e-16 23.4816603,0.407996229 23.5168416,0.933158452 L25.9285308,36.9331585 C25.9654464,37.4842081 25.5486584,37.960848 24.9976088,37.9977636 C24.9753594,37.9992541 24.9530664,38 24.9307672,38 L19.564932,38 C19.0911204,38 18.6823459,37.6674872 18.5858778,37.2036 L12.7282639,9.03601629 C12.7091689,8.94419375 12.6772515,8.85551398 12.6334499,8.77258376 L8.77484833,1.46703256 C8.51691337,0.978680232 8.70370355,0.373694846 9.19205588,0.115759883 C9.33599147,0.0397368593 9.4963096,-1.92142615e-16 9.65908845,0 Z" id="Path-69"></path>
                <path d="M1.05676509,0 L9.30623887,0 C9.82010502,3.49693529e-16 10.2503274,0.389463187 10.3013058,0.900794416 L13.8904121,36.9007944 C13.9452018,37.4503547 13.544111,37.9402772 12.9945507,37.995067 C12.9615843,37.9983536 12.9284749,38 12.8953451,38 L7.44900729,38 C6.97636481,38 6.56826301,37.6690892 6.47059208,37.2066486 L0.507343486,8.97257504 C0.496801744,8.92266326 0.490094662,8.87201801 0.487280975,8.82108279 L0.0582873615,1.0551564 C0.027825321,0.503712382 0.450164663,0.0319843135 1.00160869,0.00152227307 C1.01997665,0.000507617541 1.03836912,-1.07643018e-16 1.05676509,0 Z" id="Path-69-Copy" transform="translate(7.000000, 19.000000) scale(-1, 1) translate(-7.000000, -19.000000) "></path>
            </g>
        </g>
        <g id="Group-5" transform="translate(299.790167, 178.000000)">
            <g id="gridProduct" opacity="0.626521519" transform="translate(0.000000, 0.000000)">
                <rect id="Rectangle-Copy-13" fill="#E2E6E7" x="3.13128287e-15" y="0" width="78.6455902" height="92.0524646" rx="5"></rect>
                <rect id="Rectangle" fill="#FFFFFF" x="7.59067224" y="6.32798201" width="63.4642457" height="49.7979548" rx="4.26584808"></rect>
                <g id="faketitle" transform="translate(17.897170, 62.028664)" fill="#BBC3C6">
                    <rect id="Rectangle-Copy-10" x="-3.55271368e-15" y="0" width="40.6595372" height="6.2763044" rx="3.1381522"></rect>
                </g>
                <g id="fakecart" transform="translate(6.529457, 73.946184)" fill="#BBC3C6">
                    <rect id="Rectangle-Copy-10" x="0" y="0" width="63.3949616" height="11.7782989" rx="5.88914944"></rect>
                </g>
            </g>
            <g id="Group-79-Copy-2" transform="translate(26.209833, 13.000000)" fill="#53B9C9">
                <path d="M9.65908845,0 L22.519078,0 C23.0454173,-8.09608822e-16 23.4816603,0.407996229 23.5168416,0.933158452 L25.9285308,36.9331585 C25.9654464,37.4842081 25.5486584,37.960848 24.9976088,37.9977636 C24.9753594,37.9992541 24.9530664,38 24.9307672,38 L19.564932,38 C19.0911204,38 18.6823459,37.6674872 18.5858778,37.2036 L12.7282639,9.03601629 C12.7091689,8.94419375 12.6772515,8.85551398 12.6334499,8.77258376 L8.77484833,1.46703256 C8.51691337,0.978680232 8.70370355,0.373694846 9.19205588,0.115759883 C9.33599147,0.0397368593 9.4963096,-1.92142615e-16 9.65908845,0 Z" id="Path-69"></path>
                <path d="M1.05676509,0 L9.30623887,0 C9.82010502,3.49693529e-16 10.2503274,0.389463187 10.3013058,0.900794416 L13.8904121,36.9007944 C13.9452018,37.4503547 13.544111,37.9402772 12.9945507,37.995067 C12.9615843,37.9983536 12.9284749,38 12.8953451,38 L7.44900729,38 C6.97636481,38 6.56826301,37.6690892 6.47059208,37.2066486 L0.507343486,8.97257504 C0.496801744,8.92266326 0.490094662,8.87201801 0.487280975,8.82108279 L0.0582873615,1.0551564 C0.027825321,0.503712382 0.450164663,0.0319843135 1.00160869,0.00152227307 C1.01997665,0.000507617541 1.03836912,-1.07643018e-16 1.05676509,0 Z" id="Path-69-Copy" transform="translate(7.000000, 19.000000) scale(-1, 1) translate(-7.000000, -19.000000) "></path>
            </g>
        </g>
        <g id="gridProduct" opacity="0.626521519" transform="translate(387.685250, 178.000000)">
            <rect id="Rectangle-Copy-13" fill="#E2E6E7" x="0" y="0" width="78.6455902" height="92.0524646" rx="5"></rect>
            <rect id="Rectangle" fill="#FFFFFF" x="7.59067224" y="6.32798201" width="63.4642457" height="49.7979548" rx="4.26584808"></rect>
            <g id="faketitle" transform="translate(17.897170, 62.028664)" fill="#BBC3C6">
                <rect id="Rectangle-Copy-10" x="-3.55271368e-15" y="0" width="40.6595372" height="6.2763044" rx="3.1381522"></rect>
            </g>
            <g id="fakecart" transform="translate(6.529457, 73.946184)" fill="#BBC3C6">
                <rect id="Rectangle-Copy-10" x="0" y="0" width="63.3949616" height="11.7782989" rx="5.88914944"></rect>
            </g>
        </g>
        <g id="Group-6" transform="translate(475.580334, 178.000000)">
            <g id="gridProduct" opacity="0.626521519" transform="translate(0.000000, 0.000000)">
                <rect id="Rectangle-Copy-13" fill="#E2E6E7" x="3.13128287e-15" y="0" width="78.6455902" height="92.0524646" rx="5"></rect>
                <rect id="Rectangle" fill="#FFFFFF" x="7.59067224" y="6.32798201" width="63.4642457" height="49.7979548" rx="4.26584808"></rect>
                <g id="faketitle" transform="translate(17.897170, 62.028664)" fill="#BBC3C6">
                    <rect id="Rectangle-Copy-10" x="-3.55271368e-15" y="0" width="40.6595372" height="6.2763044" rx="3.1381522"></rect>
                </g>
                <g id="fakecart" transform="translate(6.529457, 73.946184)" fill="#BBC3C6">
                    <rect id="Rectangle-Copy-10" x="0" y="0" width="63.3949616" height="11.7782989" rx="5.88914944"></rect>
                </g>
            </g>
            <g id="Group-79-Copy-4" transform="translate(26.419666, 13.000000)" fill="#53B9C9">
                <path d="M9.65908845,0 L22.519078,0 C23.0454173,-8.09608822e-16 23.4816603,0.407996229 23.5168416,0.933158452 L25.9285308,36.9331585 C25.9654464,37.4842081 25.5486584,37.960848 24.9976088,37.9977636 C24.9753594,37.9992541 24.9530664,38 24.9307672,38 L19.564932,38 C19.0911204,38 18.6823459,37.6674872 18.5858778,37.2036 L12.7282639,9.03601629 C12.7091689,8.94419375 12.6772515,8.85551398 12.6334499,8.77258376 L8.77484833,1.46703256 C8.51691337,0.978680232 8.70370355,0.373694846 9.19205588,0.115759883 C9.33599147,0.0397368593 9.4963096,-1.92142615e-16 9.65908845,0 Z" id="Path-69"></path>
                <path d="M1.05676509,0 L9.30623887,0 C9.82010502,3.49693529e-16 10.2503274,0.389463187 10.3013058,0.900794416 L13.8904121,36.9007944 C13.9452018,37.4503547 13.544111,37.9402772 12.9945507,37.995067 C12.9615843,37.9983536 12.9284749,38 12.8953451,38 L7.44900729,38 C6.97636481,38 6.56826301,37.6690892 6.47059208,37.2066486 L0.507343486,8.97257504 C0.496801744,8.92266326 0.490094662,8.87201801 0.487280975,8.82108279 L0.0582873615,1.0551564 C0.027825321,0.503712382 0.450164663,0.0319843135 1.00160869,0.00152227307 C1.01997665,0.000507617541 1.03836912,-1.07643018e-16 1.05676509,0 Z" id="Path-69-Copy" transform="translate(7.000000, 19.000000) scale(-1, 1) translate(-7.000000, -19.000000) "></path>
            </g>
        </g>
        <g id="Group-9" transform="translate(563.475417, 178.000000)">
            <g id="gridProduct" opacity="0.626521519" transform="translate(0.000000, 0.000000)">
                <rect id="Rectangle-Copy-13" fill="#E2E6E7" x="3.13128287e-15" y="0" width="78.6455902" height="92.0524646" rx="5"></rect>
                <rect id="Rectangle" fill="#FFFFFF" x="7.59067224" y="6.32798201" width="63.4642457" height="49.7979548" rx="4.26584808"></rect>
                <g id="faketitle" transform="translate(17.897170, 62.028664)" fill="#BBC3C6">
                    <rect id="Rectangle-Copy-10" x="-3.55271368e-15" y="0" width="40.6595372" height="6.2763044" rx="3.1381522"></rect>
                </g>
                <g id="fakecart" transform="translate(6.529457, 73.946184)" fill="#BBC3C6">
                    <rect id="Rectangle-Copy-10" x="0" y="0" width="63.3949616" height="11.7782989" rx="5.88914944"></rect>
                </g>
            </g>
            <g id="Group-79-Copy-5" transform="translate(26.524583, 13.000000)" fill="#53B9C9">
                <path d="M9.65908845,0 L22.519078,0 C23.0454173,-8.09608822e-16 23.4816603,0.407996229 23.5168416,0.933158452 L25.9285308,36.9331585 C25.9654464,37.4842081 25.5486584,37.960848 24.9976088,37.9977636 C24.9753594,37.9992541 24.9530664,38 24.9307672,38 L19.564932,38 C19.0911204,38 18.6823459,37.6674872 18.5858778,37.2036 L12.7282639,9.03601629 C12.7091689,8.94419375 12.6772515,8.85551398 12.6334499,8.77258376 L8.77484833,1.46703256 C8.51691337,0.978680232 8.70370355,0.373694846 9.19205588,0.115759883 C9.33599147,0.0397368593 9.4963096,-1.92142615e-16 9.65908845,0 Z" id="Path-69"></path>
                <path d="M1.05676509,0 L9.30623887,0 C9.82010502,3.49693529e-16 10.2503274,0.389463187 10.3013058,0.900794416 L13.8904121,36.9007944 C13.9452018,37.4503547 13.544111,37.9402772 12.9945507,37.995067 C12.9615843,37.9983536 12.9284749,38 12.8953451,38 L7.44900729,38 C6.97636481,38 6.56826301,37.6690892 6.47059208,37.2066486 L0.507343486,8.97257504 C0.496801744,8.92266326 0.490094662,8.87201801 0.487280975,8.82108279 L0.0582873615,1.0551564 C0.027825321,0.503712382 0.450164663,0.0319843135 1.00160869,0.00152227307 C1.01997665,0.000507617541 1.03836912,-1.07643018e-16 1.05676509,0 Z" id="Path-69-Copy" transform="translate(7.000000, 19.000000) scale(-1, 1) translate(-7.000000, -19.000000) "></path>
            </g>
        </g>
        <rect id="Rectangle" stroke="#D3D3D3" fill="#FFFFFF" x="123.5" y="129.5" width="518" height="25" rx="12.5"></rect>
        <g id="Group" transform="translate(619.823720, 136.086933)" stroke="#D3D3D3">
            <circle id="Oval" fill="#FFFFFF" cx="4.78029079" cy="4.78029079" r="4.28029079"></circle>
            <line x1="8.29332654" y1="7.81681274" x2="11.0576172" y2="10.5811034" id="Path-21" stroke-linecap="round"></line>
        </g>
        <rect id="Rectangle" fill="#243C47" x="125" y="131" width="71" height="22.002294" rx="11.001147"></rect>
        <g id="jeans" transform="translate(139.740000, 135.598000)" fill="#FFFFFF" fill-rule="nonzero">
            <path d="M1.554,13.188 C1.246,13.188 0.954333333,13.1483333 0.679,13.069 C0.403666667,12.9896667 0.177333333,12.8706667 0,12.712 L0.35,11.956 C0.639333333,12.208 1.022,12.334 1.498,12.334 C1.89,12.334 2.191,12.2173333 2.401,11.984 C2.611,11.7506667 2.716,11.4053333 2.716,10.948 L2.716,3.038 L3.71,3.038 L3.71,10.948 C3.71,11.6386667 3.52333333,12.1846667 3.15,12.586 C2.77666667,12.9873333 2.24466667,13.188 1.554,13.188 Z M3.22,1.414 C3.01466667,1.414 2.842,1.344 2.702,1.204 C2.562,1.064 2.492,0.896 2.492,0.7 C2.492,0.513333333 2.562,0.35 2.702,0.21 C2.842,0.07 3.01466667,0 3.22,0 C3.42533333,0 3.598,0.0676666667 3.738,0.203 C3.878,0.338333333 3.948,0.499333333 3.948,0.686 C3.948,0.891333333 3.878,1.064 3.738,1.204 C3.598,1.344 3.42533333,1.414 3.22,1.414 Z" id="Shape"></path>
            <path d="M12.894,7.028 L6.734,7.028 C6.79,7.79333333 7.084,8.41166667 7.616,8.883 C8.148,9.35433333 8.82,9.59 9.632,9.59 C10.0893333,9.59 10.5093333,9.50833333 10.892,9.345 C11.2746667,9.18166667 11.606,8.94133333 11.886,8.624 L12.446,9.268 C12.1193333,9.66 11.711,9.95866667 11.221,10.164 C10.731,10.3693333 10.192,10.472 9.604,10.472 C8.848,10.472 8.17833333,10.311 7.595,9.989 C7.01166667,9.667 6.55666667,9.22133333 6.23,8.652 C5.90333333,8.08266667 5.74,7.43866667 5.74,6.72 C5.74,6.00133333 5.89633333,5.35733333 6.209,4.788 C6.52166667,4.21866667 6.951,3.77533333 7.497,3.458 C8.043,3.14066667 8.65666667,2.982 9.338,2.982 C10.0193333,2.982 10.6306667,3.14066667 11.172,3.458 C11.7133333,3.77533333 12.138,4.21633333 12.446,4.781 C12.754,5.34566667 12.908,5.992 12.908,6.72 L12.894,7.028 Z M9.338,3.836 C8.62866667,3.836 8.03366667,4.06233333 7.553,4.515 C7.07233333,4.96766667 6.79933333,5.558 6.734,6.286 L11.956,6.286 C11.8906667,5.558 11.6176667,4.96766667 11.137,4.515 C10.6563333,4.06233333 10.0566667,3.836 9.338,3.836 Z" id="Shape"></path>
            <path d="M17.304,2.982 C18.2653333,2.982 19.0026667,3.22233333 19.516,3.703 C20.0293333,4.18366667 20.286,4.89533333 20.286,5.838 L20.286,10.402 L19.334,10.402 L19.334,9.254 C19.11,9.63666667 18.781,9.93533333 18.347,10.15 C17.913,10.3646667 17.3973333,10.472 16.8,10.472 C15.9786667,10.472 15.3253333,10.276 14.84,9.884 C14.3546667,9.492 14.112,8.974 14.112,8.33 C14.112,7.70466667 14.3383333,7.20066667 14.791,6.818 C15.2436667,6.43533333 15.9646667,6.244 16.954,6.244 L19.292,6.244 L19.292,5.796 C19.292,5.16133333 19.1146667,4.67833333 18.76,4.347 C18.4053333,4.01566667 17.8873333,3.85 17.206,3.85 C16.7393333,3.85 16.2913333,3.927 15.862,4.081 C15.4326667,4.235 15.064,4.44733333 14.756,4.718 L14.308,3.976 C14.6813333,3.65866667 15.1293333,3.41366667 15.652,3.241 C16.1746667,3.06833333 16.7253333,2.982 17.304,2.982 Z M16.954,9.688 C17.514,9.688 17.9946667,9.55966667 18.396,9.303 C18.7973333,9.04633333 19.096,8.67533333 19.292,8.19 L19.292,6.986 L16.982,6.986 C15.722,6.986 15.092,7.42466667 15.092,8.302 C15.092,8.73133333 15.2553333,9.06966667 15.582,9.317 C15.9086667,9.56433333 16.366,9.688 16.954,9.688 Z" id="Shape"></path>
            <path d="M26.74,2.982 C27.664,2.982 28.399,3.25033333 28.945,3.787 C29.491,4.32366667 29.764,5.10533333 29.764,6.132 L29.764,10.402 L28.77,10.402 L28.77,6.23 C28.77,5.46466667 28.5786667,4.88133333 28.196,4.48 C27.8133333,4.07866667 27.2673333,3.878 26.558,3.878 C25.7646667,3.878 25.137,4.11366667 24.675,4.585 C24.213,5.05633333 23.982,5.70733333 23.982,6.538 L23.982,10.402 L22.988,10.402 L22.988,3.038 L23.94,3.038 L23.94,4.396 C24.2106667,3.948 24.5863333,3.60033333 25.067,3.353 C25.5476667,3.10566667 26.1053333,2.982 26.74,2.982 Z" id="Path"></path>
            <path d="M34.44,10.472 C33.8426667,10.472 33.271,10.3856667 32.725,10.213 C32.179,10.0403333 31.752,9.82333333 31.444,9.562 L31.892,8.778 C32.2,9.02066667 32.5873333,9.219 33.054,9.373 C33.5206667,9.527 34.006,9.604 34.51,9.604 C35.182,9.604 35.679,9.499 36.001,9.289 C36.323,9.079 36.484,8.78266667 36.484,8.4 C36.484,8.12933333 36.3953333,7.917 36.218,7.763 C36.0406667,7.609 35.8166667,7.49233333 35.546,7.413 C35.2753333,7.33366667 34.916,7.25666667 34.468,7.182 C33.8706667,7.07 33.39,6.95566667 33.026,6.839 C32.662,6.72233333 32.3516667,6.524 32.095,6.244 C31.8383333,5.964 31.71,5.57666667 31.71,5.082 C31.71,4.466 31.9666667,3.962 32.48,3.57 C32.9933333,3.178 33.7073333,2.982 34.622,2.982 C35.098,2.982 35.574,3.045 36.05,3.171 C36.526,3.297 36.918,3.46266667 37.226,3.668 L36.792,4.466 C36.1853333,4.046 35.462,3.836 34.622,3.836 C33.9873333,3.836 33.509,3.948 33.187,4.172 C32.865,4.396 32.704,4.69 32.704,5.054 C32.704,5.334 32.795,5.558 32.977,5.726 C33.159,5.894 33.3853333,6.01766667 33.656,6.097 C33.9266667,6.17633333 34.3,6.258 34.776,6.342 C35.364,6.454 35.8353333,6.566 36.19,6.678 C36.5446667,6.79 36.848,6.98133333 37.1,7.252 C37.352,7.52266667 37.478,7.896 37.478,8.372 C37.478,9.016 37.2096667,9.527 36.673,9.905 C36.1363333,10.283 35.392,10.472 34.44,10.472 Z" id="Path"></path>
        </g>
        <rect id="Rectangle-Copy-19" fill="#243C47" x="123" y="368" width="73" height="21" rx="2"></rect>
        <rect id="Rectangle-Copy-20" fill="#E2E6E7" x="203" y="368" width="73" height="21" rx="2"></rect>
        <g id="SAVE" transform="translate(149.380000, 375.320000)" fill="#FFFFFF" fill-rule="nonzero">
            <path d="M2.208,5.76 C1.776,5.76 1.35866667,5.69866667 0.956,5.576 C0.553333333,5.45333333 0.234666667,5.29066667 0,5.088 L0.36,4.28 C0.589333333,4.46133333 0.870666667,4.60933333 1.204,4.724 C1.53733333,4.83866667 1.872,4.896 2.208,4.896 C2.624,4.896 2.93466667,4.82933333 3.14,4.696 C3.34533333,4.56266667 3.448,4.38666667 3.448,4.168 C3.448,4.008 3.39066667,3.876 3.276,3.772 C3.16133333,3.668 3.016,3.58666667 2.84,3.528 C2.664,3.46933333 2.424,3.40266667 2.12,3.328 C1.69333333,3.22666667 1.348,3.12533333 1.084,3.024 C0.82,2.92266667 0.593333333,2.764 0.404,2.548 C0.214666667,2.332 0.12,2.04 0.12,1.672 C0.12,1.36266667 0.204,1.08133333 0.372,0.828 C0.54,0.574666667 0.793333333,0.373333333 1.132,0.224 C1.47066667,0.0746666667 1.88533333,0 2.376,0 C2.71733333,0 3.05333333,0.0426666667 3.384,0.128 C3.71466667,0.213333333 4,0.336 4.24,0.496 L3.912,1.304 C3.66666667,1.16 3.41066667,1.05066667 3.144,0.976 C2.87733333,0.901333333 2.61866667,0.864 2.368,0.864 C1.95733333,0.864 1.652,0.933333333 1.452,1.072 C1.252,1.21066667 1.152,1.39466667 1.152,1.624 C1.152,1.784 1.20933333,1.91466667 1.324,2.016 C1.43866667,2.11733333 1.584,2.19733333 1.76,2.256 C1.936,2.31466667 2.176,2.38133333 2.48,2.456 C2.896,2.552 3.23733333,2.652 3.504,2.756 C3.77066667,2.86 3.99866667,3.01866667 4.188,3.232 C4.37733333,3.44533333 4.472,3.73333333 4.472,4.096 C4.472,4.40533333 4.388,4.68533333 4.22,4.936 C4.052,5.18666667 3.79733333,5.38666667 3.456,5.536 C3.11466667,5.68533333 2.69866667,5.76 2.208,5.76 Z" id="Path"></path>
            <path d="M9.136,4.384 L6.336,4.384 L5.784,5.68 L4.712,5.68 L7.232,0.08 L8.256,0.08 L10.784,5.68 L9.696,5.68 L9.136,4.384 Z M8.792,3.568 L7.736,1.12 L6.688,3.568 L8.792,3.568 Z" id="Shape"></path>
            <polygon id="Path" points="16.32 0.08 13.88 5.68 12.856 5.68 10.408 0.08 11.536 0.08 13.4 4.4 15.28 0.08"></polygon>
            <polygon id="Path" points="21.112 4.808 21.112 5.68 16.912 5.68 16.912 0.08 21 0.08 21 0.952 17.952 0.952 17.952 2.408 20.656 2.408 20.656 3.264 17.952 3.264 17.952 4.808"></polygon>
        </g>
        <g id="CANCEL" transform="translate(223.284000, 375.320000)" fill="#1E3D49" fill-rule="nonzero">
            <path d="M2.992,5.76 C2.42666667,5.76 1.916,5.636 1.46,5.388 C1.004,5.14 0.646666667,4.79733333 0.388,4.36 C0.129333333,3.92266667 0,3.42933333 0,2.88 C0,2.33066667 0.130666667,1.83733333 0.392,1.4 C0.653333333,0.962666667 1.012,0.62 1.468,0.372 C1.924,0.124 2.43466667,0 3,0 C3.45866667,0 3.87733333,0.08 4.256,0.24 C4.63466667,0.4 4.95466667,0.632 5.216,0.936 L4.544,1.568 C4.13866667,1.13066667 3.64,0.912 3.048,0.912 C2.664,0.912 2.32,0.996 2.016,1.164 C1.712,1.332 1.47466667,1.56533333 1.304,1.864 C1.13333333,2.16266667 1.048,2.50133333 1.048,2.88 C1.048,3.25866667 1.13333333,3.59733333 1.304,3.896 C1.47466667,4.19466667 1.712,4.428 2.016,4.596 C2.32,4.764 2.664,4.848 3.048,4.848 C3.64,4.848 4.13866667,4.62666667 4.544,4.184 L5.216,4.824 C4.95466667,5.128 4.63333333,5.36 4.252,5.52 C3.87066667,5.68 3.45066667,5.76 2.992,5.76 Z" id="Path"></path>
            <path d="M9.728,4.384 L6.928,4.384 L6.376,5.68 L5.304,5.68 L7.824,0.08 L8.848,0.08 L11.376,5.68 L10.288,5.68 L9.728,4.384 Z M9.384,3.568 L8.328,1.12 L7.28,3.568 L9.384,3.568 Z" id="Shape"></path>
            <polygon id="Path" points="17.064 0.08 17.064 5.68 16.208 5.68 13.12 1.888 13.12 5.68 12.088 5.68 12.088 0.08 12.944 0.08 16.032 3.872 16.032 0.08"></polygon>
            <path d="M21.16,5.76 C20.5946667,5.76 20.084,5.636 19.628,5.388 C19.172,5.14 18.8146667,4.79733333 18.556,4.36 C18.2973333,3.92266667 18.168,3.42933333 18.168,2.88 C18.168,2.33066667 18.2986667,1.83733333 18.56,1.4 C18.8213333,0.962666667 19.18,0.62 19.636,0.372 C20.092,0.124 20.6026667,0 21.168,0 C21.6266667,0 22.0453333,0.08 22.424,0.24 C22.8026667,0.4 23.1226667,0.632 23.384,0.936 L22.712,1.568 C22.3066667,1.13066667 21.808,0.912 21.216,0.912 C20.832,0.912 20.488,0.996 20.184,1.164 C19.88,1.332 19.6426667,1.56533333 19.472,1.864 C19.3013333,2.16266667 19.216,2.50133333 19.216,2.88 C19.216,3.25866667 19.3013333,3.59733333 19.472,3.896 C19.6426667,4.19466667 19.88,4.428 20.184,4.596 C20.488,4.764 20.832,4.848 21.216,4.848 C21.808,4.848 22.3066667,4.62666667 22.712,4.184 L23.384,4.824 C23.1226667,5.128 22.8013333,5.36 22.42,5.52 C22.0386667,5.68 21.6186667,5.76 21.16,5.76 Z" id="Path"></path>
            <polygon id="Path" points="28.584 4.808 28.584 5.68 24.384 5.68 24.384 0.08 28.472 0.08 28.472 0.952 25.424 0.952 25.424 2.408 28.128 2.408 28.128 3.264 25.424 3.264 25.424 4.808"></polygon>
            <polygon id="Path" points="29.744 0.08 30.784 0.08 30.784 4.8 33.712 4.8 33.712 5.68 29.744 5.68"></polygon>
        </g>
        <g id="Group-79-Copy-3" transform="translate(414.000000, 191.000000)" fill="#53B9C9">
            <path d="M9.65908845,0 L22.519078,0 C23.0454173,-8.09608822e-16 23.4816603,0.407996229 23.5168416,0.933158452 L25.9285308,36.9331585 C25.9654464,37.4842081 25.5486584,37.960848 24.9976088,37.9977636 C24.9753594,37.9992541 24.9530664,38 24.9307672,38 L19.564932,38 C19.0911204,38 18.6823459,37.6674872 18.5858778,37.2036 L12.7282639,9.03601629 C12.7091689,8.94419375 12.6772515,8.85551398 12.6334499,8.77258376 L8.77484833,1.46703256 C8.51691337,0.978680232 8.70370355,0.373694846 9.19205588,0.115759883 C9.33599147,0.0397368593 9.4963096,-1.92142615e-16 9.65908845,0 Z" id="Path-69"></path>
            <path d="M1.05676509,0 L9.30623887,0 C9.82010502,3.49693529e-16 10.2503274,0.389463187 10.3013058,0.900794416 L13.8904121,36.9007944 C13.9452018,37.4503547 13.544111,37.9402772 12.9945507,37.995067 C12.9615843,37.9983536 12.9284749,38 12.8953451,38 L7.44900729,38 C6.97636481,38 6.56826301,37.6690892 6.47059208,37.2066486 L0.507343486,8.97257504 C0.496801744,8.92266326 0.490094662,8.87201801 0.487280975,8.82108279 L0.0582873615,1.0551564 C0.027825321,0.503712382 0.450164663,0.0319843135 1.00160869,0.00152227307 C1.01997665,0.000507617541 1.03836912,-1.07643018e-16 1.05676509,0 Z" id="Path-69-Copy" transform="translate(7.000000, 19.000000) scale(-1, 1) translate(-7.000000, -19.000000) "></path>
        </g>
        <rect id="Rectangle-Copy-9" stroke="#FDCB5B" x="115.861607" y="122.609375" width="533" height="39" rx="8"></rect>
        <rect id="Rectangle-Copy-10" stroke="#D44A6F" x="115.861607" y="170.609375" width="533" height="109" rx="8"></rect>
        <g id="Group-4-Copy-6" transform="translate(99.000000, 142.000000) rotate(-270.000000) translate(-99.000000, -142.000000) translate(88.000000, 130.000000)">
            <g id="Group-2" transform="translate(11.000000, 12.000000) scale(-1, 1) rotate(-270.000000) translate(-11.000000, -12.000000) translate(-1.000000, 1.000000)" fill="#FDCB5B">
                <polyline id="Path-2" transform="translate(1.625442, 11.555911) rotate(-180.000000) translate(-1.625442, -11.555911) " points="0 8.23515644 0 14.8766659 3.25088337 11.5559112"></polyline>
                <path d="M6.46289766,1.84929709e-12 L20,1.84929709e-12 C22.209139,1.84889128e-12 24,1.790861 24,4 L24,18 C24,20.209139 22.209139,22 20,22 L6.46289766,22 C4.25375866,22 2.46289766,20.209139 2.46289766,18 L2.46289766,11.3797667 L2.46289766,11.3797667 L2.46289766,4 C2.46289766,1.790861 4.25375866,1.84970291e-12 6.46289766,1.84929709e-12 Z" id="Rectangle"></path>
            </g>
            <g id="A" transform="translate(10.597500, 13.487000) rotate(-90.000000) translate(-10.597500, -13.487000) translate(5.963000, 8.937000)" fill="#FFFFFF" fill-rule="nonzero">
                <path d="M7.163,6.669 L2.093,6.669 L1.001,9.1 L-2.52308632e-13,9.1 L4.16,0 L5.109,0 L9.269,9.1 L8.255,9.1 L7.163,6.669 Z M6.812,5.889 L4.628,1.001 L2.444,5.889 L6.812,5.889 Z" id="Shape"></path>
            </g>
        </g>
        <g id="Group-4-Copy-7" transform="translate(99.000000, 223.000000) rotate(-270.000000) translate(-99.000000, -223.000000) translate(88.000000, 211.000000)">
            <g id="Group-2" transform="translate(11.000000, 12.000000) scale(-1, 1) rotate(-270.000000) translate(-11.000000, -12.000000) translate(-1.000000, 1.000000)" fill="#D44A6F">
                <polyline id="Path-2" transform="translate(1.625442, 11.555911) rotate(-180.000000) translate(-1.625442, -11.555911) " points="0 8.23515644 0 14.8766659 3.25088337 11.5559112"></polyline>
                <path d="M6.46289766,0 L20,0 C22.209139,-4.05812251e-16 24,1.790861 24,4 L24,18 C24,20.209139 22.209139,22 20,22 L6.46289766,22 C4.25375866,22 2.46289766,20.209139 2.46289766,18 L2.46289766,11.3797667 L2.46289766,11.3797667 L2.46289766,4 C2.46289766,1.790861 4.25375866,4.05812251e-16 6.46289766,0 Z" id="Rectangle"></path>
            </g>
            <g id="B" transform="translate(11.493500, 12.759000) rotate(-90.000000) translate(-11.493500, -12.759000) translate(7.691000, 8.209000)" fill="#FFFFFF" fill-rule="nonzero">
                <path d="M5.733,4.407 C6.331,4.537 6.7925,4.79483333 7.1175,5.1805 C7.4425,5.56616667 7.605,6.06233333 7.605,6.669 C7.605,7.449 7.31683333,8.04916667 6.7405,8.4695 C6.16416667,8.88983333 5.31266667,9.1 4.186,9.1 L-2.32494827e-13,9.1 L-2.32494827e-13,0 L3.926,0 C4.94,0 5.7265,0.203666667 6.2855,0.611 C6.8445,1.01833333 7.124,1.59466667 7.124,2.34 C7.124,2.84266667 7.0005,3.2695 6.7535,3.6205 C6.5065,3.9715 6.16633333,4.23366667 5.733,4.407 Z M0.962,0.793 L0.962,4.095 L3.861,4.095 C4.59766667,4.095 5.16533333,3.95416667 5.564,3.6725 C5.96266667,3.39083333 6.162,2.98133333 6.162,2.444 C6.162,1.90666667 5.96266667,1.49716667 5.564,1.2155 C5.16533333,0.933833333 4.59766667,0.793 3.861,0.793 L0.962,0.793 Z M4.173,8.307 C4.98766667,8.307 5.603,8.16833333 6.019,7.891 C6.435,7.61366667 6.643,7.18033333 6.643,6.591 C6.643,5.45566667 5.81966667,4.888 4.173,4.888 L0.962,4.888 L0.962,8.307 L4.173,8.307 Z" id="Shape"></path>
            </g>
        </g>
        <rect id="Rectangle" stroke="#202020" stroke-width="21" x="10.5" y="10.5" width="745" height="445" rx="28"></rect>
        <rect id="Rectangle-Copy-107" stroke="#BBC3C6" fill="#FFFFFF" fill-rule="nonzero" x="163.5" y="296.5" width="90" height="19" rx="9.5"></rect>
        <path d="M182.5,303.5 C182.5,304.883333 181.379167,306 180,306 C178.620833,306 177.5,304.883333 177.5,303.5 C177.5,302.120833 178.620833,301 180,301 C181.379167,301 182.5,302.120833 182.5,303.5 Z M175,310.166667 C175,308.5 178.333333,307.583333 180,307.583333 C181.666667,307.583333 185,308.5 185,310.166667 L185,311 L175,311 L175,310.166667 Z" id="Shape-Copy-3" fill="#1E3D49" fill-rule="nonzero"></path>
        <path d="M131.5,333.5 C131.5,334.883333 130.379167,336 129,336 C127.620833,336 126.5,334.883333 126.5,333.5 C126.5,332.120833 127.620833,331 129,331 C130.379167,331 131.5,332.120833 131.5,333.5 Z M124,340.166667 C124,338.5 127.333333,337.583333 129,337.583333 C130.666667,337.583333 134,338.5 134,340.166667 L134,341 L124,341 L124,340.166667 Z" id="Shape-Copy-Copy" fill="#1E3D49" fill-rule="nonzero"></path>
        <g id="denim-copy" transform="translate(191.506000, 300.838000)" fill="#000000" fill-rule="nonzero">
            <g id="denim">
                <path d="M5.863,0 L5.863,8.162 L5.115,8.162 L5.115,7.018 C4.88033333,7.40666667 4.5705,7.70366667 4.1855,7.909 C3.8005,8.11433333 3.366,8.217 2.882,8.217 C2.33933333,8.217 1.848,8.09233333 1.408,7.843 C0.968,7.59366667 0.623333333,7.24533333 0.374,6.798 C0.124666667,6.35066667 0,5.841 0,5.269 C0,4.697 0.124666667,4.18733333 0.374,3.74 C0.623333333,3.29266667 0.968,2.94616667 1.408,2.7005 C1.848,2.45483333 2.33933333,2.332 2.882,2.332 C3.35133333,2.332 3.77483333,2.42916667 4.1525,2.6235 C4.53016667,2.81783333 4.84,3.102 5.082,3.476 L5.082,0 L5.863,0 Z M2.948,7.524 C3.35133333,7.524 3.71616667,7.4305 4.0425,7.2435 C4.36883333,7.0565 4.6255,6.79066667 4.8125,6.446 C4.9995,6.10133333 5.093,5.709 5.093,5.269 C5.093,4.829 4.9995,4.43666667 4.8125,4.092 C4.6255,3.74733333 4.36883333,3.4815 4.0425,3.2945 C3.71616667,3.1075 3.35133333,3.014 2.948,3.014 C2.53733333,3.014 2.16883333,3.1075 1.8425,3.2945 C1.51616667,3.4815 1.2595,3.74733333 1.0725,4.092 C0.8855,4.43666667 0.792,4.829 0.792,5.269 C0.792,5.709 0.8855,6.10133333 1.0725,6.446 C1.2595,6.79066667 1.51616667,7.0565 1.8425,7.2435 C2.16883333,7.4305 2.53733333,7.524 2.948,7.524 Z" id="Shape"></path>
                <path d="M13.079,5.511 L8.239,5.511 C8.283,6.11233333 8.514,6.59816667 8.932,6.9685 C9.35,7.33883333 9.878,7.524 10.516,7.524 C10.8753333,7.524 11.2053333,7.45983333 11.506,7.3315 C11.8066667,7.20316667 12.067,7.01433333 12.287,6.765 L12.727,7.271 C12.4703333,7.579 12.1495,7.81366667 11.7645,7.975 C11.3795,8.13633333 10.956,8.217 10.494,8.217 C9.9,8.217 9.37383333,8.0905 8.9155,7.8375 C8.45716667,7.5845 8.09966667,7.23433333 7.843,6.787 C7.58633333,6.33966667 7.458,5.83366667 7.458,5.269 C7.458,4.70433333 7.58083333,4.19833333 7.8265,3.751 C8.07216667,3.30366667 8.4095,2.95533333 8.8385,2.706 C9.2675,2.45666667 9.74966667,2.332 10.285,2.332 C10.8203333,2.332 11.3006667,2.45666667 11.726,2.706 C12.1513333,2.95533333 12.485,3.30183333 12.727,3.7455 C12.969,4.18916667 13.09,4.697 13.09,5.269 L13.079,5.511 Z M10.285,3.003 C9.72766667,3.003 9.26016667,3.18083333 8.8825,3.5365 C8.50483333,3.89216667 8.29033333,4.356 8.239,4.928 L12.342,4.928 C12.2906667,4.356 12.0761667,3.89216667 11.6985,3.5365 C11.3208333,3.18083333 10.8496667,3.003 10.285,3.003 Z" id="Shape"></path>
                <path d="M17.633,2.332 C18.359,2.332 18.9365,2.54283333 19.3655,2.9645 C19.7945,3.38616667 20.009,4.00033333 20.009,4.807 L20.009,8.162 L19.228,8.162 L19.228,4.884 C19.228,4.28266667 19.0776667,3.82433333 18.777,3.509 C18.4763333,3.19366667 18.0473333,3.036 17.49,3.036 C16.8666667,3.036 16.3735,3.22116667 16.0105,3.5915 C15.6475,3.96183333 15.466,4.47333333 15.466,5.126 L15.466,8.162 L14.685,8.162 L14.685,2.376 L15.433,2.376 L15.433,3.443 C15.6456667,3.091 15.9408333,2.81783333 16.3185,2.6235 C16.6961667,2.42916667 17.1343333,2.332 17.633,2.332 Z" id="Path"></path>
                <path d="M22.132,2.376 L22.913,2.376 L22.913,8.162 L22.132,8.162 L22.132,2.376 Z M22.528,1.111 C22.3666667,1.111 22.231,1.056 22.121,0.946 C22.011,0.836 21.956,0.704 21.956,0.55 C21.956,0.403333333 22.011,0.275 22.121,0.165 C22.231,0.055 22.3666667,0 22.528,0 C22.6893333,0 22.825,0.0531666667 22.935,0.1595 C23.045,0.265833333 23.1,0.392333333 23.1,0.539 C23.1,0.700333333 23.045,0.836 22.935,0.946 C22.825,1.056 22.6893333,1.111 22.528,1.111 Z" id="Shape"></path>
                <path d="M32.307,2.332 C33.033,2.332 33.6031667,2.541 34.0175,2.959 C34.4318333,3.377 34.639,3.993 34.639,4.807 L34.639,8.162 L33.858,8.162 L33.858,4.884 C33.858,4.28266667 33.7131667,3.82433333 33.4235,3.509 C33.1338333,3.19366667 32.725,3.036 32.197,3.036 C31.5956667,3.036 31.1226667,3.22116667 30.778,3.5915 C30.4333333,3.96183333 30.261,4.47333333 30.261,5.126 L30.261,8.162 L29.48,8.162 L29.48,4.884 C29.48,4.28266667 29.3351667,3.82433333 29.0455,3.509 C28.7558333,3.19366667 28.3433333,3.036 27.808,3.036 C27.214,3.036 26.7428333,3.22116667 26.3945,3.5915 C26.0461667,3.96183333 25.872,4.47333333 25.872,5.126 L25.872,8.162 L25.091,8.162 L25.091,2.376 L25.839,2.376 L25.839,3.432 C26.0443333,3.08 26.3303333,2.80866667 26.697,2.618 C27.0636667,2.42733333 27.4853333,2.332 27.962,2.332 C28.446,2.332 28.8658333,2.43466667 29.2215,2.64 C29.5771667,2.84533333 29.843,3.14966667 30.019,3.553 C30.2316667,3.17166667 30.5378333,2.87283333 30.9375,2.6565 C31.3371667,2.44016667 31.7936667,2.332 32.307,2.332 Z" id="Path"></path>
            </g>
        </g>
        <g id="Curated-Copy" transform="translate(140.520000, 333.580000)" fill="#BBC3C6" fill-rule="nonzero">
            <g id="Curated">
                <path d="M3.66,7.48 C2.96666667,7.48 2.34166667,7.32666667 1.785,7.02 C1.22833333,6.71333333 0.791666667,6.28833333 0.475,5.745 C0.158333333,5.20166667 0,4.59333333 0,3.92 C0,3.24666667 0.158333333,2.63833333 0.475,2.095 C0.791666667,1.55166667 1.23,1.12666667 1.79,0.82 C2.35,0.513333333 2.97666667,0.36 3.67,0.36 C4.19,0.36 4.67,0.446666667 5.11,0.62 C5.55,0.793333333 5.92333333,1.04666667 6.23,1.38 L5.76,1.85 C5.21333333,1.29666667 4.52333333,1.02 3.69,1.02 C3.13666667,1.02 2.63333333,1.14666667 2.18,1.4 C1.72666667,1.65333333 1.37166667,2 1.115,2.44 C0.858333333,2.88 0.73,3.37333333 0.73,3.92 C0.73,4.46666667 0.858333333,4.96 1.115,5.4 C1.37166667,5.84 1.72666667,6.18666667 2.18,6.44 C2.63333333,6.69333333 3.13666667,6.82 3.69,6.82 C4.53,6.82 5.22,6.54 5.76,5.98 L6.23,6.45 C5.92333333,6.78333333 5.54833333,7.03833333 5.105,7.215 C4.66166667,7.39166667 4.18,7.48 3.66,7.48 Z" id="Path"></path>
                <path d="M12.22,2.16 L12.22,7.42 L11.54,7.42 L11.54,6.46 C11.3533333,6.78 11.0966667,7.02833333 10.77,7.205 C10.4433333,7.38166667 10.07,7.47 9.65,7.47 C8.96333333,7.47 8.42166667,7.27833333 8.025,6.895 C7.62833333,6.51166667 7.43,5.95 7.43,5.21 L7.43,2.16 L8.14,2.16 L8.14,5.14 C8.14,5.69333333 8.27666667,6.11333333 8.55,6.4 C8.82333333,6.68666667 9.21333333,6.83 9.72,6.83 C10.2733333,6.83 10.71,6.66166667 11.03,6.325 C11.35,5.98833333 11.51,5.52 11.51,4.92 L11.51,2.16 L12.22,2.16 Z" id="Path"></path>
                <path d="M14.89,3.19 C15.0566667,2.83666667 15.305,2.57 15.635,2.39 C15.965,2.21 16.3733333,2.12 16.86,2.12 L16.86,2.81 L16.69,2.8 C16.1366667,2.8 15.7033333,2.97 15.39,3.31 C15.0766667,3.65 14.92,4.12666667 14.92,4.74 L14.92,7.42 L14.21,7.42 L14.21,2.16 L14.89,2.16 L14.89,3.19 Z" id="Path"></path>
                <path d="M19.97,2.12 C20.6566667,2.12 21.1833333,2.29166667 21.55,2.635 C21.9166667,2.97833333 22.1,3.48666667 22.1,4.16 L22.1,7.42 L21.42,7.42 L21.42,6.6 C21.26,6.87333333 21.025,7.08666667 20.715,7.24 C20.405,7.39333333 20.0366667,7.47 19.61,7.47 C19.0233333,7.47 18.5566667,7.33 18.21,7.05 C17.8633333,6.77 17.69,6.4 17.69,5.94 C17.69,5.49333333 17.8516667,5.13333333 18.175,4.86 C18.4983333,4.58666667 19.0133333,4.45 19.72,4.45 L21.39,4.45 L21.39,4.13 C21.39,3.67666667 21.2633333,3.33166667 21.01,3.095 C20.7566667,2.85833333 20.3866667,2.74 19.9,2.74 C19.5666667,2.74 19.2466667,2.795 18.94,2.905 C18.6333333,3.015 18.37,3.16666667 18.15,3.36 L17.83,2.83 C18.0966667,2.60333333 18.4166667,2.42833333 18.79,2.305 C19.1633333,2.18166667 19.5566667,2.12 19.97,2.12 Z M19.72,6.91 C20.12,6.91 20.4633333,6.81833333 20.75,6.635 C21.0366667,6.45166667 21.25,6.18666667 21.39,5.84 L21.39,4.98 L19.74,4.98 C18.84,4.98 18.39,5.29333333 18.39,5.92 C18.39,6.22666667 18.5066667,6.46833333 18.74,6.645 C18.9733333,6.82166667 19.3,6.91 19.72,6.91 Z" id="Shape"></path>
                <path d="M26.8,7.1 C26.6666667,7.22 26.5016667,7.31166667 26.305,7.375 C26.1083333,7.43833333 25.9033333,7.47 25.69,7.47 C25.1966667,7.47 24.8166667,7.33666667 24.55,7.07 C24.2833333,6.80333333 24.15,6.42666667 24.15,5.94 L24.15,2.76 L23.21,2.76 L23.21,2.16 L24.15,2.16 L24.15,1.01 L24.86,1.01 L24.86,2.16 L26.46,2.16 L26.46,2.76 L24.86,2.76 L24.86,5.9 C24.86,6.21333333 24.9383333,6.45166667 25.095,6.615 C25.2516667,6.77833333 25.4766667,6.86 25.77,6.86 C25.9166667,6.86 26.0583333,6.83666667 26.195,6.79 C26.3316667,6.74333333 26.45,6.67666667 26.55,6.59 L26.8,7.1 Z" id="Path"></path>
                <path d="M32.48,5.01 L28.08,5.01 C28.12,5.55666667 28.33,5.99833333 28.71,6.335 C29.09,6.67166667 29.57,6.84 30.15,6.84 C30.4766667,6.84 30.7766667,6.78166667 31.05,6.665 C31.3233333,6.54833333 31.56,6.37666667 31.76,6.15 L32.16,6.61 C31.9266667,6.89 31.635,7.10333333 31.285,7.25 C30.935,7.39666667 30.55,7.47 30.13,7.47 C29.59,7.47 29.1116667,7.355 28.695,7.125 C28.2783333,6.895 27.9533333,6.57666667 27.72,6.17 C27.4866667,5.76333333 27.37,5.30333333 27.37,4.79 C27.37,4.27666667 27.4816667,3.81666667 27.705,3.41 C27.9283333,3.00333333 28.235,2.68666667 28.625,2.46 C29.015,2.23333333 29.4533333,2.12 29.94,2.12 C30.4266667,2.12 30.8633333,2.23333333 31.25,2.46 C31.6366667,2.68666667 31.94,3.00166667 32.16,3.405 C32.38,3.80833333 32.49,4.27 32.49,4.79 L32.48,5.01 Z M29.94,2.73 C29.4333333,2.73 29.0083333,2.89166667 28.665,3.215 C28.3216667,3.53833333 28.1266667,3.96 28.08,4.48 L31.81,4.48 C31.7633333,3.96 31.5683333,3.53833333 31.225,3.215 C30.8816667,2.89166667 30.4533333,2.73 29.94,2.73 Z" id="Shape"></path>
                <path d="M38.74,0 L38.74,7.42 L38.06,7.42 L38.06,6.38 C37.8466667,6.73333333 37.565,7.00333333 37.215,7.19 C36.865,7.37666667 36.47,7.47 36.03,7.47 C35.5366667,7.47 35.09,7.35666667 34.69,7.13 C34.29,6.90333333 33.9766667,6.58666667 33.75,6.18 C33.5233333,5.77333333 33.41,5.31 33.41,4.79 C33.41,4.27 33.5233333,3.80666667 33.75,3.4 C33.9766667,2.99333333 34.29,2.67833333 34.69,2.455 C35.09,2.23166667 35.5366667,2.12 36.03,2.12 C36.4566667,2.12 36.8416667,2.20833333 37.185,2.385 C37.5283333,2.56166667 37.81,2.82 38.03,3.16 L38.03,0 L38.74,0 Z M36.09,6.84 C36.4566667,6.84 36.7883333,6.755 37.085,6.585 C37.3816667,6.415 37.615,6.17333333 37.785,5.86 C37.955,5.54666667 38.04,5.19 38.04,4.79 C38.04,4.39 37.955,4.03333333 37.785,3.72 C37.615,3.40666667 37.3816667,3.165 37.085,2.995 C36.7883333,2.825 36.4566667,2.74 36.09,2.74 C35.7166667,2.74 35.3816667,2.825 35.085,2.995 C34.7883333,3.165 34.555,3.40666667 34.385,3.72 C34.215,4.03333333 34.13,4.39 34.13,4.79 C34.13,5.19 34.215,5.54666667 34.385,5.86 C34.555,6.17333333 34.7883333,6.415 35.085,6.585 C35.3816667,6.755 35.7166667,6.84 36.09,6.84 Z" id="Shape"></path>
            </g>
        </g>
        <g id="Group-7-Copy" transform="translate(261.500000, 296.500000)">
            <g id="Group-5-Copy" fill-rule="nonzero">
                <g id="Group-2" fill="#FFFFFF" stroke="#C9C9C9">
                    <rect id="Rectangle" x="0" y="0" width="84" height="19" rx="9.5"></rect>
                </g>
                <path d="M19,6.99999997 C19,8.38333332 17.8791667,9.49999997 16.5,9.49999997 C15.1208333,9.49999997 14,8.38333332 14,6.99999997 C14,5.62083331 15.1208333,4.49999997 16.5,4.49999997 C17.8791667,4.49999997 19,5.62083331 19,6.99999997 Z M11.5,13.6666667 C11.5,12 14.8333333,11.0833333 16.5,11.0833333 C18.1666667,11.0833333 21.5,12 21.5,13.6666667 L21.5,14.5 L11.5,14.5 L11.5,13.6666667 Z" id="Shape" fill="#1E3D49"></path>
                <g id="shoes" transform="translate(25.786000, 4.338000)" fill="#000000">
                    <path d="M2.354,8.217 C1.88466667,8.217 1.4355,8.14916667 1.0065,8.0135 C0.5775,7.87783333 0.242,7.70733333 0,7.502 L0.352,6.886 C0.594,7.07666667 0.898333333,7.2325 1.265,7.3535 C1.63166667,7.4745 2.013,7.535 2.409,7.535 C2.937,7.535 3.3275,7.4525 3.5805,7.2875 C3.8335,7.1225 3.96,6.88966667 3.96,6.589 C3.96,6.37633333 3.89033333,6.2095 3.751,6.0885 C3.61166667,5.9675 3.43566667,5.87583333 3.223,5.8135 C3.01033333,5.75116667 2.728,5.69066667 2.376,5.632 C1.90666667,5.544 1.529,5.45416667 1.243,5.3625 C0.957,5.27083333 0.713166667,5.115 0.5115,4.895 C0.309833333,4.675 0.209,4.37066667 0.209,3.982 C0.209,3.498 0.410666667,3.102 0.814,2.794 C1.21733333,2.486 1.77833333,2.332 2.497,2.332 C2.871,2.332 3.245,2.3815 3.619,2.4805 C3.993,2.5795 4.301,2.70966667 4.543,2.871 L4.202,3.498 C3.72533333,3.168 3.157,3.003 2.497,3.003 C1.99833333,3.003 1.6225,3.091 1.3695,3.267 C1.1165,3.443 0.99,3.674 0.99,3.96 C0.99,4.18 1.0615,4.356 1.2045,4.488 C1.3475,4.62 1.52533333,4.71716667 1.738,4.7795 C1.95066667,4.84183333 2.244,4.906 2.618,4.972 C3.08,5.06 3.45033333,5.148 3.729,5.236 C4.00766667,5.324 4.246,5.47433333 4.444,5.687 C4.642,5.89966667 4.741,6.193 4.741,6.567 C4.741,7.073 4.53016667,7.4745 4.1085,7.7715 C3.68683333,8.0685 3.102,8.217 2.354,8.217 Z" id="Path"></path>
                    <path d="M9.13,2.332 C9.856,2.332 10.4335,2.54283333 10.8625,2.9645 C11.2915,3.38616667 11.506,4.00033333 11.506,4.807 L11.506,8.162 L10.725,8.162 L10.725,4.884 C10.725,4.28266667 10.5746667,3.82433333 10.274,3.509 C9.97333333,3.19366667 9.54433333,3.036 8.987,3.036 C8.36366667,3.036 7.8705,3.22116667 7.5075,3.5915 C7.1445,3.96183333 6.963,4.47333333 6.963,5.126 L6.963,8.162 L6.182,8.162 L6.182,0 L6.963,0 L6.963,3.388 C7.17566667,3.05066667 7.469,2.79033333 7.843,2.607 C8.217,2.42366667 8.646,2.332 9.13,2.332 Z" id="Path"></path>
                    <path d="M16.016,8.217 C15.4586667,8.217 14.9563333,8.0905 14.509,7.8375 C14.0616667,7.5845 13.7096667,7.23433333 13.453,6.787 C13.1963333,6.33966667 13.068,5.83366667 13.068,5.269 C13.068,4.70433333 13.1963333,4.19833333 13.453,3.751 C13.7096667,3.30366667 14.0616667,2.95533333 14.509,2.706 C14.9563333,2.45666667 15.4586667,2.332 16.016,2.332 C16.5733333,2.332 17.0756667,2.45666667 17.523,2.706 C17.9703333,2.95533333 18.3205,3.30366667 18.5735,3.751 C18.8265,4.19833333 18.953,4.70433333 18.953,5.269 C18.953,5.83366667 18.8265,6.33966667 18.5735,6.787 C18.3205,7.23433333 17.9703333,7.5845 17.523,7.8375 C17.0756667,8.0905 16.5733333,8.217 16.016,8.217 Z M16.016,7.524 C16.4266667,7.524 16.7951667,7.4305 17.1215,7.2435 C17.4478333,7.0565 17.7026667,6.79066667 17.886,6.446 C18.0693333,6.10133333 18.161,5.709 18.161,5.269 C18.161,4.829 18.0693333,4.43666667 17.886,4.092 C17.7026667,3.74733333 17.4478333,3.4815 17.1215,3.2945 C16.7951667,3.1075 16.4266667,3.014 16.016,3.014 C15.6053333,3.014 15.2368333,3.1075 14.9105,3.2945 C14.5841667,3.4815 14.3275,3.74733333 14.1405,4.092 C13.9535,4.43666667 13.86,4.829 13.86,5.269 C13.86,5.709 13.9535,6.10133333 14.1405,6.446 C14.3275,6.79066667 14.5841667,7.0565 14.9105,7.2435 C15.2368333,7.4305 15.6053333,7.524 16.016,7.524 Z" id="Shape"></path>
                    <path d="M25.586,5.511 L20.746,5.511 C20.79,6.11233333 21.021,6.59816667 21.439,6.9685 C21.857,7.33883333 22.385,7.524 23.023,7.524 C23.3823333,7.524 23.7123333,7.45983333 24.013,7.3315 C24.3136667,7.20316667 24.574,7.01433333 24.794,6.765 L25.234,7.271 C24.9773333,7.579 24.6565,7.81366667 24.2715,7.975 C23.8865,8.13633333 23.463,8.217 23.001,8.217 C22.407,8.217 21.8808333,8.0905 21.4225,7.8375 C20.9641667,7.5845 20.6066667,7.23433333 20.35,6.787 C20.0933333,6.33966667 19.965,5.83366667 19.965,5.269 C19.965,4.70433333 20.0878333,4.19833333 20.3335,3.751 C20.5791667,3.30366667 20.9165,2.95533333 21.3455,2.706 C21.7745,2.45666667 22.2566667,2.332 22.792,2.332 C23.3273333,2.332 23.8076667,2.45666667 24.233,2.706 C24.6583333,2.95533333 24.992,3.30183333 25.234,3.7455 C25.476,4.18916667 25.597,4.697 25.597,5.269 L25.586,5.511 Z M22.792,3.003 C22.2346667,3.003 21.7671667,3.18083333 21.3895,3.5365 C21.0118333,3.89216667 20.7973333,4.356 20.746,4.928 L24.849,4.928 C24.7976667,4.356 24.5831667,3.89216667 24.2055,3.5365 C23.8278333,3.18083333 23.3566667,3.003 22.792,3.003 Z" id="Shape"></path>
                    <path d="M28.743,8.217 C28.2736667,8.217 27.8245,8.14916667 27.3955,8.0135 C26.9665,7.87783333 26.631,7.70733333 26.389,7.502 L26.741,6.886 C26.983,7.07666667 27.2873333,7.2325 27.654,7.3535 C28.0206667,7.4745 28.402,7.535 28.798,7.535 C29.326,7.535 29.7165,7.4525 29.9695,7.2875 C30.2225,7.1225 30.349,6.88966667 30.349,6.589 C30.349,6.37633333 30.2793333,6.2095 30.14,6.0885 C30.0006667,5.9675 29.8246667,5.87583333 29.612,5.8135 C29.3993333,5.75116667 29.117,5.69066667 28.765,5.632 C28.2956667,5.544 27.918,5.45416667 27.632,5.3625 C27.346,5.27083333 27.1021667,5.115 26.9005,4.895 C26.6988333,4.675 26.598,4.37066667 26.598,3.982 C26.598,3.498 26.7996667,3.102 27.203,2.794 C27.6063333,2.486 28.1673333,2.332 28.886,2.332 C29.26,2.332 29.634,2.3815 30.008,2.4805 C30.382,2.5795 30.69,2.70966667 30.932,2.871 L30.591,3.498 C30.1143333,3.168 29.546,3.003 28.886,3.003 C28.3873333,3.003 28.0115,3.091 27.7585,3.267 C27.5055,3.443 27.379,3.674 27.379,3.96 C27.379,4.18 27.4505,4.356 27.5935,4.488 C27.7365,4.62 27.9143333,4.71716667 28.127,4.7795 C28.3396667,4.84183333 28.633,4.906 29.007,4.972 C29.469,5.06 29.8393333,5.148 30.118,5.236 C30.3966667,5.324 30.635,5.47433333 30.833,5.687 C31.031,5.89966667 31.13,6.193 31.13,6.567 C31.13,7.073 30.9191667,7.4745 30.4975,7.7715 C30.0758333,8.0685 29.491,8.217 28.743,8.217 Z" id="Path"></path>
                </g>
            </g>
            <g id="Group" stroke-linecap="round" stroke-linejoin="round" transform="translate(66.833333, 6.833333)" stroke="#8E9EA4" stroke-width="1.84300311">
                <g id="Icon/Search-Copy-3" transform="translate(2.666667, 2.666667) rotate(-90.000000) translate(-2.666667, -2.666667) ">
                    <path d="M-2.22044605e-16,5.33333334 L5.33333334,-2.22044605e-16 M5.33333334,5.33333334 L-2.22044605e-16,-2.22044605e-16" id="Combined-Shape"></path>
                </g>
            </g>
        </g>
        <g id="Group-2-Copy" transform="translate(526.500000, 296.500000)" fill="#FFFFFF" fill-rule="nonzero" stroke="#C9C9C9">
            <rect id="Rectangle" x="0" y="0" width="83" height="19" rx="9.5"></rect>
        </g>
        <g id="jewelry-copy" transform="translate(538.010000, 300.827000)" fill="#000000" fill-rule="nonzero">
            <g id="jewelry">
                <path d="M1.221,10.362 C0.979,10.362 0.749833333,10.3308333 0.5335,10.2685 C0.317166667,10.2061667 0.139333333,10.1126667 0,9.988 L0.275,9.394 C0.502333333,9.592 0.803,9.691 1.177,9.691 C1.485,9.691 1.7215,9.59933333 1.8865,9.416 C2.0515,9.23266667 2.134,8.96133333 2.134,8.602 L2.134,2.387 L2.915,2.387 L2.915,8.602 C2.915,9.14466667 2.76833333,9.57366667 2.475,9.889 C2.18166667,10.2043333 1.76366667,10.362 1.221,10.362 Z M2.53,1.111 C2.36866667,1.111 2.233,1.056 2.123,0.946 C2.013,0.836 1.958,0.704 1.958,0.55 C1.958,0.403333333 2.013,0.275 2.123,0.165 C2.233,0.055 2.36866667,0 2.53,0 C2.69133333,0 2.827,0.0531666667 2.937,0.1595 C3.047,0.265833333 3.102,0.392333333 3.102,0.539 C3.102,0.700333333 3.047,0.836 2.937,0.946 C2.827,1.056 2.69133333,1.111 2.53,1.111 Z" id="Shape"></path>
                <path d="M10.131,5.522 L5.291,5.522 C5.335,6.12333333 5.566,6.60916667 5.984,6.9795 C6.402,7.34983333 6.93,7.535 7.568,7.535 C7.92733333,7.535 8.25733333,7.47083333 8.558,7.3425 C8.85866667,7.21416667 9.119,7.02533333 9.339,6.776 L9.779,7.282 C9.52233333,7.59 9.2015,7.82466667 8.8165,7.986 C8.4315,8.14733333 8.008,8.228 7.546,8.228 C6.952,8.228 6.42583333,8.1015 5.9675,7.8485 C5.50916667,7.5955 5.15166667,7.24533333 4.895,6.798 C4.63833333,6.35066667 4.51,5.84466667 4.51,5.28 C4.51,4.71533333 4.63283333,4.20933333 4.8785,3.762 C5.12416667,3.31466667 5.4615,2.96633333 5.8905,2.717 C6.3195,2.46766667 6.80166667,2.343 7.337,2.343 C7.87233333,2.343 8.35266667,2.46766667 8.778,2.717 C9.20333333,2.96633333 9.537,3.31283333 9.779,3.7565 C10.021,4.20016667 10.142,4.708 10.142,5.28 L10.131,5.522 Z M7.337,3.014 C6.77966667,3.014 6.31216667,3.19183333 5.9345,3.5475 C5.55683333,3.90316667 5.34233333,4.367 5.291,4.939 L9.394,4.939 C9.34266667,4.367 9.12816667,3.90316667 8.7505,3.5475 C8.37283333,3.19183333 7.90166667,3.014 7.337,3.014 Z" id="Shape"></path>
                <polygon id="Path" points="20.119 2.387 17.93 8.173 17.193 8.173 15.367 3.432 13.541 8.173 12.804 8.173 10.626 2.387 11.374 2.387 13.189 7.304 15.048 2.387 15.719 2.387 17.567 7.304 19.404 2.387"></polygon>
                <path d="M26.169,5.522 L21.329,5.522 C21.373,6.12333333 21.604,6.60916667 22.022,6.9795 C22.44,7.34983333 22.968,7.535 23.606,7.535 C23.9653333,7.535 24.2953333,7.47083333 24.596,7.3425 C24.8966667,7.21416667 25.157,7.02533333 25.377,6.776 L25.817,7.282 C25.5603333,7.59 25.2395,7.82466667 24.8545,7.986 C24.4695,8.14733333 24.046,8.228 23.584,8.228 C22.99,8.228 22.4638333,8.1015 22.0055,7.8485 C21.5471667,7.5955 21.1896667,7.24533333 20.933,6.798 C20.6763333,6.35066667 20.548,5.84466667 20.548,5.28 C20.548,4.71533333 20.6708333,4.20933333 20.9165,3.762 C21.1621667,3.31466667 21.4995,2.96633333 21.9285,2.717 C22.3575,2.46766667 22.8396667,2.343 23.375,2.343 C23.9103333,2.343 24.3906667,2.46766667 24.816,2.717 C25.2413333,2.96633333 25.575,3.31283333 25.817,3.7565 C26.059,4.20016667 26.18,4.708 26.18,5.28 L26.169,5.522 Z M23.375,3.014 C22.8176667,3.014 22.3501667,3.19183333 21.9725,3.5475 C21.5948333,3.90316667 21.3803333,4.367 21.329,4.939 L25.432,4.939 C25.3806667,4.367 25.1661667,3.90316667 24.7885,3.5475 C24.4108333,3.19183333 23.9396667,3.014 23.375,3.014 Z" id="Shape"></path>
                <polygon id="Path" points="27.775 0.011 28.556 0.011 28.556 8.173 27.775 8.173"></polygon>
                <path d="M31.482,3.52 C31.6653333,3.13133333 31.9385,2.838 32.3015,2.64 C32.6645,2.442 33.1136667,2.343 33.649,2.343 L33.649,3.102 L33.462,3.091 C32.8533333,3.091 32.3766667,3.278 32.032,3.652 C31.6873333,4.026 31.515,4.55033333 31.515,5.225 L31.515,8.173 L30.734,8.173 L30.734,2.387 L31.482,2.387 L31.482,3.52 Z" id="Path"></path>
                <path d="M40.172,2.387 L37.279,8.866 C37.0443333,9.40866667 36.773,9.79366667 36.465,10.021 C36.157,10.2483333 35.7866667,10.362 35.354,10.362 C35.0753333,10.362 34.815,10.318 34.573,10.23 C34.331,10.142 34.122,10.01 33.946,9.834 L34.309,9.251 C34.6023333,9.54433333 34.9543333,9.691 35.365,9.691 C35.629,9.691 35.8545,9.61766667 36.0415,9.471 C36.2285,9.32433333 36.4026667,9.075 36.564,8.723 L36.817,8.162 L34.232,2.387 L35.046,2.387 L37.224,7.304 L39.402,2.387 L40.172,2.387 Z" id="Path"></path>
            </g>
        </g>
        <g id="Group-Copy-8" stroke-linecap="round" stroke-linejoin="round" transform="translate(591.333333, 303.333333)" stroke="#8E9EA4" stroke-width="1.84300311">
            <g id="Icon/Search-Copy-3" transform="translate(2.666667, 2.666667) rotate(-90.000000) translate(-2.666667, -2.666667) ">
                <path d="M-2.22044605e-16,5.33333334 L5.33333334,-2.22044605e-16 M5.33333334,5.33333334 L-2.22044605e-16,-2.22044605e-16" id="Combined-Shape"></path>
            </g>
        </g>
        <g id="Group-8-Copy" transform="translate(363.500000, 296.500000)">
            <rect id="Rectangle" stroke="#C9C9C9" fill="#FFFFFF" fill-rule="nonzero" x="0" y="0" width="77" height="19" rx="9.5"></rect>
            <g id="t-shirt" transform="translate(14.687000, 4.338000)" fill="#000000" fill-rule="nonzero">
                <g>
                    <path d="M3.949,7.81 C3.80233333,7.942 3.62083333,8.04283333 3.4045,8.1125 C3.18816667,8.18216667 2.96266667,8.217 2.728,8.217 C2.18533333,8.217 1.76733333,8.07033333 1.474,7.777 C1.18066667,7.48366667 1.034,7.06933333 1.034,6.534 L1.034,3.036 L0,3.036 L0,2.376 L1.034,2.376 L1.034,1.111 L1.815,1.111 L1.815,2.376 L3.575,2.376 L3.575,3.036 L1.815,3.036 L1.815,6.49 C1.815,6.83466667 1.90116667,7.09683333 2.0735,7.2765 C2.24583333,7.45616667 2.49333333,7.546 2.816,7.546 C2.97733333,7.546 3.13316667,7.52033333 3.2835,7.469 C3.43383333,7.41766667 3.564,7.34433333 3.674,7.249 L3.949,7.81 Z" id="Path"></path>
                    <polygon id="Path" points="4.829 4.84 7.711 4.84 7.711 5.522 4.829 5.522"></polygon>
                    <path d="M11.011,8.217 C10.5416667,8.217 10.0925,8.14916667 9.6635,8.0135 C9.2345,7.87783333 8.899,7.70733333 8.657,7.502 L9.009,6.886 C9.251,7.07666667 9.55533333,7.2325 9.922,7.3535 C10.2886667,7.4745 10.67,7.535 11.066,7.535 C11.594,7.535 11.9845,7.4525 12.2375,7.2875 C12.4905,7.1225 12.617,6.88966667 12.617,6.589 C12.617,6.37633333 12.5473333,6.2095 12.408,6.0885 C12.2686667,5.9675 12.0926667,5.87583333 11.88,5.8135 C11.6673333,5.75116667 11.385,5.69066667 11.033,5.632 C10.5636667,5.544 10.186,5.45416667 9.9,5.3625 C9.614,5.27083333 9.37016667,5.115 9.1685,4.895 C8.96683333,4.675 8.866,4.37066667 8.866,3.982 C8.866,3.498 9.06766667,3.102 9.471,2.794 C9.87433333,2.486 10.4353333,2.332 11.154,2.332 C11.528,2.332 11.902,2.3815 12.276,2.4805 C12.65,2.5795 12.958,2.70966667 13.2,2.871 L12.859,3.498 C12.3823333,3.168 11.814,3.003 11.154,3.003 C10.6553333,3.003 10.2795,3.091 10.0265,3.267 C9.7735,3.443 9.647,3.674 9.647,3.96 C9.647,4.18 9.7185,4.356 9.8615,4.488 C10.0045,4.62 10.1823333,4.71716667 10.395,4.7795 C10.6076667,4.84183333 10.901,4.906 11.275,4.972 C11.737,5.06 12.1073333,5.148 12.386,5.236 C12.6646667,5.324 12.903,5.47433333 13.101,5.687 C13.299,5.89966667 13.398,6.193 13.398,6.567 C13.398,7.073 13.1871667,7.4745 12.7655,7.7715 C12.3438333,8.0685 11.759,8.217 11.011,8.217 Z" id="Path"></path>
                    <path d="M17.787,2.332 C18.513,2.332 19.0905,2.54283333 19.5195,2.9645 C19.9485,3.38616667 20.163,4.00033333 20.163,4.807 L20.163,8.162 L19.382,8.162 L19.382,4.884 C19.382,4.28266667 19.2316667,3.82433333 18.931,3.509 C18.6303333,3.19366667 18.2013333,3.036 17.644,3.036 C17.0206667,3.036 16.5275,3.22116667 16.1645,3.5915 C15.8015,3.96183333 15.62,4.47333333 15.62,5.126 L15.62,8.162 L14.839,8.162 L14.839,0 L15.62,0 L15.62,3.388 C15.8326667,3.05066667 16.126,2.79033333 16.5,2.607 C16.874,2.42366667 17.303,2.332 17.787,2.332 Z" id="Path"></path>
                    <path d="M22.286,2.376 L23.067,2.376 L23.067,8.162 L22.286,8.162 L22.286,2.376 Z M22.682,1.111 C22.5206667,1.111 22.385,1.056 22.275,0.946 C22.165,0.836 22.11,0.704 22.11,0.55 C22.11,0.403333333 22.165,0.275 22.275,0.165 C22.385,0.055 22.5206667,0 22.682,0 C22.8433333,0 22.979,0.0531666667 23.089,0.1595 C23.199,0.265833333 23.254,0.392333333 23.254,0.539 C23.254,0.700333333 23.199,0.836 23.089,0.946 C22.979,1.056 22.8433333,1.111 22.682,1.111 Z" id="Shape"></path>
                    <path d="M25.993,3.509 C26.1763333,3.12033333 26.4495,2.827 26.8125,2.629 C27.1755,2.431 27.6246667,2.332 28.16,2.332 L28.16,3.091 L27.973,3.08 C27.3643333,3.08 26.8876667,3.267 26.543,3.641 C26.1983333,4.015 26.026,4.53933333 26.026,5.214 L26.026,8.162 L25.245,8.162 L25.245,2.376 L25.993,2.376 L25.993,3.509 Z" id="Path"></path>
                    <path d="M32.868,7.81 C32.7213333,7.942 32.5398333,8.04283333 32.3235,8.1125 C32.1071667,8.18216667 31.8816667,8.217 31.647,8.217 C31.1043333,8.217 30.6863333,8.07033333 30.393,7.777 C30.0996667,7.48366667 29.953,7.06933333 29.953,6.534 L29.953,3.036 L28.919,3.036 L28.919,2.376 L29.953,2.376 L29.953,1.111 L30.734,1.111 L30.734,2.376 L32.494,2.376 L32.494,3.036 L30.734,3.036 L30.734,6.49 C30.734,6.83466667 30.8201667,7.09683333 30.9925,7.2765 C31.1648333,7.45616667 31.4123333,7.546 31.735,7.546 C31.8963333,7.546 32.0521667,7.52033333 32.2025,7.469 C32.3528333,7.41766667 32.483,7.34433333 32.593,7.249 L32.868,7.81 Z" id="Path"></path>
                </g>
            </g>
            <g id="Group" stroke-linecap="round" stroke-linejoin="round" transform="translate(59.833333, 6.833333)" stroke="#8E9EA4" stroke-width="1.84300311">
                <g id="Icon/Search-Copy-3" transform="translate(2.666667, 2.666667) rotate(-90.000000) translate(-2.666667, -2.666667) ">
                    <path d="M-2.22044605e-16,5.33333334 L5.33333334,-2.22044605e-16 M5.33333334,5.33333334 L-2.22044605e-16,-2.22044605e-16" id="Combined-Shape"></path>
                </g>
            </g>
        </g>
        <g id="Group-8-Copy-Copy" transform="translate(448.500000, 296.500000)">
            <rect id="Rectangle" stroke="#C9C9C9" fill="#FFFFFF" fill-rule="nonzero" x="0" y="0" width="70" height="19" rx="9.5"></rect>
            <g id="shirt" transform="translate(14.786000, 4.338000)" fill="#000000" fill-rule="nonzero">
                <g>
                    <path d="M2.354,8.217 C1.88466667,8.217 1.4355,8.14916667 1.0065,8.0135 C0.5775,7.87783333 0.242,7.70733333 0,7.502 L0.352,6.886 C0.594,7.07666667 0.898333333,7.2325 1.265,7.3535 C1.63166667,7.4745 2.013,7.535 2.409,7.535 C2.937,7.535 3.3275,7.4525 3.5805,7.2875 C3.8335,7.1225 3.96,6.88966667 3.96,6.589 C3.96,6.37633333 3.89033333,6.2095 3.751,6.0885 C3.61166667,5.9675 3.43566667,5.87583333 3.223,5.8135 C3.01033333,5.75116667 2.728,5.69066667 2.376,5.632 C1.90666667,5.544 1.529,5.45416667 1.243,5.3625 C0.957,5.27083333 0.713166667,5.115 0.5115,4.895 C0.309833333,4.675 0.209,4.37066667 0.209,3.982 C0.209,3.498 0.410666667,3.102 0.814,2.794 C1.21733333,2.486 1.77833333,2.332 2.497,2.332 C2.871,2.332 3.245,2.3815 3.619,2.4805 C3.993,2.5795 4.301,2.70966667 4.543,2.871 L4.202,3.498 C3.72533333,3.168 3.157,3.003 2.497,3.003 C1.99833333,3.003 1.6225,3.091 1.3695,3.267 C1.1165,3.443 0.99,3.674 0.99,3.96 C0.99,4.18 1.0615,4.356 1.2045,4.488 C1.3475,4.62 1.52533333,4.71716667 1.738,4.7795 C1.95066667,4.84183333 2.244,4.906 2.618,4.972 C3.08,5.06 3.45033333,5.148 3.729,5.236 C4.00766667,5.324 4.246,5.47433333 4.444,5.687 C4.642,5.89966667 4.741,6.193 4.741,6.567 C4.741,7.073 4.53016667,7.4745 4.1085,7.7715 C3.68683333,8.0685 3.102,8.217 2.354,8.217 Z" id="Path"></path>
                    <path d="M9.13,2.332 C9.856,2.332 10.4335,2.54283333 10.8625,2.9645 C11.2915,3.38616667 11.506,4.00033333 11.506,4.807 L11.506,8.162 L10.725,8.162 L10.725,4.884 C10.725,4.28266667 10.5746667,3.82433333 10.274,3.509 C9.97333333,3.19366667 9.54433333,3.036 8.987,3.036 C8.36366667,3.036 7.8705,3.22116667 7.5075,3.5915 C7.1445,3.96183333 6.963,4.47333333 6.963,5.126 L6.963,8.162 L6.182,8.162 L6.182,0 L6.963,0 L6.963,3.388 C7.17566667,3.05066667 7.469,2.79033333 7.843,2.607 C8.217,2.42366667 8.646,2.332 9.13,2.332 Z" id="Path"></path>
                    <path d="M13.629,2.376 L14.41,2.376 L14.41,8.162 L13.629,8.162 L13.629,2.376 Z M14.025,1.111 C13.8636667,1.111 13.728,1.056 13.618,0.946 C13.508,0.836 13.453,0.704 13.453,0.55 C13.453,0.403333333 13.508,0.275 13.618,0.165 C13.728,0.055 13.8636667,0 14.025,0 C14.1863333,0 14.322,0.0531666667 14.432,0.1595 C14.542,0.265833333 14.597,0.392333333 14.597,0.539 C14.597,0.700333333 14.542,0.836 14.432,0.946 C14.322,1.056 14.1863333,1.111 14.025,1.111 Z" id="Shape"></path>
                    <path d="M17.336,3.509 C17.5193333,3.12033333 17.7925,2.827 18.1555,2.629 C18.5185,2.431 18.9676667,2.332 19.503,2.332 L19.503,3.091 L19.316,3.08 C18.7073333,3.08 18.2306667,3.267 17.886,3.641 C17.5413333,4.015 17.369,4.53933333 17.369,5.214 L17.369,8.162 L16.588,8.162 L16.588,2.376 L17.336,2.376 L17.336,3.509 Z" id="Path"></path>
                    <path d="M24.211,7.81 C24.0643333,7.942 23.8828333,8.04283333 23.6665,8.1125 C23.4501667,8.18216667 23.2246667,8.217 22.99,8.217 C22.4473333,8.217 22.0293333,8.07033333 21.736,7.777 C21.4426667,7.48366667 21.296,7.06933333 21.296,6.534 L21.296,3.036 L20.262,3.036 L20.262,2.376 L21.296,2.376 L21.296,1.111 L22.077,1.111 L22.077,2.376 L23.837,2.376 L23.837,3.036 L22.077,3.036 L22.077,6.49 C22.077,6.83466667 22.1631667,7.09683333 22.3355,7.2765 C22.5078333,7.45616667 22.7553333,7.546 23.078,7.546 C23.2393333,7.546 23.3951667,7.52033333 23.5455,7.469 C23.6958333,7.41766667 23.826,7.34433333 23.936,7.249 L24.211,7.81 Z" id="Path"></path>
                </g>
            </g>
            <g id="Group" stroke-linecap="round" stroke-linejoin="round" transform="translate(50.833333, 6.833333)" stroke="#8E9EA4" stroke-width="1.84300311">
                <g id="Icon/Search-Copy-3" transform="translate(2.666667, 2.666667) rotate(-90.000000) translate(-2.666667, -2.666667) ">
                    <path d="M-2.22044605e-16,5.33333334 L5.33333334,-2.22044605e-16 M5.33333334,5.33333334 L-2.22044605e-16,-2.22044605e-16" id="Combined-Shape"></path>
                </g>
            </g>
        </g>
        <circle id="Oval-Copy-45" fill="#1E3D49" fill-rule="nonzero" cx="135.5" cy="305.5" r="11.5"></circle>
        <g id="Group-Copy-9" stroke-linecap="round" stroke-linejoin="round" transform="translate(131.257359, 301.257359)" stroke="#FFFFFF" stroke-width="1.84300311">
            <g id="Icon/Search" transform="translate(4.242641, 4.242641) rotate(-45.000000) translate(-4.242641, -4.242641) translate(1.242641, 1.242641)">
                <path d="M0,6 L6,0 M6,6 L0,0" id="Combined-Shape"></path>
            </g>
        </g>
        <g id="Group-Copy-10" stroke-linecap="round" stroke-linejoin="round" transform="translate(236.333333, 303.333333)" stroke="#8E9EA4" stroke-width="1.84300311">
            <g id="Icon/Search-Copy-3" transform="translate(2.666667, 2.666667) rotate(-90.000000) translate(-2.666667, -2.666667) ">
                <path d="M-2.22044605e-16,5.33333334 L5.33333334,-2.22044605e-16 M5.33333334,5.33333334 L-2.22044605e-16,-2.22044605e-16" id="Combined-Shape"></path>
            </g>
        </g>
        <path d="M639.354638,306.472578 L634.070654,300.967109 C633.901903,300.798358 633.901903,300.62961 634.070654,300.460859 L635.019872,299.51164 C635.209717,299.342889 635.378465,299.332343 635.526122,299.48 L641.98081,306.219453 C642.044092,306.282734 642.075732,306.367109 642.075732,306.472578 C642.075732,306.578047 642.044092,306.662421 641.98081,306.725703 L635.526122,313.465156 C635.357372,313.633907 635.188623,313.633907 635.019872,313.465156 L634.070654,312.484297 C633.901903,312.315546 633.901903,312.146797 634.070654,311.978047 L639.354638,306.472578 Z" id="Mask-Copy-2" fill="#8E9EA4" fill-rule="nonzero"></path>
        <rect id="Rectangle-Copy-11-Copy" stroke="#80C0A1" x="155.861607" y="288.609375" width="196" height="35" rx="8"></rect>
        <rect id="Rectangle-Copy-12-Copy" stroke="#8B6391" x="358.861607" y="288.609375" width="257" height="35" rx="8"></rect>
        <g id="Group-4-Copy-8-Copy" transform="translate(255.000000, 337.000000) rotate(90.000000) translate(-255.000000, -337.000000) translate(243.000000, 326.000000)" fill-rule="nonzero">
            <g id="Group-2" transform="translate(12.000000, 11.000000) scale(-1, 1) rotate(-180.000000) translate(-12.000000, -11.000000) translate(0.000000, 0.000000)" fill="#80C0A1">
                <polyline id="Path-2" transform="translate(1.625442, 11.555911) rotate(-180.000000) translate(-1.625442, -11.555911) " points="-4.4408921e-16 8.2351561 -4.4408921e-16 14.8766656 3.25088337 11.5559109"></polyline>
                <path d="M6.46289703,-1.21542336e-16 L19.9999994,-1.21542336e-16 C22.2091384,-1.21542336e-16 23.9999994,1.790861 23.9999994,4 L23.9999994,18 C23.9999994,20.209139 22.2091384,22 19.9999994,22 L6.46289703,22 C4.25375803,22 2.46289703,20.209139 2.46289703,18 L2.46289703,11.3797667 L2.46289703,11.3797667 L2.46289703,4 C2.46289703,1.790861 4.25375803,-1.21542336e-16 6.46289703,-1.21542336e-16 Z" id="Rectangle"></path>
            </g>
            <g id="C" transform="translate(13.449999, 11.274500) rotate(-90.000000) translate(-13.449999, -11.274500) translate(9.400499, 6.646500)" fill="#FFFFFF">
                <path d="M4.758,9.256 C3.85666667,9.256 3.04416667,9.05666667 2.3205,8.658 C1.59683333,8.25933333 1.02916667,7.70683333 0.6175,7.0005 C0.205833333,6.29416667 -3.34660744e-13,5.50333333 -3.34660744e-13,4.628 C-3.34660744e-13,3.75266667 0.205833333,2.96183333 0.6175,2.2555 C1.02916667,1.54916667 1.599,0.996666667 2.327,0.598 C3.055,0.199333333 3.86966667,0 4.771,0 C5.447,0 6.071,0.112666667 6.643,0.338 C7.215,0.563333333 7.70033333,0.892666667 8.099,1.326 L7.488,1.937 C6.77733333,1.21766667 5.88033333,0.858 4.797,0.858 C4.07766667,0.858 3.42333333,1.02266667 2.834,1.352 C2.24466667,1.68133333 1.78316667,2.132 1.4495,2.704 C1.11583333,3.276 0.949,3.91733333 0.949,4.628 C0.949,5.33866667 1.11583333,5.98 1.4495,6.552 C1.78316667,7.124 2.24466667,7.57466667 2.834,7.904 C3.42333333,8.23333333 4.07766667,8.398 4.797,8.398 C5.889,8.398 6.786,8.034 7.488,7.306 L8.099,7.917 C7.70033333,8.35033333 7.21283333,8.68183333 6.6365,8.9115 C6.06016667,9.14116667 5.434,9.256 4.758,9.256 Z" id="Path"></path>
            </g>
        </g>
        <g id="Group-4-Copy-9-Copy" transform="translate(505.000000, 337.000000) rotate(90.000000) translate(-505.000000, -337.000000) translate(493.000000, 326.000000)" fill-rule="nonzero">
            <g id="Group-2" transform="translate(12.000000, 11.000000) scale(-1, 1) rotate(-180.000000) translate(-12.000000, -11.000000) translate(0.000000, 0.000000)" fill="#8B6391">
                <polyline id="Path-2" transform="translate(1.625442, 11.555911) rotate(-180.000000) translate(-1.625442, -11.555911) " points="-4.4408921e-16 8.2351561 -4.4408921e-16 14.8766656 3.25088337 11.5559109"></polyline>
                <path d="M6.46289703,-1.21542336e-16 L19.9999994,-1.21542336e-16 C22.2091384,-1.21542336e-16 23.9999994,1.790861 23.9999994,4 L23.9999994,18 C23.9999994,20.209139 22.2091384,22 19.9999994,22 L6.46289703,22 C4.25375803,22 2.46289703,20.209139 2.46289703,18 L2.46289703,11.3797667 L2.46289703,11.3797667 L2.46289703,4 C2.46289703,1.790861 4.25375803,-1.21542336e-16 6.46289703,-1.21542336e-16 Z" id="Rectangle"></path>
            </g>
            <g id="D" transform="translate(13.449999, 10.228000) rotate(-90.000000) translate(-13.449999, -10.228000) translate(9.159999, 5.678000)" fill="#FFFFFF">
                <path d="M-3.34643424e-13,0 L3.705,0 C4.667,0 5.51633333,0.192833333 6.253,0.5785 C6.98966667,0.964166667 7.56166667,1.5015 7.969,2.1905 C8.37633333,2.8795 8.58,3.666 8.58,4.55 C8.58,5.434 8.37633333,6.2205 7.969,6.9095 C7.56166667,7.5985 6.98966667,8.13583333 6.253,8.5215 C5.51633333,8.90716667 4.667,9.1 3.705,9.1 L-3.34643424e-13,9.1 L-3.34643424e-13,0 Z M3.653,8.268 C4.45033333,8.268 5.148,8.10983333 5.746,7.7935 C6.344,7.47716667 6.80766667,7.0395 7.137,6.4805 C7.46633333,5.9215 7.631,5.278 7.631,4.55 C7.631,3.822 7.46633333,3.1785 7.137,2.6195 C6.80766667,2.0605 6.344,1.62283333 5.746,1.3065 C5.148,0.990166667 4.45033333,0.832 3.653,0.832 L0.962,0.832 L0.962,8.268 L3.653,8.268 Z" id="Shape"></path>
            </g>
        </g>
    </g>
</svg>