<?xml version="1.0" encoding="UTF-8"?>
<svg width="766px" height="466px" viewBox="0 0 766 466" version="1.1" xmlns="http://www.w3.org/2000/svg" xmlns:xlink="http://www.w3.org/1999/xlink">
    <title>01_next_queries_01</title>
    <g id="01_next_queries_01" stroke="none" stroke-width="1" fill="none" fill-rule="evenodd">
        <rect fill="#FFFFFF" x="0" y="0" width="766" height="466"></rect>
        <rect id="Rectangle-Copy-18" fill="#CFD4D7" x="13.1764706" y="16" width="738.647059" height="433"></rect>
        <path d="M738,0 C753.463973,0 766,12.536027 766,28 L766,438 C766,453.463973 753.463973,466 738,466 L28,466 C12.536027,466 0,453.463973 0,438 L0,28 C0,12.536027 12.536027,0 28,0 L738,0 Z M738,21 L28,21 C24.2145483,21 21.1309013,24.0047834 21,27.7593502 L21,28 L21,438 C21,441.785452 24.0047834,444.869099 27.7593502,445 L28,445 L738,445 C741.785452,445 744.869099,441.995217 745,438.24065 L745,438 L745,28 C745,24.2145483 741.995217,21.1309013 738.24065,21 L738,21 Z" id="Rectangle" fill="#202020" fill-rule="nonzero"></path>
        <g id="Next-Queries" transform="translate(287.892000, 50.644000)" fill="#1E3D49" fill-rule="nonzero">
            <polygon id="Path" points="15.21 0.156 15.21 18.356 13.624 18.356 1.924 3.588 1.924 18.356 0 18.356 0 0.156 1.586 0.156 13.312 14.924 13.312 0.156"></polygon>
            <polygon id="Path" points="34.008 16.692 34.008 18.356 21.138 18.356 21.138 0.156 33.618 0.156 33.618 1.82 23.062 1.82 23.062 8.294 32.474 8.294 32.474 9.932 23.062 9.932 23.062 16.692"></polygon>
            <polygon id="Path" points="49.712 18.356 43.836 10.348 37.986 18.356 35.776 18.356 42.692 8.996 36.218 0.156 38.428 0.156 43.914 7.592 49.374 0.156 51.454 0.156 45.006 8.944 51.948 18.356"></polygon>
            <polygon id="Path" points="58.11 1.82 51.714 1.82 51.714 0.156 66.43 0.156 66.43 1.82 60.034 1.82 60.034 18.356 58.11 18.356"></polygon>
            <path d="M94.64,19.89 C94.0853333,20.566 93.431,21.0816667 92.677,21.437 C91.923,21.7923333 91.104,21.97 90.22,21.97 C89.1453333,21.97 88.127,21.7056667 87.165,21.177 C86.203,20.6483333 85.124,19.76 83.928,18.512 C82.1773333,18.46 80.6,18.0266667 79.196,17.212 C77.792,16.3973333 76.6913333,15.2966667 75.894,13.91 C75.0966667,12.5233333 74.698,10.972 74.698,9.256 C74.698,7.50533333 75.1096667,5.928 75.933,4.524 C76.7563333,3.12 77.9003333,2.015 79.365,1.209 C80.8296667,0.403 82.4633333,0 84.266,0 C86.0686667,0 87.6936667,0.398666667 89.141,1.196 C90.5883333,1.99333333 91.728,3.09833333 92.56,4.511 C93.392,5.92366667 93.808,7.50533333 93.808,9.256 C93.808,10.7813333 93.4916667,12.181 92.859,13.455 C92.2263333,14.729 91.3423333,15.7906667 90.207,16.64 C89.0716667,17.4893333 87.7673333,18.0526667 86.294,18.33 C87.6286667,19.734 88.946,20.436 90.246,20.436 C91.598,20.436 92.7506667,19.8813333 93.704,18.772 L94.64,19.89 Z M76.596,9.256 C76.596,10.6773333 76.9296667,11.96 77.597,13.104 C78.2643333,14.248 79.183,15.1493333 80.353,15.808 C81.523,16.4666667 82.8273333,16.796 84.266,16.796 C85.7046667,16.796 87.0046667,16.4666667 88.166,15.808 C89.3273333,15.1493333 90.2373333,14.248 90.896,13.104 C91.5546667,11.96 91.884,10.6773333 91.884,9.256 C91.884,7.83466667 91.5546667,6.552 90.896,5.408 C90.2373333,4.264 89.3273333,3.36266667 88.166,2.704 C87.0046667,2.04533333 85.7046667,1.716 84.266,1.716 C82.8273333,1.716 81.523,2.04533333 80.353,2.704 C79.183,3.36266667 78.2643333,4.264 77.597,5.408 C76.9296667,6.552 76.596,7.83466667 76.596,9.256 Z" id="Shape"></path>
            <path d="M105.456,18.512 C103.098667,18.512 101.261333,17.836 99.944,16.484 C98.6266667,15.132 97.968,13.1646667 97.968,10.582 L97.968,0.156 L99.892,0.156 L99.892,10.504 C99.892,12.6186667 100.368667,14.196 101.322,15.236 C102.275333,16.276 103.653333,16.796 105.456,16.796 C107.276,16.796 108.662667,16.276 109.616,15.236 C110.569333,14.196 111.046,12.6186667 111.046,10.504 L111.046,0.156 L112.918,0.156 L112.918,10.582 C112.918,13.1646667 112.263667,15.132 110.955,16.484 C109.646333,17.836 107.813333,18.512 105.456,18.512 Z" id="Path"></path>
            <polygon id="Path" points="131.586 16.692 131.586 18.356 118.716 18.356 118.716 0.156 131.196 0.156 131.196 1.82 120.64 1.82 120.64 8.294 130.052 8.294 130.052 9.932 120.64 9.932 120.64 16.692"></polygon>
            <path d="M148.538,18.356 L144.378,12.506 C143.91,12.558 143.424667,12.584 142.922,12.584 L138.034,12.584 L138.034,18.356 L136.11,18.356 L136.11,0.156 L142.922,0.156 C145.244667,0.156 147.064667,0.710666667 148.382,1.82 C149.699333,2.92933333 150.358,4.45466667 150.358,6.396 C150.358,7.81733333 149.998333,9.01766667 149.279,9.997 C148.559667,10.9763333 147.532667,11.6826667 146.198,12.116 L150.644,18.356 L148.538,18.356 Z M142.87,10.946 C144.672667,10.946 146.050667,10.5473333 147.004,9.75 C147.957333,8.95266667 148.434,7.83466667 148.434,6.396 C148.434,4.92266667 147.957333,3.79166667 147.004,3.003 C146.050667,2.21433333 144.672667,1.82 142.87,1.82 L138.034,1.82 L138.034,10.946 L142.87,10.946 Z" id="Shape"></path>
            <polygon id="Path" points="154.908 0.156 156.832 0.156 156.832 18.356 154.908 18.356"></polygon>
            <polygon id="Path" points="175.63 16.692 175.63 18.356 162.76 18.356 162.76 0.156 175.24 0.156 175.24 1.82 164.684 1.82 164.684 8.294 174.096 8.294 174.096 9.932 164.684 9.932 164.684 16.692"></polygon>
            <path d="M185.172,18.512 C183.82,18.512 182.524333,18.2953333 181.285,17.862 C180.045667,17.4286667 179.088,16.8566667 178.412,16.146 L179.166,14.664 C179.824667,15.3226667 180.7,15.8556667 181.792,16.263 C182.884,16.6703333 184.010667,16.874 185.172,16.874 C186.801333,16.874 188.023333,16.575 188.838,15.977 C189.652667,15.379 190.06,14.6033333 190.06,13.65 C190.06,12.922 189.839,12.3413333 189.397,11.908 C188.955,11.4746667 188.413333,11.141 187.772,10.907 C187.130667,10.673 186.238,10.4173333 185.094,10.14 C183.724667,9.79333333 182.632667,9.45966667 181.818,9.139 C181.003333,8.81833333 180.305667,8.32866667 179.725,7.67 C179.144333,7.01133333 178.854,6.11866667 178.854,4.992 C178.854,4.07333333 179.096667,3.237 179.582,2.483 C180.067333,1.729 180.812667,1.12666667 181.818,0.676 C182.823333,0.225333333 184.071333,0 185.562,0 C186.602,0 187.620333,0.143 188.617,0.429 C189.613667,0.715 190.476,1.10933333 191.204,1.612 L190.554,3.146 C189.791333,2.64333333 188.976667,2.26633333 188.11,2.015 C187.243333,1.76366667 186.394,1.638 185.562,1.638 C183.967333,1.638 182.767,1.94566667 181.961,2.561 C181.155,3.17633333 180.752,3.96933333 180.752,4.94 C180.752,5.668 180.973,6.253 181.415,6.695 C181.857,7.137 182.411667,7.475 183.079,7.709 C183.746333,7.943 184.643333,8.19866667 185.77,8.476 C187.104667,8.80533333 188.183667,9.13033333 189.007,9.451 C189.830333,9.77166667 190.528,10.257 191.1,10.907 C191.672,11.557 191.958,12.4366667 191.958,13.546 C191.958,14.4646667 191.711,15.301 191.217,16.055 C190.723,16.809 189.964667,17.407 188.942,17.849 C187.919333,18.291 186.662667,18.512 185.172,18.512 Z" id="Path"></path>
        </g>
        <rect id="Rectangle-Copy-2" fill="#FFFFFF" x="54" y="105" width="660" height="306" rx="10"></rect>
        <g id="Group-4-Copy" transform="translate(498.762699, 370.237301)">
            <g id="Group-2" transform="translate(12.057024, 10.819724) rotate(-180.000000) translate(-12.057024, -10.819724) " fill="#80C0A1">
                <polyline id="Path-2" transform="translate(1.633166, 11.366524) rotate(-180.000000) translate(-1.633166, -11.366524) " points="-1.64736751e-12 8.10019242 -1.64736751e-12 14.6328557 3.26633166 11.3665241"></polyline>
                <path d="M6.47460141,0 L20.1140486,0 C22.3231876,-4.05812251e-16 24.1140486,1.790861 24.1140486,4 L24.1140486,17.6394472 C24.1140486,19.8485862 22.3231876,21.6394472 20.1140486,21.6394472 L6.47460141,21.6394472 C4.26546241,21.6394472 2.47460141,19.8485862 2.47460141,17.6394472 L2.47460141,11.1932664 L2.47460141,11.1932664 L2.47460141,4 C2.47460141,1.790861 4.26546241,4.05812251e-16 6.47460141,0 Z" id="Rectangle"></path>
            </g>
            <g id="C" transform="translate(7.295702, 5.825141)" fill="#FFFFFF" fill-rule="nonzero">
                <path d="M4.758,9.256 C3.85666667,9.256 3.04416667,9.05666667 2.3205,8.658 C1.59683333,8.25933333 1.02916667,7.70683333 0.6175,7.0005 C0.205833333,6.29416667 0,5.50333333 0,4.628 C0,3.75266667 0.205833333,2.96183333 0.6175,2.2555 C1.02916667,1.54916667 1.599,0.996666667 2.327,0.598 C3.055,0.199333333 3.86966667,0 4.771,0 C5.447,0 6.071,0.112666667 6.643,0.338 C7.215,0.563333333 7.70033333,0.892666667 8.099,1.326 L7.488,1.937 C6.77733333,1.21766667 5.88033333,0.858 4.797,0.858 C4.07766667,0.858 3.42333333,1.02266667 2.834,1.352 C2.24466667,1.68133333 1.78316667,2.132 1.4495,2.704 C1.11583333,3.276 0.949,3.91733333 0.949,4.628 C0.949,5.33866667 1.11583333,5.98 1.4495,6.552 C1.78316667,7.124 2.24466667,7.57466667 2.834,7.904 C3.42333333,8.23333333 4.07766667,8.398 4.797,8.398 C5.889,8.398 6.786,8.034 7.488,7.306 L8.099,7.917 C7.70033333,8.35033333 7.21283333,8.68183333 6.6365,8.9115 C6.06016667,9.14116667 5.434,9.256 4.758,9.256 Z" id="Path"></path>
            </g>
        </g>
        <rect id="Rectangle" fill="#E2E6E7" opacity="0.2992234" x="73.9241071" y="161.1875" width="620.8125" height="39.1875"></rect>
        <rect id="Rectangle-Copy-15" fill="#8E9EA4" opacity="0.498093378" x="73.9241071" y="238.375" width="620.8125" height="38"></rect>
        <g id="Query" transform="translate(145.520357, 176.493750)" fill="#8E9EA4" fill-rule="nonzero">
            <path d="M7.89,7.8 C7.65666667,8.07333333 7.385,8.28 7.075,8.42 C6.765,8.56 6.42666667,8.63 6.06,8.63 C5.58,8.63 5.14,8.52166667 4.74,8.305 C4.34,8.08833333 3.88333333,7.71333333 3.37,7.18 C2.72333333,7.12666667 2.14333333,6.93833333 1.63,6.615 C1.11666667,6.29166667 0.716666667,5.86833333 0.43,5.345 C0.143333333,4.82166667 0,4.24 0,3.6 C0,2.92 0.163333333,2.305 0.49,1.755 C0.816666667,1.205 1.26666667,0.775 1.84,0.465 C2.41333333,0.155 3.05666667,0 3.77,0 C4.48333333,0 5.12666667,0.155 5.7,0.465 C6.27333333,0.775 6.72333333,1.20333333 7.05,1.75 C7.37666667,2.29666667 7.54,2.91333333 7.54,3.6 C7.54,4.15333333 7.43,4.665 7.21,5.135 C6.99,5.605 6.68333333,6.005 6.29,6.335 C5.89666667,6.665 5.44,6.90333333 4.92,7.05 C5.11333333,7.25666667 5.30333333,7.40666667 5.49,7.5 C5.67666667,7.59333333 5.87666667,7.64 6.09,7.64 C6.55,7.64 6.95,7.45333333 7.29,7.08 L7.89,7.8 Z M1.31,3.6 C1.31,4.06666667 1.41666667,4.48833333 1.63,4.865 C1.84333333,5.24166667 2.13666667,5.535 2.51,5.745 C2.88333333,5.955 3.30333333,6.06 3.77,6.06 C4.23666667,6.06 4.65666667,5.955 5.03,5.745 C5.40333333,5.535 5.69666667,5.24166667 5.91,4.865 C6.12333333,4.48833333 6.23,4.06666667 6.23,3.6 C6.23,3.13333333 6.12333333,2.71166667 5.91,2.335 C5.69666667,1.95833333 5.40333333,1.665 5.03,1.455 C4.65666667,1.245 4.23666667,1.14 3.77,1.14 C3.30333333,1.14 2.88333333,1.245 2.51,1.455 C2.13666667,1.665 1.84333333,1.95833333 1.63,2.335 C1.41666667,2.71166667 1.31,3.13333333 1.31,3.6 Z" id="Shape"></path>
            <path d="M13.97,1.76 L13.97,7.1 L12.78,7.1 L12.78,6.42 C12.58,6.66 12.33,6.845 12.03,6.975 C11.73,7.105 11.4066667,7.17 11.06,7.17 C10.3466667,7.17 9.785,6.97166667 9.375,6.575 C8.965,6.17833333 8.76,5.59 8.76,4.81 L8.76,1.76 L10.01,1.76 L10.01,4.64 C10.01,5.12 10.1183333,5.47833333 10.335,5.715 C10.5516667,5.95166667 10.86,6.07 11.26,6.07 C11.7066667,6.07 12.0616667,5.93166667 12.325,5.655 C12.5883333,5.37833333 12.72,4.98 12.72,4.46 L12.72,1.76 L13.97,1.76 Z" id="Path"></path>
            <path d="M20.63,4.46 C20.63,4.54666667 20.6233333,4.67 20.61,4.83 L16.42,4.83 C16.4933333,5.22333333 16.685,5.535 16.995,5.765 C17.305,5.995 17.69,6.11 18.15,6.11 C18.7366667,6.11 19.22,5.91666667 19.6,5.53 L20.27,6.3 C20.03,6.58666667 19.7266667,6.80333333 19.36,6.95 C18.9933333,7.09666667 18.58,7.17 18.12,7.17 C17.5333333,7.17 17.0166667,7.05333333 16.57,6.82 C16.1233333,6.58666667 15.7783333,6.26166667 15.535,5.845 C15.2916667,5.42833333 15.17,4.95666667 15.17,4.43 C15.17,3.91 15.2883333,3.44166667 15.525,3.025 C15.7616667,2.60833333 16.09,2.28333333 16.51,2.05 C16.93,1.81666667 17.4033333,1.7 17.93,1.7 C18.45,1.7 18.915,1.815 19.325,2.045 C19.735,2.275 20.055,2.59833333 20.285,3.015 C20.515,3.43166667 20.63,3.91333333 20.63,4.46 Z M17.93,2.7 C17.53,2.7 17.1916667,2.81833333 16.915,3.055 C16.6383333,3.29166667 16.47,3.60666667 16.41,4 L19.44,4 C19.3866667,3.61333333 19.2233333,3.3 18.95,3.06 C18.6766667,2.82 18.3366667,2.7 17.93,2.7 Z" id="Shape"></path>
            <path d="M23.02,2.54 C23.38,1.98 24.0133333,1.7 24.92,1.7 L24.92,2.89 C24.8133333,2.87 24.7166667,2.86 24.63,2.86 C24.1433333,2.86 23.7633333,3.00166667 23.49,3.285 C23.2166667,3.56833333 23.08,3.97666667 23.08,4.51 L23.08,7.1 L21.83,7.1 L21.83,1.76 L23.02,1.76 L23.02,2.54 Z" id="Path"></path>
            <path d="M31.03,1.76 L28.53,7.53 C28.2966667,8.11 28.0133333,8.51833333 27.68,8.755 C27.3466667,8.99166667 26.9433333,9.11 26.47,9.11 C26.2033333,9.11 25.94,9.06666667 25.68,8.98 C25.42,8.89333333 25.2066667,8.77333333 25.04,8.62 L25.54,7.7 C25.66,7.81333333 25.8016667,7.90333333 25.965,7.97 C26.1283333,8.03666667 26.2933333,8.07 26.46,8.07 C26.68,8.07 26.8616667,8.01333333 27.005,7.9 C27.1483333,7.78666667 27.28,7.59666667 27.4,7.33 L27.49,7.12 L25.16,1.76 L26.46,1.76 L28.14,5.71 L29.83,1.76 L31.03,1.76 Z" id="Path"></path>
        </g>
        <g id="sandal" transform="translate(145.260000, 213.580000)" fill="#1E3D49" fill-rule="nonzero">
            <path d="M2.14,7.47 C1.71333333,7.47 1.305,7.40833333 0.915,7.285 C0.525,7.16166667 0.22,7.00666667 0,6.82 L0.32,6.26 C0.54,6.43333333 0.816666667,6.575 1.15,6.685 C1.48333333,6.795 1.83,6.85 2.19,6.85 C2.67,6.85 3.025,6.775 3.255,6.625 C3.485,6.475 3.6,6.26333333 3.6,5.99 C3.6,5.79666667 3.53666667,5.645 3.41,5.535 C3.28333333,5.425 3.12333333,5.34166667 2.93,5.285 C2.73666667,5.22833333 2.48,5.17333333 2.16,5.12 C1.73333333,5.04 1.39,4.95833333 1.13,4.875 C0.87,4.79166667 0.648333333,4.65 0.465,4.45 C0.281666667,4.25 0.19,3.97333333 0.19,3.62 C0.19,3.18 0.373333333,2.82 0.74,2.54 C1.10666667,2.26 1.61666667,2.12 2.27,2.12 C2.61,2.12 2.95,2.165 3.29,2.255 C3.63,2.345 3.91,2.46333333 4.13,2.61 L3.82,3.18 C3.38666667,2.88 2.87,2.73 2.27,2.73 C1.81666667,2.73 1.475,2.81 1.245,2.97 C1.015,3.13 0.9,3.34 0.9,3.6 C0.9,3.8 0.965,3.96 1.095,4.08 C1.225,4.2 1.38666667,4.28833333 1.58,4.345 C1.77333333,4.40166667 2.04,4.46 2.38,4.52 C2.8,4.6 3.13666667,4.68 3.39,4.76 C3.64333333,4.84 3.86,4.97666667 4.04,5.17 C4.22,5.36333333 4.31,5.63 4.31,5.97 C4.31,6.43 4.11833333,6.795 3.735,7.065 C3.35166667,7.335 2.82,7.47 2.14,7.47 Z" id="Path"></path>
            <path d="M7.46,2.12 C8.14666667,2.12 8.67333333,2.29166667 9.04,2.635 C9.40666667,2.97833333 9.59,3.48666667 9.59,4.16 L9.59,7.42 L8.91,7.42 L8.91,6.6 C8.75,6.87333333 8.515,7.08666667 8.205,7.24 C7.895,7.39333333 7.52666667,7.47 7.1,7.47 C6.51333333,7.47 6.04666667,7.33 5.7,7.05 C5.35333333,6.77 5.18,6.4 5.18,5.94 C5.18,5.49333333 5.34166667,5.13333333 5.665,4.86 C5.98833333,4.58666667 6.50333333,4.45 7.21,4.45 L8.88,4.45 L8.88,4.13 C8.88,3.67666667 8.75333333,3.33166667 8.5,3.095 C8.24666667,2.85833333 7.87666667,2.74 7.39,2.74 C7.05666667,2.74 6.73666667,2.795 6.43,2.905 C6.12333333,3.015 5.86,3.16666667 5.64,3.36 L5.32,2.83 C5.58666667,2.60333333 5.90666667,2.42833333 6.28,2.305 C6.65333333,2.18166667 7.04666667,2.12 7.46,2.12 Z M7.21,6.91 C7.61,6.91 7.95333333,6.81833333 8.24,6.635 C8.52666667,6.45166667 8.74,6.18666667 8.88,5.84 L8.88,4.98 L7.23,4.98 C6.33,4.98 5.88,5.29333333 5.88,5.92 C5.88,6.22666667 5.99666667,6.46833333 6.23,6.645 C6.46333333,6.82166667 6.79,6.91 7.21,6.91 Z" id="Shape"></path>
            <path d="M14.2,2.12 C14.86,2.12 15.385,2.31166667 15.775,2.695 C16.165,3.07833333 16.36,3.63666667 16.36,4.37 L16.36,7.42 L15.65,7.42 L15.65,4.44 C15.65,3.89333333 15.5133333,3.47666667 15.24,3.19 C14.9666667,2.90333333 14.5766667,2.76 14.07,2.76 C13.5033333,2.76 13.055,2.92833333 12.725,3.265 C12.395,3.60166667 12.23,4.06666667 12.23,4.66 L12.23,7.42 L11.52,7.42 L11.52,2.16 L12.2,2.16 L12.2,3.13 C12.3933333,2.81 12.6616667,2.56166667 13.005,2.385 C13.3483333,2.20833333 13.7466667,2.12 14.2,2.12 Z" id="Path"></path>
            <path d="M23.09,0 L23.09,7.42 L22.41,7.42 L22.41,6.38 C22.1966667,6.73333333 21.915,7.00333333 21.565,7.19 C21.215,7.37666667 20.82,7.47 20.38,7.47 C19.8866667,7.47 19.44,7.35666667 19.04,7.13 C18.64,6.90333333 18.3266667,6.58666667 18.1,6.18 C17.8733333,5.77333333 17.76,5.31 17.76,4.79 C17.76,4.27 17.8733333,3.80666667 18.1,3.4 C18.3266667,2.99333333 18.64,2.67833333 19.04,2.455 C19.44,2.23166667 19.8866667,2.12 20.38,2.12 C20.8066667,2.12 21.1916667,2.20833333 21.535,2.385 C21.8783333,2.56166667 22.16,2.82 22.38,3.16 L22.38,0 L23.09,0 Z M20.44,6.84 C20.8066667,6.84 21.1383333,6.755 21.435,6.585 C21.7316667,6.415 21.965,6.17333333 22.135,5.86 C22.305,5.54666667 22.39,5.19 22.39,4.79 C22.39,4.39 22.305,4.03333333 22.135,3.72 C21.965,3.40666667 21.7316667,3.165 21.435,2.995 C21.1383333,2.825 20.8066667,2.74 20.44,2.74 C20.0666667,2.74 19.7316667,2.825 19.435,2.995 C19.1383333,3.165 18.905,3.40666667 18.735,3.72 C18.565,4.03333333 18.48,4.39 18.48,4.79 C18.48,5.19 18.565,5.54666667 18.735,5.86 C18.905,6.17333333 19.1383333,6.415 19.435,6.585 C19.7316667,6.755 20.0666667,6.84 20.44,6.84 Z" id="Shape"></path>
            <path d="M26.91,2.12 C27.5966667,2.12 28.1233333,2.29166667 28.49,2.635 C28.8566667,2.97833333 29.04,3.48666667 29.04,4.16 L29.04,7.42 L28.36,7.42 L28.36,6.6 C28.2,6.87333333 27.965,7.08666667 27.655,7.24 C27.345,7.39333333 26.9766667,7.47 26.55,7.47 C25.9633333,7.47 25.4966667,7.33 25.15,7.05 C24.8033333,6.77 24.63,6.4 24.63,5.94 C24.63,5.49333333 24.7916667,5.13333333 25.115,4.86 C25.4383333,4.58666667 25.9533333,4.45 26.66,4.45 L28.33,4.45 L28.33,4.13 C28.33,3.67666667 28.2033333,3.33166667 27.95,3.095 C27.6966667,2.85833333 27.3266667,2.74 26.84,2.74 C26.5066667,2.74 26.1866667,2.795 25.88,2.905 C25.5733333,3.015 25.31,3.16666667 25.09,3.36 L24.77,2.83 C25.0366667,2.60333333 25.3566667,2.42833333 25.73,2.305 C26.1033333,2.18166667 26.4966667,2.12 26.91,2.12 Z M26.66,6.91 C27.06,6.91 27.4033333,6.81833333 27.69,6.635 C27.9766667,6.45166667 28.19,6.18666667 28.33,5.84 L28.33,4.98 L26.68,4.98 C25.78,4.98 25.33,5.29333333 25.33,5.92 C25.33,6.22666667 25.4466667,6.46833333 25.68,6.645 C25.9133333,6.82166667 26.24,6.91 26.66,6.91 Z" id="Shape"></path>
            <polygon id="Path" points="30.97 0 31.68 0 31.68 7.42 30.97 7.42"></polygon>
        </g>
        <path d="M101,212 C101.552285,212 102,212.447715 102,213 L102,224 C102,224.552285 101.552285,225 101,225 L90,225 C89.4477153,225 89,224.552285 89,224 L89,213 C89,212.447715 89.4477153,212 90,212 L101,212 Z M99.999,214 L90.999,214 L90.999,223 L99.999,223 L99.999,214 Z" id="Rectangle-Copy" fill="#BBC3C6" fill-rule="nonzero"></path>
        <polygon id="Line" fill="#E2E6E7" fill-rule="nonzero" points="695 238 695 239 74.0157546 239 74.0157546 238"></polygon>
        <g id="Group" transform="translate(219.000000, 217.000000)" fill="#E2E6E7">
            <rect id="Rectangle" x="0" y="0" width="47" height="4" rx="2"></rect>
            <rect id="Rectangle" x="0" y="38" width="47" height="4" rx="2"></rect>
            <rect id="Rectangle" x="0" y="76" width="47" height="4" rx="2"></rect>
            <rect id="Rectangle" x="0" y="115" width="47" height="4" rx="2"></rect>
        </g>
        <g id="Group-3" transform="translate(316.000000, 217.000000)" fill="#E2E6E7">
            <rect id="Rectangle-Copy-3" x="0" y="0" width="47" height="4" rx="2"></rect>
            <rect id="Rectangle-Copy-9" x="0" y="39" width="47" height="4" rx="2"></rect>
            <rect id="Rectangle-Copy-10" x="0" y="76" width="47" height="4" rx="2"></rect>
            <rect id="Rectangle-Copy-11" x="0" y="115" width="47" height="4" rx="2"></rect>
        </g>
        <g id="Group-4" transform="translate(415.000000, 217.000000)" fill="#E2E6E7">
            <rect id="Rectangle-Copy-4" x="0" y="0" width="47" height="4" rx="2"></rect>
            <rect id="Rectangle-Copy-12" x="0" y="39" width="47" height="4" rx="2"></rect>
            <rect id="Rectangle-Copy-13" x="0" y="76" width="47" height="4" rx="2"></rect>
            <rect id="Rectangle-Copy-14" x="0" y="115" width="47" height="4" rx="2"></rect>
        </g>
        <g id="Group-5" transform="translate(518.000000, 217.000000)" fill="#E2E6E7">
            <rect id="Rectangle-Copy-5" x="0" y="0" width="47" height="4" rx="2"></rect>
            <rect id="Rectangle-Copy-5" x="0" y="38" width="47" height="4" rx="2"></rect>
            <rect id="Rectangle-Copy-5" x="0" y="76" width="47" height="4" rx="2"></rect>
            <rect id="Rectangle-Copy-5" x="0" y="115" width="47" height="4" rx="2"></rect>
        </g>
        <g id="Group-6" transform="translate(621.000000, 217.000000)" fill="#E2E6E7">
            <rect id="Rectangle-Copy-6" x="0" y="0" width="47" height="4" rx="2"></rect>
            <rect id="Rectangle-Copy-6" x="0" y="38" width="47" height="4" rx="2"></rect>
            <rect id="Rectangle-Copy-6" x="0" y="76" width="47" height="4" rx="2"></rect>
            <rect id="Rectangle-Copy-6" x="0" y="115" width="47" height="4" rx="2"></rect>
        </g>
        <g id="jeans" transform="translate(144.100000, 251.570000)" fill="#1E3D49" fill-rule="nonzero">
            <path d="M1.11,9.42 C0.89,9.42 0.681666667,9.39166667 0.485,9.335 C0.288333333,9.27833333 0.126666667,9.19333333 0,9.08 L0.25,8.54 C0.456666667,8.72 0.73,8.81 1.07,8.81 C1.35,8.81 1.565,8.72666667 1.715,8.56 C1.865,8.39333333 1.94,8.14666667 1.94,7.82 L1.94,2.17 L2.65,2.17 L2.65,7.82 C2.65,8.31333333 2.51666667,8.70333333 2.25,8.99 C1.98333333,9.27666667 1.60333333,9.42 1.11,9.42 Z M2.3,1.01 C2.15333333,1.01 2.03,0.96 1.93,0.86 C1.83,0.76 1.78,0.64 1.78,0.5 C1.78,0.366666667 1.83,0.25 1.93,0.15 C2.03,0.05 2.15333333,0 2.3,0 C2.44666667,0 2.57,0.0483333333 2.67,0.145 C2.77,0.241666667 2.82,0.356666667 2.82,0.49 C2.82,0.636666667 2.77,0.76 2.67,0.86 C2.57,0.96 2.44666667,1.01 2.3,1.01 Z" id="Shape"></path>
            <path d="M9.21,5.02 L4.81,5.02 C4.85,5.56666667 5.06,6.00833333 5.44,6.345 C5.82,6.68166667 6.3,6.85 6.88,6.85 C7.20666667,6.85 7.50666667,6.79166667 7.78,6.675 C8.05333333,6.55833333 8.29,6.38666667 8.49,6.16 L8.89,6.62 C8.65666667,6.9 8.365,7.11333333 8.015,7.26 C7.665,7.40666667 7.28,7.48 6.86,7.48 C6.32,7.48 5.84166667,7.365 5.425,7.135 C5.00833333,6.905 4.68333333,6.58666667 4.45,6.18 C4.21666667,5.77333333 4.1,5.31333333 4.1,4.8 C4.1,4.28666667 4.21166667,3.82666667 4.435,3.42 C4.65833333,3.01333333 4.965,2.69666667 5.355,2.47 C5.745,2.24333333 6.18333333,2.13 6.67,2.13 C7.15666667,2.13 7.59333333,2.24333333 7.98,2.47 C8.36666667,2.69666667 8.67,3.01166667 8.89,3.415 C9.11,3.81833333 9.22,4.28 9.22,4.8 L9.21,5.02 Z M6.67,2.74 C6.16333333,2.74 5.73833333,2.90166667 5.395,3.225 C5.05166667,3.54833333 4.85666667,3.97 4.81,4.49 L8.54,4.49 C8.49333333,3.97 8.29833333,3.54833333 7.955,3.225 C7.61166667,2.90166667 7.18333333,2.74 6.67,2.74 Z" id="Shape"></path>
            <path d="M12.51,2.13 C13.1966667,2.13 13.7233333,2.30166667 14.09,2.645 C14.4566667,2.98833333 14.64,3.49666667 14.64,4.17 L14.64,7.43 L13.96,7.43 L13.96,6.61 C13.8,6.88333333 13.565,7.09666667 13.255,7.25 C12.945,7.40333333 12.5766667,7.48 12.15,7.48 C11.5633333,7.48 11.0966667,7.34 10.75,7.06 C10.4033333,6.78 10.23,6.41 10.23,5.95 C10.23,5.50333333 10.3916667,5.14333333 10.715,4.87 C11.0383333,4.59666667 11.5533333,4.46 12.26,4.46 L13.93,4.46 L13.93,4.14 C13.93,3.68666667 13.8033333,3.34166667 13.55,3.105 C13.2966667,2.86833333 12.9266667,2.75 12.44,2.75 C12.1066667,2.75 11.7866667,2.805 11.48,2.915 C11.1733333,3.025 10.91,3.17666667 10.69,3.37 L10.37,2.84 C10.6366667,2.61333333 10.9566667,2.43833333 11.33,2.315 C11.7033333,2.19166667 12.0966667,2.13 12.51,2.13 Z M12.26,6.92 C12.66,6.92 13.0033333,6.82833333 13.29,6.645 C13.5766667,6.46166667 13.79,6.19666667 13.93,5.85 L13.93,4.99 L12.28,4.99 C11.38,4.99 10.93,5.30333333 10.93,5.93 C10.93,6.23666667 11.0466667,6.47833333 11.28,6.655 C11.5133333,6.83166667 11.84,6.92 12.26,6.92 Z" id="Shape"></path>
            <path d="M19.25,2.13 C19.91,2.13 20.435,2.32166667 20.825,2.705 C21.215,3.08833333 21.41,3.64666667 21.41,4.38 L21.41,7.43 L20.7,7.43 L20.7,4.45 C20.7,3.90333333 20.5633333,3.48666667 20.29,3.2 C20.0166667,2.91333333 19.6266667,2.77 19.12,2.77 C18.5533333,2.77 18.105,2.93833333 17.775,3.275 C17.445,3.61166667 17.28,4.07666667 17.28,4.67 L17.28,7.43 L16.57,7.43 L16.57,2.17 L17.25,2.17 L17.25,3.14 C17.4433333,2.82 17.7116667,2.57166667 18.055,2.395 C18.3983333,2.21833333 18.7966667,2.13 19.25,2.13 Z" id="Path"></path>
            <path d="M24.75,7.48 C24.3233333,7.48 23.915,7.41833333 23.525,7.295 C23.135,7.17166667 22.83,7.01666667 22.61,6.83 L22.93,6.27 C23.15,6.44333333 23.4266667,6.585 23.76,6.695 C24.0933333,6.805 24.44,6.86 24.8,6.86 C25.28,6.86 25.635,6.785 25.865,6.635 C26.095,6.485 26.21,6.27333333 26.21,6 C26.21,5.80666667 26.1466667,5.655 26.02,5.545 C25.8933333,5.435 25.7333333,5.35166667 25.54,5.295 C25.3466667,5.23833333 25.09,5.18333333 24.77,5.13 C24.3433333,5.05 24,4.96833333 23.74,4.885 C23.48,4.80166667 23.2583333,4.66 23.075,4.46 C22.8916667,4.26 22.8,3.98333333 22.8,3.63 C22.8,3.19 22.9833333,2.83 23.35,2.55 C23.7166667,2.27 24.2266667,2.13 24.88,2.13 C25.22,2.13 25.56,2.175 25.9,2.265 C26.24,2.355 26.52,2.47333333 26.74,2.62 L26.43,3.19 C25.9966667,2.89 25.48,2.74 24.88,2.74 C24.4266667,2.74 24.085,2.82 23.855,2.98 C23.625,3.14 23.51,3.35 23.51,3.61 C23.51,3.81 23.575,3.97 23.705,4.09 C23.835,4.21 23.9966667,4.29833333 24.19,4.355 C24.3833333,4.41166667 24.65,4.47 24.99,4.53 C25.41,4.61 25.7466667,4.69 26,4.77 C26.2533333,4.85 26.47,4.98666667 26.65,5.18 C26.83,5.37333333 26.92,5.64 26.92,5.98 C26.92,6.44 26.7283333,6.805 26.345,7.075 C25.9616667,7.345 25.43,7.48 24.75,7.48 Z" id="Path"></path>
        </g>
        <rect id="Rectangle-Copy" fill="#1E3D49" x="89" y="250" width="13" height="13" rx="1"></rect>
        <path d="M98.4939231,254.446478 C98.7996246,254.16698 99.2740231,254.188222 99.5535216,254.493923 C99.8076112,254.771834 99.8131551,255.189163 99.5823851,255.472736 L99.5060769,255.553522 L95.1310769,259.553522 C94.873199,259.789296 94.4917468,259.812873 94.2091541,259.624254 L94.1189231,259.553522 L91.4939231,257.153522 C91.1882216,256.874023 91.1669798,256.399625 91.4464784,256.093923 C91.700568,255.816013 92.1157318,255.773193 92.4187944,255.977696 L92.5060769,256.046478 L94.624,257.983 L98.4939231,254.446478 Z" id="Path-30" fill="#FFFFFF" fill-rule="nonzero"></path>
        <polygon id="Line" fill="#E2E6E7" fill-rule="nonzero" points="695 276 695 277 74.0157546 277 74.0157546 276"></polygon>
        <g id="t-shirt" transform="translate(145.170000, 289.580000)" fill="#1E3D49" fill-rule="nonzero">
            <path d="M3.59,7.1 C3.45666667,7.22 3.29166667,7.31166667 3.095,7.375 C2.89833333,7.43833333 2.69333333,7.47 2.48,7.47 C1.98666667,7.47 1.60666667,7.33666667 1.34,7.07 C1.07333333,6.80333333 0.94,6.42666667 0.94,5.94 L0.94,2.76 L0,2.76 L0,2.16 L0.94,2.16 L0.94,1.01 L1.65,1.01 L1.65,2.16 L3.25,2.16 L3.25,2.76 L1.65,2.76 L1.65,5.9 C1.65,6.21333333 1.72833333,6.45166667 1.885,6.615 C2.04166667,6.77833333 2.26666667,6.86 2.56,6.86 C2.70666667,6.86 2.84833333,6.83666667 2.985,6.79 C3.12166667,6.74333333 3.24,6.67666667 3.34,6.59 L3.59,7.1 Z" id="Path"></path>
            <polygon id="Path" points="4.49 4.4 7.11 4.4 7.11 5.02 4.49 5.02"></polygon>
            <path d="M10.11,7.47 C9.68333333,7.47 9.275,7.40833333 8.885,7.285 C8.495,7.16166667 8.19,7.00666667 7.97,6.82 L8.29,6.26 C8.51,6.43333333 8.78666667,6.575 9.12,6.685 C9.45333333,6.795 9.8,6.85 10.16,6.85 C10.64,6.85 10.995,6.775 11.225,6.625 C11.455,6.475 11.57,6.26333333 11.57,5.99 C11.57,5.79666667 11.5066667,5.645 11.38,5.535 C11.2533333,5.425 11.0933333,5.34166667 10.9,5.285 C10.7066667,5.22833333 10.45,5.17333333 10.13,5.12 C9.70333333,5.04 9.36,4.95833333 9.1,4.875 C8.84,4.79166667 8.61833333,4.65 8.435,4.45 C8.25166667,4.25 8.16,3.97333333 8.16,3.62 C8.16,3.18 8.34333333,2.82 8.71,2.54 C9.07666667,2.26 9.58666667,2.12 10.24,2.12 C10.58,2.12 10.92,2.165 11.26,2.255 C11.6,2.345 11.88,2.46333333 12.1,2.61 L11.79,3.18 C11.3566667,2.88 10.84,2.73 10.24,2.73 C9.78666667,2.73 9.445,2.81 9.215,2.97 C8.985,3.13 8.87,3.34 8.87,3.6 C8.87,3.8 8.935,3.96 9.065,4.08 C9.195,4.2 9.35666667,4.28833333 9.55,4.345 C9.74333333,4.40166667 10.01,4.46 10.35,4.52 C10.77,4.6 11.1066667,4.68 11.36,4.76 C11.6133333,4.84 11.83,4.97666667 12.01,5.17 C12.19,5.36333333 12.28,5.63 12.28,5.97 C12.28,6.43 12.0883333,6.795 11.705,7.065 C11.3216667,7.335 10.79,7.47 10.11,7.47 Z" id="Path"></path>
            <path d="M16.27,2.12 C16.93,2.12 17.455,2.31166667 17.845,2.695 C18.235,3.07833333 18.43,3.63666667 18.43,4.37 L18.43,7.42 L17.72,7.42 L17.72,4.44 C17.72,3.89333333 17.5833333,3.47666667 17.31,3.19 C17.0366667,2.90333333 16.6466667,2.76 16.14,2.76 C15.5733333,2.76 15.125,2.92833333 14.795,3.265 C14.465,3.60166667 14.3,4.06666667 14.3,4.66 L14.3,7.42 L13.59,7.42 L13.59,0 L14.3,0 L14.3,3.08 C14.4933333,2.77333333 14.76,2.53666667 15.1,2.37 C15.44,2.20333333 15.83,2.12 16.27,2.12 Z" id="Path"></path>
            <path d="M20.36,2.16 L21.07,2.16 L21.07,7.42 L20.36,7.42 L20.36,2.16 Z M20.72,1.01 C20.5733333,1.01 20.45,0.96 20.35,0.86 C20.25,0.76 20.2,0.64 20.2,0.5 C20.2,0.366666667 20.25,0.25 20.35,0.15 C20.45,0.05 20.5733333,0 20.72,0 C20.8666667,0 20.99,0.0483333333 21.09,0.145 C21.19,0.241666667 21.24,0.356666667 21.24,0.49 C21.24,0.636666667 21.19,0.76 21.09,0.86 C20.99,0.96 20.8666667,1.01 20.72,1.01 Z" id="Shape"></path>
            <path d="M23.73,3.19 C23.8966667,2.83666667 24.145,2.57 24.475,2.39 C24.805,2.21 25.2133333,2.12 25.7,2.12 L25.7,2.81 L25.53,2.8 C24.9766667,2.8 24.5433333,2.97 24.23,3.31 C23.9166667,3.65 23.76,4.12666667 23.76,4.74 L23.76,7.42 L23.05,7.42 L23.05,2.16 L23.73,2.16 L23.73,3.19 Z" id="Path"></path>
            <path d="M29.83,7.1 C29.6966667,7.22 29.5316667,7.31166667 29.335,7.375 C29.1383333,7.43833333 28.9333333,7.47 28.72,7.47 C28.2266667,7.47 27.8466667,7.33666667 27.58,7.07 C27.3133333,6.80333333 27.18,6.42666667 27.18,5.94 L27.18,2.76 L26.24,2.76 L26.24,2.16 L27.18,2.16 L27.18,1.01 L27.89,1.01 L27.89,2.16 L29.49,2.16 L29.49,2.76 L27.89,2.76 L27.89,5.9 C27.89,6.21333333 27.9683333,6.45166667 28.125,6.615 C28.2816667,6.77833333 28.5066667,6.86 28.8,6.86 C28.9466667,6.86 29.0883333,6.83666667 29.225,6.79 C29.3616667,6.74333333 29.48,6.67666667 29.58,6.59 L29.83,7.1 Z" id="Path"></path>
        </g>
        <path d="M101,288 C101.552285,288 102,288.447715 102,289 L102,300 C102,300.552285 101.552285,301 101,301 L90,301 C89.4477153,301 89,300.552285 89,300 L89,289 C89,288.447715 89.4477153,288 90,288 L101,288 Z M99.999,290 L90.999,290 L90.999,299 L99.999,299 L99.999,290 Z" id="Rectangle-Copy" fill="#BBC3C6" fill-rule="nonzero"></path>
        <polygon id="Line" fill="#E2E6E7" fill-rule="nonzero" points="695.984245 313 695.984245 314 74.0157546 314 74.0157546 313"></polygon>
        <g id="shoes" transform="translate(145.260000, 328.580000)" fill="#1E3D49" fill-rule="nonzero">
            <path d="M2.14,7.47 C1.71333333,7.47 1.305,7.40833333 0.915,7.285 C0.525,7.16166667 0.22,7.00666667 0,6.82 L0.32,6.26 C0.54,6.43333333 0.816666667,6.575 1.15,6.685 C1.48333333,6.795 1.83,6.85 2.19,6.85 C2.67,6.85 3.025,6.775 3.255,6.625 C3.485,6.475 3.6,6.26333333 3.6,5.99 C3.6,5.79666667 3.53666667,5.645 3.41,5.535 C3.28333333,5.425 3.12333333,5.34166667 2.93,5.285 C2.73666667,5.22833333 2.48,5.17333333 2.16,5.12 C1.73333333,5.04 1.39,4.95833333 1.13,4.875 C0.87,4.79166667 0.648333333,4.65 0.465,4.45 C0.281666667,4.25 0.19,3.97333333 0.19,3.62 C0.19,3.18 0.373333333,2.82 0.74,2.54 C1.10666667,2.26 1.61666667,2.12 2.27,2.12 C2.61,2.12 2.95,2.165 3.29,2.255 C3.63,2.345 3.91,2.46333333 4.13,2.61 L3.82,3.18 C3.38666667,2.88 2.87,2.73 2.27,2.73 C1.81666667,2.73 1.475,2.81 1.245,2.97 C1.015,3.13 0.9,3.34 0.9,3.6 C0.9,3.8 0.965,3.96 1.095,4.08 C1.225,4.2 1.38666667,4.28833333 1.58,4.345 C1.77333333,4.40166667 2.04,4.46 2.38,4.52 C2.8,4.6 3.13666667,4.68 3.39,4.76 C3.64333333,4.84 3.86,4.97666667 4.04,5.17 C4.22,5.36333333 4.31,5.63 4.31,5.97 C4.31,6.43 4.11833333,6.795 3.735,7.065 C3.35166667,7.335 2.82,7.47 2.14,7.47 Z" id="Path"></path>
            <path d="M8.3,2.12 C8.96,2.12 9.485,2.31166667 9.875,2.695 C10.265,3.07833333 10.46,3.63666667 10.46,4.37 L10.46,7.42 L9.75,7.42 L9.75,4.44 C9.75,3.89333333 9.61333333,3.47666667 9.34,3.19 C9.06666667,2.90333333 8.67666667,2.76 8.17,2.76 C7.60333333,2.76 7.155,2.92833333 6.825,3.265 C6.495,3.60166667 6.33,4.06666667 6.33,4.66 L6.33,7.42 L5.62,7.42 L5.62,0 L6.33,0 L6.33,3.08 C6.52333333,2.77333333 6.79,2.53666667 7.13,2.37 C7.47,2.20333333 7.86,2.12 8.3,2.12 Z" id="Path"></path>
            <path d="M14.54,7.47 C14.0333333,7.47 13.5766667,7.355 13.17,7.125 C12.7633333,6.895 12.4433333,6.57666667 12.21,6.17 C11.9766667,5.76333333 11.86,5.30333333 11.86,4.79 C11.86,4.27666667 11.9766667,3.81666667 12.21,3.41 C12.4433333,3.00333333 12.7633333,2.68666667 13.17,2.46 C13.5766667,2.23333333 14.0333333,2.12 14.54,2.12 C15.0466667,2.12 15.5033333,2.23333333 15.91,2.46 C16.3166667,2.68666667 16.635,3.00333333 16.865,3.41 C17.095,3.81666667 17.21,4.27666667 17.21,4.79 C17.21,5.30333333 17.095,5.76333333 16.865,6.17 C16.635,6.57666667 16.3166667,6.895 15.91,7.125 C15.5033333,7.355 15.0466667,7.47 14.54,7.47 Z M14.54,6.84 C14.9133333,6.84 15.2483333,6.755 15.545,6.585 C15.8416667,6.415 16.0733333,6.17333333 16.24,5.86 C16.4066667,5.54666667 16.49,5.19 16.49,4.79 C16.49,4.39 16.4066667,4.03333333 16.24,3.72 C16.0733333,3.40666667 15.8416667,3.165 15.545,2.995 C15.2483333,2.825 14.9133333,2.74 14.54,2.74 C14.1666667,2.74 13.8316667,2.825 13.535,2.995 C13.2383333,3.165 13.005,3.40666667 12.835,3.72 C12.665,4.03333333 12.58,4.39 12.58,4.79 C12.58,5.19 12.665,5.54666667 12.835,5.86 C13.005,6.17333333 13.2383333,6.415 13.535,6.585 C13.8316667,6.755 14.1666667,6.84 14.54,6.84 Z" id="Shape"></path>
            <path d="M23.24,5.01 L18.84,5.01 C18.88,5.55666667 19.09,5.99833333 19.47,6.335 C19.85,6.67166667 20.33,6.84 20.91,6.84 C21.2366667,6.84 21.5366667,6.78166667 21.81,6.665 C22.0833333,6.54833333 22.32,6.37666667 22.52,6.15 L22.92,6.61 C22.6866667,6.89 22.395,7.10333333 22.045,7.25 C21.695,7.39666667 21.31,7.47 20.89,7.47 C20.35,7.47 19.8716667,7.355 19.455,7.125 C19.0383333,6.895 18.7133333,6.57666667 18.48,6.17 C18.2466667,5.76333333 18.13,5.30333333 18.13,4.79 C18.13,4.27666667 18.2416667,3.81666667 18.465,3.41 C18.6883333,3.00333333 18.995,2.68666667 19.385,2.46 C19.775,2.23333333 20.2133333,2.12 20.7,2.12 C21.1866667,2.12 21.6233333,2.23333333 22.01,2.46 C22.3966667,2.68666667 22.7,3.00166667 22.92,3.405 C23.14,3.80833333 23.25,4.27 23.25,4.79 L23.24,5.01 Z M20.7,2.73 C20.1933333,2.73 19.7683333,2.89166667 19.425,3.215 C19.0816667,3.53833333 18.8866667,3.96 18.84,4.48 L22.57,4.48 C22.5233333,3.96 22.3283333,3.53833333 21.985,3.215 C21.6416667,2.89166667 21.2133333,2.73 20.7,2.73 Z" id="Shape"></path>
            <path d="M26.11,7.47 C25.6833333,7.47 25.275,7.40833333 24.885,7.285 C24.495,7.16166667 24.19,7.00666667 23.97,6.82 L24.29,6.26 C24.51,6.43333333 24.7866667,6.575 25.12,6.685 C25.4533333,6.795 25.8,6.85 26.16,6.85 C26.64,6.85 26.995,6.775 27.225,6.625 C27.455,6.475 27.57,6.26333333 27.57,5.99 C27.57,5.79666667 27.5066667,5.645 27.38,5.535 C27.2533333,5.425 27.0933333,5.34166667 26.9,5.285 C26.7066667,5.22833333 26.45,5.17333333 26.13,5.12 C25.7033333,5.04 25.36,4.95833333 25.1,4.875 C24.84,4.79166667 24.6183333,4.65 24.435,4.45 C24.2516667,4.25 24.16,3.97333333 24.16,3.62 C24.16,3.18 24.3433333,2.82 24.71,2.54 C25.0766667,2.26 25.5866667,2.12 26.24,2.12 C26.58,2.12 26.92,2.165 27.26,2.255 C27.6,2.345 27.88,2.46333333 28.1,2.61 L27.79,3.18 C27.3566667,2.88 26.84,2.73 26.24,2.73 C25.7866667,2.73 25.445,2.81 25.215,2.97 C24.985,3.13 24.87,3.34 24.87,3.6 C24.87,3.8 24.935,3.96 25.065,4.08 C25.195,4.2 25.3566667,4.28833333 25.55,4.345 C25.7433333,4.40166667 26.01,4.46 26.35,4.52 C26.77,4.6 27.1066667,4.68 27.36,4.76 C27.6133333,4.84 27.83,4.97666667 28.01,5.17 C28.19,5.36333333 28.28,5.63 28.28,5.97 C28.28,6.43 28.0883333,6.795 27.705,7.065 C27.3216667,7.335 26.79,7.47 26.11,7.47 Z" id="Path"></path>
        </g>
        <path d="M101,327 C101.552285,327 102,327.447715 102,328 L102,339 C102,339.552285 101.552285,340 101,340 L90,340 C89.4477153,340 89,339.552285 89,339 L89,328 C89,327.447715 89.4477153,327 90,327 L101,327 Z M99.999,329 L90.999,329 L90.999,338 L99.999,338 L99.999,329 Z" id="Rectangle-Copy" fill="#BBC3C6" fill-rule="nonzero"></path>
        <polygon id="Line" fill="#E2E6E7" fill-rule="nonzero" points="695.984245 352 695.984245 353 74.0157546 353 74.0157546 352"></polygon>
        <path d="M152,365 C156.970563,365 161,369.029437 161,374 L161,387 C161,391.970563 156.970563,396 152,396 L80,396 C75.0294373,396 71,391.970563 71,387 L71,374 C71,369.029437 75.0294373,365 80,365 L152,365 Z M152,366 L80,366 C75.6650857,366 72.1354571,369.447838 72.0038068,373.750821 L72,374 L72,387 C72,391.334914 75.4478378,394.864543 79.7508207,394.996193 L80,395 L152,395 C156.334914,395 159.864543,391.552162 159.996193,387.249179 L160,387 L160,374 C160,369.665086 156.552162,366.135457 152.249179,366.003807 L152,366 Z" id="Rectangle-Copy-7" fill="#D44A6F" fill-rule="nonzero"></path>
        <path d="M688,365 C692.970563,365 697,369.029437 697,374 L697,387 C697,391.970563 692.970563,396 688,396 L537,396 C532.029437,396 528,391.970563 528,387 L528,374 C528,369.029437 532.029437,365 537,365 L688,365 Z M688,366 L537,366 C532.665086,366 529.135457,369.447838 529.003807,373.750821 L529,374 L529,387 C529,391.334914 532.447838,394.864543 536.750821,394.996193 L537,395 L688,395 C692.334914,395 695.864543,391.552162 695.996193,387.249179 L696,387 L696,374 C696,369.665086 692.552162,366.135457 688.249179,366.003807 L688,366 Z" id="Rectangle-Copy-8" fill="#80C0A1" fill-rule="nonzero"></path>
        <g id="Group-4-Copy-4" transform="translate(179.057024, 380.819724) rotate(-270.000000) translate(-179.057024, -380.819724) translate(168.237301, 368.762699)">
            <g id="Group-2" transform="translate(10.819724, 12.057024) rotate(-90.000000) translate(-10.819724, -12.057024) translate(-1.237301, 1.237301)" fill="#D44A6F">
                <polyline id="Path-2" transform="translate(1.633166, 11.366524) rotate(-180.000000) translate(-1.633166, -11.366524) " points="-3.44634095e-13 8.10019242 -3.44634095e-13 14.6328557 3.26633166 11.3665241"></polyline>
                <path d="M6.47460141,0 L20.1140486,0 C22.3231876,-4.05812251e-16 24.1140486,1.790861 24.1140486,4 L24.1140486,17.6394472 C24.1140486,19.8485862 22.3231876,21.6394472 20.1140486,21.6394472 L6.47460141,21.6394472 C4.26546241,21.6394472 2.47460141,19.8485862 2.47460141,17.6394472 L2.47460141,11.1932664 L2.47460141,11.1932664 L2.47460141,4 C2.47460141,1.790861 4.26546241,4.05812251e-16 6.47460141,0 Z" id="Rectangle"></path>
            </g>
            <g id="B" transform="translate(11.375901, 11.499441) rotate(-90.000000) translate(-11.375901, -11.499441) translate(7.573401, 6.949441)" fill="#FFFFFF" fill-rule="nonzero">
                <path d="M5.733,4.407 C6.331,4.537 6.7925,4.79483333 7.1175,5.1805 C7.4425,5.56616667 7.605,6.06233333 7.605,6.669 C7.605,7.449 7.31683333,8.04916667 6.7405,8.4695 C6.16416667,8.88983333 5.31266667,9.1 4.186,9.1 L-3.44946206e-13,9.1 L-3.44946206e-13,0 L3.926,0 C4.94,0 5.7265,0.203666667 6.2855,0.611 C6.8445,1.01833333 7.124,1.59466667 7.124,2.34 C7.124,2.84266667 7.0005,3.2695 6.7535,3.6205 C6.5065,3.9715 6.16633333,4.23366667 5.733,4.407 Z M0.962,0.793 L0.962,4.095 L3.861,4.095 C4.59766667,4.095 5.16533333,3.95416667 5.564,3.6725 C5.96266667,3.39083333 6.162,2.98133333 6.162,2.444 C6.162,1.90666667 5.96266667,1.49716667 5.564,1.2155 C5.16533333,0.933833333 4.59766667,0.793 3.861,0.793 L0.962,0.793 Z M4.173,8.307 C4.98766667,8.307 5.603,8.16833333 6.019,7.891 C6.435,7.61366667 6.643,7.18033333 6.643,6.591 C6.643,5.45566667 5.81966667,4.888 4.173,4.888 L0.962,4.888 L0.962,8.307 L4.173,8.307 Z" id="Shape"></path>
            </g>
        </g>
        <path d="M78.9241071,122 L689.736607,122 C692.498031,122 694.736607,124.238576 694.736607,127 L694.736607,160.1875 C694.736607,160.739785 694.288892,161.1875 693.736607,161.1875 L74.9241071,161.1875 C74.3718224,161.1875 73.9241071,160.739785 73.9241071,160.1875 L73.9241071,127 C73.9241071,124.238576 76.1626834,122 78.9241071,122 Z" id="Rectangle-Copy-21" fill="#243C47"></path>
        <g id="CLEAR-SELECTION-(-1" transform="translate(96.064357, 137.213000)" fill="#FFFFFF" fill-rule="nonzero">
            <path d="M4.114,8.272 C3.33666667,8.272 2.6345,8.1015 2.0075,7.7605 C1.3805,7.4195 0.889166667,6.94833333 0.5335,6.347 C0.177833333,5.74566667 0,5.06733333 0,4.312 C0,3.55666667 0.179666667,2.87833333 0.539,2.277 C0.898333333,1.67566667 1.3915,1.2045 2.0185,0.8635 C2.6455,0.5225 3.34766667,0.352 4.125,0.352 C4.75566667,0.352 5.33133333,0.462 5.852,0.682 C6.37266667,0.902 6.81266667,1.221 7.172,1.639 L6.248,2.508 C5.69066667,1.90666667 5.005,1.606 4.191,1.606 C3.663,1.606 3.19,1.7215 2.772,1.9525 C2.354,2.1835 2.02766667,2.50433333 1.793,2.915 C1.55833333,3.32566667 1.441,3.79133333 1.441,4.312 C1.441,4.83266667 1.55833333,5.29833333 1.793,5.709 C2.02766667,6.11966667 2.354,6.4405 2.772,6.6715 C3.19,6.9025 3.663,7.018 4.191,7.018 C5.005,7.018 5.69066667,6.71366667 6.248,6.105 L7.172,6.985 C6.81266667,7.403 6.37083333,7.722 5.8465,7.942 C5.32216667,8.162 4.74466667,8.272 4.114,8.272 Z" id="Path"></path>
            <polygon id="Path" points="8.547 0.462 9.977 0.462 9.977 6.952 14.003 6.952 14.003 8.162 8.547 8.162"></polygon>
            <polygon id="Path" points="20.911 6.963 20.911 8.162 15.136 8.162 15.136 0.462 20.757 0.462 20.757 1.661 16.566 1.661 16.566 3.663 20.284 3.663 20.284 4.84 16.566 4.84 16.566 6.963"></polygon>
            <path d="M27.5,6.38 L23.65,6.38 L22.891,8.162 L21.417,8.162 L24.882,0.462 L26.29,0.462 L29.766,8.162 L28.27,8.162 L27.5,6.38 Z M27.027,5.258 L25.575,1.892 L24.134,5.258 L27.027,5.258 Z" id="Shape"></path>
            <path d="M35.783,8.162 L34.21,5.907 C34.144,5.91433333 34.045,5.918 33.913,5.918 L32.175,5.918 L32.175,8.162 L30.745,8.162 L30.745,0.462 L33.913,0.462 C34.5803333,0.462 35.1615,0.572 35.6565,0.792 C36.1515,1.012 36.531,1.32733333 36.795,1.738 C37.059,2.14866667 37.191,2.63633333 37.191,3.201 C37.191,3.78033333 37.0498333,4.279 36.7675,4.697 C36.4851667,5.115 36.08,5.42666667 35.552,5.632 L37.323,8.162 L35.783,8.162 Z M35.75,3.201 C35.75,2.70966667 35.5886667,2.332 35.266,2.068 C34.9433333,1.804 34.4703333,1.672 33.847,1.672 L32.175,1.672 L32.175,4.741 L33.847,4.741 C34.4703333,4.741 34.9433333,4.60716667 35.266,4.3395 C35.5886667,4.07183333 35.75,3.69233333 35.75,3.201 Z" id="Shape"></path>
            <path d="M44.209,8.272 C43.615,8.272 43.0411667,8.18766667 42.4875,8.019 C41.9338333,7.85033333 41.4956667,7.62666667 41.173,7.348 L41.668,6.237 C41.9833333,6.48633333 42.3701667,6.68983333 42.8285,6.8475 C43.2868333,7.00516667 43.747,7.084 44.209,7.084 C44.781,7.084 45.2081667,6.99233333 45.4905,6.809 C45.7728333,6.62566667 45.914,6.38366667 45.914,6.083 C45.914,5.863 45.8351667,5.6815 45.6775,5.5385 C45.5198333,5.3955 45.32,5.28366667 45.078,5.203 C44.836,5.12233333 44.506,5.03066667 44.088,4.928 C43.5013333,4.78866667 43.0265,4.64933333 42.6635,4.51 C42.3005,4.37066667 41.9888333,4.1525 41.7285,3.8555 C41.4681667,3.5585 41.338,3.157 41.338,2.651 C41.338,2.22566667 41.4535,1.83883333 41.6845,1.4905 C41.9155,1.14216667 42.2638333,0.865333333 42.7295,0.66 C43.1951667,0.454666667 43.7653333,0.352 44.44,0.352 C44.9093333,0.352 45.3713333,0.410666667 45.826,0.528 C46.2806667,0.645333333 46.673,0.814 47.003,1.034 L46.552,2.145 C46.2146667,1.947 45.8626667,1.79666667 45.496,1.694 C45.1293333,1.59133333 44.7736667,1.54 44.429,1.54 C43.8643333,1.54 43.4445,1.63533333 43.1695,1.826 C42.8945,2.01666667 42.757,2.26966667 42.757,2.585 C42.757,2.805 42.8358333,2.98466667 42.9935,3.124 C43.1511667,3.26333333 43.351,3.37333333 43.593,3.454 C43.835,3.53466667 44.165,3.62633333 44.583,3.729 C45.155,3.861 45.6243333,3.9985 45.991,4.1415 C46.3576667,4.2845 46.6711667,4.50266667 46.9315,4.796 C47.1918333,5.08933333 47.322,5.48533333 47.322,5.984 C47.322,6.40933333 47.2065,6.79433333 46.9755,7.139 C46.7445,7.48366667 46.3943333,7.75866667 45.925,7.964 C45.4556667,8.16933333 44.8836667,8.272 44.209,8.272 Z" id="Path"></path>
            <polygon id="Path" points="54.516 6.963 54.516 8.162 48.741 8.162 48.741 0.462 54.362 0.462 54.362 1.661 50.171 1.661 50.171 3.663 53.889 3.663 53.889 4.84 50.171 4.84 50.171 6.963"></polygon>
            <polygon id="Path" points="56.111 0.462 57.541 0.462 57.541 6.952 61.567 6.952 61.567 8.162 56.111 8.162"></polygon>
            <polygon id="Path" points="68.475 6.963 68.475 8.162 62.7 8.162 62.7 0.462 68.321 0.462 68.321 1.661 64.13 1.661 64.13 3.663 67.848 3.663 67.848 4.84 64.13 4.84 64.13 6.963"></polygon>
            <path d="M73.634,8.272 C72.8566667,8.272 72.1545,8.1015 71.5275,7.7605 C70.9005,7.4195 70.4091667,6.94833333 70.0535,6.347 C69.6978333,5.74566667 69.52,5.06733333 69.52,4.312 C69.52,3.55666667 69.6996667,2.87833333 70.059,2.277 C70.4183333,1.67566667 70.9115,1.2045 71.5385,0.8635 C72.1655,0.5225 72.8676667,0.352 73.645,0.352 C74.2756667,0.352 74.8513333,0.462 75.372,0.682 C75.8926667,0.902 76.3326667,1.221 76.692,1.639 L75.768,2.508 C75.2106667,1.90666667 74.525,1.606 73.711,1.606 C73.183,1.606 72.71,1.7215 72.292,1.9525 C71.874,2.1835 71.5476667,2.50433333 71.313,2.915 C71.0783333,3.32566667 70.961,3.79133333 70.961,4.312 C70.961,4.83266667 71.0783333,5.29833333 71.313,5.709 C71.5476667,6.11966667 71.874,6.4405 72.292,6.6715 C72.71,6.9025 73.183,7.018 73.711,7.018 C74.525,7.018 75.2106667,6.71366667 75.768,6.105 L76.692,6.985 C76.3326667,7.403 75.8908333,7.722 75.3665,7.942 C74.8421667,8.162 74.2646667,8.272 73.634,8.272 Z" id="Path"></path>
            <polygon id="Path" points="79.629 1.672 77.077 1.672 77.077 0.462 83.611 0.462 83.611 1.672 81.059 1.672 81.059 8.162 79.629 8.162"></polygon>
            <polygon id="Path" points="84.689 0.462 86.119 0.462 86.119 8.162 84.689 8.162"></polygon>
            <path d="M91.795,8.272 C91.0103333,8.272 90.3026667,8.1015 89.672,7.7605 C89.0413333,7.4195 88.5463333,6.9465 88.187,6.3415 C87.8276667,5.7365 87.648,5.06 87.648,4.312 C87.648,3.564 87.8276667,2.8875 88.187,2.2825 C88.5463333,1.6775 89.0413333,1.2045 89.672,0.8635 C90.3026667,0.5225 91.0103333,0.352 91.795,0.352 C92.5796667,0.352 93.2873333,0.5225 93.918,0.8635 C94.5486667,1.2045 95.0436667,1.67566667 95.403,2.277 C95.7623333,2.87833333 95.942,3.55666667 95.942,4.312 C95.942,5.06733333 95.7623333,5.74566667 95.403,6.347 C95.0436667,6.94833333 94.5486667,7.4195 93.918,7.7605 C93.2873333,8.1015 92.5796667,8.272 91.795,8.272 Z M91.795,7.018 C92.3083333,7.018 92.7703333,6.9025 93.181,6.6715 C93.5916667,6.4405 93.9143333,6.11783333 94.149,5.7035 C94.3836667,5.28916667 94.501,4.82533333 94.501,4.312 C94.501,3.79866667 94.3836667,3.33483333 94.149,2.9205 C93.9143333,2.50616667 93.5916667,2.1835 93.181,1.9525 C92.7703333,1.7215 92.3083333,1.606 91.795,1.606 C91.2816667,1.606 90.8196667,1.7215 90.409,1.9525 C89.9983333,2.1835 89.6756667,2.50616667 89.441,2.9205 C89.2063333,3.33483333 89.089,3.79866667 89.089,4.312 C89.089,4.82533333 89.2063333,5.28916667 89.441,5.7035 C89.6756667,6.11783333 89.9983333,6.4405 90.409,6.6715 C90.8196667,6.9025 91.2816667,7.018 91.795,7.018 Z" id="Shape"></path>
            <polygon id="Path" points="104.302 0.462 104.302 8.162 103.125 8.162 98.879 2.948 98.879 8.162 97.46 8.162 97.46 0.462 98.637 0.462 102.883 5.676 102.883 0.462"></polygon>
            <path d="M110.638,10.296 C110.205333,9.62866667 109.8735,8.855 109.6425,7.975 C109.4115,7.095 109.296,6.15266667 109.296,5.148 C109.296,4.14333333 109.4115,3.19916667 109.6425,2.3155 C109.8735,1.43183333 110.205333,0.66 110.638,0 L111.947,0 C111.499667,0.792 111.1715,1.60783333 110.9625,2.4475 C110.7535,3.28716667 110.649,4.18733333 110.649,5.148 C110.649,6.10866667 110.7535,7.00883333 110.9625,7.8485 C111.1715,8.68816667 111.499667,9.504 111.947,10.296 L110.638,10.296 Z" id="Path"></path>
            <polygon id="Path" points="118.371 0.462 118.371 8.162 116.941 8.162 116.941 1.661 115.313 1.661 115.313 0.462"></polygon>
            <path d="M122.694,10.296 C123.141333,9.504 123.471333,8.68633333 123.684,7.843 C123.896667,6.99966667 124.003,6.10133333 124.003,5.148 C124.003,4.19466667 123.896667,3.29633333 123.684,2.453 C123.471333,1.60966667 123.141333,0.792 122.694,0 L124.003,0 C124.435667,0.652666667 124.7675,1.42083333 124.9985,2.3045 C125.2295,3.18816667 125.345,4.136 125.345,5.148 C125.345,6.16 125.2295,7.10416667 124.9985,7.9805 C124.7675,8.85683333 124.435667,9.62866667 124.003,10.296 L122.694,10.296 Z" id="Path"></path>
        </g>
        <g id="10" transform="translate(86.088000, 374.190000)" fill="#1E3D49" fill-rule="nonzero">
            <polygon id="Path" points="3.058 0.11 3.058 7.81 1.628 7.81 1.628 1.309 0 1.309 0 0.11"></polygon>
            <path d="M7.799,7.92 C7.183,7.92 6.633,7.76416667 6.149,7.4525 C5.665,7.14083333 5.28366667,6.68616667 5.005,6.0885 C4.72633333,5.49083333 4.587,4.78133333 4.587,3.96 C4.587,3.13866667 4.72633333,2.42916667 5.005,1.8315 C5.28366667,1.23383333 5.665,0.779166667 6.149,0.4675 C6.633,0.155833333 7.183,0 7.799,0 C8.415,0 8.96683333,0.155833333 9.4545,0.4675 C9.94216667,0.779166667 10.3253333,1.23383333 10.604,1.8315 C10.8826667,2.42916667 11.022,3.13866667 11.022,3.96 C11.022,4.78133333 10.8826667,5.49083333 10.604,6.0885 C10.3253333,6.68616667 9.94216667,7.14083333 9.4545,7.4525 C8.96683333,7.76416667 8.415,7.92 7.799,7.92 Z M7.799,6.677 C8.349,6.677 8.7835,6.44966667 9.1025,5.995 C9.4215,5.54033333 9.581,4.862 9.581,3.96 C9.581,3.058 9.4215,2.37966667 9.1025,1.925 C8.7835,1.47033333 8.349,1.243 7.799,1.243 C7.25633333,1.243 6.8255,1.47033333 6.5065,1.925 C6.1875,2.37966667 6.028,3.058 6.028,3.96 C6.028,4.862 6.1875,5.54033333 6.5065,5.995 C6.8255,6.44966667 7.25633333,6.677 7.799,6.677 Z" id="Shape"></path>
        </g>
        <g id="1---10-of-11" transform="translate(544.088000, 375.761000)" fill="#1E3D49" fill-rule="nonzero">
            <polygon id="Path" points="3.058 0.539 3.058 8.239 1.628 8.239 1.628 1.738 0 1.738 0 0.539"></polygon>
            <polygon id="Path" points="7.744 4.609 10.769 4.609 10.769 5.753 7.744 5.753"></polygon>
            <polygon id="Path" points="17.556 0.539 17.556 8.239 16.126 8.239 16.126 1.738 14.498 1.738 14.498 0.539"></polygon>
            <path d="M22.297,8.349 C21.681,8.349 21.131,8.19316667 20.647,7.8815 C20.163,7.56983333 19.7816667,7.11516667 19.503,6.5175 C19.2243333,5.91983333 19.085,5.21033333 19.085,4.389 C19.085,3.56766667 19.2243333,2.85816667 19.503,2.2605 C19.7816667,1.66283333 20.163,1.20816667 20.647,0.8965 C21.131,0.584833333 21.681,0.429 22.297,0.429 C22.913,0.429 23.4648333,0.584833333 23.9525,0.8965 C24.4401667,1.20816667 24.8233333,1.66283333 25.102,2.2605 C25.3806667,2.85816667 25.52,3.56766667 25.52,4.389 C25.52,5.21033333 25.3806667,5.91983333 25.102,6.5175 C24.8233333,7.11516667 24.4401667,7.56983333 23.9525,7.8815 C23.4648333,8.19316667 22.913,8.349 22.297,8.349 Z M22.297,7.106 C22.847,7.106 23.2815,6.87866667 23.6005,6.424 C23.9195,5.96933333 24.079,5.291 24.079,4.389 C24.079,3.487 23.9195,2.80866667 23.6005,2.354 C23.2815,1.89933333 22.847,1.672 22.297,1.672 C21.7543333,1.672 21.3235,1.89933333 21.0045,2.354 C20.6855,2.80866667 20.526,3.487 20.526,4.389 C20.526,5.291 20.6855,5.96933333 21.0045,6.424 C21.3235,6.87866667 21.7543333,7.106 22.297,7.106 Z" id="Shape"></path>
            <path d="M32.582,8.316 C31.988,8.316 31.4526667,8.18766667 30.976,7.931 C30.4993333,7.67433333 30.1271667,7.31683333 29.8595,6.8585 C29.5918333,6.40016667 29.458,5.88133333 29.458,5.302 C29.458,4.72266667 29.5918333,4.20566667 29.8595,3.751 C30.1271667,3.29633333 30.4993333,2.94066667 30.976,2.684 C31.4526667,2.42733333 31.988,2.299 32.582,2.299 C33.1833333,2.299 33.7223333,2.42733333 34.199,2.684 C34.6756667,2.94066667 35.0478333,3.29633333 35.3155,3.751 C35.5831667,4.20566667 35.717,4.72266667 35.717,5.302 C35.717,5.88133333 35.5831667,6.40016667 35.3155,6.8585 C35.0478333,7.31683333 34.6756667,7.67433333 34.199,7.931 C33.7223333,8.18766667 33.1833333,8.316 32.582,8.316 Z M32.582,7.139 C33.088,7.139 33.506,6.97033333 33.836,6.633 C34.166,6.29566667 34.331,5.852 34.331,5.302 C34.331,4.752 34.166,4.30833333 33.836,3.971 C33.506,3.63366667 33.088,3.465 32.582,3.465 C32.076,3.465 31.6598333,3.63366667 31.3335,3.971 C31.0071667,4.30833333 30.844,4.752 30.844,5.302 C30.844,5.852 31.0071667,6.29566667 31.3335,6.633 C31.6598333,6.97033333 32.076,7.139 32.582,7.139 Z" id="Shape"></path>
            <path d="M39.424,1.111 C38.8446667,1.111 38.555,1.42633333 38.555,2.057 L38.555,2.409 L40.172,2.409 L40.172,3.509 L38.599,3.509 L38.599,8.239 L37.224,8.239 L37.224,3.509 L36.256,3.509 L36.256,2.409 L37.224,2.409 L37.224,2.035 C37.224,1.40433333 37.4073333,0.9075 37.774,0.5445 C38.1406667,0.1815 38.6576667,0 39.325,0 C39.853,0 40.2673333,0.106333333 40.568,0.319 L40.183,1.353 C39.9483333,1.19166667 39.6953333,1.111 39.424,1.111 Z" id="Path"></path>
            <polygon id="Path" points="46.376 0.539 46.376 8.239 44.946 8.239 44.946 1.738 43.318 1.738 43.318 0.539"></polygon>
            <polygon id="Path" points="50.567 0.539 50.567 8.239 49.137 8.239 49.137 1.738 47.509 1.738 47.509 0.539"></polygon>
        </g>
        <g id="rows" transform="translate(118.902000, 376.060000)" fill="#1E3D49" fill-rule="nonzero">
            <path d="M1.309,0.924 C1.705,0.308 2.40166667,0 3.399,0 L3.399,1.309 C3.28166667,1.287 3.17533333,1.276 3.08,1.276 C2.54466667,1.276 2.12666667,1.43183333 1.826,1.7435 C1.52533333,2.05516667 1.375,2.50433333 1.375,3.091 L1.375,5.94 L0,5.94 L0,0.066 L1.309,0.066 L1.309,0.924 Z" id="Path"></path>
            <path d="M7.26,6.017 C6.666,6.017 6.13066667,5.88866667 5.654,5.632 C5.17733333,5.37533333 4.80516667,5.01783333 4.5375,4.5595 C4.26983333,4.10116667 4.136,3.58233333 4.136,3.003 C4.136,2.42366667 4.26983333,1.90666667 4.5375,1.452 C4.80516667,0.997333333 5.17733333,0.641666667 5.654,0.385 C6.13066667,0.128333333 6.666,0 7.26,0 C7.86133333,0 8.40033333,0.128333333 8.877,0.385 C9.35366667,0.641666667 9.72583333,0.997333333 9.9935,1.452 C10.2611667,1.90666667 10.395,2.42366667 10.395,3.003 C10.395,3.58233333 10.2611667,4.10116667 9.9935,4.5595 C9.72583333,5.01783333 9.35366667,5.37533333 8.877,5.632 C8.40033333,5.88866667 7.86133333,6.017 7.26,6.017 Z M7.26,4.84 C7.766,4.84 8.184,4.67133333 8.514,4.334 C8.844,3.99666667 9.009,3.553 9.009,3.003 C9.009,2.453 8.844,2.00933333 8.514,1.672 C8.184,1.33466667 7.766,1.166 7.26,1.166 C6.754,1.166 6.33783333,1.33466667 6.0115,1.672 C5.68516667,2.00933333 5.522,2.453 5.522,3.003 C5.522,3.553 5.68516667,3.99666667 6.0115,4.334 C6.33783333,4.67133333 6.754,4.84 7.26,4.84 Z" id="Shape"></path>
            <polygon id="Path" points="20.878 0.066 18.711 5.94 17.391 5.94 15.873 1.892 14.333 5.94 13.013 5.94 10.857 0.066 12.155 0.066 13.706 4.4 15.323 0.066 16.478 0.066 18.062 4.422 19.657 0.066"></polygon>
            <path d="M23.639,6.017 C23.1623333,6.017 22.6966667,5.95466667 22.242,5.83 C21.7873333,5.70533333 21.4243333,5.54766667 21.153,5.357 L21.681,4.312 C21.945,4.488 22.2621667,4.62916667 22.6325,4.7355 C23.0028333,4.84183333 23.3676667,4.895 23.727,4.895 C24.5483333,4.895 24.959,4.67866667 24.959,4.246 C24.959,4.04066667 24.8545,3.89766667 24.6455,3.817 C24.4365,3.73633333 24.101,3.65933333 23.639,3.586 C23.155,3.51266667 22.7608333,3.42833333 22.4565,3.333 C22.1521667,3.23766667 21.8881667,3.07083333 21.6645,2.8325 C21.4408333,2.59416667 21.329,2.26233333 21.329,1.837 C21.329,1.27966667 21.5618333,0.834166667 22.0275,0.5005 C22.4931667,0.166833333 23.122,0 23.914,0 C24.3173333,0 24.7206667,0.0458333333 25.124,0.1375 C25.5273333,0.229166667 25.8573333,0.352 26.114,0.506 L25.586,1.551 C25.0873333,1.25766667 24.5263333,1.111 23.903,1.111 C23.4996667,1.111 23.1935,1.1715 22.9845,1.2925 C22.7755,1.4135 22.671,1.573 22.671,1.771 C22.671,1.991 22.7828333,2.14683333 23.0065,2.2385 C23.2301667,2.33016667 23.5766667,2.41633333 24.046,2.497 C24.5153333,2.57033333 24.9003333,2.65466667 25.201,2.75 C25.5016667,2.84533333 25.7601667,3.00666667 25.9765,3.234 C26.1928333,3.46133333 26.301,3.784 26.301,4.202 C26.301,4.752 26.0626667,5.192 25.586,5.522 C25.1093333,5.852 24.4603333,6.017 23.639,6.017 Z" id="Path"></path>
        </g>
        <g id="Curated" transform="translate(220.801607, 176.173750)" fill="#8E9EA4" fill-rule="nonzero">
            <path d="M3.74,7.52 C3.03333333,7.52 2.395,7.365 1.825,7.055 C1.255,6.745 0.808333333,6.31666667 0.485,5.77 C0.161666667,5.22333333 0,4.60666667 0,3.92 C0,3.23333333 0.163333333,2.61666667 0.49,2.07 C0.816666667,1.52333333 1.265,1.095 1.835,0.785 C2.405,0.475 3.04333333,0.32 3.75,0.32 C4.32333333,0.32 4.84666667,0.42 5.32,0.62 C5.79333333,0.82 6.19333333,1.11 6.52,1.49 L5.68,2.28 C5.17333333,1.73333333 4.55,1.46 3.81,1.46 C3.33,1.46 2.9,1.565 2.52,1.775 C2.14,1.985 1.84333333,2.27666667 1.63,2.65 C1.41666667,3.02333333 1.31,3.44666667 1.31,3.92 C1.31,4.39333333 1.41666667,4.81666667 1.63,5.19 C1.84333333,5.56333333 2.14,5.855 2.52,6.065 C2.9,6.275 3.33,6.38 3.81,6.38 C4.55,6.38 5.17333333,6.10333333 5.68,5.55 L6.52,6.35 C6.19333333,6.73 5.79166667,7.02 5.315,7.22 C4.83833333,7.42 4.31333333,7.52 3.74,7.52 Z" id="Path"></path>
            <path d="M12.82,2.08 L12.82,7.42 L11.63,7.42 L11.63,6.74 C11.43,6.98 11.18,7.165 10.88,7.295 C10.58,7.425 10.2566667,7.49 9.91,7.49 C9.19666667,7.49 8.635,7.29166667 8.225,6.895 C7.815,6.49833333 7.61,5.91 7.61,5.13 L7.61,2.08 L8.86,2.08 L8.86,4.96 C8.86,5.44 8.96833333,5.79833333 9.185,6.035 C9.40166667,6.27166667 9.71,6.39 10.11,6.39 C10.5566667,6.39 10.9116667,6.25166667 11.175,5.975 C11.4383333,5.69833333 11.57,5.3 11.57,4.78 L11.57,2.08 L12.82,2.08 Z" id="Path"></path>
            <path d="M15.65,2.86 C16.01,2.3 16.6433333,2.02 17.55,2.02 L17.55,3.21 C17.4433333,3.19 17.3466667,3.18 17.26,3.18 C16.7733333,3.18 16.3933333,3.32166667 16.12,3.605 C15.8466667,3.88833333 15.71,4.29666667 15.71,4.83 L15.71,7.42 L14.46,7.42 L14.46,2.08 L15.65,2.08 L15.65,2.86 Z" id="Path"></path>
            <path d="M20.7,2.02 C21.4866667,2.02 22.0883333,2.20833333 22.505,2.585 C22.9216667,2.96166667 23.13,3.53 23.13,4.29 L23.13,7.42 L21.95,7.42 L21.95,6.77 C21.7966667,7.00333333 21.5783333,7.18166667 21.295,7.305 C21.0116667,7.42833333 20.67,7.49 20.27,7.49 C19.87,7.49 19.52,7.42166667 19.22,7.285 C18.92,7.14833333 18.6883333,6.95833333 18.525,6.715 C18.3616667,6.47166667 18.28,6.19666667 18.28,5.89 C18.28,5.41 18.4583333,5.025 18.815,4.735 C19.1716667,4.445 19.7333333,4.3 20.5,4.3 L21.88,4.3 L21.88,4.22 C21.88,3.84666667 21.7683333,3.56 21.545,3.36 C21.3216667,3.16 20.99,3.06 20.55,3.06 C20.25,3.06 19.955,3.10666667 19.665,3.2 C19.375,3.29333333 19.13,3.42333333 18.93,3.59 L18.44,2.68 C18.72,2.46666667 19.0566667,2.30333333 19.45,2.19 C19.8433333,2.07666667 20.26,2.02 20.7,2.02 Z M20.53,6.58 C20.8433333,6.58 21.1216667,6.50833333 21.365,6.365 C21.6083333,6.22166667 21.78,6.01666667 21.88,5.75 L21.88,5.13 L20.59,5.13 C19.87,5.13 19.51,5.36666667 19.51,5.84 C19.51,6.06666667 19.6,6.24666667 19.78,6.38 C19.96,6.51333333 20.21,6.58 20.53,6.58 Z" id="Shape"></path>
            <path d="M27.94,7.13 C27.7933333,7.25 27.615,7.34 27.405,7.4 C27.195,7.46 26.9733333,7.49 26.74,7.49 C26.1533333,7.49 25.7,7.33666667 25.38,7.03 C25.06,6.72333333 24.9,6.27666667 24.9,5.69 L24.9,3.12 L24.02,3.12 L24.02,2.12 L24.9,2.12 L24.9,0.9 L26.15,0.9 L26.15,2.12 L27.58,2.12 L27.58,3.12 L26.15,3.12 L26.15,5.66 C26.15,5.92 26.2133333,6.11833333 26.34,6.255 C26.4666667,6.39166667 26.65,6.46 26.89,6.46 C27.17,6.46 27.4033333,6.38666667 27.59,6.24 L27.94,7.13 Z" id="Path"></path>
            <path d="M33.99,4.78 C33.99,4.86666667 33.9833333,4.99 33.97,5.15 L29.78,5.15 C29.8533333,5.54333333 30.045,5.855 30.355,6.085 C30.665,6.315 31.05,6.43 31.51,6.43 C32.0966667,6.43 32.58,6.23666667 32.96,5.85 L33.63,6.62 C33.39,6.90666667 33.0866667,7.12333333 32.72,7.27 C32.3533333,7.41666667 31.94,7.49 31.48,7.49 C30.8933333,7.49 30.3766667,7.37333333 29.93,7.14 C29.4833333,6.90666667 29.1383333,6.58166667 28.895,6.165 C28.6516667,5.74833333 28.53,5.27666667 28.53,4.75 C28.53,4.23 28.6483333,3.76166667 28.885,3.345 C29.1216667,2.92833333 29.45,2.60333333 29.87,2.37 C30.29,2.13666667 30.7633333,2.02 31.29,2.02 C31.81,2.02 32.275,2.135 32.685,2.365 C33.095,2.595 33.415,2.91833333 33.645,3.335 C33.875,3.75166667 33.99,4.23333333 33.99,4.78 Z M31.29,3.02 C30.89,3.02 30.5516667,3.13833333 30.275,3.375 C29.9983333,3.61166667 29.83,3.92666667 29.77,4.32 L32.8,4.32 C32.7466667,3.93333333 32.5833333,3.62 32.31,3.38 C32.0366667,3.14 31.6966667,3.02 31.29,3.02 Z" id="Shape"></path>
            <path d="M40.42,0 L40.42,7.42 L39.22,7.42 L39.22,6.73 C39.0133333,6.98333333 38.7583333,7.17333333 38.455,7.3 C38.1516667,7.42666667 37.8166667,7.49 37.45,7.49 C36.9366667,7.49 36.475,7.37666667 36.065,7.15 C35.655,6.92333333 35.3333333,6.60166667 35.1,6.185 C34.8666667,5.76833333 34.75,5.29 34.75,4.75 C34.75,4.21 34.8666667,3.73333333 35.1,3.32 C35.3333333,2.90666667 35.655,2.58666667 36.065,2.36 C36.475,2.13333333 36.9366667,2.02 37.45,2.02 C37.8033333,2.02 38.1266667,2.08 38.42,2.2 C38.7133333,2.32 38.9633333,2.5 39.17,2.74 L39.17,0 L40.42,0 Z M37.6,6.42 C37.9,6.42 38.17,6.35166667 38.41,6.215 C38.65,6.07833333 38.84,5.88333333 38.98,5.63 C39.12,5.37666667 39.19,5.08333333 39.19,4.75 C39.19,4.41666667 39.12,4.12333333 38.98,3.87 C38.84,3.61666667 38.65,3.42166667 38.41,3.285 C38.17,3.14833333 37.9,3.08 37.6,3.08 C37.3,3.08 37.03,3.14833333 36.79,3.285 C36.55,3.42166667 36.36,3.61666667 36.22,3.87 C36.08,4.12333333 36.01,4.41666667 36.01,4.75 C36.01,5.08333333 36.08,5.37666667 36.22,5.63 C36.36,5.88333333 36.55,6.07833333 36.79,6.215 C37.03,6.35166667 37.3,6.42 37.6,6.42 Z" id="Shape"></path>
        </g>
        <g id="Inactive" transform="translate(316.926607, 175.873750)" fill="#8E9EA4" fill-rule="nonzero">
            <polygon id="Path" points="0 0.72 1.3 0.72 1.3 7.72 0 7.72"></polygon>
            <path d="M6.1,2.32 C6.77333333,2.32 7.31333333,2.51666667 7.72,2.91 C8.12666667,3.30333333 8.33,3.88666667 8.33,4.66 L8.33,7.72 L7.08,7.72 L7.08,4.82 C7.08,4.35333333 6.97,4.00166667 6.75,3.765 C6.53,3.52833333 6.21666667,3.41 5.81,3.41 C5.35,3.41 4.98666667,3.54833333 4.72,3.825 C4.45333333,4.10166667 4.32,4.5 4.32,5.02 L4.32,7.72 L3.07,7.72 L3.07,2.38 L4.26,2.38 L4.26,3.07 C4.46666667,2.82333333 4.72666667,2.63666667 5.04,2.51 C5.35333333,2.38333333 5.70666667,2.32 6.1,2.32 Z" id="Path"></path>
            <path d="M11.96,2.32 C12.7466667,2.32 13.3483333,2.50833333 13.765,2.885 C14.1816667,3.26166667 14.39,3.83 14.39,4.59 L14.39,7.72 L13.21,7.72 L13.21,7.07 C13.0566667,7.30333333 12.8383333,7.48166667 12.555,7.605 C12.2716667,7.72833333 11.93,7.79 11.53,7.79 C11.13,7.79 10.78,7.72166667 10.48,7.585 C10.18,7.44833333 9.94833333,7.25833333 9.785,7.015 C9.62166667,6.77166667 9.54,6.49666667 9.54,6.19 C9.54,5.71 9.71833333,5.325 10.075,5.035 C10.4316667,4.745 10.9933333,4.6 11.76,4.6 L13.14,4.6 L13.14,4.52 C13.14,4.14666667 13.0283333,3.86 12.805,3.66 C12.5816667,3.46 12.25,3.36 11.81,3.36 C11.51,3.36 11.215,3.40666667 10.925,3.5 C10.635,3.59333333 10.39,3.72333333 10.19,3.89 L9.7,2.98 C9.98,2.76666667 10.3166667,2.60333333 10.71,2.49 C11.1033333,2.37666667 11.52,2.32 11.96,2.32 Z M11.79,6.88 C12.1033333,6.88 12.3816667,6.80833333 12.625,6.665 C12.8683333,6.52166667 13.04,6.31666667 13.14,6.05 L13.14,5.43 L11.85,5.43 C11.13,5.43 10.77,5.66666667 10.77,6.14 C10.77,6.36666667 10.86,6.54666667 11.04,6.68 C11.22,6.81333333 11.47,6.88 11.79,6.88 Z" id="Shape"></path>
            <path d="M18.44,7.79 C17.8866667,7.79 17.39,7.67333333 16.95,7.44 C16.51,7.20666667 16.1666667,6.88166667 15.92,6.465 C15.6733333,6.04833333 15.55,5.57666667 15.55,5.05 C15.55,4.52333333 15.6733333,4.05333333 15.92,3.64 C16.1666667,3.22666667 16.5083333,2.90333333 16.945,2.67 C17.3816667,2.43666667 17.88,2.32 18.44,2.32 C18.9666667,2.32 19.4283333,2.42666667 19.825,2.64 C20.2216667,2.85333333 20.52,3.16 20.72,3.56 L19.76,4.12 C19.6066667,3.87333333 19.415,3.68833333 19.185,3.565 C18.955,3.44166667 18.7033333,3.38 18.43,3.38 C17.9633333,3.38 17.5766667,3.53166667 17.27,3.835 C16.9633333,4.13833333 16.81,4.54333333 16.81,5.05 C16.81,5.55666667 16.9616667,5.96166667 17.265,6.265 C17.5683333,6.56833333 17.9566667,6.72 18.43,6.72 C18.7033333,6.72 18.955,6.65833333 19.185,6.535 C19.415,6.41166667 19.6066667,6.22666667 19.76,5.98 L20.72,6.54 C20.5133333,6.94 20.2116667,7.24833333 19.815,7.465 C19.4183333,7.68166667 18.96,7.79 18.44,7.79 Z" id="Path"></path>
            <path d="M25.01,7.43 C24.8633333,7.55 24.685,7.64 24.475,7.7 C24.265,7.76 24.0433333,7.79 23.81,7.79 C23.2233333,7.79 22.77,7.63666667 22.45,7.33 C22.13,7.02333333 21.97,6.57666667 21.97,5.99 L21.97,3.42 L21.09,3.42 L21.09,2.42 L21.97,2.42 L21.97,1.2 L23.22,1.2 L23.22,2.42 L24.65,2.42 L24.65,3.42 L23.22,3.42 L23.22,5.96 C23.22,6.22 23.2833333,6.41833333 23.41,6.555 C23.5366667,6.69166667 23.72,6.76 23.96,6.76 C24.24,6.76 24.4733333,6.68666667 24.66,6.54 L25.01,7.43 Z" id="Path"></path>
            <path d="M26.04,2.38 L27.29,2.38 L27.29,7.72 L26.04,7.72 L26.04,2.38 Z M26.67,1.5 C26.4433333,1.5 26.2533333,1.42833333 26.1,1.285 C25.9466667,1.14166667 25.87,0.963333333 25.87,0.75 C25.87,0.536666667 25.9466667,0.358333333 26.1,0.215 C26.2533333,0.0716666667 26.4433333,0 26.67,0 C26.8966667,0 27.0866667,0.0683333333 27.24,0.205 C27.3933333,0.341666667 27.47,0.513333333 27.47,0.72 C27.47,0.94 27.395,1.125 27.245,1.275 C27.095,1.425 26.9033333,1.5 26.67,1.5 Z" id="Shape"></path>
            <polygon id="Path" points="33.93 2.38 31.64 7.72 30.35 7.72 28.06 2.38 29.36 2.38 31.02 6.34 32.73 2.38"></polygon>
            <path d="M39.73,5.08 C39.73,5.16666667 39.7233333,5.29 39.71,5.45 L35.52,5.45 C35.5933333,5.84333333 35.785,6.155 36.095,6.385 C36.405,6.615 36.79,6.73 37.25,6.73 C37.8366667,6.73 38.32,6.53666667 38.7,6.15 L39.37,6.92 C39.13,7.20666667 38.8266667,7.42333333 38.46,7.57 C38.0933333,7.71666667 37.68,7.79 37.22,7.79 C36.6333333,7.79 36.1166667,7.67333333 35.67,7.44 C35.2233333,7.20666667 34.8783333,6.88166667 34.635,6.465 C34.3916667,6.04833333 34.27,5.57666667 34.27,5.05 C34.27,4.53 34.3883333,4.06166667 34.625,3.645 C34.8616667,3.22833333 35.19,2.90333333 35.61,2.67 C36.03,2.43666667 36.5033333,2.32 37.03,2.32 C37.55,2.32 38.015,2.435 38.425,2.665 C38.835,2.895 39.155,3.21833333 39.385,3.635 C39.615,4.05166667 39.73,4.53333333 39.73,5.08 Z M37.03,3.32 C36.63,3.32 36.2916667,3.43833333 36.015,3.675 C35.7383333,3.91166667 35.57,4.22666667 35.51,4.62 L38.54,4.62 C38.4866667,4.23333333 38.3233333,3.92 38.05,3.68 C37.7766667,3.44 37.4366667,3.32 37.03,3.32 Z" id="Shape"></path>
        </g>
        <g id="Total-Organic" transform="translate(402.745357, 175.873750)" fill="#8E9EA4" fill-rule="nonzero">
            <polygon id="Path" points="2.32 1.82 0 1.82 0 0.72 5.94 0.72 5.94 1.82 3.62 1.82 3.62 7.72 2.32 7.72"></polygon>
            <path d="M9.2,7.79 C8.66,7.79 8.17333333,7.67333333 7.74,7.44 C7.30666667,7.20666667 6.96833333,6.88166667 6.725,6.465 C6.48166667,6.04833333 6.36,5.57666667 6.36,5.05 C6.36,4.52333333 6.48166667,4.05333333 6.725,3.64 C6.96833333,3.22666667 7.30666667,2.90333333 7.74,2.67 C8.17333333,2.43666667 8.66,2.32 9.2,2.32 C9.74666667,2.32 10.2366667,2.43666667 10.67,2.67 C11.1033333,2.90333333 11.4416667,3.22666667 11.685,3.64 C11.9283333,4.05333333 12.05,4.52333333 12.05,5.05 C12.05,5.57666667 11.9283333,6.04833333 11.685,6.465 C11.4416667,6.88166667 11.1033333,7.20666667 10.67,7.44 C10.2366667,7.67333333 9.74666667,7.79 9.2,7.79 Z M9.2,6.72 C9.66,6.72 10.04,6.56666667 10.34,6.26 C10.64,5.95333333 10.79,5.55 10.79,5.05 C10.79,4.55 10.64,4.14666667 10.34,3.84 C10.04,3.53333333 9.66,3.38 9.2,3.38 C8.74,3.38 8.36166667,3.53333333 8.065,3.84 C7.76833333,4.14666667 7.62,4.55 7.62,5.05 C7.62,5.55 7.76833333,5.95333333 8.065,6.26 C8.36166667,6.56666667 8.74,6.72 9.2,6.72 Z" id="Shape"></path>
            <path d="M16.46,7.43 C16.3133333,7.55 16.135,7.64 15.925,7.7 C15.715,7.76 15.4933333,7.79 15.26,7.79 C14.6733333,7.79 14.22,7.63666667 13.9,7.33 C13.58,7.02333333 13.42,6.57666667 13.42,5.99 L13.42,3.42 L12.54,3.42 L12.54,2.42 L13.42,2.42 L13.42,1.2 L14.67,1.2 L14.67,2.42 L16.1,2.42 L16.1,3.42 L14.67,3.42 L14.67,5.96 C14.67,6.22 14.7333333,6.41833333 14.86,6.555 C14.9866667,6.69166667 15.17,6.76 15.41,6.76 C15.69,6.76 15.9233333,6.68666667 16.11,6.54 L16.46,7.43 Z" id="Path"></path>
            <path d="M19.53,2.32 C20.3166667,2.32 20.9183333,2.50833333 21.335,2.885 C21.7516667,3.26166667 21.96,3.83 21.96,4.59 L21.96,7.72 L20.78,7.72 L20.78,7.07 C20.6266667,7.30333333 20.4083333,7.48166667 20.125,7.605 C19.8416667,7.72833333 19.5,7.79 19.1,7.79 C18.7,7.79 18.35,7.72166667 18.05,7.585 C17.75,7.44833333 17.5183333,7.25833333 17.355,7.015 C17.1916667,6.77166667 17.11,6.49666667 17.11,6.19 C17.11,5.71 17.2883333,5.325 17.645,5.035 C18.0016667,4.745 18.5633333,4.6 19.33,4.6 L20.71,4.6 L20.71,4.52 C20.71,4.14666667 20.5983333,3.86 20.375,3.66 C20.1516667,3.46 19.82,3.36 19.38,3.36 C19.08,3.36 18.785,3.40666667 18.495,3.5 C18.205,3.59333333 17.96,3.72333333 17.76,3.89 L17.27,2.98 C17.55,2.76666667 17.8866667,2.60333333 18.28,2.49 C18.6733333,2.37666667 19.09,2.32 19.53,2.32 Z M19.36,6.88 C19.6733333,6.88 19.9516667,6.80833333 20.195,6.665 C20.4383333,6.52166667 20.61,6.31666667 20.71,6.05 L20.71,5.43 L19.42,5.43 C18.7,5.43 18.34,5.66666667 18.34,6.14 C18.34,6.36666667 18.43,6.54666667 18.61,6.68 C18.79,6.81333333 19.04,6.88 19.36,6.88 Z" id="Shape"></path>
            <polygon id="Path" points="23.56 0.3 24.81 0.3 24.81 7.72 23.56 7.72"></polygon>
            <path d="M32.6,7.82 C31.8866667,7.82 31.2433333,7.665 30.67,7.355 C30.0966667,7.045 29.6466667,6.615 29.32,6.065 C28.9933333,5.515 28.83,4.9 28.83,4.22 C28.83,3.54 28.9933333,2.925 29.32,2.375 C29.6466667,1.825 30.0966667,1.395 30.67,1.085 C31.2433333,0.775 31.8866667,0.62 32.6,0.62 C33.3133333,0.62 33.9566667,0.775 34.53,1.085 C35.1033333,1.395 35.5533333,1.82333333 35.88,2.37 C36.2066667,2.91666667 36.37,3.53333333 36.37,4.22 C36.37,4.90666667 36.2066667,5.52333333 35.88,6.07 C35.5533333,6.61666667 35.1033333,7.045 34.53,7.355 C33.9566667,7.665 33.3133333,7.82 32.6,7.82 Z M32.6,6.68 C33.0666667,6.68 33.4866667,6.575 33.86,6.365 C34.2333333,6.155 34.5266667,5.86166667 34.74,5.485 C34.9533333,5.10833333 35.06,4.68666667 35.06,4.22 C35.06,3.75333333 34.9533333,3.33166667 34.74,2.955 C34.5266667,2.57833333 34.2333333,2.285 33.86,2.075 C33.4866667,1.865 33.0666667,1.76 32.6,1.76 C32.1333333,1.76 31.7133333,1.865 31.34,2.075 C30.9666667,2.285 30.6733333,2.57833333 30.46,2.955 C30.2466667,3.33166667 30.14,3.75333333 30.14,4.22 C30.14,4.68666667 30.2466667,5.10833333 30.46,5.485 C30.6733333,5.86166667 30.9666667,6.155 31.34,6.365 C31.7133333,6.575 32.1333333,6.68 32.6,6.68 Z" id="Shape"></path>
            <path d="M38.82,3.16 C39.18,2.6 39.8133333,2.32 40.72,2.32 L40.72,3.51 C40.6133333,3.49 40.5166667,3.48 40.43,3.48 C39.9433333,3.48 39.5633333,3.62166667 39.29,3.905 C39.0166667,4.18833333 38.88,4.59666667 38.88,5.13 L38.88,7.72 L37.63,7.72 L37.63,2.38 L38.82,2.38 L38.82,3.16 Z" id="Path"></path>
            <path d="M47.13,2.38 L47.13,6.91 C47.13,8.79 46.17,9.73 44.25,9.73 C43.7366667,9.73 43.25,9.665 42.79,9.535 C42.33,9.405 41.95,9.21666667 41.65,8.97 L42.21,8.03 C42.4433333,8.22333333 42.7383333,8.37833333 43.095,8.495 C43.4516667,8.61166667 43.8133333,8.67 44.18,8.67 C44.7666667,8.67 45.1966667,8.53666667 45.47,8.27 C45.7433333,8.00333333 45.88,7.59666667 45.88,7.05 L45.88,6.77 C45.6666667,7.00333333 45.4066667,7.18 45.1,7.3 C44.7933333,7.42 44.4566667,7.48 44.09,7.48 C43.5833333,7.48 43.125,7.37166667 42.715,7.155 C42.305,6.93833333 41.9816667,6.63333333 41.745,6.24 C41.5083333,5.84666667 41.39,5.39666667 41.39,4.89 C41.39,4.38333333 41.5083333,3.935 41.745,3.545 C41.9816667,3.155 42.305,2.85333333 42.715,2.64 C43.125,2.42666667 43.5833333,2.32 44.09,2.32 C44.4766667,2.32 44.8283333,2.38333333 45.145,2.51 C45.4616667,2.63666667 45.7266667,2.83 45.94,3.09 L45.94,2.38 L47.13,2.38 Z M44.28,6.42 C44.7533333,6.42 45.1416667,6.27833333 45.445,5.995 C45.7483333,5.71166667 45.9,5.34333333 45.9,4.89 C45.9,4.44333333 45.7483333,4.08 45.445,3.8 C45.1416667,3.52 44.7533333,3.38 44.28,3.38 C43.8,3.38 43.4083333,3.52 43.105,3.8 C42.8016667,4.08 42.65,4.44333333 42.65,4.89 C42.65,5.34333333 42.8016667,5.71166667 43.105,5.995 C43.4083333,6.27833333 43.8,6.42 44.28,6.42 Z" id="Shape"></path>
            <path d="M50.81,2.32 C51.5966667,2.32 52.1983333,2.50833333 52.615,2.885 C53.0316667,3.26166667 53.24,3.83 53.24,4.59 L53.24,7.72 L52.06,7.72 L52.06,7.07 C51.9066667,7.30333333 51.6883333,7.48166667 51.405,7.605 C51.1216667,7.72833333 50.78,7.79 50.38,7.79 C49.98,7.79 49.63,7.72166667 49.33,7.585 C49.03,7.44833333 48.7983333,7.25833333 48.635,7.015 C48.4716667,6.77166667 48.39,6.49666667 48.39,6.19 C48.39,5.71 48.5683333,5.325 48.925,5.035 C49.2816667,4.745 49.8433333,4.6 50.61,4.6 L51.99,4.6 L51.99,4.52 C51.99,4.14666667 51.8783333,3.86 51.655,3.66 C51.4316667,3.46 51.1,3.36 50.66,3.36 C50.36,3.36 50.065,3.40666667 49.775,3.5 C49.485,3.59333333 49.24,3.72333333 49.04,3.89 L48.55,2.98 C48.83,2.76666667 49.1666667,2.60333333 49.56,2.49 C49.9533333,2.37666667 50.37,2.32 50.81,2.32 Z M50.64,6.88 C50.9533333,6.88 51.2316667,6.80833333 51.475,6.665 C51.7183333,6.52166667 51.89,6.31666667 51.99,6.05 L51.99,5.43 L50.7,5.43 C49.98,5.43 49.62,5.66666667 49.62,6.14 C49.62,6.36666667 49.71,6.54666667 49.89,6.68 C50.07,6.81333333 50.32,6.88 50.64,6.88 Z" id="Shape"></path>
            <path d="M57.87,2.32 C58.5433333,2.32 59.0833333,2.51666667 59.49,2.91 C59.8966667,3.30333333 60.1,3.88666667 60.1,4.66 L60.1,7.72 L58.85,7.72 L58.85,4.82 C58.85,4.35333333 58.74,4.00166667 58.52,3.765 C58.3,3.52833333 57.9866667,3.41 57.58,3.41 C57.12,3.41 56.7566667,3.54833333 56.49,3.825 C56.2233333,4.10166667 56.09,4.5 56.09,5.02 L56.09,7.72 L54.84,7.72 L54.84,2.38 L56.03,2.38 L56.03,3.07 C56.2366667,2.82333333 56.4966667,2.63666667 56.81,2.51 C57.1233333,2.38333333 57.4766667,2.32 57.87,2.32 Z" id="Path"></path>
            <path d="M61.69,2.38 L62.94,2.38 L62.94,7.72 L61.69,7.72 L61.69,2.38 Z M62.32,1.5 C62.0933333,1.5 61.9033333,1.42833333 61.75,1.285 C61.5966667,1.14166667 61.52,0.963333333 61.52,0.75 C61.52,0.536666667 61.5966667,0.358333333 61.75,0.215 C61.9033333,0.0716666667 62.0933333,0 62.32,0 C62.5466667,0 62.7366667,0.0683333333 62.89,0.205 C63.0433333,0.341666667 63.12,0.513333333 63.12,0.72 C63.12,0.94 63.045,1.125 62.895,1.275 C62.745,1.425 62.5533333,1.5 62.32,1.5 Z" id="Shape"></path>
            <path d="M67.03,7.79 C66.4766667,7.79 65.98,7.67333333 65.54,7.44 C65.1,7.20666667 64.7566667,6.88166667 64.51,6.465 C64.2633333,6.04833333 64.14,5.57666667 64.14,5.05 C64.14,4.52333333 64.2633333,4.05333333 64.51,3.64 C64.7566667,3.22666667 65.0983333,2.90333333 65.535,2.67 C65.9716667,2.43666667 66.47,2.32 67.03,2.32 C67.5566667,2.32 68.0183333,2.42666667 68.415,2.64 C68.8116667,2.85333333 69.11,3.16 69.31,3.56 L68.35,4.12 C68.1966667,3.87333333 68.005,3.68833333 67.775,3.565 C67.545,3.44166667 67.2933333,3.38 67.02,3.38 C66.5533333,3.38 66.1666667,3.53166667 65.86,3.835 C65.5533333,4.13833333 65.4,4.54333333 65.4,5.05 C65.4,5.55666667 65.5516667,5.96166667 65.855,6.265 C66.1583333,6.56833333 66.5466667,6.72 67.02,6.72 C67.2933333,6.72 67.545,6.65833333 67.775,6.535 C68.005,6.41166667 68.1966667,6.22666667 68.35,5.98 L69.31,6.54 C69.1033333,6.94 68.8016667,7.24833333 68.405,7.465 C68.0083333,7.68166667 67.55,7.79 67.03,7.79 Z" id="Path"></path>
        </g>
        <g id="Updated-on" transform="translate(512.054107, 176.173750)" fill="#8E9EA4" fill-rule="nonzero">
            <path d="M3.07,7.52 C2.10333333,7.52 1.35,7.24833333 0.81,6.705 C0.27,6.16166667 0,5.38333333 0,4.37 L0,0.42 L1.3,0.42 L1.3,4.32 C1.3,5.69333333 1.89333333,6.38 3.08,6.38 C4.26,6.38 4.85,5.69333333 4.85,4.32 L4.85,0.42 L6.13,0.42 L6.13,4.37 C6.13,5.38333333 5.86166667,6.16166667 5.325,6.705 C4.78833333,7.24833333 4.03666667,7.52 3.07,7.52 Z" id="Path"></path>
            <path d="M10.79,2.02 C11.31,2.02 11.775,2.13333333 12.185,2.36 C12.595,2.58666667 12.9166667,2.90666667 13.15,3.32 C13.3833333,3.73333333 13.5,4.21 13.5,4.75 C13.5,5.29 13.3833333,5.76833333 13.15,6.185 C12.9166667,6.60166667 12.595,6.92333333 12.185,7.15 C11.775,7.37666667 11.31,7.49 10.79,7.49 C10.07,7.49 9.5,7.25 9.08,6.77 L9.08,9.36 L7.83,9.36 L7.83,2.08 L9.02,2.08 L9.02,2.78 C9.22666667,2.52666667 9.48166667,2.33666667 9.785,2.21 C10.0883333,2.08333333 10.4233333,2.02 10.79,2.02 Z M10.65,6.42 C11.11,6.42 11.4883333,6.26666667 11.785,5.96 C12.0816667,5.65333333 12.23,5.25 12.23,4.75 C12.23,4.25 12.0816667,3.84666667 11.785,3.54 C11.4883333,3.23333333 11.11,3.08 10.65,3.08 C10.35,3.08 10.08,3.14833333 9.84,3.285 C9.6,3.42166667 9.41,3.61666667 9.27,3.87 C9.13,4.12333333 9.06,4.41666667 9.06,4.75 C9.06,5.08333333 9.13,5.37666667 9.27,5.63 C9.41,5.88333333 9.6,6.07833333 9.84,6.215 C10.08,6.35166667 10.35,6.42 10.65,6.42 Z" id="Shape"></path>
            <path d="M19.92,0 L19.92,7.42 L18.72,7.42 L18.72,6.73 C18.5133333,6.98333333 18.2583333,7.17333333 17.955,7.3 C17.6516667,7.42666667 17.3166667,7.49 16.95,7.49 C16.4366667,7.49 15.975,7.37666667 15.565,7.15 C15.155,6.92333333 14.8333333,6.60166667 14.6,6.185 C14.3666667,5.76833333 14.25,5.29 14.25,4.75 C14.25,4.21 14.3666667,3.73333333 14.6,3.32 C14.8333333,2.90666667 15.155,2.58666667 15.565,2.36 C15.975,2.13333333 16.4366667,2.02 16.95,2.02 C17.3033333,2.02 17.6266667,2.08 17.92,2.2 C18.2133333,2.32 18.4633333,2.5 18.67,2.74 L18.67,0 L19.92,0 Z M17.1,6.42 C17.4,6.42 17.67,6.35166667 17.91,6.215 C18.15,6.07833333 18.34,5.88333333 18.48,5.63 C18.62,5.37666667 18.69,5.08333333 18.69,4.75 C18.69,4.41666667 18.62,4.12333333 18.48,3.87 C18.34,3.61666667 18.15,3.42166667 17.91,3.285 C17.67,3.14833333 17.4,3.08 17.1,3.08 C16.8,3.08 16.53,3.14833333 16.29,3.285 C16.05,3.42166667 15.86,3.61666667 15.72,3.87 C15.58,4.12333333 15.51,4.41666667 15.51,4.75 C15.51,5.08333333 15.58,5.37666667 15.72,5.63 C15.86,5.88333333 16.05,6.07833333 16.29,6.215 C16.53,6.35166667 16.8,6.42 17.1,6.42 Z" id="Shape"></path>
            <path d="M23.6,2.02 C24.3866667,2.02 24.9883333,2.20833333 25.405,2.585 C25.8216667,2.96166667 26.03,3.53 26.03,4.29 L26.03,7.42 L24.85,7.42 L24.85,6.77 C24.6966667,7.00333333 24.4783333,7.18166667 24.195,7.305 C23.9116667,7.42833333 23.57,7.49 23.17,7.49 C22.77,7.49 22.42,7.42166667 22.12,7.285 C21.82,7.14833333 21.5883333,6.95833333 21.425,6.715 C21.2616667,6.47166667 21.18,6.19666667 21.18,5.89 C21.18,5.41 21.3583333,5.025 21.715,4.735 C22.0716667,4.445 22.6333333,4.3 23.4,4.3 L24.78,4.3 L24.78,4.22 C24.78,3.84666667 24.6683333,3.56 24.445,3.36 C24.2216667,3.16 23.89,3.06 23.45,3.06 C23.15,3.06 22.855,3.10666667 22.565,3.2 C22.275,3.29333333 22.03,3.42333333 21.83,3.59 L21.34,2.68 C21.62,2.46666667 21.9566667,2.30333333 22.35,2.19 C22.7433333,2.07666667 23.16,2.02 23.6,2.02 Z M23.43,6.58 C23.7433333,6.58 24.0216667,6.50833333 24.265,6.365 C24.5083333,6.22166667 24.68,6.01666667 24.78,5.75 L24.78,5.13 L23.49,5.13 C22.77,5.13 22.41,5.36666667 22.41,5.84 C22.41,6.06666667 22.5,6.24666667 22.68,6.38 C22.86,6.51333333 23.11,6.58 23.43,6.58 Z" id="Shape"></path>
            <path d="M30.84,7.13 C30.6933333,7.25 30.515,7.34 30.305,7.4 C30.095,7.46 29.8733333,7.49 29.64,7.49 C29.0533333,7.49 28.6,7.33666667 28.28,7.03 C27.96,6.72333333 27.8,6.27666667 27.8,5.69 L27.8,3.12 L26.92,3.12 L26.92,2.12 L27.8,2.12 L27.8,0.9 L29.05,0.9 L29.05,2.12 L30.48,2.12 L30.48,3.12 L29.05,3.12 L29.05,5.66 C29.05,5.92 29.1133333,6.11833333 29.24,6.255 C29.3666667,6.39166667 29.55,6.46 29.79,6.46 C30.07,6.46 30.3033333,6.38666667 30.49,6.24 L30.84,7.13 Z" id="Path"></path>
            <path d="M36.89,4.78 C36.89,4.86666667 36.8833333,4.99 36.87,5.15 L32.68,5.15 C32.7533333,5.54333333 32.945,5.855 33.255,6.085 C33.565,6.315 33.95,6.43 34.41,6.43 C34.9966667,6.43 35.48,6.23666667 35.86,5.85 L36.53,6.62 C36.29,6.90666667 35.9866667,7.12333333 35.62,7.27 C35.2533333,7.41666667 34.84,7.49 34.38,7.49 C33.7933333,7.49 33.2766667,7.37333333 32.83,7.14 C32.3833333,6.90666667 32.0383333,6.58166667 31.795,6.165 C31.5516667,5.74833333 31.43,5.27666667 31.43,4.75 C31.43,4.23 31.5483333,3.76166667 31.785,3.345 C32.0216667,2.92833333 32.35,2.60333333 32.77,2.37 C33.19,2.13666667 33.6633333,2.02 34.19,2.02 C34.71,2.02 35.175,2.135 35.585,2.365 C35.995,2.595 36.315,2.91833333 36.545,3.335 C36.775,3.75166667 36.89,4.23333333 36.89,4.78 Z M34.19,3.02 C33.79,3.02 33.4516667,3.13833333 33.175,3.375 C32.8983333,3.61166667 32.73,3.92666667 32.67,4.32 L35.7,4.32 C35.6466667,3.93333333 35.4833333,3.62 35.21,3.38 C34.9366667,3.14 34.5966667,3.02 34.19,3.02 Z" id="Shape"></path>
            <path d="M43.32,0 L43.32,7.42 L42.12,7.42 L42.12,6.73 C41.9133333,6.98333333 41.6583333,7.17333333 41.355,7.3 C41.0516667,7.42666667 40.7166667,7.49 40.35,7.49 C39.8366667,7.49 39.375,7.37666667 38.965,7.15 C38.555,6.92333333 38.2333333,6.60166667 38,6.185 C37.7666667,5.76833333 37.65,5.29 37.65,4.75 C37.65,4.21 37.7666667,3.73333333 38,3.32 C38.2333333,2.90666667 38.555,2.58666667 38.965,2.36 C39.375,2.13333333 39.8366667,2.02 40.35,2.02 C40.7033333,2.02 41.0266667,2.08 41.32,2.2 C41.6133333,2.32 41.8633333,2.5 42.07,2.74 L42.07,0 L43.32,0 Z M40.5,6.42 C40.8,6.42 41.07,6.35166667 41.31,6.215 C41.55,6.07833333 41.74,5.88333333 41.88,5.63 C42.02,5.37666667 42.09,5.08333333 42.09,4.75 C42.09,4.41666667 42.02,4.12333333 41.88,3.87 C41.74,3.61666667 41.55,3.42166667 41.31,3.285 C41.07,3.14833333 40.8,3.08 40.5,3.08 C40.2,3.08 39.93,3.14833333 39.69,3.285 C39.45,3.42166667 39.26,3.61666667 39.12,3.87 C38.98,4.12333333 38.91,4.41666667 38.91,4.75 C38.91,5.08333333 38.98,5.37666667 39.12,5.63 C39.26,5.88333333 39.45,6.07833333 39.69,6.215 C39.93,6.35166667 40.2,6.42 40.5,6.42 Z" id="Shape"></path>
            <path d="M50.12,7.49 C49.58,7.49 49.0933333,7.37333333 48.66,7.14 C48.2266667,6.90666667 47.8883333,6.58166667 47.645,6.165 C47.4016667,5.74833333 47.28,5.27666667 47.28,4.75 C47.28,4.22333333 47.4016667,3.75333333 47.645,3.34 C47.8883333,2.92666667 48.2266667,2.60333333 48.66,2.37 C49.0933333,2.13666667 49.58,2.02 50.12,2.02 C50.6666667,2.02 51.1566667,2.13666667 51.59,2.37 C52.0233333,2.60333333 52.3616667,2.92666667 52.605,3.34 C52.8483333,3.75333333 52.97,4.22333333 52.97,4.75 C52.97,5.27666667 52.8483333,5.74833333 52.605,6.165 C52.3616667,6.58166667 52.0233333,6.90666667 51.59,7.14 C51.1566667,7.37333333 50.6666667,7.49 50.12,7.49 Z M50.12,6.42 C50.58,6.42 50.96,6.26666667 51.26,5.96 C51.56,5.65333333 51.71,5.25 51.71,4.75 C51.71,4.25 51.56,3.84666667 51.26,3.54 C50.96,3.23333333 50.58,3.08 50.12,3.08 C49.66,3.08 49.2816667,3.23333333 48.985,3.54 C48.6883333,3.84666667 48.54,4.25 48.54,4.75 C48.54,5.25 48.6883333,5.65333333 48.985,5.96 C49.2816667,6.26666667 49.66,6.42 50.12,6.42 Z" id="Shape"></path>
            <path d="M57.2,2.02 C57.8733333,2.02 58.4133333,2.21666667 58.82,2.61 C59.2266667,3.00333333 59.43,3.58666667 59.43,4.36 L59.43,7.42 L58.18,7.42 L58.18,4.52 C58.18,4.05333333 58.07,3.70166667 57.85,3.465 C57.63,3.22833333 57.3166667,3.11 56.91,3.11 C56.45,3.11 56.0866667,3.24833333 55.82,3.525 C55.5533333,3.80166667 55.42,4.2 55.42,4.72 L55.42,7.42 L54.17,7.42 L54.17,2.08 L55.36,2.08 L55.36,2.77 C55.5666667,2.52333333 55.8266667,2.33666667 56.14,2.21 C56.4533333,2.08333333 56.8066667,2.02 57.2,2.02 Z" id="Path"></path>
        </g>
        <g id="Updated-by" transform="translate(615.272857, 176.173750)" fill="#8E9EA4" fill-rule="nonzero">
            <path d="M3.07,7.52 C2.10333333,7.52 1.35,7.24833333 0.81,6.705 C0.27,6.16166667 0,5.38333333 0,4.37 L0,0.42 L1.3,0.42 L1.3,4.32 C1.3,5.69333333 1.89333333,6.38 3.08,6.38 C4.26,6.38 4.85,5.69333333 4.85,4.32 L4.85,0.42 L6.13,0.42 L6.13,4.37 C6.13,5.38333333 5.86166667,6.16166667 5.325,6.705 C4.78833333,7.24833333 4.03666667,7.52 3.07,7.52 Z" id="Path"></path>
            <path d="M10.79,2.02 C11.31,2.02 11.775,2.13333333 12.185,2.36 C12.595,2.58666667 12.9166667,2.90666667 13.15,3.32 C13.3833333,3.73333333 13.5,4.21 13.5,4.75 C13.5,5.29 13.3833333,5.76833333 13.15,6.185 C12.9166667,6.60166667 12.595,6.92333333 12.185,7.15 C11.775,7.37666667 11.31,7.49 10.79,7.49 C10.07,7.49 9.5,7.25 9.08,6.77 L9.08,9.36 L7.83,9.36 L7.83,2.08 L9.02,2.08 L9.02,2.78 C9.22666667,2.52666667 9.48166667,2.33666667 9.785,2.21 C10.0883333,2.08333333 10.4233333,2.02 10.79,2.02 Z M10.65,6.42 C11.11,6.42 11.4883333,6.26666667 11.785,5.96 C12.0816667,5.65333333 12.23,5.25 12.23,4.75 C12.23,4.25 12.0816667,3.84666667 11.785,3.54 C11.4883333,3.23333333 11.11,3.08 10.65,3.08 C10.35,3.08 10.08,3.14833333 9.84,3.285 C9.6,3.42166667 9.41,3.61666667 9.27,3.87 C9.13,4.12333333 9.06,4.41666667 9.06,4.75 C9.06,5.08333333 9.13,5.37666667 9.27,5.63 C9.41,5.88333333 9.6,6.07833333 9.84,6.215 C10.08,6.35166667 10.35,6.42 10.65,6.42 Z" id="Shape"></path>
            <path d="M19.92,0 L19.92,7.42 L18.72,7.42 L18.72,6.73 C18.5133333,6.98333333 18.2583333,7.17333333 17.955,7.3 C17.6516667,7.42666667 17.3166667,7.49 16.95,7.49 C16.4366667,7.49 15.975,7.37666667 15.565,7.15 C15.155,6.92333333 14.8333333,6.60166667 14.6,6.185 C14.3666667,5.76833333 14.25,5.29 14.25,4.75 C14.25,4.21 14.3666667,3.73333333 14.6,3.32 C14.8333333,2.90666667 15.155,2.58666667 15.565,2.36 C15.975,2.13333333 16.4366667,2.02 16.95,2.02 C17.3033333,2.02 17.6266667,2.08 17.92,2.2 C18.2133333,2.32 18.4633333,2.5 18.67,2.74 L18.67,0 L19.92,0 Z M17.1,6.42 C17.4,6.42 17.67,6.35166667 17.91,6.215 C18.15,6.07833333 18.34,5.88333333 18.48,5.63 C18.62,5.37666667 18.69,5.08333333 18.69,4.75 C18.69,4.41666667 18.62,4.12333333 18.48,3.87 C18.34,3.61666667 18.15,3.42166667 17.91,3.285 C17.67,3.14833333 17.4,3.08 17.1,3.08 C16.8,3.08 16.53,3.14833333 16.29,3.285 C16.05,3.42166667 15.86,3.61666667 15.72,3.87 C15.58,4.12333333 15.51,4.41666667 15.51,4.75 C15.51,5.08333333 15.58,5.37666667 15.72,5.63 C15.86,5.88333333 16.05,6.07833333 16.29,6.215 C16.53,6.35166667 16.8,6.42 17.1,6.42 Z" id="Shape"></path>
            <path d="M23.6,2.02 C24.3866667,2.02 24.9883333,2.20833333 25.405,2.585 C25.8216667,2.96166667 26.03,3.53 26.03,4.29 L26.03,7.42 L24.85,7.42 L24.85,6.77 C24.6966667,7.00333333 24.4783333,7.18166667 24.195,7.305 C23.9116667,7.42833333 23.57,7.49 23.17,7.49 C22.77,7.49 22.42,7.42166667 22.12,7.285 C21.82,7.14833333 21.5883333,6.95833333 21.425,6.715 C21.2616667,6.47166667 21.18,6.19666667 21.18,5.89 C21.18,5.41 21.3583333,5.025 21.715,4.735 C22.0716667,4.445 22.6333333,4.3 23.4,4.3 L24.78,4.3 L24.78,4.22 C24.78,3.84666667 24.6683333,3.56 24.445,3.36 C24.2216667,3.16 23.89,3.06 23.45,3.06 C23.15,3.06 22.855,3.10666667 22.565,3.2 C22.275,3.29333333 22.03,3.42333333 21.83,3.59 L21.34,2.68 C21.62,2.46666667 21.9566667,2.30333333 22.35,2.19 C22.7433333,2.07666667 23.16,2.02 23.6,2.02 Z M23.43,6.58 C23.7433333,6.58 24.0216667,6.50833333 24.265,6.365 C24.5083333,6.22166667 24.68,6.01666667 24.78,5.75 L24.78,5.13 L23.49,5.13 C22.77,5.13 22.41,5.36666667 22.41,5.84 C22.41,6.06666667 22.5,6.24666667 22.68,6.38 C22.86,6.51333333 23.11,6.58 23.43,6.58 Z" id="Shape"></path>
            <path d="M30.84,7.13 C30.6933333,7.25 30.515,7.34 30.305,7.4 C30.095,7.46 29.8733333,7.49 29.64,7.49 C29.0533333,7.49 28.6,7.33666667 28.28,7.03 C27.96,6.72333333 27.8,6.27666667 27.8,5.69 L27.8,3.12 L26.92,3.12 L26.92,2.12 L27.8,2.12 L27.8,0.9 L29.05,0.9 L29.05,2.12 L30.48,2.12 L30.48,3.12 L29.05,3.12 L29.05,5.66 C29.05,5.92 29.1133333,6.11833333 29.24,6.255 C29.3666667,6.39166667 29.55,6.46 29.79,6.46 C30.07,6.46 30.3033333,6.38666667 30.49,6.24 L30.84,7.13 Z" id="Path"></path>
            <path d="M36.89,4.78 C36.89,4.86666667 36.8833333,4.99 36.87,5.15 L32.68,5.15 C32.7533333,5.54333333 32.945,5.855 33.255,6.085 C33.565,6.315 33.95,6.43 34.41,6.43 C34.9966667,6.43 35.48,6.23666667 35.86,5.85 L36.53,6.62 C36.29,6.90666667 35.9866667,7.12333333 35.62,7.27 C35.2533333,7.41666667 34.84,7.49 34.38,7.49 C33.7933333,7.49 33.2766667,7.37333333 32.83,7.14 C32.3833333,6.90666667 32.0383333,6.58166667 31.795,6.165 C31.5516667,5.74833333 31.43,5.27666667 31.43,4.75 C31.43,4.23 31.5483333,3.76166667 31.785,3.345 C32.0216667,2.92833333 32.35,2.60333333 32.77,2.37 C33.19,2.13666667 33.6633333,2.02 34.19,2.02 C34.71,2.02 35.175,2.135 35.585,2.365 C35.995,2.595 36.315,2.91833333 36.545,3.335 C36.775,3.75166667 36.89,4.23333333 36.89,4.78 Z M34.19,3.02 C33.79,3.02 33.4516667,3.13833333 33.175,3.375 C32.8983333,3.61166667 32.73,3.92666667 32.67,4.32 L35.7,4.32 C35.6466667,3.93333333 35.4833333,3.62 35.21,3.38 C34.9366667,3.14 34.5966667,3.02 34.19,3.02 Z" id="Shape"></path>
            <path d="M43.32,0 L43.32,7.42 L42.12,7.42 L42.12,6.73 C41.9133333,6.98333333 41.6583333,7.17333333 41.355,7.3 C41.0516667,7.42666667 40.7166667,7.49 40.35,7.49 C39.8366667,7.49 39.375,7.37666667 38.965,7.15 C38.555,6.92333333 38.2333333,6.60166667 38,6.185 C37.7666667,5.76833333 37.65,5.29 37.65,4.75 C37.65,4.21 37.7666667,3.73333333 38,3.32 C38.2333333,2.90666667 38.555,2.58666667 38.965,2.36 C39.375,2.13333333 39.8366667,2.02 40.35,2.02 C40.7033333,2.02 41.0266667,2.08 41.32,2.2 C41.6133333,2.32 41.8633333,2.5 42.07,2.74 L42.07,0 L43.32,0 Z M40.5,6.42 C40.8,6.42 41.07,6.35166667 41.31,6.215 C41.55,6.07833333 41.74,5.88333333 41.88,5.63 C42.02,5.37666667 42.09,5.08333333 42.09,4.75 C42.09,4.41666667 42.02,4.12333333 41.88,3.87 C41.74,3.61666667 41.55,3.42166667 41.31,3.285 C41.07,3.14833333 40.8,3.08 40.5,3.08 C40.2,3.08 39.93,3.14833333 39.69,3.285 C39.45,3.42166667 39.26,3.61666667 39.12,3.87 C38.98,4.12333333 38.91,4.41666667 38.91,4.75 C38.91,5.08333333 38.98,5.37666667 39.12,5.63 C39.26,5.88333333 39.45,6.07833333 39.69,6.215 C39.93,6.35166667 40.2,6.42 40.5,6.42 Z" id="Shape"></path>
            <path d="M50.68,2.02 C51.2,2.02 51.665,2.13333333 52.075,2.36 C52.485,2.58666667 52.8066667,2.90666667 53.04,3.32 C53.2733333,3.73333333 53.39,4.21 53.39,4.75 C53.39,5.29 53.2733333,5.76833333 53.04,6.185 C52.8066667,6.60166667 52.485,6.92333333 52.075,7.15 C51.665,7.37666667 51.2,7.49 50.68,7.49 C50.3133333,7.49 49.9783333,7.42666667 49.675,7.3 C49.3716667,7.17333333 49.1166667,6.98333333 48.91,6.73 L48.91,7.42 L47.72,7.42 L47.72,0 L48.97,0 L48.97,2.73 C49.1833333,2.49666667 49.435,2.32 49.725,2.2 C50.015,2.08 50.3333333,2.02 50.68,2.02 Z M50.54,6.42 C51,6.42 51.3783333,6.26666667 51.675,5.96 C51.9716667,5.65333333 52.12,5.25 52.12,4.75 C52.12,4.25 51.9716667,3.84666667 51.675,3.54 C51.3783333,3.23333333 51,3.08 50.54,3.08 C50.24,3.08 49.97,3.14833333 49.73,3.285 C49.49,3.42166667 49.3,3.61666667 49.16,3.87 C49.02,4.12333333 48.95,4.41666667 48.95,4.75 C48.95,5.08333333 49.02,5.37666667 49.16,5.63 C49.3,5.88333333 49.49,6.07833333 49.73,6.215 C49.97,6.35166667 50.24,6.42 50.54,6.42 Z" id="Shape"></path>
            <path d="M59.58,2.08 L57.08,7.85 C56.8466667,8.43 56.5633333,8.83833333 56.23,9.075 C55.8966667,9.31166667 55.4933333,9.43 55.02,9.43 C54.7533333,9.43 54.49,9.38666667 54.23,9.3 C53.97,9.21333333 53.7566667,9.09333333 53.59,8.94 L54.09,8.02 C54.21,8.13333333 54.3516667,8.22333333 54.515,8.29 C54.6783333,8.35666667 54.8433333,8.39 55.01,8.39 C55.23,8.39 55.4116667,8.33333333 55.555,8.22 C55.6983333,8.10666667 55.83,7.91666667 55.95,7.65 L56.04,7.44 L53.71,2.08 L55.01,2.08 L56.69,6.03 L58.38,2.08 L59.58,2.08 Z" id="Path"></path>
        </g>
        <path d="M101.799107,173.625 C102.351392,173.625 102.799107,174.072715 102.799107,174.625 L102.799107,186.03125 C102.799107,186.583535 102.351392,187.03125 101.799107,187.03125 L90.3928571,187.03125 C89.8405724,187.03125 89.3928571,186.583535 89.3928571,186.03125 L89.3928571,174.625 C89.3928571,174.072715 89.8405724,173.625 90.3928571,173.625 L101.799107,173.625 Z M100.799,175.625 L91.392,175.625 L91.392,185.031 L100.799,185.031 L100.799,175.625 Z" id="Rectangle" fill="#BBC3C6" fill-rule="nonzero"></path>
        <g id="ic_navigate_next_48px" transform="translate(675.000000, 380.000000) rotate(-270.000000) translate(-675.000000, -380.000000) translate(663.000000, 368.000000)">
            <g id="Group" transform="translate(0.000000, 0.000000)">
                <path d="M12,8.41500002 L16.585,13 L18,11.585 L12,5.58500001 L6.00000001,11.585 L7.41500002,13 L12,8.41500002 Z M6.00000001,18 L18,18 L18,16 L6.00000001,16 L6.00000001,18 Z" id="Shape" fill="#8E9EA4" fill-rule="nonzero"></path>
                <polygon id="Path" points="0 0 24 0 24 24 0 24"></polygon>
            </g>
        </g>
        <g id="Group-2" opacity="0.397484189" transform="translate(619.000000, 380.000000) scale(-1, 1) translate(-619.000000, -380.000000) translate(601.000000, 368.000000)">
            <g id="ic_navigate_next_48px-copy" transform="translate(24.000000, 12.000000) rotate(-270.000000) translate(-24.000000, -12.000000) translate(12.000000, -0.000000)">
                <g id="Group" transform="translate(-0.000000, 0.000000)">
                    <path d="M12,8.41500002 L16.585,13 L18,11.585 L12,5.58500001 L6.00000001,11.585 L7.41500002,13 L12,8.41500002 Z M6.00000001,18 L18,18 L18,16 L6.00000001,16 L6.00000001,18 Z" id="Shape" fill="#BBC3C6" fill-rule="nonzero"></path>
                    <polygon id="Path" points="0 0 24 0 24 24 0 24"></polygon>
                </g>
            </g>
            <polygon id="Path-Copy" fill="#BBC3C6" fill-rule="nonzero" transform="translate(3.707500, 12.000000) rotate(-270.000000) translate(-3.707500, -12.000000) " points="3.70750001 11.1225 8.29250002 15.7075 9.70750002 14.2925 3.70750001 8.29249999 -2.2925 14.2925 -0.877500002 15.7075"></polygon>
        </g>
        <polygon id="Path" fill="#8E9EA4" fill-rule="nonzero" transform="translate(654.707500, 380.000000) rotate(-270.000000) translate(-654.707500, -380.000000) " points="654.7075 379.1225 659.2925 383.7075 660.7075 382.2925 654.7075 376.2925 648.7075 382.2925 650.1225 383.7075"></polygon>
        <polygon id="Triangle" fill="#1E3D49" transform="translate(106.052736, 378.230732) rotate(-180.000000) translate(-106.052736, -378.230732) " points="106.052736 376 109.105472 380.461464 103 380.461464"></polygon>
        <polygon id="Line-7" fill="#BBC3C6" fill-rule="nonzero" points="110 388 110 389 86 389 86 388"></polygon>
        <g id="01_icon/48/delete_48px" transform="translate(656.166667, 131.083333)" fill="#FFFFFF">
            <path d="M12.7314815,6.94444444 L12.7314815,18.5185185 L3.47222222,18.5185185 L3.47222222,6.94444444 L12.7314815,6.94444444 M10.9953704,0 L5.20833333,0 L4.05092593,1.15740741 L0,1.15740741 L0,3.47222222 L16.2037037,3.47222222 L16.2037037,1.15740741 L12.1527778,1.15740741 L10.9953704,0 Z M15.0462963,4.62962963 L1.15740741,4.62962963 L1.15740741,18.5185185 C1.15740741,19.7916667 2.19907407,20.8333333 3.47222222,20.8333333 L12.7314815,20.8333333 C14.0046296,20.8333333 15.0462963,19.7916667 15.0462963,18.5185185 L15.0462963,4.62962963 Z" id="Shape"></path>
        </g>
        <g id="Group-7" transform="translate(616.767857, 127.156250)">
            <circle id="Oval" fill="#000000" opacity="0.802106585" cx="14.4375" cy="14.4375" r="14.4375"></circle>
            <g id="01_icon/48/edit_1" transform="translate(5.982143, 5.593750)" fill="#FFFFFF">
                <path d="M0,13.8541667 L0,17.5 L3.64532704,17.5 L14.3966116,6.74722222 L10.7512845,3.10138889 L0,13.8541667 Z M2.83849465,15.5555556 L1.94417442,15.5555556 L1.94417442,14.6611111 L10.7512845,5.85277778 L11.6456048,6.74722222 L2.83849465,15.5555556 Z M17.2156645,2.55694444 L14.9409804,0.281944444 C14.746563,0.0875 14.5035412,0 14.2507985,0 C13.9980558,0 13.755034,0.0972222222 13.5703375,0.281944444 L11.7914179,2.06111111 L15.4367449,5.70694444 L17.2156645,3.92777778 C17.5947785,3.54861111 17.5947785,2.93611111 17.2156645,2.55694444 Z" id="Shape"></path>
            </g>
        </g>
        <path d="M676.549107,126.125 C680.967385,126.125 684.549107,129.706722 684.549107,134.125 L684.549107,150.09375 C684.549107,154.512028 680.967385,158.09375 676.549107,158.09375 L615.549107,158.09375 C611.130829,158.09375 607.549107,154.512028 607.549107,150.09375 L607.549107,134.125 C607.549107,129.706722 611.130829,126.125 615.549107,126.125 L676.549107,126.125 Z M676.549107,127.125 L615.549107,127.125 C611.763655,127.125 608.680008,130.129783 608.553166,133.88435 L608.549107,134.125 L608.549107,150.09375 C608.549107,153.879202 611.553891,156.962849 615.308457,157.089691 L615.549107,157.09375 L676.549107,157.09375 C680.334559,157.09375 683.418206,154.088967 683.545048,150.3344 L683.549107,150.09375 L683.549107,134.125 C683.549107,130.339548 680.544324,127.255901 676.789757,127.129059 L676.549107,127.125 Z" id="Rectangle-Copy" fill="#FDCB5B" fill-rule="nonzero"></path>
        <g id="Group-4-Copy-5" transform="translate(590.000000, 141.000000) rotate(-270.000000) translate(-590.000000, -141.000000) translate(579.000000, 129.000000)">
            <g id="Group-2" transform="translate(11.000000, 12.000000) scale(-1, 1) rotate(-270.000000) translate(-11.000000, -12.000000) translate(-1.000000, 1.000000)" fill="#FDCB5B">
                <polyline id="Path-2" transform="translate(1.625442, 11.555911) rotate(-180.000000) translate(-1.625442, -11.555911) " points="0 8.23515644 0 14.8766659 3.25088337 11.5559112"></polyline>
                <path d="M6.46289766,1.84929709e-12 L20,1.84929709e-12 C22.209139,1.84889128e-12 24,1.790861 24,4 L24,18 C24,20.209139 22.209139,22 20,22 L6.46289766,22 C4.25375866,22 2.46289766,20.209139 2.46289766,18 L2.46289766,11.3797667 L2.46289766,11.3797667 L2.46289766,4 C2.46289766,1.790861 4.25375866,1.84970291e-12 6.46289766,1.84929709e-12 Z" id="Rectangle"></path>
            </g>
            <g id="A" transform="translate(12.597500, 14.487000) rotate(-90.000000) translate(-12.597500, -14.487000) translate(7.963000, 9.937000)" fill="#FFFFFF" fill-rule="nonzero">
                <path d="M7.163,6.669 L2.093,6.669 L1.001,9.1 L-4.03430047e-13,9.1 L4.16,0 L5.109,0 L9.269,9.1 L8.255,9.1 L7.163,6.669 Z M6.812,5.889 L4.628,1.001 L2.444,5.889 L6.812,5.889 Z" id="Shape"></path>
            </g>
        </g>
    </g>
</svg>